<svg version="1.1" viewBox="0 0 256 256" xmlns="http://www.w3.org/2000/svg" xmlns:xlink="http://www.w3.org/1999/xlink">
<defs>
<linearGradient id="linearGradient48487">
<stop stop-color="#343467" offset="0"/>
<stop stop-color="#99cbfe" offset="1"/>
</linearGradient>
<linearGradient id="linearGradient39568">
<stop stop-color="#a0d0ff" offset="0"/>
<stop stop-color="#fafcff" offset="1"/>
</linearGradient>
<linearGradient id="linearGradient39570" x1="69.78" x2="64.608" y1="78.662" y2="73.454" gradientTransform="matrix(18.333,0,0,18.333,-1146.7,-1288.6)" gradientUnits="userSpaceOnUse" xlink:href="#linearGradient39568"/>
<linearGradient id="linearGradient48489" x1="70.068" x2="64.568" y1="78.5" y2="73" gradientTransform="matrix(18.333,0,0,18.333,-1146.7,-1288.6)" gradientUnits="userSpaceOnUse" xlink:href="#linearGradient48487"/>
<filter id="filter3683" x="-.17814" y="-.093788" width="1.3563" height="1.1876" color-interpolation-filters="sRGB">
<feGaussianBlur stdDeviation="8.5601999"/>
</filter>
<filter id="filter3683-1" x="-.17814" y="-.093788" width="1.3563" height="1.1876" color-interpolation-filters="sRGB">
<feGaussianBlur stdDeviation="8.5601999"/>
</filter>
</defs>
<path d="m16.944 21.799a2.6653 2.6653 0 0 0-2.6641 2.666v213.72a2.6653 2.6653 0 0 0 2.6641 2.666h110a2.6653 2.6653 0 0 0 2.666-2.666v-213.72a2.6653 2.6653 0 0 0-2.666-2.666z" color="#000000" fill-rule="evenodd" filter="url(#filter3683)" opacity=".83" stroke-linecap="round" stroke-linejoin="round" stroke-miterlimit="5.8" stroke-width="5.33" style="-inkscape-stroke:none"/>
<g transform="translate(-19.284 -.60179)" stroke-linecap="round" stroke-miterlimit="5.8" stroke-width="5.33">
<g transform="translate(-5.6882,-45.238)">
<rect x="27.917" y="49.759" width="110" height="110" fill="url(#linearGradient39570)" fill-rule="evenodd" stop-color="#000000" stroke="url(#linearGradient48489)" stroke-linejoin="round"/>
<g fill="#80bdfb" stroke="#80bdfb">
<path d="m53.416 104.28h55"/>
<path d="m53.416 137.83h55"/>
<path d="m53.416 121.06h55"/>
<path d="m53.416 70.736h55"/>
<path d="m53.416 87.51h55"/>
</g>
</g>
<g transform="translate(-5.6882 6.6229)">
<rect x="27.917" y="49.759" width="110" height="110" fill="url(#linearGradient39570)" fill-rule="evenodd" stop-color="#000000" stroke="url(#linearGradient48489)" stroke-linejoin="round"/>
<g fill="#80bdfb" stroke="#80bdfb">
<path d="m53.416 104.28h55"/>
<path d="m53.416 137.83h55"/>
<path d="m53.416 121.06h55"/>
<path d="m53.416 70.736h55"/>
<path d="m53.416 87.51h55"/>
</g>
</g>
<g transform="translate(-5.6882 58.484)">
<rect x="27.917" y="49.759" width="110" height="110" fill="url(#linearGradient39570)" fill-rule="evenodd" stop-color="#000000" stroke="url(#linearGradient48489)" stroke-linejoin="round"/>
<g fill="#80bdfb" stroke="#80bdfb">
<path d="m53.416 104.28h55"/>
<path d="m53.416 137.83h55"/>
<path d="m53.416 121.06h55"/>
<path d="m53.416 70.736h55"/>
<path d="m53.416 87.51h55"/>
</g>
</g>
</g>
<path d="m144.03 21.799a2.6653 2.6653 0 0 0-2.6641 2.666v213.72a2.6653 2.6653 0 0 0 2.6641 2.666h110a2.6653 2.6653 0 0 0 2.666-2.666v-213.72a2.6653 2.6653 0 0 0-2.666-2.666z" color="#000000" fill-rule="evenodd" filter="url(#filter3683-1)" opacity=".83" stroke-linecap="round" stroke-linejoin="round" stroke-miterlimit="5.8" stroke-width="5.33" style="-inkscape-stroke:none"/>
<g transform="translate(107.81 -.60179)" stroke-linecap="round" stroke-miterlimit="5.8" stroke-width="5.33">
<g transform="translate(-5.6882,-45.238)">
<rect x="27.917" y="49.759" width="110" height="110" fill="url(#linearGradient39570)" fill-rule="evenodd" stop-color="#000000" stroke="url(#linearGradient48489)" stroke-linejoin="round"/>
<g fill="#80bdfb" stroke="#80bdfb">
<path d="m53.416 104.28h55"/>
<path d="m53.416 137.83h55"/>
<path d="m53.416 121.06h55"/>
<path d="m53.416 70.736h55"/>
<path d="m53.416 87.51h55"/>
</g>
</g>
<g transform="translate(-5.6882 6.6229)">
<rect x="27.917" y="49.759" width="110" height="110" fill="url(#linearGradient39570)" fill-rule="evenodd" stop-color="#000000" stroke="url(#linearGradient48489)" stroke-linejoin="round"/>
<g fill="#80bdfb" stroke="#80bdfb">
<path d="m53.416 104.28h55"/>
<path d="m53.416 137.83h55"/>
<path d="m53.416 121.06h55"/>
<path d="m53.416 70.736h55"/>
<path d="m53.416 87.51h55"/>
</g>
</g>
<g transform="translate(-5.6882 58.484)">
<rect x="27.917" y="49.759" width="110" height="110" fill="url(#linearGradient39570)" fill-rule="evenodd" stop-color="#000000" stroke="url(#linearGradient48489)" stroke-linejoin="round"/>
<g fill="#80bdfb" stroke="#80bdfb">
<path d="m53.416 104.28h55"/>
<path d="m53.416 137.83h55"/>
<path d="m53.416 121.06h55"/>
<path d="m53.416 70.736h55"/>
<path d="m53.416 87.51h55"/>
</g>
</g>
</g>
</svg>
