<svg version="1.1" viewBox="0 0 256 256" xmlns="http://www.w3.org/2000/svg" xmlns:xlink="http://www.w3.org/1999/xlink">
<defs>
<linearGradient id="linearGradient1047">
<stop stop-color="#ececec" offset="0"/>
<stop stop-color="#29292d" offset="1"/>
</linearGradient>
<linearGradient id="linearGradient1307">
<stop stop-color="#99c3ed" offset="0"/>
<stop stop-color="#5e6b77" offset=".51076"/>
<stop stop-color="#4c4c4c" offset="1"/>
</linearGradient>
<linearGradient id="linearGradient1299-3-9" x1="-610.9" x2="-482.9" y1="-86.141" y2="-86.141" gradientUnits="userSpaceOnUse">
<stop stop-color="#fbc85e" offset="0"/>
<stop stop-color="#e7b436" offset=".5"/>
<stop stop-color="#cf9b05" offset="1"/>
</linearGradient>
<linearGradient id="linearGradient1195-3-3" x1="-183.66" x2="-151.75" y1="270.02" y2="270.02" gradientTransform="matrix(.79293 0 0 .79293 57.788 -67.895)" gradientUnits="userSpaceOnUse">
<stop stop-color="#8f520c" offset="0"/>
<stop stop-color="#8f520c" stop-opacity="0" offset="1"/>
</linearGradient>
<linearGradient id="linearGradient1097-9" x1="-383.65" x2="-351.65" y1="83.664" y2="83.664" gradientTransform="matrix(.79293 0 0 .79293 194.19 63.892)" gradientUnits="userSpaceOnUse" xlink:href="#linearGradient1047"/>
<linearGradient id="linearGradient1099-8" x1="-381.33" x2="-352.64" y1="51.977" y2="60.823" gradientTransform="matrix(.79293 0 0 .79293 194.19 63.892)" gradientUnits="userSpaceOnUse" xlink:href="#linearGradient1307"/>
<linearGradient id="linearGradient1299-3-9-8" x1="-610.9" x2="-482.9" y1="-86.141" y2="-86.141" gradientUnits="userSpaceOnUse">
<stop stop-color="#90f95f" offset="0"/>
<stop stop-color="#4ecd34" offset=".5"/>
<stop stop-color="#0ea309" offset="1"/>
</linearGradient>
<linearGradient id="linearGradient1331" x1="-183.66" x2="-151.75" y1="270.02" y2="270.02" gradientTransform="matrix(.79293 0 0 .79293 57.788 -67.895)" gradientUnits="userSpaceOnUse">
<stop stop-color="#287c24" offset="0"/>
<stop stop-color="#0ba007" offset="1"/>
</linearGradient>
<filter id="filter893" x="-.12617" y="-.11976" width="1.2523" height="1.2395" color-interpolation-filters="sRGB">
<feGaussianBlur stdDeviation="12.075702"/>
</filter>
</defs>
<g transform="translate(-12.568)">
<path d="m112.32 14a18.917 13.005 0 0 0-18.916 13.006v10.84c-2.9325 0.79904-5.7758 1.7746-8.4883 2.9355l-14.066-7.2949c-2.6521-1.375-7.7231-0.5194-12.123 3.0664-3.0712 2.5029-4.7755 5.3882-4.7617 7.5547-2.16e-4 -3.3e-5 -0.04102-0.0078-0.04102-0.0078s-1.2747 14.58 1.041 16.467l4.3008 5.0117c-0.4355 1.1926-0.81729 2.3969-1.1074 3.6172l-15.682 1.8086c-3.2534 0.37495-5.9121 4.0813-5.9121 9.1523v14.133c0 5.0711 2.6371 9.1543 5.9121 9.1543l18.283 1.8965-5.7949 8.543c-0.69791 0.56877-0.99268 1.3835-1 2.3184l-0.04102 0.0137 0.35742 11.668c0.19677 2.6419 0.04538 6.4279 4.4453 10.014 4.3999 3.5858 9.5401 4.5655 12.123 3.0645l24.229-12.316c1.4511 0.42787 1.8344 0.77986 3.3047 1.1133l0.95117 7.1621c0 0.19864 0.04812 0.39286 0.11914 0.58594l1.748 13.102c0.54948 2.6735 4.8088 5.3477 11.031 5.3477 5.0066 0 8.5914-1.6006 10.139-3.5762 0.14883 0.30575 0.30958 0.56587 0.50196 0.72265l4.6426 5.4082c-0.46989 1.2867-0.88425 2.5838-1.1973 3.9004l-16.916 1.9512c-3.5095 0.40446-6.377 4.4048-6.377 9.875v15.244c0 5.4702 2.8442 9.873 6.377 9.873l19.723 2.0449-6.252 9.2168c-0.75269 0.61342-1.0681 1.4918-1.0762 2.5l-0.0449 0.0156 0.38477 12.588c0.21226 2.8498 0.0487 6.9308 4.7949 10.799 4.7462 3.868 10.292 4.9258 13.078 3.3066l26.135-13.285c1.5651 0.46147 1.9792 0.84156 3.5645 1.2012l1.0254 7.7246c0 0.21434 0.0522 0.42642 0.1289 0.63477l1.8867 14.133c0.59273 2.884 5.1862 5.7676 11.898 5.7676 6.7122 0 11.118-2.6587 11.787-5.459l2.1855-14.84c0.0447-0.10932 0.0967-0.21798 0.12305-0.32812l1.2324-7.9609c1.2052-0.29282 1.4818-0.48246 2.7578-0.85742l26.555 13.27c2.7885 1.6151 8.328 0.56138 13.074-3.3066s4.5133-6.4869 4.9297-10.643l0.25195-12.744-0.0449-0.041c-0.0138-0.99732-0.33171-1.8663-1.0781-2.4746l-6.9609-8.4961c0.12752-0.23331 0.28016-0.45843 0.40234-0.69336l20.031-2.0723c3.514-0.36346 6.377-4.4028 6.377-9.873v-15.244c0-5.4702-2.8442-9.875-6.377-9.875l-16.924-1.9844c-0.32856-1.3745-0.76815-2.7288-1.2676-4.0703l4.7188-5.2051c2.498-2.0358 1.1211-17.762 1.1211-17.762s-0.0447 8e-3 -0.0449 8e-3c0.0144-2.337-1.8223-5.4489-5.1348-8.1484-4.7462-3.868-10.142-4.646-13.074-3.3086l-16.258 7.416c-2.5361-1.0328-5.1735-1.915-7.8809-2.6602v-11.746a20.406 14.029 0 0 0-20.406-14.029 20.406 14.029 0 0 0-1.1074 0.0508c2.4532-1.2159 4.2617-4.4582 4.2617-8.6328v-14.133c0-5.0711-2.6352-9.1523-5.9102-9.1523l-15.689-1.8418c-0.30454-1.274-0.71095-2.528-1.1738-3.7715l4.373-4.8242c2.3158-1.8873 1.0391-16.467 1.0391-16.467s-0.0408 0.0078-0.041 0.0078c0.0138-2.1665-1.6886-5.0518-4.7598-7.5547-4.3999-3.5858-9.4031-4.3062-12.121-3.0664l-15.072 6.875c-2.3509-0.95738-4.795-1.778-7.3047-2.4688v-10.887a18.917 13.005 0 0 0-18.918-13.006zm64.504 89.977a20.406 14.029 0 0 0-10.148 6.4629l-3.6309-4.4316c0.11845-0.2167 0.25957-0.42632 0.37305-0.64453z" fill-rule="evenodd" filter="url(#filter893)" opacity=".83"/>
<g transform="translate(-38.738 -45.031)">
<g transform="matrix(1.4911 0 0 1.4911 282.1 -104.5)">
<g transform="matrix(.79293 0 0 .64621 442.67 22.992)" fill="#893500">
<path transform="matrix(1 0 0 1.227 -134.21 293.97)" d="m-546.9-126.34c-5.263 0-8.8781 1.9041-9.5 4.0742l-3.3027 11.527c-3.5963 0.7696-7.0549 1.8608-10.301 3.25l-11.898-6.168c-2.2432-1.163-14.316-2.9787-14.316-2.9787s-1.0786 12.332 0.88012 13.928l7.5723 8.8223c-2.3593 3.2606-4.0039 6.7824-4.8711 10.432l-18.264-2.6836v11.953c0 4.2892 2.23 7.7422 5 7.7422l15.707 1.6289c1.0547 2.0252 2.3619 3.9719 3.9043 5.8145l-9.9289 3.3596 0.30186 9.8694c0.16643 2.2345 0.0384 5.4354 3.7599 8.4683 3.7215 3.0329 8.0692 3.8614 10.254 2.5918l20.493-10.416c1.241 0.36593 1.5471 0.66596 2.8257 0.95078l2.3536 17.626c0.46475 2.2613 4.0662 4.5231 9.3292 4.5231s8.7166-2.0843 9.2412-4.28l2.6673-18.104c1.0784-0.25084 1.2219-0.39496 2.273-0.70383l20.82 10.404c2.1865 1.2664 6.5304 0.4411 10.252-2.5918 3.7215-3.0329 3.5387-5.0872 3.8652-8.3457l0.19726-9.9922-7.4121-6.7793c0.50305-0.78617 0.96627-1.5862 1.3887-2.3984l15.707-1.625c2.7553-0.28499 5-3.453 5-7.7422v-11.953l-18.27 2.6543c-0.89322-3.7367-2.6015-7.3386-5.0566-10.662l7.7617-8.5625c1.9587-1.5963 0.88012-13.928 0.88012-13.928s-12.015 1.93-14.314 2.9787l-12.746 5.8145c-2.8311-1.1535-5.8152-2.0836-8.9043-2.7754l-3.8516-11.648c0-2.2575-4.237-4.0742-9.5-4.0742z" fill="#007400" fill-rule="evenodd"/>
</g>
<g transform="matrix(.79293 0 0 .64621 442.67 13.513)">
<path transform="matrix(1 0 0 1.227 -134.21 308.64)" d="m-546.9-138.3c-5.263 0-8.8781 1.9061-9.5 4.0762l-3.3027 11.527c-3.5963 0.7696-7.0549 1.8608-10.301 3.25l-11.898-6.1699c-2.2432-1.163-6.5324-0.43915-10.254 2.5938-3.7215 3.0329-5.1403 6.7592-3.1816 8.3555l7.5723 8.8242c-2.3591 3.26-4.0036 6.7811-4.8711 10.43l-13.264 1.5293c-2.7518 0.31714-5 3.453-5 7.7422s2.23 7.7422 5 7.7422l15.709 1.6289c1.0541 2.0251 2.3606 3.9718 3.9023 5.8145l-9.0488 13.34c-1.9587 1.5963-0.53987 5.3226 3.1816 8.3555 3.7215 3.0329 8.0692 3.8633 10.254 2.5938l17.926-10.418c1.241 0.36659 2.5026 0.69306 3.7812 0.97852l2.3851 17.975c0 2.2575 5.6468 4.1477 10.91 4.1477s10.528-2.0254 11.052-4.221l2.7894-18.027c1.0778-0.25152 2.143-0.5323 3.1934-0.8418l17.967 10.406c2.1865 1.2664 6.5304 0.43915 10.252-2.5938 3.7215-3.0329 5.1403-6.7592 3.1816-8.3555l-10.02-12.23c1.9703-2.1645 3.6064-4.4885 4.877-6.9277l15.707-1.625c2.7553-0.28498 5-3.453 5-7.7422s-2.23-7.7422-5-7.7422l-13.27-1.5566c-0.89322-3.7367-2.6015-7.3386-5.0566-10.662l7.7617-8.5645c1.9587-1.5963 0.53986-5.3226-3.1816-8.3555-3.7215-3.0329-7.9531-3.6424-10.252-2.5938l-12.748 5.8144c-2.8305-1.1527-5.8141-2.0822-8.9023-2.7734l-3.8516-11.648c0-2.2574-4.237-4.0762-9.5-4.0762z" fill="url(#linearGradient1299-3-9-8)" fill-rule="evenodd"/>
</g>
<g>
<path d="m-97.815 154.13c6.9386 0 8.6592-0.23756 12.541-3.1088l21.899-0.0563c4.3171-0.044-1.8604-12.68-5.1785-12.68h-16.66z" fill="url(#linearGradient1331)"/>
<path d="m-110.02 109.01v33.829c0 14.922 25.374 15.211 25.374-0.0192v-33.81" fill="url(#linearGradient1097-9)"/>
<ellipse cx="-97.338" cy="109.01" rx="12.687" ry="8.7222" fill="url(#linearGradient1099-8)" fill-rule="evenodd"/>
</g>
</g>
<g transform="matrix(1.6084 0 0 1.6084 365.94 -27.397)">
<g transform="matrix(.79293 0 0 .64621 442.67 22.992)" fill="#893500">
<path transform="matrix(1 0 0 1.227 -134.21 293.97)" d="m-546.9-126.34c-5.263 0-8.8781 1.9041-9.5 4.0742l-3.3027 11.527c-3.5963 0.7696-7.0549 1.8608-10.301 3.25l-11.898-6.168c-2.2432-1.163-14.316-2.9787-14.316-2.9787s-1.0786 12.332 0.88012 13.928l7.5723 8.8223c-2.3593 3.2606-4.0039 6.7824-4.8711 10.432l-18.264-2.6836v11.953c0 4.2892 2.23 7.7422 5 7.7422l15.707 1.6289c1.0547 2.0252 2.3619 3.9719 3.9043 5.8145l-9.9289 3.3596 0.30186 9.8694c0.16643 2.2345 0.0384 5.4354 3.7599 8.4683 3.7215 3.0329 8.0692 3.8614 10.254 2.5918l20.493-10.416c1.241 0.36593 1.5471 0.66596 2.8257 0.95078l2.3536 17.626c0.46475 2.2613 4.0662 4.5231 9.3292 4.5231s8.7166-2.0843 9.2412-4.28l2.6673-18.104c1.0784-0.25084 1.2219-0.39496 2.273-0.70383l20.82 10.404c2.1865 1.2664 6.5304 0.4411 10.252-2.5918 3.7215-3.0329 3.5387-5.0872 3.8652-8.3457l0.19726-9.9922-7.4121-6.7793c0.50305-0.78617 0.96627-1.5862 1.3887-2.3984l15.707-1.625c2.7553-0.28499 5-3.453 5-7.7422v-11.953l-18.27 2.6543c-0.89322-3.7367-2.6015-7.3386-5.0566-10.662l7.7617-8.5625c1.9587-1.5963 0.88012-13.928 0.88012-13.928s-12.015 1.93-14.314 2.9787l-12.746 5.8145c-2.8311-1.1535-5.8152-2.0836-8.9043-2.7754l-3.8516-11.648c0-2.2575-4.237-4.0742-9.5-4.0742z" fill="#893500" fill-rule="evenodd"/>
</g>
<g transform="matrix(.79293 0 0 .64621 442.67 13.513)">
<path transform="matrix(1 0 0 1.227 -134.21 308.64)" d="m-546.9-138.3c-5.263 0-8.8781 1.9061-9.5 4.0762l-3.3027 11.527c-3.5963 0.7696-7.0549 1.8608-10.301 3.25l-11.898-6.1699c-2.2432-1.163-6.5324-0.43915-10.254 2.5938-3.7215 3.0329-5.1403 6.7592-3.1816 8.3555l7.5723 8.8242c-2.3591 3.26-4.0036 6.7811-4.8711 10.43l-13.264 1.5293c-2.7518 0.31714-5 3.453-5 7.7422s2.23 7.7422 5 7.7422l15.709 1.6289c1.0541 2.0251 2.3606 3.9718 3.9023 5.8145l-9.0488 13.34c-1.9587 1.5963-0.53987 5.3226 3.1816 8.3555 3.7215 3.0329 8.0692 3.8633 10.254 2.5938l17.926-10.418c1.241 0.36659 2.5026 0.69306 3.7812 0.97852l2.3851 17.975c0 2.2575 5.6468 4.1477 10.91 4.1477s10.528-2.0254 11.052-4.221l2.7894-18.027c1.0778-0.25152 2.143-0.5323 3.1934-0.8418l17.967 10.406c2.1865 1.2664 6.5304 0.43915 10.252-2.5938 3.7215-3.0329 5.1403-6.7592 3.1816-8.3555l-10.02-12.23c1.9703-2.1645 3.6064-4.4885 4.877-6.9277l15.707-1.625c2.7553-0.28498 5-3.453 5-7.7422s-2.23-7.7422-5-7.7422l-13.27-1.5566c-0.89322-3.7367-2.6015-7.3386-5.0566-10.662l7.7617-8.5645c1.9587-1.5963 0.53986-5.3226-3.1816-8.3555-3.7215-3.0329-7.9531-3.6424-10.252-2.5938l-12.748 5.8144c-2.8305-1.1527-5.8141-2.0822-8.9023-2.7734l-3.8516-11.648c0-2.2574-4.237-4.0762-9.5-4.0762z" fill="url(#linearGradient1299-3-9)" fill-rule="evenodd"/>
</g>
<g>
<path d="m-97.815 154.13c6.9386 0 8.6592-0.23756 12.541-3.1088l21.899-0.0563c4.3171-0.044-1.8604-12.68-5.1785-12.68h-16.66z" fill="url(#linearGradient1195-3-3)"/>
<path d="m-110.02 109.01v33.829c0 14.922 25.374 15.211 25.374-0.0192v-33.81" fill="url(#linearGradient1097-9)"/>
<ellipse cx="-97.338" cy="109.01" rx="12.687" ry="8.7222" fill="url(#linearGradient1099-8)" fill-rule="evenodd"/>
</g>
</g>
</g>
</g>
</svg>
