<svg version="1.1" viewBox="0 0 256 256" xmlns="http://www.w3.org/2000/svg" xmlns:xlink="http://www.w3.org/1999/xlink"><defs><linearGradient id="linearGradient1378" x1="-317.75" x2="-330.09" y1="155.92" y2="119.61" gradientTransform="translate(-1,1.5)" gradientUnits="userSpaceOnUse"><stop stop-color="#c7c7f7" offset="0"/><stop stop-color="#9898a8" offset="1"/></linearGradient><linearGradient id="linearGradient1380" x1="-168.43" x2="-108.43" y1="117.94" y2="117.94" gradientTransform="translate(-222.16 25.062)" gradientUnits="userSpaceOnUse"><stop stop-color="#3e3e3e" offset="0"/><stop stop-color="#6e6d6d" offset=".5"/><stop stop-color="#979696" offset="1"/></linearGradient><linearGradient id="linearGradient1382" x1="-712.7" x2="-472.7" y1="11.5" y2="11.5" gradientTransform="translate(196.71 89.7)" gradientUnits="userSpaceOnUse"><stop stop-color="#e8e8e8" offset="0"/><stop stop-color="#dbdbdb" offset=".5"/><stop stop-color="#d3d3d3" offset="1"/></linearGradient><linearGradient id="linearGradient1384" x1="-94.614" x2="82.969" y1="-85.841" y2="-85.841" gradientTransform="translate(-397.59 176.07)" gradientUnits="userSpaceOnUse"><stop stop-color="#d1d1d1" offset="0"/><stop stop-color="#d1d1d1" offset=".32482"/><stop stop-color="#acacac" offset=".57872"/><stop stop-color="#cecee4" offset="1"/></linearGradient><linearGradient id="linearGradient1386" x1="-271.96" x2="-91.215" y1="-5.222" y2="-5.4544" gradientTransform="translate(-221.56 89.7)" gradientUnits="userSpaceOnUse"><stop stop-color="#f6f6f6" offset="0"/><stop stop-color="#ddd" offset=".27974"/><stop stop-color="#fdfdfd" offset=".543"/><stop stop-color="#ddd" offset=".71937"/><stop stop-color="#fcfcfc" offset=".875"/><stop stop-color="#e5e5e6" offset="1"/></linearGradient><linearGradient id="linearGradient1388" x1="-397.93" x2="-274.99" y1="121.35" y2="121.35" gradientUnits="userSpaceOnUse"><stop stop-color="#fff" offset="0"/><stop stop-color="#4f4f51" offset="1"/></linearGradient><linearGradient id="linearGradient1043" x1="-462.19" x2="-466.67" y1="117.95" y2="135.37" gradientUnits="userSpaceOnUse"><stop stop-color="#a8a8a8" offset="0"/><stop stop-color="#bfbfbf" offset="1"/></linearGradient><filter id="filter1049" x="-.037703" y="-.069818" width="1.0754" height="1.1396" color-interpolation-filters="sRGB"><feGaussianBlur stdDeviation="3.7808024"/></filter><linearGradient id="linearGradient1031" x1="-427.34" x2="-439.07" y1="54.602" y2="60.168" gradientUnits="userSpaceOnUse"><stop stop-color="#212121" offset="0"/><stop stop-color="#212121" stop-opacity="0" offset="1"/></linearGradient><filter id="filter1060" x="-.020345" y="-.038378" width="1.0407" height="1.0768" color-interpolation-filters="sRGB"><feGaussianBlur stdDeviation="2.0782665"/></filter></defs><g transform="translate(-12.568)"><g transform="matrix(1.0104 0 0 1.0104 679.63 77.718)"><g transform="translate(12.568)" shape-rendering="auto"><path d="m-552.1-14.938-0.45054 0.14154-2.7949 0.86917c0.0164-0.0052 9e-3 -0.0051-0.0458 0.01196l-2e-3 2e-3 -109.47 34.057-8e-3 4e-3 -6e-3 2e-3c-6e-3 0.0018-0.0172 0.0033-0.0418 0.01196l-3.5325 1.1004v3.6202l1.7134 35.381v1.9895l121.14 52.774 4.3558-1.8181 110.03-42.083 3.4209-1.4274v-43.846l-2.0095-0.62198c-0.64115-0.52349-1.3681-0.89931-2.1291-1.1582l-0.0219-8e-3z" color="#000000" color-rendering="auto" dominant-baseline="auto" fill="#212121" filter="url(#filter1049)" image-rendering="auto" solid-color="#000000" stop-color="#000000" style="font-feature-settings:normal;font-variant-alternates:normal;font-variant-caps:normal;font-variant-east-asian:normal;font-variant-ligatures:normal;font-variant-numeric:normal;font-variant-position:normal;font-variation-settings:normal;inline-size:0;isolation:auto;mix-blend-mode:normal;shape-margin:0;shape-padding:0;text-decoration-color:#000000;text-decoration-line:none;text-decoration-style:solid;text-indent:0;text-orientation:mixed;text-transform:none;white-space:normal"/><path d="m-552.1-14.938-0.45054 0.14154-2.7949 0.86917c0.0164-0.0052 9e-3 -0.0051-0.0458 0.01196l-2e-3 2e-3 -109.47 34.057-8e-3 4e-3 -6e-3 2e-3c-6e-3 0.0018-0.0172 0.0033-0.0418 0.01196l-3.5325 1.1004v3.6202l1.7134 35.381v1.9895l121.14 52.774 4.3558-1.8181 114.45-45.382 3.4209-1.4274v-3.8076l0.0871-32.784v-4.0389l-2.0095-0.62198c-0.64115-0.52349-1.3681-0.89931-2.1291-1.1582l-0.0219-8e-3z" color="#000000" color-rendering="auto" dominant-baseline="auto" fill="url(#linearGradient1031)" filter="url(#filter1060)" image-rendering="auto" solid-color="#000000" stop-color="#000000" style="font-feature-settings:normal;font-variant-alternates:normal;font-variant-caps:normal;font-variant-east-asian:normal;font-variant-ligatures:normal;font-variant-numeric:normal;font-variant-position:normal;font-variation-settings:normal;inline-size:0;isolation:auto;mix-blend-mode:normal;shape-margin:0;shape-padding:0;text-decoration-color:#000000;text-decoration-line:none;text-decoration-style:solid;text-indent:0;text-orientation:mixed;text-transform:none;white-space:normal"/></g><g transform="translate(-140.05 -78.47)"><path d="m-395.94 185.37v-49l-118.21-41.669v40.5z" fill="#d1d1d1"/><path d="m-514.1 117.5v-22.5l118.21 41.999v26.318z" fill="url(#linearGradient1043)"/><path d="m-514.13 115.87 119.75 47.947" fill="none" stroke="#404040" stroke-width="4"/><g><path d="m-395.94 185.37v-51l119.95-35.169v40.852z" fill="url(#linearGradient1378)"/><path d="m-390.59 177.88v-38l86-26.318v33.5z" fill="#333"/><path d="m-330.59 155.86c-9.3088 5.3744-41.681 4.3798-60-1.4783v-14.5l59.998-18.179" fill="url(#linearGradient1380)"/></g><path d="m-390.59 177.88v-38l86-26.318v33.5z" fill="none" stroke="#30302c" stroke-width="1px"/><g><path d="m-514.16 94.7 118.21 41.669 119.95-37.169-127.5-39.5z" fill="url(#linearGradient1382)"/><path d="m-495.8 88.535c16.936 19.495 75.77 31.794 111.26 32.2 50.82 0.5809 80.839-14.602 75.057-32.035l-94-29z" fill="url(#linearGradient1384)"/><path d="m-493.97 87.853c21.954 16.402 73.277 26.534 105.43 26.902 46.8 0.53494 75.959-12.298 75.765-27.946 0 0-63.647-18.757-90.717-27.109z" fill="url(#linearGradient1386)"/><path d="m-477.99 92.7 9 5 39.5-14-13-3z" fill="#2b2b2b"/><ellipse transform="rotate(16.327)" cx="-344.19" cy="236.16" rx="3.7757" ry="2.0924" fill="#424242" fill-rule="evenodd"/><ellipse transform="rotate(16.327)" cx="-259.82" cy="179.12" rx="3.6351" ry="1.9518" fill="#424242" fill-rule="evenodd"/></g><g fill="none" stroke-linecap="round"><path d="m-278.5 98.928-115.01 37.019c-2.1878 0.70422-4.1824 0.48197-6.4534-0.35668l-112.15-41.417" stroke="url(#linearGradient1388)" stroke-width="3"/><path d="m-514.16 134.2 114.54 49.395c2.6228 1.1311 4.6668 1.2491 7.323 0.25123l113.87-42.78c1.6884-0.6343 2.4288-1.9765 2.4288-3.7434v-35.271c0-2.5512-1.2542-3.6738-3.0372-4.2805" stroke="#4f4f51" stroke-linejoin="round" stroke-width="3"/><path d="m-514.16 134.2v-37.056c0-1.4141 0.71067-2.656 2.4715-3.2133l105.41-33.365c2.3823-0.75404 3.5117-0.64408 5.7716 0.04719l121.48 37.157" stroke="#4f4f51" stroke-linejoin="round" stroke-width="3.0016"/></g><ellipse cx="-503.99" cy="130.12" rx="3" ry="4.5" fill="#424242" fill-rule="evenodd"/><ellipse cx="-424.49" cy="163.48" rx="3" ry="4.5" fill="#424242" fill-rule="evenodd"/></g></g></g></svg>
