<svg version="1.1" viewBox="0 0 256 256" xmlns="http://www.w3.org/2000/svg" xmlns:xlink="http://www.w3.org/1999/xlink">
<defs>
<linearGradient id="linearGradient1610">
<stop stop-color="#fafbfd" offset="0"/>
<stop stop-color="#d8e0f0" offset=".25"/>
<stop stop-color="#9aaed7" offset=".75"/>
<stop stop-color="#849ccd" offset="1"/>
</linearGradient>
<linearGradient id="linearGradient969">
<stop stop-color="#6786c2" offset="0"/>
<stop stop-color="#a8b9dc" stop-opacity=".027448" offset="1"/>
</linearGradient>
<linearGradient id="linearGradient863" x1="72.068" x2="64.068" y1="44" y2="2.5" gradientUnits="userSpaceOnUse">
<stop stop-color="#0069d0" offset="0"/>
<stop stop-color="#0093fa" offset=".5"/>
<stop stop-color="#77c8ff" offset="1"/>
</linearGradient>
<linearGradient id="linearGradient873" x1="84.568" x2="84.568" y1="41.5" y2="3.5" gradientUnits="userSpaceOnUse">
<stop stop-color="#039" offset="0"/>
<stop stop-color="#0062c8" offset=".6"/>
<stop stop-color="#0696fa" offset="1"/>
</linearGradient>
<linearGradient id="linearGradient881" x1="66.568" x2="89.568" y1="2.25" y2="2.25" gradientUnits="userSpaceOnUse">
<stop stop-color="#ebeff7" offset="0"/>
<stop stop-color="#9eb2d8" offset="1"/>
</linearGradient>
<linearGradient id="linearGradient891" x1="-5.4323" x2="13.156" y1="11.5" y2="24.667" gradientTransform="translate(37.5,-6)" gradientUnits="userSpaceOnUse" xlink:href="#linearGradient1610"/>
<linearGradient id="linearGradient905" x1="63.068" x2="94.105" y1="35.5" y2="4.8056" gradientUnits="userSpaceOnUse">
<stop stop-color="#003fa5" offset="0"/>
<stop stop-color="#003ba3" offset="1"/>
</linearGradient>
<linearGradient id="linearGradient921" x1="-3.2303" x2="5.4452" y1="11.83" y2="11.277" gradientTransform="translate(39.966)" gradientUnits="userSpaceOnUse">
<stop stop-color="#b86e06" offset="0"/>
<stop stop-color="#ce9527" offset=".3"/>
<stop stop-color="#995d00" offset="1"/>
</linearGradient>
<linearGradient id="linearGradient971" x1=".96458" x2=".96458" y1="12.553" y2="15.823" gradientTransform="translate(39.966)" gradientUnits="userSpaceOnUse" xlink:href="#linearGradient969"/>
<linearGradient id="linearGradient983" x1="34.068" x2="53.068" y1="24.5" y2="36.5" gradientUnits="userSpaceOnUse" xlink:href="#linearGradient1610"/>
<linearGradient id="linearGradient995" x1="-16.432" x2="-16.432" y1="41" y2="30" gradientTransform="translate(49)" gradientUnits="userSpaceOnUse">
<stop stop-color="#5174ba" offset="0"/>
<stop stop-color="#6a87bf" offset="1"/>
</linearGradient>
<linearGradient id="linearGradient1007" x1="39.123" x2="48.096" y1="30.248" y2="30.248" gradientUnits="userSpaceOnUse">
<stop stop-color="#b86e06" offset="0"/>
<stop stop-color="#ce9527" offset=".3"/>
<stop stop-color="#b37913" offset=".86"/>
<stop stop-color="#995d00" offset="1"/>
</linearGradient>
<linearGradient id="linearGradient1037" x1="45.84" x2="47.267" y1="31.189" y2="35.347" gradientUnits="userSpaceOnUse" xlink:href="#linearGradient969"/>
<linearGradient id="linearGradient1343">
<stop stop-color="#9cf" offset="0"/>
<stop stop-color="#80bdfb" offset="1"/>
</linearGradient>
<linearGradient id="linearGradient1514" x1="15.346" x2="22.225" y1="3.5719" y2="3.5719" gradientTransform="matrix(19.578 0 0 20.189 -229.95 79.826)" gradientUnits="userSpaceOnUse" xlink:href="#linearGradient1343"/>
<linearGradient id="linearGradient1516" x1="15.346" x2="22.225" y1="4.3656" y2="4.3656" gradientTransform="matrix(19.578 0 0 20.189 -229.95 79.826)" gradientUnits="userSpaceOnUse" xlink:href="#linearGradient1343"/>
<linearGradient id="linearGradient1518" x1="15.346" x2="22.225" y1="5.1594" y2="5.1594" gradientTransform="matrix(19.578 0 0 20.189 -229.95 79.826)" gradientUnits="userSpaceOnUse" xlink:href="#linearGradient1343"/>
<linearGradient id="linearGradient1520" x1="15.346" x2="22.225" y1="5.9531" y2="5.9531" gradientTransform="matrix(19.578 0 0 20.189 -229.95 79.826)" gradientUnits="userSpaceOnUse" xlink:href="#linearGradient1343"/>
<linearGradient id="linearGradient1522" x1="15.346" x2="22.225" y1="3.5719" y2="3.5719" gradientTransform="matrix(19.578 0 0 20.189 -229.88 31.814)" gradientUnits="userSpaceOnUse" xlink:href="#linearGradient1343"/>
<linearGradient id="linearGradient1524" x1="15.346" x2="22.225" y1="4.3656" y2="4.3656" gradientTransform="matrix(19.578 0 0 20.189 -229.88 31.814)" gradientUnits="userSpaceOnUse" xlink:href="#linearGradient1343"/>
<linearGradient id="linearGradient1526" x1="15.346" x2="22.225" y1="5.1594" y2="5.1594" gradientTransform="matrix(19.578 0 0 20.189 -229.88 31.814)" gradientUnits="userSpaceOnUse" xlink:href="#linearGradient1343"/>
<linearGradient id="linearGradient1528" x1="15.346" x2="22.225" y1="3.5719" y2="3.5719" gradientTransform="matrix(19.578 0 0 20.189 -229.88 15.814)" gradientUnits="userSpaceOnUse" xlink:href="#linearGradient1343"/>
<linearGradient id="linearGradient1530" x1="15.346" x2="22.225" y1="4.3656" y2="4.3656" gradientTransform="matrix(19.578 0 0 20.189 -229.88 15.814)" gradientUnits="userSpaceOnUse" xlink:href="#linearGradient1343"/>
<linearGradient id="linearGradient1532" x1="111.46" x2="102.63" y1="95.322" y2="83.838" gradientTransform="translate(-88.178 -83.548)" gradientUnits="userSpaceOnUse">
<stop stop-color="#9cf" offset="0"/>
<stop stop-color="#fff" offset="1"/>
</linearGradient>
<linearGradient id="linearGradient1534" x1="8.7312" x2="7.5419" y1="1.9844" y2=".69043" gradientTransform="translate(14.155)" gradientUnits="userSpaceOnUse">
<stop stop-color="#2da8ff" offset="0"/>
<stop stop-color="#74c0ff" offset="1"/>
</linearGradient>
<linearGradient id="linearGradient1536" x1="7.276" x2="7.276" y1="1.8521" y2=".26458" gradientTransform="translate(14.155)" gradientUnits="userSpaceOnUse">
<stop stop-color="#9bceff" offset="0"/>
<stop stop-color="#c9fcff" offset="1"/>
</linearGradient>
<linearGradient id="linearGradient1538" x1="7.4083" x2="8.9958" y1="1.9844" y2="1.9844" gradientTransform="translate(14.155)" gradientUnits="userSpaceOnUse">
<stop stop-color="#0096fc" offset="0"/>
<stop stop-color="#0068ce" offset="1"/>
</linearGradient>
<linearGradient id="linearGradient1540" x1="7.0115" x2="7.0115" y1="2.1167" gradientTransform="translate(14.155)" gradientUnits="userSpaceOnUse">
<stop stop-color="#6983b6" offset="0"/>
<stop stop-color="#7ca0d3" offset="1"/>
</linearGradient>
<linearGradient id="linearGradient1542" x1="7.1438" x2="8.7312" y1="2.5135" y2="2.5135" gradientTransform="translate(14.155)" gradientUnits="userSpaceOnUse">
<stop stop-color="#ddd" offset="0"/>
<stop stop-color="#9cf" offset="1"/>
</linearGradient>
<linearGradient id="linearGradient1544" x1="8.8635" x2="8.8635" y1="2.6458" y2="11.377" gradientTransform="translate(14.155)" gradientUnits="userSpaceOnUse">
<stop stop-color="#9fa0ff" offset="0"/>
<stop stop-color="#cbcaff" offset="1"/>
</linearGradient>
<linearGradient id="linearGradient1546" x1=".26458" x2="8.7312" y1="11.509" y2="11.509" gradientTransform="translate(14.155)" gradientUnits="userSpaceOnUse">
<stop stop-color="#ccccf2" offset="0"/>
<stop stop-color="#ccf" offset="1"/>
</linearGradient>
<linearGradient id="linearGradient1548" x1=".39688" x2=".39688" y1="11.377" y2=".26458" gradientTransform="translate(14.155)" gradientUnits="userSpaceOnUse">
<stop stop-color="#ccc" offset="0"/>
<stop stop-color="#fff" offset="1"/>
</linearGradient>
<linearGradient id="linearGradient1550" x1=".52917" x2="6.8792" y1=".39687" y2=".39687" gradientTransform="translate(14.155)" gradientUnits="userSpaceOnUse">
<stop stop-color="#fff" offset="0"/>
<stop stop-color="#ddd" offset="1"/>
</linearGradient>
<linearGradient id="linearGradient1552" x1="111.33" x2="102.63" y1="95.189" y2="83.838" gradientTransform="translate(-88.178 -83.548)" gradientUnits="userSpaceOnUse">
<stop stop-color="#343467" offset="0"/>
<stop stop-color="#99cbfe" offset="1"/>
</linearGradient>
<linearGradient id="linearGradient1622" x1="-8.8985" x2="-8.8985" y1="17" y2="5" gradientTransform="translate(39.966)" gradientUnits="userSpaceOnUse">
<stop stop-color="#72a3dc" offset="0"/>
<stop stop-color="#7ec5f9" offset="1"/>
</linearGradient>
<linearGradient id="linearGradient1632" x1="41.147" x2="42.27" y1="17.694" y2="13.307" gradientUnits="userSpaceOnUse" xlink:href="#linearGradient969"/>
<linearGradient id="linearGradient1654" x1="43.532" x2="47.954" y1="20.355" y2="19.505" gradientUnits="userSpaceOnUse">
<stop stop-color="#0f3274" offset="0"/>
<stop stop-color="#05338c" stop-opacity="0" offset="1"/>
</linearGradient>
<filter id="filter1000" x="-.14468" y="-.10679" width="1.2894" height="1.2136" color-interpolation-filters="sRGB">
<feGaussianBlur stdDeviation="10.768153"/>
</filter>
</defs>
<g transform="translate(-12.568)">
<path d="m146.75 14-81.501 5.4327v182.14l51.709 54.429 121.67-32.445v-13.838l5.2532-1.3138v-84.061l-5.2532-2.6276v-96.904z" color="#000000" color-rendering="auto" dominant-baseline="auto" filter="url(#filter1000)" image-rendering="auto" opacity=".83" shape-rendering="auto" solid-color="#000000" stop-color="#000000" style="font-feature-settings:normal;font-variant-alternates:normal;font-variant-caps:normal;font-variant-east-asian:normal;font-variant-ligatures:normal;font-variant-numeric:normal;font-variant-position:normal;font-variation-settings:normal;inline-size:0;isolation:auto;mix-blend-mode:normal;shape-margin:0;shape-padding:0;text-decoration-color:#000000;text-decoration-line:none;text-decoration-style:solid;text-indent:0;text-orientation:mixed;text-transform:none;white-space:normal"/>
<g transform="matrix(5.2538 0 0 5.2538 -51.553 .010275)">
<g transform="translate(-43)">
<path d="m63.068 1.5 15-1 17 2v37l-22.5 6-9.5-10z" fill="#1697f3" stroke="url(#linearGradient905)" stroke-width="1px"/>
<path d="m72.568 4v41.5l22.5-6v-37z" fill="url(#linearGradient873)"/>
<path d="m63.068 35.5v-34l9.5 2.5v41.5z" fill="url(#linearGradient863)"/>
<path d="m78.068 0.5 17 2-22.5 1.5-9.5-2.5z" fill="url(#linearGradient881)"/>
</g>
<g>
<path d="m51.068 19v-15.5l-19.5 1.5v16.5z" fill="url(#linearGradient891)"/>
<path d="m37.601 11.665c2.6132 0.07974 4.8182 0.17335 7.679-0.47695 0.47785-0.10862 0.59342 1.7721 0.21417 2.1998-0.80304 0.90564-2.4107 1.5878-3.8858 1.6232-1.4103 0.0338-2.6592 0.12013-3.8046-0.55184-1.1454-0.67196-1.7056-2.84-0.20281-2.7942z" fill="url(#linearGradient971)"/>
<path d="m34.859 13.732 1.0336 0.36609 4.106-0.15128 6.1812 5.684-2.6126 0.36877z" fill="url(#linearGradient1632)"/>
<path d="m38.095 11.282c0.75571 0.54474 2.0452 0.36398 3.625 0.14588 1.3964-0.1928 2.6081-0.12774 2.9375-0.73352 0.46731-0.85931 1.1457 0.23478 0.63236 1.2715-0.53712 1.0847-1.8559 1.1301-3.4198 1.3157-1.4008 0.16626-3.1051 0.28956-4.1021-0.38673-1.5928-1.0804-0.89258-2.4919 0.32706-1.6128z" fill="url(#linearGradient921)"/>
<path d="m31.568 5h-1v16.5h1z" fill="url(#linearGradient1622)"/>
<path d="m34.149 30.135-2.5811-1.6354v-5.5l20-3v6z"/>
<path d="m53.568 21-1-0.5v1.5" fill="#5476bb"/>
<path d="m46.18 19.631 1.0478 1.0156-2.5398 0.43268-1.1562-1.1809z" fill="url(#linearGradient1654)"/>
</g>
<g transform="matrix(.44724 -.42864 .42864 .44724 7.1277 23.959)">
<g transform="matrix(2.0434 0 0 2.0434 -.051231 18.516)">
<path d="m14.288 0.13229h7.0115l1.9844 2.1167v9.525h-8.9958z" fill="url(#linearGradient1532)" style="paint-order:normal"/>
<path d="m21.167 0.13229v2.1167l2.1167-0.13229-1.8521-1.9844z" fill="url(#linearGradient1534)"/>
<g>
<path d="m21.431 2.1167v-1.8521" fill="none" stroke="url(#linearGradient1536)" stroke-width=".26458px"/>
<path d="m23.151 1.9844h-1.9844" fill="none" stroke="url(#linearGradient1538)" stroke-width=".26458px"/>
<path d="m21.034 2.249h2.3812" fill-opacity="0" stroke="#667eb1" stroke-width=".26458"/>
<path d="m21.167 0v2.1167" fill="#7494c7" stroke="url(#linearGradient1540)" stroke-width=".26458"/>
</g>
<g fill="none" stroke-width=".26458px">
<path d="m21.299 2.5135h1.8521" stroke="url(#linearGradient1542)"/>
<path d="m23.019 2.3813v8.9958" stroke="url(#linearGradient1544)"/>
<path d="m22.886 11.509h-8.4667" stroke="url(#linearGradient1546)"/>
<path d="m14.552 11.377v-11.112" stroke="url(#linearGradient1548)"/>
</g>
<path d="m21.034 0.39688h-6.35" fill="#e8ebee" stroke="url(#linearGradient1550)" stroke-width=".26458px"/>
<path d="m14.288 0.13229h7.0115l1.9844 1.9844v9.6573h-8.9958z" fill="none" stroke="url(#linearGradient1552)" stroke-linejoin="round" stroke-width=".26467" style="paint-order:normal"/>
<rect x="21.299" y="1.8521" width=".26458" height=".26458" fill="#4db3ff"/>
</g>
<g transform="matrix(.10144 0 0 .10144 24.353 18.516)" fill="none" stroke-linecap="round">
<path d="m70.501 151.94h134.68" stroke="url(#linearGradient1514)" stroke-width="7.8904"/>
<g stroke-width="7.8904">
<path d="m70.501 167.96h134.68" stroke="url(#linearGradient1516)"/>
<path d="m70.501 183.99h134.68" stroke="url(#linearGradient1518)"/>
<path d="m70.501 200.01h64.684" stroke="url(#linearGradient1520)"/>
</g>
<path d="m70.568 103.93h134.68" stroke="url(#linearGradient1522)" stroke-width="7.8904"/>
<path d="m70.568 119.95h134.68" stroke="url(#linearGradient1524)" stroke-width="7.8904"/>
<path d="m70.568 135.98h134.68" stroke="url(#linearGradient1526)" stroke-width="7.8904"/>
<path d="m70.568 87.926h134.68" stroke="url(#linearGradient1528)" stroke-width="7.8904"/>
<path d="m70.568 103.95h134.68" stroke="url(#linearGradient1530)" stroke-width="7.8904"/>
</g>
</g>
<path d="m31.54 23.55 14.075-2.2336 0.95831 1.0014-12.609 3.7759z" fill="#4c99e7" fill-opacity=".5958"/>
<g>
<path d="m53.568 37v-16l-20 3v18z" fill="url(#linearGradient983)"/>
<path d="m33.568 29.5-2-1v12l2 1.5" fill="url(#linearGradient995)"/>
<path d="m32.568 29.5v-6l1 0.5v6z" fill="#5476bb"/>
<path d="m47.356 31.631c0.66166-0.6148-0.67631-1.6434-0.14134-2.0582l0.56324-0.65473c0.92729 0.47622 1.8159 2.5627 1.1909 3.5047-0.89431 1.3479-5.2376 2.7784-6.804 1.9985s-3.1777-3.3401-2.824-3.7409c0.52118 0.05692 1.8212 0.34784 1.8212 0.34784 0.51984 0.59431 0.92617 2.1118 2.2236 1.9374 1.5739-0.21158 3.1844-0.60451 3.9703-1.3347z" fill="url(#linearGradient1037)"/>
<path d="m46.646 29.196c-0.26113-0.48198 0.04549-1.1642 0.97483-0.60168 0.47437 0.28711 1.7858 2.4979-1.8048 3.0964-3 0.5-4.5017 1.2767-6.5017-0.7233-0.47507-0.47507-0.02341-1.7364 1.6903-0.81422 0.68388 0.368 6.0005-0.29419 5.6413-0.95717z" fill="url(#linearGradient1007)"/>
</g>
</g>
</g>
</svg>
