<svg version="1.1" viewBox="0 0 16 16" xmlns="http://www.w3.org/2000/svg" xmlns:xlink="http://www.w3.org/1999/xlink">
<defs>
<filter id="filter963" x="-.13824" y="-.11059" width="1.2765" height="1.2212" color-interpolation-filters="sRGB">
<feGaussianBlur stdDeviation="0.69118713"/>
</filter>
<linearGradient id="linearGradient32816-3" x1="-28.683" x2="-38.225" y1="21.128" y2="9.0369" gradientUnits="userSpaceOnUse">
<stop stop-color="#9cf" offset="0"/>
<stop stop-color="#fff" offset="1"/>
</linearGradient>
<linearGradient id="linearGradient26952-6" x1="8.0956" x2="7.2706" y1="1.4188" y2=".45848" gradientTransform="matrix(1.5872 0 0 1.5872 -42.561 7.9305)" gradientUnits="userSpaceOnUse">
<stop stop-color="#2da8ff" offset="0"/>
<stop stop-color="#74c0ff" offset="1"/>
</linearGradient>
<linearGradient id="linearGradient57243-7" x1="-31.156" x2="-28.432" y1="10.5" y2="10.5" gradientTransform="translate(0 -.25)" gradientUnits="userSpaceOnUse">
<stop stop-color="#0096fc" offset="0"/>
<stop stop-color="#0068ce" offset="1"/>
</linearGradient>
<linearGradient id="linearGradient33220-5" x1="-30.932" x2="-28.932" y1="11" y2="11" gradientUnits="userSpaceOnUse">
<stop stop-color="#ccd5ff" offset="0"/>
<stop stop-color="#aab3f5" offset="1"/>
</linearGradient>
<linearGradient id="linearGradient19558-3" x1="-27.932" x2="-27.932" y1="21" y2="11.5" gradientUnits="userSpaceOnUse">
<stop stop-color="#a5bdee" offset="0"/>
<stop stop-color="#bac9f4" offset="1"/>
</linearGradient>
<linearGradient id="linearGradient10737-5" x1="-37.932" x2="-28.932" y1="22" y2="22" gradientUnits="userSpaceOnUse">
<stop stop-color="#9dadd9" offset="0"/>
<stop stop-color="#8b8eb8" offset="1"/>
</linearGradient>
<linearGradient id="linearGradient1922-6" x1="-38.932" x2="-38.932" y1="22.025" y2="14.78" gradientUnits="userSpaceOnUse">
<stop stop-color="#6e7bae" offset="0"/>
<stop stop-color="#87a9dc" offset="1"/>
</linearGradient>
</defs>
<path d="m2.9 0.90009v14.499a0.49998 0.49998 0 0 0 0.0625 0.2246 0.49998 0.49998 0 0 0 0.03516 0.05469 0.49998 0.49998 0 0 0 0.12109 0.12304 0.49998 0.49998 0 0 0 0.05664 0.03711 0.49998 0.49998 0 0 0 0.2246 0.06055h11a0.49998 0.49998 0 0 0 0.49998-0.49998v-10.978a0.49998 0.49998 0 0 0-0.01953-0.1621 0.49998 0.49998 0 0 0-2e-3 -0.0059 0.49998 0.49998 0 0 0-0.02344-0.06055 0.49998 0.49998 0 0 0-0.01953-0.03711 0.49998 0.49998 0 0 0-2e-3 -2e-3 0.49998 0.49998 0 0 0-0.01172-0.02344 0.49998 0.49998 0 0 0-0.0098-0.01367 0.49998 0.49998 0 0 0-0.0039-0.0039 0.49998 0.49998 0 0 0-0.04297-0.05274l-2.4823-2.9803a0.49998 0.49998 0 0 0 0-0.00195 0.49998 0.49998 0 0 0-0.0957-0.085933 0.49998 0.49998 0 0 0-0.0039-0.00195 0.49998 0.49998 0 0 0-0.2246-0.08398 0.49998 0.49998 0 0 0-0.0293-0.00391 0.49998 0.49998 0 0 0-0.0293-0.00195z" fill-rule="evenodd" filter="url(#filter963)" opacity=".83" stop-color="#000000" stroke-linecap="round" stroke-linejoin="round"/>
<g transform="translate(41.438 -7.4946)">
<path d="m-38.932 8h8.5041l2.4959 3.1204v10.88h-11z" fill="url(#linearGradient32816-3)" fill-rule="evenodd" stop-color="#000000" stroke-linecap="round" stroke-linejoin="round"/>
<path d="m-31.432 8.1405v2.8595h3.5l-3.0801-2.8595z" fill="url(#linearGradient26952-6)"/>
<path d="m-31.432 10.25h3" fill="none" stroke="url(#linearGradient57243-7)" stroke-width=".5"/>
<path d="m-27.932 11h-3.5" fill="#aab3f5" stroke="url(#linearGradient33220-5)" stroke-width="1px"/>
<g fill="none" stroke-linecap="round" stroke-width="1px">
<path d="m-27.932 22v-11" stroke="url(#linearGradient19558-3)"/>
<path d="m-38.932 22h11" stroke="url(#linearGradient10737-5)"/>
<path d="m-30.432 8h-8.5v14" stroke="url(#linearGradient1922-6)"/>
<path d="m-30.432 8 2.5 3" stroke="#87a9dc"/>
</g>
</g>
<g transform="translate(-12.568 -.14382)" stroke="#000" stroke-width=".25518">
<path d="m22.48 5.4119h0.16913q0.25523 0 0.43974 0.049202 0.18758 0.046127 0.32288 0.23063 0.13838 0.18142 0.17221 0.43051 0.0369 0.24908 0.0369 0.7288t0.03383 0.71035q0.03382 0.23063 0.16914 0.39053 0.13838 0.15683 0.43359 0.16299v0.50123q-0.29521 0.00612-0.43359 0.16606-0.1353 0.15683-0.16914 0.38746-0.03383 0.23063-0.03383 0.71034 0 0.47972-0.0369 0.7288-0.03382 0.24908-0.17221 0.43051-0.13531 0.1845-0.32288 0.23063-0.1845 0.0492-0.43974 0.0492h-0.16913v-0.47971h0.09532q0.31981 0 0.39053-0.16913 0.0738-0.16913 0.0738-0.91334 0-0.66729 0.17528-0.97477 0.17528-0.30751 0.53199-0.41514-0.35671-0.1107-0.53199-0.41821t-0.17528-0.97477q0-0.74417-0.0738-0.91334-0.07072-0.16913-0.39053-0.16913h-0.09532z"/>
<path d="m18.786 5.4119h-0.16913q-0.25523 0-0.43974 0.049202-0.18758 0.046127-0.32288 0.23063-0.13838 0.18142-0.17221 0.43051-0.0369 0.24908-0.0369 0.7288t-0.03383 0.71035-0.16913 0.39053q-0.13838 0.15683-0.43359 0.16299v0.50123q0.29521 0.00612 0.43359 0.16606 0.13531 0.15683 0.16913 0.38746 0.03383 0.23063 0.03383 0.71034t0.0369 0.7288q0.03383 0.24909 0.17221 0.43051 0.13531 0.1845 0.32288 0.23063 0.1845 0.0492 0.43974 0.0492h0.16913v-0.47972h-0.09533q-0.31981 0-0.39053-0.16913-0.0738-0.16913-0.0738-0.91334 0-0.66729-0.17528-0.97477-0.17528-0.30751-0.53199-0.41514 0.35671-0.1107 0.53199-0.41821t0.17528-0.97477q0-0.74417 0.0738-0.91334 0.07072-0.16913 0.39053-0.16913h0.09533z"/>
</g>
</svg>
