<svg version="1.1" viewBox="0 0 256 256" xmlns="http://www.w3.org/2000/svg" xmlns:xlink="http://www.w3.org/1999/xlink">
<defs>
<filter id="filter965-3" x="-.1539" y="-.10227" width="1.3078" height="1.2045" color-interpolation-filters="sRGB">
<feGaussianBlur stdDeviation="9.6233508"/>
</filter>
<linearGradient id="linearGradient1411" x1="177.38" x2="177.38" y1="215.14" y2="137.04" gradientUnits="userSpaceOnUse">
<stop stop-color="#38d929" offset="0"/>
<stop stop-color="#62e052" offset="1"/>
</linearGradient>
<linearGradient id="linearGradient1327" x1="220.45" x2="261.63" y1="180.81" y2="180.81" gradientUnits="userSpaceOnUse">
<stop stop-color="#62e052" offset="0"/>
<stop stop-color="#fff" offset="1"/>
</linearGradient>
<linearGradient id="linearGradient863" x1="211.53" x2="244.54" y1="148.02" y2="67.298" gradientUnits="userSpaceOnUse">
<stop stop-color="#38d929" offset="0"/>
<stop stop-color="#fff" offset="1"/>
</linearGradient>
</defs>
<g transform="translate(-12.568 -9.6172)" stroke-linejoin="round">
<path d="m164.12 28.982a5.0005 5.0005 0 0 0-3.541 1.4785l-79.598 80.215a5.0005 5.0005 0 0 0-0.01172 0.0215 5.0005 5.0005 0 0 0-1.1562 2.0527 5.0005 5.0005 0 0 0-0.12305 0.62891 5.0005 5.0005 0 0 0-0.16016 0.81836v80.215a5.0005 5.0005 0 0 0 1.5996 3.6641l59.854 55.533a5.0005 5.0005 0 0 0 0.24806 0.14062 5.0005 5.0005 0 0 0 0.97851 0.55469 5.0005 5.0005 0 0 0 1.0566 0.45312 5.0005 5.0005 0 0 0 1.1367 0.0586 5.0005 5.0005 0 0 0 1.1387-0.0703 5.0005 5.0005 0 0 0 1.0508-0.45703 5.0005 5.0005 0 0 0 0.97852-0.57226 5.0005 5.0005 0 0 0 0.26368-0.1543l80.215-76.512a5.0005 5.0005 0 0 0 1.5488-3.6191v-78.98a5.0005 5.0005 0 0 0-0.0176-0.09375 5.0005 5.0005 0 0 0-0.33399-1.6992 5.0005 5.0005 0 0 0-0.0488-0.13867 5.0005 5.0005 0 0 0-1.002-1.5293 5.0005 5.0005 0 0 0-0.0332-0.03711 5.0005 5.0005 0 0 0-0.0293-0.03711l-60.469-60.469a5.0005 5.0005 0 0 0-3.5449-1.4648z" color="#000000" filter="url(#filter965-3)" opacity=".83" stroke-linecap="round" stroke-width="10" style="-inkscape-stroke:none"/>
<g transform="matrix(-1.1214,0,0,1.1214,368.62,-23.716)" stroke-width="8.9176">
<path d="m212.44 159.47-71.532-66.58v70.431l71.532 68.23z" fill="url(#linearGradient1411)" stroke="#00bd00" stroke-linecap="round"/>
<path d="m212.44 159.47 53.374-48.972v71.532l-53.374 49.522z" fill="url(#linearGradient1327)" stroke="#20b520"/>
<path d="m140.91 92.892 53.924-53.924 70.982 71.532-53.374 48.972z" fill="url(#linearGradient863)" stroke="#1fad1f" stroke-linecap="round"/>
</g>
</g>
</svg>
