<svg version="1.1" viewBox="0 0 256 256" xmlns="http://www.w3.org/2000/svg">
<defs>
<linearGradient id="linearGradient3549" x1="-125.93" x2="-97.932" y1="23.25" y2="23.25" gradientTransform="translate(-13.5 -1)" gradientUnits="userSpaceOnUse">
<stop stop-color="#fcfcfc" offset="0"/>
<stop stop-color="#cecece" offset="1"/>
</linearGradient>
<linearGradient id="linearGradient17518" x1="-108.43" x2="-99.432" y1="17" y2="14" gradientTransform="translate(-13.5 -1)" gradientUnits="userSpaceOnUse">
<stop stop-color="#d3d3ff" offset="0"/>
<stop stop-color="#fff" offset="1"/>
</linearGradient>
<linearGradient id="linearGradient37484" x1="-106.43" x2="-106.43" y1="20.186" y2="18.25" gradientTransform="translate(-13.5 -1)" gradientUnits="userSpaceOnUse">
<stop stop-color="#e9e9e9" offset="0"/>
<stop stop-color="#fff" offset="1"/>
</linearGradient>
<linearGradient id="linearGradient56211" x1="-126.93" x2="-109.43" y1="21.75" y2="21.75" gradientTransform="translate(-13.5 -1)" gradientUnits="userSpaceOnUse">
<stop stop-color="#6e6ea1" offset="0"/>
<stop stop-color="#9696c9" offset="1"/>
</linearGradient>
<linearGradient id="linearGradient74736" x1="-128.93" x2="-110.93" y1="15.75" y2="15.75" gradientTransform="translate(-13.5 -1)" gradientUnits="userSpaceOnUse">
<stop stop-color="#95cbff" offset="0"/>
<stop stop-color="#c4ccff" offset="1"/>
</linearGradient>
<linearGradient id="linearGradient91996" x1="-129.93" x2="-133.93" y1="21" y2="15" gradientTransform="translate(-13.5 -1)" gradientUnits="userSpaceOnUse">
<stop stop-color="#d5d5d5" offset="0"/>
<stop stop-color="#fcfcfc" offset="1"/>
</linearGradient>
<linearGradient id="linearGradient106183" x1="-129.43" x2="-129.43" y1="53.5" y2="22.5" gradientTransform="translate(-13.5 -1)" gradientUnits="userSpaceOnUse">
<stop stop-color="#d3d3d3" offset="0"/>
<stop stop-color="#fcfcfc" offset="1"/>
</linearGradient>
<linearGradient id="linearGradient123921" x1="-124.93" x2="-124.93" y1="55" y2="26.5" gradientTransform="translate(-13.5 -1)" gradientUnits="userSpaceOnUse">
<stop stop-color="#fafdff" offset="0"/>
<stop stop-color="#65bbff" offset="1"/>
</linearGradient>
<linearGradient id="linearGradient149207" x1="-130.98" x2="-130.98" y1="30.146" y2="35.468" gradientTransform="translate(-11.758 -.95224)" gradientUnits="userSpaceOnUse">
<stop stop-color="#006bd1" offset="0"/>
<stop stop-color="#09f" offset="1"/>
</linearGradient>
<linearGradient id="linearGradient162495" x1="-124.53" x2="-121.12" y1="36.657" y2="37.992" gradientTransform="translate(-12 -1)" gradientUnits="userSpaceOnUse">
<stop stop-color="#ff9f39" offset="0"/>
<stop stop-color="#ffb34d" offset="1"/>
</linearGradient>
<linearGradient id="linearGradient179765" x1="-123.94" x2="-123.94" y1="50.5" y2="40.5" gradientTransform="translate(-12 -1)" gradientUnits="userSpaceOnUse">
<stop stop-color="#079d04" offset="0"/>
<stop stop-color="#8ff85f" offset="1"/>
</linearGradient>
<linearGradient id="linearGradient300283" x1="-163.06" x2="-161.71" y1="17.421" y2="16.293" gradientTransform="translate(20,-1.5)" gradientUnits="userSpaceOnUse">
<stop stop-color="#57b6ff" offset="0"/>
<stop stop-color="#57a2ff" stop-opacity="0" offset="1"/>
</linearGradient>
<linearGradient id="linearGradient3027-5" x1="-129.43" x2="-103.43" y1="84.5" y2="112" gradientTransform="translate(-12.568)" gradientUnits="userSpaceOnUse">
<stop stop-color="#f4f4ff" offset="0"/>
<stop stop-color="#99f" offset=".5"/>
<stop stop-color="#f4f4ff" offset="1"/>
</linearGradient>
<linearGradient id="linearGradient55886-2" x1="-123.89" x2="-108.08" y1="98.65" y2="98.65" gradientUnits="userSpaceOnUse">
<stop stop-color="#fffaff" offset="0"/>
<stop stop-color="#ffceff" offset=".5"/>
<stop stop-color="#fffaff" offset="1"/>
</linearGradient>
<linearGradient id="linearGradient611595" x1="-109.32" x2="-109.32" y1="105.97" y2="99.412" gradientUnits="userSpaceOnUse">
<stop stop-color="#fff" offset="0"/>
<stop stop-color="#d8dce9" offset="1"/>
</linearGradient>
<filter id="filter939" x="-.12357" y="-.1222" width="1.2471" height="1.2444" color-interpolation-filters="sRGB">
<feGaussianBlur stdDeviation="12.321832"/>
</filter>
</defs>
<g transform="translate(-12.568)">
<path d="m153.59 14.023-100.74 10.95-17.689 1.9215a3.8621 3.8621 0 0 0-3.297 4.9002l0.16205 0.56719-0.16398-0.06559a3.8621 3.8621 0 0 0-4.8867 5.313l15.038 30.078v163.86a3.8621 3.8621 0 0 0 1.2964 2.8861l23.17 20.594a3.8621 3.8621 0 0 0 3.5883 0.83921l76.522-21.005c12.666 10.872 29.023 16.848 46.893 15.58 40.188-2.8502 72.408-40.809 72.407-84.677 6.3e-4 -39.754-26.757-71.171-61.684-74.593v-4.6455l19.894-3.0578a3.8621 3.8621 0 0 0 1.7845-6.8641l-20.502-15.947 16.317-27.973a3.8621 3.8621 0 0 0-2.398-5.6931l-41.192-10.298a3.8621 3.8621 0 0 0-4.3253 1.8983l-10.709 19.634-5.3246-21.296a3.8621 3.8621 0 0 0-4.1651-2.9015z" color="#000000" filter="url(#filter939)" opacity=".83" stroke-linecap="round" stroke-linejoin="round" stroke-width=".98775" style="-inkscape-stroke:none"/>
<g transform="matrix(5.1489 0 0 5.1489 778.12 -47.628)">
<path d="m-123.93 10-19.564 2.127-3.4356 0.37305 0.45117 1.5801-1.4512-0.58008 3 6v32l4.5 4 25.5-7v-25.809l4.5-0.69141-4.5-3.5 3.5-6-8-2-3 5.5z" fill="none" stroke="#9f9f9f" stroke-linecap="round" stroke-linejoin="round" stroke-width="1.5"/>
<path d="m-122.43 16-1.5-6-23 2.5 2 7 11.088 0.57935z" fill="url(#linearGradient74736)"/>
<path d="m-119.43 10.5 8 2-3.5 6-4.5978-0.48714-2.9022-2.0129z" fill="url(#linearGradient17518)"/>
<path d="m-122.43 16-1.8422 8.5h9.3422v-6z" fill="url(#linearGradient37484)"/>
<path d="m-143.5 12.127-3.4361 0.37349 2 7 7.3913-0.81401z" fill="url(#linearGradient300283)" style="mix-blend-mode:normal"/>
<path d="m-122.43 16-22.5 3.5 0.24315 5.9878 22.257 0.0122z" fill="url(#linearGradient56211)"/>
<path d="m-140.43 55.5-4.5-4v-32l1.9675 0.3805 2.5325 2.6195 1.1977 19.412z" fill="url(#linearGradient106183)"/>
<path d="m-140.43 22.5v33l25.5-7v-29.346z" fill="url(#linearGradient123921)"/>
<path d="m-140.43 22.5-2.5-7-5-2 3 6z" fill="url(#linearGradient91996)"/>
<path d="m-140.43 22.5 4 4.725 21.5-3.3077v-4.7631z" fill="#0a9cff" style="mix-blend-mode:normal"/>
<path d="m-140.43 22.5 4 3.5 26-4-4.5-3.5z" fill="url(#linearGradient3549)"/>
<path d="m-141.36 35.501v-6l-2.8274-1.9529v6z" fill="url(#linearGradient149207)"/>
<g fill="none" stroke="#9f9f9f" stroke-linecap="round" stroke-width=".7">
<path d="m-143.81 23.926 2.4246 1.7515"/>
<path d="m-143.91 25.891 2.4775 1.784"/>
<path d="m-143.86 46.946 2.3617 1.9574"/>
<path d="m-143.87 49.406 2.3686 1.9302"/>
</g>
<path d="m-136.93 34.5v15.5l20-5v-15z" fill="url(#linearGradient179765)"/>
<path d="m-136.93 34.5v2.5346c5 0.4654 9.8219 5.3434 12.477 9.8461l7.5229-1.8807v-15z" fill="url(#linearGradient162495)"/>
<path d="m-119.65 30.612c-1.4768 4.3918-4.8962 14.437-4.802 16.269l7.5229-1.8807v-15z" fill="#fff995"/>
<g fill-rule="evenodd">
<path d="m-118.63 26.599c-7.8051 0.55355-14.063 7.9255-14.062 16.445-6e-5 3.6597 1.1675 6.9558 3.1181 9.4816l8.0532-2.2184z" fill="#99c8ff" stop-color="#000000" style="mix-blend-mode:normal"/>
<path d="m-129.33 32.776c-1.2882 1.7505-2.261 3.7821-2.8198 5.9757 2.252 1.5336 4.8913 3.332 11.154 7.2645 4.263-11.453-5.5028-13.863-5.5028-13.863z" fill="#f99030" stop-color="#000000" style="mix-blend-mode:normal"/>
<path d="m-123.94 44.153c-1.8534-1.1865-6.0496-4.0176-8.2064-5.4017-0.34578 1.3677-0.53836 2.8287-0.53834 4.293-3e-5 2.0161 0.35427 3.9218 0.99864 5.6492l8.7589-2.194z" fill="#090" stop-color="#000000" style="mix-blend-mode:normal"/>
</g>
<g transform="matrix(.62831 -.044573 0 .69223 -43.553 -33.76)">
<path transform="translate(12.568)" d="m-128.35 77a21.65 21.65 0 0 0-21.65 21.65 21.65 21.65 0 0 0 21.65 21.65 21.65 21.65 0 0 0 21.65-21.65 21.65 21.65 0 0 0-21.65-21.65zm0 18.477a3.1731 3.1731 0 0 1 3.1719 3.1738 3.1731 3.1731 0 0 1-3.1719 3.1719 3.1731 3.1731 0 0 1-3.1738-3.1719 3.1731 3.1731 0 0 1 3.1738-3.1738z" fill="url(#linearGradient3027-5)" fill-rule="evenodd" stop-color="#000000"/>
<path transform="translate(12.568)" d="m-141.7 82c-2.7902 0.52174-8.5 10.04-8.5 17h18.732c-0.0254-0.11539-0.0443-0.23211-0.0566-0.34961 0.0153-1.1552 0.65715-2.2108 1.6758-2.7559z" fill="#ccf"/>
<path transform="translate(12.568)" d="m-125.2 99c-0.11509 1.032-0.72785 1.9424-1.6406 2.4375l13.139 13.562c3.5564-3.5564 7.5-11 7-16z" fill="url(#linearGradient611595)"/>
<path transform="translate(12.568)" d="m-136.7 78.5c-5 2.5-9.5 7.5-11.5 11l16.795 8.3984a3.1731 3.1731 0 0 1 2.3926-2.3164zm11.389 21.041a3.1731 3.1731 0 0 1-2.3711 2.207l8.9824 16.252c4-1.5 10-8.5 10.5-11z" fill="#fff"/>
<path transform="translate(12.568)" d="m-128.35 77c-11.957-2.14e-4 -21.651 9.6931-21.65 21.65-2.1e-4 11.957 9.6931 21.651 21.65 21.65 11.957 2.1e-4 21.651-9.6931 21.65-21.65 2.1e-4 -11.957-9.6931-21.651-21.65-21.65zm7e-3 18.281c1.7523 6.71e-4 3.309 1.6366 3.3086 3.3889-6.7e-4 1.7515-1.5928 3.3067-3.3444 3.3074-1.7523 4.1e-4 -3.2778-1.575-3.2785-3.3272-4e-4 -1.753 1.5612-3.3695 3.3142-3.3691z" fill="none" stop-color="#000000" stroke="#669" stroke-linecap="round" stroke-linejoin="round" stroke-width="1.5"/>
<circle cx="-115.78" cy="98.65" r="6.85" fill="none" stop-color="#000000" stroke="url(#linearGradient55886-2)" stroke-linecap="round" stroke-linejoin="round" stroke-width="2.5"/>
</g>
</g>
</g>
</svg>
