<svg version="1.1" viewBox="0 0 256 256" xmlns="http://www.w3.org/2000/svg" xmlns:xlink="http://www.w3.org/1999/xlink"><defs><linearGradient id="linearGradient1343"><stop stop-color="#9cf" offset="0"/><stop stop-color="#80bdfb" offset="1"/></linearGradient><linearGradient id="linearGradient1832" x1="111.46" x2="102.63" y1="95.322" y2="83.838" gradientTransform="translate(-88.178 -83.548)" gradientUnits="userSpaceOnUse"><stop stop-color="#9cf" offset="0"/><stop stop-color="#fff" offset="1"/></linearGradient><linearGradient id="linearGradient1834" x1="111.33" x2="102.63" y1="95.189" y2="83.838" gradientTransform="translate(-88.178 -83.548)" gradientUnits="userSpaceOnUse"><stop stop-color="#343467" offset="0"/><stop stop-color="#99cbfe" offset="1"/></linearGradient><linearGradient id="linearGradient1836" x1="8.7312" x2="7.5419" y1="1.9844" y2=".69043" gradientTransform="translate(14.155)" gradientUnits="userSpaceOnUse"><stop stop-color="#2da8ff" offset="0"/><stop stop-color="#74c0ff" offset="1"/></linearGradient><linearGradient id="linearGradient1838" x1="7.276" x2="7.276" y1="1.8521" y2=".26458" gradientTransform="translate(14.155)" gradientUnits="userSpaceOnUse"><stop stop-color="#9bceff" offset="0"/><stop stop-color="#c9fcff" offset="1"/></linearGradient><linearGradient id="linearGradient1840" x1="7.4083" x2="8.9958" y1="1.9844" y2="1.9844" gradientTransform="translate(14.155)" gradientUnits="userSpaceOnUse"><stop stop-color="#0096fc" offset="0"/><stop stop-color="#0068ce" offset="1"/></linearGradient><linearGradient id="linearGradient1842" x1="7.0115" x2="7.0115" y1="2.1167" gradientTransform="translate(14.155)" gradientUnits="userSpaceOnUse"><stop stop-color="#6983b6" offset="0"/><stop stop-color="#7ca0d3" offset="1"/></linearGradient><linearGradient id="linearGradient1846" x1="7.1438" x2="8.7312" y1="2.5135" y2="2.5135" gradientTransform="translate(14.155)" gradientUnits="userSpaceOnUse"><stop stop-color="#ddd" offset="0"/><stop stop-color="#9cf" offset="1"/></linearGradient><linearGradient id="linearGradient1848" x1="8.8635" x2="8.8635" y1="2.6458" y2="11.377" gradientTransform="translate(14.155)" gradientUnits="userSpaceOnUse"><stop stop-color="#9fa0ff" offset="0"/><stop stop-color="#cbcaff" offset="1"/></linearGradient><linearGradient id="linearGradient1850" x1=".26458" x2="8.7312" y1="11.509" y2="11.509" gradientTransform="translate(14.155)" gradientUnits="userSpaceOnUse"><stop stop-color="#ccccf2" offset="0"/><stop stop-color="#ccf" offset="1"/></linearGradient><linearGradient id="linearGradient1852" x1=".39688" x2=".39688" y1="11.377" y2=".26458" gradientTransform="translate(14.155)" gradientUnits="userSpaceOnUse"><stop stop-color="#ccc" offset="0"/><stop stop-color="#fff" offset="1"/></linearGradient><linearGradient id="linearGradient1854" x1=".52917" x2="6.8792" y1=".39687" y2=".39687" gradientTransform="translate(14.155)" gradientUnits="userSpaceOnUse"><stop stop-color="#fff" offset="0"/><stop stop-color="#ddd" offset="1"/></linearGradient><filter id="filter1189" x="-.054857" y="-.042667" width="1.1097" height="1.0853" color-interpolation-filters="sRGB"><feGaussianBlur stdDeviation="4.2639258"/></filter><linearGradient id="linearGradient1393-2" x1="15.346" x2="22.225" y1="3.5719" y2="3.5719" gradientTransform="matrix(19.578 0 0 20.189 -229.95 79.826)" gradientUnits="userSpaceOnUse" xlink:href="#linearGradient1343"/><linearGradient id="linearGradient1385-2" x1="15.346" x2="22.225" y1="4.3656" y2="4.3656" gradientTransform="matrix(19.578 0 0 20.189 -229.95 79.826)" gradientUnits="userSpaceOnUse" xlink:href="#linearGradient1343"/><linearGradient id="linearGradient1377-7" x1="15.346" x2="22.225" y1="5.1594" y2="5.1594" gradientTransform="matrix(19.578 0 0 20.189 -229.95 79.826)" gradientUnits="userSpaceOnUse" xlink:href="#linearGradient1343"/><linearGradient id="linearGradient1369-0" x1="15.346" x2="22.225" y1="5.9531" y2="5.9531" gradientTransform="matrix(19.578 0 0 20.189 -229.95 79.826)" gradientUnits="userSpaceOnUse" xlink:href="#linearGradient1343"/><linearGradient id="linearGradient1289" x1="15.346" x2="22.225" y1="3.5719" y2="3.5719" gradientTransform="matrix(19.578 0 0 20.189 -229.88 31.814)" gradientUnits="userSpaceOnUse" xlink:href="#linearGradient1343"/><linearGradient id="linearGradient1291" x1="15.346" x2="22.225" y1="4.3656" y2="4.3656" gradientTransform="matrix(19.578 0 0 20.189 -229.88 31.814)" gradientUnits="userSpaceOnUse" xlink:href="#linearGradient1343"/><linearGradient id="linearGradient1293" x1="15.346" x2="22.225" y1="5.1594" y2="5.1594" gradientTransform="matrix(19.578 0 0 20.189 -229.88 31.814)" gradientUnits="userSpaceOnUse" xlink:href="#linearGradient1343"/><linearGradient id="linearGradient1369" x1="15.346" x2="22.225" y1="3.5719" y2="3.5719" gradientTransform="matrix(19.578 0 0 20.189 -229.88 15.814)" gradientUnits="userSpaceOnUse" xlink:href="#linearGradient1343"/><linearGradient id="linearGradient1371" x1="15.346" x2="22.225" y1="4.3656" y2="4.3656" gradientTransform="matrix(19.578 0 0 20.189 -229.88 15.814)" gradientUnits="userSpaceOnUse" xlink:href="#linearGradient1343"/><linearGradient id="linearGradient1048" x1="-10.976" x2="-5.6702" y1="11.896" y2="10.049" gradientTransform="matrix(-22.529 0 0 22.529 2.8011 -90.685)" gradientUnits="userSpaceOnUse"><stop stop-color="#159a0c" offset="0"/><stop stop-color="#8cf25a" offset="1"/></linearGradient><filter id="filter1704" x="-.044517" y="-.052075" width="1.089" height="1.1041" color-interpolation-filters="sRGB"><feGaussianBlur stdDeviation="3.0474183"/></filter></defs><g transform="translate(-12.568)"><g transform="translate(-6.7075 3.8164)" filter="url(#filter1189)" style="mix-blend-mode:normal"><path d="m34.818 0.18359s-0.09098 1.193-0.09164 2.6641v234.52c6.6e-4 1.471 1.193 2.6634 2.6641 2.6641h181.22c1.471-6.7e-4 2.6634-1.193 2.6641-2.6641v-194.54c4.8e-4 -0.67476-0.25498-1.3246-0.71485-1.8184l-40.059-39.975c-0.50396-0.5394-1.2091-0.84563-1.9473-0.8457h-5.3301z" color="#000000" color-rendering="auto" dominant-baseline="auto" fill="#212121" image-rendering="auto" shape-rendering="auto" solid-color="#000000" stop-color="#000000" style="font-feature-settings:normal;font-variant-alternates:normal;font-variant-caps:normal;font-variant-east-asian:normal;font-variant-ligatures:normal;font-variant-numeric:normal;font-variant-position:normal;font-variation-settings:normal;inline-size:0;isolation:auto;mix-blend-mode:normal;paint-order:normal;shape-margin:0;shape-padding:0;text-decoration-color:#000000;text-decoration-line:none;text-decoration-style:solid;text-indent:0;text-orientation:mixed;text-transform:none;white-space:normal"/></g><g transform="matrix(20.145 0 0 20.145 -262.14 .00083592)"><path d="m14.288 0.13229h7.0115l1.9844 2.1167v9.525h-8.9958z" fill="url(#linearGradient1832)" style="paint-order:normal"/><path d="m21.167 0.13229v2.1167l2.1167-0.13229-1.8521-1.9844z" fill="url(#linearGradient1836)"/><g><path d="m21.431 2.1167v-1.8521" fill="none" stroke="url(#linearGradient1838)" stroke-width=".26458px"/><path d="m23.151 1.9844h-1.9844" fill="none" stroke="url(#linearGradient1840)" stroke-width=".26458px"/><path d="m21.034 2.249h2.3812" fill-opacity="0" stroke="#667eb1" stroke-width=".26458"/><path d="m21.167 0v2.1167" fill="#7494c7" stroke="url(#linearGradient1842)" stroke-width=".26458"/></g><g fill="none" stroke-width=".26458px"><path d="m21.299 2.5135h1.8521" stroke="url(#linearGradient1846)"/><path d="m23.019 2.3813v8.9958" stroke="url(#linearGradient1848)"/><path d="m22.886 11.509h-8.4667" stroke="url(#linearGradient1850)"/><path d="m14.552 11.377v-11.112" stroke="url(#linearGradient1852)"/></g><path d="m21.034 0.39688h-6.35" fill="#e8ebee" stroke="url(#linearGradient1854)" stroke-width=".26458px"/><path d="m14.288 0.13229h7.0115l1.9844 1.9844v9.6573h-8.9958z" fill="none" stroke="url(#linearGradient1834)" stroke-linejoin="round" stroke-width=".26467" style="paint-order:normal"/><rect x="21.299" y="1.8521" width=".26458" height=".26458" fill="#4db3ff"/></g><g transform="translate(-21.552)" fill="none" stroke-linecap="round"><path d="m70.501 151.94h134.68" stroke="url(#linearGradient1393-2)" stroke-width="7.8904"/><g stroke-width="7.8904"><path d="m70.501 167.96h134.68" stroke="url(#linearGradient1385-2)"/><path d="m70.501 183.99h134.68" stroke="url(#linearGradient1377-7)"/><path d="m70.501 200.01h64.684" stroke="url(#linearGradient1369-0)"/></g><path d="m70.568 103.93h134.68" stroke="url(#linearGradient1289)" stroke-width="7.8904"/><path d="m70.568 119.95h134.68" stroke="url(#linearGradient1291)" stroke-width="7.8904"/><path d="m70.568 135.98h134.68" stroke="url(#linearGradient1293)" stroke-width="7.8904"/><path d="m70.568 87.926h134.68" stroke="url(#linearGradient1369)" stroke-width="7.8904"/><path d="m70.568 103.95h134.68" stroke="url(#linearGradient1371)" stroke-width="7.8904"/></g><path d="m180.24 94.965a3.1657 3.1657 0 0 0-1.6229 0.71986l-77.491 65.57a3.1657 3.1657 0 0 0-0.0539 4.7869l77.491 68.549a3.1657 3.1657 0 0 0 5.2632-2.3708v-38.56h77.306a3.1657 3.1657 0 0 0 3.1661-3.1661v-44.705a3.1657 3.1657 0 0 0-3.1661-3.1661h-77.306v-44.522a3.1657 3.1657 0 0 0-1.8342-2.8708 3.1657 3.1657 0 0 0-1.7522-0.2651z" color="#000000" fill="#212121" filter="url(#filter1704)" stroke-linecap="round" stroke-linejoin="round" stroke-width="6.3308" style="-inkscape-stroke:none"/><path d="m256.14 141.79h-80.472v-47.687l-77.491 65.569 77.491 68.55v-41.726h80.472z" fill="url(#linearGradient1048)" stroke="#418924" stroke-linecap="round" stroke-linejoin="round" stroke-width="6.3308"/></g></svg>
