<svg version="1.1" viewBox="0 0 256 256" xmlns="http://www.w3.org/2000/svg"><defs><radialGradient id="radialGradient18176-36" cx="682.43" cy="1032.4" r="6.5" gradientTransform="matrix(2.0769,0,0,2.2367,-734.92,-1277.2)" gradientUnits="userSpaceOnUse"><stop stop-color="#e1eafe" offset="0"/><stop stop-color="#aec8f7" offset="1"/></radialGradient><linearGradient id="linearGradient72573" x1="693.43" x2="681.93" y1="1043" y2="1031" gradientUnits="userSpaceOnUse"><stop stop-color="#b0c5f2" offset="0"/><stop stop-color="#b3c7f5" offset=".5"/><stop stop-color="#cad8f9" offset="1"/></linearGradient><filter id="filter1399" x="-.049846" y="-.046287" width="1.0997" height="1.0926" color-interpolation-filters="sRGB"><feGaussianBlur stdDeviation="4.6285742"/></filter></defs><path transform="matrix(.48811 0 0 .48811 139.57 131.57)" d="m22.143 4c-9.3489 0-17.143 7.7929-17.143 17.143v205.71c0 9.348 7.7937 17.143 17.143 17.143h188.57c9.3489 0 17.143-7.7946 17.143-17.143v-205.71c0-9.3497-7.7937-17.143-17.143-17.143z" fill="#212121" fill-rule="evenodd" filter="url(#filter1399)" stroke-linecap="round" stroke-linejoin="round" stroke-width="17.143" style="-inkscape-stroke:none"/><g id="cind-normal" transform="matrix(8.3677 0 0 8.3677 -5558.2 -8491.4)" stroke-linejoin="round"><g fill-rule="evenodd" stroke-linecap="round"><path d="m681.93 1031h11c0.277 0 0.5 0.223 0.5 0.5v12c0 0.277-0.223 0.5-0.5 0.5h-11c-0.277 0-0.5-0.223-0.5-0.5v-12c0-0.277 0.223-0.5 0.5-0.5z" color="#000000" fill="url(#radialGradient18176-36)" style="-inkscape-stroke:none"/><path d="m681.93 1030.5c-0.54535 0-1 0.4546-1 1v12c0 0.5453 0.45465 1 1 1h11c0.54535 0 1-0.4547 1-1v-12c0-0.5454-0.45465-1-1-1zm0 1h11v12h-11z" color="#000000" fill="url(#linearGradient72573)" style="-inkscape-stroke:none"/></g><g transform="matrix(1,0,0,-1,49.946,1722.1)" fill="#4d6185" stroke-linecap="square" stroke-width=".7"><rect transform="rotate(45)" x="932.66" y="31.113" width="2.2312" height="6.4362"/><rect transform="matrix(-.70711 .70711 .70711 .70711 0 0)" x="31.113" y="932.66" width="2.2312" height="6.4362"/></g></g></svg>
