<svg version="1.1" viewBox="0 0 256 256" xmlns="http://www.w3.org/2000/svg">
<defs>
<linearGradient id="linearGradient1045" x1="111.46" x2="102.63" y1="95.322" y2="83.838" gradientTransform="translate(-88.178 -83.548)" gradientUnits="userSpaceOnUse">
<stop stop-color="#b3d8ff" offset="0"/>
<stop stop-color="#fff" offset="1"/>
</linearGradient>
<linearGradient id="linearGradient1047" x1="8.7312" x2="7.5419" y1="1.9844" y2=".69043" gradientTransform="translate(14.155)" gradientUnits="userSpaceOnUse">
<stop stop-color="#2da8ff" offset="0"/>
<stop stop-color="#74c0ff" offset="1"/>
</linearGradient>
<linearGradient id="linearGradient1049" x1="7.276" x2="7.276" y1="1.8521" y2=".26458" gradientTransform="translate(14.155)" gradientUnits="userSpaceOnUse">
<stop stop-color="#9bceff" offset="0"/>
<stop stop-color="#c9fcff" offset="1"/>
</linearGradient>
<linearGradient id="linearGradient1051" x1="7.4083" x2="8.9958" y1="1.9844" y2="1.9844" gradientTransform="translate(14.155)" gradientUnits="userSpaceOnUse">
<stop stop-color="#0096fc" offset="0"/>
<stop stop-color="#0068ce" offset="1"/>
</linearGradient>
<linearGradient id="linearGradient1053" x1="7.0115" x2="7.0115" y1="2.1167" gradientTransform="translate(14.155)" gradientUnits="userSpaceOnUse">
<stop stop-color="#6983b6" offset="0"/>
<stop stop-color="#7ca0d3" offset="1"/>
</linearGradient>
<linearGradient id="linearGradient1055" x1="7.1438" x2="8.7312" y1="2.5135" y2="2.5135" gradientTransform="translate(14.155)" gradientUnits="userSpaceOnUse">
<stop stop-color="#ddd" offset="0"/>
<stop stop-color="#9cf" offset="1"/>
</linearGradient>
<linearGradient id="linearGradient1057" x1="8.8635" x2="8.8635" y1="2.6458" y2="11.377" gradientTransform="translate(14.155)" gradientUnits="userSpaceOnUse">
<stop stop-color="#9fa0ff" offset="0"/>
<stop stop-color="#cbcaff" offset="1"/>
</linearGradient>
<linearGradient id="linearGradient1059" x1=".26458" x2="8.7312" y1="11.509" y2="11.509" gradientTransform="translate(14.155)" gradientUnits="userSpaceOnUse">
<stop stop-color="#ccccf2" offset="0"/>
<stop stop-color="#ccf" offset="1"/>
</linearGradient>
<linearGradient id="linearGradient1061" x1=".39688" x2=".39688" y1="11.377" y2=".26458" gradientTransform="translate(14.155)" gradientUnits="userSpaceOnUse">
<stop stop-color="#ccc" offset="0"/>
<stop stop-color="#fff" offset="1"/>
</linearGradient>
<linearGradient id="linearGradient1063" x1=".52917" x2="6.8792" y1=".39687" y2=".39687" gradientTransform="translate(14.155)" gradientUnits="userSpaceOnUse">
<stop stop-color="#fff" offset="0"/>
<stop stop-color="#ddd" offset="1"/>
</linearGradient>
<linearGradient id="linearGradient1065" x1="111.33" x2="102.63" y1="95.189" y2="83.838" gradientTransform="translate(-88.178 -83.548)" gradientUnits="userSpaceOnUse">
<stop stop-color="#525299" offset="0"/>
<stop stop-color="#99cbfe" offset="1"/>
</linearGradient>
<filter id="filter1038" x="-.14043" y="-.10923" width="1.2809" height="1.2185" color-interpolation-filters="sRGB">
<feGaussianBlur stdDeviation="10.915748"/>
</filter>
</defs>
<g transform="translate(-12.568)">
<path d="m58.66 14s-0.09098 1.193-0.09164 2.6641v234.52c6.6e-4 1.471 1.193 2.6634 2.6641 2.6641h181.22c1.471-6.7e-4 2.6634-1.193 2.6641-2.6641v-194.54c4.8e-4 -0.67476-0.25498-1.3246-0.71485-1.8184l-40.059-39.975c-0.50396-0.5394-1.2091-0.84563-1.9473-0.8457h-5.3301z" color="#000000" color-rendering="auto" dominant-baseline="auto" filter="url(#filter1038)" image-rendering="auto" opacity=".83" shape-rendering="auto" solid-color="#000000" stop-color="#000000" style="font-feature-settings:normal;font-variant-alternates:normal;font-variant-caps:normal;font-variant-east-asian:normal;font-variant-ligatures:normal;font-variant-numeric:normal;font-variant-position:normal;font-variation-settings:normal;inline-size:0;isolation:auto;mix-blend-mode:normal;paint-order:normal;shape-margin:0;shape-padding:0;text-decoration-color:#000000;text-decoration-line:none;text-decoration-style:solid;text-indent:0;text-orientation:mixed;text-transform:none;white-space:normal"/>
<g transform="matrix(20.145 0 0 20.145 -240.58 .000835)">
<path d="m14.288 0.13229h7.0115l1.9844 2.1167v9.525h-8.9958z" fill="url(#linearGradient1045)" style="paint-order:normal"/>
<path d="m21.167 0.13229v2.1167l2.1167-0.13229-1.8521-1.9844z" fill="url(#linearGradient1047)"/>
<path d="m21.431 2.1167v-1.8521" fill="none" stroke="url(#linearGradient1049)" stroke-width=".26458px"/>
<path d="m23.151 1.9844h-1.9844" fill="none" stroke="url(#linearGradient1051)" stroke-width=".26458px"/>
<path d="m21.034 2.249h2.3812" fill-opacity="0" stroke="#667eb1" stroke-width=".26458"/>
<path d="m21.167 0v2.1167" fill="#7494c7" stroke="url(#linearGradient1053)" stroke-width=".26458"/>
<g fill="none" stroke-width=".26458px">
<path d="m21.299 2.5135h1.8521" stroke="url(#linearGradient1055)"/>
<path d="m23.019 2.3813v8.9958" stroke="url(#linearGradient1057)"/>
<path d="m22.886 11.509h-8.4667" stroke="url(#linearGradient1059)"/>
<path d="m14.552 11.377v-11.112" stroke="url(#linearGradient1061)"/>
</g>
<path d="m21.034 0.39688h-6.35" fill="#e8ebee" stroke="url(#linearGradient1063)" stroke-width=".26458px"/>
<path d="m14.288 0.13229h7.0115l1.9844 1.9844v9.6573h-8.9958z" fill="none" stroke="url(#linearGradient1065)" stroke-linejoin="round" stroke-width=".26467" style="paint-order:normal"/>
<rect x="21.299" y="1.8521" width=".26458" height=".26458" fill="#4db3ff"/>
</g>
<path d="m84.036 133.15c15.45-39.869 49.053-53.511 63.776-37.203-2.9897 11.202-9.2411 15.401-21.259 21.259 19.155 5.8999 38.607 6.6802 58.462 5.3147 1.7561-28.52 4.498-51.206-4.1881-70.43-3.5023 9.2605-7.7536 16.031-11.756 17.284-30.095-33.623-85.194 9.0566-85.035 63.776z" fill="#01bc01"/>
<path d="m190.98 132.31c-15.078 37.157-49.154 37.645-61.511 25.919 5.2035-5.5448 13.024-8.2341 26.277-11.969-18.528-5.7071-43.482-6.6454-62.687-5.3245-3.513 23.632-4.747 49.664 4.133 64.886 3.3879-8.9578 7.4052-15.946 11.116-18.265 29.111 32.524 84.206-2.6194 82.672-55.247z" fill="#01bc01"/>
</g>
</svg>
