<svg version="1.1" viewBox="0 0 256 256" xmlns="http://www.w3.org/2000/svg">
<defs>
<filter id="filter965" x="-.1539" y="-.10227" width="1.3078" height="1.2045" color-interpolation-filters="sRGB">
<feGaussianBlur stdDeviation="9.6233514"/>
</filter>
</defs>
<g transform="translate(-12.568)" stroke-linejoin="round">
<path d="m164.12 28.982a5.0005 5.0005 0 0 0-3.541 1.4785l-79.598 80.215a5.0005 5.0005 0 0 0-0.01172 0.0215 5.0005 5.0005 0 0 0-1.1562 2.0527 5.0005 5.0005 0 0 0-0.12305 0.6289 5.0005 5.0005 0 0 0-0.16016 0.81837v80.215a5.0005 5.0005 0 0 0 1.5996 3.6641l59.854 55.533a5.0005 5.0005 0 0 0 0.24805 0.14062 5.0005 5.0005 0 0 0 0.97851 0.55469 5.0005 5.0005 0 0 0 1.0566 0.45312 5.0005 5.0005 0 0 0 1.1367 0.0586 5.0005 5.0005 0 0 0 1.1387-0.0703 5.0005 5.0005 0 0 0 1.0508-0.45703 5.0005 5.0005 0 0 0 0.97852-0.57226 5.0005 5.0005 0 0 0 0.26367-0.1543l80.215-76.512a5.0005 5.0005 0 0 0 1.5488-3.6191v-78.981a5.0005 5.0005 0 0 0-0.0176-0.09375 5.0005 5.0005 0 0 0-0.33398-1.6992 5.0005 5.0005 0 0 0-0.0488-0.13867 5.0005 5.0005 0 0 0-1.002-1.5293 5.0005 5.0005 0 0 0-0.0332-0.03711 5.0005 5.0005 0 0 0-0.0293-0.03711l-60.469-60.469a5.0005 5.0005 0 0 0-3.5449-1.4648z" color="#000000" filter="url(#filter965)" opacity=".73" stroke-linecap="round" stroke-width="10" style="-inkscape-stroke:none"/>
<g transform="matrix(-1.1214 0 0 1.1214 368.62 -23.716)" stroke-width="8.9176">
<path d="m140.91 92.892 53.924-53.924 70.982 71.532-53.374 48.972z" fill="#99cdff" stroke="#7db2e5" stroke-linecap="round"/>
<path d="m212.44 159.47-71.532-66.58v70.431l71.532 68.23z" fill="#039" stroke="#3e4b7b" stroke-linecap="round"/>
<path d="m212.44 159.47 53.374-48.972v71.532l-53.374 49.522z" fill="#5b9bd8" stroke="#4362b8"/>
</g>
</g>
</svg>
