<svg version="1.1" viewBox="0 0 256 256" xmlns="http://www.w3.org/2000/svg">
<defs>
<radialGradient id="radialGradient892-1" cx="-73.449" cy="6.6144" r="22.5" gradientTransform="matrix(3.8635,9.2828,-7.8486,3.2666,431.97,673.9)" gradientUnits="userSpaceOnUse">
<stop stop-color="#fc4c4c" offset="0"/>
<stop stop-color="#ce0000" offset=".53081"/>
<stop stop-color="#9e0000" offset=".8375"/>
<stop stop-color="#770101" offset="1"/>
</radialGradient>
<radialGradient id="radialGradient908-6" cx="-47.659" cy="15.382" r="22.5" gradientTransform="matrix(2.1491 -.5845 .25031 .92037 -118.38 168.04)" gradientUnits="userSpaceOnUse">
<stop stop-color="#d10100" stop-opacity="0" offset="0"/>
<stop stop-color="#d10100" stop-opacity="0" offset=".22105"/>
<stop stop-color="#ff2121" stop-opacity=".51654" offset=".73683"/>
<stop stop-color="#ffa0a0" offset="1"/>
</radialGradient>
<filter id="filter916-5" x="-.048" y="-.079385" width="1.096" height="1.1588" color-interpolation-filters="sRGB">
<feGaussianBlur stdDeviation="0.81563614"/>
</filter>
<filter id="filter1071" x="-.048" y="-.048" width="1.096" height="1.096" color-interpolation-filters="sRGB">
<feGaussianBlur stdDeviation="4.9"/>
</filter>
<linearGradient id="linearGradient915" x1="-56.432" x2="-56.432" y1="44" y2="1" gradientTransform="translate(-3.0383)" gradientUnits="userSpaceOnUse">
<stop stop-color="#dab000" offset="0"/>
<stop stop-color="#f7f700" offset="1"/>
</linearGradient>
<radialGradient id="radialGradient967" cx="-57.594" cy="39.448" r="3.4962" gradientTransform="matrix(1.1619,-1.1619,1.1619,1.1619,-36.51,-73.308)" gradientUnits="userSpaceOnUse">
<stop stop-color="#fff3ff" offset="0"/>
<stop stop-color="#190439" offset=".5"/>
<stop stop-color="#010001" offset="1"/>
</radialGradient>
<radialGradient id="radialGradient979" cx="-58.816" cy="23.44" r="3.5" gradientTransform="matrix(1,0,0,3.6537,0,-60.37)" gradientUnits="userSpaceOnUse">
<stop stop-color="#9886ba" offset="0"/>
<stop stop-color="#1b053a" offset=".5"/>
<stop stop-color="#010001" offset="1"/>
</radialGradient>
<linearGradient id="linearGradient995" x1="-62.932" x2="-62.432" y1="40" y2="10.5" gradientUnits="userSpaceOnUse">
<stop stop-color="#ffd202" offset="0"/>
<stop stop-color="#fff801" offset="1"/>
</linearGradient>
<filter id="filter997" x="-.048231" y="-.047772" width="1.0965" height="1.0955" color-interpolation-filters="sRGB">
<feGaussianBlur stdDeviation="0.66069923"/>
</filter>
<filter id="filter1001" x="-.048908" y="-.040308" width="1.0978" height="1.0806" color-interpolation-filters="sRGB">
<feGaussianBlur stdDeviation="0.65249604"/>
</filter>
<filter id="filter1055" x="-.048832" y="-.047195" width="1.0977" height="1.0944" color-interpolation-filters="sRGB">
<feGaussianBlur stdDeviation="4.6383316"/>
</filter>
</defs>
<g transform="matrix(.714 0 0 .714 69.881 .44284)">
<path d="m143.03 9.0212c-7.604 0.086312-14.492 4.5028-17.744 11.377l-92.756 196.12c-6.2356 13.188 3.3831 28.378 17.971 28.377h188.17c14.678-6e-3 24.287-15.372 17.867-28.572l-95.406-196.12c-3.363-6.9122-10.411-11.265-18.098-11.18z" color="#000000" color-rendering="auto" dominant-baseline="auto" filter="url(#filter1055)" image-rendering="auto" shape-rendering="auto" solid-color="#000000" stop-color="#000000" style="font-feature-settings:normal;font-variant-alternates:normal;font-variant-caps:normal;font-variant-east-asian:normal;font-variant-ligatures:normal;font-variant-numeric:normal;font-variant-position:normal;font-variation-settings:normal;inline-size:0;isolation:auto;mix-blend-mode:normal;shape-margin:0;shape-padding:0;text-decoration-color:#000000;text-decoration-line:none;text-decoration-style:solid;text-indent:0;text-orientation:mixed;text-transform:none;white-space:normal"/>
<g transform="matrix(5.3004,0,0,5.3004,445.47,-1.3044)">
<g shape-rendering="auto">
<path d="m-59.513 0.25c-1.4346 0.016284-2.7342 0.84957-3.3477 2.1465l-17.5 37c-1.1764 2.488 0.63848 5.3536 3.3906 5.3535h35.5c2.7693-0.0012 4.5823-2.9002 3.3711-5.3906l-18-37c-0.63447-1.3041-1.9639-2.1255-3.4141-2.1094z" color="#000000" color-rendering="auto" dominant-baseline="auto" fill="url(#linearGradient915)" image-rendering="auto" solid-color="#000000" stop-color="#000000" style="font-feature-settings:normal;font-variant-alternates:normal;font-variant-caps:normal;font-variant-east-asian:normal;font-variant-ligatures:normal;font-variant-numeric:normal;font-variant-position:normal;font-variation-settings:normal;inline-size:0;isolation:auto;mix-blend-mode:normal;shape-margin:0;shape-padding:0;text-decoration-color:#000000;text-decoration-line:none;text-decoration-style:solid;text-indent:0;text-orientation:mixed;text-transform:none;white-space:normal"/>
<path d="m-59.471 0.90019s-1.9721 4.4519-2.4225 5.4041l-12.848 30.265c-0.86374 1.8267-0.7194 2.6601 1.3012 2.66l28.341 0.52167c2.0332-8.81e-4 2.2758-1.3805 1.3866-3.209l-13.216-30.265c-0.46583-0.95745-2.5419-5.3768-2.5419-5.3768z" color="#000000" color-rendering="auto" dominant-baseline="auto" fill="#ffff5c" filter="url(#filter1001)" image-rendering="auto" solid-color="#000000" stop-color="#000000" style="font-feature-settings:normal;font-variant-alternates:normal;font-variant-caps:normal;font-variant-east-asian:normal;font-variant-ligatures:normal;font-variant-numeric:normal;font-variant-position:normal;font-variation-settings:normal;inline-size:0;isolation:auto;mix-blend-mode:normal;shape-margin:0;shape-padding:0;text-decoration-color:#000000;text-decoration-line:none;text-decoration-style:solid;text-indent:0;text-orientation:mixed;text-transform:none;white-space:normal"/>
<path d="m-59.471 7.3084s-1.9721 4.2667-2.4225 5.2189l-13.776 26.254c-0.86374 1.8267 1.396 1.7189 3.4167 1.7188h26.064c2.0332-8.81e-4 3.866-0.17042 2.9768-1.9989l-13.717-26.001c-0.46583-0.95745-2.5419-5.1916-2.5419-5.1916z" color="#000000" color-rendering="auto" dominant-baseline="auto" fill="url(#linearGradient995)" filter="url(#filter997)" image-rendering="auto" solid-color="#000000" stop-color="#000000" style="font-feature-settings:normal;font-variant-alternates:normal;font-variant-caps:normal;font-variant-east-asian:normal;font-variant-ligatures:normal;font-variant-numeric:normal;font-variant-position:normal;font-variation-settings:normal;inline-size:0;isolation:auto;mix-blend-mode:normal;shape-margin:0;shape-padding:0;text-decoration-color:#000000;text-decoration-line:none;text-decoration-style:solid;text-indent:0;text-orientation:mixed;text-transform:none;white-space:normal"/>
</g>
<path d="m-62.971 16.5c0-6 7-6 7 0 0 4-3.5 16-3.5 16s-3.5-12-3.5-16z" fill="url(#radialGradient979)"/>
<circle cx="-59.474" cy="37.39" r="3.4962" fill="url(#radialGradient967)" fill-rule="evenodd" stop-color="#000000"/>
</g>
</g>
<g transform="matrix(.68328 0 0 .68328 -10.683 81.594)" fill-rule="evenodd">
<circle cx="135.46" cy="119.19" r="100.98" fill="#fff" stop-color="#000000" stroke-linecap="round" stroke-width="25.196"/>
<path transform="matrix(.98776 0 0 .98776 378.93 -109.21)" d="m-243.34 114.62a122.5 122.5 0 0 0-122.5 122.5 122.5 122.5 0 0 0 122.5 122.5 122.5 122.5 0 0 0 122.5-122.5 122.5 122.5 0 0 0-122.5-122.5zm-47.798 52.934 47.033 47.033 47.033-47.033 24.5 24.5-47.033 47.033 47.033 47.033-24.5 24.5-47.033-47.033-47.033 47.033-24.5-24.5 47.033-47.033-47.033-47.033z" filter="url(#filter1071)" stop-color="#000000"/>
<path d="m133.57-3.6134e-6a121 121 0 0 0-121 121 121 121 0 0 0 121 121 121 121 0 0 0 121-121 121 121 0 0 0-121-121zm-47.213 52.286 46.457 46.457 46.457-46.457 24.2 24.2-46.457 46.457 46.457 46.457-24.2 24.2-46.457-46.457-46.457 46.457-24.2-24.2 46.457-46.457-46.457-46.457z" fill="url(#radialGradient892-1)" stop-color="#000000"/>
<path transform="matrix(5.3778,0,0,5.3778,1299.9,-989.38)" d="m-216.89 186.08c-11.262 0-20.391 9.129-20.391 20.391 0 3.6056 2.9198 4.2677 6.7143 4.2677l9.0357-3.9064-8.6387-8.6387 4.5-4.5 8.6387 8.6387 8.6387-8.6387 4.5 4.5-8.6387 8.6387 11.546 1.7904c2.8868 0 4.4856-0.47198 4.4856-2.1517 0-11.262-9.129-20.391-20.391-20.391z" fill="url(#radialGradient908-6)" filter="url(#filter916-5)" stop-color="#000000"/>
</g>
</svg>
