<svg version="1.1" viewBox="0 0 256 256" xmlns="http://www.w3.org/2000/svg">
<defs>
<radialGradient id="radialGradient22114" cx="-214.57" cy="102.78" r="112.02" gradientTransform="matrix(1.4585,0,0,1.4585,376.96,-76.121)" gradientUnits="userSpaceOnUse">
<stop stop-color="#fff" offset="0"/>
<stop stop-color="#fff" offset="1"/>
</radialGradient>
<linearGradient id="linearGradient21906" x1="212.99" x2="59.597" y1="199.78" y2="48.182" gradientTransform="matrix(1.0713 0 0 1.0713 -19.69 3.0862)" gradientUnits="userSpaceOnUse">
<stop stop-color="#008a19" offset="0"/>
<stop stop-color="#00ba24" offset="1"/>
</linearGradient>
<filter id="filter1078" x="-.10993" y="-.11041" width="1.2199" height="1.2208" color-interpolation-filters="sRGB">
<feGaussianBlur stdDeviation="10.706414"/>
</filter>
</defs>
<path d="m130 15.281c-66.242 0-113.75 46.476-113.75 112.72 0 66.242 47.504 120 113.75 120 66.242 0 120-53.758 120-120s-53.758-112.72-120-112.72z" fill-rule="evenodd" filter="url(#filter1078)" stop-color="#000000"/>
<g transform="translate(-8.0005,-8.0002)">
<circle cx="128" cy="128" r="117.32" fill="#f8f8f8" fill-rule="evenodd" stop-color="#000000"/>
<path d="m128 10.678a117.32 117.32 0 0 0-117.32 117.32 117.32 117.32 0 0 0 117.32 117.32 117.32 117.32 0 0 0 117.32-117.32 117.32 117.32 0 0 0-117.32-117.32zm35.41 43.985a11.836 11.836 0 0 1 5.8982 1.6613 11.836 11.836 0 0 1 4.124 16.222c-12.558 21.12-25.606 59.218-37.643 112.97a11.837 11.837 0 0 1-21.122 4.375l-2.5171-3.4628a11.837 11.837 0 0 1-0.16111-0.22388l-2.5986-3.7536-3.446-4.3102c-8.0688-9.8372-18.408-20.305-31.016-31.286a11.836 11.836 0 0 1-1.1529-16.697 11.836 11.836 0 0 1 16.699-1.1529c10.682 9.3035 19.946 18.394 27.916 27.344 10.62-42.558 21.877-74.34 34.697-95.901a11.836 11.836 0 0 1 10.323-5.7852z" fill="url(#radialGradient22114)" fill-rule="evenodd" stop-color="#000000" stroke="#0ba000" stroke-width="10"/>
<circle cx="130.32" cy="130.32" r="117.32" fill="none" stop-color="#000000" stroke="url(#linearGradient21906)" stroke-linecap="round" stroke-linejoin="round" stroke-width="10"/>
</g>
</svg>
