<svg version="1.1" viewBox="0 0 256 256" xmlns="http://www.w3.org/2000/svg"><defs><linearGradient id="linearGradient1090" x1="31.485" x2="28.443" y1="7.4083" y2="5.0271" gradientTransform="matrix(2.087,0,0,2.087,-40.993,-4.4174)" gradientUnits="userSpaceOnUse"><stop stop-color="#abd5ff" offset="0"/><stop stop-color="#fff" offset="1"/></linearGradient><linearGradient id="linearGradient1092" x1="28.443" x2="28.443" y1="2.9104" y2="3.4396" gradientTransform="matrix(2.087,0,0,2.087,-40.993,-4.4174)" gradientUnits="userSpaceOnUse"><stop stop-color="#016cd1" offset="0"/><stop stop-color="#017bdf" offset="1"/></linearGradient><filter id="filter952" x="-.043827" y="-.053053" width="1.0877" height="1.1061" color-interpolation-filters="sRGB"><feGaussianBlur stdDeviation="4.4782031"/></filter></defs><path d="m26.404 30.707c-11.722 0-21.324 9.6025-21.324 21.324v181.26h245.23v-181.26c0-11.722-9.6025-21.324-21.324-21.324z" color="#000000" fill="#212121" filter="url(#filter952)" stroke-linecap="round" stroke-width="10.662" style="-inkscape-stroke:none"/><g transform="matrix(19.31 0 0 19.31 -242.6 5.3824)"><path d="m24.992 2.4848v8.8348h-12.148v-8.8348" fill="url(#linearGradient1090)" stroke="#016cd1" stroke-linecap="round" stroke-width=".55217"/><path d="m24.992 2.7609h-12.148v-0.82826l0.82826-0.55217h10.491l0.82826 0.82826z" fill="url(#linearGradient1092)"/><path d="m12.844 2.7609v-0.55217c0-0.45886 0.3694-0.82826 0.82826-0.82826h10.491c0.45886 0 0.82826 0.3694 0.82826 0.82826v0.55217" fill="none" stroke="#016cd1" stroke-linecap="round" stroke-linejoin="round" stroke-width=".55217"/></g><g transform="translate(-12.568)" fill="none" stroke-width="10.662px"><path d="m44.635 96.013h191.92" stroke="#b3b3b3"/><g stroke="#999"><path d="m44.635 117.34h191.92"/><path d="m44.635 138.66h191.92"/><path d="m44.635 159.99h191.92"/><path d="m44.635 181.31h191.92"/></g></g></svg>
