<svg version="1.1" viewBox="0 0 256 256" xmlns="http://www.w3.org/2000/svg"><defs><linearGradient id="linearGradient847" x1="28.443" x2="28.443" y1="2.9104" y2="3.4396" gradientTransform="matrix(39.771 0 0 39.771 -1020.7 -77.193)" gradientUnits="userSpaceOnUse"><stop stop-color="#016cd1" offset="0"/><stop stop-color="#017bdf" offset="1"/></linearGradient><linearGradient id="linearGradient855" x1="31.485" x2="28.443" y1="7.4083" y2="5.0271" gradientTransform="matrix(39.771 0 0 39.771 -1020.7 -77.727)" gradientUnits="userSpaceOnUse"><stop stop-color="#abd5ff" offset="0"/><stop stop-color="#fff" offset="1"/></linearGradient><filter id="filter1119" x="-.043826" y="-.053052" width="1.0877" height="1.1061" color-interpolation-filters="sRGB"><feGaussianBlur stdDeviation="4.4191016"/></filter><linearGradient id="linearGradient1147" x1="4.0677" x2="4.0677" y1="1.5" y2="7.5" gradientTransform="translate(31.5)" gradientUnits="userSpaceOnUse"><stop stop-color="#92c3ef" offset="0"/><stop stop-color="#e2f1f0" offset="1"/></linearGradient><linearGradient id="linearGradient1155" x1="14.568" x2="39.568" y1="1" y2="28.5" gradientUnits="userSpaceOnUse"><stop stop-color="#c3c3c2" offset="0"/><stop stop-color="#919191" offset="1"/></linearGradient><linearGradient id="linearGradient1167" x1="21.148" x2="21.148" y1="4.1875" y2="11" gradientUnits="userSpaceOnUse"><stop stop-color="#09f" offset="0"/><stop stop-color="#b3f2ff" offset="1"/></linearGradient><linearGradient id="linearGradient1175" x1="39.659" x2="39.659" y1="7.6117" y2="17.444" gradientUnits="userSpaceOnUse"><stop stop-color="#0e3f9e" offset="0"/><stop stop-color="#008bf1" offset="1"/></linearGradient><linearGradient id="linearGradient1183" x1="14.193" x2="14.172" y1="9.3548" y2="17.146" gradientUnits="userSpaceOnUse"><stop stop-color="#079c07" offset="0"/><stop stop-color="#80cc80" offset="1"/></linearGradient><linearGradient id="linearGradient1195" x1="19.068" x2="19.068" y1="21" y2="25" gradientUnits="userSpaceOnUse"><stop stop-color="#003800" offset="0"/><stop stop-color="#005d00" stop-opacity="0" offset="1"/></linearGradient><linearGradient id="linearGradient1203" x1="29.568" x2="29.568" y1="22.5" y2="24" gradientUnits="userSpaceOnUse"><stop stop-color="#003800" offset="0"/><stop stop-color="#005d00" offset="1"/></linearGradient><linearGradient id="linearGradient1217" x1="13.568" x2="39.568" y1="27.5" y2="22" gradientUnits="userSpaceOnUse"><stop stop-color="#80cc80" offset="0"/><stop stop-color="#f3fb97" offset="1"/></linearGradient><filter id="filter1282" x="-.048" y="-.048" width="1.096" height="1.096" color-interpolation-filters="sRGB"><feGaussianBlur stdDeviation="4.84"/></filter></defs><path d="m26.033 32.045c-11.562 0-21.033 9.4731-21.033 21.035v178.88h242v-178.88c0-11.562-9.4731-21.035-21.035-21.035z" fill="#212121" filter="url(#filter1119)"/><path d="m236.75 53.807v168.36h-231.5v-168.36" fill="url(#linearGradient855)"/><path d="m236.75 54.341v168.36h-231.5v-168.36" fill="none" stroke="#016cd1" stroke-linecap="round" stroke-width="10.5"/><path d="m236.75 59.602h-231.5v-15.784l15.784-10.523h199.93l15.784 15.784z" fill="url(#linearGradient847)"/><path d="m5.25 59.602v-10.523c0-8.7444 7.0397-15.784 15.784-15.784h199.93c8.7444 0 15.784 7.0397 15.784 15.784v10.523" fill="none" stroke="#016cd1" stroke-linecap="round" stroke-linejoin="round" stroke-width="10.5"/><g transform="translate(-12.568)" fill="none" stroke-width="10.662px"></g><g transform="matrix(.50093 0 0 .50093 54.254 75.37)"><path d="m17.568 4v242h242v-242z" fill="#212121" fill-rule="evenodd" filter="url(#filter1282)" stop-color="#000000"/><g transform="matrix(8.3448,0,0,8.3448,-88.135,0)"><rect x="12.568" y=".5" width="28" height="28" fill="url(#linearGradient1147)" fill-rule="evenodd" stop-color="#000000"/><path d="m12.568 6.5c3-1 2.5-2.5 5.5-2.5s2.5 1 5.5 1c1.5 0 1.5457-1 3-1 4.0249 2.9665 12.213 4.9263 14 8.5l-20 2-8-1z" fill="url(#linearGradient1167)"/><path d="m40.568 7h-1c-1.5283 0-2.8413 1.7225-3.5 2h-3.5c-1.5572 0-2.4536 0.95359-3 1.5h-2.5c-2 0-3.7215 1.9068-6.5 3l12.5 7h7.5z" fill="url(#linearGradient1175)"/><path d="m12.568 8.5c6.5 0.5 6.6294 3.9559 12 5 1.5521 0.30174 3.5 1.5 6 1.5 1.118 0 6.5 3 10 3v8.5h-28z" fill="url(#linearGradient1183)"/><path d="m40.568 21c-3 0-6.5 0.5-9.5 1s-18.5 1.5-18.5 1.5v5h28z" fill="url(#linearGradient1217)"/><path d="m29.568 18c-0.60067 0.30203-1.8626 2.9808-2 2.5-1-3.5-4-9-5-10.5-1 1-1.6557 2.9703-2 4.5-0.5-1.5-1.5-4.7081-2.5-4.7081-2 0-2.8942 8.9523-3.3942 8.9523s-2.1058-1.7441-2.1058-1.7441v8c6 0 16.5 0 21-1.5-2-1.5-2.5468-4.4219-4-5.5z" fill="#060"/><path d="m15.068 22c0.68278-2.6033 2.3281-7.3428 3.1846-8.7329 0.96031 0.99255 2.3037 3.059 2.8154 4.7329 0.57808-0.79643 1.3043-2.3722 1.9558-2.3722 1 0 3.3143 4.3402 5.527 8.5985-6.4017 0.36469-14.703 1.1148-15.983 0.77367v-7.5c1.5081 1.3071 2.071 4.2857 2.5 4.5z" fill="url(#linearGradient1195)"/><rect x="12.568" y=".5" width="28" height="28" fill="none" stop-color="#000000" stroke="url(#linearGradient1155)" stroke-linecap="round" stroke-miterlimit="11.1"/><path d="m27.068 24.5c0.1235-0.25934 1.964-4.0196 2.4522-5.0234 0.57914 0.98478 2.1086 3.523 2.8514 4.1248-0.5242 0.19775-5.3036 0.89861-5.3036 0.89861z" fill="url(#linearGradient1203)"/></g></g></svg>
