<svg version="1.1" viewBox="0 0 256 256" xmlns="http://www.w3.org/2000/svg" xmlns:xlink="http://www.w3.org/1999/xlink">
<defs>
<linearGradient id="gradient37-1-6" x1="-819.2" x2="819.2" gradientTransform="matrix(0 .036021 .065025 0 -129.2 25.1)" gradientUnits="userSpaceOnUse">
<stop stop-color="#99c" offset="0"/>
<stop stop-color="#669" offset="1"/>
</linearGradient>
<radialGradient id="gradient38-1-3" cx="0" cy="0" r="819.2" gradientTransform="matrix(.098706 0 0 .098706 -157.97 17.148)" gradientUnits="userSpaceOnUse">
<stop stop-color="#fff" offset="0"/>
<stop stop-color="#ddd" offset=".28235"/>
<stop stop-color="#99c" offset="1"/>
</radialGradient>
<linearGradient id="gradient0-1-7" x1="-819.2" x2="819.2" gradientTransform="matrix(-.068712 -.068712 -.068712 .068712 -137.77 19.342)" gradientUnits="userSpaceOnUse">
<stop stop-color="#039" offset="0"/>
<stop stop-color="#09f" offset=".47059"/>
<stop stop-color="#cff" offset="1"/>
</linearGradient>
<radialGradient id="gradient1-6-6" cx="0" cy="0" r="819.2" gradientTransform="matrix(.15259 0 0 .15259 -147.36 -19.476)" gradientUnits="userSpaceOnUse">
<stop stop-color="#fff" offset="0"/>
<stop stop-color="#cff" offset=".078431"/>
<stop stop-color="#09f" offset=".29804"/>
<stop stop-color="#06c" offset=".53725"/>
<stop stop-color="#039" offset=".75294"/>
<stop stop-color="#99f" offset="1"/>
</radialGradient>
<radialGradient id="gradient2-62-7" cx="-1495.2" cy="5091.2" r="819.2" gradientTransform="matrix(.033215 .02554 -.022525 .029294 177.22 -98.257)" gradientUnits="userSpaceOnUse">
<stop stop-color="#00bf00" offset="0"/>
<stop stop-color="#060" offset=".92941"/>
</radialGradient>
<radialGradient id="radialGradient1624-0" cx="-154.38" cy="-18.647" r="75.181" fx="-154.72" gradientTransform="matrix(.65631 0 0 .6543 -49.102 -7.0885)" gradientUnits="userSpaceOnUse">
<stop stop-color="#fff" offset="0"/>
<stop stop-color="#fff" stop-opacity="0" offset="1"/>
</radialGradient>
<linearGradient id="linearGradient1296" x1="-17.035" x2="-17.035" y1="3.3955" y2="35.757" gradientUnits="userSpaceOnUse" xlink:href="#gradient38-1-3"/>
<linearGradient id="linearGradient1312" x1="-12.274" x2="-12.274" y1="2.3409" y2="35.886" gradientUnits="userSpaceOnUse" xlink:href="#gradient37-1-6"/>
<linearGradient id="linearGradient1320" x1="-11.432" x2="-8.9323" y1="38" y2="38" gradientUnits="userSpaceOnUse" xlink:href="#gradient37-1-6"/>
<linearGradient id="linearGradient1336" x1="-15.357" x2="-13.472" y1="2.8453" y2="2.5994" gradientUnits="userSpaceOnUse" xlink:href="#gradient38-1-3"/>
<radialGradient id="radialGradient1338" cx="0" cy="0" r="819.2" gradientTransform="matrix(.096409 0 0 .096409 -157.31 17.319)" gradientUnits="userSpaceOnUse" xlink:href="#gradient38-1-3"/>
<linearGradient id="linearGradient1348" x1="-8.9935" x2=".56771" y1="40.573" y2="42.25" gradientUnits="userSpaceOnUse">
<stop stop-color="#a8a8cc" offset="0"/>
<stop stop-color="#a8a8cc" stop-opacity="0" offset="1"/>
</linearGradient>
<linearGradient id="linearGradient1364" x1="-819.2" x2="819.2" gradientTransform="matrix(0 .036021 .065025 0 -129.2 25.1)" gradientUnits="userSpaceOnUse" xlink:href="#gradient37-1-6"/>
<filter id="filter893" x="-.14704" y="-.10554" width="1.2941" height="1.2111" color-interpolation-filters="sRGB">
<feGaussianBlur stdDeviation="10.641672"/>
</filter>
</defs>
<g transform="translate(-12.568)">
<path d="m136.7 14c-2.7923 0-5.5345 1.5287-7.084 4.1387-1.2802 2.1564-1.814 18.541-1.5664 21.834-47.638 17.733-65.419 44.894-59.09 86.476 4.0658 26.714 18.804 46.908 35.412 59.99 8.9742 7.0687 18.443 12.115 27.244 15.014-9.1204 1.356-17.362 3.5894-24.721 6.7012-13.239 5.3659-19.859 11.923-19.859 19.674 0 7.7507 6.6202 14.385 19.859 19.9 13.042 5.5149 28.849 8.2715 47.424 8.2715 18.772 0 34.679-2.7565 47.721-8.2715 13.239-5.5149 19.859-12.15 19.859-19.9 0-7.7507-6.6202-14.308-19.859-19.674-8.6594-3.6618-18.59-6.1016-29.775-7.332v-2.1992c17.369-2.2588 32.588-9.8397 45.646-22.773 15.671-15.821 23.506-34.807 23.506-56.957 0-22.3-7.8353-41.285-23.506-56.955-15.821-15.671-34.807-23.506-56.957-23.506-3.4561 0-6.8245 0.2115-10.125 0.58789l-1.8945-11.367c-1.4165-8.4989-6.6497-13.652-12.234-13.652zm-6.2812 40.836 0.45312 2.7227c-9.8938 3.9135-18.932 9.8969-27.1 17.986-3.2026 3.2026-6.0593 6.5517-8.6074 10.031 0.76889-1.2901 1.5613-2.5583 2.4043-3.7793 8.2737-11.984 20.097-20.715 32.85-26.961z" filter="url(#filter893)" opacity=".83" stroke-width="5.1486"/>
<g transform="matrix(5.1767 0 0 5.1767 199.33 1.1357)">
<g transform="matrix(.24479 0 0 .18465 20.227 36.495)" fill-rule="evenodd">
<path d="m-182.29 24.866q0 12.163 15.671 20.817 15.438 8.6544 37.424 8.6544 22.221 0 37.658-8.6544 15.671-8.6544 15.671-20.817t-15.671-20.583q-15.438-8.6544-37.658-8.6544-21.987 0-37.424 8.6544-15.671 8.4204-15.671 20.583" fill="url(#linearGradient1364)" stroke-width="4.678"/>
<path d="m-177.64 24.401c0 7.3106 4.7214 11.418 14.164 16.597 9.2906 5.1783 20.637 7.7675 34.04 7.7675 13.25 0 24.597-2.5892 34.04-7.7675 9.2906-5.1783 13.936-9.2859 13.936-16.597 0-7.3106-4.6453-13.555-13.936-18.733-9.4429-5.026-20.79-7.5391-34.04-7.5391-13.403 0-24.749 2.513-34.04 7.5391-9.4429 5.1783-14.164 11.423-14.164 18.733" fill="url(#radialGradient1338)" stroke-width="4.5691"/>
</g>
<g>
<path d="m-14.932 4c-6 2.5-11.588 7.5956-9.9614 17.427 0.86191 5.2094 4.6237 11.794 12.961 14.573-4.3948 0.58598-13.933-4.5331-15.461-14.573-1.2111-7.9576 2.1698-15.648 11.461-18.927z" fill="url(#linearGradient1296)" stroke="url(#linearGradient1312)" stroke-width="1px"/>
<path d="m-12.432 5.5-0.5-3c-0.4932-2.9592-3.4932-2.9592-3 0l0.5 3" fill="url(#linearGradient1336)" stroke="#99c" stroke-linecap="round" stroke-width="1px"/>
<path d="m-12.432 39c0.44799 2.3943 3.0753 5.8938 4.5253 6.2578 1.6532-0.1226 4.6499-0.71055 7.4747-2.7578 1.2476-0.90422 0.85419-1.7057 0.24254-2.9798l-8.2425-0.52021" fill="url(#linearGradient1348)"/>
<path d="m-11.932 35v4c0 1.7776 3.5 1.5687 3.5 0v-4" fill="url(#linearGradient1320)" stroke="#717197" stroke-width="1px"/>
</g>
<g transform="matrix(.19571 0 0 .19571 16.845 16.258)" fill-rule="evenodd">
<path d="m-217.41 19.342q0 32.794 23.201 56.219 23.424 23.201 56.442 23.201 32.794 0 56.219-23.201 23.201-23.424 23.201-56.219 0-33.017-23.201-56.219-23.424-23.201-56.219-23.201-33.017 0-56.442 23.201-23.201 23.201-23.201 56.219" fill="url(#gradient0-1-7)"/>
<path d="m-212.95 19.342q0 31.009 21.863 53.095 22.086 22.086 53.318 22.086 31.009 0 53.318-22.086 21.863-22.086 21.863-53.095 0-31.233-21.863-53.318-22.309-22.086-53.318-22.086-31.233 0-53.318 22.086-21.863 22.086-21.863 53.318" fill="url(#gradient1-6-6)"/>
<path transform="matrix(3.7819 0 0 3.7819 -225.48 -69.054)" d="m20.951 3.6719v0.11719h-0.11719v0.11719h-0.47266v0.11914h-0.47266v0.17578h-0.11719v0.47266h0.23633v0.11719h1.0605v0.11914h-0.58984v0.23633h-0.11719v-0.11914h-0.47266v0.23633h0.11914v0.35352h-0.11914v0.23633h-0.23438v0.11719h-0.11914v0.11914h-0.11719v0.11719h-0.11914v0.29492h-0.17578v0.11914h-0.11914v0.23438h0.11914v0.11914h0.29492v0.11719h0.4707v0.11914h0.47266v-0.11914h0.23633v-0.35352h0.11719v-0.11719h0.23633v-0.11914h0.11719v-0.11719h0.11914v-0.17773h0.11719v-0.23633h0.17773v-0.11719h0.4707v-0.11719h0.11914v0.23438h-0.11914v0.23633h0.35547v0.29492h0.11719v0.11914h-0.11719v0.11719h-0.47266v0.11719h-0.11719v0.11914h-0.65039v0.11719h-0.11719v0.11914h-0.11719v0.11719h0.11719v0.11914h0.23633v0.11719h0.29492v0.11719h0.11719v0.11914h-0.53125v0.35352h0.11914v0.23633h0.76562v0.29492h0.23633v-0.17773h0.35352v-0.11719h0.94531v0.11719h0.17578v0.17773h0.11914v0.35352h0.11719v0.11719h0.11719v0.94531h-0.11719v0.11719h-0.11719v0.11719h0.4707v0.11914h-0.11719v0.11719h0.11719v0.11914h0.35547v0.17578h0.11719v0.11914h-0.11719v0.11719h-0.23633v0.23633h-0.11914v0.11719h-0.11719v0.11914h0.11719v0.4707h0.11914v0.23633h0.11719v0.23633h0.11914v0.23633h0.11719v0.11719h0.11719v0.29492h0.11914v0.11914h0.11719v0.11719h0.58984v0.11719h0.53125v-0.35352h0.11719v-0.41211h0.29492v-0.35352h0.11914v-0.23633h0.35352v-0.11914h0.35352v-0.11719h0.11914v-0.11914h0.11719v-0.11719h0.11719v-0.23633h0.47266v-0.11719h0.11719v-0.11914h0.11914v0.11914h0.23633v-0.11914h0.41211v-0.11719h0.11719v-0.11719h0.35547v-0.11914h0.11719v-0.29492h0.11914v-0.4707h-0.11914v-0.11914h-0.11719v-0.4707h0.35352v-0.11914h0.11719v-0.11719h0.11914v-0.11914h0.11719v-0.11719h0.11914v-0.35352h-0.11914v-0.17773h-0.11719v-0.11719h0.58984v-0.23633h-0.11914v-0.11719h-0.11719v-0.23633h-0.11719v-0.23633h-0.35547v-0.11719h-0.35352v0.4707h-0.11719v0.23633h-0.11914v-0.47266h-0.11719v-0.11719h0.11719v-0.35352h0.23633v0.11719h0.23633v-0.35352h0.47266v-0.23633h-0.11914v-0.11719h-0.4707v0.23438h-0.23633v0.11914h-0.11914v-0.35352h0.11914v-0.11914h0.94336v-0.11719h0.11719v-0.17773h-0.58984v-0.11719h0.11914v-0.23633h0.11719v-0.11719h0.23633v-0.11914h0.11719v-0.35352h0.11914v-0.23633h-0.23633v-0.11719h-0.58984v0.35352h-0.11719v0.11719h-0.11914v0.11914h-0.23633v-0.11914h0.11914v-0.11719h0.11719v-0.11719h0.11914v-0.35547h-0.70898v-0.11719h0.11719v-0.23633h-0.11719v-0.11719h-0.53125v-0.11914h-0.4707v-0.17578h-0.47266v-0.11914h-1.3574v0.11914h-0.23438v0.17578h-0.41406v0.11914h-0.11719v0.11719h-0.35352v0.11914h-0.11914v0.11719h-0.58984v0.11719h-0.58984v0.11914h-0.64844v0.11719h-0.35352v-0.11719h0.23437v-0.11914h0.23633v-0.11719h-0.11719v-0.11719h-0.11914v-0.53125h-0.11719v-0.11914h-0.11719v-0.11719h-0.11914v-0.11719h-0.82617v0.11719h-0.35352v-0.11719zm-2.7734 0.5293v0.23633h-0.11719v0.35352h-0.11719v-0.11719h-0.23633v-0.23633h-0.47266v0.11914h-0.41211v0.11719h0.29492v0.11719h0.11719v0.11914h0.23633v0.11719h0.35352v-0.11719h0.11914v0.23633h0.11719v0.11719h-0.11719v0.11719h0.23438v0.23633h-0.11719v0.11914h0.11719v0.35352h0.82617v-0.23633h0.11914v-0.11719h0.17578v-0.23633h0.11914v-0.35352h-0.29492v-0.47266h-0.11914v-0.11719h-0.11719v-0.11914h-0.35352v-0.23633zm-1.709 0.47266v0.11719h0.11719v-0.11719zm-0.82617 0.35352v0.11914h-0.35352v0.11719h-0.23633v0.23633h0.4707v0.4707h0.35547v0.11914h0.11719v-0.11914h0.11719v0.11914h0.11914v1.002h-0.23633v0.23633h-0.11719v0.11914h-0.11914v0.23438h0.11914v0.82617h0.35352v-0.35352h0.11719v-0.11719h0.23633v-0.11914h0.11719v-0.11719h0.11914v-0.35352h0.11719v-0.11914h0.88477v-0.11719h0.23633v0.11719h0.35352v0.47266h1.2402v-0.35352h-0.11914v-0.23633h-0.76758v-0.82617h-0.23438v-0.17773h-0.47266v-0.11719h-0.47266v0.11719h-0.4707v-0.11719h-0.17774v-0.11914h-0.23633v-0.23438h-0.11719v-0.23633h-0.47266v-0.11914h-0.11719v-0.11719h-0.23633v-0.23633zm-1.1211 0.47266v0.11719h-0.23633v0.11914h-0.23633v0.11719h-0.23633v0.11719h0.11914v0.11914h0.23633v0.11719h0.11719v0.29492h0.11914v0.11914h0.41211v0.11719h0.70703v-0.11719h0.23633v-0.53125h-0.82617v0.29492h-0.11719v-0.64844h0.11719v-0.23633zm-1.5332 0.88477v0.11719h-0.23633v0.11914h-0.11914v0.11719h-0.29492v0.11719h-0.11719v0.11914h-0.23633v0.11719h0.23633v0.23633h0.64844v-0.11719h0.47266v-0.11914h0.23633v-0.23633h0.11719v-0.23438h-0.11719v-0.11914h-0.35547v-0.11719zm1.1797 0.58984v0.11719h-0.11914v0.47266h-0.35352v0.35352h0.11719v0.11914h0.11914v0.11719h0.11719v0.23633h0.23633v0.11719h0.64844v-0.11719h0.11914v0.29492h-0.11914v0.11719h-0.11719v0.23633h-0.29492v0.23633h-0.23633v-0.35352h-0.35352v-0.11914h-0.35352v-0.29492h-0.11914v-0.70703h-0.11719v-0.11914h-0.35352v0.11914h-0.11914v-0.11914h-0.53125v-0.11719h-0.35352v0.23633h-0.11719v-0.35352h-0.23633v-0.11914h-0.11719v0.11914h-0.11914v0.23438h-0.11719v-0.11719h-0.11914v0.11719h-0.11719v0.11914h-0.11719v0.11719h-0.11914v0.11914h-0.23633v0.11719h-0.11719v0.11719h0.23633v-0.11719h0.11719v0.23633h0.11914v0.41211h0.23438v0.11914h0.47266v-0.11914h0.23633v0.11914h0.23633v0.11719h-0.94531v0.35352h0.11914v0.11914h0.35352v0.11719h0.11719v0.11719h0.58984v-0.11719h0.65039v-0.11719h0.35352v0.11719h0.58984v-0.11719h0.11719v-0.23633h0.11914v0.35352h0.23633v0.11719h0.23438v-0.11719h0.29492v0.11719h0.11914v0.23633h0.11719v0.11914h0.11914v0.23438h-0.11914v0.11914h-0.35352v-0.11914h0.11719v-0.23438h-0.76562v0.35352h-0.47266v0.11719h-0.11719v-0.11719h-0.11914v-0.11914h-0.11719v-0.11719h-0.35352v-0.23633h-0.11914v-0.11719h-0.11719v0.11719h-0.53125v0.11914h-0.11719v0.35352h0.11719v0.11719h-0.11719v0.11914h-0.11914v-0.23633h-0.11719v-0.11914h-0.23633v0.11914h-0.58984v-0.11914h0.11719v-0.35352h-0.11719v-0.11719h-0.11719v-0.11914h-0.23633v0.23633h-0.11914v-0.11719h-0.11719v-0.11914h-0.17773v-0.11719h-0.23438v-0.11719h-0.23633v-0.11914l-0.82422-0.0019531c-0.1868 0.17398-0.86564 0.86862-1.8262 2.125-0.65818 0.86091-1.2548 1.8047-1.5156 2.3555l0.1543 0.0059v0.23438h0.11719v0.11914h0.11914v0.11719h0.53125v0.11914h0.35352v0.11719h0.11719v0.11719h0.11914v0.23629h0.23438v0.41406h0.11914v0.11719h0.23633v0.11719h-0.11914v0.35547h0.11914v0.41211h0.11719v0.11719h0.11719v0.11914h0.11914v0.23633h0.17578v0.11719h0.23633v0.11719h0.11914v0.11914h0.23633v0.11719h0.11719v0.11914h0.11719v0.88476h-0.11719v0.58984h-0.11719v1.1797h0.11719v0.23633h0.11719v0.29492h0.11914v0.11719h0.11719v0.23633h0.23633v0.23633h0.11719v0.11719h0.11914v0.11719h0.35352v0.11914h0.11719v0.35352h0.17773v0.11719h0.11719v0.23633h0.11914v0.11914h0.11719v0.29492h0.11914v0.23633h0.23438v0.11719h0.11914v0.11719h0.11719v0.23633h0.11914v0.11914h0.11719v0.23437h0.23633v0.11914h0.35352v-0.23633h-0.11719v-0.11719h-0.11914v-0.23633h-0.11719v-0.11914h-0.11914v-0.23438h0.23633v0.23438h0.11914v0.11914h0.23438v0.23633h0.29492v0.11719h0.11914v0.11719h0.11719v0.47266h0.11914v0.35352h0.23438v0.11914h0.47266v0.17578h0.23633v0.11914h0.58984v0.23438h1.3574v0.11914h0.11719v0.11719h0.11719v0.11914h0.11914v0.11719h0.35352v0.11719h0.23633v0.11914h0.11719v0.23633h0.17774v0.35352h0.23633v0.11719h0.82422v0.11914h0.47266v0.11719h0.11719v0.53125h-0.11719v0.23633h-0.11719v0.23438h-0.11914v0.35547h-0.11719v0.23633h-0.23633v0.11719h-0.11719v0.47266h-0.11914v0.29492h0.11914v0.35352h0.11719v0.11719h0.11719v0.11914h0.11914v0.23438h0.11719v0.23633h0.11914v0.58984h0.11719v0.11914h0.11719v0.11719h0.11914v0.11719h0.11719v0.17773h0.29492v0.11719h0.23633v0.11914h0.11914v0.11719h0.11719v0.11914h0.11719v1.9453h-0.11719v0.35547h-0.11719v0.82422h-0.11914v0.65039h-0.11719v0.35352h-0.11914v0.88477h0.11914v0.11719h-0.11914v0.23633h-0.17578v0.23633h0.17578v0.94336h-0.17578v0.11914h-0.11914v0.5293h-0.11719v1.416h0.11719v0.11914h0.11914v0.11719h0.17578v0.11719h0.23633v-0.11719h0.23633v0.11719h0.11719v0.29492h-0.23438v0.35547h0.23438v0.23438h0.47266v0.11914h0.23633v-0.11914h0.23633v0.11914h0.23438v-0.23633h0.11914v-0.35352h-0.11914v-0.11914h-0.11719v-0.11719h-0.35352v-0.17773h-0.11914v-0.11719h-0.11719v-0.47266h-0.11719v-0.23438h0.11719v-0.11914h0.11719v-0.23633h0.11914v-0.11719h0.11719v-0.11719h0.11914v-0.58984h-0.23633v-0.41406h0.23633v-0.11719h0.11719v-0.35547h0.11719v-0.23438h0.11914v-0.35547h-0.11914v-0.11719h0.41406v-0.23633h0.11719v-0.35352h0.35352v0.11719h0.23633v-0.11719h0.23633v-0.11719h0.11719v-0.76758h-0.11719v-0.11719h0.70703v-0.17774h0.11914v-0.23633h0.11719v-0.23633h0.11914v-0.23438h0.17578v-0.35547h0.11914v-0.11719h0.11719v-0.23633h0.11719v-0.23633h0.11914v-0.41211h0.11719v-0.11719h0.11914v-0.11914h0.23633v-0.23633h0.4707v-0.11719h0.23633v-0.11914h0.11719v-0.11719h0.11914v-0.11719h0.11719v-0.11914h0.11914v-0.23633h0.17578v-0.58984h0.11914v-0.5293h0.11719v-0.23633h0.11719v-0.23633h0.11914v-0.11719h0.17578v-0.23633h0.11914v-0.11914h0.11719v-1.002h-0.23633v-0.11719h-0.29492v-0.11914h-0.11719v-0.11719h-0.41211v-0.11914h-0.47266v-0.11719h-0.35352v-0.35352h-1.0625v-0.58984h-0.11719v-0.11914h-0.11914v-0.11719h-0.17578v-0.11914h-0.23633v-0.11719h-0.11914v-0.17774h-0.4707v-0.11719h-0.23633v-0.11719h-0.11719v-0.11914h-0.11914v-0.11719h-0.11719v-0.11914h-0.11914v-0.11719h-0.11719v-0.11719h-0.23633v-0.11914h-0.76562v0.11914h-0.11914v-0.11914h-0.11719v-0.11719h-0.23633v-0.23633h-0.58984v0.11719h-0.23633v0.11914h-0.41211v0.11719h-0.11914v0.23633h-0.11719v0.11719h-0.11914v-0.11719h-0.4707v0.11719h-0.23633v-0.11719h-0.23633v-0.11719h-0.11719v-0.23633h-0.11914v-0.11914h0.11914v-0.82422h-0.76758v-0.76758h0.17774v-0.35352h-0.64844v0.11719h-0.35547v0.23633h-0.11719v0.11719h-0.23633v0.11914h-0.35352v-0.11914h-0.35352v-0.11719h-0.11914v-0.35352h-0.11719v-0.23633h-0.17773v-0.35352h-0.11719v-0.47266h0.11719v-0.11719h0.17773v-0.17774h0.23633v-0.11719h1.0605v-0.11914h1.1211v0.11914h0.11914v0.41211h0.11719v0.23633h0.11719v0.11719h0.11914v0.11914h0.11719v0.11719h0.35352v-0.11719h0.11914v-0.35352h-0.11914v-0.23633h-0.11719v-0.29492h-0.11719v-0.47266h0.11719v-0.23633h0.23633v-0.11719h0.11719v-0.11914h0.11914v-0.23438h0.23438v-0.11914h0.11914v-0.11719h0.11719v-0.23633h-0.11719v-0.11719h0.23633v-0.29492h0.29492v-0.70898h0.82617v-0.11719h0.11719v-0.11914h-0.11719v-0.11719h-0.11914v-0.11719h0.11914v-0.11914h0.11719v-0.11719h0.23633v0.11719h0.4707v-0.11719h0.23633v-0.11914h0.29492v-0.23438h-0.11719v-0.11914h-0.17773v-0.11719h-0.23633v-0.17773h-0.11719v-0.35352h0.11719v-0.47266h-0.35352v0.11914h-0.11719v-0.11914h0.11719v-0.11719h0.88476v-0.11914h0.35352v0.11914h0.23633v-0.11914h0.11914v-0.11719h0.11719v-0.11719h0.11719v-0.11914h0.23633v-0.11719h0.11914v-0.47266h-0.11914v-0.29492h-0.11719v-0.11719h-0.11914v-0.11914h-0.4707v-0.11719h-0.11914v-0.41211h-0.11719v-0.11914h-0.11719v-0.23633h-0.11914v-0.35352h-0.11719v-0.23633h-0.17773v-0.23438h-0.11719v-0.23633h-0.23633v0.11719h-0.11719v0.35352h-0.23633v0.11914h-0.35352v-0.11914h-0.11914v-0.82422h-0.23633v-0.11914h-0.11719v-0.11719h-0.11719v-0.17773h-0.76758v-0.11719h-0.11914v-0.11914h0.35547v-0.4707h-0.23633v0.11719h-0.11914v0.11914h-0.23438v-0.11914h-0.11914v-0.11719h-0.11719v-0.23633h-0.23633v-0.11914h-0.11719v-0.11719h-0.23633v-0.23633h-0.11914v0.11914h-0.11719v0.11719h-0.23633v0.23633h-0.11719v0.35352h0.23633v0.23633h0.35352v-0.11719h0.11719v-0.11914h0.23633v0.11914h0.23633v0.64844h-0.11914v0.4707h0.11914v0.35547h-0.11914v0.70703h0.11914v0.47266h0.11719v0.17578h-0.11719v0.11914h-0.11914v0.11719h-0.11719v0.11719h-0.11719v0.88476h0.11719v0.23633h-0.11719v0.11914h-0.11914v-0.11914h-0.11719v-0.23633h-0.11914v-0.11719h-0.11719v-0.41211h-0.11719v-0.35547h-0.11914v-0.11719h-1.1211v-0.11719h-0.11719v-0.11914h-0.11719v-0.41211h-0.11914v-0.23633h-0.23633v-0.11719h-0.11719v-0.23633h-0.11719v0.11719h-0.11914v-0.11719h-0.11719v-0.11914h-0.11914v-0.23438h0.11914v-0.35547h0.11719v-0.11719h0.11914v-0.11719h0.11719v-0.11914h0.11719v-0.29492h0.23633v-0.11719h0.58984v-0.58984h0.11914v-0.23633h0.11719v-0.11914h0.11719v-0.35352h-0.23438v-0.11719h0.35352v0.11719h0.29492v-0.11719h0.4707v-0.23633h0.11914v-0.11719h0.11719v-0.65039h-0.23633v-0.11719h0.11914v-0.11719h0.11719v-0.35547h-0.23633v-0.35352h-0.64844v0.35352h0.17774v0.11914h-0.17774v0.11719h-0.11719v0.35352h-0.11914v-0.11719h-0.11719v-0.47266h-0.23633v0.11914h-0.11719v-0.11914h-0.35352v-0.58984h-0.11914v-0.4707h-0.11719v-0.53125h-0.58984v-1.0625h-0.11914v-0.11719zm3.5391 5.5449v0.23633h0.4707v-0.23633zm0.4707-4.3652v0.35352h-0.11719v0.41406h-0.11719v0.23438h0.11719v0.11914h0.11719v0.23633h0.11914v0.35352h0.23633v0.11719h0.23438v0.47266h0.23633v0.11719h0.11914v-0.11719h0.17578v-0.47266h0.23633v0.11914h0.35352v0.11719h0.11914v0.11719h0.11719v0.11914h0.11914v0.64844h-0.11914v0.35352h-0.11719v0.11914h-0.11914v-0.11914h-0.23438v0.23633h-0.11914v0.23633h0.11914v0.11719h0.58984v0.11914h0.23438v0.23633h0.11914v0.11719h0.23633v0.11719h0.11719v0.11914h0.35352v-0.23633h0.17773v0.11719h0.23633v-0.4707h-0.11914v-0.23633h-0.11719v-0.11914h0.11719v-0.11719h0.35352v-0.11719h0.23633v-0.23633h-0.11719v-0.35352h-0.35352v-0.29492h-0.11914v-0.11914h-0.29492v-0.11719h-0.23633v-0.11914h0.23633v-0.58984h-0.23633v-0.23438h-0.11719v-0.11914h-0.23633v-0.23633h-0.35352v-0.23438h-0.11719v-0.11914h-0.70898v-0.11719h-0.23633v-0.17773h0.11914v-0.11719h-0.11914v-0.23633zm19.885 1.9453-0.18164 2e-3v0.11719h-0.11719v0.23633h-0.17773v0.41211h-0.11719v0.23633h-0.11914v0.23633h-0.11719v0.35352h-0.23633v0.23633h-0.11719v0.23633h-0.11914v0.23633h-0.11719v0.11719h-0.11914v0.11719h-0.11719v0.11914h-0.11719v0.11719h-0.11914v0.17773h-0.11719v0.11719h-0.23633v0.11914h-0.11719v0.11719h-0.11914v0.11719h-0.29492v0.11914h0.17774v0.11719h-0.17774v0.35352h0.17774v0.47266h-0.17774v0.23633h0.17774v0.41211h0.11719v0.11914h0.58984v-0.11914h0.11914v-0.17578h0.11719v-0.23633h0.11719v-0.11914h0.11914v-0.11719h0.11719v0.47266h-0.11719v0.29492h0.11719v0.35352h0.11914v0.23633h0.11719v0.17578h0.47266v-0.17578h0.29492v-0.23633h0.11719v-0.35352h0.11719v-0.29492h0.11914v-0.23633h0.11719v-0.11914h0.11914v-0.4707h-0.23633v-0.70898h0.11719v-0.11719h0.11914v-0.11719h0.23438v-0.11914h0.11914v1.1797h0.11719v0.11914h0.23633v0.11719h0.11719v0.11719h-0.11719v0.53125h0.11719v0.23633h-0.11719v-0.11719h-0.11719v-0.11914h-0.11914v0.11914h-0.11719v0.11719h-0.11914v0.11719h-0.11719v0.35547h-0.11719v0.29492h-0.23633v0.11719h-0.11914v-0.11719h-0.23438v0.11719h-0.17773v0.11719h-0.47266v-0.11719h-0.58984v-0.53125h0.11914v-0.23633h-0.11914v-0.35356h-0.11719v0.11914h-0.23633v0.11719h-0.11719v0.11719h-0.11914v0.53125h0.11914v0.47266h-0.23633v0.11719h-0.53125v0.23633h-0.11719v0.23633h-0.11914v0.11719h-0.11719v0.11914h-0.11914v-0.47266h-0.11719v-0.11719h-0.11719v-0.11914h-0.11914v-0.23633h-0.11719v-0.11719h-0.11914v-1.002h-0.35352v-0.11914h-0.11719v-0.17578h0.11719v-0.23633h-0.4707v0.11719h-0.11914v0.41406h-0.17578v0.4707h0.17578v0.29492h-0.76562v0.35352h-0.11914v-0.11719h-0.23633v0.11719h-0.11719v0.23633h0.23633v0.70898h0.4707v-0.11914h0.35547v-0.11719h0.17578v0.11719h0.23633v0.11914h-0.23633v0.11719h-0.17578v0.11914h-0.11914v0.23438h0.53125v-0.11719h0.47266v0.11719h-0.35547v0.11914h-0.23437v0.41211h0.23437v0.11914h0.11914v0.11719h0.11719v0.11719h0.11914v0.70898h-1.1211v-0.11914h-0.23633v0.11914h-0.23633v1.7109h0.23633v0.23438h0.11719v0.11914h-0.11719v0.35352h-0.11719v0.11719h-0.11914v0.11914h-0.11719v0.23633h-0.11914v0.29492h-0.11719v0.11719h-0.11719v0.11914h-0.11914v0.11719h-0.23633v0.11719h-0.11719v0.11914h-0.11719v0.23633h-0.41406v0.58984h-0.23633v0.11719h-0.11719v0.23633h-0.11719v0.11719h0.11719v0.53125h0.11719v0.23633h-0.11719v0.11719h-0.11719v0.70898h0.11719v0.11719h0.11719v0.11719h0.11914v0.11914h0.11719v0.11719h0.29492v0.11914h0.11914v0.11719h0.11719v0.29492h0.11719v0.23633h0.23633v0.11719h0.11914v0.11914h0.11719v0.11719h0.11719v0.11719h0.70898v-0.11719h0.88476v0.11719h0.11719v-0.11719h0.47266v-0.11719h0.58984v0.11719h0.23633v0.11719h0.76562v0.11914h0.11914v0.35352h-0.11914v0.23633h-0.11719v0.47266h0.11719v0.11719h0.23633v0.41211h0.11914v0.11914h0.11719v0.4707h0.11719v0.11914h0.11914v0.23633h0.11719v0.35352h-0.11719v0.11719h-0.11914v0.11914h0.11914v0.23438h-0.23633v0.53125h-0.11719v0.35352h0.11719v0.23633h0.11719v0.23633h0.11914v0.35352h0.11719v0.35547h0.11914v0.41211h0.11719v0.23633h0.11719v0.4707h0.11914v0.11914h0.11719v0.11719h0.11914v0.23633h0.11719v0.58984h0.29492v0.17774h0.58984v-0.17774l0.45117 0.0039c1.2822-1.7287 4.1523-5.3101 4.1523-12.242s-3.0035-10.929-5.0117-13.246zm-19.176 2e-3h0.11719v0.23438h-0.11719zm10.146 0.35352h0.11719v0.11719h-0.11719zm-7.9648 0.88477h0.11914v0.23633h-0.11914zm8.4355 0.11719v0.11914h-0.11719v0.23438h-0.11914v0.23633h0.23633v0.11914h-0.11719v0.11719h-0.11914v0.23633h0.35547v0.11719h0.23633v0.11914h0.11719v0.11719h0.35352v0.17773h0.58984v-0.17778h0.76758v-0.11719h0.23633v-0.11914h0.23438v-0.11719h0.11914v-0.11719h0.11719v-0.35547h-0.11719v-0.11719h-0.11914v-0.11914h-0.11719v-0.11719h-0.11719v-0.11719h-0.47266v0.11719h-0.64844v-0.11719h-0.47266v0.11719h-0.11719v0.11719h-0.11914v-0.11719h-0.11719v-0.11719h-0.11719v-0.11914zm9.5566 0.82617h0.35352v0.23633h-0.11719v0.11719h-0.11914v0.11914h-0.11719v0.11719h-0.11719v0.17773h-0.11914v-0.53125h0.11914v-0.11719h0.11719zm0.70703 2.0645h0.29492v0.11914h-0.11719v0.11719h-0.53125v-0.11719h0.35352zm-6.3691 2.123h0.23437v0.23633h-0.35352v-0.11719h0.11914zm-13.037 0.94531h0.11719v0.11719h-0.11719zm-0.23633 0.11714h0.11914v0.11914h-0.11914zm-4.0117 0.11914h0.35547v0.11719h0.11719v0.11719h0.23633v0.11914h-0.35352v-0.11914h-0.11914v0.11914h-0.4707v-0.11914h0.11719v-0.11719h0.11719zm18.699 0h0.23633v0.23438h0.11914v0.11914h-0.82617v-0.11914h0.23633v-0.11719h0.23438zm-1.0605 0.4707h0.23633v0.41406h-0.11914v-0.11914h-0.11719zm-16.518 0.17773h0.47266v0.11719h0.11719v0.11914h-0.11719v-0.11914h-0.11914v0.35352h-0.11719v-0.35352h-0.23633zm0.70898 0.11719h0.11719v0.11914h-0.11719zm-1.2402 0.23633h0.11914v0.23633h-0.11914v0.35352h-0.23438v-0.11719h0.11719v-0.35547h0.11719zm1.5938 0h0.23633v0.11719h-0.11914v0.23633h-0.11719v0.11914h-0.11914v0.11719h-0.4707v-0.11719h0.11719v-0.11914h0.47266zm0.4707 0h0.11914v0.11719h-0.11914zm18.582 0.94336h0.23633v0.11914h0.17773v0.11719h0.11719v0.11719h0.23633v0.11914h0.11719v0.41211h0.11914v0.47266h0.11719v0.23633h0.11719v0.11719h0.11914v0.11719h0.35352v-0.23438h0.11719v-0.11914h0.11914v-0.4707h0.11719v-0.11914h0.11914v0.47266h0.11719v0.11719h0.11719v0.23633h0.17773v0.11719h0.23633v0.11914h0.47266v-0.11914h0.11719v0.11914h0.58984v0.11719h0.11719v0.23633h-0.11719v0.11719h-0.11719v0.23633h-0.11914v0.11914h-0.11719v0.11719h-1.3574v-0.11719h-0.58984v-0.11914h-0.82617v0.11914h-0.11719v0.29492h0.11719v0.11719h-0.35352v-0.11719h-0.29492v-0.17774h-0.11719v-0.23633h-0.11914v-0.11719h-0.35352v-0.11914h-0.35352v-0.11719h-0.11914v-0.70703h-0.11719v-0.11914h-1.1211v0.11914h-0.82617v0.11719h-0.23633v-0.47266h0.11914v-0.11719h0.11719v-0.41211h0.23633v-0.11914h0.35352v-0.11719h0.11914v-0.35352h0.11719v0.11719h0.53125v-0.11719h0.23633v0.35352h-0.11914v0.76563h0.35547v-0.11719h0.11719v-0.88477h0.11719v0.11719h0.23633v0.23633h0.11914v0.11914h0.23438v0.5293h-0.35352v0.23633h0.11914v0.11914h0.4707v0.11719h0.11914v-0.23633h0.29492v-0.11719h0.23438v-0.11914h0.11914v-0.5293h-0.11914v-0.23633h-0.23438v-0.11914h-0.17773v-0.11719h-0.23633zm-2.6543 0.88477v0.23633h0.35352v-0.23633zm-1.1797 0.70898h0.47266v0.23438h-0.23633v0.11914h-0.47266v-0.11914h-0.29492v-0.11719h0.53125zm-22.357 1.0605h0.11914v0.11914h-0.11914zm26.074 0.11914h0.11719v0.11719h-0.11719zm-18.699 0.41211v0.11914h0.4707v-0.11914zm0.58984 0v0.47266h0.17578v-0.11914h0.11914v-0.35352zm20.939 0.11914h0.11914v0.11719h0.11719v0.11719h0.11914v0.11914h0.11719v0.23633h-0.23633v-0.11914h-0.23633zm-21.176 0.4707v0.23633h0.11719v0.23633h0.29492v-0.47266zm0.11719 0.47266h-0.23633v-0.11914h-0.35352v-0.11719h-0.35352v-0.11719h-0.47266v0.11719h-0.23438v0.35352h0.35352v-0.11719h0.11719v0.11719h0.35352v0.11914h0.11914v0.11719h0.23633v0.11719h0.35352v0.53125h0.23633v-0.29492h-0.11914v-0.11719h0.29492v0.23633h0.35547v0.17578h0.4707v-0.17578h0.35352v-0.35547h-0.23438v-0.11719h-0.23633v-0.23633h-0.47266v0.11914h-0.23633v-0.11914h-0.29492zm0.41406-0.47266v0.23633h0.4707v-0.23633zm21.707 0h0.23633v0.11914h0.11719v0.11719h0.11914v0.23633h0.11719v0.11719h0.11914v0.23633h0.11719v0.23633h0.17773v0.23633h0.11719v0.17578h0.11719v0.11914h0.11914v0.35352h0.11719v0.11719h0.11914v0.35352h0.11719v0.23633h-0.11719v-0.11719h-0.23633v-0.11914h-0.11914v-0.11719h-0.11719v-0.23633h-0.29492v-0.4707h-0.11719v-0.29492h-0.11914v-0.23633h-0.11719v-0.23633h-0.11914v-0.23633h-0.11719v-0.23633h-0.11719v-0.23437h-0.11914zm-12.092 0.82617v0.23633h-0.11914v0.41211h0.23633v-0.17578h0.11719v-0.23633h0.11914v-0.23633zm-8.4355 0.23633v0.41211h0.4707v-0.17578h0.41406v-0.23633zm1.002 0.11719v0.11914h0.11914v-0.11914zm0.23633 0v0.11914h0.11719v-0.11914zm0 0.29492v0.11914h-0.11719v0.58984h0.11719v0.11719h0.23633v-0.82617zm1.8281 3.3633h0.11914v0.11719h-0.11914v0.11914h-0.17578v-0.11914h0.17578z" fill="url(#gradient2-62-7)"/>
<path d="m-212.95 19.342q0 31.009 21.863 53.095 22.086 22.086 53.318 22.086 31.009 0 53.318-22.086 21.863-22.086 21.863-53.095 0-31.233-21.863-53.318-22.309-22.086-53.318-22.086-31.233 0-53.318 22.086-21.863 22.086-21.863 53.318" fill="url(#radialGradient1624-0)"/>
</g>
</g>
</g>
</svg>
