<svg version="1.1" viewBox="0 0 256 256" xmlns="http://www.w3.org/2000/svg" xmlns:xlink="http://www.w3.org/1999/xlink"><defs><linearGradient id="linearGradient1306" x1="-5.4323" x2="-5.4323" y1="11.5" y2="45.5" gradientTransform="matrix(6.6751 0 0 6.6751 197.48 -63.595)" gradientUnits="userSpaceOnUse"><stop stop-color="#a1d2ff" offset="0"/><stop stop-color="#fff" offset="1"/></linearGradient><filter id="filter1105" x="-.12454" y="-.095337" width="1.2491" height="1.1907" color-interpolation-filters="sRGB"><feGaussianBlur stdDeviation="9.6118319"/></filter></defs><g transform="translate(-12.568)"><path d="m59.994 8.0174a2.5002 2.5002 0 0 0-2.3691 2.9863c3.0361 15.298 15.531 61.28 28.172 106.96 12.641 45.677 25.407 90.907 28.805 103.77a2.5002 2.5002 0 0 0 4.8223 0.0469c5.1819-18.174 12.495-32.467 27.031-44.145l55.16 71.383a2.5002 2.5002 0 0 0 3.6504 0.33008l33.375-30.039a2.5002 2.5002 0 0 0 0.27343-3.4277l-51.479-63.732c16.047-8.4745 38.229-12.754 52.793-12.301a2.5002 2.5002 0 0 0 1.5195-4.5391c-18.467-13.045-57.671-41.573-95.178-68.424-37.507-26.85-73.012-51.877-85.299-58.559a2.5002 2.5002 0 0 0-1.2773-0.30273z" color="#000000" color-rendering="auto" dominant-baseline="auto" filter="url(#filter1105)" image-rendering="auto" shape-rendering="auto" solid-color="#000000" stop-color="#000000" style="font-feature-settings:normal;font-variant-alternates:normal;font-variant-caps:normal;font-variant-east-asian:normal;font-variant-ligatures:normal;font-variant-numeric:normal;font-variant-position:normal;font-variation-settings:normal;inline-size:0;isolation:auto;mix-blend-mode:normal;shape-margin:0;shape-padding:0;text-decoration-color:#000000;text-decoration-line:none;text-decoration-style:solid;text-indent:0;text-orientation:mixed;text-transform:none;white-space:normal"/><path d="m51.078 2.5167c23.476 12.766 143.21 100.68 180.23 126.83-15.919-0.49583-39.98 4.2323-56.738 13.99l53.401 66.112-33.376 30.038-56.738-73.426c-16.364 12.323-24.344 27.774-29.835 47.032-6.8447-25.909-51.01-180.68-56.941-210.57z" fill="url(#linearGradient1306)" stroke="#7075ad" stroke-linecap="round" stroke-linejoin="round" stroke-miterlimit="5" stroke-width="5"/></g></svg>
