<svg version="1.1" viewBox="0 0 256 256" xmlns="http://www.w3.org/2000/svg" xmlns:xlink="http://www.w3.org/1999/xlink">
<defs>
<linearGradient id="linearGradient1485" x1="11.168" x2="115.57" y1="96.738" y2="96.738" gradientTransform="translate(-130,115)" gradientUnits="userSpaceOnUse">
<stop stop-color="#2d2d2d" offset="0"/>
<stop stop-color="#9d9d9d" offset=".5"/>
<stop stop-color="#838383" offset="1"/>
</linearGradient>
<linearGradient id="linearGradient1501" x1="-373.93" x2="-244.93" y1="74.75" y2="74.75" gradientTransform="translate(224.5,115)" gradientUnits="userSpaceOnUse">
<stop stop-color="#a7a7a7" offset="0"/>
<stop stop-color="#c0c0c0" offset="1"/>
</linearGradient>
<linearGradient id="linearGradient1511" x1="-342.55" x2="-349.73" y1=".14979" y2="102.66" gradientTransform="translate(156.39 114.99)" gradientUnits="userSpaceOnUse">
<stop stop-color="#cfcfcf" offset="0"/>
<stop stop-color="#fafafa" offset="1"/>
</linearGradient>
<linearGradient id="linearGradient1525" x1="-384.43" x2="-295.43" y1="-36.282" y2="-36.282" gradientTransform="translate(217 137.44)" gradientUnits="userSpaceOnUse">
<stop stop-color="#a1a1a1" offset="0"/>
<stop stop-color="#d6d6d6" offset="1"/>
</linearGradient>
<linearGradient id="linearGradient1537" x1="-162.43" x2="-162.43" y1="-113" y2="-21" gradientTransform="translate(0,115)" gradientUnits="userSpaceOnUse">
<stop stop-color="#fefeff" offset="0"/>
<stop stop-color="#b5daff" offset="1"/>
</linearGradient>
<linearGradient id="linearGradient1031" x1="-175.93" x2="-175.93" y1="-115" y2="-20" gradientTransform="translate(0,115)" gradientUnits="userSpaceOnUse">
<stop stop-color="#636394" offset="0"/>
<stop stop-color="#8188c5" offset="1"/>
</linearGradient>
<linearGradient id="linearGradient1011" x1="-173.82" x2="-34.833" y1="134.13" y2="107.6" gradientUnits="userSpaceOnUse">
<stop stop-color="#f1f1f1" offset="0"/>
<stop stop-color="#e0e0e0" offset="1"/>
</linearGradient>
<filter id="filter895" x="-.13155" y="-.11528" width="1.2631" height="1.2306" color-interpolation-filters="sRGB">
<feGaussianBlur stdDeviation="11.62389"/>
</filter>
</defs>
<g transform="translate(-12.568)">
<path d="m151.32 14a1.4728 1.4728 0 0 0-0.10611 0.0019l-87.374 5.3998a1.4728 1.4728 0 0 0-0.20257 2.9131c6.0771 1.2379 11.292 5.9507 15.721 12.852 4.4294 6.9017 8.0047 15.905 10.834 25.276 4.4847 14.852 7.0637 30.33 8.5734 40.276l-17.386 2.6353a1.4728 1.4728 0 0 0-1.2521 1.4566v16.697c-5.8561 0.20104-10.822 1.7336-14.884 4.1034-10.023 5.8477-14.569 16.181-14.569 22.886v61.848a1.4739 1.4739 0 0 0 0.75625 1.2887l76.576 42.705a1.4739 1.4739 0 0 0 1.2636 0.081l28.581-11.411 25.182 12.829a1.4739 1.4739 0 0 0 1.2578 0.0366l77.558-33.869a1.4739 1.4739 0 0 0 0.88358-1.3504v-8.8358a1.4739 1.4739 0 0 0-1.0572-1.4141l-12.754-3.7523 6.9934-2.7916a1.4739 1.4739 0 0 0 0.92796-1.3697v-54.977c0-7.8291-5.3766-19.01-15.32-28.261-8.7003-8.0946-21.005-14.602-36.393-15.43-1.7017-0.0915-3.4534-0.0912-5.2301-0.0386v-7.8114a1.4728 1.4728 0 0 0-1.0495-1.4103l-15.58-4.6743c-0.58403-6.8506-1.885-18.837-4.9484-31.446-4.2728-17.586-11.871-36.53-26.322-44.271a1.4728 1.4728 0 0 0-0.68101-0.17363z" color="#000000" color-rendering="auto" dominant-baseline="auto" filter="url(#filter895)" image-rendering="auto" opacity=".83" shape-rendering="auto" solid-color="#000000" stop-color="#000000" style="font-feature-settings:normal;font-variant-alternates:normal;font-variant-caps:normal;font-variant-east-asian:normal;font-variant-ligatures:normal;font-variant-numeric:normal;font-variant-position:normal;font-variation-settings:normal;inline-size:0;isolation:auto;mix-blend-mode:normal;shape-margin:0;shape-padding:0;text-decoration-color:#000000;text-decoration-line:none;text-decoration-style:solid;text-indent:0;text-orientation:mixed;text-transform:none;white-space:normal"/>
<g transform="matrix(.98174 0 0 .98174 261.43 -5.2098e-6)">
<g>
<path d="m-197.43 92.5v18.5l7.6016 0.81077 7.2212 1.7037 7.6396 3.0525 8.1808 4.2117v-20.717l-29.065-7.8384z" fill="#f3f3f3"/>
<path d="m-93.932 233.5v11.5l1-0.5 78.5-34v-9l-3-0.5z" fill="#fff"/>
<path d="m-93.432 245v-11.501l-28.583-15.925-0.41671 12.926z" fill="#9292bf"/>
<path d="m-38.064 195.12-17.023-5.0716 17.925-7.1651z" fill="#303030"/>
<path d="m-93.432 234.5 79-33-44-13-73 26.5z" fill="url(#linearGradient1485)"/>
<path d="m-214.59 115.86 61.5 59.5 133-33-0.5-8.5-1.5-6.5-4.5-8.5-7.5-9-6.5-6-6-3.5-7.5-3.5-10-3-7.5-1h-7l-119 18-5 0.5-7.5 2z" fill="url(#linearGradient1011)"/>
<path d="m-167.43 120.5v-21.065l83.52-17.63 5.48 1.6941v18z" fill="url(#linearGradient1525)"/>
<path d="m-197.43 92.5 30 8.5 89-17.5-20-6z" fill="#e8e8e8"/>
</g>
<path d="m-119.93 231.5v-17" fill="none" stroke="#535353" stroke-linecap="round" stroke-width="3"/>
<path d="m-149.43 243.5v-72.506l129-34.994v56l-11 4.5-8.0212-2.3768 0.02124-9.0908-81 29.468v17.5z" fill="url(#linearGradient1501)"/>
<path d="m-149.43 243.49v-72.5c0-18.891-21.353-48.302-47.5-60-9.5327-1.0598-30.5 7.5856-30.5 27v62z" fill="url(#linearGradient1511)"/>
<g fill="none">
<path d="m-167.43 120.5c12.583 7.9727 23 24 26 31l101-27c-3.2918-11.544-23.79-26.546-37.5-26" stroke="#838383" stroke-width="2"/>
<g stroke="#535353">
<path d="m-119.84 231.68-29.596 11.816-78-43.5v-63c0-12.22 17.586-40.988 60-16.5l89-19v-8.5c37-2 58 28.5 58 43v56l-11.003 4.3927" stroke-linecap="round" stroke-linejoin="round" stroke-width="3.0023"/>
<g>
<path d="m-20.432 150-129 41.5-77.5-35" stroke-width="4"/>
<path d="m-119.93 231.5 26.5 13.5 79-34.5v-9l-17-5" stroke-linejoin="round" stroke-width="3.0024"/>
<path d="m-197.43 111v-18.5l99-15 20 6v9.5" stroke-linejoin="round" stroke-width="3"/>
</g>
</g>
</g>
<g>
<ellipse transform="rotate(-.64603)" cx="-37.031" cy="169.61" rx="5.7614" ry="6.4574" fill="#686968" fill-rule="evenodd"/>
<ellipse transform="rotate(-.67207)" cx="-35.041" cy="169.62" rx="5.0275" ry="5.8704" fill="#41ff41" fill-rule="evenodd" stroke="#409840" stroke-linecap="round" stroke-linejoin="round"/>
<path d="m-177.43 95 82.5-12c-0.5-6-3.5-66.5-31.5-81.5l-89 5.5c27 5.5 35.5 71.5 38 88z" fill="url(#linearGradient1537)" stroke="url(#linearGradient1031)" stroke-linecap="round" stroke-linejoin="round" stroke-width="3"/>
</g>
</g>
</g>
</svg>
