<svg version="1.1" viewBox="0 0 256 256" xmlns="http://www.w3.org/2000/svg" xmlns:xlink="http://www.w3.org/1999/xlink">
<defs>
<radialGradient id="gradient2-62" cx="-1495.2" cy="5091.2" r="819.2" gradientTransform="matrix(.033215 .02554 -.022525 .029294 177.22 -98.257)" gradientUnits="userSpaceOnUse">
<stop stop-color="#00bf00" offset="0"/>
<stop stop-color="#060" offset=".92941"/>
</radialGradient>
<radialGradient id="gradient1-6" cx="0" cy="0" r="819.2" gradientTransform="matrix(.15259 0 0 .15259 -147.36 -19.476)" gradientUnits="userSpaceOnUse">
<stop stop-color="#fff" offset="0"/>
<stop stop-color="#cff" offset=".078431"/>
<stop stop-color="#09f" offset=".29804"/>
<stop stop-color="#06c" offset=".53725"/>
<stop stop-color="#039" offset=".75294"/>
<stop stop-color="#99f" offset="1"/>
</radialGradient>
<linearGradient id="gradient0-1" x1="-819.2" x2="819.2" gradientTransform="matrix(-.068712 -.068712 -.068712 .068712 -137.77 19.342)" gradientUnits="userSpaceOnUse">
<stop stop-color="#039" offset="0"/>
<stop stop-color="#09f" offset=".47059"/>
<stop stop-color="#cff" offset="1"/>
</linearGradient>
<radialGradient id="radialGradient1624" cx="-154.38" cy="-18.647" r="75.181" fx="-154.72" gradientTransform="matrix(.65631 0 0 .6543 -49.102 -7.0885)" gradientUnits="userSpaceOnUse">
<stop stop-color="#fff" offset="0"/>
<stop stop-color="#fff" stop-opacity="0" offset="1"/>
</radialGradient>
<filter id="filter1288" x="-.12242" y="-.12335" width="1.2448" height="1.2467" color-interpolation-filters="sRGB">
<feGaussianBlur stdDeviation="11.921067"/>
</filter>
</defs>
<g transform="translate(-12.568)" fill-rule="evenodd">
<path d="m146.78 14c-33.22 0-61.624 11.672-85.193 35.016-23.344 23.344-35.016 51.627-35.016 84.847 0 32.996 5.3146 53.505 28.659 77.073 23.569 23.344 51.972 35.016 85.193 35.016 32.996 0 61.279-11.672 84.847-35.016 23.344-23.569 35.016-51.851 35.016-84.847 0-33.22-11.672-61.503-35.016-84.847-23.569-23.344-45.494-27.242-78.49-27.242z" filter="url(#filter1288)" opacity=".83"/>
<g transform="matrix(1.5092 0 0 1.5092 340.5 90.452)">
<path d="m-217.41 19.342q0 32.794 23.201 56.219 23.424 23.201 56.442 23.201 32.794 0 56.219-23.201 23.201-23.424 23.201-56.219 0-33.017-23.201-56.219-23.424-23.201-56.219-23.201-33.017 0-56.442 23.201-23.201 23.201-23.201 56.219" fill="url(#gradient0-1)"/>
<path d="m-212.95 19.342q0 31.009 21.863 53.095 22.086 22.086 53.318 22.086 31.009 0 53.318-22.086 21.863-22.086 21.863-53.095 0-31.233-21.863-53.318-22.309-22.086-53.318-22.086-31.233 0-53.318 22.086-21.863 22.086-21.863 53.318" fill="url(#gradient1-6)"/>
<path transform="matrix(3.7819 0 0 3.7819 -225.48 -69.054)" d="m20.951 3.6719v0.11719h-0.11719v0.11719h-0.47266v0.11914h-0.47266v0.17578h-0.11719v0.47266h0.23633v0.11719h1.0605v0.11914h-0.58984v0.23633h-0.11719v-0.11914h-0.47266v0.23633h0.11914v0.35352h-0.11914v0.23633h-0.23438v0.11719h-0.11914v0.11914h-0.11719v0.11719h-0.11914v0.29492h-0.17578v0.11914h-0.11914v0.23438h0.11914v0.11914h0.29492v0.11719h0.4707v0.11914h0.47266v-0.11914h0.23633v-0.35352h0.11719v-0.11719h0.23633v-0.11914h0.11719v-0.11719h0.11914v-0.17773h0.11719v-0.23633h0.17773v-0.11719h0.4707v-0.11719h0.11914v0.23438h-0.11914v0.23633h0.35547v0.29492h0.11719v0.11914h-0.11719v0.11719h-0.47266v0.11719h-0.11719v0.11914h-0.65039v0.11719h-0.11719v0.11914h-0.11719v0.11719h0.11719v0.11914h0.23633v0.11719h0.29492v0.11719h0.11719v0.11914h-0.53125v0.35352h0.11914v0.23633h0.76562v0.29492h0.23633v-0.17773h0.35352v-0.11719h0.94531v0.11719h0.17578v0.17773h0.11914v0.35352h0.11719v0.11719h0.11719v0.94531h-0.11719v0.11719h-0.11719v0.11719h0.4707v0.11914h-0.11719v0.11719h0.11719v0.11914h0.35547v0.17578h0.11719v0.11914h-0.11719v0.11719h-0.23633v0.23633h-0.11914v0.11719h-0.11719v0.11914h0.11719v0.4707h0.11914v0.23633h0.11719v0.23633h0.11914v0.23633h0.11719v0.11719h0.11719v0.29492h0.11914v0.11914h0.11719v0.11719h0.58984v0.11719h0.53125v-0.35352h0.11719v-0.41211h0.29492v-0.35352h0.11914v-0.23633h0.35352v-0.11914h0.35352v-0.11719h0.11914v-0.11914h0.11719v-0.11719h0.11719v-0.23633h0.47266v-0.11719h0.11719v-0.11914h0.11914v0.11914h0.23633v-0.11914h0.41211v-0.11719h0.11719v-0.11719h0.35547v-0.11914h0.11719v-0.29492h0.11914v-0.4707h-0.11914v-0.11914h-0.11719v-0.4707h0.35352v-0.11914h0.11719v-0.11719h0.11914v-0.11914h0.11719v-0.11719h0.11914v-0.35352h-0.11914v-0.17773h-0.11719v-0.11719h0.58984v-0.23633h-0.11914v-0.11719h-0.11719v-0.23633h-0.11719v-0.23633h-0.35547v-0.11719h-0.35352v0.4707h-0.11719v0.23633h-0.11914v-0.47266h-0.11719v-0.11719h0.11719v-0.35352h0.23633v0.11719h0.23633v-0.35352h0.47266v-0.23633h-0.11914v-0.11719h-0.4707v0.23438h-0.23633v0.11914h-0.11914v-0.35352h0.11914v-0.11914h0.94336v-0.11719h0.11719v-0.17773h-0.58984v-0.11719h0.11914v-0.23633h0.11719v-0.11719h0.23633v-0.11914h0.11719v-0.35352h0.11914v-0.23633h-0.23633v-0.11719h-0.58984v0.35352h-0.11719v0.11719h-0.11914v0.11914h-0.23633v-0.11914h0.11914v-0.11719h0.11719v-0.11719h0.11914v-0.35547h-0.70898v-0.11719h0.11719v-0.23633h-0.11719v-0.11719h-0.53125v-0.11914h-0.4707v-0.17578h-0.47266v-0.11914h-1.3574v0.11914h-0.23438v0.17578h-0.41406v0.11914h-0.11719v0.11719h-0.35352v0.11914h-0.11914v0.11719h-0.58984v0.11719h-0.58984v0.11914h-0.64844v0.11719h-0.35352v-0.11719h0.23437v-0.11914h0.23633v-0.11719h-0.11719v-0.11719h-0.11914v-0.53125h-0.11719v-0.11914h-0.11719v-0.11719h-0.11914v-0.11719h-0.82617v0.11719h-0.35352v-0.11719zm-2.7734 0.5293v0.23633h-0.11719v0.35352h-0.11719v-0.11719h-0.23633v-0.23633h-0.47266v0.11914h-0.41211v0.11719h0.29492v0.11719h0.11719v0.11914h0.23633v0.11719h0.35352v-0.11719h0.11914v0.23633h0.11719v0.11719h-0.11719v0.11719h0.23438v0.23633h-0.11719v0.11914h0.11719v0.35352h0.82617v-0.23633h0.11914v-0.11719h0.17578v-0.23633h0.11914v-0.35352h-0.29492v-0.47266h-0.11914v-0.11719h-0.11719v-0.11914h-0.35352v-0.23633zm-1.709 0.47266v0.11719h0.11719v-0.11719zm-0.82617 0.35352v0.11914h-0.35352v0.11719h-0.23633v0.23633h0.4707v0.4707h0.35547v0.11914h0.11719v-0.11914h0.11719v0.11914h0.11914v1.002h-0.23633v0.23633h-0.11719v0.11914h-0.11914v0.23438h0.11914v0.82617h0.35352v-0.35352h0.11719v-0.11719h0.23633v-0.11914h0.11719v-0.11719h0.11914v-0.35352h0.11719v-0.11914h0.88477v-0.11719h0.23633v0.11719h0.35352v0.47266h1.2402v-0.35352h-0.11914v-0.23633h-0.76758v-0.82617h-0.23438v-0.17773h-0.47266v-0.11719h-0.47266v0.11719h-0.4707v-0.11719h-0.17774v-0.11914h-0.23633v-0.23438h-0.11719v-0.23633h-0.47266v-0.11914h-0.11719v-0.11719h-0.23633v-0.23633zm-1.1211 0.47266v0.11719h-0.23633v0.11914h-0.23633v0.11719h-0.23633v0.11719h0.11914v0.11914h0.23633v0.11719h0.11719v0.29492h0.11914v0.11914h0.41211v0.11719h0.70703v-0.11719h0.23633v-0.53125h-0.82617v0.29492h-0.11719v-0.64844h0.11719v-0.23633zm-1.5332 0.88477v0.11719h-0.23633v0.11914h-0.11914v0.11719h-0.29492v0.11719h-0.11719v0.11914h-0.23633v0.11719h0.23633v0.23633h0.64844v-0.11719h0.47266v-0.11914h0.23633v-0.23633h0.11719v-0.23438h-0.11719v-0.11914h-0.35547v-0.11719zm1.1797 0.58984v0.11719h-0.11914v0.47266h-0.35352v0.35352h0.11719v0.11914h0.11914v0.11719h0.11719v0.23633h0.23633v0.11719h0.64844v-0.11719h0.11914v0.29492h-0.11914v0.11719h-0.11719v0.23633h-0.29492v0.23633h-0.23633v-0.35352h-0.35352v-0.11914h-0.35352v-0.29492h-0.11914v-0.70703h-0.11719v-0.11914h-0.35352v0.11914h-0.11914v-0.11914h-0.53125v-0.11719h-0.35352v0.23633h-0.11719v-0.35352h-0.23633v-0.11914h-0.11719v0.11914h-0.11914v0.23438h-0.11719v-0.11719h-0.11914v0.11719h-0.11719v0.11914h-0.11719v0.11719h-0.11914v0.11914h-0.23633v0.11719h-0.11719v0.11719h0.23633v-0.11719h0.11719v0.23633h0.11914v0.41211h0.23438v0.11914h0.47266v-0.11914h0.23633v0.11914h0.23633v0.11719h-0.94531v0.35352h0.11914v0.11914h0.35352v0.11719h0.11719v0.11719h0.58984v-0.11719h0.65039v-0.11719h0.35352v0.11719h0.58984v-0.11719h0.11719v-0.23633h0.11914v0.35352h0.23633v0.11719h0.23438v-0.11719h0.29492v0.11719h0.11914v0.23633h0.11719v0.11914h0.11914v0.23438h-0.11914v0.11914h-0.35352v-0.11914h0.11719v-0.23438h-0.76562v0.35352h-0.47266v0.11719h-0.11719v-0.11719h-0.11914v-0.11914h-0.11719v-0.11719h-0.35352v-0.23633h-0.11914v-0.11719h-0.11719v0.11719h-0.53125v0.11914h-0.11719v0.35352h0.11719v0.11719h-0.11719v0.11914h-0.11914v-0.23633h-0.11719v-0.11914h-0.23633v0.11914h-0.58984v-0.11914h0.11719v-0.35352h-0.11719v-0.11719h-0.11719v-0.11914h-0.23633v0.23633h-0.11914v-0.11719h-0.11719v-0.11914h-0.17773v-0.11719h-0.23438v-0.11719h-0.23633v-0.11914l-0.82422-0.0019531c-0.1868 0.17398-0.86564 0.86862-1.8262 2.125-0.65818 0.86091-1.2548 1.8047-1.5156 2.3555l0.1543 0.0059v0.23438h0.11719v0.11914h0.11914v0.11719h0.53125v0.11914h0.35352v0.11719h0.11719v0.11719h0.11914v0.23629h0.23438v0.41406h0.11914v0.11719h0.23633v0.11719h-0.11914v0.35547h0.11914v0.41211h0.11719v0.11719h0.11719v0.11914h0.11914v0.23633h0.17578v0.11719h0.23633v0.11719h0.11914v0.11914h0.23633v0.11719h0.11719v0.11914h0.11719v0.88476h-0.11719v0.58984h-0.11719v1.1797h0.11719v0.23633h0.11719v0.29492h0.11914v0.11719h0.11719v0.23633h0.23633v0.23633h0.11719v0.11719h0.11914v0.11719h0.35352v0.11914h0.11719v0.35352h0.17773v0.11719h0.11719v0.23633h0.11914v0.11914h0.11719v0.29492h0.11914v0.23633h0.23438v0.11719h0.11914v0.11719h0.11719v0.23633h0.11914v0.11914h0.11719v0.23437h0.23633v0.11914h0.35352v-0.23633h-0.11719v-0.11719h-0.11914v-0.23633h-0.11719v-0.11914h-0.11914v-0.23438h0.23633v0.23438h0.11914v0.11914h0.23438v0.23633h0.29492v0.11719h0.11914v0.11719h0.11719v0.47266h0.11914v0.35352h0.23438v0.11914h0.47266v0.17578h0.23633v0.11914h0.58984v0.23438h1.3574v0.11914h0.11719v0.11719h0.11719v0.11914h0.11914v0.11719h0.35352v0.11719h0.23633v0.11914h0.11719v0.23633h0.17774v0.35352h0.23633v0.11719h0.82422v0.11914h0.47266v0.11719h0.11719v0.53125h-0.11719v0.23633h-0.11719v0.23438h-0.11914v0.35547h-0.11719v0.23633h-0.23633v0.11719h-0.11719v0.47266h-0.11914v0.29492h0.11914v0.35352h0.11719v0.11719h0.11719v0.11914h0.11914v0.23438h0.11719v0.23633h0.11914v0.58984h0.11719v0.11914h0.11719v0.11719h0.11914v0.11719h0.11719v0.17773h0.29492v0.11719h0.23633v0.11914h0.11914v0.11719h0.11719v0.11914h0.11719v1.9453h-0.11719v0.35547h-0.11719v0.82422h-0.11914v0.65039h-0.11719v0.35352h-0.11914v0.88477h0.11914v0.11719h-0.11914v0.23633h-0.17578v0.23633h0.17578v0.94336h-0.17578v0.11914h-0.11914v0.5293h-0.11719v1.416h0.11719v0.11914h0.11914v0.11719h0.17578v0.11719h0.23633v-0.11719h0.23633v0.11719h0.11719v0.29492h-0.23438v0.35547h0.23438v0.23438h0.47266v0.11914h0.23633v-0.11914h0.23633v0.11914h0.23438v-0.23633h0.11914v-0.35352h-0.11914v-0.11914h-0.11719v-0.11719h-0.35352v-0.17773h-0.11914v-0.11719h-0.11719v-0.47266h-0.11719v-0.23438h0.11719v-0.11914h0.11719v-0.23633h0.11914v-0.11719h0.11719v-0.11719h0.11914v-0.58984h-0.23633v-0.41406h0.23633v-0.11719h0.11719v-0.35547h0.11719v-0.23438h0.11914v-0.35547h-0.11914v-0.11719h0.41406v-0.23633h0.11719v-0.35352h0.35352v0.11719h0.23633v-0.11719h0.23633v-0.11719h0.11719v-0.76758h-0.11719v-0.11719h0.70703v-0.17774h0.11914v-0.23633h0.11719v-0.23633h0.11914v-0.23438h0.17578v-0.35547h0.11914v-0.11719h0.11719v-0.23633h0.11719v-0.23633h0.11914v-0.41211h0.11719v-0.11719h0.11914v-0.11914h0.23633v-0.23633h0.4707v-0.11719h0.23633v-0.11914h0.11719v-0.11719h0.11914v-0.11719h0.11719v-0.11914h0.11914v-0.23633h0.17578v-0.58984h0.11914v-0.5293h0.11719v-0.23633h0.11719v-0.23633h0.11914v-0.11719h0.17578v-0.23633h0.11914v-0.11914h0.11719v-1.002h-0.23633v-0.11719h-0.29492v-0.11914h-0.11719v-0.11719h-0.41211v-0.11914h-0.47266v-0.11719h-0.35352v-0.35352h-1.0625v-0.58984h-0.11719v-0.11914h-0.11914v-0.11719h-0.17578v-0.11914h-0.23633v-0.11719h-0.11914v-0.17774h-0.4707v-0.11719h-0.23633v-0.11719h-0.11719v-0.11914h-0.11914v-0.11719h-0.11719v-0.11914h-0.11914v-0.11719h-0.11719v-0.11719h-0.23633v-0.11914h-0.76562v0.11914h-0.11914v-0.11914h-0.11719v-0.11719h-0.23633v-0.23633h-0.58984v0.11719h-0.23633v0.11914h-0.41211v0.11719h-0.11914v0.23633h-0.11719v0.11719h-0.11914v-0.11719h-0.4707v0.11719h-0.23633v-0.11719h-0.23633v-0.11719h-0.11719v-0.23633h-0.11914v-0.11914h0.11914v-0.82422h-0.76758v-0.76758h0.17774v-0.35352h-0.64844v0.11719h-0.35547v0.23633h-0.11719v0.11719h-0.23633v0.11914h-0.35352v-0.11914h-0.35352v-0.11719h-0.11914v-0.35352h-0.11719v-0.23633h-0.17773v-0.35352h-0.11719v-0.47266h0.11719v-0.11719h0.17773v-0.17774h0.23633v-0.11719h1.0605v-0.11914h1.1211v0.11914h0.11914v0.41211h0.11719v0.23633h0.11719v0.11719h0.11914v0.11914h0.11719v0.11719h0.35352v-0.11719h0.11914v-0.35352h-0.11914v-0.23633h-0.11719v-0.29492h-0.11719v-0.47266h0.11719v-0.23633h0.23633v-0.11719h0.11719v-0.11914h0.11914v-0.23438h0.23438v-0.11914h0.11914v-0.11719h0.11719v-0.23633h-0.11719v-0.11719h0.23633v-0.29492h0.29492v-0.70898h0.82617v-0.11719h0.11719v-0.11914h-0.11719v-0.11719h-0.11914v-0.11719h0.11914v-0.11914h0.11719v-0.11719h0.23633v0.11719h0.4707v-0.11719h0.23633v-0.11914h0.29492v-0.23438h-0.11719v-0.11914h-0.17773v-0.11719h-0.23633v-0.17773h-0.11719v-0.35352h0.11719v-0.47266h-0.35352v0.11914h-0.11719v-0.11914h0.11719v-0.11719h0.88476v-0.11914h0.35352v0.11914h0.23633v-0.11914h0.11914v-0.11719h0.11719v-0.11719h0.11719v-0.11914h0.23633v-0.11719h0.11914v-0.47266h-0.11914v-0.29492h-0.11719v-0.11719h-0.11914v-0.11914h-0.4707v-0.11719h-0.11914v-0.41211h-0.11719v-0.11914h-0.11719v-0.23633h-0.11914v-0.35352h-0.11719v-0.23633h-0.17773v-0.23438h-0.11719v-0.23633h-0.23633v0.11719h-0.11719v0.35352h-0.23633v0.11914h-0.35352v-0.11914h-0.11914v-0.82422h-0.23633v-0.11914h-0.11719v-0.11719h-0.11719v-0.17773h-0.76758v-0.11719h-0.11914v-0.11914h0.35547v-0.4707h-0.23633v0.11719h-0.11914v0.11914h-0.23438v-0.11914h-0.11914v-0.11719h-0.11719v-0.23633h-0.23633v-0.11914h-0.11719v-0.11719h-0.23633v-0.23633h-0.11914v0.11914h-0.11719v0.11719h-0.23633v0.23633h-0.11719v0.35352h0.23633v0.23633h0.35352v-0.11719h0.11719v-0.11914h0.23633v0.11914h0.23633v0.64844h-0.11914v0.4707h0.11914v0.35547h-0.11914v0.70703h0.11914v0.47266h0.11719v0.17578h-0.11719v0.11914h-0.11914v0.11719h-0.11719v0.11719h-0.11719v0.88476h0.11719v0.23633h-0.11719v0.11914h-0.11914v-0.11914h-0.11719v-0.23633h-0.11914v-0.11719h-0.11719v-0.41211h-0.11719v-0.35547h-0.11914v-0.11719h-1.1211v-0.11719h-0.11719v-0.11914h-0.11719v-0.41211h-0.11914v-0.23633h-0.23633v-0.11719h-0.11719v-0.23633h-0.11719v0.11719h-0.11914v-0.11719h-0.11719v-0.11914h-0.11914v-0.23438h0.11914v-0.35547h0.11719v-0.11719h0.11914v-0.11719h0.11719v-0.11914h0.11719v-0.29492h0.23633v-0.11719h0.58984v-0.58984h0.11914v-0.23633h0.11719v-0.11914h0.11719v-0.35352h-0.23438v-0.11719h0.35352v0.11719h0.29492v-0.11719h0.4707v-0.23633h0.11914v-0.11719h0.11719v-0.65039h-0.23633v-0.11719h0.11914v-0.11719h0.11719v-0.35547h-0.23633v-0.35352h-0.64844v0.35352h0.17774v0.11914h-0.17774v0.11719h-0.11719v0.35352h-0.11914v-0.11719h-0.11719v-0.47266h-0.23633v0.11914h-0.11719v-0.11914h-0.35352v-0.58984h-0.11914v-0.4707h-0.11719v-0.53125h-0.58984v-1.0625h-0.11914v-0.11719zm3.5391 5.5449v0.23633h0.4707v-0.23633zm0.4707-4.3652v0.35352h-0.11719v0.41406h-0.11719v0.23438h0.11719v0.11914h0.11719v0.23633h0.11914v0.35352h0.23633v0.11719h0.23438v0.47266h0.23633v0.11719h0.11914v-0.11719h0.17578v-0.47266h0.23633v0.11914h0.35352v0.11719h0.11914v0.11719h0.11719v0.11914h0.11914v0.64844h-0.11914v0.35352h-0.11719v0.11914h-0.11914v-0.11914h-0.23438v0.23633h-0.11914v0.23633h0.11914v0.11719h0.58984v0.11914h0.23438v0.23633h0.11914v0.11719h0.23633v0.11719h0.11719v0.11914h0.35352v-0.23633h0.17773v0.11719h0.23633v-0.4707h-0.11914v-0.23633h-0.11719v-0.11914h0.11719v-0.11719h0.35352v-0.11719h0.23633v-0.23633h-0.11719v-0.35352h-0.35352v-0.29492h-0.11914v-0.11914h-0.29492v-0.11719h-0.23633v-0.11914h0.23633v-0.58984h-0.23633v-0.23438h-0.11719v-0.11914h-0.23633v-0.23633h-0.35352v-0.23438h-0.11719v-0.11914h-0.70898v-0.11719h-0.23633v-0.17773h0.11914v-0.11719h-0.11914v-0.23633zm19.885 1.9453-0.18164 2e-3v0.11719h-0.11719v0.23633h-0.17773v0.41211h-0.11719v0.23633h-0.11914v0.23633h-0.11719v0.35352h-0.23633v0.23633h-0.11719v0.23633h-0.11914v0.23633h-0.11719v0.11719h-0.11914v0.11719h-0.11719v0.11914h-0.11719v0.11719h-0.11914v0.17773h-0.11719v0.11719h-0.23633v0.11914h-0.11719v0.11719h-0.11914v0.11719h-0.29492v0.11914h0.17774v0.11719h-0.17774v0.35352h0.17774v0.47266h-0.17774v0.23633h0.17774v0.41211h0.11719v0.11914h0.58984v-0.11914h0.11914v-0.17578h0.11719v-0.23633h0.11719v-0.11914h0.11914v-0.11719h0.11719v0.47266h-0.11719v0.29492h0.11719v0.35352h0.11914v0.23633h0.11719v0.17578h0.47266v-0.17578h0.29492v-0.23633h0.11719v-0.35352h0.11719v-0.29492h0.11914v-0.23633h0.11719v-0.11914h0.11914v-0.4707h-0.23633v-0.70898h0.11719v-0.11719h0.11914v-0.11719h0.23438v-0.11914h0.11914v1.1797h0.11719v0.11914h0.23633v0.11719h0.11719v0.11719h-0.11719v0.53125h0.11719v0.23633h-0.11719v-0.11719h-0.11719v-0.11914h-0.11914v0.11914h-0.11719v0.11719h-0.11914v0.11719h-0.11719v0.35547h-0.11719v0.29492h-0.23633v0.11719h-0.11914v-0.11719h-0.23438v0.11719h-0.17773v0.11719h-0.47266v-0.11719h-0.58984v-0.53125h0.11914v-0.23633h-0.11914v-0.35356h-0.11719v0.11914h-0.23633v0.11719h-0.11719v0.11719h-0.11914v0.53125h0.11914v0.47266h-0.23633v0.11719h-0.53125v0.23633h-0.11719v0.23633h-0.11914v0.11719h-0.11719v0.11914h-0.11914v-0.47266h-0.11719v-0.11719h-0.11719v-0.11914h-0.11914v-0.23633h-0.11719v-0.11719h-0.11914v-1.002h-0.35352v-0.11914h-0.11719v-0.17578h0.11719v-0.23633h-0.4707v0.11719h-0.11914v0.41406h-0.17578v0.4707h0.17578v0.29492h-0.76562v0.35352h-0.11914v-0.11719h-0.23633v0.11719h-0.11719v0.23633h0.23633v0.70898h0.4707v-0.11914h0.35547v-0.11719h0.17578v0.11719h0.23633v0.11914h-0.23633v0.11719h-0.17578v0.11914h-0.11914v0.23438h0.53125v-0.11719h0.47266v0.11719h-0.35547v0.11914h-0.23437v0.41211h0.23437v0.11914h0.11914v0.11719h0.11719v0.11719h0.11914v0.70898h-1.1211v-0.11914h-0.23633v0.11914h-0.23633v1.7109h0.23633v0.23438h0.11719v0.11914h-0.11719v0.35352h-0.11719v0.11719h-0.11914v0.11914h-0.11719v0.23633h-0.11914v0.29492h-0.11719v0.11719h-0.11719v0.11914h-0.11914v0.11719h-0.23633v0.11719h-0.11719v0.11914h-0.11719v0.23633h-0.41406v0.58984h-0.23633v0.11719h-0.11719v0.23633h-0.11719v0.11719h0.11719v0.53125h0.11719v0.23633h-0.11719v0.11719h-0.11719v0.70898h0.11719v0.11719h0.11719v0.11719h0.11914v0.11914h0.11719v0.11719h0.29492v0.11914h0.11914v0.11719h0.11719v0.29492h0.11719v0.23633h0.23633v0.11719h0.11914v0.11914h0.11719v0.11719h0.11719v0.11719h0.70898v-0.11719h0.88476v0.11719h0.11719v-0.11719h0.47266v-0.11719h0.58984v0.11719h0.23633v0.11719h0.76562v0.11914h0.11914v0.35352h-0.11914v0.23633h-0.11719v0.47266h0.11719v0.11719h0.23633v0.41211h0.11914v0.11914h0.11719v0.4707h0.11719v0.11914h0.11914v0.23633h0.11719v0.35352h-0.11719v0.11719h-0.11914v0.11914h0.11914v0.23438h-0.23633v0.53125h-0.11719v0.35352h0.11719v0.23633h0.11719v0.23633h0.11914v0.35352h0.11719v0.35547h0.11914v0.41211h0.11719v0.23633h0.11719v0.4707h0.11914v0.11914h0.11719v0.11719h0.11914v0.23633h0.11719v0.58984h0.29492v0.17774h0.58984v-0.17774l0.45117 0.0039c1.2822-1.7287 4.1523-5.3101 4.1523-12.242s-3.0035-10.929-5.0117-13.246zm-19.176 2e-3h0.11719v0.23438h-0.11719zm10.146 0.35352h0.11719v0.11719h-0.11719zm-7.9648 0.88477h0.11914v0.23633h-0.11914zm8.4355 0.11719v0.11914h-0.11719v0.23438h-0.11914v0.23633h0.23633v0.11914h-0.11719v0.11719h-0.11914v0.23633h0.35547v0.11719h0.23633v0.11914h0.11719v0.11719h0.35352v0.17773h0.58984v-0.17778h0.76758v-0.11719h0.23633v-0.11914h0.23438v-0.11719h0.11914v-0.11719h0.11719v-0.35547h-0.11719v-0.11719h-0.11914v-0.11914h-0.11719v-0.11719h-0.11719v-0.11719h-0.47266v0.11719h-0.64844v-0.11719h-0.47266v0.11719h-0.11719v0.11719h-0.11914v-0.11719h-0.11719v-0.11719h-0.11719v-0.11914zm9.5566 0.82617h0.35352v0.23633h-0.11719v0.11719h-0.11914v0.11914h-0.11719v0.11719h-0.11719v0.17773h-0.11914v-0.53125h0.11914v-0.11719h0.11719zm0.70703 2.0645h0.29492v0.11914h-0.11719v0.11719h-0.53125v-0.11719h0.35352zm-6.3691 2.123h0.23437v0.23633h-0.35352v-0.11719h0.11914zm-13.037 0.94531h0.11719v0.11719h-0.11719zm-0.23633 0.11714h0.11914v0.11914h-0.11914zm-4.0117 0.11914h0.35547v0.11719h0.11719v0.11719h0.23633v0.11914h-0.35352v-0.11914h-0.11914v0.11914h-0.4707v-0.11914h0.11719v-0.11719h0.11719zm18.699 0h0.23633v0.23438h0.11914v0.11914h-0.82617v-0.11914h0.23633v-0.11719h0.23438zm-1.0605 0.4707h0.23633v0.41406h-0.11914v-0.11914h-0.11719zm-16.518 0.17773h0.47266v0.11719h0.11719v0.11914h-0.11719v-0.11914h-0.11914v0.35352h-0.11719v-0.35352h-0.23633zm0.70898 0.11719h0.11719v0.11914h-0.11719zm-1.2402 0.23633h0.11914v0.23633h-0.11914v0.35352h-0.23438v-0.11719h0.11719v-0.35547h0.11719zm1.5938 0h0.23633v0.11719h-0.11914v0.23633h-0.11719v0.11914h-0.11914v0.11719h-0.4707v-0.11719h0.11719v-0.11914h0.47266zm0.4707 0h0.11914v0.11719h-0.11914zm18.582 0.94336h0.23633v0.11914h0.17773v0.11719h0.11719v0.11719h0.23633v0.11914h0.11719v0.41211h0.11914v0.47266h0.11719v0.23633h0.11719v0.11719h0.11914v0.11719h0.35352v-0.23438h0.11719v-0.11914h0.11914v-0.4707h0.11719v-0.11914h0.11914v0.47266h0.11719v0.11719h0.11719v0.23633h0.17773v0.11719h0.23633v0.11914h0.47266v-0.11914h0.11719v0.11914h0.58984v0.11719h0.11719v0.23633h-0.11719v0.11719h-0.11719v0.23633h-0.11914v0.11914h-0.11719v0.11719h-1.3574v-0.11719h-0.58984v-0.11914h-0.82617v0.11914h-0.11719v0.29492h0.11719v0.11719h-0.35352v-0.11719h-0.29492v-0.17774h-0.11719v-0.23633h-0.11914v-0.11719h-0.35352v-0.11914h-0.35352v-0.11719h-0.11914v-0.70703h-0.11719v-0.11914h-1.1211v0.11914h-0.82617v0.11719h-0.23633v-0.47266h0.11914v-0.11719h0.11719v-0.41211h0.23633v-0.11914h0.35352v-0.11719h0.11914v-0.35352h0.11719v0.11719h0.53125v-0.11719h0.23633v0.35352h-0.11914v0.76563h0.35547v-0.11719h0.11719v-0.88477h0.11719v0.11719h0.23633v0.23633h0.11914v0.11914h0.23438v0.5293h-0.35352v0.23633h0.11914v0.11914h0.4707v0.11719h0.11914v-0.23633h0.29492v-0.11719h0.23438v-0.11914h0.11914v-0.5293h-0.11914v-0.23633h-0.23438v-0.11914h-0.17773v-0.11719h-0.23633zm-2.6543 0.88477v0.23633h0.35352v-0.23633zm-1.1797 0.70898h0.47266v0.23438h-0.23633v0.11914h-0.47266v-0.11914h-0.29492v-0.11719h0.53125zm-22.357 1.0605h0.11914v0.11914h-0.11914zm26.074 0.11914h0.11719v0.11719h-0.11719zm-18.699 0.41211v0.11914h0.4707v-0.11914zm0.58984 0v0.47266h0.17578v-0.11914h0.11914v-0.35352zm20.939 0.11914h0.11914v0.11719h0.11719v0.11719h0.11914v0.11914h0.11719v0.23633h-0.23633v-0.11914h-0.23633zm-21.176 0.4707v0.23633h0.11719v0.23633h0.29492v-0.47266zm0.11719 0.47266h-0.23633v-0.11914h-0.35352v-0.11719h-0.35352v-0.11719h-0.47266v0.11719h-0.23438v0.35352h0.35352v-0.11719h0.11719v0.11719h0.35352v0.11914h0.11914v0.11719h0.23633v0.11719h0.35352v0.53125h0.23633v-0.29492h-0.11914v-0.11719h0.29492v0.23633h0.35547v0.17578h0.4707v-0.17578h0.35352v-0.35547h-0.23438v-0.11719h-0.23633v-0.23633h-0.47266v0.11914h-0.23633v-0.11914h-0.29492zm0.41406-0.47266v0.23633h0.4707v-0.23633zm21.707 0h0.23633v0.11914h0.11719v0.11719h0.11914v0.23633h0.11719v0.11719h0.11914v0.23633h0.11719v0.23633h0.17773v0.23633h0.11719v0.17578h0.11719v0.11914h0.11914v0.35352h0.11719v0.11719h0.11914v0.35352h0.11719v0.23633h-0.11719v-0.11719h-0.23633v-0.11914h-0.11914v-0.11719h-0.11719v-0.23633h-0.29492v-0.4707h-0.11719v-0.29492h-0.11914v-0.23633h-0.11719v-0.23633h-0.11914v-0.23633h-0.11719v-0.23633h-0.11719v-0.23437h-0.11914zm-12.092 0.82617v0.23633h-0.11914v0.41211h0.23633v-0.17578h0.11719v-0.23633h0.11914v-0.23633zm-8.4355 0.23633v0.41211h0.4707v-0.17578h0.41406v-0.23633zm1.002 0.11719v0.11914h0.11914v-0.11914zm0.23633 0v0.11914h0.11719v-0.11914zm0 0.29492v0.11914h-0.11719v0.58984h0.11719v0.11719h0.23633v-0.82617zm1.8281 3.3633h0.11914v0.11719h-0.11914v0.11914h-0.17578v-0.11914h0.17578z" fill="url(#gradient2-62)"/>
<path d="m-212.95 19.342q0 31.009 21.863 53.095 22.086 22.086 53.318 22.086 31.009 0 53.318-22.086 21.863-22.086 21.863-53.095 0-31.233-21.863-53.318-22.309-22.086-53.318-22.086-31.233 0-53.318 22.086-21.863 22.086-21.863 53.318" fill="url(#radialGradient1624)"/>
</g>
</g>
</svg>
