<svg version="1.1" viewBox="0 0 256 256" xmlns="http://www.w3.org/2000/svg" xmlns:xlink="http://www.w3.org/1999/xlink">
<defs>
<linearGradient id="linearGradient928" x1="-49.742" x2="-52.917" y1="4.3656" y2=".26458" gradientTransform="matrix(.88889 0 0 .88889 61.383 1.1906)" gradientUnits="userSpaceOnUse" spreadMethod="reflect">
<stop stop-color="#4e5256" offset="0"/>
<stop stop-color="#9fa5ab" offset="1"/>
</linearGradient>
<radialGradient id="radialGradient936" cx="-52.314" cy="1.4549" r="2.9104" gradientTransform="matrix(.62683 .68753 -.67166 .61236 48.727 37.626)" gradientUnits="userSpaceOnUse">
<stop stop-color="#e9ffff" offset="0"/>
<stop stop-color="#c1f4ff" offset=".64871"/>
<stop stop-color="#a2d5ff" offset="1"/>
</radialGradient>
<linearGradient id="linearGradient1500" x1="-48.914" x2="-53.542" y1="4.4843" y2="-.22512" gradientTransform="matrix(.88889 0 0 .88889 61.383 1.1906)" gradientUnits="userSpaceOnUse">
<stop stop-color="#c7c7f6" offset="0"/>
<stop stop-color="#adadad" offset=".5"/>
<stop stop-color="#fdfdfd" offset="1"/>
</linearGradient>
<linearGradient id="linearGradient1502" x1="-49.345" x2="-53.314" y1="4.8948" y2="-.39688" gradientTransform="matrix(.88889 0 0 .88889 61.383 1.1906)" gradientUnits="userSpaceOnUse">
<stop stop-color="#353535" offset="0"/>
<stop stop-color="#a5a5a5" offset="1"/>
</linearGradient>
<linearGradient id="linearGradient6225">
<stop stop-color="#d3d3d3" offset="0"/>
<stop stop-color="#494949" offset="1"/>
</linearGradient>
<linearGradient id="linearGradient5453" x1="120.87" x2="142.98" y1="172.98" y2="107.44" gradientTransform="rotate(45 128.93 123.43)" gradientUnits="userSpaceOnUse">
<stop stop-color="#dee4ff" offset="0"/>
<stop stop-color="#c0cfff" offset="1"/>
</linearGradient>
<radialGradient id="radialGradient6227" cx="120.88" cy="29.07" r="20" gradientTransform="matrix(.70711 .70711 -.9563 .9563 134.6 -63.307)" gradientUnits="userSpaceOnUse" xlink:href="#linearGradient6225"/>
<linearGradient id="linearGradient6767" x1="96.359" x2="157.36" y1="66.055" y2="66.055" gradientTransform="rotate(45 128.49 124.49)" gradientUnits="userSpaceOnUse" xlink:href="#linearGradient6225"/>
<linearGradient id="linearGradient8851" x1="55.418" x2="114.69" y1="180.73" y2="180.73" gradientUnits="userSpaceOnUse">
<stop stop-color="#ffe0dd" offset="0"/>
<stop stop-color="#ff2925" stop-opacity=".95686" offset="1"/>
</linearGradient>
<filter id="filter930" x="-.12288" y="-.12288" width="1.2458" height="1.2458" color-interpolation-filters="sRGB">
<feGaussianBlur stdDeviation="12.303607"/>
</filter>
<filter id="filter1013" x="-.12291" y="-.12285" width="1.2458" height="1.2457" color-interpolation-filters="sRGB">
<feGaussianBlur stdDeviation="11.285379"/>
</filter>
</defs>
<g transform="translate(-12.568)">
<g transform="matrix(.77434 0 0 .77434 57.603 51.579)">
<path d="m146.72 14c-66.329 2e-6 -120.15 53.824-120.15 120.15 0 66.329 53.824 120.15 120.15 120.15 66.257 0 120.02-53.71 120.14-119.94 2e-5 -3e-3 2e-3 -6e-3 2e-3 -0.01a2.5 2.5 0 0 0 0.01-0.20312 2.5 2.5 0 0 0-0.01-0.20703c-0.11333-66.232-53.884-119.95-120.14-119.95z" color="#000000" color-rendering="auto" dominant-baseline="auto" filter="url(#filter930)" image-rendering="auto" opacity=".83" shape-rendering="auto" solid-color="#000000" stop-color="#000000" style="font-feature-settings:normal;font-variant-alternates:normal;font-variant-caps:normal;font-variant-east-asian:normal;font-variant-ligatures:normal;font-variant-numeric:normal;font-variant-position:normal;font-variation-settings:normal;inline-size:0;isolation:auto;mix-blend-mode:normal;shape-margin:0;shape-padding:0;text-decoration-color:#000000;text-decoration-line:none;text-decoration-style:solid;text-indent:0;text-orientation:mixed;text-transform:none;white-space:normal"/>
<g transform="matrix(38.481 0 0 38.481 -473.64 -2.5905)">
<g>
<circle cx="15.757" cy="3.1897" r="3.0574" fill="url(#linearGradient1500)" stroke="url(#linearGradient1502)" stroke-linecap="round" stroke-linejoin="round" stroke-width=".12993"/>
<circle cx="15.757" cy="3.1897" r="2.4694" fill="url(#radialGradient936)"/>
<path d="m14.312 3.3587c-0.0013-1.2759 0.6626-1.8013 1.9849-1.9039 0.33955-0.71885-1.3938-0.99043-2.1521-0.17387-1.5884 1.7103-0.628 2.6478 0.16725 2.0777z" fill="#fff"/>
</g>
<circle cx="15.757" cy="3.1897" r="2.4694" fill="none" stroke="url(#linearGradient928)" stroke-linecap="round" stroke-linejoin="round" stroke-width=".12993"/>
<path d="m17.548 2.0525c0.39905 0.86052 0.25323 1.6552-0.61024 2.4278-0.86347 0.77258-2.147 0.75641-2.5825 0.26942 0.5932 0.71645 1.8777 0.91057 2.8599-0.00299s0.80376-1.8759 0.33291-2.6942z" fill="#fff"/>
<circle cx="13.758" cy="3.1897" r=".23519" fill="#fda552"/>
<path d="m15.89 3.4555h1.1753" fill="none" stroke="#9fd2ff" stroke-linecap="round" stroke-width=".26458"/>
<circle cx="15.875" cy="3.3073" r=".42074" fill="#9fd2ff"/>
<path d="m15.743 3.175 1.3229 1e-7" fill="none" stroke="#333" stroke-linecap="round" stroke-width=".39871"/>
<path d="m15.743 3.175 1.3229-1.3229" fill="none" stroke="#333" stroke-linecap="round" stroke-width=".39871"/>
<g>
<circle cx="15.743" cy="3.175" r=".27928" fill="#b2b2b2" stroke="#333" stroke-linecap="round" stroke-linejoin="round" stroke-width=".26458"/>
<circle cx="15.757" cy="1.1906" r=".23519" fill="#fda552"/>
<circle cx="15.757" cy="5.1888" r=".23519" fill="#e63e12"/>
<circle cx="17.756" cy="3.1897" r=".23519" fill="#e63e12"/>
</g>
</g>
</g>
<g transform="matrix(.66187 0 0 .66187 218.98 -4.5401)">
<path d="m-86.087 24.225c-4.0301-0.09691-8.2905 0.7269-12.541 2.6699-10.646 4.8664-21.083 16.473-28.629 37.352-2.4988-1.2267-5.8582-3.1757-9.3633-5.1875-5.2981-3.0409-11.13-6.2197-16.951-6.7871-1.8748-0.18276-3.4824-0.20785-4.9082-0.04687-1.4258 0.16097-2.6694 0.50918-3.8125 1.0742-2.2861 1.1301-3.8165 2.7592-6.1309 4.7871a2.6653 2.6653 0 0 0-0.12696 3.8887l21.143 21.143-116.39 116.39a2.6653 2.6653 0 0 0-0.72461 1.3398c-1.8887 9.0662-7.0258 18.113-11.336 25.295-2.155 3.5908-4.0913 6.6911-5.3438 9.3223-0.62624 1.3156-1.1075 2.4976-1.2852 3.8106-0.16769 1.2392 0.19547 2.9374 1.3691 4.0254 1.0777 1.0927 2.6988 1.4976 3.9434 1.3535 1.3284-0.15382 2.5135-0.63094 3.8086-1.252 2.5902-1.242 5.5858-3.1777 9.0625-5.375 6.9534-4.3946 15.728-9.7974 24.85-12.318a2.6653 2.6653 0 0 0 1.1758-0.68359l116.39-116.39 21.115 21.113a2.6653 2.6653 0 0 0 3.7051 0.0625c2.3656-2.2121 4.026-4.5124 4.7832-7.2598 0.75718-2.7473 0.63626-5.6865 0.14258-9.3906-0.77922-5.8464-4.0955-11.647-7.3125-17.004-1.9877-3.3098-3.9492-6.4985-5.3379-9.1113 21.689-6.4706 33.985-16.132 39.41-26.342 5.7698-10.859 3.3464-22.196-3.5801-29.211-4.3291-4.3844-10.406-7.108-17.123-7.2695z" fill-rule="evenodd" filter="url(#filter1013)" opacity=".83" stop-color="#000000"/>
<g transform="matrix(1.313 0 0 1.313 -363.9 -39.2)" stroke-width="4.0595">
<g>
<path d="m153.35 82.441 16.565 16.565-90.139 90.139c-14.672 4.055-27.309 16.958-29.824 13.933-2.941-2.3128 10.196-15.796 13.259-30.498z" fill="url(#linearGradient5453)" fill-rule="evenodd" stop-color="#000000"/>
<path d="m179.13 84.441-12.516-12.516c22.779-70.278 85.352-6.7449 12.516 12.516z" fill="url(#radialGradient6227)" fill-rule="evenodd" stop-color="#000000" stroke="#2c2c2c" stroke-linecap="round" stroke-linejoin="round" stroke-width="4.0595"/>
<path d="m92.064 143.87h32.939l-42.45 43.215-10.812 6.0334-21.092 10.6 0.7144-5.7955 12.183-26.324z" fill="url(#linearGradient8851)"/>
</g>
<path d="m153.35 82.441 16.565 16.565-90.139 90.139c-14.672 4.055-27.309 16.958-29.824 13.933-2.941-2.3128 10.196-15.796 13.259-30.498z" fill="none" stop-color="#000000" stroke="#0001e0" stroke-linecap="round" stroke-linejoin="round" stroke-width="4.0595"/>
<path d="m167.69 71.047 11.867 11.867c1.4869 5.5276 9.9214 15.06 10.944 22.735 0.72379 5.4306 0.17282 7.8452-3.1272 10.931l-51.621-51.621c3.6208-3.1727 4.4032-4.4581 9.7769-3.9343 7.5764 0.73853 17.294 9.0135 22.159 10.022z" fill="url(#linearGradient6767)" fill-rule="evenodd" stop-color="#000000" stroke="#2c2c2c" stroke-linecap="round" stroke-linejoin="round" stroke-width="4.0595"/>
</g>
</g>
</g>
</svg>
