<svg version="1.1" viewBox="0 0 16 16" xmlns="http://www.w3.org/2000/svg" xmlns:xlink="http://www.w3.org/1999/xlink">
<defs>
<radialGradient id="radialGradient1172" cx="7.6337" cy="7.1881" r="4.3443" gradientTransform="matrix(1.3794 0 0 1.3063 -7.0266 -6.4174)" gradientUnits="userSpaceOnUse">
<stop stop-color="#ffadad" stop-opacity=".98219" offset="0"/>
<stop stop-color="#e50000" offset="1"/>
</radialGradient>
<linearGradient id="linearGradient1450" x1="6.0065" x2="12.366" y1="7.3744" y2="12.531" gradientTransform="matrix(1.3794 0 0 1.3794 -7.0266 -7.1113)" gradientUnits="userSpaceOnUse">
<stop stop-color="#ff3636" offset="0"/>
<stop stop-color="#9d0000" offset="1"/>
</linearGradient>
<filter id="filter963" x="-.10876" y="-.10726" width="1.2175" height="1.2145" color-interpolation-filters="sRGB">
<feGaussianBlur stdDeviation="10.814775"/>
</filter>
<filter id="filter2162" x="-.11977" y="-.12615" width="1.2395" height="1.2523" color-interpolation-filters="sRGB">
<feGaussianBlur stdDeviation="0.62810002"/>
</filter>
</defs>
<g fill-rule="evenodd">
<path d="m7.193 0.9c-3.4631 0-6.293 2.6693-6.293 5.9746 0 3.3053 2.8298 5.9746 6.293 5.9746s6.293-2.6693 6.293-5.9746c0-3.3053-2.8298-5.9746-6.293-5.9746z" color="#000000" filter="url(#filter2162)" opacity=".83" stroke-linecap="round" stroke-linejoin="round" stroke-miterlimit="5.8" stroke-width=".6" style="-inkscape-stroke:none"/>
<ellipse cx="6.2926" cy="5.9748" rx="5.9926" ry="5.6748" fill="url(#radialGradient1172)" stop-color="#000000" stroke="url(#linearGradient1450)" stroke-linecap="round" stroke-linejoin="round" stroke-miterlimit="5.8" stroke-width=".6"/>
<g transform="matrix(.040829 0 0 .040829 4.8428 5.6456)">
<path d="m138.81 7.9998a116.24 116.24 0 0 0-116.24 116.24 116.24 116.24 0 0 0 21.912 67.926 116.24 116.24 0 0 0 100.5 57.83 116.24 116.24 0 0 0 116.24-116.24 116.24 116.24 0 0 0-21.912-67.926 116.24 116.24 0 0 0-100.5-57.83z" filter="url(#filter963)"/>
<g transform="matrix(5.4067,0,0,5.4067,495.56,-5.4067)">
<circle cx="-67.31" cy="22.757" r="18.249" fill="#fff"/>
<path d="m-66.692 2.7593a21.5 21.5 0 0 0-21.5 21.5 21.5 21.5 0 0 0 21.5 21.5 21.5 21.5 0 0 0 21.5-21.5 21.5 21.5 0 0 0-21.5-21.5zm0 5.5a16 16 0 0 1 16 16 16 16 0 0 1-2.0996 7.9219l-22.107-21.656a16 16 0 0 1 8.207-2.2656zm-12.713 6.2871 22.426 22.426a16 16 0 0 1-9.7129 3.2871 16 16 0 0 1-16-16 16 16 0 0 1 3.2871-9.7129z" fill="#a21907"/>
<path d="m-67.833 1a21.5 21.5 0 0 0-21.5 21.5 21.5 21.5 0 0 0 21.5 21.5 21.5 21.5 0 0 0 21.5-21.5 21.5 21.5 0 0 0-21.5-21.5zm0 5.5a16 16 0 0 1 16 16 16 16 0 0 1-2.0996 7.9219l-22.107-21.656a16 16 0 0 1 8.207-2.2656zm-12.713 6.2871 22.426 22.426a16 16 0 0 1-9.7129 3.2871 16 16 0 0 1-16-16 16 16 0 0 1 3.2871-9.7129z" fill="#f52e14"/>
</g>
</g>
</g>
</svg>
