<?xml version="1.0" encoding="UTF-8" standalone="no"?>
<svg
   width="256"
   height="256"
   viewBox="0 0 256 256"
   version="1.1"
   id="svg8"
   inkscape:version="1.1.2 (0a00cf5339, 2022-02-04)"
   sodipodi:docname="dotNetExecutable.svg"
   inkscape:export-filename="/media/klapeto/Αρχεία/WindowsXP Theme/Vectors/RASTER/window-2.png"
   inkscape:export-xdpi="96"
   inkscape:export-ydpi="96"
   xmlns:inkscape="http://www.inkscape.org/namespaces/inkscape"
   xmlns:sodipodi="http://sodipodi.sourceforge.net/DTD/sodipodi-0.dtd"
   xmlns:xlink="http://www.w3.org/1999/xlink"
   xmlns="http://www.w3.org/2000/svg"
   xmlns:svg="http://www.w3.org/2000/svg"
   xmlns:rdf="http://www.w3.org/1999/02/22-rdf-syntax-ns#"
   xmlns:cc="http://creativecommons.org/ns#"
   xmlns:dc="http://purl.org/dc/elements/1.1/">
  <defs
     id="defs2">
    <linearGradient
       inkscape:collect="always"
       xlink:href="#linearGradient3846"
       id="linearGradient1117"
       gradientUnits="userSpaceOnUse"
       x1="-71.719818"
       y1="34.592545"
       x2="-110.52647"
       y2="8.1339283"
       gradientTransform="matrix(0.76086958,0,0,0.76086958,-28.12511,70.119565)" />
    <linearGradient
       inkscape:collect="always"
       id="linearGradient3846">
      <stop
         style="stop-color:#abd5ff;stop-opacity:1"
         offset="0"
         id="stop3842" />
      <stop
         style="stop-color:#ffffff;stop-opacity:1"
         offset="1"
         id="stop3844" />
    </linearGradient>
    <linearGradient
       inkscape:collect="always"
       xlink:href="#linearGradient3813"
       id="linearGradient1119"
       gradientUnits="userSpaceOnUse"
       x1="-94.346573"
       y1="5.1000004"
       x2="-94.346573"
       y2="1.814286"
       gradientTransform="matrix(0.76086958,0,0,0.76086958,-28.12511,70.119565)" />
    <linearGradient
       inkscape:collect="always"
       id="linearGradient3813">
      <stop
         style="stop-color:#0093f9;stop-opacity:1"
         offset="0"
         id="stop3809" />
      <stop
         style="stop-color:#0067cd;stop-opacity:1"
         offset="0.5"
         id="stop3815" />
      <stop
         style="stop-color:#2e85db;stop-opacity:1"
         offset="1"
         id="stop3811" />
    </linearGradient>
    <linearGradient
       inkscape:collect="always"
       xlink:href="#linearGradient25317"
       id="linearGradient1121"
       gradientUnits="userSpaceOnUse"
       x1="-93.932289"
       y1="36"
       x2="-93.932289"
       y2="5.5"
       gradientTransform="matrix(0.76086958,0,0,0.76086958,-28.12511,70.119565)" />
    <linearGradient
       inkscape:collect="always"
       id="linearGradient25317">
      <stop
         style="stop-color:#2652a4;stop-opacity:1"
         offset="0"
         id="stop25313" />
      <stop
         style="stop-color:#0572d6;stop-opacity:1"
         offset="1"
         id="stop25315" />
    </linearGradient>
    <linearGradient
       inkscape:collect="always"
       xlink:href="#linearGradient120820"
       id="linearGradient1123"
       gradientUnits="userSpaceOnUse"
       x1="-93.932289"
       y1="4.5"
       x2="-93.932289"
       y2="0.5"
       gradientTransform="matrix(0.76086958,0,0,0.76086958,-28.12511,70.119565)" />
    <linearGradient
       inkscape:collect="always"
       id="linearGradient120820">
      <stop
         style="stop-color:#015baa;stop-opacity:1"
         offset="0"
         id="stop120816" />
      <stop
         style="stop-color:#0274d6;stop-opacity:1"
         offset="1"
         id="stop120818" />
    </linearGradient>
    <filter
       inkscape:collect="always"
       style="color-interpolation-filters:sRGB"
       id="filter1183"
       x="-0.043238119"
       y="-0.053940554"
       width="1.0864762"
       height="1.1078811">
      <feGaussianBlur
         inkscape:collect="always"
         stdDeviation="4.3598438"
         id="feGaussianBlur1185" />
    </filter>
    <linearGradient
       id="linearGradient1813"
       x1="84.403"
       x2="84.403"
       y1="58.334"
       y2="119.73"
       gradientUnits="userSpaceOnUse">
      <stop
         stop-color="#00b1e5"
         offset="0"
         id="stop854" />
      <stop
         stop-color="#00b1e5"
         stop-opacity="0"
         offset="1"
         id="stop856" />
    </linearGradient>
    <linearGradient
       id="linearGradient2714"
       x1="133.52"
       x2="133.52"
       y1="139.16"
       y2="117.33"
       gradientUnits="userSpaceOnUse">
      <stop
         stop-color="#95ca66"
         offset="0"
         id="stop859" />
      <stop
         stop-color="#95ca66"
         stop-opacity="0"
         offset="1"
         id="stop861" />
    </linearGradient>
    <linearGradient
       id="linearGradient3639"
       x1="154.98"
       x2="210.87"
       y1="116.49"
       y2="116.49"
       gradientUnits="userSpaceOnUse">
      <stop
         stop-color="#fed142"
         offset="0"
         id="stop864" />
      <stop
         stop-color="#fed142"
         stop-opacity="0"
         offset="1"
         id="stop866" />
    </linearGradient>
    <linearGradient
       id="linearGradient4372"
       x1="231.1"
       x2="231.1"
       y1="58.146"
       y2="92.611"
       gradientUnits="userSpaceOnUse">
      <stop
         stop-color="#f15e3c"
         offset="0"
         id="stop869" />
      <stop
         stop-color="#f15e3c"
         stop-opacity="0"
         offset="1"
         id="stop871" />
    </linearGradient>
  </defs>
  <sodipodi:namedview
     inkscape:guide-bbox="true"
     id="base"
     pagecolor="#ffffff"
     bordercolor="#666666"
     borderopacity="1.0"
     inkscape:pageopacity="0.0"
     inkscape:pageshadow="2"
     inkscape:zoom="2.8284271"
     inkscape:cx="-10.076272"
     inkscape:cy="107.48023"
     inkscape:document-units="px"
     inkscape:current-layer="layer1"
     inkscape:document-rotation="0"
     showgrid="false"
     units="px"
     inkscape:window-width="3840"
     inkscape:window-height="2043"
     inkscape:window-x="3840"
     inkscape:window-y="0"
     inkscape:window-maximized="1"
     inkscape:snap-bbox="true"
     inkscape:bbox-nodes="true"
     fit-margin-top="0"
     fit-margin-left="0"
     fit-margin-right="0"
     fit-margin-bottom="0"
     inkscape:bbox-paths="false"
     inkscape:snap-global="true"
     showguides="true"
     inkscape:pagecheckerboard="0">
    <inkscape:grid
       type="xygrid"
       id="grid1504"
       originx="0"
       originy="0" />
    <inkscape:grid
       type="xygrid"
       id="grid1507"
       spacingx="0.5"
       spacingy="0.5"
       originx="0"
       originy="0" />
  </sodipodi:namedview>
  <metadata
     id="metadata5">
    <rdf:RDF>
      <cc:Work
         rdf:about="">
        <dc:format>image/svg+xml</dc:format>
        <dc:type
           rdf:resource="http://purl.org/dc/dcmitype/StillImage" />
      </cc:Work>
    </rdf:RDF>
  </metadata>
  <g
     inkscape:label="Layer 1"
     inkscape:groupmode="layer"
     id="layer1"
     transform="translate(-12.567709)">
    <path
       id="path991"
       style="fill:#212121;fill-opacity:1;stroke:none;stroke-width:6.90999;stroke-linecap:butt;stroke-linejoin:miter;stroke-miterlimit:4;stroke-dasharray:none;stroke-opacity:1;filter:url(#filter1183)"
       d="m 31.536459,35.008 c -3.780463,0 -7.157374,1.782377 -9.671875,4.296876 -2.5145,2.514499 -4.296875,5.89141 -4.296875,9.671874 v 17.125 162.89063 H 259.56771 V 66.10175 48.97675 c 0,-3.780462 -1.78433,-7.157375 -4.29883,-9.671874 -2.5145,-2.514499 -5.89141,-4.296876 -9.67187,-4.296876 z" />
    <g
       id="g35036">
      <g
         id="g33631"
         transform="matrix(6.9099936,0,0,6.9099936,806.7491,-452.69268)">
        <path
           style="fill:url(#linearGradient1117);fill-opacity:1;stroke:none;stroke-width:1;stroke-linecap:butt;stroke-linejoin:miter;stroke-miterlimit:4;stroke-dasharray:none;stroke-opacity:1"
           d="m -114.43229,74.5 0.0218,23 h 34.000002 v -23 z"
           id="path3642-2"
           sodipodi:nodetypes="ccccc" />
        <path
           style="fill:url(#linearGradient1119);fill-opacity:1;stroke:none;stroke-width:1;stroke-linecap:butt;stroke-linejoin:miter;stroke-miterlimit:4;stroke-dasharray:none;stroke-opacity:1"
           d="M -114.43229,75 V 71.641304 L -112.91055,70.5 h 31.576087 l 1.141304,1.141304 V 75"
           id="path3338-0"
           sodipodi:nodetypes="cccccc" />
        <path
           style="color:#000000;fill:#c7dcde;stroke-width:1;stroke-miterlimit:4;stroke-dasharray:none"
           d="m -114.41055,74.5 v 0.76087 h 34 V 74.5 Z"
           id="path3439-9"
           sodipodi:nodetypes="ccccc" />
        <path
           style="fill:none;stroke:url(#linearGradient1121);stroke-width:1;stroke-linecap:butt;stroke-linejoin:miter;stroke-miterlimit:4;stroke-dasharray:none;stroke-opacity:1"
           d="m -114.43229,74.5 v 23.073291 h 34.02174 V 74.5"
           id="path1183-3"
           sodipodi:nodetypes="cccc" />
        <path
           style="fill:none;stroke:url(#linearGradient1123);stroke-width:1;stroke-linecap:butt;stroke-linejoin:miter;stroke-miterlimit:4;stroke-dasharray:none;stroke-opacity:1"
           d="m -80.41055,74.5 v -2.478261 c 0,-0.76087 -0.760869,-1.521739 -1.521739,-1.521739 h -30.978261 c -0.76087,0 -1.52174,0.760869 -1.52174,1.521739 V 74.5"
           id="path116814-6"
           sodipodi:nodetypes="cccccc" />
        <path
           id="rect162598-0"
           style="fill:#e37046;fill-rule:evenodd;stroke-width:1;stroke-linecap:round;stroke-linejoin:round;stroke-miterlimit:4;stroke-dasharray:none;stop-color:#000000"
           d="m -83.932291,71.5 h 2 v 2 h -2 z"
           sodipodi:nodetypes="ccccc" />
        <path
           id="rect162602-6"
           style="fill:#7cbcf8;fill-rule:evenodd;stroke-width:1;stroke-linecap:round;stroke-linejoin:round;stroke-miterlimit:4;stroke-dasharray:none;stop-color:#000000"
           d="m -86.932291,71.5 h 2 v 2 h -2 z"
           sodipodi:nodetypes="ccccc" />
        <path
           id="rect162604-2"
           style="fill:#7cbcf8;fill-rule:evenodd;stroke-width:1;stroke-linecap:round;stroke-linejoin:round;stroke-miterlimit:4;stroke-dasharray:none;stop-color:#000000"
           d="m -89.932291,71.5 h 2.02174 l -0.02174,2 h -2.021739 z"
           sodipodi:nodetypes="ccccc" />
      </g>
    </g>
    <g
       transform="matrix(0.89835512,0,0,-0.89835512,-521.75069,37.559378)"
       id="g918">
      <path
         transform="matrix(0.8,0,0,-0.8,607.31,-54.613)"
         d="m 213.67,93.434 h 34.941 V 57.69 H 213.67 Z"
         fill="url(#linearGradient4372)"
         id="path876"
         style="fill:url(#linearGradient4372)" />
      <path
         d="m 798.8,-60.355 c 1.6712,0 3.0795,-1.4294 3.0795,-3.1218 0,-1.7347 -1.3959,-3.1324 -3.1218,-3.1324 -1.7453,0 -3.1324,1.3977 -3.1324,3.1536 0,0.75002 0.29648,1.5018 0.80473,2.063 0.62472,0.68825 1.4188,1.0377 2.37,1.0377 m 0.0177,0.51707 c -2.0524,0 -3.7042,-1.6077 -3.7042,-3.6177 0,-2.0436 1.6183,-3.6724 3.6513,-3.6724 2.01,0 3.6407,1.6289 3.6407,3.6513 0,1.9783 -1.6306,3.6389 -3.5877,3.6389 m -1.0059,-3.4695 v 1.4065 h 1.1647 c 0.47648,0 0.77296,-0.25412 0.77296,-0.66531 0,-0.45531 -0.31766,-0.7412 -0.84708,-0.7412 z m 2.6665,-2.2977 -0.87708,1.9377 c 0.51884,0.18 0.81531,0.58237 0.81531,1.0906 0,0.70766 -0.59295,1.2053 -1.44,1.2053 h -1.7877 v -4.2336 h 0.62295 v 1.8 h 1.1647 l 0.80472,-1.8 z"
         fill="#231f20"
         fill-rule="evenodd"
         id="path878" />
      <g
         id="g886">
        <path
           transform="matrix(0.8,0,0,-0.8,607.31,-54.613)"
           d="M 210.87,139.78 V 93.19 h -55.887 v 46.59 z"
           fill="url(#linearGradient3639)"
           id="path880"
           style="fill:url(#linearGradient3639)" />
        <path
           transform="matrix(0.8,0,0,-0.8,607.31,-54.613)"
           d="m 150.15,116.97 h -37.36 v 22.943 h 50.295"
           fill="url(#linearGradient2714)"
           id="path882"
           style="fill:url(#linearGradient2714)" />
        <path
           transform="matrix(0.8,0,0,-0.8,607.31,-54.613)"
           d="m 111.47,57.32 -40.148,-0.14505 -13.826,14.056 -4.7921,-13.911 v 63.205 h 58.766 c -2.3448,-2.6554 0,-60.926 0,-63.205 z"
           fill="url(#linearGradient1813)"
           id="path884"
           style="fill:url(#linearGradient1813)" />
      </g>
      <g
         fill="#231f20"
         id="g916">
        <path
           d="m 667.02,-81.585 v 26.027 h -4.7613 l -7.6872,-20.798 -7.8037,20.798 h -4.8372 v -26.027 h 2.7707 v 22.709 l 8.5043,-22.709 h 2.2254 l 8.4284,22.709 v -22.709 z"
           id="path888" />
        <path
           d="m 676.64,-55.558 h -3.2383 v -3.316 h 3.2383 z m -0.11647,-6.789 h -3.0054 v -19.236 h 3.0054 z"
           fill-rule="evenodd"
           id="path890" />
        <path
           d="m 693.91,-74.835 c -0.62472,-3.1607 -2.2624,-4.7984 -4.6836,-4.7984 -3.1995,0 -5.0719,2.8871 -5.0719,7.7261 0,4.6819 1.9518,7.6078 5.1107,7.6078 2.5765,0 4.1366,-1.5618 4.6448,-4.7595 l 2.693,0.50648 c -0.78178,4.3695 -3.3566,6.7113 -7.2972,6.7113 -4.9942,0 -8.2731,-4.0589 -8.2731,-10.146 0,-6.1254 3.1995,-10.105 8.1161,-10.105 2.1459,0 3.826,0.66354 5.1901,2.0665 1.2477,1.2494 1.7948,2.3806 2.2642,4.7225 z"
           id="path892" />
        <path
           d="m 703.9,-81.585 v 10.184 c 0.0776,4.096 2.8483,6.9849 6.4784,6.6708 v 2.8501 c -0.4306,0.03882 -0.85943,0.07765 -1.133,0.07765 -1.4436,0 -2.8871,-0.66355 -3.7448,-1.6783 -0.70237,-0.85767 -1.0536,-1.4436 -1.9906,-3.3548 v 4.4878 h -2.6136 v -19.238 z"
           id="path894" />
        <path
           d="m 720.15,-64.299 c 1.6006,0 3.1218,-0.78002 4.0978,-2.0683 0.93708,-1.3271 1.3659,-3.0813 1.3659,-5.5801 0,-4.8372 -1.9906,-7.6855 -5.386,-7.6855 -3.3936,0 -5.3454,2.8095 -5.3454,7.7649 0,2.3401 0.46766,4.2142 1.3271,5.4619 0.85767,1.2494 2.4583,2.1071 3.9407,2.1071 m 0.31236,2.4583 c -2.8095,0 -4.9942,-1.0147 -6.7502,-3.1995 -1.4047,-1.7171 -2.1071,-4.0183 -2.1071,-6.8666 0,-2.693 0.62472,-4.9572 1.9112,-6.8296 1.5618,-2.2624 3.6689,-3.3548 6.4784,-3.3548 5.229,0 8.8961,4.1348 8.8961,10.027 0,6.0866 -3.4342,10.223 -8.4284,10.223"
           fill-rule="evenodd"
           id="path896" />
        <path
           d="m 730.92,-76.591 c 0.46766,-1.6765 0.97414,-2.4971 1.9889,-3.3548 1.6394,-1.4436 3.8242,-2.1459 6.5543,-2.1459 4.7613,0 7.922,2.3789 7.922,5.8907 0,3.1218 -1.9112,4.9942 -5.8519,5.6966 l -3.7854,0.66354 c -2.0683,0.39178 -3.0036,1.2494 -3.0036,2.7318 0,1.6783 1.6765,2.8095 4.1348,2.8095 2.4583,0 4.0183,-0.93708 4.9166,-3.0054 l 2.7301,0.5859 c -0.93532,3.1995 -3.5489,4.8778 -7.569,4.8778 -4.3695,0 -7.2584,-2.2642 -7.2584,-5.6578 0,-2.7318 1.913,-4.6819 5.1901,-5.3066 l 4.0589,-0.74119 c 2.1848,-0.42883 3.316,-1.4047 3.316,-2.9665 0,-1.8724 -1.8336,-3.1201 -4.486,-3.1201 -1.8742,0 -3.6301,0.54531 -4.7613,1.4436 -0.62472,0.50648 -0.93708,1.0924 -1.2477,2.1848 z"
           id="path898" />
        <path
           d="m 758.81,-64.299 c 1.6006,0 3.1218,-0.78002 4.0977,-2.0683 0.93532,-1.3271 1.3659,-3.0813 1.3659,-5.5801 0,-4.8372 -1.9906,-7.6855 -5.3842,-7.6855 -3.3954,0 -5.3472,2.8095 -5.3472,7.7649 0,2.3401 0.46943,4.2142 1.3271,5.4619 0.85944,1.2494 2.4583,2.1071 3.9407,2.1071 m 0.31236,2.4583 c -2.8095,0 -4.9942,-1.0147 -6.7502,-3.1995 -1.4047,-1.7171 -2.1071,-4.0183 -2.1071,-6.8666 0,-2.693 0.62472,-4.9572 1.9112,-6.8296 1.5618,-2.2624 3.6689,-3.3548 6.4784,-3.3548 5.229,0 8.8961,4.1348 8.8961,10.027 0,6.0866 -3.4342,10.223 -8.4284,10.223"
           fill-rule="evenodd"
           id="path900" />
        <g
           id="g914">
          <path
             d="m 780.16,-62.347 h -4.6801 c 0,2.1053 0,2.2236 0.34942,3.0813 0.42883,1.2106 1.7171,1.8353 3.6301,1.8353 0.62295,0 1.0147,-0.04059 1.8318,-0.2753 v 2.4212 c -1.3642,0.19412 -2.0277,0.27177 -2.8854,0.27177 -2.4583,0 -4.4101,-1.17 -5.0736,-3.0424 -0.42883,-1.133 -0.54531,-1.913 -0.62296,-4.2919 h -3.3954 v -2.3436 h 3.3954 v -16.894 h 2.7707 v 16.894 h 4.6801 z"
             id="path902" />
          <path
             d="m 793.81,-79.517 c -1.0536,-0.19589 -1.6006,-0.23471 -2.3012,-0.23471 -2.0683,0 -3.1236,1.0147 -3.1236,3.0054 v 12.055 h 4.3325 v 2.3436 h -4.3325 v 5.0719 l -2.8077,-0.23471 -0.11647,-4.8372 h -3.3954 v -2.3436 h 3.3954 v -11.587 c 0,-3.863 1.8724,-5.8519 5.5007,-5.8519 0.89826,0 1.5212,0.03882 2.8483,0.23295 z"
             id="path904" />
          <path
             d="m 607.71,-166.16 c 0,5.7337 4.6466,10.382 10.38,10.382 5.7334,0 10.38,-4.6484 10.38,-10.382 0,-5.7319 -4.6466,-10.378 -10.38,-10.378 -5.7334,0 -10.38,4.6466 -10.38,10.378"
             id="path906" />
          <path
             d="m 705.62,-176.01 h -11.789 v 55.078 c 0,13.096 -5.8925,20.138 -16.698,20.138 -13.098,0 -22.594,-11.787 -22.594,-27.668 v -47.548 h -12.607 v 84.786 h 11.624 v -15.791 c 8.3508,12.77 14.736,17.026 25.868,17.026 10.315,0 19.319,-5.566 23.575,-14.572 1.8018,-4.0925 2.6207,-10.149 2.6207,-21.611 v -40.351 h 24.569 c -7.6325,7.4031 -12.076,18.682 -12.076,32.452 0,25.377 15.389,42.894 37.492,42.894 0.62825,0 1.2512,-0.01765 1.8689,-0.04412 h 48.216 l -0.001,18.715 12.286,0.48531 v -19.2 h 20.06 v -9.5561 h -20.06 v -52.941 c 0,-8.349 4.4189,-12.606 13.096,-12.606 2.9471,0 5.2395,0.16236 9.6602,0.9812 v -9.9867 c -5.566,-0.81885 -8.1867,-0.98297 -11.951,-0.98297 -15.226,0 -23.085,8.3508 -23.085,24.558 v 50.977 h -26.034 c 2.7301,-2.7654 5.0031,-6.0813 6.7255,-9.8808 3.1112,-6.8772 4.2566,-13.426 4.4207,-24.068 H 732.03 c 0,-9.4961 0.81884,-13.753 3.2754,-18.828 3.6018,-7.3678 11.951,-12.279 20.628,-12.279 10.315,0 17.028,4.9113 21.775,15.881 l 11.624,-2.4565 c -5.2395,-14.898 -17.845,-23.739 -34.217,-23.739 -1.1736,0 -2.3242,0.0477 -3.4554,0.14118 h -46.039 z m 27.064,50.617 h 44.368 c -0.32648,15.224 -8.349,24.556 -21.283,24.556 -7.0414,0 -12.934,-2.9454 -17.355,-8.3508 -3.6018,-4.5831 -4.9131,-8.5132 -5.7301,-16.206"
             id="path908" />
          <path
             d="m 843.06,-97.079 v 5.2166 h 1.6765 v 0.6406 h -4.0819 v -0.6406 h 1.6765 v -5.2166 z"
             id="path910" />
          <path
             d="m 851.22,-97.079 v 5.8572 h -1.0712 l -1.7295,-4.6801 -1.7559,4.6801 h -1.0888 v -5.8572 h 0.62472 v 5.1107 l 1.913,-5.1107 h 0.50119 l 1.8953,5.1107 v -5.1107 z"
             id="path912" />
        </g>
      </g>
    </g>
  </g>
</svg>
