<svg version="1.1" viewBox="0 0 16 16" xmlns="http://www.w3.org/2000/svg">
<defs>
<linearGradient id="linearGradient1922" x1="-38.932" x2="-38.932" y1="21.5" y2="8" gradientUnits="userSpaceOnUse">
<stop stop-color="#6e7bae" offset="0"/>
<stop stop-color="#87a9dc" offset="1"/>
</linearGradient>
<linearGradient id="linearGradient10737" x1="-37.932" x2="-28.932" y1="22" y2="22" gradientUnits="userSpaceOnUse">
<stop stop-color="#9dadd9" offset="0"/>
<stop stop-color="#8b8eb8" offset="1"/>
</linearGradient>
<linearGradient id="linearGradient19558" x1="-27.932" x2="-27.932" y1="21" y2="11.5" gradientUnits="userSpaceOnUse">
<stop stop-color="#a5bdee" offset="0"/>
<stop stop-color="#bac9f4" offset="1"/>
</linearGradient>
<linearGradient id="linearGradient26952" x1="8.0956" x2="7.2706" y1="1.4188" y2=".45848" gradientTransform="matrix(1.5872,0,0,1.5872,-42.561,7.9305)" gradientUnits="userSpaceOnUse">
<stop stop-color="#2da8ff" offset="0"/>
<stop stop-color="#74c0ff" offset="1"/>
</linearGradient>
<linearGradient id="linearGradient32816" x1="-28.683" x2="-38.225" y1="21.128" y2="9.0369" gradientUnits="userSpaceOnUse">
<stop stop-color="#9cf" offset="0"/>
<stop stop-color="#fff" offset="1"/>
</linearGradient>
<linearGradient id="linearGradient33220" x1="-30.932" x2="-28.932" y1="11" y2="11" gradientUnits="userSpaceOnUse">
<stop stop-color="#ccd5ff" offset="0"/>
<stop stop-color="#aab3f5" offset="1"/>
</linearGradient>
<linearGradient id="linearGradient57243" x1="-31.156" x2="-28.432" y1="10.5" y2="10.5" gradientTransform="translate(0 -.25)" gradientUnits="userSpaceOnUse">
<stop stop-color="#0096fc" offset="0"/>
<stop stop-color="#0068ce" offset="1"/>
</linearGradient>
<filter id="filter66717" x="-.16537" y="-.1323" width="1.3307" height="1.2646" color-interpolation-filters="sRGB">
<feGaussianBlur stdDeviation="0.82685959"/>
</filter>
</defs>
<path d="m2.806 0.80536v14.499a0.49998 0.49998 0 0 0 0.0625 0.2246 0.49998 0.49998 0 0 0 0.03516 0.05469 0.49998 0.49998 0 0 0 0.12109 0.12304 0.49998 0.49998 0 0 0 0.05664 0.03711 0.49998 0.49998 0 0 0 0.2246 0.06055h11a0.49998 0.49998 0 0 0 0.49998-0.49998v-10.978a0.49998 0.49998 0 0 0-0.01953-0.1621 0.49998 0.49998 0 0 0-2e-3 -0.0059 0.49998 0.49998 0 0 0-0.02344-0.06055 0.49998 0.49998 0 0 0-0.01953-0.03711 0.49998 0.49998 0 0 0-2e-3 -2e-3 0.49998 0.49998 0 0 0-0.01172-0.02344 0.49998 0.49998 0 0 0-0.0098-0.01367 0.49998 0.49998 0 0 0-0.0039-0.0039 0.49998 0.49998 0 0 0-0.04297-0.05274l-2.4823-2.9803a0.49998 0.49998 0 0 0 0-0.00195 0.49998 0.49998 0 0 0-0.0957-0.085933 0.49998 0.49998 0 0 0-0.0039-0.00195 0.49998 0.49998 0 0 0-0.2246-0.08398 0.49998 0.49998 0 0 0-0.0293-0.00391 0.49998 0.49998 0 0 0-0.0293-0.00195z" fill-rule="evenodd" filter="url(#filter66717)" stop-color="#000000" stroke-linecap="round" stroke-linejoin="round"/>
<g transform="translate(41.438,-7.4946)">
<path d="m-38.932 8h8.5041l2.4959 3.1204v10.88h-11z" fill="url(#linearGradient32816)" fill-rule="evenodd" stop-color="#000000" stroke-linecap="round" stroke-linejoin="round"/>
<path d="m-31.432 8.1405v2.8595h3.5l-3.0801-2.8595z" fill="url(#linearGradient26952)"/>
<path d="m-31.432 10.25h3" fill="none" stroke="url(#linearGradient57243)" stroke-width=".5"/>
<path d="m-27.932 11h-3.5" fill="#aab3f5" stroke="url(#linearGradient33220)" stroke-width="1px"/>
<g fill="none" stroke-linecap="round" stroke-width="1px">
<path d="m-27.932 22v-11" stroke="url(#linearGradient19558)"/>
<path d="m-38.932 22h11" stroke="url(#linearGradient10737)"/>
<path d="m-30.432 8h-8.5v14" stroke="url(#linearGradient1922)"/>
<path d="m-30.432 8 2.5 3" stroke="#87a9dc"/>
</g>
</g>
<g transform="matrix(.076982 0 0 .076982 -2.0991 -1.0992)" fill="#079807" fill-rule="evenodd" stroke-linejoin="round">
<path d="m109.41 174.88c-9.6479 0-17.361-3.182-23.14-9.546-5.7531-6.364-8.6551-14.866-8.6551-25.558s2.902-19.194 8.6551-25.558c5.7785-6.364 13.492-9.546 23.14-9.546 7.4077 0 13.746 2.0365 19.041 6.084 5.2949 4.073 8.3496 10.157 9.1642 18.227h-12.575c-0.38183-4.6585-1.9856-8.0187-4.7603-10.132-2.8002-2.1128-6.3895-3.1566-10.793-3.1566-5.9313 0-10.641 2.0365-14.103 6.1349s-5.1931 10.081-5.1931 17.947c0 7.8405 1.7056 13.823 5.1421 17.921 3.4366 4.0984 8.0951 6.1604 13.975 6.1604 4.6076 0 8.2478-1.0692 10.972-3.2329 2.7238-2.1383 4.3275-5.804 4.7857-10.972h12.524c-0.78913 8.7314-3.742 15.121-8.9096 19.168-5.1421 4.0475-11.557 6.0586-19.27 6.0586z" stroke-width=".71842"/>
<path d="m192.67 90.316c-3.2878 2.0115-6.5755 4.023-9.8633 6.0345-0.0889 5.3496-0.14997 10.682-0.23888 16.032 2.8977-1.7728 5.7954-3.5457 8.6652-5.3015 0.69558 4.0092 1.3912 8.0184 2.0867 12.028-3.65 2.2331-7.3278 4.4832-10.978 6.7163-0.11563 7.6826-0.23125 15.365-0.34169 23.078-3.8172 2.3354-7.6343 4.6708-11.424 6.9891 0.11043-7.7126 0.22606-15.395 0.34169-23.078-3.7336 2.2842-7.4671 4.5685-11.173 6.8357-0.11563 7.6826-0.25912 15.382-0.36956 23.095-3.7893 2.3183-7.6064 4.6537-11.424 6.9891 0.11044-7.7126 0.19821-15.378 0.31384-23.061-2.5076 1.5342-5.0431 3.0854-7.5507 4.6196-0.69558-4.0092-1.3912-8.0184-2.0867-12.028 3.2878-2.0115 6.5755-4.023 9.8633-6.0345 0.0889-5.3496 0.14997-10.682 0.23888-16.032-2.8977 1.7728-5.8232 3.5627-8.7209 5.3356-0.69558-4.0092-1.3912-8.0184-2.0867-12.028 3.6778-2.2502 7.3557-4.5003 11.034-6.7504 0.10525-7.7425 0.2053-15.515 0.31055-23.257 3.8171-2.3354 7.6343-4.6708 11.424-6.9891-0.10525 7.7425-0.20529 15.515-0.31054 23.257 3.7336-2.2842 7.4671-4.5685 11.173-6.8357 0.10525-7.7425 0.23316-15.532 0.33841-23.274 3.7893-2.3183 7.6064-4.6537 11.424-6.9891-0.10523 7.7425-0.20529 15.515-0.3384 23.274 2.5355-1.5512 5.071-3.1025 7.6064-4.6537 0.69557 4.0092 1.3912 8.0184 2.0867 12.028zm-21.343 13.058c-3.7336 2.2842-7.4393 4.5514-11.173 6.8357-0.061 5.3326-0.12211 10.665-0.18316 15.998 3.7057-2.2672 7.4114-4.5344 11.145-6.8186 0.061-5.3326 0.14997-10.682 0.21103-16.015z" stroke-width=".857"/>
</g>
</svg>
