<svg version="1.1" viewBox="0 0 256 256" xmlns="http://www.w3.org/2000/svg" xmlns:xlink="http://www.w3.org/1999/xlink"><path d="m31.443 70.628c-14.602 0-26.443 11.843-26.443 26.445v71.082c0 14.602 11.841 26.443 26.443 26.443h19.732l-16.641 39.625a2.7503 2.7503 0 0 0 4.3418 3.1367l49.057-42.762h133.06c14.602 0 26.443-11.841 26.443-26.443v-71.082c0-14.602-11.841-26.445-26.443-26.445z" color="#000000" color-rendering="auto" dominant-baseline="auto" fill="#212121" fill-rule="evenodd" filter="url(#filter1174)" image-rendering="auto" shape-rendering="auto" solid-color="#000000" stop-color="#000000" style="font-feature-settings:normal;font-variant-alternates:normal;font-variant-caps:normal;font-variant-east-asian:normal;font-variant-ligatures:normal;font-variant-numeric:normal;font-variant-position:normal;font-variation-settings:normal;inline-size:0;isolation:auto;mix-blend-mode:normal;shape-margin:0;shape-padding:0;text-decoration-color:#000000;text-decoration-line:none;text-decoration-style:solid;text-indent:0;text-orientation:mixed;text-transform:none;white-space:normal"/><g transform="matrix(7.898 0 0 7.898 -514.57 -13.551)" stroke="#636394" stroke-width=".69638"><path d="m68.5 10.5h24c1.662 0 3 1.338 3 3v9c0 1.662-1.338 3-3 3h-16.978l-6.3096 5.5 2.3096-5.5h-3.022c-1.662 0-3-1.338-3-3v-9c0-1.662 1.338-3 3-3z" fill="url(#linearGradient882)" fill-rule="evenodd" stop-color="#000000" stroke-linecap="round" stroke-linejoin="round"/><rect x="69" y="14" width="7" height="7" fill="#fff" fill-rule="evenodd" stop-color="#000000" stroke-linecap="round" stroke-linejoin="round"/><g fill="none"><path d="m78 15h14"/><path d="m78 17.5h14"/><path d="m78 20h14"/></g></g><defs><linearGradient id="linearGradient882" x1="80" x2="80" y1="27" y2="12" gradientUnits="userSpaceOnUse"><stop stop-color="#d2e8ff" offset="0"/><stop stop-color="#fff" offset="1"/></linearGradient><filter id="filter1174" x="-.040572" y="-.058757" width="1.0811" height="1.1175" color-interpolation-filters="sRGB"><feGaussianBlur stdDeviation="4.0984858"/></filter></defs></svg>
