<svg version="1.1" viewBox="0 0 256 256" xmlns="http://www.w3.org/2000/svg" xmlns:xlink="http://www.w3.org/1999/xlink"><defs><linearGradient id="linearGradient1119" x1="-94.347" x2="-94.347" y1="5.1" y2="2.2395" gradientTransform="matrix(.76087 0 0 .76087 -28.125 70.12)" gradientUnits="userSpaceOnUse"><stop stop-color="#0093f9" offset="0"/><stop stop-color="#0067cd" offset=".5"/><stop stop-color="#2e85db" offset="1"/></linearGradient><linearGradient id="linearGradient1121" x1="-93.932" x2="-93.932" y1="36" y2="5.5" gradientTransform="matrix(.76087 0 0 .76087 -28.125 70.12)" gradientUnits="userSpaceOnUse"><stop stop-color="#2652a4" offset="0"/><stop stop-color="#0572d6" offset="1"/></linearGradient><linearGradient id="linearGradient1123" x1="-93.932" x2="-93.932" y1="4.5" y2=".5" gradientTransform="matrix(.76087 0 0 .76087 -28.125 70.12)" gradientUnits="userSpaceOnUse"><stop stop-color="#015baa" offset="0"/><stop stop-color="#0274d6" offset="1"/></linearGradient><linearGradient id="linearGradient1147" x1="4.0677" x2="4.0677" y1="1.5" y2="7.5" gradientTransform="translate(31.5)" gradientUnits="userSpaceOnUse"><stop stop-color="#92c3ef" offset="0"/><stop stop-color="#e2f1f0" offset="1"/></linearGradient><linearGradient id="linearGradient1155" x1="14.568" x2="39.568" y1="1" y2="28.5" gradientUnits="userSpaceOnUse"><stop stop-color="#c3c3c2" offset="0"/><stop stop-color="#919191" offset="1"/></linearGradient><linearGradient id="linearGradient1167" x1="21.148" x2="21.148" y1="4.1875" y2="11" gradientUnits="userSpaceOnUse"><stop stop-color="#09f" offset="0"/><stop stop-color="#b3f2ff" offset="1"/></linearGradient><linearGradient id="linearGradient1175" x1="39.659" x2="39.659" y1="7.6117" y2="17.444" gradientUnits="userSpaceOnUse"><stop stop-color="#0e3f9e" offset="0"/><stop stop-color="#008bf1" offset="1"/></linearGradient><linearGradient id="linearGradient1183" x1="14.193" x2="14.172" y1="9.3548" y2="17.146" gradientUnits="userSpaceOnUse"><stop stop-color="#079c07" offset="0"/><stop stop-color="#80cc80" offset="1"/></linearGradient><linearGradient id="linearGradient1195" x1="19.068" x2="19.068" y1="21" y2="25" gradientUnits="userSpaceOnUse"><stop stop-color="#003800" offset="0"/><stop stop-color="#005d00" stop-opacity="0" offset="1"/></linearGradient><linearGradient id="linearGradient1203" x1="29.568" x2="29.568" y1="22.5" y2="24" gradientUnits="userSpaceOnUse"><stop stop-color="#003800" offset="0"/><stop stop-color="#005d00" offset="1"/></linearGradient><linearGradient id="linearGradient1217" x1="13.568" x2="39.568" y1="27.5" y2="22" gradientUnits="userSpaceOnUse"><stop stop-color="#80cc80" offset="0"/><stop stop-color="#f3fb97" offset="1"/></linearGradient><linearGradient id="linearGradient2017" x1="216.53" x2="216.53" y1="76.846" y2="65.324" gradientTransform="matrix(.85553 0 0 .85553 2.6964 82.109)" gradientUnits="userSpaceOnUse"><stop stop-color="#f0f0ea" offset="0"/><stop stop-color="#f1f1ec" offset=".20512"/><stop stop-color="#f9f9f8" offset=".75"/><stop stop-color="#fafaf9" offset="1"/></linearGradient><linearGradient id="linearGradient26952-6" x1="8.0956" x2="7.2706" y1="1.4188" y2=".45848" gradientTransform="matrix(1.5872,0,0,1.5872,-42.561,7.9305)" gradientUnits="userSpaceOnUse"><stop stop-color="#2da8ff" offset="0"/><stop stop-color="#74c0ff" offset="1"/></linearGradient><linearGradient id="linearGradient57243-7" x1="-31.156" x2="-28.432" y1="10.5" y2="10.5" gradientTransform="translate(0 -.25)" gradientUnits="userSpaceOnUse"><stop stop-color="#0096fc" offset="0"/><stop stop-color="#0068ce" offset="1"/></linearGradient><filter id="filter963-3" x="-.13823" y="-.11059" width="1.2765" height="1.2212" color-interpolation-filters="sRGB"><feGaussianBlur stdDeviation="0.69118713"/></filter><linearGradient id="linearGradient32816-3-6" x1="-28.683" x2="-38.225" y1="21.128" y2="9.0369" gradientUnits="userSpaceOnUse"><stop stop-color="#9cf" offset="0"/><stop stop-color="#fff" offset="1"/></linearGradient><linearGradient id="linearGradient33220-5-7" x1="-30.932" x2="-28.932" y1="11" y2="11" gradientUnits="userSpaceOnUse"><stop stop-color="#ccd5ff" offset="0"/><stop stop-color="#aab3f5" offset="1"/></linearGradient><linearGradient id="linearGradient19558-3-5" x1="-27.932" x2="-27.932" y1="21" y2="11.5" gradientUnits="userSpaceOnUse"><stop stop-color="#a5bdee" offset="0"/><stop stop-color="#bac9f4" offset="1"/></linearGradient><linearGradient id="linearGradient10737-5-3" x1="-37.932" x2="-28.932" y1="22" y2="22" gradientUnits="userSpaceOnUse"><stop stop-color="#9dadd9" offset="0"/><stop stop-color="#8b8eb8" offset="1"/></linearGradient><linearGradient id="linearGradient1922-6-5" x1="-38.932" x2="-38.932" y1="22.025" y2="14.78" gradientUnits="userSpaceOnUse"><stop stop-color="#6e7bae" offset="0"/><stop stop-color="#87a9dc" offset="1"/></linearGradient><filter id="filter4099" x="-.11092" y="-.13773" width="1.2218" height="1.2755" color-interpolation-filters="sRGB"><feGaussianBlur stdDeviation="9.7584502"/></filter><filter id="filter4251" x="-.12288" y="-.12288" width="1.2458" height="1.2458" color-interpolation-filters="sRGB"><feGaussianBlur stdDeviation="7.3872"/></filter></defs><path d="m62.771 16c-3.9157 0-7.2483 1.803-9.7207 4.2754-2.4724 2.4724-4.2754 5.8051-4.2754 9.7207v14.65h0.01367v141.4h211.13v-141.4h-0.0176v-14.65c0-3.9157-1.803-7.2483-4.2754-9.7207-2.4724-2.4724-5.8051-4.2754-9.7207-4.2754z" filter="url(#filter4099)" opacity=".83" stroke-width="5.9117"/><g transform="matrix(.85553 0 0 .85553 24.068 -24.486)"><g transform="matrix(6.91,0,0,6.91,806.75,-452.69)"><path d="m-114.43 74.5 0.0218 23h34v-23z" fill="#ece9d8"/><path d="m-114.43 75v-3.3587l1.5217-1.1413h31.576l1.1413 1.1413v3.3587" fill="url(#linearGradient1119)"/><path d="m-114.41 74.5v1.3628h34v-1.3628z" color="#000000" fill="#c7dcde"/><path d="m-114.43 74.5v23.073h34.022v-23.073" fill="none" stroke="url(#linearGradient1121)" stroke-width="1.6916"/><path d="m-80.411 74.5v-2.4783c0-0.76087-0.76087-1.5217-1.5217-1.5217h-30.978c-0.76087 0-1.5217 0.76087-1.5217 1.5217v2.4783" fill="none" stroke="url(#linearGradient1123)" stroke-width="1.6916"/><g fill-rule="evenodd" stroke-linecap="round" stroke-linejoin="round"><path d="m-83.932 71.883h2v2h-2z" fill="#e37046" stop-color="#000000"/><path d="m-86.932 71.883h2v2h-2z" fill="#7cbcf8" stop-color="#000000"/><path d="m-89.932 71.883h2.0217l-0.02174 2h-2.0217z" fill="#7cbcf8" stop-color="#000000"/></g></g></g><g><rect x="167.33" y="133.06" width="54.754" height="20.533" rx="4.2776" ry="4.2776" fill="url(#linearGradient2017)" fill-rule="evenodd" stop-color="#000000" stroke="#0066c5" stroke-linecap="round" stroke-linejoin="round" stroke-width="10"/><g transform="matrix(.85553 0 0 .85553 12.423 -7.4744)" stroke-width="11.689"><rect x="119.93" y="65.851" width="128" height="28" fill="#fff" fill-rule="evenodd" stop-color="#000000" stroke="#7f9db9" stroke-linecap="round"/><path d="m45.082 79.851h55.302" fill="none" stroke="#333"/></g><g transform="matrix(.85553 0 0 .85553 12.423 34.987)" stroke-width="11.689"><rect x="119.93" y="65.851" width="128" height="28" fill="#fff" fill-rule="evenodd" stop-color="#000000" stroke="#7f9db9" stroke-linecap="round"/><path d="m45.082 79.851h55.302" fill="none" stroke="#333"/></g></g><path d="m21.287 115.67v144.28h144.28v-144.28z" filter="url(#filter4251)" opacity=".83" stroke-width="4.7958"/><g transform="matrix(4.7958 0 0 4.7958 -49.987 102.27)"><rect x="12.568" y=".5" width="28" height="28" fill="url(#linearGradient1147)" fill-rule="evenodd" stop-color="#000000"/><path d="m12.568 6.5c3-1 2.5-2.5 5.5-2.5s2.5 1 5.5 1c1.5 0 1.5457-1 3-1 4.0249 2.9665 12.213 4.9263 14 8.5l-20 2-8-1z" fill="url(#linearGradient1167)"/><path d="m40.568 7h-1c-1.5283 0-2.8413 1.7225-3.5 2h-3.5c-1.5572 0-2.4536 0.95359-3 1.5h-2.5c-2 0-3.7215 1.9068-6.5 3l12.5 7h7.5z" fill="url(#linearGradient1175)"/><path d="m12.568 8.5c6.5 0.5 6.6294 3.9559 12 5 1.5521 0.30174 3.5 1.5 6 1.5 1.118 0 6.5 3 10 3v8.5h-28z" fill="url(#linearGradient1183)"/><path d="m40.568 21c-3 0-6.5 0.5-9.5 1s-18.5 1.5-18.5 1.5v5h28z" fill="url(#linearGradient1217)"/><path d="m29.568 18c-0.60067 0.30203-1.8626 2.9808-2 2.5-1-3.5-4-9-5-10.5-1 1-1.6557 2.9703-2 4.5-0.5-1.5-1.5-4.7081-2.5-4.7081-2 0-2.8942 8.9523-3.3942 8.9523s-2.1058-1.7441-2.1058-1.7441v8c6 0 16.5 0 21-1.5-2-1.5-2.5468-4.4219-4-5.5z" fill="#060"/><path d="m15.068 22c0.68278-2.6033 2.3281-7.3428 3.1846-8.7329 0.96031 0.99255 2.3037 3.059 2.8154 4.7329 0.57808-0.79643 1.3043-2.3722 1.9558-2.3722 1 0 3.3143 4.3402 5.527 8.5985-6.4017 0.36469-14.703 1.1148-15.983 0.77367v-7.5c1.5081 1.3071 2.071 4.2857 2.5 4.5z" fill="url(#linearGradient1195)"/><rect x="12.568" y=".5" width="28" height="28" fill="none" stop-color="#000000" stroke="url(#linearGradient1155)" stroke-linecap="round" stroke-miterlimit="11.1" stroke-width="2.0852"/><path d="m27.068 24.5c0.1235-0.25934 1.964-4.0196 2.4522-5.0234 0.57914 0.98478 2.1086 3.523 2.8514 4.1248-0.5242 0.19775-5.3036 0.89861-5.3036 0.89861z" fill="url(#linearGradient1203)"/></g><g transform="translate(9.2947)"><path transform="matrix(9.9999 0 0 9.9999 -3069.5 -1954.8)" d="m318.09 204.81v14.499a0.49998 0.49998 0 0 0 0.0625 0.2246 0.49998 0.49998 0 0 0 0.0352 0.0547 0.49998 0.49998 0 0 0 0.12109 0.12304 0.49998 0.49998 0 0 0 0.0566 0.0371 0.49998 0.49998 0 0 0 0.2246 0.0606h11a0.49998 0.49998 0 0 0 0.49998-0.49998v-10.978a0.49998 0.49998 0 0 0-0.0195-0.1621 0.49998 0.49998 0 0 0-2e-3 -6e-3 0.49998 0.49998 0 0 0-0.0234-0.0606 0.49998 0.49998 0 0 0-0.0195-0.0371 0.49998 0.49998 0 0 0-2e-3 -2e-3 0.49998 0.49998 0 0 0-0.0117-0.0234 0.49998 0.49998 0 0 0-0.01-0.0137 0.49998 0.49998 0 0 0-4e-3 -4e-3 0.49998 0.49998 0 0 0-0.043-0.0527l-2.4823-2.9803a0.49998 0.49998 0 0 0 0-2e-3 0.49998 0.49998 0 0 0-0.0957-0.0859 0.49998 0.49998 0 0 0-4e-3 -2e-3 0.49998 0.49998 0 0 0-0.2246-0.084 0.49998 0.49998 0 0 0-0.0293-4e-3 0.49998 0.49998 0 0 0-0.0293-2e-3z" fill-rule="evenodd" filter="url(#filter963-3)" opacity=".83" stop-color="#000000" stroke-linecap="round" stroke-linejoin="round"/><g transform="matrix(9.9999 0 0 9.9999 496.76 9.3018)"><path d="m-38.932 8h8.5041l2.4959 3.1204v10.88h-11z" fill="url(#linearGradient32816-3-6)" fill-rule="evenodd" stop-color="#000000" stroke-linecap="round" stroke-linejoin="round"/><path d="m-31.432 8.1405v2.8595h3.5l-3.0801-2.8595z" fill="url(#linearGradient26952-6)"/><path d="m-31.432 10.25h3" fill="none" stroke="url(#linearGradient57243-7)" stroke-width=".5"/><path d="m-27.932 11h-3.5" fill="#aab3f5" stroke="url(#linearGradient33220-5-7)" stroke-width="1px"/><g fill="none" stroke-linecap="round" stroke-width="1px"><path d="m-27.932 22v-11" stroke="url(#linearGradient19558-3-5)"/><path d="m-38.932 22h11" stroke="url(#linearGradient10737-5-3)"/><path d="m-30.432 8h-8.5v14" stroke="url(#linearGradient1922-6-5)"/><path d="m-30.432 8 2.5 3" stroke="#87a9dc"/></g></g><g transform="matrix(9.9999 0 0 9.9999 102.06 84.247)" fill="#cee6ff" stroke="#9cf" stroke-linecap="round" stroke-width="1px"><path d="m2.0927 9.8145h7.8902"/><path d="m2.0927 7.9667h7.8902"/><path d="m2.0927 6.1188h7.8902"/><path d="m2.0927 11.662h7.8902"/></g></g></svg>
