<svg version="1.1" viewBox="0 0 16 16" xmlns="http://www.w3.org/2000/svg"><defs><linearGradient id="linearGradient1137" x1="3" x2="2" y1="11" y2="6.5" gradientUnits="userSpaceOnUse"><stop stop-color="#e1d464" offset="0"/><stop stop-color="#f6f3b5" offset="1"/></linearGradient><linearGradient id="linearGradient19435" x1="1" x2="8" y1="4" y2="12" gradientUnits="userSpaceOnUse"><stop stop-color="#c4b27f" offset="0"/><stop stop-color="#745737" offset="1"/></linearGradient><filter id="filter30281" x="-.0864" y="-.144" width="1.1728" height="1.288" color-interpolation-filters="sRGB"><feGaussianBlur stdDeviation="0.54"/></filter></defs><path d="m2.5 3.5c-1.0994 0-2 0.90065-2 2v5c0 1.0994 0.90065 2 2 2h11c1.0994 0 2-0.90065 2-2v-5c0-1.0994-0.90065-2-2-2z" color="#000000" fill="#212121" fill-rule="evenodd" filter="url(#filter30281)" stroke-linecap="round" stroke-linejoin="round" style="-inkscape-stroke:none"/><g stroke-linecap="round" stroke-linejoin="round"><rect x=".5" y="3.5" width="14" height="8" rx="1.5" ry="1.5" fill="url(#linearGradient1137)" fill-rule="evenodd" stop-color="#000000" stroke="url(#linearGradient19435)"/></g><g transform="translate(.11227 .021306)"><g transform="matrix(.78569 0 0 .78569 1.5032 1.5896)" fill="#060605" fill-rule="evenodd"><circle cx="3.7563" cy="7.5225" r="1.028" stop-color="#000000"/><circle cx="7.4896" cy="7.5225" r="1.028" stop-color="#000000"/><circle cx="11.223" cy="7.5225" r="1.028" stop-color="#000000"/></g><path d="m11.681 5.3071h0.12322q0.18595 0 0.32038 0.035847 0.13666 0.033607 0.23524 0.16803 0.10082 0.13218 0.12547 0.31366 0.02688 0.18147 0.02688 0.53098t0.02465 0.51754q0.02464 0.16803 0.12323 0.28453 0.10082 0.11426 0.3159 0.11875v0.36518q-0.21508 0.00446-0.3159 0.12099-0.09858 0.11426-0.12323 0.28229-0.02465 0.16803-0.02465 0.51753 0 0.34951-0.02688 0.53098-0.02464 0.18147-0.12547 0.31366-0.09858 0.13442-0.23524 0.16803-0.13442 0.035842-0.32038 0.035842h-0.12322v-0.3495h0.06945q0.233 0 0.28453-0.12322 0.05377-0.12322 0.05377-0.66543 0-0.48617 0.1277-0.71019 0.1277-0.22404 0.38759-0.30246-0.25989-0.080653-0.38759-0.3047-0.1277-0.22404-0.1277-0.71019 0-0.54218-0.05377-0.66543-0.05152-0.12322-0.28453-0.12322h-0.06945z" stroke="#000" stroke-width=".18592"/><path d="m3.0945 5.3464h-0.12322q-0.18595 0-0.32038 0.035847-0.13667 0.033607-0.23524 0.16803-0.10082 0.13218-0.12547 0.31366-0.026884 0.18147-0.026884 0.53098t-0.024648 0.51754q-0.024647 0.16803-0.12322 0.28453-0.10082 0.11426-0.3159 0.11875v0.36518q0.21508 0.00446 0.3159 0.12099 0.098583 0.11426 0.12322 0.28229 0.024648 0.16803 0.024648 0.51753t0.026884 0.53098q0.024648 0.18148 0.12547 0.31366 0.098583 0.13442 0.23524 0.16803 0.13442 0.035842 0.32038 0.035842h0.12322v-0.34951h-0.069455q-0.233 0-0.28453-0.12322-0.053769-0.12322-0.053769-0.66543 0-0.48617-0.1277-0.71019-0.1277-0.22404-0.38759-0.30246 0.25989-0.080653 0.38759-0.3047 0.1277-0.22404 0.1277-0.71019 0-0.54218 0.053769-0.66543 0.051525-0.12322 0.28453-0.12322h0.069455z" stroke="#000" stroke-width=".18592"/></g></svg>
