<svg version="1.1" viewBox="0 0 256 256" xmlns="http://www.w3.org/2000/svg" xmlns:xlink="http://www.w3.org/1999/xlink">
<defs>
<linearGradient id="linearGradient869">
<stop stop-color="#343467" offset="0"/>
<stop stop-color="#99cbfe" offset="1"/>
</linearGradient>
<linearGradient id="linearGradient1832-9-2" x1="111.46" x2="102.63" y1="95.322" y2="83.838" gradientTransform="matrix(1.8777 0 0 1.8777 -154.34 -186.63)" gradientUnits="userSpaceOnUse">
<stop stop-color="#9cf" offset="0"/>
<stop stop-color="#fff" offset="1"/>
</linearGradient>
<linearGradient id="linearGradient1848-0-9" x1="8.6532" x2="8.6532" y1=".39857" y2="11.05" gradientTransform="matrix(1.8777 0 0 1.8777 37.819 -29.748)" gradientUnits="userSpaceOnUse">
<stop stop-color="#9fa0ff" offset="0"/>
<stop stop-color="#cbcaff" offset="1"/>
</linearGradient>
<linearGradient id="linearGradient1850-2-8" x1=".39857" x2="8.3869" y1="11.316" y2="11.316" gradientTransform="matrix(1.8777 0 0 1.8777 37.819 -29.748)" gradientUnits="userSpaceOnUse">
<stop stop-color="#ccccf2" offset="0"/>
<stop stop-color="#ccf" offset="1"/>
</linearGradient>
<linearGradient id="linearGradient1852-3-8" x1=".66485" x2=".66485" y1="11.05" y2=".39857" gradientTransform="matrix(1.8777 0 0 1.8777 37.819 -29.748)" gradientUnits="userSpaceOnUse">
<stop stop-color="#ccc" offset="0"/>
<stop stop-color="#fff" offset="1"/>
</linearGradient>
<linearGradient id="linearGradient1854-7-3" x1=".93112" x2="8.3869" y1=".66485" y2=".66485" gradientTransform="matrix(1.8777 0 0 1.8777 37.819 -29.748)" gradientUnits="userSpaceOnUse">
<stop stop-color="#fff" offset="0"/>
<stop stop-color="#ddd" offset="1"/>
</linearGradient>
<linearGradient id="linearGradient1834-1-8" x1="111.33" x2="102.63" y1="95.189" y2="83.838" gradientTransform="matrix(1.8777 0 0 1.8777 -154.34 -186.63)" gradientUnits="userSpaceOnUse" xlink:href="#linearGradient869"/>
<linearGradient id="linearGradient1409" x1="15.619" x2="22.01" y1="8.7829" y2="8.7829" gradientTransform="matrix(1.8777 0 0 1.8777 11.24 -29.492)" gradientUnits="userSpaceOnUse" xlink:href="#linearGradient1343"/>
<linearGradient id="linearGradient1343">
<stop stop-color="#9cf" offset="0"/>
<stop stop-color="#80bdfb" offset="1"/>
</linearGradient>
<linearGradient id="linearGradient1377" x1="15.619" x2="22.01" y1="4.659" y2="4.659" gradientTransform="matrix(1.8777 0 0 1.8777 11.24 -29.748)" gradientUnits="userSpaceOnUse" xlink:href="#linearGradient1343"/>
<linearGradient id="linearGradient1393" x1="15.619" x2="22.01" y1="3.5939" y2="3.5939" gradientTransform="matrix(1.8777 0 0 1.8777 11.24 -29.748)" gradientUnits="userSpaceOnUse" xlink:href="#linearGradient1343"/>
<linearGradient id="linearGradient1377-1" x1="15.619" x2="22.01" y1="4.659" y2="4.659" gradientTransform="matrix(1.8777 0 0 1.8777 11.24 -27.748)" gradientUnits="userSpaceOnUse" xlink:href="#linearGradient1343"/>
<linearGradient id="linearGradient1377-1-5" x1="15.619" x2="22.01" y1="4.659" y2="4.659" gradientTransform="matrix(1.8777 0 0 1.8777 11.24 -25.748)" gradientUnits="userSpaceOnUse" xlink:href="#linearGradient1343"/>
<linearGradient id="linearGradient1377-1-4" x1="15.619" x2="22.01" y1="4.659" y2="4.659" gradientTransform="matrix(1.8777 0 0 1.8777 11.24 -23.748)" gradientUnits="userSpaceOnUse" xlink:href="#linearGradient1343"/>
<linearGradient id="linearGradient3286" x1="111.46" x2="102.63" y1="95.322" y2="83.838" gradientTransform="matrix(1.8777 0 0 1.8777 -212.21 -138.62)" gradientUnits="userSpaceOnUse">
<stop stop-color="#ffc41d" offset="0"/>
<stop stop-color="#ffef92" offset="1"/>
</linearGradient>
<linearGradient id="linearGradient3296" x1="111.33" x2="102.63" y1="95.189" y2="83.838" gradientTransform="matrix(1.8777 0 0 1.8777 -212.21 -138.62)" gradientUnits="userSpaceOnUse" xlink:href="#linearGradient869"/>
<linearGradient id="linearGradient1014-3" x1="-15.932" x2="14.068" y1="25.481" y2="25.481" gradientUnits="userSpaceOnUse">
<stop stop-color="#edb00d" offset="0"/>
<stop stop-color="#f6eda4" offset=".37533"/>
<stop stop-color="#e8a701" offset=".68767"/>
<stop stop-color="#e2a000" offset="1"/>
</linearGradient>
<linearGradient id="linearGradient991-1" x1="-13.386" x2="10.258" y1="6.2108" y2="12.485" gradientUnits="userSpaceOnUse">
<stop stop-color="#ffffd7" offset="0"/>
<stop stop-color="#fbf4be" offset=".60214"/>
<stop stop-color="#fbf6c5" offset="1"/>
</linearGradient>
<linearGradient id="linearGradient1004-9" x1="8.0296" x2="-12.93" y1="45.818" y2="6.0156" gradientUnits="userSpaceOnUse">
<stop stop-color="#83602a" offset="0"/>
<stop stop-color="#deca8e" offset="1"/>
</linearGradient>
<filter id="filter1020" x="-.11525" y="-.10161" width="1.2305" height="1.2032" color-interpolation-filters="sRGB">
<feGaussianBlur stdDeviation="10.205246"/>
</filter>
</defs>
<g transform="translate(-12.568)">
<path d="m172.31 8c-22.833 0-43.494 2.8983-58.672 7.6445-7.5892 2.3731-13.813 5.1967-18.324 8.5117-4.5109 3.3151-7.5098 7.3476-7.5098 11.992v74.326h-40.824a2.6653 2.6653 0 0 0-2.666 2.6641v116.51a2.6653 2.6653 0 0 0 2.6445 2.6641l13.305 0.10938v13.215a2.6653 2.6653 0 0 0 2.6445 2.6641l90.611 0.75a2.6653 2.6653 0 0 0 2.6855-2.666v-8.8867c5.2136 0.32325 10.592 0.5 16.105 0.5 22.833 0 43.5-2.8977 58.684-7.6856 7.5916-2.3939 13.821-5.2507 18.334-8.6152 3.5688-2.6608 5.7055-5.896 6.6426-9.4102a2.6444 2.6444 0 0 0 0.80664-1.9004v-0.6914c9.4e-4 -0.0587 0.0508-0.1071 0.0508-0.16602a2.6444 2.6444 0 0 0-0.0508-0.49609l0.041-172.84c3e-3 -4.6527-2.9996-8.7007-7.5098-12.023-4.5101-3.3227-10.725-6.1452-18.314-8.5215-15.178-4.7525-35.851-7.6543-58.684-7.6543z" fill-rule="evenodd" filter="url(#filter1020)"/>
<g transform="translate(1.2675)">
<g transform="matrix(5.2888 0 0 5.2888 166.08 -19.761)" fill-rule="evenodd">
<path d="m14.527 41.842c0 2.6959-6.9304 4.8814-15.48 4.8814-8.5491 0-15.48-2.1855-15.48-4.8026v-32.862c0-2.6366 6.9304-4.822 15.48-4.822 8.5491 0 15.48 2.1855 15.478 4.8309l-0.0068 32.935" fill="url(#linearGradient1014-3)"/>
<path d="m14.527 9.1186a15.48 4.8814 0 0 1-15.48 4.8814 15.48 4.8814 0 0 1-15.48-4.8814 15.48 4.8814 0 0 1 15.48-4.8814 15.48 4.8814 0 0 1 15.48 4.8814" fill="url(#linearGradient991-1)"/>
<path d="m-0.95312 3.7363c-4.3172 0-8.2238 0.5479-11.094 1.4453-1.435 0.4487-2.6119 0.98256-3.4648 1.6094-0.85292 0.62681-1.4199 1.3894-1.4199 2.2676v32.863c0 0.87496 0.56714 1.6341 1.4199 2.2578 0.85279 0.62374 2.03 1.1541 3.4648 1.6016 2.8696 0.89482 6.7766 1.4434 11.094 1.4434 4.3172 0 8.2249-0.54783 11.096-1.4531 1.4354-0.45264 2.6135-0.99274 3.4668-1.6289 0.67479-0.50309 1.0787-1.1148 1.2559-1.7793a0.5 0.5 0 0 0 0.15234-0.35938v-0.13086c1.77e-4 -0.0111 0.0098-0.02011 0.0098-0.03125a0.5 0.5 0 0 0-0.0098-0.09375l0.0078-32.68c5.62e-4 -0.87972-0.56714-1.6452-1.4199-2.2734-0.85277-0.62825-2.028-1.162-3.4629-1.6113-2.8699-0.8986-6.7785-1.4473-11.096-1.4473zm0 1c4.232 0 8.0646 0.54684 10.797 1.4023 1.3661 0.42775 2.4565 0.93537 3.1699 1.4609 0.71338 0.52556 1.012 1.0257 1.0117 1.4688l-0.0078 32.787c-0.0056 0.45636-0.29914 0.95943-1.0059 1.4863-0.71333 0.53182-1.8041 1.0439-3.1699 1.4746-2.7317 0.86142-6.563 1.4082-10.795 1.4082s-8.064-0.54625-10.797-1.3984c-1.3664-0.42609-2.4561-0.93102-3.1699-1.4531s-1.0117-1.0176-1.0117-1.4512v-32.863c0-0.4401 0.29802-0.93839 1.0117-1.4629 0.71369-0.5245 1.8036-1.0318 3.1699-1.459 2.7326-0.85447 6.5649-1.4004 10.797-1.4004z" color="#000000" color-rendering="auto" dominant-baseline="auto" fill="url(#linearGradient1004-9)" image-rendering="auto" shape-rendering="auto" solid-color="#000000" stop-color="#000000" style="font-feature-settings:normal;font-variant-alternates:normal;font-variant-caps:normal;font-variant-east-asian:normal;font-variant-ligatures:normal;font-variant-numeric:normal;font-variant-position:normal;font-variation-settings:normal;inline-size:0;isolation:auto;mix-blend-mode:normal;shape-margin:0;shape-padding:0;text-decoration-color:#000000;text-decoration-line:none;text-decoration-style:solid;text-indent:0;text-orientation:mixed;text-transform:none;white-space:normal"/>
</g>
<g transform="translate(20.476)">
<g transform="matrix(5.33 0 0 5.33 120.8 6.5033)">
<path d="m-19.806 18.506h16.892l-1.16e-4 21.86h-16.892z" fill="url(#linearGradient3286)" style="paint-order:normal"/>
<path d="m-19.806 18.506h17v22l-17-0.13998z" fill="none" stroke="url(#linearGradient3296)" stroke-linejoin="round" style="paint-order:normal"/>
</g>
<g transform="matrix(5.33 0 0 5.33 -171.72 278.36)">
<path d="m38.068-29.5h16.892l-1.16e-4 21.86h-16.892z" fill="url(#linearGradient1832-9-2)" style="paint-order:normal"/>
<g fill="none">
<path d="m54.068-29v20" stroke="url(#linearGradient1848-0-9)"/>
<path d="m53.568-8.5h-15" stroke="url(#linearGradient1850-2-8)"/>
<path d="m39.068-9v-20" stroke="url(#linearGradient1852-3-8)"/>
</g>
<path d="m53.568-28.5h-14" fill="#e8ebee" stroke="url(#linearGradient1854-7-3)"/>
<g fill="none">
<path d="m38.068-29.5h17v22l-17-0.13999z" stroke="url(#linearGradient1834-1-8)" stroke-linejoin="round" style="paint-order:normal"/>
<g stroke-linecap="round">
<path d="m41.068-23h11" stroke="url(#linearGradient1393)"/>
<path d="m41.068-21h11" stroke="url(#linearGradient1377)"/>
<path d="m41.068-13h8" stroke="url(#linearGradient1409)"/>
<path d="m41.068-19h11" stroke="url(#linearGradient1377-1)"/>
<path d="m41.068-17h11" stroke="url(#linearGradient1377-1-5)"/>
<path d="m41.068-15h11" stroke="url(#linearGradient1377-1-4)"/>
</g>
</g>
</g>
</g>
</g>
</g>
</svg>
