<svg version="1.1" viewBox="0 0 256 256" xmlns="http://www.w3.org/2000/svg">
<defs>
<radialGradient id="gradient0-0" cx="0" cy="0" r="819.2" gradientTransform="matrix(.11247 0 0 .11247 185.4 144.07)" gradientUnits="userSpaceOnUse">
<stop stop-color="#cfc" offset="0"/>
<stop stop-color="#090" offset="1"/>
</radialGradient>
<linearGradient id="gradient1-2" x1="-819.2" x2="819.2" gradientTransform="matrix(-.0037851 .041636 .034066 .0027037 194.05 171.92)" gradientUnits="userSpaceOnUse">
<stop stop-color="#9cf" offset="0"/>
<stop stop-color="#9cf" offset=".094118"/>
<stop stop-color="#fff" offset=".39608"/>
<stop stop-color="#cff" offset="1"/>
</linearGradient>
<radialGradient id="gradient2-5" cx="0" cy="0" r="819.2" gradientTransform="matrix(.14978 0 0 .14978 189.46 37.55)" gradientUnits="userSpaceOnUse">
<stop stop-color="#ff9" offset="0"/>
<stop stop-color="#fc6" offset=".24314"/>
<stop stop-color="#f93" offset=".71373"/>
<stop stop-color="#960" offset="1"/>
</radialGradient>
<linearGradient id="gradient3-6" x1="-819.2" x2="819.2" gradientTransform="matrix(0 .011896 .05191 0 198.65 66.749)" gradientUnits="userSpaceOnUse">
<stop stop-color="#f93" offset="0"/>
<stop stop-color="#f93" offset=".48627"/>
<stop stop-color="#fc6" offset="1"/>
</linearGradient>
<radialGradient id="gradient4-5" cx="0" cy="0" r="819.2" gradientTransform="matrix(.086517 0 0 .086517 192.7 32.413)" gradientUnits="userSpaceOnUse">
<stop stop-color="#f0ddbd" offset="0"/>
<stop stop-color="#d8a650" offset=".38039"/>
<stop stop-color="#960" offset=".81961"/>
<stop stop-color="#926821" offset="1"/>
</radialGradient>
<linearGradient id="gradient5-4" x1="-819.2" x2="819.2" gradientTransform="matrix(-.040555 .018926 .014059 .030281 200.27 58.097)" gradientUnits="userSpaceOnUse">
<stop stop-color="#960" offset="0"/>
<stop stop-color="#f0ddbd" offset=".34118"/>
<stop stop-color="#d8a650" offset=".67843"/>
<stop stop-color="#960" offset="1"/>
</linearGradient>
<radialGradient id="gradient6-8" cx="0" cy="0" r="819.2" gradientTransform="matrix(.11247 0 0 .11247 89.962 157.32)" gradientUnits="userSpaceOnUse">
<stop stop-color="#9cf" offset="0"/>
<stop stop-color="#5465fd" offset=".62353"/>
<stop stop-color="#0236b0" offset="1"/>
</radialGradient>
<linearGradient id="gradient7-3" x1="-819.2" x2="819.2" gradientTransform="matrix(.0037851 .041096 .034066 -.0027037 89.151 181.38)" gradientUnits="userSpaceOnUse">
<stop stop-color="#5465fd" offset="0"/>
<stop stop-color="#9cf" offset=".3098"/>
<stop stop-color="#cff" offset="1"/>
</linearGradient>
<radialGradient id="gradient8-2" cx="0" cy="0" r="819.2" gradientTransform="matrix(.14816 0 0 .14816 89.422 51.068)" gradientUnits="userSpaceOnUse">
<stop stop-color="#fc6" offset="0"/>
<stop stop-color="#f93" offset=".3451"/>
<stop stop-color="#600" offset="1"/>
</radialGradient>
<linearGradient id="gradient9-8" x1="-819.2" x2="819.2" gradientTransform="matrix(.0021629 .010815 .05191 -.010274 88.611 78.105)" gradientUnits="userSpaceOnUse">
<stop stop-color="#900" offset="0"/>
<stop stop-color="#f93" offset=".92549"/>
<stop stop-color="#f93" offset="1"/>
</linearGradient>
<linearGradient id="gradient10-6" x1="-819.2" x2="819.2" gradientTransform="matrix(0 .075162 .060021 0 82.663 101.09)" gradientUnits="userSpaceOnUse">
<stop stop-color="#960" offset="0"/>
<stop stop-color="#600" offset="1"/>
</linearGradient>
<radialGradient id="gradient11-4" cx="0" cy="0" r="819.2" gradientTransform="matrix(.14275 0 0 .14275 71.848 47.283)" gradientUnits="userSpaceOnUse">
<stop stop-color="#999" offset="0"/>
<stop stop-color="#666" offset=".18039"/>
<stop offset=".87843"/>
<stop offset="1"/>
</radialGradient>
<linearGradient id="gradient12-50" x1="-819.2" x2="819.2" gradientTransform="matrix(-.04434 .005948 .0010815 .0086517 79.689 62.153)" gradientUnits="userSpaceOnUse">
<stop stop-color="#333" offset="0"/>
<stop stop-color="#bdbdbd" offset=".40784"/>
<stop stop-color="#999" offset=".58431"/>
<stop stop-color="#333" offset="1"/>
</linearGradient>
<filter id="filter1044" x="-.098212" y="-.11995" width="1.1964" height="1.2399" color-interpolation-filters="sRGB">
<feGaussianBlur stdDeviation="10.0128"/>
</filter>
</defs>
<g transform="translate(-12.568)">
<path d="m204.95 33.292c-13.693 0.07524-25.236 6.0409-33.85 17.357-8.2275 9.9352-12.934 22.826-14.124 38.447-1.2944 16.642 1.4833 31.627 8.4092 44.731 1.9097 3.6284 4.2739 6.4507 6.6298 9.2837-1.6361 0.36199-3.2462 0.69404-4.9723 1.1795-13.31 3.6987-22.914 9.1198-28.482 16.676-0.16009 0.21564-0.26937 0.42503-0.41691 0.6406-3.2309-1.383-6.5758-2.7125-10.463-3.7928h-0.0104c-0.0354-0.01-0.0469-0.0109-0.0814-0.0203l-0.0406-0.23387c2.7684-3.1529 5.5121-6.3408 7.7279-10.463v-0.0104c7.1088-13.281 9.9989-28.45 8.7043-45.279-0.93666-12.578-4.1234-23.417-9.5176-32.498-4.6333-10.471-13.095-17.84-24.79-21.699-3.0926-1.1328-6.3462-1.9074-9.7413-2.3286-2.03e-4 -3.3e-5 -0.02759 2.9e-4 -0.03072 0-3e-3 -2.98e-4 -0.02499-0.0096-0.03072-0.01015h-0.01041c-0.12844-0.02062-0.2879-0.01041-0.41691-0.03051-0.0052-4.9e-5 -0.01614-8.5e-5 -0.0203 0-4.3659-0.67833-9.0205-1.088-14.103-1.088-14.044 0-27.052 5.5909-38.619 16.412l-0.0095 0.01041c-10.799 10.24-18.116 22.629-21.842 36.972-3.9115 15.087-2.827 28.552 3.4979 39.86 7.0948 12.837 19.942 20.607 37.582 23.224-4.754 2.1582-9.479 4.4035-13.839 7.5958-9.0459 6.596-15.945 15.415-20.621 26.265-5.0654 11.819-5.4155 22.285-0.37623 30.566 1.5994 2.7086 4.554 3.9858 8.6024 5.1452 4.054 1.161 9.4016 2.0241 16.168 2.6641h0.03051c12.977 1.0967 27.277 0.99705 42.9-0.27452h0.01041c17.643-1.5238 31.569-3.9447 41.914-7.3619 9.2685-3.0616 15.364-7.113 18.832-12.314 10.143 2.9262 21.997 5.0885 36.413 6.162 15.621 1.4502 29.933 1.5448 42.921 0.26437 6.7596-0.63986 12.106-1.5066 16.158-2.6641 4.0481-1.1566 7.0023-2.4253 8.6024-5.135 5.0393-8.2814 4.6892-18.747-0.37626-30.566v-0.0104l-0.0104-0.0104c-4.676-10.661-11.567-19.363-20.591-25.95-4.1-3.0658-8.5418-5.288-13.015-7.4229 1.583-1.3669 3.1863-2.6111 4.7181-4.2504l0.0104-0.0104c9.729-10.477 16.255-23.678 19.584-39.392v-0.0104c1.0914-5.0576 1.6886-9.897 1.8913-14.571h-2.054l2.0743-0.05102 0.31523-0.01041c-2e-4 -0.0354 2.6e-4 -0.06622 0-0.10168-9.9e-4 -0.02291-9e-3 -0.01822-0.0104-0.04061-0.0208-2.695-0.17185-5.2448-0.3864-7.7076v-0.05102c-0.0484-0.67608-0.11777-1.2933-0.17285-1.8506l-0.0104-0.0203v-0.01041c-0.0843-0.76873-0.17472-1.5587-0.28473-2.3489v-0.01041c-0.13874-1.0083-0.2929-2.0336-0.48808-3.0607-0.23292-1.2787-0.49672-2.4999-0.78296-3.6911l-0.0104-0.0203-0.0104-0.03072-0.0104-0.01041c-4.5206-18.731-16.728-30.934-35.589-35.416h-0.0104c-1.6348-0.38684-3.3247-0.72461-5.0626-1.0045h-0.0307c-2.8716-0.42374-5.6659-0.63517-8.3785-0.62027z" color="#000000" color-rendering="auto" dominant-baseline="auto" filter="url(#filter1044)" image-rendering="auto" shape-rendering="auto" solid-color="#000000" stop-color="#000000" style="font-feature-settings:normal;font-variant-alternates:normal;font-variant-caps:normal;font-variant-east-asian:normal;font-variant-ligatures:normal;font-variant-numeric:normal;font-variant-position:normal;font-variation-settings:normal;inline-size:0;isolation:auto;mix-blend-mode:normal;shape-margin:0;shape-padding:0;text-decoration-color:#000000;text-decoration-line:none;text-decoration-style:solid;text-indent:0;text-orientation:mixed;text-transform:none;white-space:normal"/>
<g stroke-width="5.4073">
<path d="m144.85 200.85q16.222 5.6777 41.636 7.5702 23.251 2.1629 42.447 0.27037 20.007-1.8926 22.711-6.4888 6.7592-11.085-0.54073-28.118-6.7592-15.411-19.737-24.874-30.011-22.44-73.269-10.274-19.466 5.4073-27.037 15.681-7.8406 10.544-5.948 30.011 1.0815 9.7332 19.737 16.222" fill="url(#gradient0-0)" fill-rule="evenodd"/>
<path d="m144.85 200.85q-18.655-6.4888-19.737-16.222-1.8926-19.466 5.948-30.011 7.5702-10.274 27.037-15.681 43.259-12.166 73.269 10.274 12.978 9.4628 19.737 24.874 7.2999 17.033 0.54073 28.118-2.7037 4.5962-22.711 6.4888-19.196 1.8926-42.447-0.27037-25.414-1.8926-41.636-7.5702z" fill="none" stroke="#060" stroke-linecap="round" stroke-linejoin="round"/>
<path d="m221.36 144.07q-12.707-7.5702-30.281-7.5702l-17.574-1.0815-7.8406 1.0815q-5.137 30.281 12.707 67.321 22.711-39.473 42.988-59.751" fill="url(#gradient1-2)" fill-rule="evenodd"/>
<path d="m221.36 144.07q-20.277 20.277-42.988 59.751-17.844-37.04-12.707-67.321l7.8406-1.0815 17.574 1.0815q17.574 0 30.281 7.5702z" fill="none" stroke="#060" stroke-linecap="round" stroke-linejoin="round"/>
<path d="m188.92 147.59q18.385 2.4333 33.796-14.059 14.059-15.14 18.926-38.122 5.137-23.792-3.2444-41.636-9.1924-20.277-32.985-24.333-24.603-4.3259-39.744 12.437-13.789 14.6-15.681 39.473-1.8926 24.333 8.111 43.259 10.815 20.548 30.822 22.981" fill="url(#gradient2-5)" fill-rule="evenodd"/>
<path d="m188.92 147.59q-20.007-2.4333-30.822-22.981-10.004-18.926-8.111-43.259 1.8926-24.874 15.681-39.473 15.14-16.763 39.744-12.437 23.792 4.0555 32.985 24.333 8.3814 17.844 3.2444 41.636-4.8666 22.981-18.926 38.122-15.411 16.492-33.796 14.059z" fill="none" stroke="#960" stroke-linecap="round" stroke-linejoin="round"/>
</g>
<g fill-rule="evenodd" stroke-width="5.4073">
<path d="m241.1 75.401q-12.437-27.577-44.61-15.411-27.577 10.544-40.285-2.1629 21.9 28.118 44.61 15.14 17.574-10.004 40.285 2.4333" fill="url(#gradient3-6)"/>
<path d="m243.8 81.349q-0.27037-46.233-40.555-52.721-32.985-4.8666-48.125 30.551 5.948 7.2999 20.277 10.004 7.5702 1.6222 14.059-1.3518 10.004-4.5962 21.359-6.2184 15.681-2.1629 25.414 7.0295 7.2999 6.4888 7.5702 12.707" fill="url(#gradient4-5)"/>
<path d="m180.43 68.281 14.615-4.7392c5.948-2.8839 10.937-4.6459 17.786-4.6459 15.321 0 25.023 5.1496 28.268 18.668 1.8024-11.896-3.2444-20.368-15.14-25.414-12.978-5.5876-24.063-6.3085-33.255-2.1629l-9.4628 5.6777c-3.4246 2.3432-6.0382 3.695-7.8406 4.0555-5.0468 1.2617-8.832 1.2617-11.355 0l-2.1629-1.6222-1.6222-0.8111c0-2.7037-0.72098-2.8839-2.1629-0.54073-1.442 2.5234-1.5321 4.3259-0.27037 5.4073 2.1629 1.8024 5.5876 3.2444 10.274 4.3259" fill="url(#gradient5-4)"/>
</g>
<g stroke-width="5.4073">
<path d="m243.48 81.358c-0.18023-4.1456-2.3872-8.39-7.2538-12.716-6.4888-6.1283-14.96-8.4715-25.414-7.0295-7.5702 1.0815-14.69 3.1543-21.359 6.2184-4.3258 1.9827-9.0122 2.4333-14.059 1.3518-9.5529-1.8024-16.312-5.137-20.277-10.004 10.094-23.612 26.135-33.796 48.125-30.551 26.856 4.3259 40.058 21.908 40.238 52.73z" fill="none" stroke="#960" stroke-linecap="round" stroke-linejoin="round"/>
<path d="m46.434 222.21q19.196 1.6222 42.447-0.27036 59.481-5.137 61.373-24.063 1.8926-19.196-5.948-29.74-7.5702-10.274-27.037-15.681-42.988-12.166-73.269 10.004-12.978 9.4628-19.737 25.144-7.2999 17.033-0.54073 28.118 2.7037 4.5962 22.711 6.4888" fill="url(#gradient6-8)" fill-rule="evenodd"/>
<path d="m46.434 222.21q19.196 1.6222 42.447-0.27036 59.481-5.137 61.373-24.063 1.8926-19.196-5.948-29.74-7.5702-10.274-27.037-15.681-42.988-12.166-73.269 10.004-12.978 9.4628-19.737 25.144-7.2999 17.033-0.54073 28.118 2.7037 4.5962 22.711 6.4888z" fill="none" stroke="#0236b0" stroke-linecap="round" stroke-linejoin="round"/>
<path d="m89.962 151.1q-17.574 0-30.281 7.5702 20.277 20.277 43.529 58.399 17.303-35.688 12.166-65.969l-7.8406-1.0815-17.574 1.0815" fill="url(#gradient7-3)" fill-rule="evenodd"/>
<path d="m89.962 151.1q-17.574 0-30.281 7.5702 20.277 20.277 43.529 58.399 17.303-35.688 12.166-65.969l-7.8406-1.0815z" fill="none" stroke="#0236b0" stroke-linecap="round" stroke-linejoin="round"/>
</g>
<g fill-rule="evenodd" stroke-width="5.4073">
<path d="m74.011 43.227q-23.792 4.0555-33.255 24.063-8.3813 17.574-3.5148 40.825 4.8666 22.711 18.926 37.581 15.14 16.222 33.525 14.059 20.007-2.4333 30.822-22.981 10.274-18.655 8.3813-42.447-1.8926-24.603-15.14-38.933-15.411-16.492-39.744-12.166" fill="url(#gradient8-2)"/>
<path d="m129.44 81.619q-6.2184-24.063-44.61-8.3813-27.577 11.355-44.34 7.8406 31.362 11.896 53.803 1.3518 16.763-8.111 35.148-0.8111" fill="url(#gradient9-8)"/>
<path d="m131.6 94.056q-1.8926-25.414-15.952-40.555-15.952-17.574-41.907-12.978-24.874 4.3259-34.877 25.144-8.9221 18.385-3.7851 42.718 4.8666 23.792 19.737 39.203 15.952 16.763 35.418 14.329 21.359-2.4333 32.985-24.063 10.274-19.196 8.3813-43.799m-4.8666 0.27037q1.6222 23.251-7.8406 41.096-10.544 19.196-29.2 21.629-17.303 2.1629-31.633-13.248-13.518-14.6-18.115-36.229-4.5962-22.44 3.2444-39.203 8.9221-19.196 31.362-22.981 23.251-3.7851 37.581 11.355 12.978 13.789 14.6 37.581" fill="url(#gradient10-6)"/>
<path d="m126.19 77.834q-3.7851-38.933-50.558-38.933-20.007 0-36.77 15.681-15.681 14.87-21.089 35.688-5.6777 21.9 3.2444 37.851 10.004 18.115 35.688 21.9 11.355 0.54073 14.329-4.8666-24.063-4.5962-20.818-35.418 1.0815-11.355 5.6777-21.089 4.5962-9.4628 8.9221-10.004 10.544-1.0815 22.17-6.4888 10.004-4.8666 18.115-4.5962 16.222 0.27037 21.089 10.274" fill="url(#gradient11-4)"/>
</g>
<path d="m126.19 77.834q-3.7851-38.933-50.558-38.933-20.007 0-36.77 15.681-15.681 14.87-21.089 35.688-5.6777 21.9 3.2444 37.851 10.004 18.115 35.688 21.9 11.355 0.54073 14.329-4.8666-24.063-4.5962-20.818-35.418 1.0815-11.355 5.6777-21.089 4.5962-9.4628 8.9221-10.004 10.544-1.0815 22.17-6.4888 10.004-4.8666 18.115-4.5962 16.222 0.27037 21.089 10.274z" fill="none" stroke="#000" stroke-linecap="round" stroke-linejoin="round" stroke-width="5.4073"/>
<path d="m89.151 62.964q6.7591-3.7851 18.115-1.6222l8.3813 1.3518q-5.137-9.7332-16.222-10.544-9.1924-0.54073-18.926 4.8666-6.2184 3.5148-18.115 7.2999l-17.033 4.3259q-4.5962 0.54073-1.6222 1.6222l9.7332 1.0815q20.277 0.54073 35.688-8.3813" fill="url(#gradient12-50)" fill-rule="evenodd" stroke-width="5.4073"/>
</g>
</svg>
