<svg version="1.1" viewBox="0 0 256 256" xmlns="http://www.w3.org/2000/svg" xmlns:xlink="http://www.w3.org/1999/xlink">
<defs>
<linearGradient id="linearGradient915" x1="-56.432" x2="-56.432" y1="44" y2="1" gradientTransform="translate(-3.0383)" gradientUnits="userSpaceOnUse">
<stop stop-color="#dab000" offset="0"/>
<stop stop-color="#f7f700" offset="1"/>
</linearGradient>
<radialGradient id="radialGradient967" cx="-57.594" cy="39.448" r="3.4962" gradientTransform="matrix(1.1619,-1.1619,1.1619,1.1619,-36.51,-73.308)" gradientUnits="userSpaceOnUse">
<stop stop-color="#fff3ff" offset="0"/>
<stop stop-color="#190439" offset=".5"/>
<stop stop-color="#010001" offset="1"/>
</radialGradient>
<radialGradient id="radialGradient979" cx="-58.816" cy="23.44" r="3.5" gradientTransform="matrix(1,0,0,3.6537,0,-60.37)" gradientUnits="userSpaceOnUse">
<stop stop-color="#9886ba" offset="0"/>
<stop stop-color="#1b053a" offset=".5"/>
<stop stop-color="#010001" offset="1"/>
</radialGradient>
<linearGradient id="linearGradient995" x1="-62.932" x2="-62.432" y1="40" y2="10.5" gradientUnits="userSpaceOnUse">
<stop stop-color="#ffd202" offset="0"/>
<stop stop-color="#fff801" offset="1"/>
</linearGradient>
<filter id="filter997" x="-.048231" y="-.047772" width="1.0965" height="1.0955" color-interpolation-filters="sRGB">
<feGaussianBlur stdDeviation="0.66069923"/>
</filter>
<filter id="filter1001" x="-.048908" y="-.040308" width="1.0978" height="1.0806" color-interpolation-filters="sRGB">
<feGaussianBlur stdDeviation="0.65249604"/>
</filter>
<filter id="filter1886" x="-.10987" y="-.10619" width="1.2197" height="1.2124" color-interpolation-filters="sRGB">
<feGaussianBlur stdDeviation="10.436246"/>
</filter>
<linearGradient id="linearGradient1832" x1="111.46" x2="102.63" y1="95.322" y2="83.838" gradientTransform="translate(-88.178 -83.548)" gradientUnits="userSpaceOnUse">
<stop stop-color="#9cf" offset="0"/>
<stop stop-color="#fff" offset="1"/>
</linearGradient>
<linearGradient id="linearGradient1836" x1="8.7312" x2="7.5419" y1="1.9844" y2=".69043" gradientTransform="translate(14.155)" gradientUnits="userSpaceOnUse">
<stop stop-color="#2da8ff" offset="0"/>
<stop stop-color="#74c0ff" offset="1"/>
</linearGradient>
<linearGradient id="linearGradient1838" x1="7.276" x2="7.276" y1="1.8521" y2=".26458" gradientTransform="translate(14.155)" gradientUnits="userSpaceOnUse">
<stop stop-color="#9bceff" offset="0"/>
<stop stop-color="#c9fcff" offset="1"/>
</linearGradient>
<linearGradient id="linearGradient1840" x1="7.4083" x2="8.9958" y1="1.9844" y2="1.9844" gradientTransform="translate(14.155)" gradientUnits="userSpaceOnUse">
<stop stop-color="#0096fc" offset="0"/>
<stop stop-color="#0068ce" offset="1"/>
</linearGradient>
<linearGradient id="linearGradient1842" x1="7.0115" x2="7.0115" y1="2.1167" gradientTransform="translate(14.155)" gradientUnits="userSpaceOnUse">
<stop stop-color="#6983b6" offset="0"/>
<stop stop-color="#7ca0d3" offset="1"/>
</linearGradient>
<linearGradient id="linearGradient1846" x1="7.1438" x2="8.7312" y1="2.5135" y2="2.5135" gradientTransform="translate(14.155)" gradientUnits="userSpaceOnUse">
<stop stop-color="#ddd" offset="0"/>
<stop stop-color="#9cf" offset="1"/>
</linearGradient>
<linearGradient id="linearGradient1848" x1="8.8635" x2="8.8635" y1="2.6458" y2="11.377" gradientTransform="translate(14.155)" gradientUnits="userSpaceOnUse">
<stop stop-color="#9fa0ff" offset="0"/>
<stop stop-color="#cbcaff" offset="1"/>
</linearGradient>
<linearGradient id="linearGradient1850" x1=".26458" x2="8.7312" y1="11.509" y2="11.509" gradientTransform="translate(14.155)" gradientUnits="userSpaceOnUse">
<stop stop-color="#ccccf2" offset="0"/>
<stop stop-color="#ccf" offset="1"/>
</linearGradient>
<linearGradient id="linearGradient1852" x1=".39688" x2=".39688" y1="11.377" y2=".26458" gradientTransform="translate(14.155)" gradientUnits="userSpaceOnUse">
<stop stop-color="#ccc" offset="0"/>
<stop stop-color="#fff" offset="1"/>
</linearGradient>
<linearGradient id="linearGradient1854" x1=".52917" x2="6.8792" y1=".39687" y2=".39687" gradientTransform="translate(14.155)" gradientUnits="userSpaceOnUse">
<stop stop-color="#fff" offset="0"/>
<stop stop-color="#ddd" offset="1"/>
</linearGradient>
<linearGradient id="linearGradient1834" x1="111.33" x2="102.63" y1="95.189" y2="83.838" gradientTransform="translate(-88.178 -83.548)" gradientUnits="userSpaceOnUse">
<stop stop-color="#343467" offset="0"/>
<stop stop-color="#99cbfe" offset="1"/>
</linearGradient>
<filter id="filter1949" x="-.12343" y="-.096" width="1.2469" height="1.192" color-interpolation-filters="sRGB">
<feGaussianBlur stdDeviation="9.5938333"/>
</filter>
</defs>
<path d="m42.095 8s-0.09098 1.193-0.09164 2.6641v234.52c6.6e-4 1.471 1.193 2.6634 2.6641 2.6641h181.22c1.471-6.7e-4 2.6634-1.193 2.6641-2.6641v-194.54c4.8e-4 -0.67476-0.25498-1.3246-0.71485-1.8184l-40.059-39.975c-0.50396-0.5394-1.2091-0.84563-1.9473-0.8457h-5.3301z" color="#000000" color-rendering="auto" dominant-baseline="auto" filter="url(#filter1949)" image-rendering="auto" shape-rendering="auto" solid-color="#000000" stop-color="#000000" style="font-feature-settings:normal;font-variant-alternates:normal;font-variant-caps:normal;font-variant-east-asian:normal;font-variant-ligatures:normal;font-variant-numeric:normal;font-variant-position:normal;font-variation-settings:normal;inline-size:0;isolation:auto;mix-blend-mode:normal;paint-order:normal;shape-margin:0;shape-padding:0;text-decoration-color:#000000;text-decoration-line:none;text-decoration-style:solid;text-indent:0;text-orientation:mixed;text-transform:none;white-space:normal"/>
<g transform="matrix(20.145 0 0 20.145 -253.15 .00083592)">
<path d="m14.288 0.13229h7.0115l1.9844 2.1167v9.525h-8.9958z" fill="url(#linearGradient1832)" style="paint-order:normal"/>
<path d="m21.167 0.13229v2.1167l2.1167-0.13229-1.8521-1.9844z" fill="url(#linearGradient1836)"/>
<g>
<path d="m21.431 2.1167v-1.8521" fill="none" stroke="url(#linearGradient1838)" stroke-width=".26458px"/>
<path d="m23.151 1.9844h-1.9844" fill="none" stroke="url(#linearGradient1840)" stroke-width=".26458px"/>
<path d="m21.034 2.249h2.3812" fill-opacity="0" stroke="#667eb1" stroke-width=".26458"/>
<path d="m21.167 0v2.1167" fill="#7494c7" stroke="url(#linearGradient1842)" stroke-width=".26458"/>
</g>
<g fill="none" stroke-width=".26458px">
<path d="m21.299 2.5135h1.8521" stroke="url(#linearGradient1846)"/>
<path d="m23.019 2.3813v8.9958" stroke="url(#linearGradient1848)"/>
<path d="m22.886 11.509h-8.4667" stroke="url(#linearGradient1850)"/>
<path d="m14.552 11.377v-11.112" stroke="url(#linearGradient1852)"/>
</g>
<path d="m21.034 0.39688h-6.35" fill="#e8ebee" stroke="url(#linearGradient1854)" stroke-width=".26458px"/>
<path d="m14.288 0.13229h7.0115l1.9844 1.9844v9.6573h-8.9958z" fill="none" stroke="url(#linearGradient1834)" stroke-linejoin="round" stroke-width=".26467" style="paint-order:normal"/>
<rect x="21.299" y="1.8521" width=".26458" height=".26458" fill="#4db3ff"/>
</g>
<g transform="matrix(.59755 0 0 .59755 51.229 73.001)">
<path d="m213.16 54.811c-7.604 0.08631-14.492 4.5028-17.744 11.377l-92.756 196.12c-6.2356 13.188 3.3831 28.378 17.971 28.377h188.17c14.678-6e-3 24.287-15.372 17.867-28.572l-95.406-196.12c-3.363-6.9122-10.411-11.265-18.098-11.18z" color="#000000" color-rendering="auto" dominant-baseline="auto" filter="url(#filter1886)" image-rendering="auto" shape-rendering="auto" solid-color="#000000" stop-color="#000000" style="font-feature-settings:normal;font-variant-alternates:normal;font-variant-caps:normal;font-variant-east-asian:normal;font-variant-ligatures:normal;font-variant-numeric:normal;font-variant-position:normal;font-variation-settings:normal;inline-size:0;isolation:auto;mix-blend-mode:normal;shape-margin:0;shape-padding:0;text-decoration-color:#000000;text-decoration-line:none;text-decoration-style:solid;text-indent:0;text-orientation:mixed;text-transform:none;white-space:normal"/>
<g transform="matrix(5.3004,0,0,5.3004,510.6,40.486)">
<g shape-rendering="auto">
<path d="m-59.513 0.25c-1.4346 0.016284-2.7342 0.84957-3.3477 2.1465l-17.5 37c-1.1764 2.488 0.63848 5.3536 3.3906 5.3535h35.5c2.7693-0.0012 4.5823-2.9002 3.3711-5.3906l-18-37c-0.63447-1.3041-1.9639-2.1255-3.4141-2.1094z" color="#000000" color-rendering="auto" dominant-baseline="auto" fill="url(#linearGradient915)" image-rendering="auto" solid-color="#000000" stop-color="#000000" style="font-feature-settings:normal;font-variant-alternates:normal;font-variant-caps:normal;font-variant-east-asian:normal;font-variant-ligatures:normal;font-variant-numeric:normal;font-variant-position:normal;font-variation-settings:normal;inline-size:0;isolation:auto;mix-blend-mode:normal;shape-margin:0;shape-padding:0;text-decoration-color:#000000;text-decoration-line:none;text-decoration-style:solid;text-indent:0;text-orientation:mixed;text-transform:none;white-space:normal"/>
<path d="m-59.471 0.90019s-1.9721 4.4519-2.4225 5.4041l-12.848 30.265c-0.86374 1.8267-0.7194 2.6601 1.3012 2.66l28.341 0.52167c2.0332-8.81e-4 2.2758-1.3805 1.3866-3.209l-13.216-30.265c-0.46583-0.95745-2.5419-5.3768-2.5419-5.3768z" color="#000000" color-rendering="auto" dominant-baseline="auto" fill="#ffff5c" filter="url(#filter1001)" image-rendering="auto" solid-color="#000000" stop-color="#000000" style="font-feature-settings:normal;font-variant-alternates:normal;font-variant-caps:normal;font-variant-east-asian:normal;font-variant-ligatures:normal;font-variant-numeric:normal;font-variant-position:normal;font-variation-settings:normal;inline-size:0;isolation:auto;mix-blend-mode:normal;shape-margin:0;shape-padding:0;text-decoration-color:#000000;text-decoration-line:none;text-decoration-style:solid;text-indent:0;text-orientation:mixed;text-transform:none;white-space:normal"/>
<path d="m-59.471 7.3084s-1.9721 4.2667-2.4225 5.2189l-13.776 26.254c-0.86374 1.8267 1.396 1.7189 3.4167 1.7188h26.064c2.0332-8.81e-4 3.866-0.17042 2.9768-1.9989l-13.717-26.001c-0.46583-0.95745-2.5419-5.1916-2.5419-5.1916z" color="#000000" color-rendering="auto" dominant-baseline="auto" fill="url(#linearGradient995)" filter="url(#filter997)" image-rendering="auto" solid-color="#000000" stop-color="#000000" style="font-feature-settings:normal;font-variant-alternates:normal;font-variant-caps:normal;font-variant-east-asian:normal;font-variant-ligatures:normal;font-variant-numeric:normal;font-variant-position:normal;font-variation-settings:normal;inline-size:0;isolation:auto;mix-blend-mode:normal;shape-margin:0;shape-padding:0;text-decoration-color:#000000;text-decoration-line:none;text-decoration-style:solid;text-indent:0;text-orientation:mixed;text-transform:none;white-space:normal"/>
</g>
<path d="m-62.971 16.5c0-6 7-6 7 0 0 4-3.5 16-3.5 16s-3.5-12-3.5-16z" fill="url(#radialGradient979)"/>
<circle cx="-59.474" cy="37.39" r="3.4962" fill="url(#radialGradient967)" fill-rule="evenodd" stop-color="#000000"/>
</g>
</g>
</svg>
