<svg version="1.1" viewBox="0 0 256 256" xmlns="http://www.w3.org/2000/svg" xmlns:xlink="http://www.w3.org/1999/xlink">
<defs>
<linearGradient id="linearGradient915" x1="-56.432" x2="-56.432" y1="44" y2="1" gradientTransform="translate(-3.0383)" gradientUnits="userSpaceOnUse">
<stop stop-color="#dab000" offset="0"/>
<stop stop-color="#f7f700" offset="1"/>
</linearGradient>
<radialGradient id="radialGradient967" cx="-57.594" cy="39.448" r="3.4962" gradientTransform="matrix(1.1619,-1.1619,1.1619,1.1619,-36.51,-73.308)" gradientUnits="userSpaceOnUse">
<stop stop-color="#fff3ff" offset="0"/>
<stop stop-color="#190439" offset=".5"/>
<stop stop-color="#010001" offset="1"/>
</radialGradient>
<radialGradient id="radialGradient979" cx="-58.816" cy="23.44" r="3.5" gradientTransform="matrix(1,0,0,3.6537,0,-60.37)" gradientUnits="userSpaceOnUse">
<stop stop-color="#9886ba" offset="0"/>
<stop stop-color="#1b053a" offset=".5"/>
<stop stop-color="#010001" offset="1"/>
</radialGradient>
<linearGradient id="linearGradient995" x1="-62.932" x2="-62.432" y1="40" y2="10.5" gradientUnits="userSpaceOnUse">
<stop stop-color="#ffd202" offset="0"/>
<stop stop-color="#fff801" offset="1"/>
</linearGradient>
<filter id="filter997" x="-.048231" y="-.047772" width="1.0965" height="1.0955" color-interpolation-filters="sRGB">
<feGaussianBlur stdDeviation="0.66069923"/>
</filter>
<filter id="filter1001" x="-.048908" y="-.040308" width="1.0978" height="1.0806" color-interpolation-filters="sRGB">
<feGaussianBlur stdDeviation="0.65249604"/>
</filter>
<filter id="filter1886" x="-.10987" y="-.10619" width="1.2197" height="1.2124" color-interpolation-filters="sRGB">
<feGaussianBlur stdDeviation="10.436246"/>
</filter>
<filter id="filter930" x="-.10857" y="-.10743" width="1.2171" height="1.2149" color-interpolation-filters="sRGB">
<feGaussianBlur stdDeviation="8.4751423"/>
</filter>
<linearGradient id="linearGradient1620" x1="-17.462" x2="-17.44" y1="8.599" y2="4.9201" gradientTransform="matrix(5.33,0,0,5.33,137.86,6.5878)" gradientUnits="userSpaceOnUse">
<stop stop-color="#fd7" offset="0"/>
<stop stop-color="#ff9" offset="1"/>
</linearGradient>
<linearGradient id="linearGradient1707" x1="-31.672" x2="-31.69" y1="14.21" y2="8.919" gradientTransform="matrix(5.33,0,0,5.33,214.22,-24.407)" gradientUnits="userSpaceOnUse">
<stop stop-color="#ffda74" offset="0"/>
<stop stop-color="#fffe98" offset=".5"/>
<stop stop-color="#ffffd8" offset="1"/>
</linearGradient>
</defs>
<g transform="matrix(.91906 0 0 .91906 -11.909 -.53608)">
<path transform="matrix(1.2054,0,0,1.2054,-4.492,-29.789)" d="m100.11 39.561a2.6653 2.6653 0 0 0-0.26562 0.01172l-53.301 5.3301a2.6653 2.6653 0 0 0-2.0645 1.3574l-13.324 23.984a2.6653 2.6653 0 0 0-0.33203 1.4316l6.9961 135.26-0.87109 19.166a2.6653 2.6653 0 0 0 3.2656 2.7168l0.58008-0.13477a2.6653 2.6653 0 0 0 1.3203 0.0137l26.355-6.4707 131.65-30.717a2.6653 2.6653 0 0 0 2.0273-2.1797l-0.01 0.0781 0.36132-0.0898a2.6653 2.6653 0 0 0 2.0117-2.2734l13.641-115.08a2.6653 2.6653 0 0 0-1.4551-2.6973l-10.66-5.3301a2.6653 2.6653 0 0 0-1.6543-0.24219l-2.8711 0.50586-0.12695-6.0449a2.6653 2.6653 0 0 0-0.7793-1.8281l-5.3301-5.3301a2.6653 2.6653 0 0 0-2.248-0.75586l-75.732 10.447-15.047-20.066a2.6653 2.6653 0 0 0-2.1328-1.0645z" color="#000000" color-rendering="auto" dominant-baseline="auto" filter="url(#filter930)" image-rendering="auto" shape-rendering="auto" solid-color="#000000" stop-color="#000000" style="font-feature-settings:normal;font-variant-alternates:normal;font-variant-caps:normal;font-variant-east-asian:normal;font-variant-ligatures:normal;font-variant-numeric:normal;font-variant-position:normal;font-variation-settings:normal;inline-size:0;isolation:auto;mix-blend-mode:normal;shape-margin:0;shape-padding:0;text-decoration-color:#000000;text-decoration-line:none;text-decoration-style:solid;text-indent:0;text-orientation:mixed;text-transform:none;white-space:normal"/>
<g transform="matrix(4.5557,0,0,4.5557,-66.747,-33.789)">
<path d="m62.412 12.934-20.448 2.8205-4.2307-5.6409-14.102 1.4102-3.5256 6.346 2.1154 40.897 42.307-10.577-0.70511-33.846z" fill="url(#linearGradient1620)"/>
<path d="m63.262 14.225-21.837 2.909-4.3094-5.569-12.643 1.2727-3.0187 5.3814 1.3081 28.041" fill="none" stroke="#fff9ec" stroke-linecap="round" stroke-width="1.4102"/>
<path d="m62.412 12.934-20.448 2.8205-4.2307-5.6409-14.102 1.4102-3.5256 6.346 2.1154 40.897 42.307-10.577-0.70511-33.846z" fill="none" stroke="#c90" stroke-linejoin="round" stroke-width="1.4102"/>
<path d="m21.725 58.797 1.4102-31.025 14.102-2.8205 4.2307-4.2307 23.974-4.2307 2.8205 1.4102-4.2307 31.025z" fill="url(#linearGradient1707)"/>
<g fill="none">
<path d="m67.558 19.31-2.1153-1.4102-23.269 4.2307-4.2307 4.2307-13.397 2.8205-1.4102 28.205"/>
<path d="m63.925 18.172 0.73491 30.187" stroke="#fc6" stroke-width="1.4102px"/>
<path d="m67.666 19.166-2.4864-1.2343-23.044 4.0492-4.3242 3.9704-10.793 1.4737-1.6689 1.4333-1.7528 29.126" stroke="#fff9ec" stroke-width="1.4102px"/>
<path d="m26.445 26.125 10.834-1.4663 4.1891-3.9381 23.974-4.2307 2.8205 1.4102-3.6089 30.448-42.434 10.419 1.8119-30.613z" stroke="#c90" stroke-linecap="round" stroke-linejoin="round" stroke-width="1.4102"/>
</g>
</g>
</g>
<g transform="matrix(.59755 0 0 .59755 51.229 73.001)">
<path d="m213.16 54.811c-7.604 0.08631-14.492 4.5028-17.744 11.377l-92.756 196.12c-6.2356 13.188 3.3831 28.378 17.971 28.377h188.17c14.678-6e-3 24.287-15.372 17.867-28.572l-95.406-196.12c-3.363-6.9122-10.411-11.265-18.098-11.18z" color="#000000" color-rendering="auto" dominant-baseline="auto" filter="url(#filter1886)" image-rendering="auto" shape-rendering="auto" solid-color="#000000" stop-color="#000000" style="font-feature-settings:normal;font-variant-alternates:normal;font-variant-caps:normal;font-variant-east-asian:normal;font-variant-ligatures:normal;font-variant-numeric:normal;font-variant-position:normal;font-variation-settings:normal;inline-size:0;isolation:auto;mix-blend-mode:normal;shape-margin:0;shape-padding:0;text-decoration-color:#000000;text-decoration-line:none;text-decoration-style:solid;text-indent:0;text-orientation:mixed;text-transform:none;white-space:normal"/>
<g transform="matrix(5.3004,0,0,5.3004,510.6,40.486)">
<g shape-rendering="auto">
<path d="m-59.513 0.25c-1.4346 0.016284-2.7342 0.84957-3.3477 2.1465l-17.5 37c-1.1764 2.488 0.63848 5.3536 3.3906 5.3535h35.5c2.7693-0.0012 4.5823-2.9002 3.3711-5.3906l-18-37c-0.63447-1.3041-1.9639-2.1255-3.4141-2.1094z" color="#000000" color-rendering="auto" dominant-baseline="auto" fill="url(#linearGradient915)" image-rendering="auto" solid-color="#000000" stop-color="#000000" style="font-feature-settings:normal;font-variant-alternates:normal;font-variant-caps:normal;font-variant-east-asian:normal;font-variant-ligatures:normal;font-variant-numeric:normal;font-variant-position:normal;font-variation-settings:normal;inline-size:0;isolation:auto;mix-blend-mode:normal;shape-margin:0;shape-padding:0;text-decoration-color:#000000;text-decoration-line:none;text-decoration-style:solid;text-indent:0;text-orientation:mixed;text-transform:none;white-space:normal"/>
<path d="m-59.471 0.90019s-1.9721 4.4519-2.4225 5.4041l-12.848 30.265c-0.86374 1.8267-0.7194 2.6601 1.3012 2.66l28.341 0.52167c2.0332-8.81e-4 2.2758-1.3805 1.3866-3.209l-13.216-30.265c-0.46583-0.95745-2.5419-5.3768-2.5419-5.3768z" color="#000000" color-rendering="auto" dominant-baseline="auto" fill="#ffff5c" filter="url(#filter1001)" image-rendering="auto" solid-color="#000000" stop-color="#000000" style="font-feature-settings:normal;font-variant-alternates:normal;font-variant-caps:normal;font-variant-east-asian:normal;font-variant-ligatures:normal;font-variant-numeric:normal;font-variant-position:normal;font-variation-settings:normal;inline-size:0;isolation:auto;mix-blend-mode:normal;shape-margin:0;shape-padding:0;text-decoration-color:#000000;text-decoration-line:none;text-decoration-style:solid;text-indent:0;text-orientation:mixed;text-transform:none;white-space:normal"/>
<path d="m-59.471 7.3084s-1.9721 4.2667-2.4225 5.2189l-13.776 26.254c-0.86374 1.8267 1.396 1.7189 3.4167 1.7188h26.064c2.0332-8.81e-4 3.866-0.17042 2.9768-1.9989l-13.717-26.001c-0.46583-0.95745-2.5419-5.1916-2.5419-5.1916z" color="#000000" color-rendering="auto" dominant-baseline="auto" fill="url(#linearGradient995)" filter="url(#filter997)" image-rendering="auto" solid-color="#000000" stop-color="#000000" style="font-feature-settings:normal;font-variant-alternates:normal;font-variant-caps:normal;font-variant-east-asian:normal;font-variant-ligatures:normal;font-variant-numeric:normal;font-variant-position:normal;font-variation-settings:normal;inline-size:0;isolation:auto;mix-blend-mode:normal;shape-margin:0;shape-padding:0;text-decoration-color:#000000;text-decoration-line:none;text-decoration-style:solid;text-indent:0;text-orientation:mixed;text-transform:none;white-space:normal"/>
</g>
<path d="m-62.971 16.5c0-6 7-6 7 0 0 4-3.5 16-3.5 16s-3.5-12-3.5-16z" fill="url(#radialGradient979)"/>
<circle cx="-59.474" cy="37.39" r="3.4962" fill="url(#radialGradient967)" fill-rule="evenodd" stop-color="#000000"/>
</g>
</g>
</svg>
