<svg version="1.1" viewBox="0 0 256 256" xmlns="http://www.w3.org/2000/svg">
<defs>
<linearGradient id="linearGradient2219" x1="7.7286" x2="-19.308" y1="-2.8029" y2="-2.8029" gradientTransform="matrix(8.0829 0 0 8.0829 174.67 63.83)" gradientUnits="userSpaceOnUse">
<stop stop-color="#333367" offset="0"/>
<stop stop-color="#039" offset="1"/>
</linearGradient>
<linearGradient id="linearGradient2227" x1="-16.273" x2="9.4448" y1="-3.1811" y2="-3.1811" gradientTransform="matrix(8.0829 0 0 8.0829 155.47 61.56)" gradientUnits="userSpaceOnUse">
<stop stop-color="#0082d6" offset="0"/>
<stop stop-color="#00359a" offset="1"/>
</linearGradient>
<linearGradient id="linearGradient2235" x1="9.0951" x2="-17.941" y1="23.453" y2="4.0003" gradientTransform="matrix(1.5165,0,0,1.5165,44.775,4.4337)" gradientUnits="userSpaceOnUse">
<stop stop-color="#343467" offset="0"/>
<stop stop-color="#99cbfe" offset="1"/>
</linearGradient>
<linearGradient id="linearGradient2243" x1="9.4448" x2="-16.432" y1="18.91" gradientTransform="matrix(1.5165,0,0,1.5165,43.245,10.324)" gradientUnits="userSpaceOnUse">
<stop stop-color="#9cf" offset="0"/>
<stop stop-color="#fff" offset="1"/>
</linearGradient>
<linearGradient id="linearGradient1848-0-9-5" x1="8.6532" x2="8.6532" y1=".93112" y2="15.576" gradientTransform="matrix(1.8777,0,0,1.8777,41.319,9.2516)" gradientUnits="userSpaceOnUse">
<stop stop-color="#9fa0ff" offset="0"/>
<stop stop-color="#cbcaff" offset="1"/>
</linearGradient>
<linearGradient id="linearGradient1850-2-8-9" x1=".13229" x2="20.636" y1="11.316" y2="11.316" gradientTransform="matrix(1.8777,0,0,1.8777,18.319,17.752)" gradientUnits="userSpaceOnUse">
<stop stop-color="#ccccf2" offset="0"/>
<stop stop-color="#ccf" offset="1"/>
</linearGradient>
<linearGradient id="linearGradient1364" x1="-21.455" x2="5.2031" y1="30.997" y2="45.3" gradientTransform="matrix(2.3687 0 0 2.3687 380.17 -13.729)" gradientUnits="userSpaceOnUse">
<stop stop-color="#babbba" offset="0"/>
<stop stop-color="#fff" offset=".26183"/>
<stop stop-color="#a1a1a1" offset=".60686"/>
<stop stop-color="#fefefe" offset="1"/>
</linearGradient>
<linearGradient id="linearGradient1396" x1="-14.374" x2="-.71644" y1="61.198" y2="60.966" gradientTransform="matrix(2.3687 0 0 2.3687 380.17 -13.729)" gradientUnits="userSpaceOnUse">
<stop stop-color="#adadad" offset="0"/>
<stop stop-color="#434343" offset="1"/>
</linearGradient>
<linearGradient id="linearGradient1404" x1="-15.815" x2=".60015" y1="88.887" y2="88.887" gradientTransform="matrix(2.3687 0 0 2.3687 380.17 -13.729)" gradientUnits="userSpaceOnUse">
<stop stop-color="#fe281e" offset="0"/>
<stop stop-color="#ffad5d" offset=".5"/>
<stop stop-color="#fe1e1e" offset="1"/>
</linearGradient>
<filter id="filter2083" x="-.18886" y="-.075623" width="1.3777" height="1.1512" color-interpolation-filters="sRGB">
<feGaussianBlur stdDeviation="7.1768126"/>
</filter>
<filter id="filter2663" x="-.10221" y="-.11448" width="1.2044" height="1.229" color-interpolation-filters="sRGB">
<feGaussianBlur stdDeviation="9.5340674"/>
</filter>
</defs>
<path d="m28.611 30.523a2.6653 2.6653 0 0 0-2.666 2.6641v31.98a2.6653 2.6653 0 0 0 2e-3 0.0039v162.56a2.6653 2.6653 0 0 0 2.6641 2.666h218.53a2.6653 2.6653 0 0 0 2.666-2.666v-194.54a2.6653 2.6653 0 0 0-2.666-2.6641z" color="#000000" fill="#111" filter="url(#filter2663)" stroke-linecap="round" stroke-linejoin="round" stroke-width="5.33" style="-inkscape-stroke:none"/>
<g transform="matrix(5.33,0,0,5.33,-75.026,6.5326)">
<path d="m58.568 9.5v30.5h-41v-30.5z" fill="url(#linearGradient2243)" stroke="url(#linearGradient2235)" stroke-linecap="round" stroke-linejoin="round"/>
<path d="m57.568 10v28.5" fill="none" stroke="url(#linearGradient1848-0-9-5)"/>
<path d="m57.068 39h-39" fill="none" stroke="url(#linearGradient1850-2-8-9)"/>
</g>
<path d="m18.611 25.188h218.53v31.98h-218.53z" fill="url(#linearGradient2227)" stroke="url(#linearGradient2219)" stroke-linecap="round" stroke-linejoin="round" stroke-width="5.33"/>
<g transform="matrix(.90631 0 0 .90631 -150.81 7.7877)">
<path d="m383.22 38.543v40.717c-0.0175 0.02214-0.0409 0.06633-0.19141 0.19531-0.36785 0.31527-1.1138 0.77242-2.0781 1.1875-1.9285 0.83017-4.7173 1.5434-7.4473 1.8242s-5.4266 0.09745-7.0938-0.50586c-0.83357-0.30165-1.3805-0.68128-1.6836-1.0391-0.30311-0.35778-0.45508-0.68804-0.45508-1.3789v-38.176l-2.6309 0.29297c-6.5783 0.73093-14.62 6.2425-21.584 13.705-6.964 7.4626-12.691 17.01-12.5 26.594 0.20485 10.266 3.3591 18.372 9.0137 23.824 5.1566 4.9719 12.311 7.5042 20.594 7.9316v19.734a23.689 8.8826 0 0 0-9.4414 6.8672h-0.0312l4e-3 0.17773a23.689 8.8826 0 0 0-8e-3 0.043 23.689 8.8826 0 0 0 0.01 0.0547l1.9356 106.51c0.11382 6.2579 3.3735 11.185 7.9004 14.314 4.5269 3.1291 10.275 4.6664 15.979 4.8691 5.7038 0.2027 11.394-0.92087 15.863-3.5469s7.7307-7.07 7.6309-12.693l-1.9414-109.75h-0.0117a23.689 8.8826 0 0 0-7.0957-6.1074v-23.006c7.415-0.94591 14.654-3.8224 20.297-8.4531 6.2016-5.0896 10.498-12.315 10.498-20.824 0-10.815-5.4501-20.65-12.115-28.154-6.6651-7.5046-14.439-12.764-20.424-14.398z" color="#000000" filter="url(#filter2083)" stroke-width="4.7374" style="-inkscape-stroke:none"/>
<path d="m340.06 132.27 1.9424 106.79c0.39967 21.973 42.973 21.974 42.637 3.0274l-1.9424-109.75" fill="url(#linearGradient1404)" stroke="#730000" stroke-width="4.7374"/>
<ellipse cx="361.38" cy="132.54" rx="23.689" ry="8.8826" fill="#730000" fill-rule="evenodd" stroke-width="2.3687"/>
<path d="m349.54 128.39c-2.8095 1.3534-3.468 2.7818-3.9484 4.5626 10.45 3.2631 22.012 3.7279 33.856-1.0095-0.80232-2.1757-1.8051-3.5173-3.8515-4.7374" fill="url(#linearGradient1396)" stroke-width="2.3687"/>
<path d="m375.59 127.21v-26.056c15.376-1.1137 30.793-11.798 30.793-27.24 0-20.018-20.445-37.442-30.793-40.268v37.899c0 4.6014-23.687 9.4748-23.687 0v-35.53c-10.659 1.1844-32.319 20.762-31.977 37.899 0.39164 19.628 11.844 29.609 29.609 29.609v24.871z" fill="url(#linearGradient1364)" stroke="#333434" stroke-width="4.7374"/>
<path d="m349.54 39.216c-21.177 8.7192-27.385 22.066-27.25 35.291 0.13421 13.199 6.9995 23.478 18.588 25.691-14.196-8.294-16.424-19.162-14.922-30.336 1.9339-14.393 16.324-27.889 23.583-30.644z" color="#000000" color-rendering="auto" dominant-baseline="auto" fill="#fff" image-rendering="auto" shape-rendering="auto" solid-color="#000000" stop-color="#000000" stroke-width="2.3687" style="font-feature-settings:normal;font-variant-alternates:normal;font-variant-caps:normal;font-variant-east-asian:normal;font-variant-ligatures:normal;font-variant-numeric:normal;font-variant-position:normal;font-variation-settings:normal;inline-size:0;isolation:auto;mix-blend-mode:normal;shape-margin:0;shape-padding:0;text-decoration-color:#000000;text-decoration-line:none;text-decoration-style:solid;text-indent:0;text-orientation:mixed;text-transform:none;white-space:normal"/>
<g transform="matrix(2.3687 0 0 2.3687 380.17 -13.729)" fill="#fff" shape-rendering="auto">
<path d="m-11.434 59.399v-9.9916" color="#000000" color-rendering="auto" dominant-baseline="auto" image-rendering="auto" solid-color="#000000" stop-color="#000000" style="font-feature-settings:normal;font-variant-alternates:normal;font-variant-caps:normal;font-variant-east-asian:normal;font-variant-ligatures:normal;font-variant-numeric:normal;font-variant-position:normal;font-variation-settings:normal;inline-size:0;isolation:auto;mix-blend-mode:normal;shape-margin:0;shape-padding:0;text-decoration-color:#000000;text-decoration-line:none;text-decoration-style:solid;text-indent:0;text-orientation:mixed;text-transform:none;white-space:normal"/>
<path d="m-11.961 48.51 0.0071 10.458 1.9929-0.07608v-10.382z" color="#000000" color-rendering="auto" dominant-baseline="auto" image-rendering="auto" solid-color="#000000" stop-color="#000000" style="font-feature-settings:normal;font-variant-alternates:normal;font-variant-caps:normal;font-variant-east-asian:normal;font-variant-ligatures:normal;font-variant-numeric:normal;font-variant-position:normal;font-variation-settings:normal;inline-size:0;isolation:auto;mix-blend-mode:normal;shape-margin:0;shape-padding:0;text-decoration-color:#000000;text-decoration-line:none;text-decoration-style:solid;text-indent:0;text-orientation:mixed;text-transform:none;white-space:normal"/>
</g>
</g>
</svg>
