<svg version="1.1" viewBox="0 0 256 256" xmlns="http://www.w3.org/2000/svg" xmlns:xlink="http://www.w3.org/1999/xlink">
<defs>
<linearGradient id="linearGradient2219" x1="7.7286" x2="-19.308" y1="-2.8029" y2="-2.8029" gradientTransform="matrix(8.0829 0 0 8.0829 174.67 63.83)" gradientUnits="userSpaceOnUse">
<stop stop-color="#333367" offset="0"/>
<stop stop-color="#039" offset="1"/>
</linearGradient>
<linearGradient id="linearGradient2227" x1="-16.273" x2="9.4448" y1="-3.1811" y2="-3.1811" gradientTransform="matrix(8.0829 0 0 8.0829 155.47 61.56)" gradientUnits="userSpaceOnUse">
<stop stop-color="#0082d6" offset="0"/>
<stop stop-color="#00359a" offset="1"/>
</linearGradient>
<linearGradient id="linearGradient2235" x1="9.0951" x2="-17.941" y1="23.453" y2="4.0003" gradientTransform="matrix(1.5165,0,0,1.5165,44.775,4.4337)" gradientUnits="userSpaceOnUse">
<stop stop-color="#343467" offset="0"/>
<stop stop-color="#99cbfe" offset="1"/>
</linearGradient>
<linearGradient id="linearGradient2243" x1="9.4448" x2="-16.432" y1="18.91" gradientTransform="matrix(1.5165,0,0,1.5165,43.245,10.324)" gradientUnits="userSpaceOnUse">
<stop stop-color="#9cf" offset="0"/>
<stop stop-color="#fff" offset="1"/>
</linearGradient>
<linearGradient id="linearGradient1848-0-9-5" x1="8.6532" x2="8.6532" y1=".93112" y2="15.576" gradientTransform="matrix(1.8777,0,0,1.8777,41.319,9.2516)" gradientUnits="userSpaceOnUse">
<stop stop-color="#9fa0ff" offset="0"/>
<stop stop-color="#cbcaff" offset="1"/>
</linearGradient>
<linearGradient id="linearGradient1850-2-8-9" x1=".13229" x2="20.636" y1="11.316" y2="11.316" gradientTransform="matrix(1.8777,0,0,1.8777,18.319,17.752)" gradientUnits="userSpaceOnUse">
<stop stop-color="#ccccf2" offset="0"/>
<stop stop-color="#ccf" offset="1"/>
</linearGradient>
<filter id="filter1417" x="-.10221" y="-.11448" width="1.2044" height="1.229" color-interpolation-filters="sRGB">
<feGaussianBlur stdDeviation="9.5340674"/>
</filter>
</defs>
<path d="m28.611 30.523a2.6653 2.6653 0 0 0-2.666 2.6641v31.98a2.6653 2.6653 0 0 0 2e-3 0.0039v162.56a2.6653 2.6653 0 0 0 2.6641 2.666h218.53a2.6653 2.6653 0 0 0 2.666-2.666v-194.54a2.6653 2.6653 0 0 0-2.666-2.6641z" color="#000000" filter="url(#filter1417)" stroke-linecap="round" stroke-linejoin="round" stroke-width="5.33" style="-inkscape-stroke:none"/>
<g transform="matrix(5.33,0,0,5.33,-75.026,6.5326)">
<path d="m58.568 9.5v30.5h-41v-30.5z" fill="url(#linearGradient2243)" stroke="url(#linearGradient2235)" stroke-linecap="round" stroke-linejoin="round"/>
<path d="m57.568 10v28.5" fill="none" stroke="url(#linearGradient1848-0-9-5)"/>
<path d="m57.068 39h-39" fill="none" stroke="url(#linearGradient1850-2-8-9)"/>
</g>
<path d="m18.611 25.188h218.53v31.98h-218.53z" fill="url(#linearGradient2227)" stroke="url(#linearGradient2219)" stroke-linecap="round" stroke-linejoin="round" stroke-width="5.33"/>
</svg>
