<svg version="1.1" viewBox="0 0 256 256" xmlns="http://www.w3.org/2000/svg" xmlns:xlink="http://www.w3.org/1999/xlink">
<defs>
<linearGradient id="linearGradient1620" x1="-17.462" x2="-17.44" y1="8.599" y2="4.9201" gradientTransform="matrix(5.33,0,0,5.33,137.86,6.5878)" gradientUnits="userSpaceOnUse">
<stop stop-color="#fd7" offset="0"/>
<stop stop-color="#ff9" offset="1"/>
</linearGradient>
<linearGradient id="linearGradient1707" x1="-31.672" x2="-31.69" y1="14.21" y2="8.919" gradientTransform="matrix(5.33,0,0,5.33,214.22,-24.407)" gradientUnits="userSpaceOnUse">
<stop stop-color="#ffda74" offset="0"/>
<stop stop-color="#fffe98" offset=".5"/>
<stop stop-color="#ffffd8" offset="1"/>
</linearGradient>
<filter id="filter930" x="-.10857" y="-.10743" width="1.2171" height="1.2149" color-interpolation-filters="sRGB">
<feGaussianBlur stdDeviation="8.4751423"/>
</filter>
<filter id="filter2663" x="-.10221" y="-.11448" width="1.2044" height="1.229" color-interpolation-filters="sRGB">
<feGaussianBlur stdDeviation="9.5340674"/>
</filter>
<linearGradient id="linearGradient2243" x1="9.4448" x2="-16.432" y1="18.91" gradientTransform="matrix(1.5165,0,0,1.5165,43.245,10.324)" gradientUnits="userSpaceOnUse">
<stop stop-color="#9cf" offset="0"/>
<stop stop-color="#fff" offset="1"/>
</linearGradient>
<linearGradient id="linearGradient2235" x1="9.0951" x2="-17.941" y1="23.453" y2="4.0003" gradientTransform="matrix(1.5165,0,0,1.5165,44.775,4.4337)" gradientUnits="userSpaceOnUse">
<stop stop-color="#343467" offset="0"/>
<stop stop-color="#99cbfe" offset="1"/>
</linearGradient>
<linearGradient id="linearGradient1848-0-9-5" x1="8.6532" x2="8.6532" y1=".93112" y2="15.576" gradientTransform="matrix(1.8777,0,0,1.8777,41.319,9.2516)" gradientUnits="userSpaceOnUse">
<stop stop-color="#9fa0ff" offset="0"/>
<stop stop-color="#cbcaff" offset="1"/>
</linearGradient>
<linearGradient id="linearGradient1850-2-8-9" x1=".13229" x2="20.636" y1="11.316" y2="11.316" gradientTransform="matrix(1.8777,0,0,1.8777,18.319,17.752)" gradientUnits="userSpaceOnUse">
<stop stop-color="#ccccf2" offset="0"/>
<stop stop-color="#ccf" offset="1"/>
</linearGradient>
<linearGradient id="linearGradient2227" x1="-16.273" x2="9.4448" y1="-3.1811" y2="-3.1811" gradientTransform="matrix(8.0829,0,0,8.0829,155.47,61.56)" gradientUnits="userSpaceOnUse">
<stop stop-color="#0082d6" offset="0"/>
<stop stop-color="#00359a" offset="1"/>
</linearGradient>
<linearGradient id="linearGradient2219" x1="7.7286" x2="-19.308" y1="-2.8029" y2="-2.8029" gradientTransform="matrix(8.0829,0,0,8.0829,174.67,63.83)" gradientUnits="userSpaceOnUse">
<stop stop-color="#333367" offset="0"/>
<stop stop-color="#039" offset="1"/>
</linearGradient>
</defs>
<g transform="matrix(.91906 0 0 .91906 -11.909 -.53608)">
<path transform="matrix(1.2054,0,0,1.2054,-4.492,-29.789)" d="m100.11 39.561a2.6653 2.6653 0 0 0-0.26562 0.01172l-53.301 5.3301a2.6653 2.6653 0 0 0-2.0645 1.3574l-13.324 23.984a2.6653 2.6653 0 0 0-0.33203 1.4316l6.9961 135.26-0.87109 19.166a2.6653 2.6653 0 0 0 3.2656 2.7168l0.58008-0.13477a2.6653 2.6653 0 0 0 1.3203 0.0137l26.355-6.4707 131.65-30.717a2.6653 2.6653 0 0 0 2.0273-2.1797l-0.01 0.0781 0.36132-0.0898a2.6653 2.6653 0 0 0 2.0117-2.2734l13.641-115.08a2.6653 2.6653 0 0 0-1.4551-2.6973l-10.66-5.3301a2.6653 2.6653 0 0 0-1.6543-0.24219l-2.8711 0.50586-0.12695-6.0449a2.6653 2.6653 0 0 0-0.7793-1.8281l-5.3301-5.3301a2.6653 2.6653 0 0 0-2.248-0.75586l-75.732 10.447-15.047-20.066a2.6653 2.6653 0 0 0-2.1328-1.0645z" color="#000000" color-rendering="auto" dominant-baseline="auto" filter="url(#filter930)" image-rendering="auto" shape-rendering="auto" solid-color="#000000" stop-color="#000000" style="font-feature-settings:normal;font-variant-alternates:normal;font-variant-caps:normal;font-variant-east-asian:normal;font-variant-ligatures:normal;font-variant-numeric:normal;font-variant-position:normal;font-variation-settings:normal;inline-size:0;isolation:auto;mix-blend-mode:normal;shape-margin:0;shape-padding:0;text-decoration-color:#000000;text-decoration-line:none;text-decoration-style:solid;text-indent:0;text-orientation:mixed;text-transform:none;white-space:normal"/>
<g transform="matrix(4.5557,0,0,4.5557,-66.747,-33.789)">
<path d="m62.412 12.934-20.448 2.8205-4.2307-5.6409-14.102 1.4102-3.5256 6.346 2.1154 40.897 42.307-10.577-0.70511-33.846z" fill="url(#linearGradient1620)"/>
<path d="m63.262 14.225-21.837 2.909-4.3094-5.569-12.643 1.2727-3.0187 5.3814 1.3081 28.041" fill="none" stroke="#fff9ec" stroke-linecap="round" stroke-width="1.4102"/>
<path d="m62.412 12.934-20.448 2.8205-4.2307-5.6409-14.102 1.4102-3.5256 6.346 2.1154 40.897 42.307-10.577-0.70511-33.846z" fill="none" stroke="#c90" stroke-linejoin="round" stroke-width="1.4102"/>
<path d="m21.725 58.797 1.4102-31.025 14.102-2.8205 4.2307-4.2307 23.974-4.2307 2.8205 1.4102-4.2307 31.025z" fill="url(#linearGradient1707)"/>
<g fill="none">
<path d="m67.558 19.31-2.1153-1.4102-23.269 4.2307-4.2307 4.2307-13.397 2.8205-1.4102 28.205"/>
<path d="m63.925 18.172 0.73491 30.187" stroke="#fc6" stroke-width="1.4102px"/>
<path d="m67.666 19.166-2.4864-1.2343-23.044 4.0492-4.3242 3.9704-10.793 1.4737-1.6689 1.4333-1.7528 29.126" stroke="#fff9ec" stroke-width="1.4102px"/>
<path d="m26.445 26.125 10.834-1.4663 4.1891-3.9381 23.974-4.2307 2.8205 1.4102-3.6089 30.448-42.434 10.419 1.8119-30.613z" stroke="#c90" stroke-linecap="round" stroke-linejoin="round" stroke-width="1.4102"/>
</g>
</g>
</g>
<g transform="matrix(.66759 0 0 .66759 83.713 95.084)">
<path d="m28.611 30.523a2.6653 2.6653 0 0 0-2.666 2.6641v31.98a2.6653 2.6653 0 0 0 2e-3 0.0039v162.56a2.6653 2.6653 0 0 0 2.6641 2.666h218.53a2.6653 2.6653 0 0 0 2.666-2.666v-194.54a2.6653 2.6653 0 0 0-2.666-2.6641z" color="#000000" fill="#111" filter="url(#filter2663)" stroke-linecap="round" stroke-linejoin="round" stroke-width="5.33" style="-inkscape-stroke:none"/>
<g transform="matrix(5.33,0,0,5.33,-75.026,6.5326)">
<path d="m58.568 9.5v30.5h-41v-30.5z" fill="url(#linearGradient2243)" stroke="url(#linearGradient2235)" stroke-linecap="round" stroke-linejoin="round"/>
<path d="m57.568 10v28.5" fill="none" stroke="url(#linearGradient1848-0-9-5)"/>
<path d="m57.068 39h-39" fill="none" stroke="url(#linearGradient1850-2-8-9)"/>
</g>
<path d="m18.611 25.188h218.53v31.98h-218.53z" fill="url(#linearGradient2227)" stroke="url(#linearGradient2219)" stroke-linecap="round" stroke-linejoin="round" stroke-width="5.33"/>
</g>
</svg>
