<svg version="1.1" viewBox="0 0 256 256" xmlns="http://www.w3.org/2000/svg" xmlns:xlink="http://www.w3.org/1999/xlink">
<defs>
<linearGradient id="linearGradient1260">
<stop stop-color="#ddd" offset="0"/>
<stop stop-color="#fff" offset=".29126"/>
<stop stop-color="#999" offset=".71651"/>
<stop stop-color="#9999c1" offset="1"/>
</linearGradient>
<linearGradient id="linearGradient1244" x1="-69.865" x2="-71.28" y1="26.488" y2="45.987" gradientTransform="matrix(.99985 0 0 .97063 -2.7071 -4.8961)" gradientUnits="userSpaceOnUse">
<stop stop-color="#d2d2d2" offset="0"/>
<stop stop-color="#999" offset=".2"/>
<stop stop-color="#fefefe" offset="1"/>
</linearGradient>
<linearGradient id="linearGradient1262" x1="-60.783" x2="-60.783" y1="22.459" y2="44.747" gradientUnits="userSpaceOnUse" xlink:href="#linearGradient1260"/>
<linearGradient id="linearGradient1289" x1="-54.693" x2="-54.693" y1="26.506" y2="41.963" gradientUnits="userSpaceOnUse" xlink:href="#linearGradient1260"/>
<linearGradient id="linearGradient1297" x1="-53.147" x2="-35.619" y1="67.819" y2="66.492" gradientUnits="userSpaceOnUse">
<stop stop-color="#86bff9" offset="0"/>
<stop stop-color="#06c" offset=".62956"/>
<stop stop-color="#839fe4" offset="1"/>
</linearGradient>
<linearGradient id="linearGradient1307" x1="-39.851" x2="-48.858" y1="46.394" y2="46.394" gradientUnits="userSpaceOnUse">
<stop stop-color="#d2d2d2" offset="0"/>
<stop stop-color="#999" offset=".6"/>
<stop stop-color="#fefefe" offset="1"/>
</linearGradient>
<linearGradient id="linearGradient1325" x1="-47.534" x2="-8.2331" y1="26.286" y2="34.136" gradientUnits="userSpaceOnUse">
<stop stop-color="#9c9c9d" offset="0"/>
<stop stop-color="#efefef" offset="1"/>
</linearGradient>
<linearGradient id="linearGradient1335" x1="-49.587" x2="-52.184" y1="43.515" y2="24.325" gradientUnits="userSpaceOnUse">
<stop stop-color="#999" offset="0"/>
<stop stop-color="#fff" offset="1"/>
</linearGradient>
<linearGradient id="linearGradient1348" x1="-22.712" x2="-51.827" y1="24.086" y2="24.178" gradientUnits="userSpaceOnUse">
<stop stop-color="#d2d2d2" offset="0"/>
<stop stop-color="#999" offset=".32344"/>
<stop stop-color="#fefefe" offset="1"/>
</linearGradient>
<linearGradient id="linearGradient1364" x1="-21.455" x2="5.2031" y1="30.997" y2="45.3" gradientUnits="userSpaceOnUse">
<stop stop-color="#babbba" offset="0"/>
<stop stop-color="#fff" offset=".26183"/>
<stop stop-color="#a1a1a1" offset=".60686"/>
<stop stop-color="#fefefe" offset="1"/>
</linearGradient>
<linearGradient id="linearGradient1396" x1="-14.374" x2="-.71644" y1="61.198" y2="60.966" gradientUnits="userSpaceOnUse">
<stop stop-color="#adadad" offset="0"/>
<stop stop-color="#434343" offset="1"/>
</linearGradient>
<linearGradient id="linearGradient1404" x1="-15.815" x2=".60015" y1="88.887" y2="88.887" gradientUnits="userSpaceOnUse">
<stop stop-color="#fe281e" offset="0"/>
<stop stop-color="#ffad5d" offset=".5"/>
<stop stop-color="#fe1e1e" offset="1"/>
</linearGradient>
<filter id="filter1241" x="-.11412" y="-.10251" width="1.2282" height="1.205" color-interpolation-filters="sRGB">
<feGaussianBlur stdDeviation="10.335964"/>
</filter>
</defs>
<g transform="translate(-12.568)">
<path d="m223.73 8v40.717c-0.0175 0.02214-0.0409 0.06634-0.1914 0.19531-0.36785 0.31527-1.1139 0.77242-2.0781 1.1875-1.9285 0.83016-4.7174 1.5434-7.4473 1.8242s-5.4266 0.09744-7.0938-0.50586c-0.83356-0.30165-1.3785-0.68128-1.6816-1.0391-0.3031-0.35778-0.45704-0.68805-0.45704-1.3789v-2.1953c0.66282 0.51014 1.3298 1.0415 2.0098 1.625 1.0771 0.92435 2.2686 1.2334 3.4824 1.3242 1.2138 0.09081 2.5099-0.03674 3.7441-0.89844s1.9882-2.8675 1.5527-4.5195c-0.43552-1.652-1.5177-3.1021-3.3066-4.8262-2.4057-2.3185-4.9123-4.4733-7.4824-6.4844v-22.201l-2.6309 0.29297c-5.2891 0.58767-11.517 4.2939-17.377 9.5918-12.943-6.1732-25.573-9.1971-34.361-9.6035-16.66-0.77042-54.854 3.5645-54.854 3.5645l-2.1055 0.23633v3.5625c-3.0886-2.8364-6.8615-4.5435-11.121-4.1582l-22.867 2.0684c-7.2499 0.65581-12.294 5.5145-14.914 11.742s-3.1792 13.896-2.2441 21.354c0.93505 7.4571 3.3654 14.709 7.1914 20.078 3.826 5.3693 9.4606 8.9643 15.938 7.8379l27.24-4.7383c3.6481-0.63446 6.3831-2.9503 8.293-6.0938 0.49834-0.09806 0.98759-0.22444 1.4648-0.38086l8.7852 4.5508v6.4902a23.682 10.77 0 0 0-9.4512 8.4883h-0.0234l1.8027 150.27c0.0596 4.9732 3.6214 8.6931 8.1035 10.863 4.4821 2.1702 10.105 3.1564 15.723 3.1582 5.6175 2e-3 11.219-0.98047 15.662-3.1523s7.9443-5.93 7.8848-10.898l-1.8028-150.42h-0.0176a23.682 10.77 0 0 0-9.457-8.3125v-6.3691l9.9648-0.625 0.54101-1.4316s2.8711-7.5638 8.4219-15.031c2.8989-3.8999 6.4624-7.6651 10.643-10.348-0.77411 2.6369-1.2001 5.3201-1.1465 8.0078 0.20485 10.266 3.3592 18.372 9.0137 23.824 5.157 4.9722 12.313 7.5026 20.596 7.9297v19.736a23.689 8.8825 0 0 0-9.4414 6.8652h-0.0332l4e-3 0.18946a23.689 8.8825 0 0 0-6e-3 0.0332 23.689 8.8825 0 0 0 6e-3 0.043l1.9375 106.52c0.11382 6.2577 3.3736 11.183 7.9004 14.312 4.5268 3.129 10.275 4.6664 15.979 4.8691 5.7037 0.20269 11.392-0.91899 15.861-3.5449 4.4693-2.6259 7.7323-7.0721 7.6328-12.695l-1.9414-109.74h-0.0117a23.689 8.8825 0 0 0-7.0957-6.1055v-23.008c7.4148-0.94592 14.655-3.8206 20.297-8.4512 6.2015-5.0895 10.496-12.315 10.496-20.824 0-10.815-5.4483-20.648-12.113-28.152s-14.439-12.766-20.424-14.4z" color="#000000" filter="url(#filter1241)" stroke-width="4.7373" style="-inkscape-stroke:none"/>
<g transform="matrix(2.3687 0 0 2.3687 220.67 -44.271)">
<g>
<path d="m-35.432 51.432 0.76097 63.505c0.07863 6.5619-17.921 6.5619-18-0.0113l-0.76097-63.442" fill="url(#linearGradient1297)" stroke="#333434" stroke-width="2"/>
<ellipse cx="-44.432" cy="51.547" rx="9.9982" ry="4.5469" fill="#333434" fill-rule="evenodd"/>
<path d="m-49.432 44.5v7.2083c0 4.8249 10 3.6109 10 0v-7.2083" fill="url(#linearGradient1307)" stroke="#333434" stroke-width="2"/>
<path d="m-16.932 61.638 0.82001 45.084c0.16873 9.2766 18.142 9.2769 18 1.2781l-0.82001-46.332" fill="url(#linearGradient1404)" stroke="#730000" stroke-width="2"/>
<ellipse cx="-7.9323" cy="61.75" rx="10.001" ry="3.75" fill="#730000" fill-rule="evenodd"/>
<path d="m-12.932 60c-1.1861 0.57136-1.4641 1.1744-1.6669 1.9262 4.4117 1.3776 9.2929 1.5738 14.293-0.4262-0.33872-0.91853-0.76205-1.4849-1.626-2" fill="url(#linearGradient1396)"/>
<path d="m-1.9323 59.5v-11c6.4914-0.47019 13-4.9808 13-11.5 0-8.451-8.6315-15.807-13-17v16c0 1.9426-10 4-10 0v-15c-4.5 0.5-13.644 8.7653-13.5 16 0.16534 8.2865 5 12.5 12.5 12.5v10.5z" fill="url(#linearGradient1364)" stroke="#333434" stroke-width="2"/>
<path d="m-12.932 22.352c-8.9402 3.681-11.561 9.3155-11.504 14.899 0.05666 5.5723 2.955 9.9116 7.8475 10.846-5.9933-3.5015-6.9336-8.0898-6.2997-12.807 0.81645-6.0765 6.8914-11.774 9.9562-12.937z" color="#000000" color-rendering="auto" dominant-baseline="auto" fill="#fff" image-rendering="auto" shape-rendering="auto" solid-color="#000000" stop-color="#000000" style="font-feature-settings:normal;font-variant-alternates:normal;font-variant-caps:normal;font-variant-east-asian:normal;font-variant-ligatures:normal;font-variant-numeric:normal;font-variant-position:normal;font-variation-settings:normal;inline-size:0;isolation:auto;mix-blend-mode:normal;shape-margin:0;shape-padding:0;text-decoration-color:#000000;text-decoration-line:none;text-decoration-style:solid;text-indent:0;text-orientation:mixed;text-transform:none;white-space:normal"/>
<path d="m-48.432 45v-19.5l11.322-1.1924 5.3083-0.0793 5.5992 0.2866 6.3358 0.88385 3.5956 1.315 6.2464 4.8006 2.7501 2.2357-0.1958 1.2209-1.5062 0.19534-3.5312-2.3227-4.8746-1.4546-4.0715-0.39176-4.7556 1.5612-3.3585 2.9374-4.1721 5.4307-1.1915 3.0734z" fill="url(#linearGradient1325)"/>
<path d="m-48.432 45-6.9887-3.4375-1.5113-19.063 8.5 3z" fill="url(#linearGradient1335)"/>
<path d="m-48.432 25.5-8.5-3 17.724-1.6366 7.3224 0.2611 6.582 1.5351 7.7306 3.4655-4.7477-1.1173-8.9157-0.95542-12.579 0.68133z" fill="url(#linearGradient1348)"/>
</g>
<path d="m-48.432 45v-19.5s17.471-3.517 30.859 0.62508" fill="none" stroke="#333434"/>
<path d="m-48.836 44.873 13.904-0.87309s5.003-13.237 14.5-13c3.8788 0.09686 7.218 0.75448 11 4 0.84845 0.7281 3.7013 0.35005 0.96474-2.2873-8.2009-7.9036-19.373-11.431-25.465-11.713-6.7824-0.31364-23 1.5-23 1.5v18.18z" fill="none" stroke="#333434" stroke-width="2"/>
<g>
<path d="m-56.707 25.632c10.993 0.4242 7.7751 16.368 1.2751 16.868" fill="url(#linearGradient1289)" stroke="#333434" stroke-width="2"/>
<path d="m-62.538 22.351c8.4311-0.76266 11.584 21.349 4.1053 22.649l-11.5 2c-9.2011 1.6002-12.983-22.806-2.2598-23.776z" fill="url(#linearGradient1262)" stroke="#333434" stroke-width="2"/>
<ellipse transform="matrix(.99753 -.070229 .074544 .99722 0 0)" cx="-73.879" cy="30.289" rx="6.736" ry="10.92" fill="url(#linearGradient1244)" fill-rule="evenodd"/>
<path d="m-72.018 24.342c-3.95 0-6.0708 5.315-6.1033 9.0253 0.80439-3.151 2.1902-7.4703 6.137-7.6417 4.1988-0.18236 5.9946 3.9609 7.2163 7.2618-0.58078-3.9805-3.0812-8.6454-7.25-8.6454z" color="#000000" color-rendering="auto" dominant-baseline="auto" fill="#fff" fill-rule="evenodd" image-rendering="auto" shape-rendering="auto" solid-color="#000000" stop-color="#000000" style="font-feature-settings:normal;font-variant-alternates:normal;font-variant-caps:normal;font-variant-east-asian:normal;font-variant-ligatures:normal;font-variant-numeric:normal;font-variant-position:normal;font-variation-settings:normal;inline-size:0;isolation:auto;mix-blend-mode:normal;shape-margin:0;shape-padding:0;text-decoration-color:#000000;text-decoration-line:none;text-decoration-style:solid;text-indent:0;text-orientation:mixed;text-transform:none;white-space:normal"/>
<path d="m-0.96132 21.423-0.021422 14.914c-0.055504 0.35844-0.33457 0.84625-0.89872 1.2795-0.57941 0.44497-1.6237 0.95688-2.6137 1.1934-1.6415 0.39226-3.9038 0.6468-5.536 0.28328-2.5557-0.918-0.82219 1.289 2.3746 1.4134 1.0658 0.04147 2.2973-0.03059 3.502-0.23828 1.2047-0.20769 2.3792-0.589 3.3457-1.161 0.96546-0.57133 1.8009-1.5206 1.8027-2.7461 0 0 0.033066-9.1623 0.044922-13.804z" color="#000000" color-rendering="auto" dominant-baseline="auto" fill="#fff" image-rendering="auto" shape-rendering="auto" solid-color="#000000" stop-color="#000000" style="font-feature-settings:normal;font-variant-alternates:normal;font-variant-caps:normal;font-variant-east-asian:normal;font-variant-ligatures:normal;font-variant-numeric:normal;font-variant-position:normal;font-variation-settings:normal;inline-size:0;isolation:auto;mix-blend-mode:normal;shape-margin:0;shape-padding:0;text-decoration-color:#000000;text-decoration-line:none;text-decoration-style:solid;text-indent:0;text-orientation:mixed;text-transform:none;white-space:normal"/>
</g>
<g fill="#fff" shape-rendering="auto">
<path d="m-11.434 59.399v-9.9916" color="#000000" color-rendering="auto" dominant-baseline="auto" image-rendering="auto" solid-color="#000000" stop-color="#000000" style="font-feature-settings:normal;font-variant-alternates:normal;font-variant-caps:normal;font-variant-east-asian:normal;font-variant-ligatures:normal;font-variant-numeric:normal;font-variant-position:normal;font-variation-settings:normal;inline-size:0;isolation:auto;mix-blend-mode:normal;shape-margin:0;shape-padding:0;text-decoration-color:#000000;text-decoration-line:none;text-decoration-style:solid;text-indent:0;text-orientation:mixed;text-transform:none;white-space:normal"/>
<path d="m-11.961 48.51 0.0071 10.458 1.9929-0.07608v-10.382z" color="#000000" color-rendering="auto" dominant-baseline="auto" image-rendering="auto" solid-color="#000000" stop-color="#000000" style="font-feature-settings:normal;font-variant-alternates:normal;font-variant-caps:normal;font-variant-east-asian:normal;font-variant-ligatures:normal;font-variant-numeric:normal;font-variant-position:normal;font-variation-settings:normal;inline-size:0;isolation:auto;mix-blend-mode:normal;shape-margin:0;shape-padding:0;text-decoration-color:#000000;text-decoration-line:none;text-decoration-style:solid;text-indent:0;text-orientation:mixed;text-transform:none;white-space:normal"/>
</g>
</g>
</g>
</svg>
