<svg version="1.1" viewBox="0 0 256 256" xmlns="http://www.w3.org/2000/svg" xmlns:xlink="http://www.w3.org/1999/xlink">
<defs>
<linearGradient id="linearGradient1068">
<stop stop-color="#cacaff" offset="0"/>
<stop stop-color="#6a6ad0" offset="1"/>
</linearGradient>
<linearGradient id="linearGradient1070" x1="-67.433" x2="-67.433" y1="48.84" y2="3.6783" gradientTransform="translate(109.97 -2.0158)" gradientUnits="userSpaceOnUse" xlink:href="#linearGradient1068"/>
<filter id="filter1316" x="-.10499" y="-.11118" width="1.21" height="1.2224" color-interpolation-filters="sRGB">
<feGaussianBlur stdDeviation="10.499308"/>
</filter>
</defs>
<g transform="translate(-12.568)">
<path d="m88.394 17.428c-3.6065 0.16532-7.1706 2.5297-7.8789 3.8789-2.1362 4.0693-0.09311 12.48-2.6348 16.262-1.7151-2.1954-3.5139-4.5449-5.5059-5.4883-1.5931-1.4434-4.1711-2.7153-8.5391-3.3301-6.9505-0.9782-14.28 5.1971-13.646 9.7949 0.83049 6.0235 7.0761 14.36 4.6582 16.98-2.3714 2.5702-13.235-1.3686-16.488-1.6895-4.8231-0.47581-14.237 12.911-9.7129 17.342 4.2101 4.1227 11.49 8.1138 10.797 11.344-1.453 6.7666-11.13 5.2941-15.316 8.3242-2.0756 1.5023-2.5434 15.105 1.5273 18.08 3.2021 2.3399 6.0346 3.0944 8.3379 3.3184 1.7297 0.75768 4.0017 1.1051 6.2344 1.418 0.301 5.1038-6.9016 7.4864-10.379 13.744-2.4473 4.4041 8.5573 23.518 18.469 18.072 1.4125-0.20857 2.6559-0.67416 3.7422-1.2617-0.63272 2.9074-1.7686 6.3768-1.8262 10.584-0.04812 3.5146 9.4995 9.4646 16.301 10.777 2.602 0.81197 5.2498 0.89014 7.0742-0.32617 2.13-1.42 3.39-3.8295 4.4258-6.0488 0.36713 2.5646 0.87808 5.2623 2.3945 7.3496 0.97954 1.3483 4.8276 2.8193 8.6133 3.6992 1.1248 0.53973 2.9448 0.75376 4.9062 0.74414 0.90319 0.0424 1.7249 0.029 2.3066-0.11328 3.0296-0.28637 5.871-1.0512 6.4824-2.0938 2.656-4.5293 2.1581-12.695 4.3887-16.098 1.0489 1.3001 2.2212 2.6253 3.8496 3.7109 2.7655 1.8436 5.7757 3.1819 8.627 3.4688 5.1649 1.7579 14.273-6.3654 14.213-10.746-0.013-0.95282-0.1205-1.8645-0.28906-2.7402 4.0738 3.3378 8.8891 6.5142 8.3184 9.1719-1.453 6.7666-11.128 5.2941-15.314 8.3242-2.0756 1.5023-2.5453 15.105 1.5254 18.08 3.1991 2.3378 6.0318 3.0917 8.334 3.3164 1.7302 0.75924 4.0053 1.1068 6.2402 1.4199 0.30088 5.1037-6.9016 7.4865-10.379 13.744-2.4473 4.4041 8.5573 23.518 18.469 18.072 1.4125-0.20856 2.6559-0.67415 3.7422-1.2617-0.63278 2.9072-1.7705 6.3774-1.8281 10.584-0.0481 3.5129 9.4904 9.4587 16.291 10.775 2.6057 0.81531 5.2569 0.89386 7.084-0.32422 2.13-1.42 3.3919-3.8295 4.4277-6.0488 0.36712 2.5646 0.87807 5.2623 2.3945 7.3496 0.97954 1.3483 4.8276 2.8193 8.6133 3.6992 1.125 0.53978 2.9445 0.75185 4.9062 0.74219 0.90421 0.0424 1.7267 0.0314 2.3086-0.11133 3.0281-0.28667 5.8694-1.0536 6.4805-2.0957 2.656-4.5293 2.1581-12.693 4.3887-16.096 1.0489 1.3001 2.2212 2.6253 3.8496 3.7109 2.7642 1.8428 5.773 3.179 8.623 3.4668 5.1642 1.7637 14.275-6.3623 14.215-10.744-0.10505-7.6722-6.1331-12.765-3.8672-16.578 1.4001-2.3562 5.055 0.72758 11.912 1.25 7.0663 0.53836 14.158-11.415 11.637-15.953-3.4892-6.279-11.763-6.8311-11.037-11.932 0.72858-5.1165 10.024-4.5868 14.523-7.0606 4.4182-2.4288 3.6166-17.808 1.3477-18.998-0.18489-0.097-0.38811-0.17056-0.58594-0.25-1.5215-1.493-3.5232-2.2275-4.4746-2.7266-2.3647-1.2405-6.4902-0.98587-10.195-1.0391-4e-3 -0.0165-0.012-0.0283-0.0156-0.0449-0.78367-3.5694 7.7456-8.2884 11.371-12.934 2.7069-3.4682-3.2335-14.532-7.0664-16.412-2.1879-2.064-4.743-3.491-6.9863-3.291-1.7238 0.15365-5.6366 2.3629-9.2715 4.0195 0.65125-3.7391 2.8222-8.6446 3.457-11.852 0.52744-2.6644-1.9873-6.0935-5.5156-8.123-4.3046-3.0682-11.699-5.5967-16.008-4.4336-3.3608 0.90722-5.167 6.0584-7.0488 9.8555-0.38322-4.0822-0.2719-8.7401-1.5918-10.705-0.37081-0.55205-0.89673-1.0076-1.5293-1.3809-2.2585-1.958-11.085-3.2648-14.475-3.1094-3.6065 0.16532-7.1687 2.5297-7.877 3.8789-2.136 4.0689-0.0964 12.478-2.6367 16.26-1.7142-2.1944-3.5112-4.5426-5.502-5.4863-1.593-1.444-4.1716-2.7152-8.541-3.3301-6.9505-0.9782-14.28 5.1951-13.646 9.793 0.83049 6.0235 7.0761 14.362 4.6582 16.982-1.0654 1.1547-3.8612 0.97282-6.8945 0.41797 2.9401-3.7 4.5566-8.5867 3.1406-11.135-3.4892-6.279-11.765-6.8311-11.039-11.932 0.72858-5.1165 10.024-4.5868 14.523-7.0605 4.4182-2.4288 3.6166-17.808 1.3477-18.998-0.1849-0.09699-0.38811-0.17057-0.58594-0.25-1.5214-1.4926-3.5234-2.2275-4.4746-2.7266-2.3647-1.2405-6.4883-0.98392-10.193-1.0371-4e-3 -0.01734-0.0137-0.02933-0.0176-0.04687-0.78367-3.5694 7.7456-8.2884 11.371-12.934 2.705-3.4658-3.2255-14.515-7.0586-16.406-2.1892-2.0672-4.7487-3.4951-6.9941-3.2949-1.7239 0.15367-5.6364 2.3629-9.2715 4.0195 0.65078-3.7393 2.822-8.644 3.457-11.852 0.52675-2.6609-1.9809-6.0847-5.502-8.1152-4.3027-3.0723-11.709-5.6076-16.021-4.4434-3.3608 0.90722-5.167 6.0584-7.0488 9.8555-0.38308-4.0819-0.27203-8.7383-1.5918-10.703-0.36982-0.55057-0.89315-1.0062-1.5234-1.3789-2.2511-1.9602-11.086-3.2688-14.479-3.1133zm9.9941 39.789c2.0476 0 3.9797 0.21413 5.8066 0.60156 11.118 6.6504 16.324 21.345 16.324 34.311 0 15.246-15.846 38.572-35.623 38.572-1.7775 0-3.4653-0.18872-5.0762-0.51953-11.829-7.0926-17.302-23.112-17.43-31.387-0.25743-16.691 13.677-41.578 35.998-41.578zm102.4 73.033c2.0452 0 3.9738 0.21306 5.7988 0.59961 11.123 6.6486 16.332 21.346 16.332 34.314 0 15.246-15.846 38.572-35.623 38.572-1.7783 0-3.4666-0.19042-5.0781-0.52149-11.828-7.0931-17.302-23.111-17.43-31.385-0.25743-16.691 13.679-41.58 36-41.58zm-69.357 1.4238c0.57573-0.0302 1.2959 0.12531 2.1289 0.34765-1.3817 1.8438-2.5452 3.9527-3.1816 5.9609-0.87809-2.0806-1.3636-3.8737-0.43555-5.4355 0.35004-0.58906 0.84157-0.8391 1.4883-0.87305z" fill="#070a0e" filter="url(#filter1316)"/>
<g transform="matrix(1.3202 0 0 1.3202 -23.353 -35.704)">
<g transform="matrix(2.4758 0 0 2.4758 -24.762 33.186)">
<path d="m41.13 0.40334c-1.1034 0.050577-2.1933 0.77432-2.41 1.1871-0.73492 1.4 0.1509 4.4839-1.1639 5.3393-1.2072 0.78548 0.80847-2.3943-3.9395-3.0625-2.1265-0.29927-4.3687 1.59-4.1748 2.9966 0.25408 1.8428 2.1647 4.3937 1.425 5.1954-0.72552 0.78635-4.0493-0.41917-5.0444-0.51735-1.4756-0.14557-4.3556 3.9502-2.9714 5.3057 1.288 1.2613 3.5149 2.4825 3.3027 3.4707-0.44455 2.0702-3.4047 1.6198-4.6855 2.5469-0.63501 0.45961-0.77861 4.6212 0.4668 5.5312 2.5781 1.884 4.3892 0.41861 4.459 1.4336 0.10817 1.5725-2.1083 2.2997-3.1758 4.2207-0.77148 1.3883 2.8264 7.5556 5.9257 5.3572 1.1406-0.80908 0.12991-3.0248 0.75009-2.0779 0.74352 1.1353-0.40731 2.7543-0.43945 5.1016-0.01952 1.4256 5.1236 4.1644 6.6236 3.1644s-0.21113-4.5137 0.81589-4.2659c1.3875 0.3347 0.64229 3.1053 1.7988 4.6973 0.55828 0.76845 4.1684 1.6896 5.0101 1.2682 1.7523-0.87718 0.0067-6.5468 1.3942-6.8815 1.027-0.24774 1.4414 1.5078 2.9414 2.5078s3.2415 1.5507 4.5144 0.5912c1.8746-1.413-1.7565-7.6453-1.0632-8.8119 0.42836-0.72086 1.5466 0.22298 3.6445 0.38281 2.1619 0.16471 4.332-3.4925 3.5605-4.8809-1.0675-1.921-3.5992-2.0899-3.377-3.6504 0.2229-1.5653 6.0548-2.0906 6.8589-3.4402 2.0257-3.3996-0.50465-4.157-1.1988-4.5212-1.4622-0.76705-5.1271 0.33815-5.4765-1.2535-0.23976-1.092 3.9503-3.162 5.0595-4.5831 0.90598-1.1608-1.6652-4.6456-3.5275-4.4796-0.99605 0.088786-4.3949 2.4422-5.0594 1.6037-0.6944-0.87625 1.6691-3.036 2.5687-4.8909 0.61962-1.2777-3.8001-3.5105-5.8734-2.9509-1.7499 0.47237-2.1205 4.7368-3.5762 4.2441-1.4208-0.4809 1.3084-3.7149 0.57319-4.8095-0.4456-0.66338-3.433-1.1191-4.5364-1.0685zm0.70542 11.251c6.2604 0 9.123 6.2809 9.123 11.604 0 4.6643-4.8479 11.801-10.898 11.801-6.342 0-9.1872-7.3723-9.2383-10.684-0.07876-5.1064 4.1848-12.721 11.014-12.721z" fill="#99accb"/>
<path d="m43.315 0.9455c-1.1034 0.050577-1.9629 0.10604-2.3652 0.7832-0.80757 1.3593-0.25631 5.67-1.041 6.123-1.2473 0.72012-2.4057-2.6782-3.9395-3.0625-2.083-0.52195-4.6668 1.779-4.3809 3.1699 0.28284 1.3758 1.8523 4.0226 1.084 4.8848-0.94133 1.0563-3.8374-0.49034-4.8374-0.49034-1.118 0-3.5374 4.2553-2.6314 5.4161 1.1092 1.4212 3.4635 2.6773 3.2037 3.6112-0.56755 2.0399-3.3056 1.4793-4.5865 2.4064-0.63501 0.45961-0.88492 4.7882 0.4668 5.5312 1.3767 0.75682 4.3892 0.41861 4.459 1.4336 0.10817 1.5725-2.1083 2.2997-3.1758 4.2207-0.77148 1.3883 0.91625 4.8014 3.0781 4.6367 2.0979-0.15983 2.9775-2.3044 3.5977-1.3574 0.74352 1.1353-0.40731 2.7543-0.43945 5.1016-0.01952 1.4256 3.2988 3.2754 4.7988 2.2754s1.6136-3.6247 2.6406-3.377c1.3875 0.3347 0.64229 3.1053 1.7988 4.6973 0.55828 0.76845 4.0721 0.44475 4.4727-0.23828 0.99126-1.6904 0.54413-5.0403 1.9316-5.375 1.027-0.24774 1.4414 1.5078 2.9414 2.5078s4.6543-1.7228 4.6348-3.1484c-0.03214-2.3473-1.8768-3.9056-1.1836-5.0723 0.42836-0.72086 1.5466 0.22298 3.6445 0.38281 2.1619 0.16471 4.332-3.4925 3.5605-4.8809-1.0675-1.921-3.5992-2.0899-3.377-3.6504 0.2229-1.5653 3.0667-1.4033 4.4434-2.1602 1.3517-0.74308 1.1063-5.4483 0.41211-5.8125-1.4622-0.76705-4.3224 0.34947-4.6719-1.2422-0.23976-1.092 2.3693-2.5359 3.4785-3.957 0.90598-1.1608-1.3566-5.1133-2.4746-5.1133-1 0-3.8667 2.4499-4.5312 1.6113-0.6944-0.87625 0.64121-3.4745 0.92773-4.9219 0.27575-1.393-2.1592-3.4796-4.2324-2.9199-1.7499 0.47237-2.1205 4.7368-3.5762 4.2441-1.4208-0.4809-0.68467-4.3312-1.4199-5.4258-0.4456-0.66338-1.6076-0.88261-2.7109-0.83203zm0.87305 11.631c6.2604 0 9.123 6.2809 9.123 11.604 0 4.6643-4.8479 11.801-10.898 11.801-6.342 0-9.1872-7.3723-9.2383-10.684-0.07876-5.1064 4.1848-12.721 11.014-12.721z" fill="url(#linearGradient1070)"/>
</g>
<g transform="matrix(2.4758 0 0 2.4758 52.802 88.505)">
<path d="m41.13 0.40334c-1.1034 0.050577-2.1933 0.77432-2.41 1.1871-0.73492 1.4 0.1509 4.4839-1.1639 5.3393-1.2072 0.78548 0.80847-2.3943-3.9395-3.0625-2.1265-0.29927-4.3687 1.59-4.1748 2.9966 0.25408 1.8428 2.1647 4.3937 1.425 5.1954-0.72552 0.78635-4.0493-0.41917-5.0444-0.51735-1.4756-0.14557-4.3556 3.9502-2.9714 5.3057 1.288 1.2613 3.5149 2.4825 3.3027 3.4707-0.44455 2.0702-3.4047 1.6198-4.6855 2.5469-0.63501 0.45961-0.77861 4.6212 0.4668 5.5312 2.5781 1.884 4.3892 0.41861 4.459 1.4336 0.10817 1.5725-2.1083 2.2997-3.1758 4.2207-0.77148 1.3883 2.8264 7.5556 5.9257 5.3572 1.1406-0.80908 0.12991-3.0248 0.75009-2.0779 0.74352 1.1353-0.40731 2.7543-0.43945 5.1016-0.01952 1.4256 5.1236 4.1644 6.6236 3.1644s-0.21113-4.5137 0.81589-4.2659c1.3875 0.3347 0.64229 3.1053 1.7988 4.6973 0.55828 0.76845 4.1684 1.6896 5.0101 1.2682 1.7523-0.87718 0.0067-6.5468 1.3942-6.8815 1.027-0.24774 1.4414 1.5078 2.9414 2.5078s3.2415 1.5507 4.5144 0.5912c1.8746-1.413-1.7565-7.6453-1.0632-8.8119 0.42836-0.72086 1.5466 0.22298 3.6445 0.38281 2.1619 0.16471 4.332-3.4925 3.5605-4.8809-1.0675-1.921-3.5992-2.0899-3.377-3.6504 0.2229-1.5653 6.0548-2.0906 6.8589-3.4402 2.0257-3.3996-0.50465-4.157-1.1988-4.5212-1.4622-0.76705-5.1271 0.33815-5.4765-1.2535-0.23976-1.092 3.9503-3.162 5.0595-4.5831 0.90598-1.1608-1.6652-4.6456-3.5275-4.4796-0.99605 0.088786-4.3949 2.4422-5.0594 1.6037-0.6944-0.87625 1.6691-3.036 2.5687-4.8909 0.61962-1.2777-3.8001-3.5105-5.8734-2.9509-1.7499 0.47237-2.1205 4.7368-3.5762 4.2441-1.4208-0.4809 1.3084-3.7149 0.57319-4.8095-0.4456-0.66338-3.433-1.1191-4.5364-1.0685zm0.70542 11.251c6.2604 0 9.123 6.2809 9.123 11.604 0 4.6643-4.8479 11.801-10.898 11.801-6.342 0-9.1872-7.3723-9.2383-10.684-0.07876-5.1064 4.1848-12.721 11.014-12.721z" fill="#99accb"/>
<path d="m43.315 0.9455c-1.1034 0.050577-1.9629 0.10604-2.3652 0.7832-0.80757 1.3593-0.25631 5.67-1.041 6.123-1.2473 0.72012-2.4057-2.6782-3.9395-3.0625-2.083-0.52195-4.6668 1.779-4.3809 3.1699 0.28284 1.3758 1.8523 4.0226 1.084 4.8848-0.94133 1.0563-3.8374-0.49034-4.8374-0.49034-1.118 0-3.5374 4.2553-2.6314 5.4161 1.1092 1.4212 3.4635 2.6773 3.2037 3.6112-0.56755 2.0399-3.3056 1.4793-4.5865 2.4064-0.63501 0.45961-0.88492 4.7882 0.4668 5.5312 1.3767 0.75682 4.3892 0.41861 4.459 1.4336 0.10817 1.5725-2.1083 2.2997-3.1758 4.2207-0.77148 1.3883 0.91625 4.8014 3.0781 4.6367 2.0979-0.15983 2.9775-2.3044 3.5977-1.3574 0.74352 1.1353-0.40731 2.7543-0.43945 5.1016-0.01952 1.4256 3.2988 3.2754 4.7988 2.2754s1.6136-3.6247 2.6406-3.377c1.3875 0.3347 0.64229 3.1053 1.7988 4.6973 0.55828 0.76845 4.0721 0.44475 4.4727-0.23828 0.99126-1.6904 0.54413-5.0403 1.9316-5.375 1.027-0.24774 1.4414 1.5078 2.9414 2.5078s4.6543-1.7228 4.6348-3.1484c-0.03214-2.3473-1.8768-3.9056-1.1836-5.0723 0.42836-0.72086 1.5466 0.22298 3.6445 0.38281 2.1619 0.16471 4.332-3.4925 3.5605-4.8809-1.0675-1.921-3.5992-2.0899-3.377-3.6504 0.2229-1.5653 3.0667-1.4033 4.4434-2.1602 1.3517-0.74308 1.1063-5.4483 0.41211-5.8125-1.4622-0.76705-4.3224 0.34947-4.6719-1.2422-0.23976-1.092 2.3693-2.5359 3.4785-3.957 0.90598-1.1608-1.3566-5.1133-2.4746-5.1133-1 0-3.8667 2.4499-4.5312 1.6113-0.6944-0.87625 0.64121-3.4745 0.92773-4.9219 0.27575-1.393-2.1592-3.4796-4.2324-2.9199-1.7499 0.47237-2.1205 4.7368-3.5762 4.2441-1.4208-0.4809-0.68467-4.3312-1.4199-5.4258-0.4456-0.66338-1.6076-0.88261-2.7109-0.83203zm0.87305 11.631c6.2604 0 9.123 6.2809 9.123 11.604 0 4.6643-4.8479 11.801-10.898 11.801-6.342 0-9.1872-7.3723-9.2383-10.684-0.07876-5.1064 4.1848-12.721 11.014-12.721z" fill="url(#linearGradient1070)"/>
</g>
</g>
</g>
</svg>
