<svg version="1.1" viewBox="0 0 256 256" xmlns="http://www.w3.org/2000/svg">
<defs>
<linearGradient id="linearGradient1045" x1="111.46" x2="102.63" y1="95.322" y2="83.838" gradientTransform="translate(-88.178,-83.548)" gradientUnits="userSpaceOnUse">
<stop stop-color="#9cf" offset="0"/>
<stop stop-color="#fff" offset="1"/>
</linearGradient>
<linearGradient id="linearGradient1047" x1="8.7312" x2="7.5419" y1="1.9844" y2=".69043" gradientTransform="translate(14.155)" gradientUnits="userSpaceOnUse">
<stop stop-color="#2da8ff" offset="0"/>
<stop stop-color="#74c0ff" offset="1"/>
</linearGradient>
<linearGradient id="linearGradient1049" x1="7.276" x2="7.276" y1="1.8521" y2=".26458" gradientTransform="translate(14.155)" gradientUnits="userSpaceOnUse">
<stop stop-color="#9bceff" offset="0"/>
<stop stop-color="#c9fcff" offset="1"/>
</linearGradient>
<linearGradient id="linearGradient1051" x1="7.4083" x2="8.9958" y1="1.9844" y2="1.9844" gradientTransform="translate(14.155)" gradientUnits="userSpaceOnUse">
<stop stop-color="#0096fc" offset="0"/>
<stop stop-color="#0068ce" offset="1"/>
</linearGradient>
<linearGradient id="linearGradient1053" x1="7.0115" x2="7.0115" y1="2.1167" gradientTransform="translate(14.155)" gradientUnits="userSpaceOnUse">
<stop stop-color="#6983b6" offset="0"/>
<stop stop-color="#7ca0d3" offset="1"/>
</linearGradient>
<linearGradient id="linearGradient1055" x1="7.1438" x2="8.7312" y1="2.5135" y2="2.5135" gradientTransform="translate(14.155)" gradientUnits="userSpaceOnUse">
<stop stop-color="#ddd" offset="0"/>
<stop stop-color="#9cf" offset="1"/>
</linearGradient>
<linearGradient id="linearGradient1057" x1="8.8635" x2="8.8635" y1="2.6458" y2="11.377" gradientTransform="translate(14.155)" gradientUnits="userSpaceOnUse">
<stop stop-color="#9fa0ff" offset="0"/>
<stop stop-color="#cbcaff" offset="1"/>
</linearGradient>
<linearGradient id="linearGradient1059" x1=".26458" x2="8.7312" y1="11.509" y2="11.509" gradientTransform="translate(14.155)" gradientUnits="userSpaceOnUse">
<stop stop-color="#ccccf2" offset="0"/>
<stop stop-color="#ccf" offset="1"/>
</linearGradient>
<linearGradient id="linearGradient1061" x1=".39688" x2=".39688" y1="11.377" y2=".26458" gradientTransform="translate(14.155)" gradientUnits="userSpaceOnUse">
<stop stop-color="#ccc" offset="0"/>
<stop stop-color="#fff" offset="1"/>
</linearGradient>
<linearGradient id="linearGradient1063" x1=".52917" x2="6.8792" y1=".39687" y2=".39687" gradientTransform="translate(14.155)" gradientUnits="userSpaceOnUse">
<stop stop-color="#fff" offset="0"/>
<stop stop-color="#ddd" offset="1"/>
</linearGradient>
<linearGradient id="linearGradient1065" x1="111.33" x2="102.63" y1="95.189" y2="83.838" gradientTransform="translate(-88.178,-83.548)" gradientUnits="userSpaceOnUse">
<stop stop-color="#343467" offset="0"/>
<stop stop-color="#99cbfe" offset="1"/>
</linearGradient>
<linearGradient id="linearGradient928" x1="-49.742" x2="-52.917" y1="4.3656" y2=".26458" gradientTransform="matrix(.88889 0 0 .88889 61.383 1.1906)" gradientUnits="userSpaceOnUse" spreadMethod="reflect">
<stop stop-color="#4e5256" offset="0"/>
<stop stop-color="#9fa5ab" offset="1"/>
</linearGradient>
<radialGradient id="radialGradient936" cx="-52.314" cy="1.4549" r="2.9104" gradientTransform="matrix(.62683 .68753 -.67166 .61236 48.727 37.626)" gradientUnits="userSpaceOnUse">
<stop stop-color="#e9ffff" offset="0"/>
<stop stop-color="#c1f4ff" offset=".64871"/>
<stop stop-color="#a2d5ff" offset="1"/>
</radialGradient>
<linearGradient id="linearGradient1500" x1="-48.914" x2="-53.542" y1="4.4843" y2="-.22512" gradientTransform="matrix(.88889 0 0 .88889 61.383 1.1906)" gradientUnits="userSpaceOnUse">
<stop stop-color="#c7c7f6" offset="0"/>
<stop stop-color="#adadad" offset=".5"/>
<stop stop-color="#fdfdfd" offset="1"/>
</linearGradient>
<linearGradient id="linearGradient1502" x1="-49.345" x2="-53.314" y1="4.8948" y2="-.39688" gradientTransform="matrix(.88889 0 0 .88889 61.383 1.1906)" gradientUnits="userSpaceOnUse">
<stop stop-color="#353535" offset="0"/>
<stop stop-color="#a5a5a5" offset="1"/>
</linearGradient>
<filter id="filter1836" x="-.12361" y="-.12216" width="1.2472" height="1.2443" color-interpolation-filters="sRGB">
<feGaussianBlur stdDeviation="12.7336"/>
</filter>
</defs>
<path d="m17.09 14a2.6663 2.6663 0 0 0-2.666 2.666l2e-3 234.52a2.6663 2.6663 0 0 0 2.666 2.666h125.93c11.559 6.5583 24.907 10.322 39.135 10.322 43.876 0 79.498-35.622 79.498-79.498 0-37.389-25.876-68.765-60.676-77.23v-50.807a2.6663 2.6663 0 0 0-0.78125-1.8848l-39.977-39.975a2.6663 2.6663 0 0 0-1.8848-0.78125h-2.668z" filter="url(#filter1836)" opacity=".83" stroke-width="20.145" style="paint-order:normal"/>
<g transform="translate(-44.162)">
<g transform="matrix(20.145,0,0,20.145,-240.58,8.35e-4)">
<path d="m14.288 0.13229h7.0115l1.9844 2.1167v9.525h-8.9958z" fill="url(#linearGradient1045)" style="paint-order:normal"/>
<path d="m21.167 0.13229v2.1167l2.1167-0.13229-1.8521-1.9844z" fill="url(#linearGradient1047)"/>
<path d="m21.431 2.1167v-1.8521" fill="none" stroke="url(#linearGradient1049)" stroke-width=".26458px"/>
<path d="m23.151 1.9844h-1.9844" fill="none" stroke="url(#linearGradient1051)" stroke-width=".26458px"/>
<path d="m21.034 2.249h2.3812" fill-opacity="0" stroke="#667eb1" stroke-width=".26458"/>
<path d="m21.167 0v2.1167" fill="#7494c7" stroke="url(#linearGradient1053)" stroke-width=".26458"/>
<g fill="none" stroke-width=".26458px">
<path d="m21.299 2.5135h1.8521" stroke="url(#linearGradient1055)"/>
<path d="m23.019 2.3813v8.9958" stroke="url(#linearGradient1057)"/>
<path d="m22.886 11.509h-8.4667" stroke="url(#linearGradient1059)"/>
<path d="m14.552 11.377v-11.112" stroke="url(#linearGradient1061)"/>
</g>
<path d="m21.034 0.39688h-6.35" fill="#e8ebee" stroke="url(#linearGradient1063)" stroke-width=".26458px"/>
<path d="m14.288 0.13229h7.0115l1.9844 1.9844v9.6573h-8.9958z" fill="none" stroke="url(#linearGradient1065)" stroke-linejoin="round" stroke-width=".26468" style="paint-order:normal"/>
<rect x="21.299" y="1.8521" width=".26458" height=".26458" fill="#4db3ff"/>
</g>
<g fill="#019901">
<path d="m84.036 133.15c15.45-39.869 49.053-53.511 63.776-37.203-2.9897 11.202-9.2411 15.401-21.259 21.259 19.155 5.8999 38.607 6.6802 58.462 5.3147 1.7561-28.52 4.498-51.206-4.1881-70.43-3.5023 9.2605-7.7536 16.031-11.756 17.284-30.095-33.623-85.194 9.0566-85.035 63.776z"/>
<path d="m190.98 132.31c-15.078 37.157-49.154 37.645-61.511 25.919 5.2035-5.5448 13.024-8.2341 26.277-11.969-18.528-5.7071-43.482-6.6454-62.687-5.3245-3.513 23.632-4.747 49.664 4.133 64.886 3.3879-8.9578 7.4052-15.946 11.116-18.265 29.111 32.524 84.206-2.6194 82.672-55.247z"/>
</g>
</g>
<g transform="matrix(25.184 0 0 25.184 -228.67 90.349)">
<circle cx="15.757" cy="3.1897" r="3.0574" fill="url(#linearGradient1500)" stroke="url(#linearGradient1502)" stroke-linecap="round" stroke-linejoin="round" stroke-width=".19854"/>
<circle cx="15.757" cy="3.1897" r="2.4694" fill="url(#radialGradient936)"/>
<path d="m14.312 3.3587c-0.0013-1.2759 0.6626-1.8013 1.9849-1.9039 0.33955-0.71885-1.3938-0.99043-2.1521-0.17387-1.5884 1.7103-0.628 2.6478 0.16725 2.0777z" fill="#fff"/>
<circle cx="15.757" cy="3.1897" r="2.4694" fill="none" stroke="url(#linearGradient928)" stroke-linecap="round" stroke-linejoin="round" stroke-width=".19854"/>
<path d="m17.548 2.0525c0.39905 0.86052 0.25323 1.6552-0.61024 2.4278-0.86347 0.77258-2.147 0.75641-2.5825 0.26942 0.5932 0.71645 1.8777 0.91057 2.8599-0.00299s0.80376-1.8759 0.33291-2.6942z" fill="#fff"/>
<circle cx="13.758" cy="3.1897" r=".23519" fill="#fda552"/>
<path d="m15.89 3.4555h1.1753" fill="none" stroke="#9fd2ff" stroke-linecap="round" stroke-width=".26458"/>
<circle cx="15.875" cy="3.3073" r=".42074" fill="#9fd2ff"/>
<path d="m15.743 3.175 1.3229 1e-7" fill="none" stroke="#333" stroke-linecap="round" stroke-width=".39871"/>
<path d="m15.743 3.175 1.3229-1.3229" fill="none" stroke="#333" stroke-linecap="round" stroke-width=".39871"/>
<circle cx="15.743" cy="3.175" r=".27928" fill="#b2b2b2" stroke="#333" stroke-linecap="round" stroke-linejoin="round" stroke-width=".26458"/>
<circle cx="15.757" cy="1.1906" r=".23519" fill="#fda552"/>
<circle cx="15.757" cy="5.1888" r=".23519" fill="#e63e12"/>
<circle cx="17.756" cy="3.1897" r=".23519" fill="#e63e12"/>
</g>
</svg>
