<svg version="1.1" viewBox="0 0 256 256" xmlns="http://www.w3.org/2000/svg" xmlns:xlink="http://www.w3.org/1999/xlink">
<defs>
<linearGradient id="linearGradient924">
<stop stop-color="#9a9aff" offset="0"/>
<stop stop-color="#cacaff" offset=".5"/>
<stop stop-color="#fcfcff" offset="1"/>
</linearGradient>
<linearGradient id="linearGradient926" x1="103.45" x2="99.478" y1="100.01" y2="89.034" gradientTransform="matrix(16.033,0,0,16.033,-1418.2,-1421)" gradientUnits="userSpaceOnUse" xlink:href="#linearGradient924"/>
<linearGradient id="linearGradient1015" x1="103.45" x2="99.478" y1="100.01" y2="89.034" gradientTransform="matrix(16.033,0,0,16.033,-1506.6,-1421)" gradientUnits="userSpaceOnUse" xlink:href="#linearGradient924"/>
<linearGradient id="linearGradient17661" x1="72.946" x2="84.792" y1="1162.1" y2="1174" gradientTransform="matrix(.92857 0 0 .92857 1064.3 -57.741)" gradientUnits="userSpaceOnUse">
<stop stop-color="#dcdcd7" offset="0"/>
<stop stop-color="#fff" offset="1"/>
</linearGradient>
<filter id="filter1308" x="-.21333" y="-.08629" width="1.4267" height="1.1726" color-interpolation-filters="sRGB">
<feGaussianBlur stdDeviation="6.78705"/>
</filter>
<filter id="filter1138" x="-.21333" y="-.086293" width="1.4267" height="1.1726" color-interpolation-filters="sRGB">
<feGaussianBlur stdDeviation="6.7870999"/>
</filter>
<filter id="filter1241" x="-.12288" y="-.12288" width="1.2458" height="1.2458" color-interpolation-filters="sRGB">
<feGaussianBlur stdDeviation="6.9632"/>
</filter>
</defs>
<g stroke-width="4.242px">
<path d="m184.27 14v20.668l1.5117 0.45312c2.5768 0.77279 6.8795 1.2892 11.646 2.4512 4.4326 1.0805 9.0372 2.7301 12.293 5.1172v131.23c-3.5277 2.2264-8.131 3.9044-12.52 5.0566-4.7301 1.242-8.9536 1.9282-11.42 2.668l-1.5117 0.45508v20.666h2.1211c18.579 0 27.421-5.7005 36.014-12.203 8.3088 6.9087 17.576 12.203 36.098 12.203h2.1211v-20.666l-1.5117-0.45508c-2.577-0.77287-6.9309-1.3029-11.725-2.4726-4.4548-1.087-9.0548-2.7407-12.215-5.0859v-131.6c1.9049-1.952 6.4477-3.7617 11.232-4.8652 5.1023-1.1768 10.028-1.7002 12.707-2.5039l1.5117-0.45312v-20.668h-2.1211c-16.496 0-26.666 4.2889-36.023 12.166-8.2487-6.8608-15.62-12.166-36.088-12.166z" color="#000000" filter="url(#filter1308)" opacity=".83" style="-inkscape-stroke:none"/>
<path d="m95.908 14v20.668l1.5117 0.45312c2.5768 0.77279 6.8815 1.2892 11.648 2.4512 4.433 1.0806 9.0372 2.7297 12.293 5.1172v131.23c-3.5277 2.2264-8.131 3.9044-12.52 5.0566-4.7301 1.242-8.9556 1.9282-11.422 2.668l-1.5117 0.45508v20.666h2.1211c18.579 0 27.423-5.7005 36.016-12.203 8.3088 6.9087 17.576 12.203 36.098 12.203h2.1211v-20.666l-1.5117-0.45508c-2.577-0.77287-6.9309-1.3029-11.725-2.4726-4.4558-1.0873-9.0567-2.7418-12.217-5.0879v-131.59c1.9038-1.9527 6.4462-3.7633 11.232-4.8672 5.1023-1.1768 10.03-1.7002 12.709-2.5039l1.5117-0.45312v-20.668h-2.1211c-16.496 0-26.666 4.289-36.023 12.166-8.2491-6.8612-15.621-12.166-36.09-12.166z" color="#000000" filter="url(#filter1138)" opacity=".83" style="-inkscape-stroke:none"/>
<path d="m197.84 27.573c-7.4246-6.1298-21.188-7.2051-25.452-8.4839v-16.968c21.21 0 27.203 5.309 36.056 12.726 9.4895-8.429 19.089-12.726 36.056-12.726v16.968c-4.2634 1.2788-20.786 2.4761-25.452 8.4839v133.62c7.2194 6.07 21.188 7.2051 25.452 8.4839v16.968c-19.089 0-27.535-5.3986-36.056-12.726-9.0038 6.8923-16.968 12.726-36.056 12.726v-16.968c4.2633-1.2788 17.52-2.9587 25.452-8.4839z" fill="url(#linearGradient926)" stroke="#212121"/>
<path d="m109.48 27.573c-7.4246-6.1298-21.188-7.2051-25.452-8.4839v-16.968c21.21 0 27.203 5.309 36.056 12.726 9.4895-8.429 19.089-12.726 36.056-12.726v16.968c-4.2634 1.2788-20.786 2.4761-25.452 8.4839v133.62c7.2194 6.07 21.188 7.2051 25.452 8.4839v16.968c-19.089 0-27.535-5.3986-36.056-12.726-9.0038 6.8923-16.968 12.726-36.056 12.726v-16.968c4.2633-1.2788 17.52-2.9587 25.452-8.4839z" fill="url(#linearGradient1015)" stroke="#212121"/>
</g>
<path d="m14 123.22v136h136v-136z" color="#000000" color-rendering="auto" dominant-baseline="auto" filter="url(#filter1241)" image-rendering="auto" opacity=".83" shape-rendering="auto" solid-color="#000000" stop-color="#000000" style="font-feature-settings:normal;font-variant-alternates:normal;font-variant-caps:normal;font-variant-east-asian:normal;font-variant-ligatures:normal;font-variant-numeric:normal;font-variant-position:normal;font-variation-settings:normal;inline-size:0;isolation:auto;mix-blend-mode:normal;shape-margin:0;shape-padding:0;text-decoration-color:#000000;text-decoration-line:none;text-decoration-style:solid;text-indent:0;text-orientation:mixed;text-transform:none;white-space:normal"/>
<g id="checkbox-checked-normal" transform="matrix(9.7143 0 0 9.7143 -10983 -9798.4)">
<g shape-rendering="auto">
<path d="m1131.1 1020.4h13v13h-13z" color="#000000" color-rendering="auto" dominant-baseline="auto" fill="url(#linearGradient17661)" image-rendering="auto" solid-color="#000000" stop-color="#000000" style="font-feature-settings:normal;font-variant-alternates:normal;font-variant-caps:normal;font-variant-east-asian:normal;font-variant-ligatures:normal;font-variant-numeric:normal;font-variant-position:normal;font-variation-settings:normal;inline-size:0;isolation:auto;mix-blend-mode:normal;shape-margin:0;shape-padding:0;text-decoration-color:#000000;text-decoration-line:none;text-decoration-style:solid;text-indent:0;text-orientation:mixed;text-transform:none;white-space:normal"/>
<path d="m1130.6 1019.9v14h14v-14zm1 1h12v12h-12z" color="#000000" color-rendering="auto" dominant-baseline="auto" fill="#235582" image-rendering="auto" solid-color="#000000" stop-color="#000000" style="font-feature-settings:normal;font-variant-alternates:normal;font-variant-caps:normal;font-variant-east-asian:normal;font-variant-ligatures:normal;font-variant-numeric:normal;font-variant-position:normal;font-variation-settings:normal;inline-size:0;isolation:auto;mix-blend-mode:normal;shape-margin:0;shape-padding:0;text-decoration-color:#000000;text-decoration-line:none;text-decoration-style:solid;text-indent:0;text-orientation:mixed;text-transform:none;white-space:normal"/>
</g>
<path d="m1141.7 1022.2-5.5059 5.5058-2.4765-2.4765v3.0469l2.4765 2.4765 0.461-0.4609 5.0449-5.0449z" fill="#21a121"/>
</g>
</svg>
