<svg version="1.1" viewBox="0 0 256 256" xmlns="http://www.w3.org/2000/svg">
<defs>
<linearGradient id="linearGradient95196" x1="37.671" x2="28.387" y1="5.4686" y2="-2.2153" gradientTransform="translate(-12.568)" gradientUnits="userSpaceOnUse">
<stop stop-color="#c5c5c5" offset="0"/>
<stop stop-color="#fff" offset="1"/>
</linearGradient>
<filter id="filter1014" x="-.1124" y="-.13552" width="1.2248" height="1.271" color-interpolation-filters="sRGB">
<feGaussianBlur stdDeviation="11.239564"/>
</filter>
</defs>
<g transform="translate(-12.568)">
<path d="m169.12 42.455-3.5703 0.0625v0.08789c-0.16028 0.01021-0.30719 8e-3 -0.46875 0.01953-27.426 1.9596-61.57 17.245-89.301 39.701-27.732 22.457-49.207 52.292-49.207 84.043 0 17.899 7.5388 37.048 25.24 51.434 17.701 14.386 45.332 23.958 85.336 23.682 42.709-0.29452 74.984-13.735 96.592-30.629s32.832-36.925 32.832-51.994c0-14.667-9.7356-23.657-20.266-28.205-10.53-4.548-22.096-5.459-28.414-5.459-4.0162 0-11.97-3.4424-15.475-8.4473-1.7525-2.5024-2.5824-5.1733-2.0391-8.3926 0.54333-3.2192 2.6011-7.2142 7.5332-11.828 9.6273-9.0061 10.355-23.27 3.3281-34.562s-21.618-19.869-42.121-19.512zm2.7461 75.449c5.1952-0.12698 9.5908 1.6684 12.65 7.4746 0.77895 1.4782 0.85104 2.4653 0.65625 3.4082s-0.7606 1.9693-1.8672 3.0684c-2.2132 2.1982-6.5324 4.3398-11.318 5.5918s-10.039 1.679-13.949 1.1973c-1.9551-0.24088-3.5598-0.71812-4.5469-1.2422-0.98703-0.52407-1.2642-0.94094-1.375-1.2734-1.2087-3.6262 0.48739-7.8527 4.4551-11.611 3.9677-3.7586 9.9741-6.4832 15.295-6.6133z" color="#000000" filter="url(#filter1014)" opacity=".83" stroke-width="7.2682" style="-inkscape-stroke:none"/>
<g transform="matrix(7.5075 0 0 7.5075 -88.766 155.83)">
<path transform="translate(12.568)" d="m19.926-16.479c-0.16734 0.0029-0.33747 9e-3 -0.51172 0.02148-7 0.5-18 7.9844-18 16 0 4.5 3.7418 9.5937 14.242 9.5213 11.178-0.077084 16.758-7.0213 16.758-10.521s-4.4189-4-6-4c-1.5 0-4.5007-1.999-1.6602-4.6562 2.218-2.0749 0.35957-6.4555-4.8281-6.3652zm0.3457 9.082c0.83519-0.020414 1.6386 0.33083 2.125 1.2539 1.1715 2.2232-4.7031 3.3105-5.2031 1.8105-0.47509-1.4253 1.368-3.0227 3.0781-3.0645z" fill="url(#linearGradient95196)" stroke="#979797" stroke-width=".96813"/>
<path d="m30.032-13.518-2.3947 1.0549c-0.0078 0.24726-0.26151 0.56684 1.5178 1.0945 0.58803 0.17438 0.91743 0.26261 1.5423 0.28684 0.72482 0.02811 1.8609-0.19168 2.2684-0.67565 0.59906-0.71152 0.50999-1.1238 0.21037-1.4373z" fill="#9b8530"/>
<path d="m30.015-14.511c-1.912 0.47854-2.5991 1.7021-2.4495 2.0607 0.12095 0.29008-0.06049 0.36668 1.261 0.58638 0.60504 0.10059 1.1626 0.17266 1.7875 0.19689 0.72482 0.02811 1.7847-0.22774 2.2726-0.63058 0.73509-0.60701 0.21616-1.1479-0.13121-1.3968-0.65326-0.46808-1.8109-1.0492-2.7403-0.81659z" fill="#feca00"/>
<path d="m21.976-8.8998 4.0395-0.64238c0.43782 0.89527-0.02923 1.6212-1.2844 2.4334-0.44508 0.288 0.12223 0.99959-1.1334 1.0981-0.9038 0.07088-0.86119-0.43331-1.9271-0.61791-1.7989-0.31155-1.946-1.5541-1.5889-1.7603z" fill="#8b531b"/>
<path d="m21.943-9.746c1.5833-1.3943 6.5052-0.42973 2.7552 1.9968-0.44508 0.288 0.12223 0.99959-1.1334 1.0981-0.9038 0.07088-1.0965-0.61912-2.1774-0.5761-1.5214 0.06055-2.099-1.3237-0.74304-1.56 0.55478-0.09667 1.0083-0.70316 1.2986-0.95883z" fill="#ff9832"/>
<path d="m19.67 1.9439c1.0729 0.0026 1.3442-0.48065 1.6221-0.77509 0.22984-0.24353 0.40975-0.20131 0.69167-0.3572 0.61303-0.33899 0.29996-1.2809 0.11164-1.6405-0.28322-0.54072-1.472-0.44368-1.472-0.44368l-4.8759 1.3283s-0.0091 0.82246 1.1236 1.4183c0.91387 0.4807 1.5713 0.46689 2.7989 0.46989z" fill="#862008"/>
<path d="m19.33 1.3847c1.0729 0.0026 1.2937-0.46811 1.5716-0.76255 0.22984-0.24353 0.47567-0.15182 0.75759-0.30772 1.535-0.84882-0.27912-2.3452-1.4149-2.3409-2.2723 0.0087-2.0433 0.85455-2.5816 1.0086-0.53832 0.1541-2.4563 0.5422-1.8571 1.4006 0.74253 1.0637 2.2969 0.99892 3.5245 1.0019z" fill="#ff3200"/>
<path d="m26.349 3.8566 1.6247-0.32565 3.1299 1.0377c0.5915 0.67573 0.57574 1.7587-0.19547 2.024-0.54612 0.18786-1.366 0.5522-2.2355 0.53901-0.89851-0.01363-1.6283-0.47566-2.0881-0.8797-1.5563-1.3675-2.0974-2.0221-0.23544-2.3954z" fill="#006900"/>
<path d="m26.436 3.6922c0.6439-0.05152 1.0006-0.81129 1.7636-0.84786 1.2803-0.06134 1.9929 0.2262 2.7423 1.0823 0.5915 0.67573 0.96331 1.7142 0.1921 1.9794-0.61636 0.21202-1.6787 0.69093-2.6155 0.58703-0.75097-0.08329-1.3901-0.70638-1.8876-0.90562-1.7592-0.7045-2.0878-1.7438-0.19486-1.8952z" fill="#009800"/>
<path d="m38.444 3.8291c-3.7544 0.07502-2.3794-0.34897-3.4363-0.84765-1.8588-0.87706-1.2098-2.0655-1.2098-2.0655l6.4903 0.76724s1.178 2.0855-1.8442 2.1459z" fill="#003b78"/>
<path d="m38.439 3.1293c-3.7544 0.07502-2.2894-0.62356-3.4363-0.84765-1.8647-0.36431-1.7342-2.3294 0.45145-2.7301 2.9191-0.53515 3.0435 0.89155 4.1674 1.2326 1.1239 0.34103 1.8397 2.2847-1.1826 2.3451z" fill="#0065cb"/>
</g>
</g>
</svg>
