<svg version="1.1" viewBox="0 0 256 256" xmlns="http://www.w3.org/2000/svg">
<defs>
<filter id="filter1308" x="-.14771" y="-.1463" width="1.2954" height="1.2926" color-interpolation-filters="sRGB">
<feGaussianBlur stdDeviation="7.8437339"/>
</filter>
<filter id="filter964" x="-.10387" y="-.15042" width="1.2077" height="1.3008" color-interpolation-filters="sRGB">
<feGaussianBlur stdDeviation="10.491968"/>
</filter>
<linearGradient id="linearGradient882-3" x1="80" x2="80" y1="27" y2="12" gradientUnits="userSpaceOnUse">
<stop stop-color="#d2e8ff" offset="0"/>
<stop stop-color="#fff" offset="1"/>
</linearGradient>
</defs>
<path d="m40.443 81.097c-14.602 0-26.443 11.843-26.443 26.445v71.082c0 14.602 11.841 26.443 26.443 26.443h19.732l-16.641 39.625a2.7503 2.7503 0 0 0 4.3418 3.1367l49.057-42.762h133.06c14.602 0 26.443-11.841 26.443-26.443v-71.082c0-14.602-11.841-26.445-26.443-26.445z" color="#000000" color-rendering="auto" dominant-baseline="auto" fill-rule="evenodd" filter="url(#filter964)" image-rendering="auto" opacity=".83" shape-rendering="auto" solid-color="#000000" stop-color="#000000" style="font-feature-settings:normal;font-variant-alternates:normal;font-variant-caps:normal;font-variant-east-asian:normal;font-variant-ligatures:normal;font-variant-numeric:normal;font-variant-position:normal;font-variation-settings:normal;inline-size:0;isolation:auto;mix-blend-mode:normal;shape-margin:0;shape-padding:0;text-decoration-color:#000000;text-decoration-line:none;text-decoration-style:solid;text-indent:0;text-orientation:mixed;text-transform:none;white-space:normal"/>
<g transform="matrix(7.898,0,0,7.898,-514.57,-13.551)" stroke="#636394" stroke-width=".69638">
<path d="m68.5 10.5h24c1.662 0 3 1.338 3 3v9c0 1.662-1.338 3-3 3h-16.978l-6.3096 5.5 2.3096-5.5h-3.022c-1.662 0-3-1.338-3-3v-9c0-1.662 1.338-3 3-3z" fill="url(#linearGradient882-3)" fill-rule="evenodd" stop-color="#000000" stroke-linecap="round" stroke-linejoin="round"/>
<rect x="69" y="14" width="7" height="7" fill="#fff" fill-rule="evenodd" stop-color="#000000" stroke-linecap="round" stroke-linejoin="round"/>
<g fill="none">
<path d="m78 15h14"/>
<path d="m78 17.5h14"/>
<path d="m78 20h14"/>
</g>
</g>
<path d="m141.52 10.507c-3.3073-0.072-6.6012 0.9084-9.2637 2.8223-3.0428 2.1872-5.3561 5.9415-5.4297 10.252-0.0692 4.3105 1.8997 8.7277 5.6777 12.979 3.6142 4.0664 19.832 21.089 39.336 40.23-14.089 12.359-27.267 25.558-38.322 40.457-3.2408 4.3678-4.4865 9.3071-2.7715 13.383 1.715 4.0757 5.316 6.0779 8.6524 7.2109 3.3363 1.1329 6.7651 1.4754 9.8457 1.2852 1.5402-0.0923 2.9729-0.31139 4.4394-0.83399 1.4665-0.52144 3.4356-1.2543 4.5293-3.9883 5.4146-13.537 16.883-28.121 30-41.729 17.153 16.225 34.864 31.919 47.848 40.871 2.3986 1.654 5.0167 2.5825 7.6387 2.8633 2.6219 0.28033 5.4566 0.0919 8.0215-2.0508 2.5648-2.1416 3.1863-6.5704 1.9141-9.6211-1.2721-3.0507-3.5994-5.7071-7.2774-8.8106-15.099-12.74-29.064-26.085-41.68-39.156 13.751-12.491 27.379-23.2 36.475-30.039 2.6086-1.9614 4.5022-4.5199 4.9121-7.5488 0.40955-3.0289-0.98428-6.0334-3.0195-7.7969-4.0702-3.5271-10.416-3.4374-15.254 0.45117-12.274 9.867-25.005 19.551-37.453 29.576-15.143-16.745-27.783-32.418-37.33-44.988-2.6276-3.4597-6.3025-5.2941-10.072-5.7227-0.47122-0.0536-0.94355-0.0854-1.416-0.0957z" color="#000000" color-rendering="auto" dominant-baseline="auto" filter="url(#filter1308)" image-rendering="auto" shape-rendering="auto" solid-color="#000000" stop-color="#000000" style="font-feature-settings:normal;font-variant-alternates:normal;font-variant-caps:normal;font-variant-east-asian:normal;font-variant-ligatures:normal;font-variant-numeric:normal;font-variant-position:normal;font-variation-settings:normal;inline-size:0;isolation:auto;mix-blend-mode:normal;shape-margin:0;shape-padding:0;text-decoration-color:#000000;text-decoration-line:none;text-decoration-style:solid;text-indent:0;text-orientation:mixed;text-transform:none;white-space:normal"/>
<path d="m131.52 2.5067c-3.3073-0.072-6.6012 0.9084-9.2637 2.8223-3.0428 2.1872-5.3561 5.9415-5.4297 10.252-0.0692 4.3105 1.8997 8.7277 5.6777 12.979 3.6142 4.0664 19.832 21.089 39.336 40.23-14.089 12.359-27.267 25.558-38.322 40.457-3.2408 4.3678-4.4865 9.3071-2.7715 13.383 1.715 4.0757 5.316 6.0779 8.6524 7.2109 3.3363 1.1329 6.7651 1.4754 9.8457 1.2852 1.5402-0.0923 2.9729-0.31139 4.4394-0.83399 1.4665-0.52144 3.4356-1.2543 4.5293-3.9883 5.4146-13.537 16.883-28.121 30-41.729 17.153 16.225 34.864 31.919 47.848 40.871 2.3986 1.654 5.0167 2.5825 7.6387 2.8633 2.6219 0.28033 5.4566 0.0919 8.0215-2.0508 2.5648-2.1416 3.1863-6.5704 1.9141-9.6211-1.2721-3.0507-3.5994-5.7071-7.2774-8.8106-15.099-12.74-29.064-26.085-41.68-39.156 13.751-12.491 27.379-23.2 36.475-30.039 2.6086-1.9614 4.5022-4.5199 4.9121-7.5488 0.40955-3.0289-0.98428-6.0334-3.0195-7.7969-4.0702-3.5271-10.416-3.4374-15.254 0.45117-12.274 9.867-25.005 19.551-37.453 29.576-15.143-16.745-27.783-32.418-37.33-44.988-2.6276-3.4597-6.3025-5.2941-10.072-5.7227-0.47122-0.0536-0.94355-0.0854-1.416-0.0957z" color="#000000" color-rendering="auto" dominant-baseline="auto" fill="#df0029" image-rendering="auto" shape-rendering="auto" solid-color="#000000" stop-color="#000000" style="font-feature-settings:normal;font-variant-alternates:normal;font-variant-caps:normal;font-variant-east-asian:normal;font-variant-ligatures:normal;font-variant-numeric:normal;font-variant-position:normal;font-variation-settings:normal;inline-size:0;isolation:auto;mix-blend-mode:normal;shape-margin:0;shape-padding:0;text-decoration-color:#000000;text-decoration-line:none;text-decoration-style:solid;text-indent:0;text-orientation:mixed;text-transform:none;white-space:normal"/>
</svg>
