<svg version="1.1" viewBox="0 0 256 256" xmlns="http://www.w3.org/2000/svg" xmlns:xlink="http://www.w3.org/1999/xlink">
<defs>
<linearGradient id="linearGradient1145">
<stop stop-color="#62aeeb" offset="0"/>
<stop stop-color="#97cbfe" offset="1"/>
</linearGradient>
<linearGradient id="linearGradient1147-3" x1="31.568" x2="54.568" y1="11" y2="2.5" gradientUnits="userSpaceOnUse" xlink:href="#linearGradient1145"/>
<linearGradient id="linearGradient1183-5" x1="29.207" x2="52.321" y1="10.142" y2=".9936" gradientUnits="userSpaceOnUse" xlink:href="#linearGradient1145"/>
<linearGradient id="linearGradient1175-3" x1="37.568" x2="37.568" y1="39" y2="14.449" gradientUnits="userSpaceOnUse">
<stop stop-color="#67b0ed" offset="0"/>
<stop stop-color="#aad9ff" offset=".6278"/>
<stop stop-color="#deffff" offset="1"/>
</linearGradient>
<linearGradient id="linearGradient1191-9" x1="14.06" x2="56.568" y1="22.621" y2="22.5" gradientUnits="userSpaceOnUse">
<stop stop-color="#a5d1fd" offset="0"/>
<stop stop-color="#d2f7fe" offset="1"/>
</linearGradient>
<linearGradient id="linearGradient1165-7" x1="21.492" x2="52.568" y1="39.507" y2="39.5" gradientUnits="userSpaceOnUse">
<stop stop-color="#ccf2ff" offset="0"/>
<stop stop-color="#9fd1ff" offset=".5"/>
<stop stop-color="#deffff" offset="1"/>
</linearGradient>
<filter id="filter876" x="-.12858" y="-.11766" width="1.2572" height="1.2353" color-interpolation-filters="sRGB">
<feGaussianBlur stdDeviation="11.78161"/>
</filter>
</defs>
<g transform="translate(-12.568)">
<path d="m240.96 15.843c-7.6415-0.34444-17.011 0.19871-28.02 5.7028-21.395 10.697-51.49 30.149-103.46 40.322-12.025-3.7282-23.378-6.6387-33.818-6.6387-10.93 0-19.685 3.202-25.572 8.8379-5.8877 5.6359-8.7485 13.631-8.2598 22.523 3.0252 55.048 21.769 110.47 33.955 143.67 0.01091 0.0735 0.01123 0.14944 0.02344 0.22265 1.112 6.6719 7.7048 12.666 17.34 17.443 9.6351 4.7778 22.606 8.1484 37.352 8.1484 29.217 0 58.579-8.583 80.477-19.521 10.949-5.4692 20.03-11.518 26.34-17.521 5.1599-4.9096 8.692-9.8538 9.3418-14.762l0.25196-1.0547c9.7337-40.608 16.713-124.3 14.281-165.33h-2e-3c2e-5 -0.01077-2e-3 -0.02049-2e-3 -0.03125 5e-3 -2.4206-0.0505-7.5508-2.9301-12.055s-6.1564-7.2-10.232-8.6402c-2.1602-0.76336-4.5153-1.2016-7.0625-1.3164z" color="#000000" filter="url(#filter876)" opacity=".83" stroke-width="5" style="-inkscape-stroke:none"/>
<g transform="translate(0 -5.6843)">
<g transform="matrix(5.2226 0 0 5.2226 -48.373 5.2407)" stroke-width=".95737">
<path d="m16.068 11c17.5-0.5 26.096-6.2981 31.5-9 5.5-2.75 8.5672-1.3746 8.5461 2.7286l-3.5461 9.7714-25 2z" fill="url(#linearGradient1147-3)" stroke="url(#linearGradient1183-5)"/>
<path d="m21.068 8.5c5.5 0 12.852 4.4957 20.5 4.5 5.5902 0.0031 13.504-4.2952 14.546-8.2714 0.46009 7.7635-0.88141 23.838-2.7221 31.518-4.5 1.5-31.638 5.712-31.638 5.712-2.3174-6.2685-6.0948-17.201-6.686-27.958-0.17449-3.1751 2-5.5 6-5.5z" fill="url(#linearGradient1175-3)" stroke="url(#linearGradient1191-9)"/>
<path d="m21.568 41.5c-0.41667-2.5 4.3378-7.9825 11.006-9.0478 9.6753-1.5455 20.463 1.4758 20.759 3.5478 0.5 3.5-10.766 10-21.766 10-5.5 0-9.6712-2.5272-10-4.5z" fill="url(#linearGradient1165-7)" stroke="#d2f7fe"/>
</g>
<g fill="#019901" stroke="#f8f8f8" stroke-linecap="round" stroke-linejoin="round" stroke-width="8">
<path d="m131.51 152.55c13.426-34.28 40.007-41.969 51.327-29.002-2.4881 8.7357-7.4396 11.943-16.93 16.375 14.927 4.8715 30.154 5.7366 45.724 4.9262 1.7479-22.317 2.5245-42.338-4.0284-57.511-2.8643 7.2081-4.6154 14.744-7.7669 15.673-28.464-25.044-72.336 5.2438-68.326 49.539z"/>
<path d="m215.22 149.9c-12.019 30.468-40.545 39.66-50.297 27.075 2.7169-4.6485 7.6451-11.144 17.551-17.52-14.676-3.9133-29.476-2.6858-44.472-1.0771-2.043 18.605-1.4105 40.226 5.9967 51.876 2.3841-7.1139 3.098-9.928 5.9337-11.855 23.762 24.59 68.063-7.3468 65.288-48.5z"/>
</g>
<g fill="#019901">
<path d="m131.51 152.55c13.426-34.28 40.007-41.969 51.327-29.002-2.4881 8.7357-7.4396 11.943-16.93 16.375 14.927 4.8715 30.154 5.7366 45.724 4.9262 1.7479-22.317 2.5245-42.338-4.0284-57.511-2.8643 7.2081-4.6154 14.744-7.7669 15.673-28.464-25.044-72.336 5.2438-68.326 49.539z"/>
<path d="m215.22 149.9c-12.019 30.468-40.545 39.66-50.297 27.075 2.7169-4.6485 7.6451-11.144 17.551-17.52-14.676-3.9133-29.476-2.6858-44.472-1.0771-2.043 18.605-1.4105 40.226 5.9967 51.876 2.3841-7.1139 3.098-9.928 5.9337-11.855 23.762 24.59 68.063-7.3468 65.288-48.5z"/>
</g>
<path d="m242.23 29.374c1.8452-5.4373 1.3993-12.067 1.3496-14.599 3.583 5.4547 3.6036 12.724 3.5972 15.071" fill="#d1f6fe"/>
</g>
</g>
</svg>
