<svg version="1.1" viewBox="0 0 256 256" xmlns="http://www.w3.org/2000/svg" xmlns:xlink="http://www.w3.org/1999/xlink">
<defs>
<linearGradient id="linearGradient1666">
<stop stop-color="#0149ae" offset="0"/>
<stop stop-color="#0161c6" offset=".61538"/>
<stop stop-color="#0164c9" offset="1"/>
</linearGradient>
<linearGradient id="linearGradient1462">
<stop stop-color="#a4acbb" offset="0"/>
<stop stop-color="#bcc0c9" offset=".545"/>
<stop stop-color="#eff0f1" offset="1"/>
</linearGradient>
<linearGradient id="linearGradient1464" x1="-6.1363" x2="-7.251" y1="6.0741" y2="3.8351" gradientTransform="matrix(2.1769 0 0 2.1769 32.132 -6.2464)" gradientUnits="userSpaceOnUse" xlink:href="#linearGradient1462"/>
<radialGradient id="radialGradient1563" cx="-5.424" cy="5.6885" r=".52711" gradientTransform="matrix(1.0927 1.639 -1.8113 1.2075 34.842 8.7006)" gradientUnits="userSpaceOnUse">
<stop stop-color="#dfe2e7" offset="0"/>
<stop stop-color="#bcc2cc" offset=".5"/>
<stop stop-color="#758196" offset="1"/>
</radialGradient>
<linearGradient id="linearGradient1464-7" x1="-6.1363" x2="-7.251" y1="6.0741" y2="3.8351" gradientTransform="matrix(-2.1769 0 0 2.1769 5.8797 -6.2464)" gradientUnits="userSpaceOnUse" xlink:href="#linearGradient1462"/>
<linearGradient id="linearGradient1668" x1="1.2809" x2="1.5395" y1="8.7345" y2="6.6588" gradientTransform="matrix(1.9293 1.0083 -1.0083 1.9293 21.559 -6.0477)" gradientUnits="userSpaceOnUse" xlink:href="#linearGradient1666"/>
<linearGradient id="linearGradient1789" x1="1.2809" x2="1.5395" y1="8.7345" y2="6.6588" gradientTransform="matrix(-1.9293 1.0083 1.0083 1.9293 16.277 -6.0477)" gradientUnits="userSpaceOnUse" xlink:href="#linearGradient1666"/>
<filter id="filter964" x="-.056722" y="-.041603" width="1.1134" height="1.0832" color-interpolation-filters="sRGB">
<feGaussianBlur stdDeviation="4.194966"/>
</filter>
</defs>
<g transform="translate(-12.568)">
<path d="m75.826 4.0002a2.472 2.472 0 0 0-2.4366 3.0269s16.802 73.046 50.715 129.8c-9.9e-4 0.0903-8e-3 0.17952-8e-3 0.27008 0 0.57182 0.0299 1.1364 0.0791 1.6958l-10.04 16.732-3.5054-0.12925a2.472 2.472 0 0 0-0.0887-2e-3c-17.646-0.0174-37.407 5.3992-47.995 25.658-5.7953 11.089-7.8214 24.055-6.3838 35.48 1.4376 11.425 6.3786 21.533 15.173 26.129 17.097 8.935 41.243-0.53768 52.833-22.714 4.3626-8.3476 7.1534-20.812 7.5721-30.221l12.723-23.338 12.725 23.34c0.41948 9.4089 3.2118 21.872 7.5741 30.219 11.59 22.177 35.735 31.649 52.831 22.714 8.7946-4.5962 13.738-14.704 15.175-26.129 1.4376-11.425-0.59033-24.391-6.3857-35.48-10.588-20.259-30.349-25.676-47.995-25.658a2.472 2.472 0 0 0-0.0868 2e-3l-3.5073 0.12925-9.1464-15.243c0.82456-0.89046 1.6033-1.8523 2.3093-2.9112a2.472 2.472 0 0 0 0.0637-0.10031c34.089-56.815 50.974-130.24 50.974-130.24a2.472 2.472 0 0 0-2.4347-3.0269 2.472 2.472 0 0 0-1.8501 0.86236s-16.941 19.763-35.085 43.928c-12.171 16.21-24.864 34.245-33.435 49.953-8.5708-15.708-21.264-33.743-33.435-49.953-18.144-24.165-35.083-43.928-35.083-43.928a2.472 2.472 0 0 0-1.8482-0.86236zm28.06 171.63c0.90939 0.0346 1.6876 0.22213 2.317 0.54211 3.4955 1.7771 5.597 7.1504 5.6873 13.989 0.0903 6.8383-1.8154 14.724-4.9561 20.208-7.8476 13.703-20.061 14.684-24.572 12.326-1.7238-0.90091-4.2987-5.1265-4.9909-11.018-0.6922-5.8912 0.21496-13.229 3.7735-20.085 1.9451-3.7477 6.8538-8.7882 12.05-12.104 2.598-1.6578 5.2697-2.9065 7.5837-3.4861 1.157-0.28978 2.1986-0.40692 3.108-0.37234zm81.16 0c0.90938-0.0346 1.951 0.0826 3.108 0.37234 2.314 0.57956 4.9857 1.8282 7.5837 3.4861 5.196 3.3156 10.105 8.3561 12.05 12.104 3.5586 6.8563 4.4677 14.194 3.7755 20.085-0.6922 5.8912-3.269 10.117-4.9928 11.018-4.5117 2.3579-16.723 1.3772-24.57-12.326-3.1407-5.4841-5.0484-13.37-4.9581-20.208 0.0903-6.8383 2.1938-12.212 5.6892-13.989 0.6294-0.31998 1.4057-0.50753 2.315-0.54211z" color="#000000" color-rendering="auto" dominant-baseline="auto" fill="#212121" filter="url(#filter964)" image-rendering="auto" shape-rendering="auto" solid-color="#000000" stop-color="#000000" style="font-feature-settings:normal;font-variant-alternates:normal;font-variant-caps:normal;font-variant-east-asian:normal;font-variant-ligatures:normal;font-variant-numeric:normal;font-variant-position:normal;font-variation-settings:normal;inline-size:0;isolation:auto;mix-blend-mode:normal;shape-margin:0;shape-padding:0;text-decoration-color:#000000;text-decoration-line:none;text-decoration-style:solid;text-indent:0;text-orientation:mixed;text-transform:none;white-space:normal"/>
<g transform="matrix(19.556 0 0 19.556 -230.48 -3.159)" stroke-miterlimit="7.5714" stroke-width=".25279">
<path d="m22.606 0.2879s-3.4558 4.0317-3.944 5.8241c-0.76317 1.2685 0.77625 1.6634 1.3522 0.79947 1.7279-2.8798 2.5918-6.6235 2.5918-6.6235z" fill="url(#linearGradient1464-7)" stroke="#4c5c78" stroke-linejoin="round"/>
<path d="m15.406 0.2879s3.4558 4.0317 3.944 5.8241c0.76317 1.2685-0.77625 1.6634-1.3522 0.79947-1.7279-2.8798-2.5918-6.6235-2.5918-6.6235z" fill="url(#linearGradient1464)" stroke="#4c5c78" stroke-linejoin="round"/>
<g stroke="#01399e">
<path d="m17.422 8.0634 0.86394-1.4399 0.86394 1.1519-1.026 1.8819z" fill="#0165ca"/>
<path d="m17.183 8.0296c-0.87754-8.64e-4 -1.8259 0.25652-2.3421 1.2442-0.56613 1.0833-0.40086 2.5635 0.39597 2.9799 0.79684 0.41644 1.9649-0.02478 2.5311-1.108 0.24805-0.47464 0.40142-1.2875 0.37235-1.7346l-0.037122-1.3477zm-0.16449 0.82365c0.49015 0.24919 0.43983 1.313 0.08978 1.9242-0.42773 0.74688-1.1096 0.84413-1.4247 0.67943-0.31514-0.1647-0.50546-1.0101-0.11589-1.7607 0.23298-0.44889 1.0445-1.0496 1.4508-0.84299z" fill="url(#linearGradient1668)" stroke-linecap="round" stroke-linejoin="round"/>
<path d="m20.413 8.0634-0.86394-1.4399-0.86394 1.1519 1.026 1.8819z" fill="#0165ca"/>
<path d="m20.653 8.0296c0.87754-8.64e-4 1.8259 0.25652 2.3421 1.2442 0.56613 1.0833 0.40086 2.5635-0.39597 2.9799-0.79684 0.41644-1.9649-0.02478-2.5311-1.108-0.24805-0.47464-0.40142-1.2875-0.37235-1.7346l0.03712-1.3477zm0.16449 0.82365c-0.49015 0.24919-0.43983 1.313-0.08979 1.9242 0.42773 0.74688 1.1096 0.84413 1.4247 0.67943 0.31514-0.1647 0.50546-1.0101 0.11589-1.7607-0.23298-0.44889-1.0445-1.0496-1.4508-0.84299z" fill="url(#linearGradient1789)" stroke-linecap="round" stroke-linejoin="round"/>
</g>
<circle cx="18.862" cy="6.9676" r=".85946" fill="url(#radialGradient1563)" stroke="#4c5c78" stroke-linecap="round" stroke-linejoin="round"/>
</g>
</g>
</svg>
