<svg version="1.1" viewBox="0 0 256 256" xmlns="http://www.w3.org/2000/svg" xmlns:xlink="http://www.w3.org/1999/xlink">
<defs>
<linearGradient id="linearGradient4313" x1="-.92604" x2="-.92604" y1="5.2917" y2=".52917" gradientTransform="translate(0 .26458)" gradientUnits="userSpaceOnUse">
<stop stop-color="#ffd26d" offset="0"/>
<stop stop-color="#fff993" offset=".5"/>
<stop stop-color="#ffffeb" offset="1"/>
</linearGradient>
<linearGradient id="linearGradient4327" x1="-2.9104" x2="-2.9104" y1="5.5563" y2=".52917" gradientUnits="userSpaceOnUse">
<stop stop-color="#fff58f" offset="0"/>
<stop stop-color="#fffef2" offset="1"/>
</linearGradient>
<linearGradient id="linearGradient4337" x1=".92604" x2="-2.7781" y1="5.424" y2="5.424" gradientUnits="userSpaceOnUse">
<stop stop-color="#dfc867" offset="0"/>
<stop stop-color="#f2e674" offset="1"/>
</linearGradient>
<linearGradient id="linearGradient4347" x1="1.0583" x2="1.0583" y1="5.2917" y2=".52917" gradientUnits="userSpaceOnUse">
<stop stop-color="#dfc867" offset="0"/>
<stop stop-color="#ecd988" offset="1"/>
</linearGradient>
<linearGradient id="linearGradient4365" x1=".79375" x2="-2.3812" y1="1.0583" y2="1.0583" gradientUnits="userSpaceOnUse">
<stop stop-color="#dcb94a" offset="0"/>
<stop stop-color="#f2e69c" offset="1"/>
</linearGradient>
<linearGradient id="linearGradient4381" x1="-.92604" x2="-.92604" y1="1.0583" y2=".26458" gradientUnits="userSpaceOnUse">
<stop stop-color="#d2d6dd" offset="0"/>
<stop stop-color="#fff" offset=".5"/>
<stop stop-color="#b6bcc8" offset="1"/>
</linearGradient>
<linearGradient id="linearGradient4554" x1="111.46" x2="102.63" y1="95.322" y2="83.838" gradientTransform="matrix(.38383 0 0 .38578 -41.182 -32.149)" gradientUnits="userSpaceOnUse">
<stop stop-color="#e7eff6" offset="0"/>
<stop stop-color="#fff" offset="1"/>
</linearGradient>
<linearGradient id="linearGradient4556" x1="8.7312" x2="7.5419" y1="1.9844" y2=".69043" gradientTransform="matrix(.38383 0 0 .38578 -1.9032 .081591)" gradientUnits="userSpaceOnUse">
<stop stop-color="#2da8ff" offset="0"/>
<stop stop-color="#74c0ff" offset="1"/>
</linearGradient>
<linearGradient id="linearGradient4558" x1="7.7157" x2="7.7157" y1="1.5031" y2=".81726" gradientTransform="matrix(.38383 0 0 .38578 -1.9032 .081591)" gradientUnits="userSpaceOnUse">
<stop stop-color="#9bceff" offset="0"/>
<stop stop-color="#c9fcff" offset="1"/>
</linearGradient>
<linearGradient id="linearGradient4560" x1="8.0604" x2="8.7497" y1="1.846" y2="1.846" gradientTransform="matrix(.38383 0 0 .38578 -1.9032 .081591)" gradientUnits="userSpaceOnUse">
<stop stop-color="#0096fc" offset="0"/>
<stop stop-color="#0068ce" offset="1"/>
</linearGradient>
<linearGradient id="linearGradient4562" x1="7.0264" x2="7.0264" y1="1.7737" y2=".40207" gradientTransform="matrix(.38383 0 0 .38578 -1.9032 .10947)" gradientUnits="userSpaceOnUse">
<stop stop-color="#6983b6" offset="0"/>
<stop stop-color="#7ca0d3" offset="1"/>
</linearGradient>
<linearGradient id="linearGradient4564" x1="6.9279" x2="8.9958" y1="2.5135" y2="2.5135" gradientTransform="matrix(.38383 0 0 .38578 -1.9977 .35324)" gradientUnits="userSpaceOnUse">
<stop stop-color="#d5e3ff" offset="0"/>
<stop stop-color="#a6a6ff" offset="1"/>
</linearGradient>
<linearGradient id="linearGradient4566" x1="8.405" x2="8.405" y1="3.5606" y2="10.762" gradientTransform="matrix(.38383 0 0 .38578 -1.9032 .081591)" gradientUnits="userSpaceOnUse">
<stop stop-color="#bddeff" offset="0"/>
<stop stop-color="#bddeff" offset="1"/>
</linearGradient>
<linearGradient id="linearGradient4568" x1=".9539" x2="8.5364" y1="11.509" y2="11.509" gradientTransform="matrix(.38383 0 0 .38578 -1.8213 -.074473)" gradientUnits="userSpaceOnUse">
<stop stop-color="#c2ceff" offset="0"/>
<stop stop-color="#c2ceff" offset="1"/>
</linearGradient>
<linearGradient id="linearGradient4570" x1=".396" x2=".396" y1="12.063" y2="1.0895" gradientTransform="matrix(.38383 0 0 .38578 -1.7395 -.15573)" gradientUnits="userSpaceOnUse">
<stop stop-color="#bbc5d9" offset="0"/>
<stop stop-color="#e6f2ff" offset="1"/>
</linearGradient>
<linearGradient id="linearGradient4572" x1=".52917" x2="6.0437" y1=".39687" y2=".39774" gradientTransform="matrix(.38383 0 0 .38578 -1.6583 .24343)" gradientUnits="userSpaceOnUse">
<stop stop-color="#fefefe" offset="0"/>
<stop stop-color="#f0f1f1" offset="1"/>
</linearGradient>
<linearGradient id="linearGradient4574" x1="111.33" x2="102.63" y1="95.189" y2="83.838" gradientTransform="matrix(.38383 0 0 .38578 -41.182 -32.149)" gradientUnits="userSpaceOnUse">
<stop stop-color="#343467" offset="0"/>
<stop stop-color="#99cbfe" offset="1"/>
</linearGradient>
<filter id="filter1199" x="-.13824" y="-.11059" width="1.2765" height="1.2212" color-interpolation-filters="sRGB">
<feGaussianBlur stdDeviation="11.05895"/>
</filter>
</defs>
<g transform="translate(-12.568)">
<path d="m104.97 14a4.8002 4.8002 0 0 0-4.8008 4.7988s-0.038 2.1501-0.39062 4.8008h-18.809c-15.871 0-28.797 12.927-28.797 28.799v143.99c0 15.871 12.926 28.799 28.797 28.799h28.787v23.777a4.8002 4.8002 0 0 0 4.791 4.7988l124.8 0.23438a4.8002 4.8002 0 0 0 4.8105-4.7988v-135.41a4.8002 4.8002 0 0 0-1.3691-3.3555l-17.83-18.23v-39.811c0-15.871-12.927-28.799-28.799-28.799h-18.807c-0.3526-2.6507-0.39258-4.8008-0.39258-4.8008a4.7997 4.7997 0 0 0-4.8008-4.7988z" filter="url(#filter1199)" opacity=".83"/>
<g transform="matrix(36.282 0 0 36.282 -33.823 -6.9093e-6)">
<g transform="translate(5.2917)">
<rect x="-3.175" y=".39688" width="4.4979" height="5.2917" rx=".52917" ry=".52917" fill="url(#linearGradient4313)"/>
<g fill="none">
<g stroke-width=".26458px">
<path d="m-2.9104 0.52917v5.0271" stroke="url(#linearGradient4327)"/>
<path d="m1.1906 5.424h-3.9688" stroke="url(#linearGradient4337)"/>
<path d="m1.0583 0.52917v4.7625" stroke="url(#linearGradient4347)"/>
</g>
<path d="m0.39688 0.52917c0.39687 0 0.39687 0.92604-0.13229 0.92604h-2.2245c-0.42132 1e-7 -0.42132-0.52917-0.28903-0.52917" stroke="url(#linearGradient4365)" stroke-linecap="round" stroke-width=".26458px"/>
<rect x="-3.175" y=".39688" width="4.4979" height="5.2917" rx=".66146" ry=".66146" stroke="#cc9901" stroke-linecap="round" stroke-width=".26458"/>
</g>
<path d="m3.9e-7 0.13229h-1.8521s0 0.52917-0.26458 0.52917c-0.26458 0-0.26458 0.52917 0 0.52917h2.3812c0.26458 0 0.26458-0.52917 0-0.52917-0.26458 0-0.26458-0.52917-0.26458-0.52917" fill="url(#linearGradient4381)" stroke="#818ca0" stroke-linecap="round" stroke-linejoin="round" stroke-width=".26458"/>
</g>
<g transform="translate(5.5563 1.8524)">
<path d="m-1.8524 0.13263h2.6912l0.76167 0.81657v3.6746h-3.4529z" fill="url(#linearGradient4554)" style="paint-order:normal"/>
<path d="m0.78803 0.13263v0.81657l0.81244-0.051036-0.71089-0.76553z" fill="url(#linearGradient4556)"/>
<g>
<path d="m1.0583 0.92604v-0.52917" fill="none" stroke="url(#linearGradient4558)" stroke-width=".26458px"/>
<path d="m1.4552 0.79375h-0.66146" fill="none" stroke="url(#linearGradient4560)" stroke-width=".26458px"/>
<path d="m0.79375 0.13229v0.92604" fill="#7494c7" stroke="url(#linearGradient4562)" stroke-width=".26458"/>
<path d="m0.66146 1.0583 0.92604 1e-7" fill-opacity="0" stroke="#667eb1" stroke-width=".26458"/>
</g>
<g fill="none" stroke-width=".26458px">
<path d="m0.66146 1.3229 0.79375-2e-7" stroke="url(#linearGradient4564)"/>
<path d="m1.3229 1.4552v2.7781" stroke="url(#linearGradient4566)"/>
<path d="m1.4552 4.3656h-2.9104" stroke="url(#linearGradient4568)"/>
<path d="m-1.5875 4.4979-1e-7 -4.2333" stroke="url(#linearGradient4570)"/>
</g>
<path d="m0.66146 0.39688-2.1167-3.3519e-4" fill="#e8ebee" stroke="url(#linearGradient4572)" stroke-width=".26458px"/>
<rect x=".92604" y=".66146" width=".26458" height=".26458" fill="#4db3ff"/>
<path d="m-1.8524 0.13263h2.6912l0.7487 0.76553v3.732l-3.4399-0.00645z" fill="none" stroke="url(#linearGradient4574)" stroke-linejoin="round" stroke-width=".26458" style="paint-order:normal"/>
<g stroke="#9cf" stroke-width=".39688">
<path d="m-1.1906 1.8521h2.1167" fill="#9cf"/>
<path d="m-1.1906 2.6458h2.1167" fill="none"/>
<path d="m-1.1906 3.4396h2.1167" fill="#9cf"/>
</g>
</g>
</g>
</g>
</svg>
