<svg version="1.1" viewBox="0 0 256 256" xmlns="http://www.w3.org/2000/svg" xmlns:xlink="http://www.w3.org/1999/xlink"><defs><linearGradient id="linearGradient1218" x1=".66918" x2="1.2367" y1="147.56" y2="118.31" gradientTransform="matrix(2.019 0 0 2.019 31.356 -15.998)" gradientUnits="userSpaceOnUse"><stop stop-color="#8c2d8d" offset="0"/><stop stop-color="#d265d3" offset="1"/></linearGradient><linearGradient id="linearGradient1226" x1="8.4129" x2="8.4129" y1="143.38" y2="121.26" gradientTransform="matrix(2.019 0 0 2.019 31.356 -15.998)" gradientUnits="userSpaceOnUse"><stop stop-color="#e68ae7" offset="0"/><stop stop-color="#fbb9fb" offset="1"/></linearGradient><linearGradient id="linearGradient1226-7" x1="8.4129" x2="8.4129" y1="143.38" y2="121.26" gradientTransform="matrix(2.019 0 0 2.019 -54.45 -101.8)" gradientUnits="userSpaceOnUse"><stop stop-color="#499fe3" offset="0"/><stop stop-color="#99cdff" offset="1"/></linearGradient><linearGradient id="linearGradient1218-3" x1=".66918" x2="1.2367" y1="147.56" y2="118.31" gradientTransform="matrix(2.019 0 0 2.019 -54.45 -101.8)" gradientUnits="userSpaceOnUse"><stop stop-color="#039" offset="0"/><stop stop-color="#5b9bd8" offset="1"/></linearGradient><linearGradient id="linearGradient1048" x1="-5.2193" x2="-9.9337" y1="10.397" y2="12.091" gradientTransform="matrix(0 17.793 -17.793 0 270.31 214.52)" gradientUnits="userSpaceOnUse"><stop stop-color="#159a0c" offset="0"/><stop stop-color="#8cf25a" offset="1"/></linearGradient><filter id="filter2054" x="-.046907" y="-.049146" width="1.0938" height="1.0983" color-interpolation-filters="sRGB"><feGaussianBlur stdDeviation="4.6143196"/></filter></defs><g transform="translate(-12.568)" stroke-linecap="round" stroke-linejoin="round"><path d="m60.406 19.943a2.5002 2.5002 0 0 0-2.5 2.5v61.055h-30.453a2.5002 2.5002 0 0 0-1.873 4.1562l54.139 61.199a2.5002 2.5002 0 0 0 3.7812-0.041l51.783-61.201a2.5002 2.5002 0 0 0-1.9082-4.1133h-35.16v-61.055a2.5002 2.5002 0 0 0-2.5-2.5zm18.289 130.85c-12.1 3e-4 -24.198 4.6088-33.416 13.826-18.435 18.435-18.437 48.399-2e-3 66.834 18.435 18.435 48.401 18.435 66.836 0 6.7048-6.7048 10.957-14.936 12.785-23.582h42.699c1.8276 8.6455 6.0822 16.877 12.787 23.582 18.435 18.435 48.401 18.435 66.836 0s18.435-48.401 0-66.836-48.399-18.433-66.834 2e-3h-2e-3c-6.8373 6.8373-11.131 15.261-12.896 24.094h-42.479c-1.7656-8.8329-6.0592-17.258-12.896-24.096-9.2176-9.2175-21.318-13.825-33.418-13.824z" color="#000000" filter="url(#filter2054)" style="-inkscape-stroke:none"/><g transform="matrix(1.1134 0 0 1.1134 -16.976 2.5327)"><path d="m210.82 168.64h-141.62" fill="none" stroke="#000" stroke-width="17.208"/><rect transform="rotate(-45)" x="-14.945" y="223.22" width="73.421" height="73.421" rx="36.711" ry="36.711" fill="url(#linearGradient1226)" fill-rule="evenodd" stroke="url(#linearGradient1218)" stroke-width="11.472"/><rect transform="rotate(-45)" x="-100.75" y="137.42" width="73.421" height="73.421" rx="36.711" ry="36.711" fill="url(#linearGradient1226-7)" fill-rule="evenodd" stroke="url(#linearGradient1218-3)" stroke-width="11.472"/></g><path d="m86.714 14.444v63.554h37.661l-51.784 61.2-54.138-61.2h32.954v-63.554z" fill="url(#linearGradient1048)" stroke="#418924" stroke-width="10"/></g></svg>
