<svg version="1.1" viewBox="0 0 256 256" xmlns="http://www.w3.org/2000/svg" xmlns:xlink="http://www.w3.org/1999/xlink">
<defs>
<linearGradient id="linearGradient1119" x1="-94.347" x2="-94.347" y1="5.1" y2="1.8143" gradientTransform="matrix(.76087 0 0 .76087 -28.125 70.12)" gradientUnits="userSpaceOnUse">
<stop stop-color="#0093f9" offset="0"/>
<stop stop-color="#0067cd" offset=".5"/>
<stop stop-color="#2e85db" offset="1"/>
</linearGradient>
<linearGradient id="linearGradient1121" x1="-93.932" x2="-93.932" y1="36" y2="5.5" gradientTransform="matrix(.76087 0 0 .76087 -28.125 70.12)" gradientUnits="userSpaceOnUse">
<stop stop-color="#2652a4" offset="0"/>
<stop stop-color="#0572d6" offset="1"/>
</linearGradient>
<linearGradient id="linearGradient1123" x1="-93.932" x2="-93.932" y1="4.5" y2=".5" gradientTransform="matrix(.76087 0 0 .76087 -28.125 70.12)" gradientUnits="userSpaceOnUse">
<stop stop-color="#015baa" offset="0"/>
<stop stop-color="#0274d6" offset="1"/>
</linearGradient>
<filter id="filter1183" x="-.043238" y="-.053941" width="1.0865" height="1.1079" color-interpolation-filters="sRGB">
<feGaussianBlur stdDeviation="4.3598438"/>
</filter>
</defs>
<g transform="translate(-12.568)">
<path d="m31.536 35.008c-3.7805 0-7.1574 1.7824-9.6719 4.2969-2.5145 2.5145-4.2969 5.8914-4.2969 9.6719v180.02h242v-180.02c0-3.7805-1.7843-7.1574-4.2988-9.6719s-5.8914-4.2969-9.6719-4.2969z" fill="#212121" filter="url(#filter1183)"/>
<g transform="matrix(6.91 0 0 6.91 806.75 -452.69)">
<path d="m-114.43 74.5 0.0218 23h34v-23z" fill="#050101"/>
<path d="m-114.43 75v-3.3587l1.5217-1.1413h31.576l1.1413 1.1413v3.3587" fill="url(#linearGradient1119)"/>
<g>
<path d="m-114.41 74.5v0.76087h34v-0.76087z" color="#000000" fill="#c7dcde"/>
<path d="m-114.43 74.5v23.073h34.022v-23.073" fill="none" stroke="url(#linearGradient1121)"/>
<path d="m-80.411 74.5v-2.4783c0-0.76087-0.76087-1.5217-1.5217-1.5217h-30.978c-0.76087 0-1.5217 0.76087-1.5217 1.5217v2.4783" fill="none" stroke="url(#linearGradient1123)"/>
</g>
<g fill-rule="evenodd" stroke-linecap="round" stroke-linejoin="round">
<path d="m-83.932 71.5h2v2h-2z" fill="#e37046" stop-color="#000000"/>
<path d="m-86.932 71.5h2v2h-2z" fill="#7cbcf8" stop-color="#000000"/>
<path d="m-89.932 71.5h2.0217l-0.02174 2h-2.0217z" fill="#7cbcf8" stop-color="#000000"/>
</g>
</g>
<g fill="#fdf7f7">
<path d="m62.568 100c-7.0124 0-12.837 2.3294-17.104 6.9271-4.2513 4.5828-6.3438 10.794-6.3438 18.396s2.0945 13.824 6.3438 18.427v0.0104c4.2679 4.576 10.093 6.8854 17.104 6.8854 5.6083 0 10.385-1.4307 14.167-4.3333 3.8103-2.9251 5.9896-7.165 6.4687-12.385l0.12501-1.4167h-9.1563l-0.10416 1.1875c-0.27787 3.0238-1.3879 5.1504-3.3854 6.6979-2.0149 1.5609-4.6885 2.3854-8.1875 2.3854-4.465 0-7.7662-1.4554-10.313-4.4271-2.5279-2.9501-3.875-7.2303-3.875-13.031 0-5.8212 1.3517-10.104 3.8958-13.031h0.0104c2.5662-2.9718 5.9057-4.4167 10.417-4.4167 3.3439 0 5.9688 0.78441 8.0417 2.3229v0.0104c2.0844 1.5329 3.1644 3.4523 3.3958 6.0729l0.10416 1.1875h9.1771l-0.14581-1.4271c-0.48533-4.7715-2.7484-8.7593-6.6354-11.677-3.8721-2.9065-8.5963-4.3542-14-4.3542zm27.271 13.635v9.1042h9.3125v-9.1042zm0 27.115v9.1042h9.3125v-9.1042z" color="#000000" style="-inkscape-stroke:none"/>
<path d="m117.33 105.83-8.3136 4.9433 22.253 38.651 8.3136-4.9433z" color="#000000" stroke-width="5.3333" style="-inkscape-stroke:none"/>
<path d="m149.81 143.99v8h58.667v-8z" color="#000000" stroke-width="5.3333" style="-inkscape-stroke:none"/>
</g>
</g>
</svg>
