<svg version="1.1" viewBox="0 0 256 256" xmlns="http://www.w3.org/2000/svg">
<defs>
<radialGradient id="radialGradient892-1" cx="-73.449" cy="6.6144" r="22.5" gradientTransform="matrix(3.8635 9.2828 -7.8486 3.2666 431.97 673.9)" gradientUnits="userSpaceOnUse">
<stop stop-color="#ffe1e1" offset="0"/>
<stop stop-color="#ffb8b8" offset=".53081"/>
<stop stop-color="#ffa5a5" offset=".8375"/>
<stop stop-color="#ffd5d5" offset="1"/>
</radialGradient>
<filter id="filter1071" x="-.048" y="-.048" width="1.096" height="1.096" color-interpolation-filters="sRGB">
<feGaussianBlur stdDeviation="4.9"/>
</filter>
</defs>
<g transform="translate(-12.568)" fill-rule="evenodd">
<circle cx="135.46" cy="119.19" r="100.98" fill="#fff" stop-color="#000000" stroke-linecap="round" stroke-width="25.196"/>
<path transform="matrix(.98776 0 0 .98776 378.93 -109.21)" d="m-243.34 114.62a122.5 122.5 0 0 0-122.5 122.5 122.5 122.5 0 0 0 122.5 122.5 122.5 122.5 0 0 0 122.5-122.5 122.5 122.5 0 0 0-122.5-122.5zm-47.798 52.934 47.033 47.033 47.033-47.033 24.5 24.5-47.033 47.033 47.033 47.033-24.5 24.5-47.033-47.033-47.033 47.033-24.5-24.5 47.033-47.033-47.033-47.033z" filter="url(#filter1071)" stop-color="#000000"/>
<path d="m133.57-3.6134e-6a121 121 0 0 0-121 121 121 121 0 0 0 121 121 121 121 0 0 0 121-121 121 121 0 0 0-121-121zm-47.213 52.286 46.457 46.457 46.457-46.457 24.2 24.2-46.457 46.457 46.457 46.457-24.2 24.2-46.457-46.457-46.457 46.457-24.2-24.2 46.457-46.457-46.457-46.457z" fill="url(#radialGradient892-1)" stop-color="#000000"/>
</g>
</svg>
