<svg version="1.1" viewBox="0 0 256 256" xmlns="http://www.w3.org/2000/svg" xmlns:xlink="http://www.w3.org/1999/xlink">
<defs>
<linearGradient id="linearGradient1153" x1=".072128" x2="9.1269" y1="83.178" y2="83.178" gradientUnits="userSpaceOnUse">
<stop stop-color="#fe9431" offset="0"/>
<stop stop-color="#f74b11" offset="1"/>
</linearGradient>
<linearGradient id="linearGradient1161" x1="-12.7" x2="-15.331" y1="73.643" y2="82.671" gradientUnits="userSpaceOnUse">
<stop stop-color="#08e" offset="0"/>
<stop stop-color="#004ab0" offset="1"/>
</linearGradient>
<filter id="filter1247" x="-.048179" y="-.047823" width="1.0964" height="1.0956" color-interpolation-filters="sRGB">
<feGaussianBlur stdDeviation="4.832511"/>
</filter>
</defs>
<g transform="translate(-12.568)">
<path d="m165.27 4.066c-10.973 0-19 0.96481-24.436 3.2324-5.4103 2.1872-9.8229 6.2013-13.021 11.791-3.2008 5.5942-4.8008 12.046-4.8008 19.123 0 8.9504 2.4449 16.675 7.3242 22.691l4e-3 0.0039 4e-3 0.0059c3.8757 4.7348 9.2473 7.9633 15.85 9.875-2.4933 1.9988-4.7944 4.0822-6.6894 6.3496l-4e-3 0.0059c-3.1404 3.7023-7.0484 9.8451-11.971 18.639l-8e-3 0.0098-8.3691 14.812c-0.0668-12.493-0.53966-20.547-1.8633-25.053l-4e-3 -0.01758-6e-3 -0.01758c-2.1228-6.9146-6.714-13.101-13.486-18.623-6.9518-5.8358-16.262-8.6211-27.705-8.6211v-2e-3c-9.4394 0-18.565 1.7092-27.332 5.123-8.8196 3.4343-15.853 8.463-20.934 15.135-5.0415 6.5272-7.7207 13.706-7.7207 21.232 0 5.5665 2.1387 10.632 6.0352 14.633l0.01172 0.01 0.0078 0.0117c4.0188 4.0303 9.1024 6.0703 14.838 6.0703 5.3803 0 10.046-1.8402 13.52-5.5625h2e-3c3.4886-3.7448 5.3691-8.5667 5.3691-13.883 0-4.6358-1.9356-9.1824-5.3496-13.566l-0.0098-0.01172-0.0059-0.0098c-2.1628-2.7171-2.9043-4.8039-2.9043-5.6113 0-1.3128 0.47665-2.3915 2.2441-3.7812l2e-3 -2e-3c3.0429-2.3829 6.9943-3.6504 12.074-3.6504 2.9313 0 5.4358 0.83898 7.7344 2.5508l0.02344 0.01367 0.02148 0.01758c2.3587 1.6729 3.7419 3.5034 4.4473 5.541l0.02148 0.05469 0.01953 0.05273c0.26984 0.68899 0.69492 2.7802 0.93555 5.8066 0.24062 3.0264 0.36523 7.0525 0.36523 12.027v11.691c-25.054 13.14-41.489 23.654-49.506 32.156-8.32e-4 8.9e-4 -3e-3 9.5e-4 -0.0039 2e-3 -8.0407 8.4348-12.275 18.348-12.275 29.252 0 8.0858 2.4897 15.163 7.3301 20.656l0.0078 8e-3 0.0098 0.01c4.8495 5.3994 11.118 8.1582 18.311 8.1582 11.346 0 23.64-6.805 36.941-19.363 1.2439 5.5948 3.4984 10.201 6.9121 13.473l0.01172 0.01 0.01172 0.0137c4.2867 3.9998 10.11 5.8672 17.156 5.8672 6.061 0 11.594-1.6968 16.404-5.0957l6e-3 -4e-3 6e-3 -2e-3c3.8597-2.7578 7.5003-6.7291 10.982-11.832v3.1133h52.189v38.062c0 0.0589 6e-3 0.0181 6e-3 0.0606-8e-3 -0.0268-0.12536 0.0256-0.88672 0.0801-2.6872-1e-5 -12.358-8.9e-4 -20.053-0.26172l-4.5156-0.15235 2.2695 3.9062c2.1874 3.7672 4.6736 10.235 5.3809 14.242l0.36328 2.0644h2.0977c11.371 0 20.112-0.0341 26.875-2.5273 3.5287-1.2523 6.2528-3.2463 7.8262-6.1445 1.5753-2.9019 2.0195-6.3931 2.0195-10.74v-38.59h20.977c-2.686 4.5358-5.497 8.9416-7.9258 12.281l-1.6328 2.2441 17.701 10.238 1.3496-1.6133c7.6299-9.1286 15.462-22.445 21.477-35.01l1.1211-2.3418-16.113-6.9766-0.9336 0.34179-2.4941 0.90625h-15.961l2.2832-3.7109-2.5078-1.1973c-2.0698-0.98991-4.823-2.0129-7.4141-3.0215 9.9418-7.0706 19.623-15.045 27.262-22.684l1.9902-1.9902-14.414-11.361-4.4609 1.1562h-81.191v19.4h27.457l-10.264 15.656 2.9258 1.0977c4.8903 1.8338 10.963 4.3392 16.752 6.6543h-49.555v6.8965l-3.4082-3.0938-1.4473 2.248c-2.0444 3.1793-3.687 4.1699-4.7461 4.1699-0.60475 0-0.96787-0.1498-1.416-0.55664-0.38517-0.34967-0.77896-0.97147-1.0957-2.1074-0.193-0.75625-0.5293-4.7582-0.5293-10.744v-43.727h23.758l15.525-25.631 2e-3 -2e-3c5.2396-8.7041 8.9263-14.251 10.545-16.129l8e-3 -0.01367 0.01-0.0098c1.7329-2.0562 3.4608-3.328 5.1914-3.9805l0.0215-0.0078 0.0195-0.0098c1.6526-0.66198 4.9335-1.1465 9.5098-1.1465h1.7793v46.93h25.246v-117.68zm6.6465 24.277h13.619v23.264h-12.787c-9.7649 0-16.125-0.66519-17.654-1.2402-2.0176-0.75885-3.4459-1.9527-4.5488-3.7441-1.0733-1.7434-1.6621-3.9778-1.6621-6.9531 0-3.3088 0.75119-5.6118 2.168-7.377l0.0195-0.02344 0.0156-0.02344c1.3934-1.8202 3.3457-3.003 6.2305-3.543 1.1416-0.1731 6.3298-0.35938 14.6-0.35938zm-92.412 99.883v38.346c-4.9133 4.5246-9.068 6.6133-12.189 6.6133-3.2904 0-5.4409-1.0109-7.0527-2.9863l-0.0059-0.01-0.0078-0.01c-2.4051-2.8947-3.4961-5.9688-3.4961-9.6934 0-4.5824 1.4063-9.1648 4.4395-13.934l2e-3 -4e-3c8.38e-4 -1e-3 0.0011-3e-3 2e-3 -4e-3 4.0768-6.3487 10.248-12.471 18.309-18.318zm94.152 17.021h30.029c-3.2888 2.5533-6.6483 4.9815-10.016 7.1387-6.9966-2.5954-13.982-4.9939-19.547-6.9726z" color="#000000" color-rendering="auto" dominant-baseline="auto" fill="#212121" filter="url(#filter1247)" image-rendering="auto" shape-rendering="auto" solid-color="#000000" stop-color="#000000" style="font-feature-settings:normal;font-variant-alternates:normal;font-variant-caps:normal;font-variant-east-asian:normal;font-variant-ligatures:normal;font-variant-numeric:normal;font-variant-position:normal;font-variation-settings:normal;inline-size:0;isolation:auto;mix-blend-mode:normal;shape-margin:0;shape-padding:0;text-decoration-color:#000000;text-decoration-line:none;text-decoration-style:solid;text-indent:0;text-orientation:mixed;text-transform:none;white-space:normal"/>
<g transform="matrix(10.145 0 0 10.145 20.111 -772.57)" font-weight="bold" letter-spacing="0px" stroke-width=".49286" text-anchor="middle" word-spacing="0px">
<text transform="scale(-.95024 1.0524)" x="-14.779893" y="83.145844" fill="url(#linearGradient1161)" font-family="Arial" font-size="14.709px" stroke="#0066cc" text-align="center" style="line-height:1.25" xml:space="preserve"><tspan x="-14.779893" y="83.145844" fill="url(#linearGradient1161)" font-family="Arial" font-weight="bold" stroke="#0066cc" stroke-width=".49286">R</tspan></text>
<text transform="scale(.93873 1.0653)" x="4.9975963" y="89.428665" fill="url(#linearGradient1153)" font-family="'Times New Roman'" font-size="26.951px" stroke="#e35c2f" text-align="center" style="line-height:1.25" xml:space="preserve"><tspan x="4.9975963" y="89.428665" fill="url(#linearGradient1153)" stroke="#e35c2f" stroke-width=".49286">a</tspan></text>
<text x="16.637678" y="98.712311" fill="#00cc00" font-family="Arial" font-size="13.024px" stroke="#009900" text-align="center" style="line-height:1.25" xml:space="preserve"><tspan x="16.637678" y="98.712311" fill="#00cc00" stroke="#009900" stroke-width=".49286">予</tspan></text>
</g>
</g>
</svg>
