<svg version="1.1" viewBox="0 0 256 256" xmlns="http://www.w3.org/2000/svg" xmlns:xlink="http://www.w3.org/1999/xlink">
<defs>
<linearGradient id="linearGradient11963" x1="-103.35" x2="-103.35" y1="46.02" y2="22.819" gradientUnits="userSpaceOnUse">
<stop stop-color="#fff" offset="0"/>
<stop stop-color="#fff" offset="1"/>
</linearGradient>
<linearGradient id="linearGradient29562" x1="-101.62" x2="-88.294" y1="51.993" y2="22.435" gradientUnits="userSpaceOnUse">
<stop stop-color="#e1e1e1" offset="0"/>
<stop stop-color="#f1f1f1" offset=".5"/>
<stop stop-color="#ebebeb" offset="1"/>
</linearGradient>
<linearGradient id="linearGradient44218" x1="-99.204" x2="-87.911" y1="45.007" y2="45.007" gradientUnits="userSpaceOnUse">
<stop stop-color="#fff" stop-opacity="0" offset="0"/>
<stop stop-color="#fff" offset="1"/>
</linearGradient>
<linearGradient id="linearGradient155890" x1="-116.37" x2="-97.695" y1="18.002" y2="18.002" gradientUnits="userSpaceOnUse">
<stop stop-color="#c7c7c7" offset="0"/>
<stop stop-color="#fbfbfb" offset="1"/>
</linearGradient>
<filter id="filter871" x="-.1267" y="-.11929" width="1.2534" height="1.2386" color-interpolation-filters="sRGB">
<feGaussianBlur stdDeviation="12.028101"/>
</filter>
</defs>
<g transform="translate(-12.568)">
<path d="m66.835 14c-6.1754 0.03731-12.676 2.9372-17.988 7.4823-6.0711 5.1944-10.665 12.758-10.633 21.354 0.04097 10.912 5.5602 17.812 11.911 21.375 6.3508 3.5636 13.296 4.1936 17.525 3.7895 9.1543-0.87465 17.448-8.7988 25.616-16 8.168-7.2014 16.193-13.541 21.753-13.464 4.1876 0.05781 6.8824 1.9021 9.2785 4.8441 1.8736 2.3004 3.3963 5.2709 4.7701 8.2562-4.4088 1.195-8.9704 2.7316-13.411 4.7379-12.749 5.7595-24.617 15.453-27.179 30.824-5.2756 31.653-2.7413 83.226 5.25 109.86 9.2741 30.914 40.342 61.421 90.605 58.776 25.586-1.3466 46.07-13.334 60.071-28.939 14.001-15.606 21.658-34.791 21.658-51.14 0-12.473-5.735-32.002-16.268-53.273-10.533-21.272-25.919-44.123-45.529-62.392-10.883-10.139-25.274-12.396-37.038-12.567-2.0995-0.03048-4.0734 0.01391-5.9707 0.08346-2.1266-4.3361-6.9872-11.165-14.196-17.508-7.8058-6.8681-18.354-12.959-30.677-12.886-13.338 0.0791-23.348 8.6329-31.325 16.725-3.9886 4.0459-7.5262 8.0328-10.672 10.925-3.1463 2.8919-5.849 4.4795-7.7289 4.5672-4.2478 0.19804-6.4654-0.9147-7.8313-2.3632s-1.9762-3.5276-2.0067-5.6274c-0.03074-2.1226 0.93842-5.5228 3.0157-7.9356 2.0773-2.4128 5.0209-4.0703 9.91-3.4633 3.6693 0.45554 6.7671 0.14877 9.2178-0.80987 2.4506-0.95864 4.5075-2.7695 4.7948-5.3467 0.28728-2.5772-1.3793-4.8922-3.8123-6.443-2.433-1.5508-5.845-2.6634-10.489-3.2812-0.86459-0.11504-1.739-0.16844-2.6212-0.16311z" color="#000000" filter="url(#filter871)" opacity=".83" stroke-width="5.1759px" style="-inkscape-stroke:none"/>
<g transform="matrix(5.1759 0 0 5.1759 632.87 -66.124)">
<path d="m-99.367 20.325c-0.64404-1.452-1.449-3.2823-3.3809-3.309-2.802-0.03869-6.2359 5.4109-9.2062 5.6947-1.4111 0.13482-5.125-0.46704-5.1396-4.3661-0.0111-2.9588 3.1998-5.3443 5.4702-5.0421 3.3945 0.45167 2.7633 2.3965 0.18301 2.0762-2.1857-0.27135-3.0745 1.6078-3.0586 2.7059 0.0144 0.9938 0.57484 2.1223 2.4237 2.0361 2.311-0.10774 4.8614-6.1958 9.587-6.2238 4.426-0.02625 7.7218 4.4083 8.3047 5.7725" fill="url(#linearGradient155890)" stroke="#999" stroke-width="1px"/>
<path d="m-107.39 27c0.91902-5.5141 8.5-7 11.454-7.1134 2.06-0.07911 6.9355-0.77175 10.083 2.1602 7.4635 6.9533 11.78 17.481 11.78 21.981 0 6-5.7123 14.467-15.317 14.972-9.5 0.5-15.27-5.2331-17-11-1.5-5-2-15-1-21z" fill="url(#linearGradient29562)" stroke="#999" stroke-width="1px"/>
<path d="m-90.538 28.177c2.0311-3.1764-0.09966-6.8588-2.8912-7.0698-2.8921-0.21852-12.967-0.50977-13.39 6.3961-0.34036 5.557 0.12755 12.159 2.3368 18.466 0.67008 1.9132 1.2456 2.1944 1.6962-0.33033 0.93643-5.2464 8.273-11.246 12.248-17.463z" fill="url(#linearGradient11963)"/>
<g stroke-width="1px">
<path d="m-107.89 34c4-4 8.8752-6.0207 14-7 3.4832-0.66558 11 0.5 13 1" fill="none" stroke="#999"/>
<path d="m-96.89 20c2 3 3.2023 5.5238 3.5 7" fill="none" stroke="#999"/>
<path d="m-93.25 28.962c3.8767-0.8118 0.68106-6.9149-2.1952-6.1049-1.7477 0.49217-0.96459 6.7666 2.1952 6.1049z" fill="#66c" stroke="#66666c"/>
</g>
<path d="m-94.929 50.203c-5.5189 0.22379-7.5852 3.1515-1.2911 5.4074 7.2567 2.6009 16.788-1.9012 18.394-6.0136 1.38-3.5317 1.6205-8.8479-0.85289-14.268-1.1461-2.5114-1.5293-1.1662-1.6162 2.4899-0.20907 8.8029-6.7157 12.063-14.634 12.384z" fill="url(#linearGradient44218)"/>
</g>
</g>
</svg>
