<svg version="1.1" viewBox="0 0 256 256" xmlns="http://www.w3.org/2000/svg" xmlns:xlink="http://www.w3.org/1999/xlink">
<defs>
<radialGradient id="radialGradient1141" cx="33.142" cy="22.19" r="14.5" gradientTransform="matrix(.63756 .81466 -.7931 .62069 30.037 -18.772)" gradientUnits="userSpaceOnUse">
<stop stop-color="#0072f9" offset="0"/>
<stop stop-color="#0072f9" offset=".82759"/>
<stop stop-color="#005dce" offset="1"/>
</radialGradient>
<linearGradient id="linearGradient1169" x1="31.209" x2="31.857" y1="9.3636" y2="12.825" gradientUnits="userSpaceOnUse">
<stop stop-color="#aaf3ff" offset="0"/>
<stop stop-color="#aaf3ff" stop-opacity="0" offset="1"/>
</linearGradient>
<filter id="filter1216" x="-.048" y="-.048" width="1.096" height="1.096" color-interpolation-filters="sRGB">
<feGaussianBlur stdDeviation="4.840002"/>
</filter>
</defs>
<g transform="translate(-12.568)">
<path d="m138.12 4.0002a121 121 0 0 0-120.56 121 121 121 0 0 0 121 121 121 121 0 0 0 121-121 121 121 0 0 0-121-121 121 121 0 0 0-0.44336 0z" fill-rule="evenodd" filter="url(#filter1216)" stop-color="#000000"/>
<g transform="matrix(8.3448 0 0 8.3448 -367.75 -66.759)">
<g transform="translate(26.007)" fill-rule="evenodd">
<circle cx="34.068" cy="22.5" r="14.5" fill="url(#radialGradient1141)" stop-color="#000000"/>
<path d="m47.561 21.92c-0.044307-7.4122-6.0697-13.42-13.492-13.42-7.4499 0-13.5 6.0501-13.5 13.5 0.36496-4.7573 5.1515-12.194 13.534-12.194 7.3505 0 13.219 5.5264 13.458 12.114z" color="#000000" color-rendering="auto" dominant-baseline="auto" fill="url(#linearGradient1169)" image-rendering="auto" shape-rendering="auto" solid-color="#000000" stop-color="#000000" style="font-feature-settings:normal;font-variant-alternates:normal;font-variant-caps:normal;font-variant-east-asian:normal;font-variant-ligatures:normal;font-variant-numeric:normal;font-variant-position:normal;font-variation-settings:normal;inline-size:0;isolation:auto;mix-blend-mode:normal;shape-margin:0;shape-padding:0;text-decoration-color:#000000;text-decoration-line:none;text-decoration-style:solid;text-indent:0;text-orientation:mixed;text-transform:none;white-space:normal"/>
</g>
<path d="m55.918 20 6.6663-0.79606v11.05l2.4605 1.9675h-8.9559l2.3196-1.9675-0.065887-8.7541z" fill="#fcfcfc" fill-opacity=".98976"/>
<circle cx="60.088" cy="14.783" r="2.2832" fill="#fcfcfc" fill-opacity=".98976"/>
</g>
</g>
</svg>
