<svg version="1.1" viewBox="0 0 256 256" xmlns="http://www.w3.org/2000/svg" xmlns:xlink="http://www.w3.org/1999/xlink">
<defs>
<radialGradient id="radialGradient1141-3" cx="33.142" cy="22.19" r="14.5" gradientTransform="matrix(.76989 .98375 -.95772 .74952 -109.65 53.927)" gradientUnits="userSpaceOnUse">
<stop stop-color="#36c" offset="0"/>
<stop stop-color="#3466cc" offset=".82759"/>
<stop stop-color="#2f5fbd" offset="1"/>
</radialGradient>
<radialGradient id="radialGradient1237" cx="33.743" cy="27.531" r="14.42" gradientTransform="matrix(2.5046 -.42644 .20304 1.1925 -194.99 85.584)" gradientUnits="userSpaceOnUse">
<stop stop-color="#36c" stop-opacity="0" offset="0"/>
<stop stop-color="#36c" stop-opacity="0" offset=".5"/>
<stop stop-color="#cbfeff" offset="1"/>
</radialGradient>
<linearGradient id="linearGradient1534" x1="-212.25" x2="-189.72" y1="92.587" y2="128.04" gradientTransform="matrix(5.33 0 0 5.33 861.33 -443.42)" gradientUnits="userSpaceOnUse">
<stop stop-color="#fff" offset="0"/>
<stop stop-color="#f0f0f0" offset="1"/>
</linearGradient>
<filter id="filter1576" x="-.059382" y="-.05258" width="1.1188" height="1.1052" color-interpolation-filters="sRGB">
<feGaussianBlur stdDeviation="3.7342383"/>
</filter>
<filter id="filter1677" x="-.048" y="-.048" width="1.096" height="1.096" color-interpolation-filters="sRGB">
<feGaussianBlur stdDeviation="4.8020312"/>
</filter>
</defs>
<g transform="translate(-12.568)" fill-rule="evenodd">
<path d="m137.62 4c-66.273 1.1e-6 -120.05 53.778-120.05 120.05 0 66.273 53.778 120.05 120.05 120.05 66.273 0 120.05-53.778 120.05-120.05 0-66.273-53.778-120.05-120.05-120.05z" color="#000000" color-rendering="auto" dominant-baseline="auto" filter="url(#filter1677)" image-rendering="auto" shape-rendering="auto" solid-color="#000000" stop-color="#000000" style="font-feature-settings:normal;font-variant-alternates:normal;font-variant-caps:normal;font-variant-east-asian:normal;font-variant-ligatures:normal;font-variant-numeric:normal;font-variant-position:normal;font-variation-settings:normal;inline-size:0;isolation:auto;mix-blend-mode:normal;shape-margin:0;shape-padding:0;text-decoration-color:#000000;text-decoration-line:none;text-decoration-style:solid;text-indent:0;text-orientation:mixed;text-transform:none;white-space:normal"/>
<g transform="matrix(.97944 0 0 .97944 334.88 -19.289)" stroke-width="5.105">
<circle cx="-206.51" cy="142.26" r="120.02" fill="url(#linearGradient1534)" stop-color="#000000" stroke="#d5e2f9" stroke-linejoin="round" stroke-width="5.105"/>
<path d="m-203.57 59.171c-52.386 0-73.23 33.674-74.883 79.993-0.082 1.5957-0.12305 3.1932-0.12305 4.791-2.9e-4 51.543 23.525 85.665 75.068 85.665 51.543 2.9e-4 75.857-34.307 75.857-85.85-6e-4 -1.9526-0.0625-3.9048-0.18555-5.8535-2.2002-46.165-23.877-78.746-75.733-78.746zm2.7784 10.395c10.194 0 20.696 2.7443 29.086 9.7441s13.73 18.4 13.73 31.543c0 0.71599-0.0272 1.4194-0.0664 2.1172-8e-3 0.14552-0.0156 0.29081-0.0254 0.43555-0.0465 0.68608-0.10511 1.3663-0.1875 2.0352-7.9e-4 6e-3 -1e-3 0.0131-2e-3 0.0195-4e-3 0.0283-0.0101 0.0557-0.0137 0.084-0.0791 0.62741-0.17822 1.2448-0.28711 1.8574-0.0302 0.16981-0.0613 0.33912-0.0937 0.50782-0.12308 0.64095-0.25643 1.2772-0.41016 1.9023-1.5e-4 6.1e-4 1.5e-4 1e-3 0 2e-3 -6.4e-4 3e-3 -1e-3 5e-3 -2e-3 8e-3 -0.14845 0.60297-0.31505 1.1965-0.49024 1.7852-0.0593 0.19929-0.1213 0.39802-0.18359 0.5957-0.0749 0.23787-0.1573 0.47147-0.23633 0.70704-0.21665 0.6453-0.44731 1.2817-0.69336 1.9102-0.082 0.2095-0.163 0.41929-0.24805 0.62696-0.65909 1.6083-1.4059 3.1638-2.2266 4.668-0.0621 0.11396-0.12651 0.22646-0.18945 0.33985-0.37227 0.67028-0.75827 1.3314-1.1562 1.9824-0.0628 0.10272-0.12414 0.20634-0.1875 0.30859-0.93222 1.5039-1.925 2.9604-2.959 4.3691-9e-3 0.0116-0.0169 0.0236-0.0254 0.0352-0.017 0.0232-0.0357 0.0452-0.0527 0.0684-0.41385 0.56191-0.83509 1.1121-1.2598 1.6602-0.55902 0.72145-1.1254 1.4301-1.6973 2.1289-2.3594 2.8832-4.7952 5.586-7.0742 8.1543-4.3576 4.9108-8.4934 9.3027-11.139 12.586-2.6452 3.2833-2.582 6.0396-2.582 2.4258v15.99h-23.984v-15.99c0-8.9438 4.257-12.959 7.8906-17.469 1.4107-1.751 2.9238-3.4883 4.4668-5.2246 0.0141-2e-5 0.0269 2e-5 0.041 0 2.43-2.7344 4.9149-5.4687 7.3691-8.2344 8.0284-9.0475 13.721-18.672 13.721-22.393 0-7.3581-2.0873-10.604-5.1113-13.127-3.024-2.523-7.9246-4.1738-13.721-4.1738-11.187 0-20.776 6.1286-23.891 17.291l-23.1-6.4551c6.0666-21.74 26.198-34.822 46.99-34.822zm-2.9453 123.92h0.01c0.0905-7.7e-4 0.18099-7.7e-4 0.27149 0 8.8312-1.9e-4 15.99 7.159 15.99 15.99 1.9e-4 8.8312-7.159 15.99-15.99 15.99-8.8312 1.9e-4 -15.99-7.159-15.99-15.99-2e-3 -8.7226 6.9878-15.837 15.709-15.99z" fill="#212121" filter="url(#filter1576)" stop-color="#000000"/>
<g transform="matrix(5.33 0 0 5.33 284.98 -410.8)" stroke-width=".95778">
<path transform="translate(12.568)" d="m-104.84 86.256a17.51 17.51 0 0 0-17.453 17.51 17.51 17.51 0 0 0 17.51 17.51 17.51 17.51 0 0 0 17.51-17.51 17.51 17.51 0 0 0-17.51-17.51 17.51 17.51 0 0 0-0.0566 0zm0.56641 3.4941c1.9126 0 3.883 0.51482 5.457 1.8281s2.5762 3.4522 2.5762 5.918c0 3.1483-2.0738 5.3448-3.709 7.1875-0.81757 0.92136-1.5935 1.7453-2.0898 2.3613-0.49629 0.61601-0.48437 1.1331-0.48437 0.45508v3h-4.5v-3c0-1.678 0.79873-2.4312 1.4805-3.2773 0.68174-0.84617 1.4754-1.6767 2.2285-2.5254 1.5063-1.6975 2.5742-3.5031 2.5742-4.2012 0-1.3805-0.39163-1.9895-0.95899-2.4629-0.56735-0.47337-1.4868-0.7832-2.5742-0.7832-2.099 0-3.898 1.1499-4.4824 3.2441l-4.334-1.2109c1.1382-4.0788 4.9154-6.5332 8.8164-6.5332zm-0.55274 23.25a3 3 0 0 1 2e-3 0 3 3 0 0 1 0.0508 0 3 3 0 0 1 3 3 3 3 0 0 1-3 3 3 3 0 0 1-3-3 3 3 0 0 1 2.9473-3z" fill="url(#radialGradient1141-3)" stop-color="#000000"/>
<path transform="translate(12.568)" d="m-104.78 86.233c-10.043 0-17.502 8.2938-17.502 17.204 0 0 7.7415-0.18129 17.584-0.19531 0.45591-0.51303 0.92235-1.026 1.3828-1.5449 1.5063-1.6975 2.5742-3.5031 2.5742-4.2012 0-1.3805-0.39163-1.9895-0.95899-2.4629-0.56735-0.47337-1.4868-0.7832-2.5742-0.7832-2.099 0-3.898 1.1499-4.4824 3.2441l-4.334-1.2109c1.1382-4.0788 4.9154-6.5332 8.8164-6.5332 1.9126 0 3.883 0.51482 5.457 1.8281s2.5762 3.4522 2.5762 5.918c0 2.3714-1.1756 4.2031-2.4551 5.75 3.7172 0.0273 7.579 0.082 11.406 0.19141 0-8.9654-7.4735-17.204-17.49-17.204z" color="#000000" color-rendering="auto" dominant-baseline="auto" fill="url(#radialGradient1237)" image-rendering="auto" shape-rendering="auto" solid-color="#000000" stop-color="#000000" style="font-feature-settings:normal;font-variant-alternates:normal;font-variant-caps:normal;font-variant-east-asian:normal;font-variant-ligatures:normal;font-variant-numeric:normal;font-variant-position:normal;font-variation-settings:normal;inline-size:0;isolation:auto;mix-blend-mode:normal;shape-margin:0;shape-padding:0;text-decoration-color:#000000;text-decoration-line:none;text-decoration-style:solid;text-indent:0;text-orientation:mixed;text-transform:none;white-space:normal"/>
</g>
</g>
</g>
</svg>
