<svg version="1.1" viewBox="0 0 16 16" xmlns="http://www.w3.org/2000/svg" xmlns:xlink="http://www.w3.org/1999/xlink">
<defs>
<linearGradient id="linearGradient869">
<stop stop-color="#343467" offset="0"/>
<stop stop-color="#99cbfe" offset="1"/>
</linearGradient>
<linearGradient id="linearGradient861">
<stop stop-color="#9cf" offset="0"/>
<stop stop-color="#fff" offset="1"/>
</linearGradient>
<linearGradient id="linearGradient1832-9-2" x1="112.33" x2="104.3" y1="94.919" y2="85.287" gradientTransform="matrix(.62295 0 0 .62295 -73.473 -45.63)" gradientUnits="userSpaceOnUse" xlink:href="#linearGradient861"/>
<linearGradient id="linearGradient1834-1-8" x1="111.52" x2="102.63" y1="94.116" y2="83.838" gradientTransform="matrix(.62295 0 0 .62295 -73.473 -45.63)" gradientUnits="userSpaceOnUse" xlink:href="#linearGradient869"/>
<linearGradient id="linearGradient2219" x1="7.7286" x2="-19.308" y1="-2.8029" y2="-2.8029" gradientTransform="matrix(.50311 0 0 .50311 11.214 2.9054)" gradientUnits="userSpaceOnUse">
<stop stop-color="#2d4c25" offset="0"/>
<stop stop-color="#60ac58" offset="1"/>
</linearGradient>
<linearGradient id="linearGradient2227" x1="-15.455" x2="8.5702" y1="-3.1811" y2="-3.1811" gradientTransform="matrix(.50311 0 0 .50311 10.019 2.7639)" gradientUnits="userSpaceOnUse">
<stop stop-color="#67cb33" offset="0"/>
<stop stop-color="#107507" offset="1"/>
</linearGradient>
<linearGradient id="linearGradient2235" x1="8.4359" x2="-17.941" y1="22.794" y2="4.0003" gradientTransform="matrix(1.5165,0,0,1.5165,44.775,4.4337)" gradientUnits="userSpaceOnUse" xlink:href="#linearGradient869"/>
<linearGradient id="linearGradient2243" x1="9.4448" x2="-16.432" y1="18.91" gradientTransform="matrix(1.5165,0,0,1.5165,43.245,10.324)" gradientUnits="userSpaceOnUse" xlink:href="#linearGradient861"/>
<linearGradient id="linearGradient1343">
<stop stop-color="#9cf" offset="0"/>
<stop stop-color="#80bdfb" offset="1"/>
</linearGradient>
<linearGradient id="linearGradient1377-1-4" x1="16.118" x2="22.539" y1="4.963" y2="4.963" gradientTransform="matrix(.62295 0 0 .62295 -18.04 9.4083)" gradientUnits="userSpaceOnUse" xlink:href="#linearGradient1343"/>
<linearGradient id="linearGradient1848-0-9-5" x1="7.4167" x2="7.4167" y1=".95011" y2="14.595" gradientTransform="matrix(1.8777,0,0,1.8777,41.319,9.2516)" gradientUnits="userSpaceOnUse">
<stop stop-color="#9fa0ff" offset="0"/>
<stop stop-color="#cbcaff" offset="1"/>
</linearGradient>
<linearGradient id="linearGradient1850-2-8-9" x1="1.2051" x2="19.666" y1="10.068" y2="10.068" gradientTransform="matrix(1.8777,0,0,1.8777,18.319,17.752)" gradientUnits="userSpaceOnUse">
<stop stop-color="#ccccf2" offset="0"/>
<stop stop-color="#ccf" offset="1"/>
</linearGradient>
<linearGradient id="linearGradient44113" x1="16.118" x2="22.539" y1="4.963" y2="4.963" gradientTransform="matrix(.62295 0 0 .62295 -18.04 7.4083)" gradientUnits="userSpaceOnUse" xlink:href="#linearGradient1343"/>
<linearGradient id="linearGradient44136" x1="16.118" x2="22.539" y1="4.963" y2="4.963" gradientTransform="matrix(.62295 0 0 .62295 -18.04 5.4083)" gradientUnits="userSpaceOnUse" xlink:href="#linearGradient1343"/>
<linearGradient id="linearGradient3286-0" x1="112.1" x2="104.07" y1="94.917" y2="85.285" gradientTransform="matrix(1.8777,0,0,1.8777,-212.21,-138.62)" gradientUnits="userSpaceOnUse">
<stop stop-color="#ffc41d" offset="0"/>
<stop stop-color="#ffef92" offset="1"/>
</linearGradient>
<linearGradient id="linearGradient3296-6" x1="110.49" x2="102.63" y1="94.114" y2="83.838" gradientTransform="matrix(1.8777,0,0,1.8777,-212.21,-138.62)" gradientUnits="userSpaceOnUse" xlink:href="#linearGradient869"/>
<filter id="filter45720" x="-.14463" y="-.14945" width="1.2893" height="1.2989" color-interpolation-filters="sRGB">
<feGaussianBlur stdDeviation="0.9340625"/>
</filter>
<filter id="filter45781" x="-.24521" y="-.27428" width="1.4904" height="1.5486" color-interpolation-filters="sRGB">
<feGaussianBlur stdDeviation="0.54718261"/>
</filter>
</defs>
<path d="m1.7 0.2a0.50005 0.50005 0 0 0-0.5 0.5v3.5h-0.5a0.50005 0.50005 0 0 0-0.5 0.5v8a0.50005 0.50005 0 0 0 0.5 0.5h1.5v1.5a0.50005 0.50005 0 0 0 0.5 0.5h7a0.50005 0.50005 0 0 0 0.5-0.5v-1.5h5a0.50005 0.50005 0 0 0 0.5-0.5v-12a0.50005 0.50005 0 0 0-0.5-0.5z" color="#000000" filter="url(#filter45720)" stroke-linecap="round" stroke-linejoin="round" style="-inkscape-stroke:none"/>
<g>
<g transform="matrix(.33176 0 0 .33176 -4.3282 -.66119)" stroke-width="3.0142">
<path d="m58.259 9.5285v30.142h-40.692l4.58e-4 -30.171z" fill="url(#linearGradient2243)" stroke="url(#linearGradient2235)" stroke-linecap="round" stroke-linejoin="round"/>
<path d="m55.245 9.5285v28.635" fill="none" stroke="url(#linearGradient1848-0-9-5)"/>
<path d="m55.245 36.656h-36.171" fill="none" stroke="url(#linearGradient1850-2-8-9)"/>
</g>
<path d="m1.5 0.5h13.5v2l-13.5-0.0094328z" fill="url(#linearGradient2227)" stroke="url(#linearGradient2219)" stroke-linecap="round" stroke-linejoin="round"/>
<g transform="matrix(.33176 0 0 .33176 7.0709 -1.6396)" stroke-width="3.0142">
<path d="m-19.806 18.506h21.1v24.114h-21.1z" fill="url(#linearGradient3286-0)" style="paint-order:normal"/>
<path d="m-19.806 18.506h21.1v24.114h-21.1z" fill="none" stroke="url(#linearGradient3296-6)" stroke-linejoin="round" style="paint-order:normal"/>
</g>
</g>
<g transform="translate(12)">
<path d="m-9.5 6.5h7v8h-7z" fill="url(#linearGradient1832-9-2)" style="paint-order:normal"/>
<g fill="none">
<path d="m-9.4953 6.4835 6.9953 0.016507-3e-7 8h-7z" stroke="url(#linearGradient1834-1-8)" stroke-linejoin="round" style="paint-order:normal"/>
<g stroke-linecap="round">
<path d="m-7.5 12.5h3" stroke="url(#linearGradient1377-1-4)"/>
<path d="m-7.5 10.5h3" stroke="url(#linearGradient44113)"/>
<path d="m-7.5 8.5h3" stroke="url(#linearGradient44136)"/>
</g>
</g>
</g>
<path d="m12.861 2.8008c-0.34584 0.17098-0.69188 0.34199-1.0352 0.51172-0.00954 0.5668-0.02175 1.1363-0.03125 1.7031-0.33572 0.16599-0.67348 0.33277-1.0117 0.5 0.00953-0.5668 0.017844-1.1363 0.027344-1.7031-0.34332 0.16973-0.68936 0.34074-1.0352 0.51172-0.0095347 0.5668-0.017809 1.1363-0.027344 1.7031-0.33322 0.16473-0.66682 0.3294-1 0.49414 0.063007 0.29355 0.12644 0.58734 0.18945 0.88086 0.26251-0.1298 0.52655-0.26084 0.78906-0.39062-0.0080545 0.39168-0.013431 0.78218-0.021484 1.1738-0.29785 0.14727-0.59473 0.29414-0.89258 0.44141 0.063007 0.29355 0.12644 0.58734 0.18945 0.88086 0.22717-0.11232 0.45643-0.22557 0.68359-0.33789-0.010476 0.56248-0.019286 1.1228-0.029297 1.6875 0.34584-0.17098 0.69188-0.34199 1.0352-0.51172 0.01001-0.56468 0.022683-1.127 0.033203-1.6895 0.33572-0.16599 0.67544-0.33472 1.0137-0.50195-0.01047 0.56248-0.02123 1.1268-0.03125 1.6914 0.34332-0.16973 0.68935-0.34074 1.0352-0.51172 0.010009-0.56468 0.018776-1.129 0.029296-1.6914 0.33068-0.16349 0.66543-0.32675 0.99609-0.49023-0.063006-0.29355-0.12644-0.58734-0.18945-0.88086-0.25998 0.12854-0.52265 0.25888-0.78516 0.38867 0.00805-0.39168 0.013484-0.78218 0.021484-1.1738 0.29785-0.14727 0.59473-0.29609 0.89258-0.44336h0.001953c-0.063006-0.29355-0.12644-0.58539-0.18945-0.87891-0.22969 0.11357-0.45976 0.22628-0.68945 0.33984 0.01205-0.56805 0.02175-1.1363 0.03125-1.7031zm-1.0859 3.1992c-0.00553 0.39044-0.013932 0.78147-0.019532 1.1719-0.33823 0.16723-0.67406 0.33401-1.0098 0.5 0.00558-0.39044 0.010025-0.78147 0.015625-1.1719 0.33824-0.16724 0.67544-0.33277 1.0137-0.5zm-5.1152 0.095703c-0.70635 0-1.2703 0.23135-1.6934 0.69727-0.42119 0.46592-0.63281 1.0883-0.63281 1.8711s0.21162 1.4052 0.63281 1.8711c0.42309 0.46592 0.98702 0.69922 1.6934 0.69922 0.56468 0 1.0356-0.14704 1.4121-0.44336 0.37833-0.29629 0.59457-0.7631 0.65234-1.4023h-0.91797c-0.033546 0.37836-0.1502 0.64619-0.34961 0.80273-0.19944 0.15841-0.4654 0.23633-0.80273 0.23633-0.43048 0-0.77184-0.15112-1.0234-0.45117-0.25159-0.30002-0.37695-0.73848-0.37695-1.3125 0-0.57588 0.1274-1.0124 0.38086-1.3125 0.25346-0.30005 0.59701-0.44922 1.0312-0.44922 0.32239-1e-7 0.58601 0.075787 0.79102 0.23047 0.20314 0.15472 0.3197 0.40113 0.34766 0.74219h0.92188c-0.059638-0.59082-0.28423-1.0358-0.67188-1.334-0.38766-0.29632-0.8522-0.44531-1.3945-0.44531z" fill="#fff" fill-rule="evenodd" filter="url(#filter45781)" stroke="#fafafa" stroke-linejoin="round" stroke-width="2"/>
<g fill="#079807" fill-rule="evenodd" stroke-linejoin="round">
<path d="m6.6609 11.235c-0.70634 0-1.271-0.23296-1.6941-0.69888-0.42119-0.46592-0.63365-1.0884-0.63365-1.8711s0.21246-1.4052 0.63365-1.8711c0.42305-0.46592 0.98777-0.69888 1.6941-0.69888 0.54233 0 1.0064 0.1491 1.394 0.44542 0.38765 0.29819 0.61129 0.74361 0.67093 1.3344h-0.92064c-0.027954-0.34106-0.14537-0.58706-0.34851-0.74178-0.20501-0.15468-0.46779-0.2311-0.79017-0.2311-0.43424 0-0.77904 0.1491-1.0325 0.44915-0.25346 0.30005-0.3802 0.73805-0.3802 1.3139 0 0.57402 0.12487 1.012 0.37646 1.312 0.2516 0.30005 0.59266 0.45101 1.0231 0.45101 0.33733 0 0.60383-0.07828 0.80328-0.23669 0.19941-0.15655 0.31682-0.42492 0.35037-0.80328h0.9169c-0.057773 0.63924-0.27396 1.107-0.65229 1.4033-0.37646 0.29632-0.84611 0.44356-1.4108 0.44356z" stroke-width=".052597"/>
<path d="m13.708 5.0438c-0.29785 0.14727-0.59569 0.29453-0.89353 0.4418-8e-3 0.39165-0.01359 0.78205-0.02164 1.1737 0.26251-0.12979 0.52502-0.25959 0.785-0.38813 0.06301 0.29352 0.12603 0.58704 0.18904 0.88059-0.33066 0.16349-0.66384 0.32822-0.99452 0.49171-0.01052 0.56246-0.02095 1.1249-0.03096 1.6896-0.34581 0.17098-0.6916 0.34196-1.0349 0.51168 0.01002-0.56465 0.02048-1.1271 0.03095-1.6896-0.33823 0.16723-0.67646 0.33447-1.0122 0.50045-0.01052 0.56246-0.02347 1.1261-0.03348 1.6908-0.34328 0.16973-0.68908 0.3407-1.0349 0.51168 0.010011-0.56465 0.017956-1.1258 0.028432-1.6883-0.22716 0.11232-0.45686 0.22589-0.68402 0.33821-0.063014-0.29352-0.12603-0.58704-0.18904-0.88059 0.29785-0.14727 0.59569-0.29453 0.89353-0.4418 0.0080536-0.39165 0.013586-0.78205 0.021641-1.1737-0.26251 0.12979-0.52753 0.26083-0.79004 0.39063-0.063014-0.29352-0.12603-0.58704-0.18904-0.88059 0.33318-0.16474 0.66637-0.32947 0.99959-0.49421 0.0095348-0.56684 0.018598-1.1359 0.028133-1.7027 0.3458-0.17098 0.69161-0.34196 1.0349-0.51168-0.0095 0.56684-0.0186 1.1359-0.02813 1.7027 0.33823-0.16723 0.67646-0.33447 1.0122-0.50045 0.0095-0.56684 0.02112-1.1371 0.03066-1.7039 0.34328-0.16973 0.68908-0.3407 1.0349-0.51168-0.0095 0.56684-0.0186 1.1359-0.03065 1.7039 0.2297-0.11357 0.45939-0.22714 0.68908-0.3407 0.06301 0.29352 0.12603 0.58704 0.18904 0.88059zm-1.9335 0.956c-0.33823 0.16723-0.67394 0.33322-1.0122 0.50045-0.0056 0.39041-0.01101 0.7808-0.01659 1.1712 0.33571-0.16599 0.67141-0.33197 1.0096-0.4992 0.0056-0.39041 0.01359-0.78205 0.01912-1.1725z" stroke-width=".069794"/>
</g>
</svg>
