<svg version="1.1" viewBox="0 0 256 256" xmlns="http://www.w3.org/2000/svg" xmlns:xlink="http://www.w3.org/1999/xlink">
<defs>
<linearGradient id="linearGradient2219" x1="7.7286" x2="-19.308" y1="-2.8029" y2="-2.8029" gradientTransform="matrix(8.0829 0 0 8.0829 174.67 63.83)" gradientUnits="userSpaceOnUse">
<stop stop-color="#333367" offset="0"/>
<stop stop-color="#039" offset="1"/>
</linearGradient>
<linearGradient id="linearGradient2227" x1="-16.273" x2="9.4448" y1="-3.1811" y2="-3.1811" gradientTransform="matrix(8.0829 0 0 8.0829 155.47 61.56)" gradientUnits="userSpaceOnUse">
<stop stop-color="#0082d6" offset="0"/>
<stop stop-color="#00359a" offset="1"/>
</linearGradient>
<linearGradient id="linearGradient2235" x1="9.0951" x2="-17.941" y1="23.453" y2="4.0003" gradientTransform="matrix(1.5165,0,0,1.5165,44.775,4.4337)" gradientUnits="userSpaceOnUse">
<stop stop-color="#343467" offset="0"/>
<stop stop-color="#99cbfe" offset="1"/>
</linearGradient>
<linearGradient id="linearGradient2243" x1="9.4448" x2="-16.432" y1="18.91" gradientTransform="matrix(1.5165,0,0,1.5165,43.245,10.324)" gradientUnits="userSpaceOnUse">
<stop stop-color="#9cf" offset="0"/>
<stop stop-color="#fff" offset="1"/>
</linearGradient>
<linearGradient id="linearGradient1848-0-9-5" x1="8.6532" x2="8.6532" y1=".93112" y2="15.576" gradientTransform="matrix(1.8777,0,0,1.8777,41.319,9.2516)" gradientUnits="userSpaceOnUse">
<stop stop-color="#9fa0ff" offset="0"/>
<stop stop-color="#cbcaff" offset="1"/>
</linearGradient>
<linearGradient id="linearGradient1850-2-8-9" x1=".13229" x2="20.636" y1="11.316" y2="11.316" gradientTransform="matrix(1.8777,0,0,1.8777,18.319,17.752)" gradientUnits="userSpaceOnUse">
<stop stop-color="#ccccf2" offset="0"/>
<stop stop-color="#ccf" offset="1"/>
</linearGradient>
<filter id="filter1417" x="-.10221" y="-.11448" width="1.2044" height="1.229" color-interpolation-filters="sRGB">
<feGaussianBlur stdDeviation="9.5340674"/>
</filter>
<linearGradient id="linearGradient1448" x1="-3.4323" x2="-3.4323" y1="41" y2="28" gradientTransform="matrix(5.7324 0 0 5.7324 52.306 -6.8147)" gradientUnits="userSpaceOnUse">
<stop stop-color="#333363" offset="0"/>
<stop stop-color="#4d4d4d" offset=".5"/>
<stop stop-color="#959595" offset="1"/>
</linearGradient>
<linearGradient id="linearGradient1460" x1="-3.9323" x2="-3.9323" y1="38.5" y2="26.5" gradientTransform="matrix(5.7324 0 0 5.7324 83.835 1.784)" gradientUnits="userSpaceOnUse">
<stop stop-color="#c0c0c0" offset="0"/>
<stop stop-color="#fcfcfc" offset="1"/>
</linearGradient>
<linearGradient id="linearGradient1472" x1="-6.0601" x2="-6.0601" y1="39.886" y2="28.366" gradientTransform="matrix(5.7324 0 0 5.7324 198.48 -9.6809)" gradientUnits="userSpaceOnUse">
<stop stop-color="#f98d30" offset="0"/>
<stop stop-color="#ffb465" offset=".39"/>
<stop stop-color="#ff9" offset=".65"/>
<stop stop-color="#fff" offset="1"/>
</linearGradient>
<radialGradient id="radialGradient1548" cx="-11.776" cy="35.754" r="10.138" gradientTransform="matrix(-3.907 -.45555 .27851 -1.6831 97.028 253.2)" gradientUnits="userSpaceOnUse">
<stop stop-color="#952d10" offset="0"/>
<stop stop-color="#d97326" offset=".56801"/>
<stop stop-color="#fa9035" stop-opacity="0" offset="1"/>
</radialGradient>
<radialGradient id="radialGradient1558" cx="2.6184" cy="36.043" r="10.138" gradientTransform="matrix(1.1164 -3.371 4.9787 1.6489 -59.118 145.74)" gradientUnits="userSpaceOnUse">
<stop stop-color="#ffb363" offset="0"/>
<stop stop-color="#ffb769" stop-opacity="0" offset="1"/>
</radialGradient>
<filter id="filter979" x="-.074114" y="-.19898" width="1.1482" height="1.398" color-interpolation-filters="sRGB">
<feGaussianBlur stdDeviation="7.5432005"/>
</filter>
</defs>
<path d="m28.611 30.523a2.6653 2.6653 0 0 0-2.666 2.6641v31.98a2.6653 2.6653 0 0 0 2e-3 0.0039v162.56a2.6653 2.6653 0 0 0 2.6641 2.666h218.53a2.6653 2.6653 0 0 0 2.666-2.666v-194.54a2.6653 2.6653 0 0 0-2.666-2.6641z" color="#000000" filter="url(#filter1417)" stroke-linecap="round" stroke-linejoin="round" stroke-width="5.33" style="-inkscape-stroke:none"/>
<g transform="matrix(5.33,0,0,5.33,-75.026,6.5326)">
<path d="m58.568 9.5v30.5h-41v-30.5z" fill="url(#linearGradient2243)" stroke="url(#linearGradient2235)" stroke-linecap="round" stroke-linejoin="round"/>
<path d="m57.568 10v28.5" fill="none" stroke="url(#linearGradient1848-0-9-5)"/>
<path d="m57.068 39h-39" fill="none" stroke="url(#linearGradient1850-2-8-9)"/>
</g>
<path d="m18.611 25.188h218.53v31.98h-218.53z" fill="url(#linearGradient2227)" stroke="url(#linearGradient2219)" stroke-linecap="round" stroke-linejoin="round" stroke-width="5.33"/>
<g transform="translate(-186.06)">
<path d="m196.61 160.44v90.984h39.395v-5.7324h22.93v-28.631c2.194 0.0273 5.462 0.0902 9.9082 0.32421 6.7337 0.35442 14.661 1.1605 18.328 2.3828 1.7939 0.59796 5.635 2.3974 10.436 4.6406 0.38029 0.1777 0.86249 0.39295 1.2559 0.57617 0.32255 0.14795 0.62315 0.28669 0.96094 0.43946 4.3761 2.0309 9.338 4.291 14.797 6.4746 12.692 5.0768 27.244 9.5842 39.574 8.043 9.5938-1.1992 23.273-6.3133 37.664-13.637 14.391-7.3234 29.377-16.867 41.061-27.09 4.5657-3.995 7.1127-7.8734 7.7988-11.633 0.68613-3.7594-0.86476-7.3287-3.6738-9.377-5.522-4.0264-14.813-3.3858-23.883 2.4707-5.6544 2.0947-14.906 6.5454-21.277 12.098-1.8039 0.56497-3.5822 1.0924-5.2969 1.5605-1.9104 0.21435-3.8716 0.51796-5.8574 0.89258-0.93712-1.9313-3.1187-3.8073-6.6797-5.4551-0.524-1.8335-1.6255-3.5549-3.1855-5.0137-4.1749-3.9038-11.48-6.3795-22.545-7.1172-9.4519-0.63013-17.755-4.4004-26.762-8.1973-9.0065-3.7969-18.729-7.584-30.719-7.584-13.703 0-21.23 4.3473-31.904 6.6465v-8.0664h-22.93z" filter="url(#filter979)"/>
<g transform="translate(173.67 6.976)">
<g>
<path d="m141.55 190.95c45.859 8.5986 65.923-22.93 22.93-25.796-20.019-1.3346-34.384-15.776-57.314-15.776-14.331 0-21.615 5.0461-34.405 7.1777v42.993s22.93 0 31.528 2.8662c8.5986 2.8662 42.993 22.93 65.923 20.063 17.987-2.2484 54.458-20.063 77.388-40.127 17.197-15.048-1e-5 -25.796-17.197-14.331-12.898 8.5986-37.261 14.331-42.993 14.331" fill="url(#linearGradient1472)"/>
<rect x="15.434" y="147.96" width="34.394" height="85.986" fill="url(#linearGradient1448)" fill-rule="evenodd" stroke="#333" stroke-linecap="round" stroke-width="5"/>
<path d="m141.55 190.95c45.859 8.5986 65.923-22.93 22.93-25.796-20.019-1.3346-34.384-15.776-57.314-15.776-14.331 0-21.615 5.0461-34.405 7.1777v42.993s22.93 0 31.528 2.8662c8.5986 2.8662 42.993 22.93 65.923 20.063 17.017-11.766 21.631-25.301 17.197-40.127" fill="url(#radialGradient1558)"/>
<path d="m139.42 192.73c56.102 10.92 82.343-17.511 29.497-22.86-24.607-2.4907-58.194-0.79155-58.194-0.79155l-3.3636 37.142c5.3724 2.6981 37.472 19.229 65.867 17.946 21.537-10.022 27.873-22.474 23.122-36.699" fill="url(#radialGradient1548)"/>
<path d="m174.2 176.75c-8.7257 4.8164-9.4352 6.9189-9.1357 14.594l17.815-5.2889c1.4682-7.368-1.2482-7.3451-8.6798-9.3054z" fill="#ffedd6"/>
<path d="m146.14 191.51c4e-3 -3.0721 0.7965-8.0082 7.2408-12.756" fill="#562822" stroke="#8c3b19" stroke-linecap="round" stroke-width="5"/>
</g>
<path d="m141.55 190.95c45.859 8.5986 65.923-22.93 22.93-25.796-20.019-1.3346-34.384-15.776-57.314-15.776-14.331 0-21.615 5.0461-34.405 7.1777-0.13769 14.391-1.6957 29.398 0 42.993 0 0 22.93 0 31.528 2.8662 8.5986 2.8662 42.993 22.93 65.923 20.063 17.987-2.2484 54.458-20.063 77.388-40.127 17.197-15.048-1e-5 -25.796-17.197-14.331-5.983 2.2115-16.822 7.543-22.528 13.407-10.638 0.31947-24.994 4.6257-34.718 8.9898" fill="none" stroke="#8c3b19" stroke-linecap="round" stroke-width="5"/>
<rect x="49.828" y="147.96" width="22.93" height="80.254" fill="url(#linearGradient1460)" fill-rule="evenodd" stroke="#333" stroke-linecap="round" stroke-width="5"/>
<circle cx="61.293" cy="216.75" r="4.7478" fill="#333" fill-rule="evenodd"/>
</g>
</g>
</svg>
