<svg version="1.1" viewBox="0 0 256 256" xmlns="http://www.w3.org/2000/svg" xmlns:xlink="http://www.w3.org/1999/xlink">
<defs>
<filter id="filter965-3" x="-.1539" y="-.10227" width="1.3078" height="1.2045" color-interpolation-filters="sRGB">
<feGaussianBlur stdDeviation="9.6233508"/>
</filter>
<linearGradient id="linearGradient1411" x1="177.38" x2="177.38" y1="215.14" y2="137.04" gradientUnits="userSpaceOnUse">
<stop stop-color="#38d929" offset="0"/>
<stop stop-color="#62e052" offset="1"/>
</linearGradient>
<linearGradient id="linearGradient1327" x1="220.45" x2="261.63" y1="180.81" y2="180.81" gradientUnits="userSpaceOnUse">
<stop stop-color="#62e052" offset="0"/>
<stop stop-color="#fff" offset="1"/>
</linearGradient>
<linearGradient id="linearGradient863" x1="211.53" x2="244.54" y1="148.02" y2="67.298" gradientUnits="userSpaceOnUse">
<stop stop-color="#38d929" offset="0"/>
<stop stop-color="#fff" offset="1"/>
</linearGradient>
<linearGradient id="linearGradient1700" x1="317.29" x2="260.22" y1="273.64" y2="181.26" gradientTransform="translate(-175.07,-122)" gradientUnits="userSpaceOnUse">
<stop stop-color="#129900" offset="0"/>
<stop stop-color="#9dff7e" offset="1"/>
</linearGradient>
<linearGradient id="linearGradient13092" x1="147.64" x2="106.66" y1="169.42" y2="38.477" gradientTransform="translate(-23.089,6.0707)" gradientUnits="userSpaceOnUse">
<stop stop-color="#0d6c00" offset="0"/>
<stop stop-color="#1acc00" offset="1"/>
</linearGradient>
<filter id="filter862" x="-.18756" y="-.091372" width="1.3751" height="1.1827" color-interpolation-filters="sRGB">
<feGaussianBlur stdDeviation="7.892224"/>
</filter>
<filter id="filter965-3-6" x="-.1539" y="-.10227" width="1.3078" height="1.2045" color-interpolation-filters="sRGB">
<feGaussianBlur stdDeviation="9.6233508"/>
</filter>
<linearGradient id="linearGradient1411-6" x1="177.38" x2="177.38" y1="215.14" y2="137.04" gradientUnits="userSpaceOnUse">
<stop stop-color="#38d929" offset="0"/>
<stop stop-color="#62e052" offset="1"/>
</linearGradient>
<linearGradient id="linearGradient863-0" x1="211.53" x2="244.54" y1="148.02" y2="67.298" gradientUnits="userSpaceOnUse">
<stop stop-color="#38d929" offset="0"/>
<stop stop-color="#fff" offset="1"/>
</linearGradient>
<linearGradient id="linearGradient1828">
<stop stop-color="#f7f0ab" offset="0"/>
<stop stop-color="#8a99ae" offset="1"/>
</linearGradient>
<linearGradient id="linearGradient1830" x1="68.234" x2="117.11" y1="104" y2="104" gradientUnits="userSpaceOnUse" xlink:href="#linearGradient1828"/>
<linearGradient id="linearGradient1838" x1="36.643" x2="117.28" y1="136" y2="136" gradientUnits="userSpaceOnUse" xlink:href="#linearGradient1828"/>
<linearGradient id="linearGradient1846" x1="52.042" x2="117.16" y1="168" y2="168" gradientUnits="userSpaceOnUse" xlink:href="#linearGradient1828"/>
<filter id="filter1963" x="-.1096" y="-.13269" width="1.2192" height="1.2654" color-interpolation-filters="sRGB">
<feGaussianBlur stdDeviation="4.3675709"/>
</filter>
</defs>
<g transform="matrix(.58868 0 0 .58868 -36.713 -6.4371)" stroke-linejoin="round">
<path d="m164.12 28.982a5.0005 5.0005 0 0 0-3.541 1.4785l-79.598 80.215a5.0005 5.0005 0 0 0-0.01172 0.0215 5.0005 5.0005 0 0 0-1.1562 2.0527 5.0005 5.0005 0 0 0-0.12305 0.62891 5.0005 5.0005 0 0 0-0.16016 0.81836v80.215a5.0005 5.0005 0 0 0 1.5996 3.6641l59.854 55.533a5.0005 5.0005 0 0 0 0.24806 0.14062 5.0005 5.0005 0 0 0 0.97851 0.55469 5.0005 5.0005 0 0 0 1.0566 0.45312 5.0005 5.0005 0 0 0 1.1367 0.0586 5.0005 5.0005 0 0 0 1.1387-0.0703 5.0005 5.0005 0 0 0 1.0508-0.45703 5.0005 5.0005 0 0 0 0.97852-0.57226 5.0005 5.0005 0 0 0 0.26368-0.1543l80.215-76.512a5.0005 5.0005 0 0 0 1.5488-3.6191v-78.98a5.0005 5.0005 0 0 0-0.0176-0.09375 5.0005 5.0005 0 0 0-0.33399-1.6992 5.0005 5.0005 0 0 0-0.0488-0.13867 5.0005 5.0005 0 0 0-1.002-1.5293 5.0005 5.0005 0 0 0-0.0332-0.03711 5.0005 5.0005 0 0 0-0.0293-0.03711l-60.469-60.469a5.0005 5.0005 0 0 0-3.5449-1.4648z" color="#000000" filter="url(#filter965-3)" opacity=".83" stroke-linecap="round" stroke-width="10" style="-inkscape-stroke:none"/>
<g transform="matrix(-1.1214,0,0,1.1214,368.62,-23.716)" stroke-width="8.9176">
<path d="m212.44 159.47-71.532-66.58v70.431l71.532 68.23z" fill="url(#linearGradient1411)" stroke="#00bd00" stroke-linecap="round"/>
<path d="m212.44 159.47 53.374-48.972v71.532l-53.374 49.522z" fill="url(#linearGradient1327)" stroke="#20b520"/>
<path d="m140.91 92.892 53.924-53.924 70.982 71.532-53.374 48.972z" fill="url(#linearGradient863)" stroke="#1fad1f" stroke-linecap="round"/>
</g>
</g>
<g transform="matrix(.58868 0 0 .58868 -37.337 32.326)" stroke-linejoin="round">
<path d="m164.12 28.982a5.0005 5.0005 0 0 0-3.541 1.4785l-79.598 80.215a5.0005 5.0005 0 0 0-0.01172 0.0215 5.0005 5.0005 0 0 0-1.1562 2.0527 5.0005 5.0005 0 0 0-0.12305 0.62891 5.0005 5.0005 0 0 0-0.16016 0.81836v80.215a5.0005 5.0005 0 0 0 1.5996 3.6641l59.854 55.533a5.0005 5.0005 0 0 0 0.24806 0.14062 5.0005 5.0005 0 0 0 0.97851 0.55469 5.0005 5.0005 0 0 0 1.0566 0.45312 5.0005 5.0005 0 0 0 1.1367 0.0586 5.0005 5.0005 0 0 0 1.1387-0.0703 5.0005 5.0005 0 0 0 1.0508-0.45703 5.0005 5.0005 0 0 0 0.97852-0.57226 5.0005 5.0005 0 0 0 0.26368-0.1543l80.215-76.512a5.0005 5.0005 0 0 0 1.5488-3.6191v-78.98a5.0005 5.0005 0 0 0-0.0176-0.09375 5.0005 5.0005 0 0 0-0.33399-1.6992 5.0005 5.0005 0 0 0-0.0488-0.13867 5.0005 5.0005 0 0 0-1.002-1.5293 5.0005 5.0005 0 0 0-0.0332-0.03711 5.0005 5.0005 0 0 0-0.0293-0.03711l-60.469-60.469a5.0005 5.0005 0 0 0-3.5449-1.4648z" color="#000000" filter="url(#filter965-3-6)" opacity=".83" stroke-linecap="round" stroke-width="10" style="-inkscape-stroke:none"/>
<g transform="matrix(-1.1214,0,0,1.1214,368.62,-23.716)" stroke-width="8.9176">
<path d="m212.44 159.47-71.532-66.58v70.431l71.532 68.23z" fill="url(#linearGradient1411-6)" stroke="#00bd00" stroke-linecap="round"/>
<path d="m212.44 159.47 53.374-48.972v71.532l-53.374 49.522z" fill="url(#linearGradient1327)" stroke="#20b520"/>
<path d="m140.91 92.892 53.924-53.924 70.982 71.532-53.374 48.972z" fill="url(#linearGradient863-0)" stroke="#1fad1f" stroke-linecap="round"/>
</g>
</g>
<g transform="translate(66.74 -1.1667)" stroke-width="5">
<path d="m92.06 39.197v207.3l100.99-103.65z" color="#000000" filter="url(#filter862)" opacity=".83" style="-inkscape-stroke:none;mix-blend-mode:normal"/>
<path d="m80.004 30.5v195l95-97.5z" fill="url(#linearGradient1700)" stroke="url(#linearGradient13092)"/>
</g>
<g transform="translate(19.907 36.225)">
<path d="m59.353 114.1c-4.1421 0-7.5 3.3579-7.5 7.5s3.3579 7.5 7.5 7.5h48.881c4.1421 0 7.5-3.3579 7.5-7.5s-3.3579-7.5-7.5-7.5zm-31.59 32c-4.1421 0-7.5 3.3579-7.5 7.5s3.3579 7.5 7.5 7.5h80.637c4.1421 0 7.5-3.3579 7.5-7.5s-3.3579-7.5-7.5-7.5zm15.398 32c-4.1421 0-7.5 3.3579-7.5 7.5s3.3579 7.5 7.5 7.5h65.123c4.1421 0 7.5-3.3579 7.5-7.5s-3.3579-7.5-7.5-7.5z" color="#000000" color-rendering="auto" dominant-baseline="auto" fill="#212121" filter="url(#filter1963)" image-rendering="auto" shape-rendering="auto" solid-color="#000000" stop-color="#000000" style="font-feature-settings:normal;font-variant-alternates:normal;font-variant-caps:normal;font-variant-east-asian:normal;font-variant-ligatures:normal;font-variant-numeric:normal;font-variant-position:normal;font-variation-settings:normal;inline-size:0;isolation:auto;mix-blend-mode:normal;shape-margin:0;shape-padding:0;text-decoration-color:#000000;text-decoration-line:none;text-decoration-style:solid;text-indent:0;text-orientation:mixed;text-transform:none;white-space:normal"/>
<g transform="translate(-13.882 13.605)" fill="none" stroke-linecap="round" stroke-width="15">
<path d="m68.234 104h48.88" stroke="url(#linearGradient1830)"/>
<path d="m36.643 136h80.638" stroke="url(#linearGradient1838)"/>
<path d="m52.042 168h65.122" stroke="url(#linearGradient1846)"/>
</g>
</g>
</svg>
