<svg version="1.1" viewBox="0 0 256 256" xmlns="http://www.w3.org/2000/svg">
<path d="m148.57 18.924c-17.121 0.09407-31.635 7.3438-42.588 21.15-6e-3 0.0067-0.01 0.01479-0.0156 0.02148-0.0611 0.07076-0.11698 0.14579-0.17774 0.2168-0.0133 0.01695-0.0226 0.02747-0.0332 0.04102-10.994 12.869-17.221 29.735-18.779 50.219-1.6608 21.365 1.9159 40.604 10.807 57.424 2.3739 4.5094 5.1143 8.3883 8.0293 11.965-1.9581 0.47408-3.9001 0.90708-5.8906 1.4668-17.089 4.7469-29.415 11.709-36.566 21.406-7.4009 9.953-9.5357 18.832-7.8653 36.013l2e-3 0.0234 0.0039 0.0234c0.57908 5.2117 3.5724 9.8899 8.2734 13.754 4.701 3.864 11.145 7.1068 19.373 9.9688l-0.0059-4e-3c14.305 5.0066 32.392 8.2694 54.346 9.9043 20.051 1.8617 38.407 1.9846 55.08 0.3418 8.6859-0.82164 15.554-1.9268 20.76-3.4141 5.1963-1.4844 8.9951-3.1172 11.051-6.5938 6.4677-10.632 6.0199-24.072-0.48242-39.244l-0.012-0.0274c-6.0048-13.691-14.865-24.871-26.455-33.328-5.1349-3.8384-10.572-6.9337-16.164-9.6367 1.8696-1.6498 3.7188-3.4023 5.5293-5.3398l2e-3 -4e-3 4e-3 -4e-3c12.49-13.451 20.874-30.395 25.148-50.57 1.4045-6.5049 2.1373-12.742 2.3926-18.791l0.4629-0.01172c-2.8e-4 -0.04563-7e-3 -0.08528-8e-3 -0.13086h6e-3c-1e-3 -0.02412-9e-3 -0.04623-0.01-0.07031-0.0309-4.1514-0.24835-8.1278-0.64844-11.928-0.28419-3.0339-0.71725-6.0197-1.3359-8.9453-5.6135-28.095-24.361-40.416-53.431-45.098l-0.0234-2e-3 -0.0234-0.0039c-3.6888-0.54424-7.2737-0.81014-10.754-0.79102zm-42.781 21.389c0 0.06466 0.0316-0.03994 0.0957-0.12109l0.0606-0.07227c-0.0181 0.02287-0.0386 0.04155-0.0566 0.06445-0.0669 0.08473-0.0996 0.06231-0.0996 0.12891z" color="#000000" color-rendering="auto" dominant-baseline="auto" fill-rule="evenodd" filter="url(#filter882)" image-rendering="auto" opacity=".83" shape-rendering="auto" solid-color="#000000" stop-color="#000000" style="font-feature-settings:normal;font-variant-alternates:normal;font-variant-caps:normal;font-variant-east-asian:normal;font-variant-ligatures:normal;font-variant-numeric:normal;font-variant-position:normal;font-variation-settings:normal;inline-size:0;isolation:auto;mix-blend-mode:normal;shape-margin:0;shape-padding:0;text-decoration-color:#000000;text-decoration-line:none;text-decoration-style:solid;text-indent:0;text-orientation:mixed;text-transform:none;white-space:normal"/>
<g transform="matrix(6.9423 0 0 6.9423 40.999 0)">
<path d="m4.218 32.457q3 1.05 7.7 1.4 4.3 0.4 7.85 0.05 3.7-0.35 4.2-1.2 1.25-2.05-0.1-5.2-1.25-2.85-3.65-4.6-5.55-4.15-13.55-1.9-3.6 1-5 2.9-1.45 1.95-1.1 5.55 0.2 1.8 3.65 3" fill="url(#gradient0)" fill-rule="evenodd"/>
<path d="m4.218 32.457q-3.45-1.2-3.65-3-0.35-3.6 1.1-5.55 1.4-1.9 5-2.9 8-2.25 13.55 1.9 2.4 1.75 3.65 4.6 1.35 3.15 0.1 5.2-0.5 0.85-4.2 1.2-3.55 0.35-7.85-0.05-4.7-0.35-7.7-1.4z" fill="none" stroke="#060" stroke-linecap="round" stroke-linejoin="round"/>
<path d="m18.368 21.957q-2.35-1.4-5.6-1.4l-3.25-0.2-1.45 0.2q-0.95 5.6 2.35 12.45 4.2-7.3 7.95-11.05" fill="url(#gradient1)" fill-rule="evenodd"/>
<path d="m18.368 21.957q-3.75 3.75-7.95 11.05-3.3-6.85-2.35-12.45l1.45-0.2 3.25 0.2q3.25 0 5.6 1.4z" fill="none" stroke="#060" stroke-linecap="round" stroke-linejoin="round"/>
<path d="m12.368 22.607q3.4 0.45 6.25-2.6 2.6-2.8 3.5-7.05 0.95-4.4-0.6-7.7-1.7-3.75-6.1-4.5-4.55-0.8-7.35 2.3-2.55 2.7-2.9 7.3-0.35 4.5 1.5 8 2 3.8 5.7 4.25" fill="url(#gradient2)" fill-rule="evenodd"/>
<path d="m12.368 22.607q-3.7-0.45-5.7-4.25-1.85-3.5-1.5-8 0.35-4.6 2.9-7.3 2.8-3.1 7.35-2.3 4.4 0.75 6.1 4.5 1.55 3.3 0.6 7.7-0.9 4.25-3.5 7.05-2.85 3.05-6.25 2.6z" fill="none" stroke="#960" stroke-linecap="round" stroke-linejoin="round"/>
<path d="m22.018 9.2575q-2.3-5.1-8.25-2.85-5.1 1.95-7.45-0.4 4.05 5.2 8.25 2.8 3.25-1.85 7.45 0.45" fill="url(#gradient3)" fill-rule="evenodd"/>
<path d="m22.518 10.357q-0.05-8.55-7.5-9.75-6.1-0.9-8.9 5.65 1.1 1.35 3.75 1.85 1.4 0.3 2.6-0.25 1.85-0.85 3.95-1.15 2.9-0.4 4.7 1.3 1.35 1.2 1.4 2.35" fill="url(#gradient4)" fill-rule="evenodd"/>
<path d="m22.518 10.357q-0.05-1.15-1.4-2.35-1.8-1.7-4.7-1.3-2.1 0.3-3.95 1.15-1.2 0.55-2.6 0.25-2.65-0.5-3.75-1.85 2.8-6.55 8.9-5.65 7.45 1.2 7.5 9.75z" fill="none" stroke="#960" stroke-linecap="round" stroke-linejoin="round"/>
<path d="m10.818 7.7575 2.5-1.05q1.65-0.8 3.55-0.8 4.25 0 5.15 3.75 0.5-3.3-2.8-4.7-3.6-1.55-6.15-0.4l-1.75 1.05q-0.95 0.65-1.45 0.75-1.4 0.35-2.1 0l-0.4-0.3-0.3-0.15q0-0.75-0.4-0.1-0.4 0.7-0.05 1 0.6 0.5 1.9 0.8l2.3 0.15" fill="url(#gradient5)" fill-rule="evenodd"/>
</g>
<defs>
<radialGradient id="gradient0" cx="0" cy="0" r="819.2" gradientTransform="matrix(.0208 0 0 .0208 11.718 21.957)" gradientUnits="userSpaceOnUse">
<stop stop-color="#cfc" offset="0"/>
<stop stop-color="#090" offset="1"/>
</radialGradient>
<linearGradient id="gradient1" x1="-819.2" x2="819.2" gradientTransform="matrix(-7e-4 .0077 .0063 5e-4 13.318 27.107)" gradientUnits="userSpaceOnUse">
<stop stop-color="#9cf" offset="0"/>
<stop stop-color="#9cf" offset=".094118"/>
<stop stop-color="#fff" offset=".39608"/>
<stop stop-color="#cff" offset="1"/>
</linearGradient>
<radialGradient id="gradient2" cx="0" cy="0" r="819.2" gradientTransform="matrix(.0277 0 0 .0277 12.468 2.2575)" gradientUnits="userSpaceOnUse">
<stop stop-color="#ff9" offset="0"/>
<stop stop-color="#fc6" offset=".24314"/>
<stop stop-color="#f93" offset=".71373"/>
<stop stop-color="#960" offset="1"/>
</radialGradient>
<linearGradient id="gradient3" x1="-819.2" x2="819.2" gradientTransform="matrix(0 .0022 .0096 0 14.168 7.6575)" gradientUnits="userSpaceOnUse">
<stop stop-color="#f93" offset="0"/>
<stop stop-color="#f93" offset=".48627"/>
<stop stop-color="#fc6" offset="1"/>
</linearGradient>
<radialGradient id="gradient4" cx="0" cy="0" r="819.2" gradientTransform="matrix(.016 0 0 .016 13.068 1.3075)" gradientUnits="userSpaceOnUse">
<stop stop-color="#f0ddbd" offset="0"/>
<stop stop-color="#d8a650" offset=".38039"/>
<stop stop-color="#960" offset=".81961"/>
<stop stop-color="#926821" offset="1"/>
</radialGradient>
<linearGradient id="gradient5" x1="-819.2" x2="819.2" gradientTransform="matrix(-.0075 .0035 .0026 .0056 14.468 6.0575)" gradientUnits="userSpaceOnUse">
<stop stop-color="#960" offset="0"/>
<stop stop-color="#f0ddbd" offset=".34118"/>
<stop stop-color="#d8a650" offset=".67843"/>
<stop stop-color="#960" offset="1"/>
</linearGradient>
<filter id="filter882" x="-.14443" y="-.10693" width="1.2889" height="1.2139" color-interpolation-filters="sRGB">
<feGaussianBlur stdDeviation="10.473764"/>
</filter>
</defs>
</svg>
