<svg version="1.1" viewBox="0 0 256 256" xmlns="http://www.w3.org/2000/svg" xmlns:xlink="http://www.w3.org/1999/xlink"><defs><linearGradient id="linearGradient1048" x1="-5.2193" x2="-9.9337" y1="10.397" y2="12.091" gradientTransform="matrix(0 31.208 -31.208 0 489.43 369.52)" gradientUnits="userSpaceOnUse"><stop stop-color="#159a0c" offset="0"/><stop stop-color="#8cf25a" offset="1"/></linearGradient><filter id="filter1061" x="-.11711" y="-.1002" width="1.2342" height="1.2004" color-interpolation-filters="sRGB"><feGaussianBlur stdDeviation="9.5535125"/></filter></defs><g transform="translate(-12.568)" stroke-linecap="round" stroke-linejoin="round" stroke-width="10"><path d="m114.47 22.592a5.0005 5.0005 0 0 0-5 5v106.47h-52.801a5.0005 5.0005 0 0 0-3.7441 8.3125l94.957 107.34a5.0005 5.0005 0 0 0 7.5625-0.084l90.828-107.34a5.0005 5.0005 0 0 0-3.8164-8.2305h-61.057v-106.47a5.0005 5.0005 0 0 0-5-5z" color="#000000" filter="url(#filter1061)" style="-inkscape-stroke:none"/><path d="m167.4 18.593v111.47h66.057l-90.829 107.34-94.958-107.34h57.8v-111.47z" fill="url(#linearGradient1048)" stroke="#418924"/></g></svg>
