<svg version="1.1" viewBox="0 0 256 256" xmlns="http://www.w3.org/2000/svg" xmlns:xlink="http://www.w3.org/1999/xlink">
<defs>
<radialGradient id="radialGradient892-1" cx="-73.449" cy="6.6144" r="22.5" gradientTransform="matrix(3.8635 9.2828 -7.8486 3.2666 431.97 673.9)" gradientUnits="userSpaceOnUse">
<stop stop-color="#fc4c4c" offset="0"/>
<stop stop-color="#ce0000" offset=".53081"/>
<stop stop-color="#9e0000" offset=".8375"/>
<stop stop-color="#770101" offset="1"/>
</radialGradient>
<radialGradient id="radialGradient908-6" cx="-47.659" cy="15.382" r="22.5" gradientTransform="matrix(2.1491 -.5845 .25031 .92037 -118.38 168.04)" gradientUnits="userSpaceOnUse">
<stop stop-color="#d10100" stop-opacity="0" offset="0"/>
<stop stop-color="#d10100" stop-opacity="0" offset=".22105"/>
<stop stop-color="#ff2121" stop-opacity=".51654" offset=".73683"/>
<stop stop-color="#ffa0a0" offset="1"/>
</radialGradient>
<filter id="filter916-5" x="-.048001" y="-.079386" width="1.096" height="1.1588" color-interpolation-filters="sRGB">
<feGaussianBlur stdDeviation="0.81563614"/>
</filter>
<filter id="filter1071" x="-.048" y="-.048" width="1.096" height="1.096" color-interpolation-filters="sRGB">
<feGaussianBlur stdDeviation="4.9"/>
</filter>
</defs>
<g transform="translate(-12.568)" fill-rule="evenodd">
<circle cx="135.46" cy="119.19" r="100.98" fill="#fff" stop-color="#000000" stroke-linecap="round" stroke-width="25.196"/>
<path transform="matrix(.98776 0 0 .98776 378.93 -109.21)" d="m-243.34 114.62a122.5 122.5 0 0 0-122.5 122.5 122.5 122.5 0 0 0 122.5 122.5 122.5 122.5 0 0 0 122.5-122.5 122.5 122.5 0 0 0-122.5-122.5zm-47.798 52.934 47.033 47.033 47.033-47.033 24.5 24.5-47.033 47.033 47.033 47.033-24.5 24.5-47.033-47.033-47.033 47.033-24.5-24.5 47.033-47.033-47.033-47.033z" filter="url(#filter1071)" stop-color="#000000"/>
<path d="m133.57-3.6134e-6a121 121 0 0 0-121 121 121 121 0 0 0 121 121 121 121 0 0 0 121-121 121 121 0 0 0-121-121zm-47.213 52.286 46.457 46.457 46.457-46.457 24.2 24.2-46.457 46.457 46.457 46.457-24.2 24.2-46.457-46.457-46.457 46.457-24.2-24.2 46.457-46.457-46.457-46.457z" fill="url(#radialGradient892-1)" stop-color="#000000"/>
<path transform="matrix(5.3778 0 0 5.3778 1299.9 -989.38)" d="m-216.89 186.08c-11.262 0-20.391 9.129-20.391 20.391 0 3.6056 2.9198 4.2677 6.7143 4.2677l9.0357-3.9064-8.6387-8.6387 4.5-4.5 8.6387 8.6387 8.6387-8.6387 4.5 4.5-8.6387 8.6387 11.546 1.7904c2.8868 0 4.4856-0.47198 4.4856-2.1517 0-11.262-9.129-20.391-20.391-20.391z" fill="url(#radialGradient908-6)" filter="url(#filter916-5)" stop-color="#000000"/>
</g>
</svg>
