<svg version="1.1" viewBox="0 0 256 256" xmlns="http://www.w3.org/2000/svg" xmlns:xlink="http://www.w3.org/1999/xlink">
<defs>
<filter id="filter965-3" x="-.1539" y="-.10227" width="1.3078" height="1.2045" color-interpolation-filters="sRGB">
<feGaussianBlur stdDeviation="9.6233508"/>
</filter>
<linearGradient id="linearGradient1411" x1="177.38" x2="177.38" y1="215.14" y2="137.04" gradientUnits="userSpaceOnUse">
<stop stop-color="#38d929" offset="0"/>
<stop stop-color="#62e052" offset="1"/>
</linearGradient>
<linearGradient id="linearGradient1327" x1="220.45" x2="261.63" y1="180.81" y2="180.81" gradientUnits="userSpaceOnUse">
<stop stop-color="#62e052" offset="0"/>
<stop stop-color="#fff" offset="1"/>
</linearGradient>
<linearGradient id="linearGradient863" x1="211.53" x2="244.54" y1="148.02" y2="67.298" gradientUnits="userSpaceOnUse">
<stop stop-color="#38d929" offset="0"/>
<stop stop-color="#fff" offset="1"/>
</linearGradient>
<linearGradient id="linearGradient1700" x1="317.29" x2="260.22" y1="273.64" y2="181.26" gradientTransform="translate(-175.07,-122)" gradientUnits="userSpaceOnUse">
<stop stop-color="#129900" offset="0"/>
<stop stop-color="#9dff7e" offset="1"/>
</linearGradient>
<linearGradient id="linearGradient13092" x1="147.64" x2="106.66" y1="169.42" y2="38.477" gradientTransform="translate(-23.089,6.0707)" gradientUnits="userSpaceOnUse">
<stop stop-color="#0d6c00" offset="0"/>
<stop stop-color="#1acc00" offset="1"/>
</linearGradient>
<filter id="filter862" x="-.18756" y="-.091372" width="1.3751" height="1.1827" color-interpolation-filters="sRGB">
<feGaussianBlur stdDeviation="7.892224"/>
</filter>
<radialGradient id="radialGradient892-1" cx="-73.449" cy="6.6144" r="22.5" gradientTransform="matrix(3.8635,9.2828,-7.8486,3.2666,431.97,673.9)" gradientUnits="userSpaceOnUse">
<stop stop-color="#fc4c4c" offset="0"/>
<stop stop-color="#ce0000" offset=".53081"/>
<stop stop-color="#9e0000" offset=".8375"/>
<stop stop-color="#770101" offset="1"/>
</radialGradient>
<radialGradient id="radialGradient908-6" cx="-47.659" cy="15.382" r="22.5" gradientTransform="matrix(2.1491 -.5845 .25031 .92037 -118.38 168.04)" gradientUnits="userSpaceOnUse">
<stop stop-color="#d10100" stop-opacity="0" offset="0"/>
<stop stop-color="#d10100" stop-opacity="0" offset=".22105"/>
<stop stop-color="#ff2121" stop-opacity=".51654" offset=".73683"/>
<stop stop-color="#ffa0a0" offset="1"/>
</radialGradient>
<filter id="filter916-5" x="-.048" y="-.079385" width="1.096" height="1.1588" color-interpolation-filters="sRGB">
<feGaussianBlur stdDeviation="0.81563614"/>
</filter>
<filter id="filter1071" x="-.048" y="-.048" width="1.096" height="1.096" color-interpolation-filters="sRGB">
<feGaussianBlur stdDeviation="4.9"/>
</filter>
</defs>
<g transform="matrix(.58868 0 0 .58868 -36.713 -6.4371)" stroke-linejoin="round">
<path d="m164.12 28.982a5.0005 5.0005 0 0 0-3.541 1.4785l-79.598 80.215a5.0005 5.0005 0 0 0-0.01172 0.0215 5.0005 5.0005 0 0 0-1.1562 2.0527 5.0005 5.0005 0 0 0-0.12305 0.62891 5.0005 5.0005 0 0 0-0.16016 0.81836v80.215a5.0005 5.0005 0 0 0 1.5996 3.6641l59.854 55.533a5.0005 5.0005 0 0 0 0.24806 0.14062 5.0005 5.0005 0 0 0 0.97851 0.55469 5.0005 5.0005 0 0 0 1.0566 0.45312 5.0005 5.0005 0 0 0 1.1367 0.0586 5.0005 5.0005 0 0 0 1.1387-0.0703 5.0005 5.0005 0 0 0 1.0508-0.45703 5.0005 5.0005 0 0 0 0.97852-0.57226 5.0005 5.0005 0 0 0 0.26368-0.1543l80.215-76.512a5.0005 5.0005 0 0 0 1.5488-3.6191v-78.98a5.0005 5.0005 0 0 0-0.0176-0.09375 5.0005 5.0005 0 0 0-0.33399-1.6992 5.0005 5.0005 0 0 0-0.0488-0.13867 5.0005 5.0005 0 0 0-1.002-1.5293 5.0005 5.0005 0 0 0-0.0332-0.03711 5.0005 5.0005 0 0 0-0.0293-0.03711l-60.469-60.469a5.0005 5.0005 0 0 0-3.5449-1.4648z" color="#000000" filter="url(#filter965-3)" opacity=".83" stroke-linecap="round" stroke-width="10" style="-inkscape-stroke:none"/>
<g transform="matrix(-1.1214,0,0,1.1214,368.62,-23.716)" stroke-width="8.9176">
<path d="m212.44 159.47-71.532-66.58v70.431l71.532 68.23z" fill="url(#linearGradient1411)" stroke="#00bd00" stroke-linecap="round"/>
<path d="m212.44 159.47 53.374-48.972v71.532l-53.374 49.522z" fill="url(#linearGradient1327)" stroke="#20b520"/>
<path d="m140.91 92.892 53.924-53.924 70.982 71.532-53.374 48.972z" fill="url(#linearGradient863)" stroke="#1fad1f" stroke-linecap="round"/>
</g>
</g>
<g transform="translate(66.74 -1.1667)" stroke-width="5">
<path d="m92.06 39.197v207.3l100.99-103.65z" color="#000000" filter="url(#filter862)" opacity=".83" style="-inkscape-stroke:none;mix-blend-mode:normal"/>
<path d="m80.004 30.5v195l95-97.5z" fill="url(#linearGradient1700)" stroke="url(#linearGradient13092)"/>
</g>
<g transform="matrix(.47737 0 0 .47737 5.7908 133.21)" fill-rule="evenodd">
<circle cx="135.46" cy="119.19" r="100.98" fill="#fff" stop-color="#000000" stroke-linecap="round" stroke-width="25.196"/>
<path transform="matrix(.98776 0 0 .98776 378.93 -109.21)" d="m-243.34 114.62a122.5 122.5 0 0 0-122.5 122.5 122.5 122.5 0 0 0 122.5 122.5 122.5 122.5 0 0 0 122.5-122.5 122.5 122.5 0 0 0-122.5-122.5zm-47.798 52.934 47.033 47.033 47.033-47.033 24.5 24.5-47.033 47.033 47.033 47.033-24.5 24.5-47.033-47.033-47.033 47.033-24.5-24.5 47.033-47.033-47.033-47.033z" filter="url(#filter1071)" stop-color="#000000"/>
<path d="m133.57-3.6134e-6a121 121 0 0 0-121 121 121 121 0 0 0 121 121 121 121 0 0 0 121-121 121 121 0 0 0-121-121zm-47.213 52.286 46.457 46.457 46.457-46.457 24.2 24.2-46.457 46.457 46.457 46.457-24.2 24.2-46.457-46.457-46.457 46.457-24.2-24.2 46.457-46.457-46.457-46.457z" fill="url(#radialGradient892-1)" stop-color="#000000"/>
<path transform="matrix(5.3778,0,0,5.3778,1299.9,-989.38)" d="m-216.89 186.08c-11.262 0-20.391 9.129-20.391 20.391 0 3.6056 2.9198 4.2677 6.7143 4.2677l9.0357-3.9064-8.6387-8.6387 4.5-4.5 8.6387 8.6387 8.6387-8.6387 4.5 4.5-8.6387 8.6387 11.546 1.7904c2.8868 0 4.4856-0.47198 4.4856-2.1517 0-11.262-9.129-20.391-20.391-20.391z" fill="url(#radialGradient908-6)" filter="url(#filter916-5)" stop-color="#000000"/>
</g>
</svg>
