<svg version="1.1" viewBox="0 0 256 256" xmlns="http://www.w3.org/2000/svg" xmlns:xlink="http://www.w3.org/1999/xlink"><defs><linearGradient id="linearGradient1117" x1="-71.72" x2="-110.53" y1="34.593" y2="8.1339" gradientTransform="matrix(.76087 0 0 .76087 -28.125 70.12)" gradientUnits="userSpaceOnUse"><stop stop-color="#abd5ff" offset="0"/><stop stop-color="#fff" offset="1"/></linearGradient><linearGradient id="linearGradient1119" x1="-94.347" x2="-94.347" y1="5.1" y2="1.8143" gradientTransform="matrix(.76087 0 0 .76087 -28.125 70.12)" gradientUnits="userSpaceOnUse"><stop stop-color="#0093f9" offset="0"/><stop stop-color="#0067cd" offset=".5"/><stop stop-color="#2e85db" offset="1"/></linearGradient><linearGradient id="linearGradient1121" x1="-93.932" x2="-93.932" y1="36" y2="5.5" gradientTransform="matrix(.76087 0 0 .76087 -28.125 70.12)" gradientUnits="userSpaceOnUse"><stop stop-color="#2652a4" offset="0"/><stop stop-color="#0572d6" offset="1"/></linearGradient><linearGradient id="linearGradient1123" x1="-93.932" x2="-93.932" y1="4.5" y2=".5" gradientTransform="matrix(.76087 0 0 .76087 -28.125 70.12)" gradientUnits="userSpaceOnUse"><stop stop-color="#015baa" offset="0"/><stop stop-color="#0274d6" offset="1"/></linearGradient><filter id="filter1183" x="-.043238" y="-.053941" width="1.0865" height="1.1079" color-interpolation-filters="sRGB"><feGaussianBlur stdDeviation="4.3598438"/></filter></defs><g transform="translate(-12.568)"><path d="m31.536 35.008c-3.7805 0-7.1574 1.7824-9.6719 4.2969-2.5145 2.5145-4.2969 5.8914-4.2969 9.6719v180.02h242v-180.02c0-3.7805-1.7843-7.1574-4.2988-9.6719s-5.8914-4.2969-9.6719-4.2969z" fill="#212121" filter="url(#filter1183)"/><g transform="matrix(6.91 0 0 6.91 806.75 -452.69)"><path d="m-114.43 74.5 0.0218 23h34v-23z" fill="url(#linearGradient1117)"/><path d="m-114.43 75v-3.3587l1.5217-1.1413h31.576l1.1413 1.1413v3.3587" fill="url(#linearGradient1119)"/><g><path d="m-114.41 74.5v0.76087h34v-0.76087z" color="#000000" fill="#c7dcde"/><path d="m-114.43 74.5v23.073h34.022v-23.073" fill="none" stroke="url(#linearGradient1121)"/><path d="m-80.411 74.5v-2.4783c0-0.76087-0.76087-1.5217-1.5217-1.5217h-30.978c-0.76087 0-1.5217 0.76087-1.5217 1.5217v2.4783" fill="none" stroke="url(#linearGradient1123)"/></g><g fill-rule="evenodd" stroke-linecap="round" stroke-linejoin="round"><path d="m-83.932 71.5h2v2h-2z" fill="#e37046" stop-color="#000000"/><path d="m-86.932 71.5h2v2h-2z" fill="#7cbcf8" stop-color="#000000"/><path d="m-89.932 71.5h2.0217l-0.02174 2h-2.0217z" fill="#7cbcf8" stop-color="#000000"/></g></g></g></svg>
