<svg version="1.1" viewBox="0 0 256 256" xmlns="http://www.w3.org/2000/svg" xmlns:xlink="http://www.w3.org/1999/xlink">
<defs>
<linearGradient id="linearGradient1070" x1="-67.433" x2="-67.433" y1="48.84" y2="3.6783" gradientTransform="translate(109.97 -2.0158)" gradientUnits="userSpaceOnUse">
<stop stop-color="#cacaff" offset="0"/>
<stop stop-color="#6a6ad0" offset="1"/>
</linearGradient>
<filter id="filter1089" x="-.11429" y="-.10237" width="1.2286" height="1.2047" color-interpolation-filters="sRGB">
<feGaussianBlur stdDeviation="10.236201"/>
</filter>
</defs>
<g transform="translate(-12.568)">
<path d="m147.09 8.0017c-0.42177-0.00368-0.80999 0.00144-1.1621 0.017578-5.634 0.25825-11.2 3.9529-12.307 6.0605-3.3375 6.3576-0.13546 19.511-4.1074 25.418-2.6489-3.3905-5.4228-7.0312-8.4922-8.543-5.4e-4 -2.68e-4 -1e-3 2.68e-4 -2e-3 0-2.4827-2.2782-6.5767-4.2797-13.457-5.248-10.858-1.5281-22.307 8.118-21.316 15.301 1.2974 9.4099 11.053 22.435 7.2754 26.529-3.7046 4.0152-20.676-2.1413-25.758-2.6426-7.5345-0.7433-22.24 20.172-15.172 27.094 6.577 6.4405 17.947 12.675 16.863 17.721-2.2699 10.571-17.384 8.2722-23.924 13.006-3.2425 2.3468-3.9765 23.595 2.3828 28.242 5.003 3.656 9.4347 4.8378 13.033 5.1875 2.6978 1.1802 6.2555 1.7582 9.7363 2.2461 0.43714 7.9503-10.792 11.677-16.217 21.439-3.8191 6.8726 13.332 36.679 28.803 28.264 2.2438-0.32188 4.1987-1.0831 5.918-2.0156-0.98926 4.5385-2.7871 9.9808-2.877 16.545-0.07515 5.4889 14.835 14.785 25.459 16.84 4.067 1.2704 8.205 1.3874 11.057-0.51367 3.3275-2.2184 5.2959-5.9822 6.9141-9.4492 0.57354 4.0069 1.3729 8.2231 3.7422 11.484 1.5318 2.1086 7.5624 4.4326 13.482 5.8066 1.748 0.82199 4.5471 1.1716 7.5605 1.1621 1.4198 0.0743 2.6719 0.037 3.5996-0.17382 4.7684-0.43984 9.2475-1.6651 10.209-3.3047 4.1388-7.0578 3.3698-19.776 6.8242-25.115 1.6249 2.0068 3.5341 4.0937 6.0449 5.7676 4.3878 2.9252 9.1798 5.0874 13.695 5.4883 8.1041 2.449 22.075-10.075 21.982-16.857-0.16411-11.986-9.5828-19.943-6.043-25.9 2.1873-3.6808 7.8972 1.139 18.609 1.9551 11.039 0.84103 22.121-17.833 18.182-24.922-5.4508-9.8091-18.379-10.673-17.244-18.641 1.1382-7.9929 15.66-7.1649 22.689-11.029 6.9021-3.7943 5.648-27.82 2.1035-29.68-0.30736-0.16124-0.63077-0.30137-0.96094-0.43164-2.3713-2.3027-5.4665-3.444-6.9434-4.2188-3.6954-1.9386-10.142-1.5376-15.932-1.6211-6e-3 -0.02448-0.0141-0.04558-0.0195-0.07031-1.2242-5.5761 12.098-12.95 17.762-20.207 4.2398-5.4322-5.1078-22.826-11.094-25.695-3.405-3.1947-7.3728-5.3926-10.857-5.082-2.6991 0.24059-8.8497 3.7286-14.539 6.3184 1.0179-5.8409 4.4634-13.543 5.4551-18.553 0.82023-4.1433-3.0686-9.4725-8.541-12.648-6.7154-4.813-18.332-8.7932-25.084-6.9707-5.2633 1.4208-8.0835 9.5429-11.031 15.479-0.60419-6.3884-0.39967-13.725-2.4668-16.803-0.57884-0.86173-1.3957-1.5773-2.3828-2.1602-3.2931-2.8555-15.532-4.8233-21.453-4.875zm14.451 62.176c3.2108 0 6.2381 0.33568 9.1016 0.94531 17.352 10.396 25.471 33.35 25.471 53.596 0 23.817-24.755 60.256-55.65 60.256-2.7635 0-5.3927-0.279-7.8984-0.79102-18.501-11.07-27.06-36.119-27.26-49.053-0.40216-26.074 21.367-64.953 56.236-64.953z" filter="url(#filter1089)"/>
<g transform="matrix(5.1062 0 0 5.1062 -74.094 -2.04)">
<path d="m41.13 0.40334c-1.1034 0.050577-2.1933 0.77432-2.41 1.1871-0.73492 1.4 0.1509 4.4839-1.1639 5.3393-1.2072 0.78548 0.80847-2.3943-3.9395-3.0625-2.1265-0.29927-4.3687 1.59-4.1748 2.9966 0.25408 1.8428 2.1647 4.3937 1.425 5.1954-0.72552 0.78635-4.0493-0.41917-5.0444-0.51735-1.4756-0.14557-4.3556 3.9502-2.9714 5.3057 1.288 1.2613 3.5149 2.4825 3.3027 3.4707-0.44455 2.0702-3.4047 1.6198-4.6855 2.5469-0.63501 0.45961-0.77861 4.6212 0.4668 5.5312 2.5781 1.884 4.3892 0.41861 4.459 1.4336 0.10817 1.5725-2.1083 2.2997-3.1758 4.2207-0.77148 1.3883 2.8264 7.5556 5.9257 5.3572 1.1406-0.80908 0.12991-3.0248 0.75009-2.0779 0.74352 1.1353-0.40731 2.7543-0.43945 5.1016-0.01952 1.4256 5.1236 4.1644 6.6236 3.1644s-0.21113-4.5137 0.81589-4.2659c1.3875 0.3347 0.64229 3.1053 1.7988 4.6973 0.55828 0.76845 4.1684 1.6896 5.0101 1.2682 1.7523-0.87718 0.0067-6.5468 1.3942-6.8815 1.027-0.24774 1.4414 1.5078 2.9414 2.5078s3.2415 1.5507 4.5144 0.5912c1.8746-1.413-1.7565-7.6453-1.0632-8.8119 0.42836-0.72086 1.5466 0.22298 3.6445 0.38281 2.1619 0.16471 4.332-3.4925 3.5605-4.8809-1.0675-1.921-3.5992-2.0899-3.377-3.6504 0.2229-1.5653 6.0548-2.0906 6.8589-3.4402 2.0257-3.3996-0.50465-4.157-1.1988-4.5212-1.4622-0.76705-5.1271 0.33815-5.4765-1.2535-0.23976-1.092 3.9503-3.162 5.0595-4.5831 0.90598-1.1608-1.6652-4.6456-3.5275-4.4796-0.99605 0.088786-4.3949 2.4422-5.0594 1.6037-0.6944-0.87625 1.6691-3.036 2.5687-4.8909 0.61962-1.2777-3.8001-3.5105-5.8734-2.9509-1.7499 0.47237-2.1205 4.7368-3.5762 4.2441-1.4208-0.4809 1.3084-3.7149 0.57319-4.8095-0.4456-0.66338-3.433-1.1191-4.5364-1.0685zm0.70542 11.251c6.2604 0 9.123 6.2809 9.123 11.604 0 4.6643-4.8479 11.801-10.898 11.801-6.342 0-9.1872-7.3723-9.2383-10.684-0.07876-5.1064 4.1848-12.721 11.014-12.721z" fill="#99accb"/>
<path d="m43.315 0.9455c-1.1034 0.050577-1.9629 0.10604-2.3652 0.7832-0.80757 1.3593-0.25631 5.67-1.041 6.123-1.2473 0.72012-2.4057-2.6782-3.9395-3.0625-2.083-0.52195-4.6668 1.779-4.3809 3.1699 0.28284 1.3758 1.8523 4.0226 1.084 4.8848-0.94133 1.0563-3.8374-0.49034-4.8374-0.49034-1.118 0-3.5374 4.2553-2.6314 5.4161 1.1092 1.4212 3.4635 2.6773 3.2037 3.6112-0.56755 2.0399-3.3056 1.4793-4.5865 2.4064-0.63501 0.45961-0.88492 4.7882 0.4668 5.5312 1.3767 0.75682 4.3892 0.41861 4.459 1.4336 0.10817 1.5725-2.1083 2.2997-3.1758 4.2207-0.77148 1.3883 0.91625 4.8014 3.0781 4.6367 2.0979-0.15983 2.9775-2.3044 3.5977-1.3574 0.74352 1.1353-0.40731 2.7543-0.43945 5.1016-0.01952 1.4256 3.2988 3.2754 4.7988 2.2754s1.6136-3.6247 2.6406-3.377c1.3875 0.3347 0.64229 3.1053 1.7988 4.6973 0.55828 0.76845 4.0721 0.44475 4.4727-0.23828 0.99126-1.6904 0.54413-5.0403 1.9316-5.375 1.027-0.24774 1.4414 1.5078 2.9414 2.5078s4.6543-1.7228 4.6348-3.1484c-0.03214-2.3473-1.8768-3.9056-1.1836-5.0723 0.42836-0.72086 1.5466 0.22298 3.6445 0.38281 2.1619 0.16471 4.332-3.4925 3.5605-4.8809-1.0675-1.921-3.5992-2.0899-3.377-3.6504 0.2229-1.5653 3.0667-1.4033 4.4434-2.1602 1.3517-0.74308 1.1063-5.4483 0.41211-5.8125-1.4622-0.76705-4.3224 0.34947-4.6719-1.2422-0.23976-1.092 2.3693-2.5359 3.4785-3.957 0.90598-1.1608-1.3566-5.1133-2.4746-5.1133-1 0-3.8667 2.4499-4.5312 1.6113-0.6944-0.87625 0.64121-3.4745 0.92773-4.9219 0.27575-1.393-2.1592-3.4796-4.2324-2.9199-1.7499 0.47237-2.1205 4.7368-3.5762 4.2441-1.4208-0.4809-0.68467-4.3312-1.4199-5.4258-0.4456-0.66338-1.6076-0.88261-2.7109-0.83203zm0.87305 11.631c6.2604 0 9.123 6.2809 9.123 11.604 0 4.6643-4.8479 11.801-10.898 11.801-6.342 0-9.1872-7.3723-9.2383-10.684-0.07876-5.1064 4.1848-12.721 11.014-12.721z" fill="url(#linearGradient1070)"/>
</g>
</g>
</svg>
