<svg version="1.1" viewBox="0 0 256 256" xmlns="http://www.w3.org/2000/svg" xmlns:xlink="http://www.w3.org/1999/xlink">
<defs>
<linearGradient id="linearGradient27747">
<stop stop-color="#109fff" offset="0"/>
<stop stop-color="#039" offset="1"/>
</linearGradient>
<linearGradient id="linearGradient15711" x1="67.28" x2="67.28" y1="48.438" y2="220.29" gradientTransform="translate(110.3 -.00052862)" gradientUnits="userSpaceOnUse">
<stop stop-color="#2fb119" offset="0"/>
<stop stop-color="#8df35b" offset="1"/>
</linearGradient>
<linearGradient id="linearGradient68971" x1="52.431" x2="121.91" y1="126.94" y2="126.94" gradientUnits="userSpaceOnUse" xlink:href="#linearGradient27747"/>
<linearGradient id="linearGradient69133" x1="9.1351" x2="121.91" y1="126.94" y2="126.94" gradientUnits="userSpaceOnUse" xlink:href="#linearGradient27747"/>
<filter id="filter70341" x="-.047578" y="-.04843" width="1.0952" height="1.0969" color-interpolation-filters="sRGB">
<feGaussianBlur stdDeviation="4.8642696"/>
</filter>
</defs>
<g>
<path d="m182.17 10.193a2.7503 2.7503 0 0 0-2.7168 2.3223l-27.172 173.52h-36.982a2.7503 2.7503 0 0 0-1.832 4.8008l66.871 59.713a2.7503 2.7503 0 0 0 3.6641 0l66.871-59.713a2.7503 2.7503 0 0 0-1.8301-4.8008h-36.984l-27.172-173.52a2.7503 2.7503 0 0 0-2.7168-2.3223zm-119.29 1.6641-37.982 84.738c-3.6025 8.0926-6.632 13.444-9.0859 16.055-2.4539 2.5583-5.5851 4.1249-9.3965 4.6992v2.8984h35.32v-2.8984c-5.5343-0.41769-9.0063-1.0435-10.416-1.8789-2.4017-1.4097-3.6035-3.6041-3.6035-6.5801 0-2.245 0.73146-5.0893 2.1934-8.5352l4.4629-10.338h37.514l5.6387 13.234c1.4619 3.4459 2.2452 5.4051 2.3496 5.875 0.31326 0.992 0.4707 1.9567 0.4707 2.8965 0 1.5663-0.57402 2.7681-1.7227 3.6035-1.6707 1.1486-4.5687 1.7227-8.6934 1.7227h-2.1152v2.8984h51.375v-2.8984c-3.2371-0.26105-5.7424-1.2018-7.5176-2.8203-2.3495-2.1406-5.3511-7.3347-9.0059-15.584l-38.297-87.088zm-9.4766 35.791 15.82 36.574h-32.109zm-29.955 96.182-2.8984 31.092h2.8984c1.2008-5.1166 2.8452-9.346 4.9336-12.688 2.1406-3.3415 4.8034-6.0043 7.9883-7.9883 3.2371-2.0362 6.6831-3.3935 10.338-4.0723 1.9318-0.36548 5.9519-0.54688 12.061-0.54688h15.742l-62.496 100.4h97.268l4.3066-38.375h-3.0527c-1.723 8.4581-4.8302 15.219-9.3203 20.283-4.4901 5.0122-9.8416 8.4583-16.055 10.338-3.8114 1.2008-10.494 1.8008-20.049 1.8008h-20.205l62.416-100.24z" color="#000000" filter="url(#filter70341)" stroke-linecap="round" stroke-linejoin="round" stroke-width="5.5" style="-inkscape-stroke:none"/>
<path d="m177.17 8.9418 27.536 175.85h39.337l-66.872 59.712-66.872-59.712h39.337z" fill="url(#linearGradient15711)" stroke="#1d701d" stroke-linecap="round" stroke-linejoin="round" stroke-width="5.5"/>
<g transform="translate(-7.7161)" fill="url(#linearGradient69133)" stroke-width="4.2962" aria-label="A">
<path d="m74.607 86.017h-37.513l-4.464 10.338q-2.1928 5.1688-2.1928 8.5364 0 4.464 3.6025 6.5785 2.1145 1.253 10.416 1.8796v2.8977h-35.32v-2.8977q5.7171-0.86148 9.3979-4.699 3.6808-3.9158 9.0846-16.055l37.983-84.738h1.488l38.296 87.087q5.4821 12.374 9.0063 15.585 2.6627 2.4278 7.5183 2.8194v2.8977h-51.375v-2.8977h2.1145q6.187 0 8.6931-1.723 1.723-1.2531 1.723-3.6025 0-1.4097-0.4699-2.8977-0.15663-0.70485-2.3495-5.8737zm-2.6627-5.7954-15.82-36.574-16.29 36.574z" fill="url(#linearGradient68971)"/>
</g>
<g transform="translate(-7.7161)" fill="url(#linearGradient69133)" stroke-width="4.2962" aria-label="Z">
<path d="m110.05 139.83-62.418 100.24h20.206q14.332 0 20.049-1.8013 9.3196-2.8194 16.055-10.338 6.7352-7.5966 9.3196-20.284h3.0543l-4.3074 38.375h-97.268l62.496-100.4h-15.742q-9.163 0-12.061 0.54822-5.4821 1.0181-10.338 4.0724-4.7773 2.976-7.9882 7.9882-3.1326 5.0122-4.9339 12.687h-2.8977l2.8977-31.091z" fill="url(#linearGradient69133)"/>
</g>
</g>
</svg>
