<svg version="1.1" viewBox="0 0 256 256" xmlns="http://www.w3.org/2000/svg" xmlns:xlink="http://www.w3.org/1999/xlink">
<defs>
<linearGradient id="r" x1="-819.2" x2="819.2" gradientTransform="scale(-.12001 .12001) rotate(-45 580.06 2411.4)" gradientUnits="userSpaceOnUse">
<stop stop-color="#039" offset="0"/>
<stop stop-color="#09f" offset=".471"/>
<stop stop-color="#cff" offset="1"/>
</linearGradient>
<linearGradient id="k" x1="159.87" x2="100.46" y1="57.84" y2="40.804" gradientTransform="matrix(1 0 0 .95766 13.927 .776)" gradientUnits="userSpaceOnUse">
<stop stop-color="#7ec400" offset="0"/>
<stop stop-color="#a6fe0a" offset=".333"/>
<stop stop-color="#6eaa00" offset=".667"/>
<stop stop-color="#4b6700" offset="1"/>
</linearGradient>
<linearGradient id="m" x1="70.161" x2="10.682" y1="110.96" y2="93.901" gradientTransform="matrix(1 0 0 .95766 13.927 .776)" gradientUnits="userSpaceOnUse">
<stop stop-color="#141fb8" offset="0"/>
<stop stop-color="#6585fe" offset=".4"/>
<stop stop-color="#a1b6ff" offset=".658"/>
<stop stop-color="#3b66ff" offset="1"/>
</linearGradient>
<linearGradient id="A" x1="170.77" x2="171.42" y1="20.577" y2="21.652" gradientTransform="matrix(1 0 0 .95766 13.927 .776)" gradientUnits="userSpaceOnUse">
<stop stop-color="#83b641" offset="0"/>
<stop stop-color="#595e48" offset="1"/>
</linearGradient>
<linearGradient id="B" x1="172.43" x2="172.03" y1="21.409" y2="21.895" gradientTransform="matrix(1 0 0 .95766 13.927 .776)" gradientUnits="userSpaceOnUse">
<stop stop-color="#8aa742" offset="0"/>
<stop stop-color="#595e48" offset="1"/>
</linearGradient>
<linearGradient id="C" x1="173.04" x2="173.04" y1="21.805" y2="22.834" gradientTransform="matrix(1 0 0 .95766 13.927 .776)" gradientUnits="userSpaceOnUse">
<stop stop-color="#8aa742" offset="0"/>
<stop stop-color="#767e47" offset="1"/>
</linearGradient>
<linearGradient id="D" x1="155.32" x2="153.91" y1="77.938" y2="77.839" gradientTransform="matrix(1 0 0 .95766 13.927 .776)" gradientUnits="userSpaceOnUse">
<stop stop-color="#767e47" offset="0"/>
<stop stop-color="#8aa742" offset="1"/>
</linearGradient>
<linearGradient id="E" x1="155.98" x2="155.07" y1="78.063" y2="79.075" gradientTransform="matrix(1 0 0 .95766 13.927 .776)" gradientUnits="userSpaceOnUse">
<stop stop-color="#767e47" offset="0"/>
<stop stop-color="#595e48" offset="1"/>
</linearGradient>
<linearGradient id="F" x1="163.58" x2="162.09" y1="49.529" y2="49.1" gradientTransform="matrix(1 0 0 .95766 13.927 .776)" gradientUnits="userSpaceOnUse">
<stop stop-color="#595e48" offset="0"/>
<stop stop-color="#83b641" offset="1"/>
</linearGradient>
<linearGradient id="P" x1="16.247" x2="16.247" y1="74.212" y2="74.621" gradientTransform="matrix(1 0 0 .95766 13.927 .776)" gradientUnits="userSpaceOnUse">
<stop stop-color="#76a5d8" offset="0"/>
<stop stop-color="#2e499e" offset="1"/>
</linearGradient>
<linearGradient id="K" x1="151.23" x2="151.88" y1="88.142" y2="89.226" gradientTransform="matrix(1 0 0 .95766 13.927 .776)" gradientUnits="userSpaceOnUse">
<stop stop-color="#ffcd02" offset=".006"/>
<stop stop-color="#a87c3c" offset="1"/>
</linearGradient>
<linearGradient id="M" x1="144.3" x2="142.9" y1="116.28" y2="115.88" gradientTransform="matrix(1 0 0 .95766 13.927 .776)" gradientUnits="userSpaceOnUse">
<stop stop-color="#a87c3c" offset="0"/>
<stop stop-color="#ffd200" offset="1"/>
</linearGradient>
<linearGradient id="N" x1=".187" x2="63.144" y1="129.19" y2="129.19" gradientTransform="matrix(1 0 0 .95766 173.8 -501.17)" gradientUnits="userSpaceOnUse" xlink:href="#XMLID_52_-7"/>
<linearGradient id="J" x1="140.97" x2="81.423" y1="123.62" y2="106.55" gradientUnits="userSpaceOnUse">
<stop stop-color="#ffc907" offset="0"/>
<stop stop-color="#fecc00" offset=".167"/>
<stop stop-color="#ffd952" offset=".333"/>
<stop stop-color="#caa200" offset=".625"/>
<stop stop-color="#987f00" offset="1"/>
</linearGradient>
<linearGradient id="L" x1="102.03" x2="165.13" y1="85.904" y2="85.904" gradientUnits="userSpaceOnUse" xlink:href="#linearGradient11674"/>
<linearGradient id="z" x1="182.9" x2="122.36" y1="26.357" y2="17.877" gradientUnits="userSpaceOnUse" xlink:href="#k"/>
<linearGradient id="G" x1="104.45" x2="44.978" y1="38.419" y2="23.168" gradientTransform="matrix(1 0 0 .95766 13.927 .776)" gradientUnits="userSpaceOnUse">
<stop stop-color="#922204" offset="0"/>
<stop stop-color="#fe6a0b" offset=".4"/>
<stop stop-color="#fea960" offset=".665"/>
<stop stop-color="#f66911" offset="1"/>
</linearGradient>
<linearGradient id="O" x1="93.274" x2="30.159" y1="72.666" y2="75.396" gradientUnits="userSpaceOnUse" xlink:href="#m"/>
<filter id="y" x="-.14912" y="-.1796" width="1.2982" height="1.3592" color-interpolation-filters="sRGB">
<feGaussianBlur stdDeviation="4.962"/>
</filter>
<filter id="w" x="-.1487" y="-.18006" width="1.2974" height="1.3601" color-interpolation-filters="sRGB">
<feGaussianBlur stdDeviation="4.962"/>
</filter>
<filter id="v" x="-.14052" y="-.17685" width="1.281" height="1.3537" color-interpolation-filters="sRGB">
<feGaussianBlur stdDeviation="4.962"/>
</filter>
<filter id="x" x="-.14134" y="-.1776" width="1.2827" height="1.3552" color-interpolation-filters="sRGB">
<feGaussianBlur stdDeviation="4.962"/>
</filter>
<filter id="q" x="-.04797" y="-.048037" width="1.0959" height="1.0961" color-interpolation-filters="sRGB">
<feGaussianBlur stdDeviation="3.883"/>
</filter>
<radialGradient id="t" cx="-1495.2" cy="5091.2" r="819.2" gradientTransform="matrix(.15514 .1193 -.10521 .13683 903.68 -434.13)" gradientUnits="userSpaceOnUse">
<stop stop-color="#00bf00" offset="0"/>
<stop stop-color="#060" offset=".929"/>
</radialGradient>
<radialGradient id="s" cx="0" cy="0" r="819.2" gradientTransform="translate(172.4 86.046) scale(.18846)" gradientUnits="userSpaceOnUse">
<stop stop-color="#fff" offset="0"/>
<stop stop-color="#cff" offset=".078"/>
<stop stop-color="#09f" offset=".298"/>
<stop stop-color="#06c" offset=".537"/>
<stop stop-color="#039" offset=".753"/>
<stop stop-color="#99f" offset="1"/>
</radialGradient>
<radialGradient id="u" cx="-154.38" cy="-18.647" r="75.181" fx="-154.72" gradientTransform="matrix(.81058 0 0 .8081 293.75 101.34)" gradientUnits="userSpaceOnUse">
<stop stop-color="#fff" offset="0"/>
<stop stop-color="#fff" stop-opacity="0" offset="1"/>
</radialGradient>
<clipPath id="H">
<use width="812.044" height="152.966" xlink:href="#o"/>
</clipPath>
<clipPath id="I">
<use width="812.044" height="152.966" xlink:href="#p"/>
</clipPath>
<path id="o" d="m35.432 7.781-.182-.052a.523.523 0 0 1 .298-.35l.027-.008c.001.001-.06.126-.143.41z"/>
<path id="p" d="m88.131 83.682c14.313 9.633 29.822 16.309 62.76 4.969l-15.703 54.578c-28.98 12.742-48.541 5.09-63.201-3.77l16.144-55.777z"/>
</defs>
<g fill-rule="evenodd">
<path transform="translate(-12.568)" d="m65.567 152.32q0 40.053 28.337 68.662 28.61 28.338 68.936 28.338 40.053 0 68.663-28.338 28.337-28.61 28.337-68.662 0-40.326-28.337-68.663-28.61-28.337-68.663-28.337-40.326 0-68.936 28.337-28.337 28.337-28.337 68.663" fill="#212121" filter="url(#q)" style="mix-blend-mode:normal"/>
<path transform="translate(-36.93 16.855) scale(.98891)" d="m85.882 133.99q0 40.502 28.654 69.433 28.93 28.654 69.709 28.654 40.502 0 69.433-28.654 28.654-28.93 28.654-69.433 0-40.778-28.654-69.433-28.93-28.655-69.433-28.655-40.778 0-69.709 28.655-28.654 28.655-28.654 69.433" fill="url(#r)"/>
<path transform="translate(-36.93 16.855) scale(.98891)" d="m91.392 133.99q0 38.298 27.002 65.575 27.277 27.277 65.85 27.277 38.3 0 65.852-27.277 27.001-27.277 27.001-65.575 0-38.574-27.001-65.851-27.553-27.278-65.851-27.278-38.574 0-65.851 27.278-27.002 27.277-27.002 65.85" fill="url(#s)"/>
<path transform="translate(-36.93 16.855) scale(.98891)" d="M173.775 41.965v.548h-.547v.547h-2.208v.557h-2.208v.82h-.547v2.208h1.104v.548h4.953v.556h-2.755v1.104h-.547v-.556h-2.208V49.4h.557v1.652h-.557v1.104h-1.094v.547h-.557v.556h-.547v.548h-.557v1.377h-.82v.557h-.557v1.094h.556v.557h1.378v.547h2.198v.557h2.208v-.557h1.104v-1.65h.547v-.548h1.104v-.557h.547v-.547h.557v-.83h.547v-1.104h.83v-.547h2.199v-.548h.557v1.095h-.557v1.104h1.66v1.377h.548v.557h-.548v.547h-2.207v.547h-.548v.557h-3.038v.547h-.547v.557h-.547v.547h.547v.557h1.104v.547h1.377v.547h.548v.557h-2.482v1.651h.557v1.104h3.576v1.377h1.104v-.83h1.651v-.547h4.415v.547h.822v.83h.556v1.652h.547v.547h.548v4.415h-.548v.548h-.547v.547h2.199v.557h-.548v.547h.548v.557h1.66v.82h.547v.557h-.547v.547h-1.104v1.104h-.556v.548h-.548v.556h.548v2.199h.556v1.104h.547v1.103h.557v1.104h.547v.548h.548v1.377h.556v.557h.548v.547h2.755v.547h2.481v-1.65h.547v-1.926h1.378v-1.65h.556V81.64h1.652v-.556h1.65v-.548h.557v-.556h.548v-.547h.547v-1.104h2.208v-.548h.547v-.556h.557v.556h1.103v-.556h1.925v-.548h.548v-.547h1.66v-.556h.547v-1.378h.557v-2.199h-.557v-.556h-.547v-2.199h1.651v-.556h.548v-.547h.556v-.557h.547v-.547h.557v-1.652h-.557v-.83h-.547v-.547h2.755v-1.104h-.556v-.547h-.548V61.25h-.547v-1.104h-1.66V59.6h-1.652v2.198h-.547v1.104h-.556v-2.208h-.548v-.547h.548v-1.651h1.103v.547h1.104v-1.651h2.208v-1.104h-.557v-.547h-2.198v1.094h-1.104v.557h-.556v-1.651h.556v-.557h4.406v-.547h.548v-.83h-2.755v-.548h.556v-1.103h.547v-.548h1.104v-.556h.548V49.4h.556v-1.103h-1.104v-.548h-2.755V49.4h-.547v.548h-.557v.556h-1.103v-.556h.556V49.4h.547v-.547h.557v-1.66h-3.312v-.548h.548v-1.103h-.548v-.548h-2.481v-.556h-2.199v-.821h-2.207v-.557h-6.34v.557h-1.095v.82h-1.934v.557h-.548v.548h-1.651v.556h-.556v.547h-2.756v.548h-2.755v.556h-3.028v.548h-1.652v-.548h1.095v-.556h1.104v-.548h-.547v-.547h-.557v-2.481h-.547v-.557h-.548v-.547h-.556v-.548h-3.859v.548h-1.651v-.548zm-12.954 2.473v1.104h-.548v1.65h-.547v-.547h-1.104v-1.103h-2.208v.556h-1.924v.547h1.377v.548h.547v.556h1.104v.548h1.652v-.548h.556v1.104h.547v.547h-.547v.548h1.095v1.104h-.548v.556h.548v1.651h3.859v-1.103h.556v-.548h.821v-1.104h.557v-1.65h-1.378v-2.209h-.556v-.547h-.548v-.556h-1.65v-1.104zm-7.983 2.207v.548h.548v-.548zm-3.859 1.652v.556h-1.65v.547h-1.105v1.104h2.199v2.199h1.66v.556h.548v-.556h.547v.556h.557v4.68h-1.104v1.104h-.548v.557h-.556v1.094h.556v3.86h1.652v-1.652h.547v-.547h1.104v-.557h.547v-.547h.557V59.6h.547v-.557h4.133v-.547h1.103v.547h1.652v2.208h5.793V59.6h-.557v-1.104h-3.585v-3.86h-1.095v-.83h-2.208v-.547h-2.207v.548h-2.199v-.548h-.83v-.556h-1.104v-1.095h-.547v-1.104h-2.208v-.556h-.547V49.4h-1.104v-1.103zm-5.236 2.207v.548h-1.104v.556h-1.104v.548h-1.104v.547h.557v.556h1.104v.548h.547v1.377h.557v.557h1.925v.547h3.302v-.547h1.104v-2.482h-3.86v1.378h-.546v-3.029h.547v-1.104zm-7.161 4.133v.547h-1.104v.557h-.557v.547h-1.377v.547h-.548v.557h-1.103v.547h1.103v1.104h3.03v-.547h2.207v-.557h1.104v-1.104h.547v-1.094h-.547v-.557h-1.66v-.547zm5.51 2.755v.547h-.557v2.208h-1.65v1.651h.546v.557h.557v.547h.547v1.104h1.104v.547h3.029v-.547h.556v1.377h-.556v.548h-.547v1.104h-1.378v1.104h-1.104v-1.652h-1.651v-.556h-1.651v-1.378h-.557v-3.302h-.547v-.557h-1.651v.557h-.557v-.557h-2.481v-.547h-1.651v1.104h-.548V59.6h-1.104v-.557h-.547v.557h-.557v1.094h-.547v-.547h-.556v.547h-.548v.557h-.547v.547h-.557v.557h-1.103v.547h-.548v.547h1.104v-.547h.547v1.104h.557v1.925h1.095v.556h2.207v-.556h1.104v.556h1.104v.548h-4.415v1.65h.556v.557h1.651v.548h.548v.547h2.755v-.547h3.038v-.548h1.65v.548h2.756v-.548h.547V68.14h.557v1.65h1.104v.548h1.094v-.547h1.378v.547h.556v1.104h.548v.556h.556v1.095h-.556v.557h-1.651v-.557h.547v-1.095h-3.576v1.652h-2.208v.547h-.547v-.547h-.557v-.557h-.547v-.547h-1.651V71.44h-.557v-.547h-.547v.547h-2.482v.556h-.547v1.652h.547v.547h-.547v.557h-.556v-1.104h-.548v-.557h-1.104v.557h-2.755v-.557h.548V71.44h-.548v-.547h-.547v-.557h-1.104v1.104h-.556v-.547h-.548v-.557h-.83v-.547h-1.095v-.548h-1.104v-.556l-3.85-.01c-.872.813-4.043 4.058-8.53 9.926-3.073 4.022-5.86 8.43-7.078 11.002l.72.028v1.095h.548v.556h.556v.548h2.482v.556h1.65v.547h.548v.548h.557v1.103h1.094v1.934h.557v.548h1.104v.547h-.557v1.66h.557v1.925h.547v.548h.547v.556h.557v1.104h.821v.548h1.104v.547h.556v.556h1.104v.548h.548v.556h.547v4.133h-.547v2.755h-.548v5.51h.548v1.104h.547v1.377h.556v.548h.548v1.104h1.104v1.103h.547v.548h.556v.547h1.652v.557h.547v1.65h.83v.548h.548v1.104h.556v.557h.547v1.377h.557v1.104h1.095v.547h.556v.548h.547v1.104h.557v.556h.547v1.095h1.104v.556h1.651v-1.104h-.547v-.547h-.556v-1.104h-.548v-.556h-.556v-1.095h1.104v1.095h.556v.556h1.095v1.104h1.377v.547h.557v.548h.547v2.207h.557v1.652h1.094v.556h2.208v.821h1.104v.557h2.755v1.094h6.34v.557h.548v.547h.547v.557h.557v.547h1.65v.548h1.105v.556h.547v1.104h.83v1.651h1.104v.547h3.85v.557h2.207v.547h.548v2.482h-.548v1.104h-.547v1.094h-.556v1.66h-.548v1.104h-1.104v.548h-.547v2.208h-.556v1.377h.556v1.651h.547v.548h.548v.556h.556v1.095h.548v1.104h.556v2.755h.547v.556h.548v.548h.556v.547h.548v.83h1.377v.548h1.104v.556h.557v.547h.547v.557h.547v9.086h-.547v1.66h-.547v3.85h-.557v3.038h-.547v1.651h-.557v4.133h.557v.547h-.557v1.104h-.82v1.104h.82v4.406h-.82v.557h-.557v2.472h-.548v6.614h.548v.557h.556v.547h.821v.547h1.104v-.547h1.104v.547h.547v1.378h-1.094v1.66h1.094v1.095h2.208v.556h1.104v-.556h1.104v.556h1.094v-1.104h.557v-1.65h-.557v-.557h-.547v-.548h-1.651v-.83h-.557v-.547h-.547v-2.208h-.547v-1.095h.547v-.556h.547v-1.104h.557v-.547h.547v-.548h.557v-2.755h-1.104v-1.934h1.104v-.547h.547v-1.66h.547v-1.095h.557v-1.66h-.557v-.548h1.934v-1.104h.548v-1.65h1.651v.546h1.104v-.547h1.104v-.547h.547v-3.586h-.547v-.547h3.302v-.83h.557v-1.104h.547v-1.104h.556v-1.095h.822v-1.66h.556v-.547h.547v-1.104h.548v-1.104h.556v-1.925h.548v-.547h.556v-.557h1.104v-1.104h2.199v-.547h1.103v-.556h.548v-.548h.556v-.547h.548v-.557h.556v-1.103h.821v-2.756h.557v-2.472h.547v-1.104h.547v-1.104h.557v-.547h.82v-1.104h.557v-.556h.548v-4.68h-1.104v-.548h-1.378v-.556h-.547v-.547h-1.925v-.557h-2.208v-.547h-1.65v-1.651h-4.964v-2.756h-.547v-.556h-.556v-.547h-.822v-.557h-1.103v-.547h-.557v-.83h-2.198v-.548h-1.104v-.547h-.548v-.557h-.556v-.547h-.547v-.556h-.557v-.548h-.547v-.547h-1.104v-.557h-3.576v.557h-.557v-.557h-.547v-.547h-1.104v-1.104h-2.755v.547h-1.104v.557h-1.925v.547h-.556v1.104h-.548v.548h-.556v-.548h-2.199v.548h-1.104v-.548h-1.103v-.547h-.548v-1.104h-.556v-.557h.556v-3.85h-3.585v-3.585h.83v-1.65h-3.029v.547h-1.66v1.103h-.547v.548h-1.104v.556h-1.651v-.556h-1.652v-.548h-.556v-1.65h-.547v-1.105h-.83v-1.65h-.548v-2.209h.547v-.547h.83v-.83h1.104v-.547h4.954v-.557h5.236v.557h.557v1.924h.547v1.104h.548v.548h.556v.556h.548v.548h1.65v-.548h.557v-1.651h-.556v-1.104h-.548v-1.377h-.547v-2.208h.547v-1.104h1.104v-.547h.548v-.557h.556v-1.095h1.095v-.556h.556v-.547h.548v-1.104h-.548v-.548h1.104v-1.377h1.378v-3.312h3.859v-.547h.547v-.557h-.547v-.547h-.557v-.547h.557v-.557h.547v-.547h1.104v.547h2.198v-.547h1.104v-.557h1.378V111.4h-.548v-.557h-.83v-.547h-1.104v-.83h-.547v-1.652h.547v-2.207h-1.65v.556h-.548v-.556h.547v-.548h4.133v-.556h1.651v.556h1.104v-.556h.556v-.548h.548v-.547h.547v-.556h1.104v-.548h.556v-2.207h-.556v-1.378h-.547v-.547h-.557v-.557h-2.198v-.547h-.557v-1.925h-.547v-.557h-.548v-1.103h-.556V91.83h-.548v-1.104h-.83v-1.094h-.547v-1.104h-1.104v.547h-.547v1.651h-1.104v.557h-1.651v-.557h-.557v-3.85h-1.104v-.556h-.547v-.547h-.547v-.83h-3.586v-.548h-.556v-.556h1.66V81.64h-1.104v.548h-.556v.556h-1.095v-.556h-.556v-.548h-.548v-1.104h-1.104v-.556h-.547v-.547h-1.104v-1.104h-.556v.556h-.548v.548h-1.104v1.103h-.547v1.652h1.104v1.103h1.651v-.547h.548v-.556h1.103v.556h1.104v3.029h-.556v2.198h.556v1.66h-.556v3.303h.556v2.208h.548v.82h-.548v.557h-.556v.548h-.548v.547h-.547v4.133h.547v1.104h-.547v.556h-.556v-.556h-.548v-1.104h-.556v-.548h-.548v-1.925h-.547v-1.66h-.557v-.547h-5.236v-.548h-.547v-.556h-.548v-1.925h-.556v-1.104h-1.104v-.547h-.547v-1.104h-.548v.547h-.556v-.547h-.548v-.557h-.556v-1.094h.556v-1.66h.548v-.548h.556v-.547h.548v-.557h.547v-1.377h1.104v-.548h2.755V81.64h.556v-1.104h.548v-.556h.547v-1.651h-1.095v-.548h1.652v.548h1.377v-.548h2.199v-1.104h.556v-.547h.548v-3.038h-1.104v-.547h.556v-.548h.548v-1.66h-1.104v-1.651h-3.03v1.651h.831v.557h-.83v.547h-.547v1.651h-.557v-.547h-.547v-2.208h-1.104v.557h-.547v-.557h-1.652v-2.755h-.556v-2.199h-.548v-2.48h-2.755v-4.964h-.556v-.547zm16.53 25.9v1.103h2.199v-1.104zm2.199-20.39v1.651h-.548v1.934h-.547v1.095h.547v.557h.548v1.103h.556v1.652h1.104v.547h1.095v2.208h1.104v.547h.556v-.547h.821V71.44h1.104v.556h1.651v.548h.557v.547h.547v.557h.557v3.028h-.557v1.652h-.547v.556h-.557v-.556h-1.094v1.104h-.557v1.103h.557v.548h2.755v.556h1.094v1.104h.557v.547h1.104v.548h.547v.556h1.651V83.29h.83v.548h1.104V81.64h-.556v-1.104h-.548v-.556h.548v-.547h1.651v-.548h1.104v-1.104h-.547v-1.65h-1.652v-1.378h-.556v-.557h-1.378v-.547h-1.104v-.557h1.104v-2.755h-1.104v-1.095h-.547v-.556h-1.104v-1.104h-1.651v-1.095h-.547v-.556h-3.312v-.548h-1.104v-.83h.557v-.547h-.557v-1.104zm92.878 9.086-.848.01v.547h-.547v1.104h-.83v1.925h-.548v1.104h-.556v1.103h-.548v1.652h-1.104v1.104h-.547v1.103h-.556v1.104h-.548v.548h-.556v.547h-.548v.556h-.547v.548h-.557v.83h-.547v.547h-1.104v.557h-.547v.547h-.557v.548h-1.377v.556h.83v.547h-.83v1.652h.83v2.207h-.83v1.104h.83v1.925h.547v.557h2.755v-.557h.557v-.82h.547v-1.105h.548v-.556h.556v-.548h.548v2.208h-.548v1.378h.548v1.65h.556v1.105h.547v.82h2.208v-.82h1.378V98.17h.547v-1.65h.547v-1.378h.557v-1.104h.547v-.556h.557v-2.199h-1.104v-3.311h.547v-.548h.557v-.547h1.094v-.557h.557v5.51h.547v.557h1.104v.547h.547v.548h-.547v2.481h.547v1.104h-.547v-.547h-.547v-.557h-.557v.557h-.547v.547h-.557v.547h-.547v1.66h-.547v1.378h-1.104v.548h-.557v-.548h-1.094v.548h-.83v.547h-2.208v-.547h-2.755v-2.482h.556v-1.104h-.556v-1.651h-.548v.556h-1.104v.548h-.547v.547h-.556v2.481h.556v2.208h-1.104v.548h-2.481v1.103h-.548v1.104h-.556v.548h-.547v.556h-.557v-2.208h-.547v-.547h-.548v-.556h-.556v-1.104h-.547v-.548h-.557v-4.68h-1.651v-.556h-.547v-.821h.547v-1.104h-2.199v.547h-.556v1.934h-.821v2.199h.82v1.377h-3.575v1.652h-.557v-.548h-1.104v.548h-.547v1.104h1.104v3.311h2.198v-.556h1.66v-.548h.822v.548h1.104v.556h-1.104v.547h-.821v.557h-.557v1.095h2.482v-.548h2.207v.548h-1.66v.556h-1.095v1.925h1.095v.557h.557v.547h.547v.547h.556v3.312h-5.236v-.557h-1.104v.557h-1.104v7.991h1.104v1.095h.547v.557h-.547v1.65h-.547v.548h-.557v.557h-.547v1.103h-.557v1.378h-.547v.547h-.547v.557h-.557v.547h-1.104v.548h-.547v.556h-.547v1.104h-1.934v2.755h-1.104v.547h-.548v1.104h-.547v.548h.547v2.481h.548v1.104h-.548v.547h-.547v3.312h.547v.547h.548v.547h.556v.557h.548v.547h1.377v.557h.557v.547h.547v1.378h.547v1.104h1.104v.547h.557v.556h.547v.548h.547v.547h3.312v-.547h4.133v.547h.547v-.547h2.208v-.548h2.755v.548h1.103v.547h3.577v.557h.556v1.65h-.556v1.105h-.548v2.207h.548v.548h1.103v1.925h.557v.556h.547v2.199h.548v.556h.556v1.104h.548v1.651h-.548v.548h-.556v.556h.556v1.095h-1.104v2.481h-.547v1.651h.547v1.104h.548v1.104h.556v1.651h.548v1.66h.556v1.926h.547v1.103h.548v2.2h.556v.556h.548v.547h.556v1.104h.547v2.755h1.378v.83h2.755v-.83l2.107.018c5.99-8.075 19.395-24.803 19.395-57.181 0-32.379-14.029-51.047-23.409-61.87zm-89.567.01h.548v1.094h-.548zm47.393 1.65h.547v.548h-.547zm-37.203 4.133h.557v1.104h-.557zm39.402.548v.556h-.548v1.095h-.556v1.104h1.104v.556h-.548v.548h-.556v1.104h1.66v.547h1.104v.557h.547v.547h1.651v.83h2.756v-.83h3.585v-.548h1.104v-.556h1.094v-.548h.557v-.547h.547v-1.66h-.547v-.548h-.557v-.556h-.547v-.547h-.547v-.548h-2.208v.548h-3.029v-.548h-2.208v.548h-.547v.547h-.556v-.547h-.548v-.548h-.547v-.556zm44.637 3.859h1.651v1.104h-.547v.547h-.557v.556h-.547v.548h-.547v.83h-.557v-2.481h.557v-.548h.547zm3.303 9.642h1.377v.557h-.547v.547h-2.482v-.547h1.652zm-29.75 9.917h1.095v1.104h-1.651v-.548h.556zm-60.894 4.415h.547v.548h-.547zm-1.104.547h.557v.557h-.557zm-18.738.557h1.66v.547h.548v.548h1.104v.556h-1.652v-.556h-.556v.556h-2.199v-.556h.548v-.548h.547zm87.341 0h1.104v1.095h.556v.556h-3.858v-.556h1.103v-.548h1.095zm-4.954 2.199h1.104v1.934h-.556v-.557h-.548zm-77.15.83h2.207v.547h.548v.557h-.548v-.557h-.556v1.651h-.548v-1.65h-1.104zm3.311.547h.547v.557h-.547zm-5.793 1.104h.557v1.104h-.557v1.651h-1.095v-.547h.548v-1.66h.547zm7.444 0h1.104v.547h-.556v1.104h-.548v.557h-.556v.547h-2.199v-.547h.548v-.557h2.207zm2.199 0h.556v.547h-.556zm86.794 4.406h1.103v.557h.83v.547h.548v.547h1.104v.557h.547v1.925h.557v2.208h.547v1.103h.547v.548h.557v.547h1.651v-1.095h.547v-.556h.557v-2.199h.547v-.556h.557v2.208h.547v.547h.548v1.104h.83v.547h1.104v.557h2.207v-.557h.548v.557h2.755v.547h.547v1.104h-.547v.547h-.548v1.104h-.556v.556h-.548v.548h-6.34v-.548h-2.755v-.556h-3.859v.557h-.547v1.377h.547v.547h-1.651v-.547h-1.378v-.83h-.547v-1.104h-.556v-.547h-1.652v-.557h-1.65v-.547h-.557v-3.303h-.548v-.556h-5.236v.556h-3.86v.548h-1.103v-2.208h.557v-.547h.547v-1.925h1.104v-.557h1.651v-.547h.556v-1.651h.548v.547h2.481v-.547h1.104v1.65h-.556v3.577h1.66v-.547h.547v-4.133h.548v.547h1.104v1.104h.556v.557h1.095v2.472h-1.651v1.104h.556v.556h2.199v.548h.556v-1.104h1.378v-.547h1.094v-.557h.557v-2.472h-.557v-1.104h-1.094v-.557h-.83v-.547h-1.104zm-12.398 4.133v1.104h1.651v-1.104zm-5.51 3.311h2.207v1.095h-1.104v.557h-2.207v-.557h-1.378v-.547h2.482zm-104.428 4.954h.556v.557h-.556zm121.788.557h.548v.547h-.548zm-87.34 1.924v.557h2.198v-.557zm2.754 0v2.208h.821v-.556h.557v-1.652zm97.805.557h.557v.547h.547v.548h.556v.556h.548v1.104h-1.104v-.556h-1.104zm-98.909 2.199v1.103h.548v1.104h1.377v-2.207zm.548 2.207h-1.104v-.556h-1.651v-.548h-1.652v-.547h-2.207v.547h-1.095v1.652h1.651v-.548h.548v.548h1.65v.556h.557v.547h1.104v.548h1.651v2.481h1.104v-1.377h-.556v-.548h1.377v1.104h1.66v.821h2.2v-.82h1.65v-1.661h-1.094v-.548h-1.104v-1.103h-2.208v.556h-1.104v-.556h-1.377zm1.934-2.207v1.103h2.198v-1.103zm101.39 0h1.104v.556h.547v.547h.557v1.104h.547v.548h.556v1.103h.548v1.104h.83v1.104h.547v.821h.548v.557h.556v1.65h.548v.548h.556v1.651h.547v1.104h-.547v-.547h-1.104v-.557h-.556v-.547h-.548v-1.104h-1.377v-2.198h-.548v-1.378h-.556v-1.104h-.547v-1.104h-.557v-1.103h-.547v-1.104h-.548v-1.095h-.556zm-56.48 3.858v1.104h-.556v1.925h1.104v-.82h.548v-1.105h.556v-1.104zm-39.4 1.104v1.925h2.198v-.82h1.934v-1.105zm4.68.548v.556h.556v-.556zm1.104 0v.556h.547v-.556zm0 1.377v.557h-.548v2.755h.548v.547h1.104v-3.859zm8.539 15.71h.556v.547h-.556v.556h-.822v-.556h.822z" fill="url(#t)"/>
<path transform="translate(-36.93 16.855) scale(.98891)" d="m91.392 133.99q0 38.298 27.002 65.575 27.277 27.277 65.85 27.277 38.3 0 65.852-27.277 27.001-27.277 27.001-65.575 0-38.574-27.001-65.851-27.553-27.278-65.851-27.278-38.574 0-65.851 27.278-27.002 27.277-27.002 65.85" fill="url(#u)"/>
</g>
<g fill="#212121" stroke-width=".9786">
<path transform="translate(-12.568)" d="M125.66 26.829c-.18.01-.369.084-.6.217l.002-.004s-.019.005-.068.037c-.263.175-1.063.728-1.233 1.097l-.03.02-16.177 53.62v.009c-.266.748.31 1.137.445 1.219l-.002.002a66.038 66.038 0 0 0 4.54 2.672c10.835 6.347 24.554 10.732 43.074 7.171 6.228-.983 12.794-2.832 19.652-5.814.096-.048.383-.214.547-.502l16.395-53.904.002.002v-.008l.004-.012-.004-.004c.121-.592-.265-.936-.27-.941v-.004h-.002l-1.303-1.002h-.002c-.113-.105-.371-.24-.902-.162-32.957 13.05-49.145 5.663-63.43-3.54 0-.003 0-.007-.002-.01-.011-.005-.02-.007-.031-.011l-.016-.01v.004c-.224-.099-.406-.153-.59-.143z" filter="url(#v)"/>
<g fill-rule="evenodd">
<path transform="translate(-12.568)" d="M85.314 10.81c-8.38.125-18.35 2.15-30.74 7.054h-.315v.144h.133l-.002.002h-.13v.168h.04v.002h-.04v.036l-16.3 53.968c-.08.276.075.728.229.844.013.008.023.01.035.016l.04.031 1.062.8c.04.018.092.057.125.07.249.106.26.08.36.068v-.002c.133-.023.48-.164.48-.164 14.892-5.661 25.947-7.224 35.433-6.108 1.117.131 2.206.3 3.273.504.08.016.16.03.24.047.304.06.603.126.903.191.647.145 1.293.293 1.924.455l.039.012c.515.133 1.013.277 1.512.42 5.83 1.726 10.983 4.422 15.879 7.395.044.028.067.031.117.054.021.011.05.013.084.026.082.038.326.141.56.076l1.012-.432h.008l.008-.006.014-.006h-.006c.139-.1.363-.24.433-.5l.002.004 16.278-53.842c.058-.255-.026-.526-.227-.664h-.002C108.83 15.668 99.285 10.6 85.314 10.81z" filter="url(#w)"/>
<path transform="translate(-12.568)" d="M106.523 88.24c-.177.012-.363.092-.604.235-.015.006-.033.01-.06.03-.267.178-1.086.753-1.229 1.101l-.02.014-16.085 53.363c-.24.656.222 1.071.445 1.229l-.002.002c14.313 9.229 35.094 17.384 67.49 4.123.097-.048.385-.218.545-.502l15.698-52.48c-.002-.005-.008-.01-.01-.014a1.029 1.029 0 0 0-.268-.94h-.002V94.4l-.002-.002-1.303-.998c-.113-.104-.369-.24-.902-.162h-.002l-.082.025c-2.867.88-15.918 4.053-18.244 4.532-21.06 3.392-33.384-2.072-44.742-9.391V88.4c-.249-.114-.432-.17-.621-.158z" filter="url(#x)"/>
<path transform="translate(-12.568)" d="M68.33 70.69c-.198.015-.431-.01-.63.005-.518-.007-.989.029-1.52.037-7.7.115-16.782 1.998-27.802 6.095-.987.349-1.967.702-2.913 1.069-.064.026-.266.094-.337.314h-.002l-.002.008-15.979 53.72c-.078.266.052.547.246.721h.002l.022.024 1.07.781s.003 0 .004.002l.012.01h.004c.267.184.48.182.591.172l.03.017.058-.021h.016l-.006-.004c12.027-4.46 21.625-6.497 29.763-6.452 7.487.044 13.684 1.75 19.358 4.216.689.304 1.379.606 2.051.934l.018.008.037.02c.919.449 1.825.918 2.72 1.406 1.797.978 3.526 2.007 5.27 3.096l-.003.002.027.012.031.02.006-.003c.08.046.311.163.577.05l.964-.548h.002l.022-.013h-.004c.138-.102.353-.241.422-.5 0 .002.003.004.004.006l16.508-54.181c.058-.258-.024-.527-.228-.666l-.027-.016-.004.012c-8.492-5.509-17.49-10.19-30.377-10.352zm-33.058 7.522-.014.033-.107-.029c.04 0 .081-.003.121-.004z" filter="url(#y)"/>
</g>
</g>
<g stroke-width=".9786">
<path transform="translate(-12.568 2)" d="M120.6 16.862c-.197.011-.398.09-.663.25-.263.175-1.065.729-1.235 1.098l-.027.02-16.13 53.517c-.274.755.309 1.148.444 1.228a65.369 65.369 0 0 0 4.515 2.668c10.835 6.346 24.493 10.723 43.012 7.162 6.226-.984 12.762-2.824 19.618-5.805.096-.048.382-.214.546-.502l16.386-53.81.002.003v-.008l.004-.012c0-.001 0-.003-.002-.004.123-.596-.271-.944-.271-.945l-1.305-1.002c-.113-.104-.371-.239-.902-.162-32.956 13.05-49.066 5.677-63.35-3.526-.002-.003-.001-.007-.003-.01-.013-.006-.023-.007-.037-.013l-.011-.008v.004c-.224-.098-.407-.153-.59-.143z" fill="#767e47"/>
<path transform="translate(-12.568 2)" d="m184.39 20.94c-32.996 13.064-48.942 5.734-63.24-3.482l-16.259 54.092c14.285 9.268 31.53 16.889 63.188 3.316z" fill="url(#k)"/>
<path transform="translate(-12.568 2)" d="M184.334 20.988c-32.996 13.067-48.892 5.778-63.19-3.437.034-.12.118-.388.022-.612 14.297 9.218 30.486 16.636 63.48 3.571-.22.193-.22.289-.312.478z" fill="url(#z)"/>
</g>
<g fill="#767e47">
<path transform="matrix(1 0 0 .95766 1.359 2.776)" d="m89.786 73.298-1.242.983.001-.129 16.178-55.991 1.178-.842z" fill-rule="evenodd"/>
<g stroke-width=".9786">
<path transform="translate(-12.568 2)" d="M104.927 71.57c-.502-.27-.864-.812-1.31-.644l16.155-53.54c.248-.107.873-.312 1.463.134z"/>
<path transform="translate(-12.568 2)" d="m119.98 17.014-.161.461-1.183.737c.1-.366.998-.976 1.275-1.16a.24.24 0 0 1 .069-.038z" fill-rule="evenodd"/>
<path transform="translate(-12.568 2)" d="M121.214 17.534a1.659 1.659 0 0 0-1.447-.135c.039-.114.145-.348.145-.348.53-.322.806-.318 1.302-.09a.779.779 0 0 1 0 .573z"/>
</g>
</g>
<g fill-rule="evenodd">
<path transform="translate(-12.568 2)" d="M185.558 21.387s-.37-.488-1.252-.332c.078-.2.078-.388.34-.546.53-.076.789.058.902.162.063.06.082.108.082.108.07.3-.072.608-.072.608z" fill="url(#A)" stroke-width=".9786"/>
<path transform="translate(-12.568 2)" d="m185.549 20.671 1.305 1.003c.078.335-.09.675-.09.675l-1.31-1.006s.165-.374.095-.672z" fill="url(#B)" stroke-width=".9786"/>
<path transform="matrix(1 0 0 .95766 1.359 2.776)" d="m156.48 78.712-1.238-1.093 16.312-56.217 1.332 1.059z" fill="#595e48"/>
<g stroke-width=".9786">
<path transform="translate(-12.568 2)" d="M170.728 76.545c.035-.307-.307-.561-.307-.561l16.376-53.747s.26.224.33.386z" fill="#767e47"/>
<path transform="translate(-12.568 2)" d="M187.123 22.643s-.06-.154-.338-.38c.127-.505.043-.606.043-.606l.025.016s.41.358.27.97z" fill="url(#C)"/>
<path transform="translate(-12.568 2)" d="M170.18 77.047c-8.817 3.835-17.163 5.813-24.913 6.46-13.383 1.456-24.205-1.332-33.047-5.49a66.75 66.75 0 0 1-9.305-4.999l.149-.123c2.792 1.8 5.835 3.557 9.155 5.121 8.984 3.95 20.195 6.558 33.047 5.491 7.32-.792 15.406-2.861 24.355-6.662.252.194.56.202.56.202z" fill="#595e48"/>
</g>
</g>
<path transform="translate(-12.568 2)" d="M168.4 76.047s-.631-.542-.516-1.336a1.556 1.556 0 0 1 1.39.307s-.155.73-.874 1.03z" fill="url(#D)" stroke-width=".9786"/>
<path transform="translate(-12.568 2)" d="m169.275 75.019 1.186.99s-.182.622-.902.925l-1.205-.988c.722-.303.92-.927.92-.927z" fill="url(#E)" fill-rule="evenodd" stroke-width=".9786"/>
<g fill="#767e47" stroke-width=".9786">
<path transform="translate(-12.568 2)" d="M168.08 74.695c-.115.795.496 1.375.496 1.375-33.002 13.068-50.004 5.373-64.288-3.894.25-.176.29-.174.453-.731 14.282 9.268 35.87 15.762 63.339 3.25z"/>
<path transform="translate(-12.568 2)" d="m103.07 72.95 1.228-.785c14.29 8.81 31.169 16.43 64.136 3.744l1.193.992c-31.653 13.373-51.903 5.926-66.556-3.95z" fill-rule="evenodd"/>
<path transform="translate(-12.568 2)" d="M170.728 76.545a1.358 1.358 0 0 1-.547.501c-.02.012-.033.012-.033.012s-.225.03-.525-.157c.645-.338.832-1.01.832-1.01s.375.299.273.654zm-67.612-3.61-.147.116s-.804-.416-.496-1.262c.072.832.643 1.146.643 1.146z" fill-rule="evenodd"/>
<path transform="translate(-12.568 2)" d="m102.472 71.789 1.184-.897c-.07.864.71 1.223.71 1.223l-1.203.887s-.76-.348-.691-1.213z"/>
<path transform="translate(-12.568 2)" d="M103.63 70.892c.405-.118.77.285 1.267.653-.161.56-.303.464-.554.642-.294-.169-.788-.584-.713-1.295z"/>
</g>
<g stroke-width=".9786">
<path transform="translate(-12.568 2)" d="m167.924 74.817 16.332-53.81c.883-.157 1.305.322 1.305.322l-16.285 53.69c-.001 0-.653-.48-1.352-.202z" fill="url(#F)"/>
<path transform="translate(-12.568 2)" d="M112.568 11.845C98.26 2.561 82.23-4.608 49.317 8.256c.084-.27.158-.414.158-.414 33.059-13.088 48.907-5.685 63.218 3.603z" fill="#f89c3e" fill-rule="evenodd"/>
<path transform="translate(-12.568 2)" d="M80.208.859c-8.38.126-18.328 2.107-30.718 7.01-.262.06-.238.275-.292.329v.004L32.945 62.083h-.002c-.08.276.134.54.288.657.012.008.023.009.035.015l.039.032 1.064.8c.041.018.09.056.123.069.25.106.26.082.362.068v-.002c.132-.023.48-.164.48-.164 14.893-5.66 26.047-7.63 35.533-6.514 1.114.131 2.203.301 3.27.504.083.017.168.03.251.047.301.059.597.127.895.191 1.233.275 2.436.587 3.595.922 5.782 1.728 10.6 4.746 15.462 7.698.044.028.065.031.115.054.023.012.055.015.092.028.087.04.324.138.554.074l1.012-.432h.006l.008-.006.013-.006h-.006c.14-.1.404.03.474-.23l.002.004 16.25-53.743.003.002.01-.033c.058-.256-.028-.527-.229-.664C103.699 5.648 94.18.649 80.208.859z" fill="url(#G)" fill-rule="evenodd"/>
</g>
<g fill="#922204" stroke-width=".9786">
<path transform="translate(-12.568 2)" d="M95.755 66.373c-15.398-10.234-34.272-16.66-62.301-3.321l1.132.819c7.169-2.806 13.562-4.431 20.068-5.656 5.376-1.012 10.635-1.185 15.275-.649 6.287.727 12.974 2.94 16.455 4.708 4.261 2.166 6.934 3.63 8.257 4.529zm.54-.794 16.27-53.796c.176.115.262.226.355.326L96.643 65.95c-.093-.226-.348-.372-.348-.372z" fill-rule="evenodd"/>
<path transform="translate(-12.568 2)" d="M34.61 63.81c5.212-2.048 10.039-3.568 14.518-4.61 1.086-.253 2.05-.48 3.197-.692a66.084 66.084 0 0 1 3.116-.541 65.58 65.58 0 0 1 4.654-.538c1.29-.097 2.545-.17 3.774-.18a52.78 52.78 0 0 1 3.483.064c1.01.056 1.998.126 2.97.236.823.092 1.627.189 2.422.32 1.679.276 3.3.615 4.869 1.04 6.332 1.716 11.956 4.64 17.127 7.942-.034.015-.158-.035-.212-.062-.05-.023-.073-.025-.117-.054C87.42 62.49 79.909 58.8 70.64 57.71c-9.486-1.117-20.54.447-35.433 6.108 0 0-.347.14-.48.164-.118.018-.096-.07-.118-.174z" fill-rule="evenodd"/>
<path transform="translate(-12.568 2)" d="M95.71 66.348s.253.154.503.1l-1.04.443c-.277.078-.625-.101-.625-.101z"/>
</g>
<path transform="translate(-12.568 2)" d="m34.624 63.819.105.166c-.101.013-.113.038-.362-.068-.033-.013-.083-.052-.124-.07l-1.063-.8-.096-.076c.145-.01.256.058.329.044z" fill="#ab4533" stroke-width=".9786"/>
<path transform="translate(-12.568 2)" d="M96.306 65.58c.114.074.25.117.345.343-.063.286-.317.43-.46.535-.251.068-.5-.118-.5-.118.159-.121.45-.294.615-.76z" fill="#922204" stroke-width=".9786"/>
<g fill-rule="evenodd">
<path transform="translate(-12.568 2)" d="m112.674 11.434.02.011c.2.138.285.408.227.664l-.01.034c-.094-.1-.154-.2-.338-.333z" fill="#922204" stroke-width=".9786"/>
<path transform="translate(-12.568 2)" d="M33.106 63c-.154-.116-.31-.569-.23-.845l.217-.071c-.08.399.178.854.402.977 0 0-.157.086-.39-.061z" fill="#d75329" stroke-width=".9786"/>
<path transform="matrix(1 0 0 .95766 1.359 2.776)" d="M35.25 7.372h.325v.024h-.325z" clip-path="url(#H)" fill="#faaa4f"/>
<path transform="matrix(1 0 0 .95766 1.359 2.776)" d="M35.25 7.396h.325v.027h-.325z" clip-path="url(#H)" fill="#f6a34c"/>
<path transform="matrix(1 0 0 .95766 1.359 2.776)" d="M35.25 7.423h.325v.024h-.325z" clip-path="url(#H)" fill="#f39d48"/>
<path transform="matrix(1 0 0 .95766 1.359 2.776)" d="M35.25 7.448h.325v.027h-.325z" clip-path="url(#H)" fill="#f09745"/>
<path transform="matrix(1 0 0 .95766 1.359 2.776)" d="M35.25 7.475h.325V7.5h-.325z" clip-path="url(#H)" fill="#ed9142"/>
<path transform="matrix(1 0 0 .95766 1.359 2.776)" d="M35.25 7.5h.325v.024h-.325z" clip-path="url(#H)" fill="#eb8c3f"/>
<path transform="matrix(1 0 0 .95766 1.359 2.776)" d="M35.25 7.525h.325v.025h-.325z" clip-path="url(#H)" fill="#e8863c"/>
<path transform="matrix(1 0 0 .95766 1.359 2.776)" d="M35.25 7.55h.325v.024h-.325z" clip-path="url(#H)" fill="#e68139"/>
<path transform="matrix(1 0 0 .95766 1.359 2.776)" d="M35.25 7.575h.325V7.6h-.325z" clip-path="url(#H)" fill="#e57b37"/>
<path transform="matrix(1 0 0 .95766 1.359 2.776)" d="M35.25 7.6h.325v.025h-.325z" clip-path="url(#H)" fill="#e27634"/>
<path transform="matrix(1 0 0 .95766 1.359 2.776)" d="M35.25 7.625h.325v.026h-.325z" clip-path="url(#H)" fill="#e07132"/>
<path transform="matrix(1 0 0 .95766 1.359 2.776)" d="M35.25 7.652h.325v.025h-.325z" clip-path="url(#H)" fill="#df6b30"/>
<path transform="matrix(1 0 0 .95766 1.359 2.776)" d="M35.25 7.677h.325v.024h-.325z" clip-path="url(#H)" fill="#dc662e"/>
<path transform="matrix(1 0 0 .95766 1.359 2.776)" d="M35.25 7.702h.325v.027h-.325z" clip-path="url(#H)" fill="#db602c"/>
<path transform="matrix(1 0 0 .95766 1.359 2.776)" d="M35.25 7.729h.325v.024h-.325z" clip-path="url(#H)" fill="#d95a2a"/>
<path transform="matrix(1 0 0 .95766 1.359 2.776)" d="M35.25 7.753h.325v.027h-.325z" clip-path="url(#H)" fill="#d75329"/>
</g>
<g stroke-width=".9786">
<path transform="translate(-12.568 2)" d="M95.725 66.367C86.91 60.85 78.66 56.281 65.595 55.921c-9.554.181-16.878 1.346-32.113 7.141-.225-.122-.51-.428-.431-.83 13.19-5.378 23.663-7.699 32.354-7.617 13.16.125 22.283 5.398 30.909 10.955-.146.487-.43.674-.59.797z" fill="#922204"/>
<path transform="translate(-12.568 2)" d="m49.182 8.168.15.046-16.244 54c-.037-.015-.21-.059-.21-.059z" fill="#d75329" fill-rule="evenodd"/>
<path d="M88.88 80.24c-.172.012-.353.09-.58.223l-.02.01c-.015.005-.036.01-.065.031-.267.179-1.086.754-1.228 1.102l-.02.014-.01.03c0 .004-.005.008-.006.01l.004-.001-16.027 53.266c-.24.657.222 1.074.444 1.23 14.313 9.23 34.963 17.33 67.36 4.069.095-.048.384-.218.544-.502l15.681-52.334c0-.003-.006-.007-.008-.01a1.03 1.03 0 0 0-.27-.945l-.007-.004-1.3-.998c-.112-.105-.368-.239-.901-.16l-.082.025-.602.238c-6.902 2.733-12.003 3.188-17.551 4.306l-.006.002c-21.052 3.387-33.372-2.121-44.728-9.44V80.4c-.003-.001-.005 0-.008-.002-.244-.111-.428-.168-.615-.156z" fill="#c19236" fill-rule="evenodd"/>
</g>
<path transform="matrix(1 0 0 .95766 1.359 .776)" d="m88.226 83.334c14.313 9.637 30.212 17.313 63.243 3.66l-16.281 56.234c-33.037 13.664-48.903 5.926-63.201-3.77z" clip-path="url(#I)" fill="url(#J)"/>
<g fill="#a87c3c" fill-rule="evenodd" stroke-width=".9786">
<path transform="translate(-12.568)" d="M151.92 139.808c-.16.284-.45.453-.545.5-.021.012-.035.012-.035.012s-.275.033-.525-.157c.645-.337.836-1.014.836-1.014s.372.303.269.659z"/>
<path transform="translate(-12.568)" d="M151.92 139.808c.039-.307-.305-.565-.305-.565l15.668-52.301s.262.22.334.385z"/>
<path transform="translate(-12.568)" d="M167.607 87.349s-.051-.15-.332-.375c.129-.508.039-.617.039-.617l.025.015s.413.364.268.977z"/>
</g>
<path transform="translate(-12.568)" d="M166.045 86.088s-.434-.504-1.316-.347c.047-.19.12-.423.402-.532.533-.078.789.057.902.161a.367.367 0 0 1 .082.108c.07.3-.07.61-.07.61z" fill="url(#K)" fill-rule="evenodd" stroke-width=".9786"/>
<g fill="#a87c3c">
<path transform="translate(-12.568)" d="m166.033 85.37 1.307 1.003c.076.34-.064.677-.064.677l-1.301-.999c-.001 0 .128-.382.058-.68z" fill-rule="evenodd" stroke-width=".9786"/>
<path transform="matrix(1 0 0 .95766 1.359 .776)" d="m137.66 144.77-1.373-1.184 15.754-54.621 1.33 1.062-15.649 54.594z" fill-rule="evenodd"/>
<path transform="translate(-12.568)" d="M149.443 139.22s-.63-.54-.516-1.336a1.574 1.574 0 0 1 1.395.306s-.156.727-.88 1.03z" stroke-width=".9786"/>
</g>
<g>
<path transform="translate(-12.568)" d="M164.783 85.792c-33.176 10.823-48.441 4.355-62.754-4.87.034-.124.122-.326.025-.554 14.313 9.225 30.143 15.525 63.076 4.841-.25.165-.281.389-.347.583z" fill="url(#L)" stroke-width=".9786"/>
<path transform="matrix(1 0 0 .95766 1.359 .776)" d="m69.516 140.111 16.085-55.722 1.177-.856-16.021 55.727-1.244.984z" fill="#c19236" fill-rule="evenodd"/>
<path transform="translate(-12.568)" d="M86.047 134.394c-.467-.265-1.011-.467-1.457-.296l16.063-53.304c.25-.1.844-.258 1.453.15z" fill="#c19236" stroke-width=".9786"/>
</g>
<path transform="translate(-12.568)" d="m148.967 137.993 15.758-52.271c.029-.008.068-.045.094-.05.838-.082 1.227.345 1.227.345l-15.715 52.188c-.001.001-.665-.493-1.364-.212z" fill="url(#M)" stroke-width=".9786"/>
<g fill="#a87c3c" stroke-width=".9786">
<path transform="translate(-12.568)" d="M151.375 140.308c-32.396 13.262-53.176 5.107-67.49-4.122l.15-.12c14.314 9.225 36.34 16.909 66.779 4.04.252.191.56.202.56.202z" fill-rule="evenodd"/>
<g>
<path transform="translate(-12.568)" d="m150.32 138.199 1.334 1.073s-.18.62-.902.924l-1.355-1.077c.722-.303.923-.92.923-.92z" fill-rule="evenodd"/>
<path transform="translate(-12.568)" d="M149.123 137.87c-.113.796.498 1.373.498 1.373-33.037 13.085-49.957 5.24-64.257-4.04.252-.177.375-.33.536-.884.02.012.22-.019.24-.008 14.762 8.705 33.655 15.585 62.983 3.558z"/>
<path transform="translate(-12.568)" d="m84.042 136.12 1.322-0.917c13.117 7.834 31.5 16.416 64.114 3.884l1.348 1.077c-30.313 12.858-52.471 5.185-66.784-4.044z" fill-rule="evenodd"/>
</g>
</g>
<g fill="#c19236" stroke-width=".9786">
<path transform="translate(-12.568)" d="m84.154 136.16-.15.1s-.87-.46-.561-1.305c.07.834.71 1.205.71 1.205z" fill-rule="evenodd"/>
<path transform="translate(-12.568)" d="m83.443 134.955 1.242-.973c-.068.872.813 1.193.813 1.193l-1.364 1s-.76-.351-.691-1.22z"/>
<path transform="translate(-12.568)" d="M84.593 134.017c.445-.173.862.03 1.33.292-.162.557-.26.751-.512.928-.294-.169-.893-.514-.818-1.22z"/>
</g>
<path transform="matrix(1 0 0 .95766 1.359 .776)" d="m88.226 83.334c14.313 9.637 30.212 17.313 63.243 3.66l-16.281 56.234c-33.037 13.664-48.903 5.926-63.201-3.77z" clip-path="url(#I)" fill="none"/>
<g stroke-width=".9786">
<path transform="translate(-12.568)" d="m100.86 80.436-.17.381-1.178.816c.076-.34.984-.969 1.264-1.156.037-.026.084-.04.084-.04z" fill="#c19236" fill-rule="evenodd"/>
<path transform="translate(-12.568)" d="M102.06 80.919c-.657-.367-1.193-.146-1.443-.041.039-.116.174-.408.174-.408.532-.326.774-.326 1.27-.098.097.225.034.404-.001.547z" fill="#c19236"/>
<path transform="translate(-12.568)" d="M63.248 64.663c-.2.014-.432-.012-.63.004-.52-.007-.99.029-1.52.037-7.7.115-16.784 1.998-27.804 6.095-.986.349-1.966.702-2.912 1.069-.064.026-.266.094-.338.314h-.002l-.002.008-15.978 53.72c-.078.266.051.547.246.721h.002l.021.024 1.07.78.005.003.011.01h.004c.268.184.482.182.592.172l.03.017.058-.021h.016l-.006-.004c12.027-4.46 21.625-6.497 29.763-6.453 7.487.045 13.684 1.75 19.358 4.217.689.304 1.379.606 2.05.934l.019.008.037.02c.919.449 1.825.918 2.72 1.406 1.797.978 3.526 2.007 5.27 3.096l-.003.002.027.012.031.02.006-.003c.08.046.311.163.576.05l.965-.548h.002l.022-.013h-.004c.138-.102.353-.241.422-.5 0 .002.003.004.004.006l16.508-54.181c.058-.258-.024-.527-.228-.666l-.027-.016-.004.012c-8.492-5.509-17.49-10.191-30.377-10.352zm-33.059 7.521-.014.033-.107-.029c.04 0 .081-.003.121-.004z" fill="#a0b4ff" fill-rule="evenodd"/>
</g>
<g fill="#141fb8" stroke-width=".9786">
<path transform="translate(-12.568)" d="M15.287 127.519c.108.015.307-.075.307-.075.229.15.41.255.41.255s-.357.081-.717-.18z" fill-rule="evenodd"/>
<path transform="translate(-12.568)" d="M76.497 130.286s.219.195.47.128l-.988.561c-.316.135-.641-.078-.641-.078zm-60.89-2.836s-.193.095-.302.08l-1.085-.794-.025-.022a.862.862 0 0 0 .41.012z"/>
<path transform="translate(-12.568)" d="M77.052 129.513a.94.94 0 0 1 .344.38c-.063.285-.311.43-.451.536-.202.045-.485-.139-.485-.139.158-.127.428-.31.592-.777z"/>
</g>
<g fill-rule="evenodd">
<path transform="translate(-12.568)" d="M30.011 72.22h.324v.017h-.324z" fill="#2e499e" stroke-width=".9786"/>
<path transform="matrix(1 0 0 .95766 1.359 .776)" d="M16.267 74.611.207 130.799l-.184-.047L16.086 74.56z" fill="#141fb8"/>
<path transform="translate(-12.568)" d="M14.22 126.736c-.208-.172-.352-.467-.271-.744l.193-.07c-.081.4.226.688.45.812.002-.001-.162.077-.372.003z" fill="#141fb8" stroke-width=".9786"/>
</g>
<path transform="translate(-12.568)" d="M76.487 130.324c-14.332-9.237-29.185-16.292-61.874-3.572-.225-.128-.567-.434-.487-.838 33.192-13.531 48.613-5.626 62.945 3.613-.146.49-.426.673-.584.797z" fill="url(#N)" stroke-width=".9786"/>
<g fill-rule="evenodd" stroke-width=".9786">
<path transform="translate(-12.568)" d="M15.542 127.41c31.464-11.78 45.567-5.365 59.892 3.467-8.58-5.289-17.41-9.524-29.594-9.595-8.154-.045-17.791 1.937-29.851 6.415 0 0-.25-.09-.447-.287z" fill="#141fb8"/>
<path transform="translate(-12.568)" d="m76.504 130.32-1.16.58c-14.324-8.833-28.822-14.938-59.736-3.45l-1.022-.715c32.689-12.721 47.587-5.655 61.918 3.585zm.538-.778L93.569 75.37c.177.118.27.21.363.31L77.39 129.92c-.093-.228-.348-.378-.348-.378z" fill="#141fb8"/>
<path transform="translate(-12.568)" d="M93.562 75.396c-14.318-9.293-30.467-16.02-63.403-3.146.082-.269.149-.396.149-.396 33.08-13.1 49.056-6.145 63.373 3.15z" fill="url(#O)"/>
</g>
<g stroke-width=".9786">
<path transform="translate(-12.568)" d="m77.068 129.67c-14.331-9.237-29.91-16.834-62.984-3.737l16.138-54.032c33.081-13.099 49.03-5.827 63.347 3.466z" fill="url(#m)"/>
<path transform="translate(-12.568)" d="m77.068 129.67c-14.331-9.237-29.91-16.834-62.984-3.737l16.195-54.172c33.08-13.1 48.973-5.687 63.29 3.606z" fill="none"/>
<path transform="translate(-12.568)" d="m93.676 75 .027.015c.204.139.287.408.229.665l-.012.034a1.807 1.807 0 0 0-.362-.312z" fill="#313c7e" fill-rule="evenodd"/>
<path transform="translate(-12.568)" d="m30.192 72.238-.181-.051a.502.502 0 0 1 .297-.333l.027-.008s-.06.12-.143.392z" fill="url(#P)" fill-rule="evenodd"/>
</g>
<path transform="translate(-12.568)" d="M76.5 130.353c-14.355-8.99-29.773-16.246-61.903-3.582-.212-.06-.593-.412-.513-.834 30.947-12.99 48.659-6.099 62.987 3.555a1.57 1.57 0 0 1-.571.861z" fill="#141fb8"/>
</svg>
