<svg version="1.1" viewBox="0 0 256 256" xmlns="http://www.w3.org/2000/svg" xmlns:xlink="http://www.w3.org/1999/xlink">
<defs>
<linearGradient id="linearGradient1617">
<stop stop-color="#c8def5" offset="0"/>
<stop stop-color="#acaaa5" offset="1"/>
</linearGradient>
<linearGradient id="linearGradient2074" x1="79.068" x2="79.068" y1="14.5" y2="11.5" gradientTransform="translate(5)" gradientUnits="userSpaceOnUse">
<stop stop-color="#0090f6" offset="0"/>
<stop stop-color="#06c" offset=".66667"/>
<stop stop-color="#378ade" offset="1"/>
</linearGradient>
<linearGradient id="linearGradient2076" x1="13.068" x2="22.568" y1="10.75" y2="10.75" gradientTransform="translate(.25 2.5)" gradientUnits="userSpaceOnUse" xlink:href="#linearGradient1617"/>
<linearGradient id="linearGradient2078" x1="13.068" x2="20.568" y1="19.5" y2="19.5" gradientTransform="translate(.25 -.25)" gradientUnits="userSpaceOnUse" xlink:href="#linearGradient1617"/>
<linearGradient id="linearGradient2080" x1="13.068" x2="18.568" y1="25.5" y2="25.5" gradientTransform="translate(.25 -.25)" gradientUnits="userSpaceOnUse" xlink:href="#linearGradient1617"/>
<linearGradient id="linearGradient2082" x1="13.068" x2="16.568" y1="31.5" y2="31.5" gradientTransform="translate(.25 -.25)" gradientUnits="userSpaceOnUse" xlink:href="#linearGradient1617"/>
<filter id="filter1177" x="-.09597" y="-.17077" width="1.1919" height="1.3415" color-interpolation-filters="sRGB">
<feGaussianBlur stdDeviation="9.6793964"/>
</filter>
</defs>
<path d="m109.04 69.883c-7.3417 0-15.317 5.9264-17.883 13.008l-4.3633 12.043a2.6176 2.6176 0 0 0-0.14062 0.1543l-38.885 107.32a2.6179 2.6179 0 0 0 2.4609 3.5098h162.29a2.6179 2.6179 0 0 0 2.4609-1.7266l38.885-107.32a2.6176 2.6176 0 0 0 0.13281-0.60156l4.8477-13.379c2.5657-7.0814-1.1153-13.008-8.457-13.008zm-87.516 13.008a3.9264 3.9264 0 0 0-3.9258 3.9258 3.9264 3.9264 0 0 0 3.9258 3.9277h44.5a3.9264 3.9264 0 0 0 3.9258-3.9277 3.9264 3.9264 0 0 0-3.9258-3.9258zm0 31.412a3.9264 3.9264 0 0 0-3.9258 3.9258 3.9264 3.9264 0 0 0 3.9258 3.9258h34.029a3.9264 3.9264 0 0 0 3.9258-3.9258 3.9264 3.9264 0 0 0-3.9258-3.9258zm0 31.41a3.9264 3.9264 0 0 0-3.9258 3.9277 3.9264 3.9264 0 0 0 3.9258 3.9258h23.559a3.9264 3.9264 0 0 0 3.9258-3.9258 3.9264 3.9264 0 0 0-3.9258-3.9277zm0 31.412a3.9264 3.9264 0 0 0-3.9258 3.9258 3.9264 3.9264 0 0 0 3.9258 3.9277h13.088a3.9264 3.9264 0 0 0 3.9277-3.9277 3.9264 3.9264 0 0 0-3.9277-3.9258z" color="#000000" fill-rule="evenodd" filter="url(#filter1177)" opacity=".83" stroke-linecap="round" stroke-linejoin="round" stroke-width="5.2352" style="-inkscape-stroke:none"/>
<g transform="matrix(5.2353 0 0 5.2353 -64.815 3.4498)">
<g transform="matrix(1 0 -.36232 1 -35.905 0)">
<rect x="68.068" y="10.5" width="31" height="8.0915" rx="2" ry="2" fill="url(#linearGradient2074)" fill-rule="evenodd" stop-color="#000000" stroke="#04379b" stroke-linecap="round" stroke-linejoin="round"/>
<path d="m99.068 15v20.5h-31v-20.5" fill="#efead8" fill-rule="evenodd" stop-color="#000000" stroke="#04379b" stroke-linecap="round" stroke-linejoin="round"/>
<g transform="translate(3.5,-1.5)">
<rect x="71.068" y="22" width="18" height="7" fill="#fff" fill-rule="evenodd" stop-color="#000000"/>
<g fill="none" stroke-width="1px">
<path d="m70.568 29h18.5v-7.5" stroke="#d2cdbb"/>
<path d="m71.068 28.5v-6.5h17.5" stroke="#777770"/>
<path d="m71.568 28h17" stroke="#e8e5dc"/>
<path d="m70.068 29.5v-8.5h19.5" stroke="#a5a597"/>
<path d="m90.068 20.5v9.5h-20.5" stroke="#fff"/>
<path d="m74.068 27v-4" stroke="#000"/>
</g>
</g>
<g fill-rule="evenodd">
<rect x="95.568" y="12" width="2" height="2" fill="#ff6f34" stop-color="#000000"/>
<rect x="92.568" y="12" width="2" height="2" fill="#7fbffa" stop-color="#000000"/>
<rect x="89.568" y="12" width="2" height="2" fill="#7fbffa" stop-color="#000000"/>
</g>
</g>
<g fill="none" stroke-linecap="round" stroke-width="1.5">
<path d="m13.818 13.25h8.5" stroke="url(#linearGradient2076)"/>
<path d="m13.818 19.25h6.5" stroke="url(#linearGradient2078)"/>
<path d="m13.818 25.25h4.5" stroke="url(#linearGradient2080)"/>
<path d="m13.818 31.25h2.5" stroke="url(#linearGradient2082)"/>
</g>
</g>
</svg>
