<svg version="1.1" viewBox="0 0 256 256" xmlns="http://www.w3.org/2000/svg" xmlns:xlink="http://www.w3.org/1999/xlink"><defs><linearGradient id="linearGradient927"><stop stop-color="#208aff" offset="0"/><stop stop-color="#8fc5ff" offset="1"/></linearGradient><linearGradient id="linearGradient919"><stop stop-color="#1f8aff" offset="0"/><stop stop-color="#f1f8ff" offset="1"/></linearGradient><linearGradient id="linearGradient1111" x1="-56.432" x2="-56.432" y1="44" y2="12.5" gradientTransform="translate(-4,5.5)" gradientUnits="userSpaceOnUse" xlink:href="#linearGradient919"/><linearGradient id="linearGradient1113" x1="-48.432" x2="-48.432" y1="42.5" y2="12" gradientTransform="translate(-4,5.5)" gradientUnits="userSpaceOnUse" xlink:href="#linearGradient927"/><linearGradient id="linearGradient1115" x1="-41.932" x2="-41.932" y1="17" y2="5" gradientTransform="translate(-3.5,5.5)" gradientUnits="userSpaceOnUse" xlink:href="#linearGradient919"/><linearGradient id="linearGradient1117" x1="-39.432" x2="-58.932" y1="17" y2="-11" gradientTransform="translate(-3.5,5.5)" gradientUnits="userSpaceOnUse" xlink:href="#linearGradient927"/><linearGradient id="linearGradient1119" x1="-48.432" x2="-48.432" y1="16.5" y2="44.5" gradientTransform="translate(10.5,5)" gradientUnits="userSpaceOnUse"><stop stop-color="#014b80" offset="0"/><stop stop-color="#3db3fd" offset="1"/></linearGradient><linearGradient id="linearGradient1121" x1="19.568" x2="3.0677" y1="8" y2="2" gradientTransform="translate(-85,1.5)" gradientUnits="userSpaceOnUse"><stop stop-color="#ffcf1e" offset="0"/><stop stop-color="#fff8ed" offset="1"/></linearGradient><linearGradient id="linearGradient1123" x1="21.07" x2="21.07" y1="10.055" y2="36.931" gradientTransform="translate(-85.5,1)" gradientUnits="userSpaceOnUse"><stop stop-color="#ff9316" offset="0"/><stop stop-color="#ffc82f" offset="1"/></linearGradient><linearGradient id="linearGradient1125" x1="18.036" x2="18.036" y1="9.9348" y2="37.748" gradientTransform="translate(-85.5,1)" gradientUnits="userSpaceOnUse"><stop stop-color="#ff8c10" offset="0"/><stop stop-color="#ffa225" offset="1"/></linearGradient><filter id="filter1212" x="-.050891" y="-.045419" width="1.1018" height="1.0908" color-interpolation-filters="sRGB"><feGaussianBlur stdDeviation="4.5798038"/></filter><filter id="filter963" x="-.048336" y="-.047668" width="1.0967" height="1.0953" color-interpolation-filters="sRGB"><feGaussianBlur stdDeviation="4.8065668"/></filter></defs><g transform="translate(-12.568)"><path d="m167.61 3.9999a2.6024 2.6024 0 0 0-0.82031 0.16016l-49.441 18.215a2.6024 2.6024 0 0 0-1.4922 3.4648l-1.7363-0.78906a2.6024 2.6024 0 0 0-1.0508-0.23438 2.6024 2.6024 0 0 0-0.97657 0.18164l-72.861 28.623a2.6024 2.6024 0 0 0-0.01172 0.0059 2.6024 2.6024 0 0 0-0.02734 0.0098 2.6024 2.6024 0 0 0-0.45312 0.24219 2.6024 2.6024 0 0 0-0.01563 0.01172 2.6024 2.6024 0 0 0-0.20508 0.15234 2.6024 2.6024 0 0 0-2e-3 2e-3 2.6024 2.6024 0 0 0-0.08594 0.07617 2.6024 2.6024 0 0 0-0.01563 0.01367 2.6024 2.6024 0 0 0-0.08203 0.08008 2.6024 2.6024 0 0 0-0.07617 0.07813 2.6024 2.6024 0 0 0-0.02344 0.02734 2.6024 2.6024 0 0 0-0.04492 0.05273 2.6024 2.6024 0 0 0-0.04297 0.05273 2.6024 2.6024 0 0 0-0.0059 0.0078 2.6024 2.6024 0 0 0-0.06836 0.0918 2.6024 2.6024 0 0 0-0.01367 0.01758 2.6024 2.6024 0 0 0-0.0625 0.09375 2.6024 2.6024 0 0 0-0.01172 0.01758 2.6024 2.6024 0 0 0-0.05859 0.09961 2.6024 2.6024 0 0 0-0.11524 0.22461 2.6024 2.6024 0 0 0-0.0098 0.02344 2.6024 2.6024 0 0 0-0.0059 0.01172 2.6024 2.6024 0 0 0-0.04297 0.10742 2.6024 2.6024 0 0 0-0.02344 0.0625 2.6024 2.6024 0 0 0-0.02148 0.06445 2.6024 2.6024 0 0 0-0.0059 0.02148 2.6024 2.6024 0 0 0-0.06641 0.25391 2.6024 2.6024 0 0 0-2e-3 0.0078 2.6024 2.6024 0 0 0-0.01953 0.11328 2.6024 2.6024 0 0 0-0.01367 0.09766 2.6024 2.6024 0 0 0-0.0039 0.04883 2.6024 2.6024 0 0 0-2e-3 0.0098 2.6024 2.6024 0 0 0-0.0078 0.11328 2.6024 2.6024 0 0 0-0.0039 0.12891 2.6024 2.6024 0 0 0 0 0.0078v143.11a2.6024 2.6024 0 0 0 1.4102 2.3125l85.871 44.236a2.6024 2.6024 0 0 0 2e-3 0 2.6024 2.6024 0 0 0 0.63476 0.22851 2.6024 2.6024 0 0 0 2e-3 0 2.6024 2.6024 0 0 0 0.13086 0.0254 2.6024 2.6024 0 0 0 2e-3 0 2.6024 2.6024 0 0 0 0.81055 6e-3 2.6024 2.6024 0 0 0 0.26562-0.0547 2.6024 2.6024 0 0 0 0.13086-0.0371 2.6024 2.6024 0 0 0 0.25391-0.0957 2.6024 2.6024 0 0 0 0.0547-0.0254l0.0313-0.0137a2.6024 2.6024 0 0 0 0.0352-0.0176l72.795-33.797a2.6024 2.6024 0 0 0 1.5059-2.3594v-2.6016a2.6024 2.6024 0 0 0 3.6602 2.377l46.838-20.816a2.6024 2.6024 0 0 0 1.5449-2.3789v-140.44a2.6024 2.6024 0 0 0-0.12305-0.86914 2.6024 2.6024 0 0 0-2e-3 -0.0039 2.6024 2.6024 0 0 0-0.28711-0.60742 2.6024 2.6024 0 0 0-4e-3 -0.0039 2.6024 2.6024 0 0 0-0.875-0.83594 2.6024 2.6024 0 0 0-0.11329-0.0625 2.6024 2.6024 0 0 0-6e-3 -2e-3 2.6024 2.6024 0 0 0-0.0879-0.04492l-83.267-39.031a2.6024 2.6024 0 0 0-1.0488-0.24609 2.6024 2.6024 0 0 0-0.13477 0zm33.699 61.432 0.20703 0.09375v0.83984a2.6024 2.6024 0 0 0-2e-3 -0.04883 2.6024 2.6024 0 0 0-2e-3 -0.03125 2.6024 2.6024 0 0 0-0.01-0.10547 2.6024 2.6024 0 0 0 0-2e-3 2.6024 2.6024 0 0 0-0.0176-0.13281 2.6024 2.6024 0 0 0-2e-3 -0.01367 2.6024 2.6024 0 0 0-0.0918-0.38086 2.6024 2.6024 0 0 0-6e-3 -0.01758 2.6024 2.6024 0 0 0-0.0762-0.20117z" color="#000000" color-rendering="auto" dominant-baseline="auto" fill="#212121" filter="url(#filter1212)" image-rendering="auto" shape-rendering="auto" solid-color="#000000" stop-color="#000000" style="font-feature-settings:normal;font-variant-alternates:normal;font-variant-caps:normal;font-variant-east-asian:normal;font-variant-ligatures:normal;font-variant-numeric:normal;font-variant-position:normal;font-variation-settings:normal;inline-size:0;isolation:auto;mix-blend-mode:normal;shape-margin:0;shape-padding:0;text-decoration-color:#000000;text-decoration-line:none;text-decoration-style:solid;text-indent:0;text-orientation:mixed;text-transform:none;white-space:normal"/><g transform="matrix(5.2043 0 0 5.2043 555.26 -2.1528e-5)" stroke-linejoin="round" stroke-width="1px"><g transform="translate(-38,-5.5)"><path d="m-45.432 51.5v-28l-16.5-8v27.5z" fill="url(#linearGradient1111)" stroke="url(#linearGradient1113)"/><path d="m-31.432 17.5-16.5-7.5-14 5.5 16.5 8z" fill="url(#linearGradient1115)" stroke="url(#linearGradient1117)"/><path d="m-31.432 45v-27.5l-14 6v28z" fill="url(#linearGradient1119)" stroke="#2185cb"/></g><path d="m-68.432 11.5-16.5-7.5 9.5-3.5 16 7.5z" fill="url(#linearGradient1121)" stroke="#fe9d0f"/><path d="m-68.432 11.5v8l-6 2.5v12.5l6-2.5v7l9-4v-27z" fill="url(#linearGradient1123)" stroke="url(#linearGradient1125)"/></g><g transform="matrix(.48289 0 0 .48289 9.2774 130.96)" fill-rule="evenodd"><path d="m133.81 4a116.24 116.24 0 0 0-116.24 116.24 116.24 116.24 0 0 0 21.912 67.926 116.24 116.24 0 0 0 100.5 57.83 116.24 116.24 0 0 0 116.24-116.24 116.24 116.24 0 0 0-21.912-67.926 116.24 116.24 0 0 0-100.5-57.83z" fill="#212121" filter="url(#filter963)"/><g transform="matrix(5.4067 0 0 5.4067 495.56 -5.4067)"><circle cx="-67.31" cy="22.757" r="18.249" fill="#fff"/><path d="m-66.692 2.7593a21.5 21.5 0 0 0-21.5 21.5 21.5 21.5 0 0 0 21.5 21.5 21.5 21.5 0 0 0 21.5-21.5 21.5 21.5 0 0 0-21.5-21.5zm0 5.5a16 16 0 0 1 16 16 16 16 0 0 1-2.0996 7.9219l-22.107-21.656a16 16 0 0 1 8.207-2.2656zm-12.713 6.2871 22.426 22.426a16 16 0 0 1-9.7129 3.2871 16 16 0 0 1-16-16 16 16 0 0 1 3.2871-9.7129z" fill="#a21907"/><path d="m-67.833 1a21.5 21.5 0 0 0-21.5 21.5 21.5 21.5 0 0 0 21.5 21.5 21.5 21.5 0 0 0 21.5-21.5 21.5 21.5 0 0 0-21.5-21.5zm0 5.5a16 16 0 0 1 16 16 16 16 0 0 1-2.0996 7.9219l-22.107-21.656a16 16 0 0 1 8.207-2.2656zm-12.713 6.2871 22.426 22.426a16 16 0 0 1-9.7129 3.2871 16 16 0 0 1-16-16 16 16 0 0 1 3.2871-9.7129z" fill="#f52e14"/></g></g></g></svg>
