<svg version="1.1" viewBox="0 0 256 256" xmlns="http://www.w3.org/2000/svg"><defs><filter id="filter1115" x="-.058491" y="-.0407" width="1.117" height="1.0814" color-interpolation-filters="sRGB"><feGaussianBlur stdDeviation="2.6071086"/></filter></defs><g transform="translate(-12.568)"><g transform="matrix(1.5741 0 0 1.5741 -70.217 -77.99)" fill="#212121" filter="url(#filter1115)"><path d="m84.036 133.15c15.45-39.869 49.053-53.511 63.776-37.203-2.9897 11.202-9.2411 15.401-21.259 21.259 19.155 5.8999 38.607 6.6802 58.462 5.3147 1.7561-28.52 4.498-51.206-4.1881-70.43-3.5023 9.2605-7.7536 16.031-11.756 17.284-30.095-33.623-85.194 9.0566-85.035 63.776z"/><path d="m190.98 132.31c-15.078 37.157-49.154 37.645-61.511 25.919 5.2035-5.5448 13.024-8.2341 26.277-11.969-18.528-5.7071-43.482-6.6454-62.687-5.3245-3.513 23.632-4.747 49.664 4.133 64.886 3.3879-8.9578 7.4052-15.946 11.116-18.265 29.111 32.524 84.206-2.6194 82.672-55.247z"/></g><g transform="matrix(1.5741 0 0 1.5741 -75.217 -81.99)" fill="#019901"><path d="m84.036 133.15c15.45-39.869 49.053-53.511 63.776-37.203-2.9897 11.202-9.2411 15.401-21.259 21.259 19.155 5.8999 38.607 6.6802 58.462 5.3147 1.7561-28.52 4.498-51.206-4.1881-70.43-3.5023 9.2605-7.7536 16.031-11.756 17.284-30.095-33.623-85.194 9.0566-85.035 63.776z"/><path d="m190.98 132.31c-15.078 37.157-49.154 37.645-61.511 25.919 5.2035-5.5448 13.024-8.2341 26.277-11.969-18.528-5.7071-43.482-6.6454-62.687-5.3245-3.513 23.632-4.747 49.664 4.133 64.886 3.3879-8.9578 7.4052-15.946 11.116-18.265 29.111 32.524 84.206-2.6194 82.672-55.247z"/></g></g></svg>
