<svg version="1.1" viewBox="0 0 256 256" xmlns="http://www.w3.org/2000/svg" xmlns:xlink="http://www.w3.org/1999/xlink">
<defs>
<linearGradient id="linearGradient1327" x1="57.068" x2="57.068" y1="41" y2="24" gradientTransform="translate(12.5)" gradientUnits="userSpaceOnUse">
<stop stop-color="#d8a518" offset="0"/>
<stop stop-color="#ffec86" offset="1"/>
</linearGradient>
<linearGradient id="linearGradient1319" x1="62.568" x2="62.568" y1="43.5" y2="22.5" gradientTransform="translate(12.5)" gradientUnits="userSpaceOnUse">
<stop stop-color="#ffd06a" offset="0"/>
<stop stop-color="#ffffc6" offset="1"/>
</linearGradient>
<linearGradient id="linearGradient1341" x1="60.817" x2="60.817" y1="43.862" y2="25.459" gradientTransform="translate(12.5)" gradientUnits="userSpaceOnUse">
<stop stop-color="#fffff0" offset="0"/>
<stop stop-color="#fffd9d" offset=".5"/>
<stop stop-color="#fefbec" offset="1"/>
</linearGradient>
<linearGradient id="linearGradient1208" x1="71.568" x2="96.568" y1="31.061" y2="31.061" gradientUnits="userSpaceOnUse" xlink:href="#linearGradient1206"/>
<linearGradient id="linearGradient1206">
<stop stop-color="#e4bc4d" offset="0"/>
<stop stop-color="#c90" offset="1"/>
</linearGradient>
<linearGradient id="linearGradient1300" x1="57.544" x2="82.568" y1="18.977" y2="18.977" gradientTransform="translate(12.5)" gradientUnits="userSpaceOnUse">
<stop stop-color="#ff9" offset="0"/>
<stop stop-color="#ffcd67" offset=".5"/>
<stop stop-color="#d3a00f" offset="1"/>
</linearGradient>
<linearGradient id="linearGradient1216" x1="67.568" x2="96.568" y1="18.977" y2="18.977" gradientUnits="userSpaceOnUse" xlink:href="#linearGradient1206"/>
<linearGradient id="linearGradient1152" x1="41.595" x2="47.46" y1="30.491" y2="31.483" gradientTransform="translate(25.517 2.015)" gradientUnits="userSpaceOnUse" xlink:href="#linearGradient1150"/>
<linearGradient id="linearGradient1150">
<stop stop-color="#8d6420" offset="0"/>
<stop stop-color="#a77d35" offset="1"/>
</linearGradient>
<linearGradient id="linearGradient1152-6" x1="41.595" x2="47.46" y1="30.491" y2="31.483" gradientTransform="translate(40.722 1.2997)" gradientUnits="userSpaceOnUse" xlink:href="#linearGradient1150"/>
<linearGradient id="linearGradient1282" x1="70.568" x2="70.568" y1="21" y2="3" gradientTransform="translate(12.5)" gradientUnits="userSpaceOnUse">
<stop stop-color="#d3a00f" offset="0"/>
<stop stop-color="#fc6" offset=".5"/>
<stop stop-color="#ff9" offset="1"/>
</linearGradient>
<linearGradient id="linearGradient1224" x1="78.568" x2="78.568" y1="2" y2="21" gradientUnits="userSpaceOnUse" xlink:href="#linearGradient1206"/>
<linearGradient id="linearGradient1367" x1="53.068" x2="53.068" y1="74.257" y2="64.257" gradientTransform="translate(32.105 -36.757)" gradientUnits="userSpaceOnUse">
<stop stop-color="#daa943" offset="0"/>
<stop stop-color="#817a69" offset="1"/>
</linearGradient>
<filter id="filter894" x="-.15435" y="-.10207" width="1.3087" height="1.2041" color-interpolation-filters="sRGB">
<feGaussianBlur stdDeviation="10.292057"/>
</filter>
</defs>
<g transform="translate(-12.568)">
<path d="m151.14 14.018c-0.74619 0.02449-1.4849 0.07502-2.2148 0.15039-13.9 1.4353-25.604 5.1565-34.041 10.633-8.4372 5.4763-13.729 12.972-13.729 21.482v18.543c0 1.3796 0.64798 2.8001 1.5879 3.6777 0.93992 0.87764 2.0303 1.3122 3.1152 1.5723 2.1699 0.5201 4.5075 0.37905 6.8476-0.06445 2.3402-0.44351 4.6418-1.2136 6.5762-2.3516 1.9344-1.1379 3.9473-2.8046 3.9473-5.5938v-13.023c0-1.0501 0.35509-1.7696 1.4395-2.7227 1.0844-0.95305 2.9187-1.9232 5.2188-2.7344 4.6001-1.6224 10.96-2.655 16.848-3.4961 8.6258-1.2323 18.033 2.5279 25.232 8.6777 7.1997 6.1498 11.961 14.59 11.961 21.699v8.8203c-16.732 1.5005-35.302 5.0286-52.477 9.834-13.23 3.7018-25.608 8.1632-35.654 13.107-10.046 4.9442-17.812 10.248-21.791 16.404a2.7594 2.7594 0 0 0-0.44141 1.498v104.85c0 5.6715 3.7969 12.426 8.5 18.576 2.3516 3.0751 4.9694 5.8955 7.6797 8.0352 2.6101 2.0606 5.3065 3.6062 8.3086 3.7188 20.308 2.8847 52.034-3.4938 79.859-12.885 13.923-4.6991 26.808-10.174 36.691-15.777s17.022-10.949 18.883-17.463a2.7594 2.7594 0 0 0 0.10546-0.75976v-104.8a2.7594 2.7594 0 0 0 0-0.0488 2.7591 2.7591 0 0 0-0.0137-0.27929c-0.0726-2.247-0.9999-4.35-2.3203-6.7363-1.3753-2.4855-3.2656-5.1448-5.5078-7.6641-4.4845-5.0386-10.288-9.7119-16.807-10.146-0.95809-0.06387-1.9516-0.10222-2.9434-0.14258v-19.176c0-12.408-8.8952-24.095-20.197-32.564-9.8894-7.4104-21.766-12.499-32.404-12.848-0.75988-0.02491-1.5136-0.02645-2.2598-2e-3z" filter="url(#filter894)" opacity=".83"/>
<g transform="matrix(5.5182 0 0 5.5182 -313.29 -6.9979)">
<path d="m68.068 20.5v19c0 1.5 2.5 5 4 5v-20c-1.131-0.31087-3.4561-3.0983-4-4z" fill="url(#linearGradient1327)"/>
<path d="m72.068 24.5v20c7 1 23-4.5 24-8v-19" fill="url(#linearGradient1319)"/>
<g fill="none">
<path d="m96.068 19c-2.1333 1.6271-16.5 6.5-23 6.5v19" stroke="url(#linearGradient1341)" stroke-width="1.5"/>
<path d="m68.068 20.5v19c0 1.5 2.5 5 4 5" stroke="#d09d07" stroke-width="1px"/>
<path d="m72.068 24.5v20c7 1 23-4.5 24-8v-19" stroke="url(#linearGradient1208)" stroke-linecap="round" stroke-linejoin="round" stroke-width="1px"/>
</g>
<g>
<g stroke-linecap="round" stroke-linejoin="round">
<path d="m72.068 24.5c-1 0-3.5-2.5-4-4 2.5-3.8679 16.5-7.5 24-7 1.8814 0.12543 4 3 4 4-1.1547 2-15.667 7-24 7z" fill="url(#linearGradient1300)" stroke="url(#linearGradient1216)" stroke-width="1px"/>
<ellipse transform="rotate(-9.5941)" cx="69.977" cy="33.498" rx="3.0142" ry="1.814" fill="url(#linearGradient1152)" fill-rule="evenodd" stroke-width="5"/>
<ellipse transform="rotate(-9.5941)" cx="85.182" cy="32.782" rx="3.127" ry="1.814" fill="url(#linearGradient1152-6)" fill-rule="evenodd" stroke-width="5"/>
<path d="m76.068 9.9776v-2.3602c0-1.3772 2.5447-1.811 4.6891-2.1174 3.5-0.5 7.3109 3 7.3109 6v7c0 1 3 0 3-1v-8c0-4-5.9631-8.1005-9.7919-7.7052-4.9178 0.50779-8.2081 2.6484-8.2081 5.3226v3.3602c0 1 3 0.36287 3-0.5z" fill="url(#linearGradient1282)" stroke="url(#linearGradient1224)" stroke-width="1px"/>
</g>
<path d="m86.568 26.724-2.5 0.77616v3.5c-1.0617 0.47721-1.6692 1.326-1.5098 2.1094 0.1237 0.60532 0.68922 1.0794 1.5098 1.2656v3.625l2.5-0.73661v-3.1814c1.0354-0.48218 1.621-1.3187 1.4629-2.0898-0.1215-0.59274-0.667-1.0603-1.4629-1.2539v-0.20703z" fill="url(#linearGradient1367)"/>
</g>
</g>
</g>
</svg>
