<svg version="1.1" viewBox="0 0 256 256" xmlns="http://www.w3.org/2000/svg"><defs><filter id="filter924" x="-.048" y="-.048" width="1.096" height="1.096" color-interpolation-filters="sRGB"><feGaussianBlur stdDeviation="4.8"/></filter></defs><g transform="translate(-12.568)"><path d="m137.57 4c-9.4971 0-17.143 7.6454-17.143 17.143v54.502a51.429 51.429 0 0 0-4.9805 1.9883l-34.445-34.445c-6.7155-6.7155-17.529-6.7155-24.244 0s-6.7155 17.529 0 24.244l34.445 34.445a51.429 51.429 0 0 0-1.9883 4.9805h-54.502c-9.4971 0-17.143 7.6454-17.143 17.143s7.6454 17.143 17.143 17.143h54.502a51.429 51.429 0 0 0 1.9883 4.9805l-34.445 34.445c-6.7155 6.7155-6.7155 17.529 0 24.244s17.529 6.7155 24.244 0l34.445-34.445a51.429 51.429 0 0 0 4.9805 1.9883v54.502c0 9.4971 7.6454 17.143 17.143 17.143s17.143-7.6454 17.143-17.143v-54.502a51.429 51.429 0 0 0 4.9805-1.9883l34.445 34.445c6.7155 6.7155 17.529 6.7155 24.244 0s6.7155-17.529 0-24.244l-34.445-34.445a51.429 51.429 0 0 0 1.9883-4.9805h54.502c9.4971 0 17.143-7.6454 17.143-17.143s-7.6454-17.143-17.143-17.143h-54.375a51.429 51.429 0 0 0-2.0781-5.0176l34.408-34.408c6.7155-6.7155 6.7155-17.529 0-24.244s-17.529-6.7155-24.244 0l-34.408 34.408a51.429 51.429 0 0 0-5.0176-2.0781v-54.375c0-9.4971-7.6454-17.143-17.143-17.143z" fill="#212121" filter="url(#filter924)"/><g transform="matrix(43.195 0 0 43.195 161.14 -114.29)"><g fill="#f30"><rect transform="rotate(90)" x="2.6458" y=".26458" width="5.5563" height=".79375" rx=".39687" ry=".39687"/><rect transform="rotate(45)" x=".72176" y="3.9062" width="5.2917" height=".79375" rx=".39687" ry=".39687"/><rect x="-3.4396" y="5.0271" width="5.5563" height=".79375" rx=".39687" ry=".39687"/><rect transform="matrix(-.70711 .70711 .70711 .70711 0 0)" x="1.6572" y="2.9707" width="5.2917" height=".79375" rx=".39687" ry=".39687"/></g><g transform="translate(-1.1906)"><circle cx=".52917" cy="5.424" r="1.1906" fill="#fc0"/><circle cx=".52917" cy="5.424" r=".39687" fill="#ff9"/></g></g></g></svg>
