<svg version="1.1" viewBox="0 0 256 256" xml:space="preserve" xmlns="http://www.w3.org/2000/svg" xmlns:xlink="http://www.w3.org/1999/xlink"><defs><linearGradient id="linearGradient1813" x1="84.403" x2="84.403" y1="58.334" y2="119.73" gradientUnits="userSpaceOnUse"><stop stop-color="#00b1e5" offset="0"/><stop stop-color="#00b1e5" stop-opacity="0" offset="1"/></linearGradient><linearGradient id="linearGradient2714" x1="133.52" x2="133.52" y1="139.16" y2="117.33" gradientUnits="userSpaceOnUse"><stop stop-color="#95ca66" offset="0"/><stop stop-color="#95ca66" stop-opacity="0" offset="1"/></linearGradient><linearGradient id="linearGradient3639" x1="154.98" x2="210.87" y1="116.49" y2="116.49" gradientUnits="userSpaceOnUse"><stop stop-color="#fed142" offset="0"/><stop stop-color="#fed142" stop-opacity="0" offset="1"/></linearGradient><linearGradient id="linearGradient4372" x1="231.1" x2="231.1" y1="58.146" y2="92.611" gradientUnits="userSpaceOnUse"><stop stop-color="#f15e3c" offset="0"/><stop stop-color="#f15e3c" stop-opacity="0" offset="1"/></linearGradient></defs><g transform="matrix(1.25 0 0 -1.25 -759.14 -68.266)"><g transform="matrix(.84104 0 0 .84104 96.2 -59.639)"><path transform="matrix(.8 0 0 -.8 607.31 -54.613)" d="m213.67 93.434h34.941v-35.744h-34.941z" fill="url(#linearGradient4372)"/><path d="m798.8-60.355c1.6712 0 3.0795-1.4294 3.0795-3.1218 0-1.7347-1.3959-3.1324-3.1218-3.1324-1.7453 0-3.1324 1.3977-3.1324 3.1536 0 0.75002 0.29648 1.5018 0.80473 2.063 0.62472 0.68825 1.4188 1.0377 2.37 1.0377m0.0177 0.51707c-2.0524 0-3.7042-1.6077-3.7042-3.6177 0-2.0436 1.6183-3.6724 3.6513-3.6724 2.01 0 3.6407 1.6289 3.6407 3.6513 0 1.9783-1.6306 3.6389-3.5877 3.6389m-1.0059-3.4695v1.4065h1.1647c0.47648 0 0.77296-0.25412 0.77296-0.66531 0-0.45531-0.31766-0.7412-0.84708-0.7412zm2.6665-2.2977-0.87708 1.9377c0.51884 0.18 0.81531 0.58237 0.81531 1.0906 0 0.70766-0.59295 1.2053-1.44 1.2053h-1.7877v-4.2336h0.62295v1.8h1.1647l0.80472-1.8z" fill="#231f20" fill-rule="evenodd"/><g><path transform="matrix(.8 0 0 -.8 607.31 -54.613)" d="m210.87 139.78v-46.59h-55.887v46.59z" fill="url(#linearGradient3639)"/><path transform="matrix(.8 0 0 -.8 607.31 -54.613)" d="m150.15 116.97h-37.36v22.943h50.295" fill="url(#linearGradient2714)"/><path transform="matrix(.8 0 0 -.8 607.31 -54.613)" d="m111.47 57.32-40.148-0.14505-13.826 14.056-4.7921-13.911v63.205h58.766c-2.3448-2.6554 0-60.926 0-63.205z" fill="url(#linearGradient1813)"/></g><g fill="#231f20"><path d="m667.02-81.585v26.027h-4.7613l-7.6872-20.798-7.8037 20.798h-4.8372v-26.027h2.7707v22.709l8.5043-22.709h2.2254l8.4284 22.709v-22.709z"/><path d="m676.64-55.558h-3.2383v-3.316h3.2383zm-0.11647-6.789h-3.0054v-19.236h3.0054z" fill-rule="evenodd"/><path d="m693.91-74.835c-0.62472-3.1607-2.2624-4.7984-4.6836-4.7984-3.1995 0-5.0719 2.8871-5.0719 7.7261 0 4.6819 1.9518 7.6078 5.1107 7.6078 2.5765 0 4.1366-1.5618 4.6448-4.7595l2.693 0.50648c-0.78178 4.3695-3.3566 6.7113-7.2972 6.7113-4.9942 0-8.2731-4.0589-8.2731-10.146 0-6.1254 3.1995-10.105 8.1161-10.105 2.1459 0 3.826 0.66354 5.1901 2.0665 1.2477 1.2494 1.7948 2.3806 2.2642 4.7225z"/><path d="m703.9-81.585v10.184c0.0776 4.096 2.8483 6.9849 6.4784 6.6708v2.8501c-0.4306 0.03882-0.85943 0.07765-1.133 0.07765-1.4436 0-2.8871-0.66355-3.7448-1.6783-0.70237-0.85767-1.0536-1.4436-1.9906-3.3548v4.4878h-2.6136v-19.238z"/><path d="m720.15-64.299c1.6006 0 3.1218-0.78002 4.0978-2.0683 0.93708-1.3271 1.3659-3.0813 1.3659-5.5801 0-4.8372-1.9906-7.6855-5.386-7.6855-3.3936 0-5.3454 2.8095-5.3454 7.7649 0 2.3401 0.46766 4.2142 1.3271 5.4619 0.85767 1.2494 2.4583 2.1071 3.9407 2.1071m0.31236 2.4583c-2.8095 0-4.9942-1.0147-6.7502-3.1995-1.4047-1.7171-2.1071-4.0183-2.1071-6.8666 0-2.693 0.62472-4.9572 1.9112-6.8296 1.5618-2.2624 3.6689-3.3548 6.4784-3.3548 5.229 0 8.8961 4.1348 8.8961 10.027 0 6.0866-3.4342 10.223-8.4284 10.223" fill-rule="evenodd"/><path d="m730.92-76.591c0.46766-1.6765 0.97414-2.4971 1.9889-3.3548 1.6394-1.4436 3.8242-2.1459 6.5543-2.1459 4.7613 0 7.922 2.3789 7.922 5.8907 0 3.1218-1.9112 4.9942-5.8519 5.6966l-3.7854 0.66354c-2.0683 0.39178-3.0036 1.2494-3.0036 2.7318 0 1.6783 1.6765 2.8095 4.1348 2.8095 2.4583 0 4.0183-0.93708 4.9166-3.0054l2.7301 0.5859c-0.93532 3.1995-3.5489 4.8778-7.569 4.8778-4.3695 0-7.2584-2.2642-7.2584-5.6578 0-2.7318 1.913-4.6819 5.1901-5.3066l4.0589-0.74119c2.1848-0.42883 3.316-1.4047 3.316-2.9665 0-1.8724-1.8336-3.1201-4.486-3.1201-1.8742 0-3.6301 0.54531-4.7613 1.4436-0.62472 0.50648-0.93708 1.0924-1.2477 2.1848z"/><path d="m758.81-64.299c1.6006 0 3.1218-0.78002 4.0977-2.0683 0.93532-1.3271 1.3659-3.0813 1.3659-5.5801 0-4.8372-1.9906-7.6855-5.3842-7.6855-3.3954 0-5.3472 2.8095-5.3472 7.7649 0 2.3401 0.46943 4.2142 1.3271 5.4619 0.85944 1.2494 2.4583 2.1071 3.9407 2.1071m0.31236 2.4583c-2.8095 0-4.9942-1.0147-6.7502-3.1995-1.4047-1.7171-2.1071-4.0183-2.1071-6.8666 0-2.693 0.62472-4.9572 1.9112-6.8296 1.5618-2.2624 3.6689-3.3548 6.4784-3.3548 5.229 0 8.8961 4.1348 8.8961 10.027 0 6.0866-3.4342 10.223-8.4284 10.223" fill-rule="evenodd"/><g><path d="m780.16-62.347h-4.6801c0 2.1053 0 2.2236 0.34942 3.0813 0.42883 1.2106 1.7171 1.8353 3.6301 1.8353 0.62295 0 1.0147-0.04059 1.8318-0.2753v2.4212c-1.3642 0.19412-2.0277 0.27177-2.8854 0.27177-2.4583 0-4.4101-1.17-5.0736-3.0424-0.42883-1.133-0.54531-1.913-0.62296-4.2919h-3.3954v-2.3436h3.3954v-16.894h2.7707v16.894h4.6801z"/><path d="m793.81-79.517c-1.0536-0.19589-1.6006-0.23471-2.3012-0.23471-2.0683 0-3.1236 1.0147-3.1236 3.0054v12.055h4.3325v2.3436h-4.3325v5.0719l-2.8077-0.23471-0.11647-4.8372h-3.3954v-2.3436h3.3954v-11.587c0-3.863 1.8724-5.8519 5.5007-5.8519 0.89826 0 1.5212 0.03882 2.8483 0.23295z"/><path d="m607.71-166.16c0 5.7337 4.6466 10.382 10.38 10.382s10.38-4.6484 10.38-10.382c0-5.7319-4.6466-10.378-10.38-10.378s-10.38 4.6466-10.38 10.378"/><path d="m705.62-176.01h-11.789v55.078c0 13.096-5.8925 20.138-16.698 20.138-13.098 0-22.594-11.787-22.594-27.668v-47.548h-12.607v84.786h11.624v-15.791c8.3508 12.77 14.736 17.026 25.868 17.026 10.315 0 19.319-5.566 23.575-14.572 1.8018-4.0925 2.6207-10.149 2.6207-21.611v-40.351h24.569c-7.6325 7.4031-12.076 18.682-12.076 32.452 0 25.377 15.389 42.894 37.492 42.894 0.62825 0 1.2512-0.01765 1.8689-0.04412h48.216l-1e-3 18.715 12.286 0.48531v-19.2h20.06v-9.5561h-20.06v-52.941c0-8.349 4.4189-12.606 13.096-12.606 2.9471 0 5.2395 0.16236 9.6602 0.9812v-9.9867c-5.566-0.81885-8.1867-0.98297-11.951-0.98297-15.226 0-23.085 8.3508-23.085 24.558v50.977h-26.034c2.7301-2.7654 5.0031-6.0813 6.7255-9.8808 3.1112-6.8772 4.2566-13.426 4.4207-24.068h-58.777c0-9.4961 0.81884-13.753 3.2754-18.828 3.6018-7.3678 11.951-12.279 20.628-12.279 10.315 0 17.028 4.9113 21.775 15.881l11.624-2.4565c-5.2395-14.898-17.845-23.739-34.217-23.739-1.1736 0-2.3242 0.0477-3.4554 0.14118h-46.039zm27.064 50.617h44.368c-0.32648 15.224-8.349 24.556-21.283 24.556-7.0414 0-12.934-2.9454-17.355-8.3508-3.6018-4.5831-4.9131-8.5132-5.7301-16.206"/><path d="m843.06-97.079v5.2166h1.6765v0.6406h-4.0819v-0.6406h1.6765v-5.2166z"/><path d="m851.22-97.079v5.8572h-1.0712l-1.7295-4.6801-1.7559 4.6801h-1.0888v-5.8572h0.62472v5.1107l1.913-5.1107h0.50119l1.8953 5.1107v-5.1107z"/></g></g></g></g></svg>
