<svg version="1.1" viewBox="0 0 256 256" xmlns="http://www.w3.org/2000/svg" xmlns:xlink="http://www.w3.org/1999/xlink"><defs><linearGradient id="linearGradient2474" x1="-17.67" x2="-17.702" y1="6.4752" y2="2.6077" gradientTransform="translate(-3.3116 -.27276)" gradientUnits="userSpaceOnUse"><stop stop-color="#edba42" offset="0"/><stop stop-color="#ff9" offset="1"/></linearGradient><linearGradient id="linearGradient2476" x1="-8.9787" x2="-8.9787" y1="9.2108" y2="4.7845" gradientTransform="translate(11.85 -7.3241)" gradientUnits="userSpaceOnUse"><stop stop-color="#ffd56f" offset="0"/><stop stop-color="#fffe98" offset=".5"/><stop stop-color="#ffffe0" offset="1"/></linearGradient><linearGradient id="linearGradient1048" x1="-5.9531" x2="-10.716" y1="12.039" y2="10.716" gradientTransform="matrix(20.146 0 0 20.146 329.5 -56.351)" gradientUnits="userSpaceOnUse"><stop stop-color="#159a0c" offset="0"/><stop stop-color="#8cf25a" offset="1"/></linearGradient><linearGradient id="linearGradient1832-9" x1="111.77" x2="103.17" y1="84.562" y2="73.317" gradientTransform="translate(-88.663 -72.964)" gradientUnits="userSpaceOnUse"><stop stop-color="#9cf" offset="0"/><stop stop-color="#fff" offset="1"/></linearGradient><linearGradient id="linearGradient1846-0" x1="7.1438" x2="8.7312" y1="2.5135" y2="2.5135" gradientTransform="translate(13.67 11.123)" gradientUnits="userSpaceOnUse"><stop stop-color="#ddd" offset="0"/><stop stop-color="#9cf" offset="1"/></linearGradient><linearGradient id="linearGradient1836-6" x1="8.9958" x2="8.3344" y1="-8.9076" y2="-9.5691" gradientTransform="translate(13.67 10.583)" gradientUnits="userSpaceOnUse"><stop stop-color="#2da8ff" offset="0"/><stop stop-color="#74c0ff" offset="1"/></linearGradient><linearGradient id="linearGradient1848-7" x1="8.8635" x2="8.8635" y1="2.6458" y2="11.377" gradientTransform="translate(13.244 10.364)" gradientUnits="userSpaceOnUse"><stop stop-color="#9fa0ff" offset="0"/><stop stop-color="#cbcaff" offset="1"/></linearGradient><linearGradient id="linearGradient1854-2" x1="1.2788" x2="7.4524" y1="-10.01" y2="-10.01" gradientTransform="translate(13.67 10.952)" gradientUnits="userSpaceOnUse"><stop stop-color="#fff" offset="0"/><stop stop-color="#ddd" offset="1"/></linearGradient><linearGradient id="linearGradient1842-9" x1="7.6729" x2="7.6729" y1="-8.4667" y2="-10.231" gradientTransform="translate(13.273 10.583)" gradientUnits="userSpaceOnUse"><stop stop-color="#6983b6" offset="0"/><stop stop-color="#7ca0d3" offset="1"/></linearGradient><linearGradient id="linearGradient1850-6" x1=".83785" x2="8.9958" y1=".79375" y2=".79375" gradientTransform="translate(13.06 10.163)" gradientUnits="userSpaceOnUse"><stop stop-color="#ccccf2" offset="0"/><stop stop-color="#ccf" offset="1"/></linearGradient><linearGradient id="linearGradient1852-9" x1="1.0583" x2="1.0583" y1=".57326" y2="-9.7896" gradientTransform="translate(14.04 10.583)" gradientUnits="userSpaceOnUse"><stop stop-color="#ccc" offset="0"/><stop stop-color="#fff" offset="1"/></linearGradient><linearGradient id="linearGradient1834-9" x1="111.77" x2="103.17" y1="84.562" y2="73.317" gradientTransform="translate(-88.663 -72.964)" gradientUnits="userSpaceOnUse"><stop stop-color="#343467" offset="0"/><stop stop-color="#99cbfe" offset="1"/></linearGradient><filter id="filter1049" x="-.12221" y="-.12355" width="1.2444" height="1.2471" color-interpolation-filters="sRGB"><feGaussianBlur stdDeviation="11.376534"/></filter></defs><g transform="translate(-12.568)"><path d="m71.046 21.173a5.0005 5.0005 0 0 0-5 5v17.908l-14.672 1.4668a5.0005 5.0005 0 0 0-3.873 2.5469l-13.326 23.986a5.0005 5.0005 0 0 0-0.62109 2.6875l7.9941 154.58a5.0005 5.0005 0 0 0 6.207 4.5918l126.85-31.713v39.936l81.936-72.48-25.201-21.324 25.137-53.227a5.0005 5.0005 0 0 0-0.0488-4.3711l-5.3301-10.66a5.0005 5.0005 0 0 0-5.2324-2.707l-36.623 5.6348-0.45703-21.947a5.0005 5.0005 0 0 0-1.4629-3.4316l-5.3301-5.3301a5.0005 5.0005 0 0 0-4.2188-1.416l-12.988 1.791v-2.5332a5.0005 5.0005 0 0 0-1.4648-3.5352l-23.986-23.986a5.0005 5.0005 0 0 0-3.5352-1.4648z" filter="url(#filter1049)" opacity=".83"/><g transform="translate(-11.317 -13.757)"><g stroke-width=".49638"><g transform="matrix(20.146 0 0 20.146 536.54 26.156)"><path d="m-17.014 1.3628-3.8365 0.52917-0.79375-1.0583-2.6458 0.26458-0.66146 1.1906 0.39688 7.6729 7.9375-1.9844-0.13229-6.35z" fill="url(#linearGradient2474)"/><path d="m-16.867 1.8021-4.0971 0.54578-0.80852-1.0448-2.2133 0.2251-0.53754 0.93018 0.38686 7.2925" fill="none" stroke="#fff9ec" stroke-linecap="round" stroke-width=".49638"/><path d="m-17.014 1.3628-3.8365 0.52917-0.79375-1.0583-2.6458 0.26458-0.66146 1.1906 0.39688 7.6729 7.9375-1.9844-0.13229-6.35z" fill="none" stroke="#c90" stroke-linejoin="round" stroke-width=".49638"/></g><g transform="matrix(20.146 0 0 20.146 316.89 21.265)"><g transform="matrix(.6 0 0 .6 -21.008 .052917)" stroke-width=".82729"><path d="m14.288 0.13229h7.0115l1.9844 2.1167v9.525h-8.9958z" fill="url(#linearGradient1832-9)" style="paint-order:normal"/><path d="m20.545 3.3175h2.5622" fill="none" stroke="url(#linearGradient1846-0)" stroke-width=".82729"/><path d="m21.167 0.13229v2.1167l2.1167-0.13229-1.8521-1.9844z" fill="url(#linearGradient1836-6)"/><g stroke-width=".82729"><path d="m22.46 2.3387v8.2242" fill="none" stroke="url(#linearGradient1848-7)"/><path d="m20.534 2.5156h2.7934" fill-opacity="0" stroke="#667eb1"/><path d="m21.123 0.94199h-6.6146" fill="#e8ebee" stroke="url(#linearGradient1854-2)"/><path d="m20.946 0.35278v1.7639" fill="#7494c7" stroke="url(#linearGradient1842-9)"/></g><g fill="none" stroke-width=".82729"><path d="m15.098 11.157v-10.363" stroke="url(#linearGradient1852-9)"/><path d="m22.056 10.957h-8.158" stroke="url(#linearGradient1850-6)"/><path d="m14.288 0.13229h7.0115l1.9844 1.9844v9.6573h-8.9958z" stroke="url(#linearGradient1834-9)" stroke-linejoin="round" style="paint-order:normal"/></g></g></g><g transform="matrix(20.146 0 0 20.146 63.376 152.05)"><path d="m0.39687-1.1906 0.79375-0.52917 2.1167-0.26458 1.0583-0.79375 1.0583-0.26458 3.4396-0.52917 0.26458 0.52917-2.249 4.7625-7.9375 1.9844z" fill="url(#linearGradient2476)"/><g fill="none" stroke-width=".49638"><path d="m6.7788-2.9991 0.1004 4.7189" stroke="#fc6"/><path d="m9.0305-3.1888-3.4459 0.59835-0.98575 0.24172-1.018 0.7908-2.1559 0.24187-0.67751 0.45017-1.3009 4.4703" stroke="#fff9ec"/><path d="m0.39687-1.1906 0.79375-0.52917 2.1167-0.26458 1.0583-0.79375 1.0583-0.26458 3.4396-0.52917 0.26458 0.52917-2.249 4.7625-7.9375 1.9844z" stroke="#c90" stroke-linejoin="round"/></g></g></g><path d="m102.96 151.53h71.959v-42.642l69.294 58.633-69.294 61.298v-37.312h-71.959z" fill="url(#linearGradient1048)" stroke="#418924" stroke-width="10"/></g></g></svg>
