<svg version="1.1" viewBox="0 0 256 256" xmlns="http://www.w3.org/2000/svg" xmlns:xlink="http://www.w3.org/1999/xlink">
<defs>
<linearGradient id="linearGradient1119">
<stop stop-color="#4686fe" offset="0"/>
<stop stop-color="#77a3fe" stop-opacity="0" offset="1"/>
</linearGradient>
<linearGradient id="linearGradient879">
<stop stop-color="#71a8fc" offset="0"/>
<stop stop-color="#004db0" offset="1"/>
</linearGradient>
<linearGradient id="linearGradient986">
<stop stop-color="#fff" offset="0"/>
<stop stop-color="#d9e7ff" offset=".5"/>
<stop stop-color="#659bff" offset="1"/>
</linearGradient>
<linearGradient id="linearGradient980" x1="151.62" x2="156.43" y1="153.66" y2="158.32" gradientUnits="userSpaceOnUse" xlink:href="#linearGradient879"/>
<radialGradient id="radialGradient990" cx="153.03" cy="154.38" r="4" gradientTransform="matrix(.78382 .77387 -.70258 .71161 141.44 -73.334)" gradientUnits="userSpaceOnUse" xlink:href="#linearGradient986"/>
<linearGradient id="linearGradient1146" x1="162.51" x2="181.38" y1="151.36" y2="161.69" gradientUnits="userSpaceOnUse" xlink:href="#linearGradient986"/>
<linearGradient id="linearGradient1158" x1="155.07" x2="162.57" y1="156" y2="156" gradientUnits="userSpaceOnUse">
<stop stop-color="#6ea7ff" offset="0"/>
<stop stop-color="#004db0" offset="1"/>
</linearGradient>
<linearGradient id="linearGradient1180" x1="161.57" x2="182.57" y1="156.5" y2="156.5" gradientUnits="userSpaceOnUse" xlink:href="#linearGradient879"/>
<linearGradient id="linearGradient1216" x1="181.57" x2="180.07" y1="156" y2="156" gradientUnits="userSpaceOnUse" xlink:href="#linearGradient1119"/>
<linearGradient id="linearGradient1216-6" x1="181.86" x2="180.07" y1="156" y2="156" gradientTransform="rotate(90,172.32,152.25)" gradientUnits="userSpaceOnUse" xlink:href="#linearGradient1119"/>
<filter id="filter1427" x="-.086049" y="-.21483" width="1.1721" height="1.4297" color-interpolation-filters="sRGB">
<feGaussianBlur stdDeviation="8.6049501"/>
</filter>
<linearGradient id="linearGradient1090">
<stop stop-color="#ccc" offset="0"/>
<stop stop-color="#6c6c6c" offset=".5"/>
<stop stop-color="#aeaeae" offset="1"/>
</linearGradient>
<radialGradient id="radialGradient1007" cx="41.694" cy="24.958" r="14.862" gradientTransform="matrix(.86771 -.74222 .83567 .97695 -7.3399 31.446)" gradientUnits="userSpaceOnUse">
<stop stop-color="#fff" offset="0"/>
<stop stop-color="#d9ffff" offset=".61435"/>
<stop stop-color="#a3d6ff" offset="1"/>
</radialGradient>
<linearGradient id="linearGradient1038" x1="-33.432" x2="-27.932" y1="16.5" y2="22.5" gradientTransform="translate(-13,8)" gradientUnits="userSpaceOnUse" xlink:href="#linearGradient1090"/>
<linearGradient id="linearGradient1058" x1="-4.4323" x2="1.5677" y1="32.5" y2="38.5" gradientTransform="translate(-51)" gradientUnits="userSpaceOnUse">
<stop stop-color="#fdb562" offset="0"/>
<stop stop-color="#ffc761" offset=".25"/>
<stop stop-color="#b56a49" offset=".625"/>
<stop stop-color="#9b94c0" offset="1"/>
</linearGradient>
<linearGradient id="linearGradient1072" x1="-34.932" x2="-30.432" y1="40.5" y2="45.5" gradientTransform="translate(-27)" gradientUnits="userSpaceOnUse" xlink:href="#linearGradient1090"/>
<linearGradient id="linearGradient1124" x1="44.315" x2="27.815" y1="27" y2="4.5" gradientTransform="translate(6.348)" gradientUnits="userSpaceOnUse">
<stop stop-color="#6a6a9d" offset="0"/>
<stop stop-color="#8585b4" offset="1"/>
</linearGradient>
<filter id="filter1716" x="-.12241" y="-.12335" width="1.2448" height="1.2467" color-interpolation-filters="sRGB">
<feGaussianBlur stdDeviation="8.5677605"/>
</filter>
</defs>
<g transform="translate(0 -37.939)">
<path d="m112.42 92.961c-10.603 0-19.291 8.6903-19.291 19.293v17.82h-19.883c-3.3007-13.025-15.145-22.727-29.164-22.727-16.556 0-30.082 13.526-30.082 30.082s13.526 30.082 30.082 30.082c14.019 0 25.863-9.7005 29.164-22.725h19.883v25.014c0 10.603 8.6883 19.291 19.291 19.291h122.29c10.603 0 19.291-8.6883 19.291-19.291v-57.547c0-10.603-8.6883-19.293-19.291-19.293z" color="#000000" filter="url(#filter1427)" opacity=".83" style="-inkscape-stroke:none"/>
<g transform="matrix(7.1935 0 0 7.1935 -1078.2 -998.75)">
<path d="m162.57 156h-7.5" fill="none" stroke="url(#linearGradient1158)" stroke-width="2.0454"/>
<rect x="161.57" y="150.5" width="21" height="12" rx="2" ry="2" fill="url(#linearGradient1146)" fill-rule="evenodd"/>
<g stroke-linecap="round">
<circle cx="154.07" cy="156" r="3.5" fill="url(#radialGradient990)" fill-rule="evenodd" stroke="url(#linearGradient980)" stroke-linejoin="round" stroke-width="1.3636"/>
<path d="m181.07 161.07v-9.0721" fill="none" stroke="url(#linearGradient1216)" stroke-width="2.7273"/>
<path d="m162.97 161h18.286" fill="#afcaff" stroke="url(#linearGradient1216-6)" stroke-width="2.7273"/>
<rect x="161.57" y="150.5" width="21" height="12" rx="2" ry="2" fill="none" stroke="url(#linearGradient1180)" stroke-linejoin="round" stroke-width="1.3636"/>
</g>
</g>
</g>
<path d="m180.79 89.52c-30.325 0-54.948 24.623-54.948 54.948 1e-5 7.54 1.5249 14.727 4.2786 21.271-0.32785 5.0191-0.42099 14.219 0.11115 18.486-2.9017-0.26113-6.2934-0.39626-9.0446 0.61601l-2.3154-2.5082-51.115 51.115 1.3592 1.3592c-1.0365 3.5627-2.231 12.879 2.4265 17.572 5.1872 5.2269 13.273 4.1156 17.608 2.4627l1.3244 1.3244 51.115-49.223-1.1155-1.2079c1.1113-2.4909 1.1155-6.9804 1.1155-10.151 6.4508 1.2911 14.134 0.94842 20.575 0.58253 5.818 2.0994 12.087 3.2501 18.625 3.2501 29.686 0 53.846-23.614 54.854-53.056h0.0951v-3.7858h-0.0951c-1.0074-29.442-25.168-53.056-54.854-53.056z" filter="url(#filter1716)" opacity=".83"/>
<g transform="matrix(3.7864 0 0 3.7864 4.3642 71.835)">
<g transform="translate(74.979)">
<path d="m-45.418 20.586c-0.11939 1.0676-0.17708 4.1121-0.01478 5.4135-1.0009-0.09007-2.2233-0.12586-3 0.5l5.5 5.5c0.5-0.5 0.5-2 0.5-3 1.9293 0.38616 4.3026 0.21991 6.1103 0.11684z" fill="url(#linearGradient1038)"/>
<path d="m-61.432 39c-0.23842 0.30889-0.96444 3.5244 0.5 5 1.5241 1.5358 4 1 5 0.5z" fill="url(#linearGradient1072)"/>
<path d="m-60.932 40 4 4" fill="none" stroke="#646365" stroke-linecap="round" stroke-width="1px"/>
<path d="m-48.432 25.5 6 6.5-13.5 13-6-6z" fill="url(#linearGradient1058)"/>
</g>
<g transform="translate(.70898)">
<g transform="matrix(.97562 0 0 .97562 .67522 .024384)">
<circle cx="42.553" cy="15.862" r="14.362" fill="url(#radialGradient1007)" fill-rule="evenodd" stroke="url(#linearGradient1124)" stroke-linecap="square" stroke-linejoin="round" stroke-width="1.4889"/>
<path d="m42.477 3.8607a12 12 0 0 0-11.891 12 12 12 0 0 0 8.2653 11.403 11.51 11.51 0 0 1-7.3699-10.739 11.51 11.51 0 0 1 11.51-11.51 11.51 11.51 0 0 1 11.51 11.51 11.51 11.51 0 0 1-0.06696 1.236 12 12 0 0 0 0.15115-1.8999 12 12 0 0 0-12-12 12 12 0 0 0-0.10906 0z" fill="#cafdff" fill-rule="evenodd"/>
<g transform="translate(47.723)">
<circle cx="-10.495" cy="9.5625" r="4.4375" fill="none" stroke="#d8f7ff" stroke-linecap="square" stroke-linejoin="round" stroke-width=".5"/>
<circle cx="-12.182" cy="7.75" r="2.75" fill="#fff" fill-rule="evenodd"/>
</g>
</g>
</g>
</g>
</svg>
