<svg version="1.1" viewBox="0 0 16 16" xmlns="http://www.w3.org/2000/svg">
<defs>
<filter id="filter963" x="-.13823" y="-.11059" width="1.2765" height="1.2212" color-interpolation-filters="sRGB">
<feGaussianBlur stdDeviation="0.69118713"/>
</filter>
<linearGradient id="linearGradient32816-3" x1="-28.683" x2="-38.225" y1="21.128" y2="9.0369" gradientUnits="userSpaceOnUse">
<stop stop-color="#9cf" offset="0"/>
<stop stop-color="#fff" offset="1"/>
</linearGradient>
<linearGradient id="linearGradient26952-6" x1="8.0956" x2="7.2706" y1="1.4188" y2=".45848" gradientTransform="matrix(1.5872 0 0 1.5872 -42.561 7.9305)" gradientUnits="userSpaceOnUse">
<stop stop-color="#2da8ff" offset="0"/>
<stop stop-color="#74c0ff" offset="1"/>
</linearGradient>
<linearGradient id="linearGradient57243-7" x1="-31.156" x2="-28.432" y1="10.5" y2="10.5" gradientTransform="translate(0 -.25)" gradientUnits="userSpaceOnUse">
<stop stop-color="#0096fc" offset="0"/>
<stop stop-color="#0068ce" offset="1"/>
</linearGradient>
<linearGradient id="linearGradient33220-5" x1="-30.932" x2="-28.932" y1="11" y2="11" gradientUnits="userSpaceOnUse">
<stop stop-color="#ccd5ff" offset="0"/>
<stop stop-color="#aab3f5" offset="1"/>
</linearGradient>
<linearGradient id="linearGradient19558-3" x1="-27.932" x2="-27.932" y1="21" y2="11.5" gradientUnits="userSpaceOnUse">
<stop stop-color="#a5bdee" offset="0"/>
<stop stop-color="#bac9f4" offset="1"/>
</linearGradient>
<linearGradient id="linearGradient10737-5" x1="-37.932" x2="-28.932" y1="22" y2="22" gradientUnits="userSpaceOnUse">
<stop stop-color="#9dadd9" offset="0"/>
<stop stop-color="#8b8eb8" offset="1"/>
</linearGradient>
<linearGradient id="linearGradient1922-6" x1="-38.932" x2="-38.932" y1="22.025" y2="14.78" gradientUnits="userSpaceOnUse">
<stop stop-color="#6e7bae" offset="0"/>
<stop stop-color="#87a9dc" offset="1"/>
</linearGradient>
</defs>
<path d="m2.9 0.90009v14.499a0.49998 0.49998 0 0 0 0.0625 0.2246 0.49998 0.49998 0 0 0 0.03516 0.05469 0.49998 0.49998 0 0 0 0.12109 0.12304 0.49998 0.49998 0 0 0 0.05664 0.03711 0.49998 0.49998 0 0 0 0.2246 0.06055h11a0.49998 0.49998 0 0 0 0.49998-0.49998v-10.978a0.49998 0.49998 0 0 0-0.01953-0.1621 0.49998 0.49998 0 0 0-2e-3 -0.0059 0.49998 0.49998 0 0 0-0.02344-0.06055 0.49998 0.49998 0 0 0-0.01953-0.03711 0.49998 0.49998 0 0 0-2e-3 -2e-3 0.49998 0.49998 0 0 0-0.01172-0.02344 0.49998 0.49998 0 0 0-0.0098-0.01367 0.49998 0.49998 0 0 0-0.0039-0.0039 0.49998 0.49998 0 0 0-0.04297-0.05274l-2.4823-2.9803a0.49998 0.49998 0 0 0 0-0.00195 0.49998 0.49998 0 0 0-0.0957-0.085933 0.49998 0.49998 0 0 0-0.0039-0.00195 0.49998 0.49998 0 0 0-0.2246-0.08398 0.49998 0.49998 0 0 0-0.0293-0.00391 0.49998 0.49998 0 0 0-0.0293-0.00195z" fill-rule="evenodd" filter="url(#filter963)" opacity=".83" stop-color="#000000" stroke-linecap="round" stroke-linejoin="round"/>
<g transform="translate(41.438 -7.4946)">
<path d="m-38.932 8h8.5041l2.4959 3.1204v10.88h-11z" fill="url(#linearGradient32816-3)" fill-rule="evenodd" stop-color="#000000" stroke-linecap="round" stroke-linejoin="round"/>
<path d="m-31.432 8.1405v2.8595h3.5l-3.0801-2.8595z" fill="url(#linearGradient26952-6)"/>
<path d="m-31.432 10.25h3" fill="none" stroke="url(#linearGradient57243-7)" stroke-width=".5"/>
<path d="m-27.932 11h-3.5" fill="#aab3f5" stroke="url(#linearGradient33220-5)" stroke-width="1px"/>
<g fill="none" stroke-linecap="round" stroke-width="1px">
<path d="m-27.932 22v-11" stroke="url(#linearGradient19558-3)"/>
<path d="m-38.932 22h11" stroke="url(#linearGradient10737-5)"/>
<path d="m-30.432 8h-8.5v14" stroke="url(#linearGradient1922-6)"/>
<path d="m-30.432 8 2.5 3" stroke="#87a9dc"/>
</g>
</g>
<g transform="matrix(.065924 0 0 .065924 -.84961 -.12547)" fill="#6db6ff" stroke-width="2.4933">
<path d="m82.754 81.832v-23.492h-5.4151l-7.5968 5.084v5.2203l7.2461-4.8113h0.35063v17.998h-7.5773v4.6165h20.18v-4.6165z"/>
<path d="m106.97 57.746c-6.7397 0-10.558 5.2788-10.558 14.648 0 9.3693 3.8179 14.648 10.558 14.648 6.7592 0 10.577-5.2788 10.577-14.648 0-9.3693-3.8178-14.648-10.577-14.648zm5.1619 14.648c0 5.617-1.6372 10.071-5.1619 10.071-3.5247 0-5.1424-4.4487-5.1424-10.071s1.7159-10.071 5.1424-10.071c3.4266 0 5.1619 4.4536 5.1619 10.071z"/>
<path d="m79.832 95.042c-6.7397 0-10.558 5.2788-10.558 14.648 0 9.3693 3.8179 14.648 10.558 14.648 6.7592 0 10.577-5.2788 10.577-14.648 0-9.3693-3.8179-14.648-10.577-14.648zm5.1619 14.648c0 5.617-2.3959 10.071-5.1619 10.071-2.766 0-5.1424-4.4487-5.1424-10.071s2.3066-10.071 5.1424-10.071c2.8359 0 5.1619 4.4536 5.1619 10.071z"/>
<path d="m134.1 95.042c-6.7397 0-10.558 5.2788-10.558 14.648 0 9.3693 3.8179 14.648 10.558 14.648 6.7592 0 10.577-5.2788 10.577-14.648 0-9.3693-3.8178-14.648-10.577-14.648zm5.1619 14.648c0 5.617-2.3959 10.071-5.1619 10.071-2.766 0-5.1424-4.4487-5.1424-10.071s2.3066-10.071 5.1424-10.071c2.8359 0 5.1619 4.4536 5.1619 10.071z"/>
<path d="m191.29 81.832v-23.492h-5.4151l-7.5968 5.084v5.2203l7.2461-4.8113h0.35062v17.998h-7.5773v4.6165h20.18v-4.6165z"/>
<path d="m137.02 81.832v-23.492h-5.4151l-7.5968 5.084v5.2203l7.2461-4.8113h0.35062v17.998h-7.5773v4.6165h20.18v-4.6165z"/>
<path d="m109.89 119.13v-23.492h-5.4151l-7.5968 5.084v5.2203l7.2461-4.8113h0.35062v17.998h-7.5773v4.6165h20.18v-4.6165z"/>
<path d="m164.16 119.13v-23.492h-5.4151l-7.5968 5.084v5.2203l7.2461-4.8113h0.35062v17.998h-7.5773v4.6165h20.18v-4.6165z"/>
<path d="m188.37 95.042c-6.7397 0-10.558 5.2788-10.558 14.648 0 9.3693 3.8178 14.648 10.558 14.648 6.7592 0 10.577-5.2788 10.577-14.648 0-9.3693-3.8178-14.648-10.577-14.648zm5.1619 14.648c0 5.617-2.3959 10.071-5.1619 10.071-2.766 0-5.1424-4.4487-5.1424-10.071s2.3065-10.071 5.1424-10.071c2.8359 0 5.1619 4.4536 5.1619 10.071z"/>
<path d="m161.24 57.746c-6.7397 0-10.558 5.2788-10.558 14.648 0 9.3693 3.8178 14.648 10.558 14.648 6.7592 0 10.577-5.2788 10.577-14.648 0-9.3693-3.8178-14.648-10.577-14.648zm5.1619 14.648c0 5.617-2.3959 10.071-5.1619 10.071-2.766 0-5.1424-4.4487-5.1424-10.071s2.3065-10.071 5.1424-10.071c2.8359 0 5.1619 4.4536 5.1619 10.071z"/>
<path d="m82.754 156.42v-23.492h-5.4151l-7.5968 5.084v5.2203l7.2461-4.8113h0.35063v17.998h-7.5773v4.6165h20.18v-4.6165z"/>
<path d="m106.97 132.34c-6.7397 0-10.558 5.2788-10.558 14.648s3.8179 14.648 10.558 14.648c6.7592 0 10.577-5.2788 10.577-14.648s-3.8178-14.648-10.577-14.648zm5.1619 14.648c0 5.617-1.6372 10.071-5.1619 10.071-3.5247 0-5.1424-4.4487-5.1424-10.071s1.7159-10.071 5.1424-10.071c3.4266 0 5.1619 4.4536 5.1619 10.071z"/>
<path d="m79.832 169.63c-6.7397 0-10.558 5.2788-10.558 14.648 0 9.3693 3.8179 14.648 10.558 14.648 6.7592 0 10.577-5.2788 10.577-14.648 0-9.3693-3.8179-14.648-10.577-14.648zm5.1619 14.648c0 5.617-2.3959 10.071-5.1619 10.071-2.766 0-5.1424-4.4487-5.1424-10.071 0-5.6219 2.3066-10.071 5.1424-10.071 2.8359 0 5.1619 4.4536 5.1619 10.071z"/>
<path d="m134.1 169.63c-6.7397 0-10.558 5.2788-10.558 14.648s3.8179 14.648 10.558 14.648c6.7592 0 10.577-5.2788 10.577-14.648s-3.8178-14.648-10.577-14.648zm5.1619 14.648c0 5.617-2.3959 10.071-5.1619 10.071-2.766 0-5.1424-4.4487-5.1424-10.071 0-5.6218 2.3066-10.071 5.1424-10.071 2.8359 0 5.1619 4.4536 5.1619 10.071z"/>
<path d="m191.29 156.42v-23.492h-5.4151l-7.5968 5.084v5.2203l7.2461-4.8113h0.35062v17.998h-7.5773v4.6165h20.18v-4.6165z"/>
<path d="m137.02 156.42v-23.492h-5.4151l-7.5968 5.084v5.2203l7.2461-4.8113h0.35062v17.998h-7.5773v4.6165h20.18v-4.6165z"/>
<path d="m109.89 193.72v-23.492h-5.4151l-7.5968 5.084v5.2203l7.2461-4.8113h0.35062v17.998h-7.5773v4.6165h20.18v-4.6165z"/>
<path d="m164.16 193.72v-23.492h-5.4151l-7.5968 5.084v5.2203l7.2461-4.8113h0.35062v17.998h-7.5773v4.6165h20.18v-4.6165z"/>
<path d="m188.37 169.63c-6.7397 0-10.558 5.2788-10.558 14.648s3.8178 14.648 10.558 14.648c6.7592 0 10.577-5.2788 10.577-14.648s-3.8178-14.648-10.577-14.648zm5.1619 14.648c0 5.617-2.3959 10.071-5.1619 10.071-2.766 0-5.1424-4.4487-5.1424-10.071 0-5.6218 2.3065-10.071 5.1424-10.071 2.8359 0 5.1619 4.4536 5.1619 10.071z"/>
<path d="m161.24 132.34c-6.7397 0-10.558 5.2788-10.558 14.648s3.8178 14.648 10.558 14.648c6.7592 0 10.577-5.2788 10.577-14.648s-3.8178-14.648-10.577-14.648zm5.1619 14.648c0 5.617-2.3959 10.071-5.1619 10.071-2.766 0-5.1424-4.4487-5.1424-10.071s2.3065-10.071 5.1424-10.071c2.8359 0 5.1619 4.4536 5.1619 10.071z"/>
</g>
</svg>
