<svg version="1.1" viewBox="0 0 256 256" xmlns="http://www.w3.org/2000/svg">
<defs>
<filter id="filter963" x="-.13823" y="-.11059" width="1.2765" height="1.2212" color-interpolation-filters="sRGB">
<feGaussianBlur stdDeviation="0.69118713"/>
</filter>
<linearGradient id="linearGradient32816-3" x1="-28.683" x2="-38.225" y1="21.128" y2="9.0369" gradientUnits="userSpaceOnUse">
<stop stop-color="#9cf" offset="0"/>
<stop stop-color="#fff" offset="1"/>
</linearGradient>
<linearGradient id="linearGradient26952-6" x1="8.0956" x2="7.2706" y1="1.4188" y2=".45848" gradientTransform="matrix(1.5872,0,0,1.5872,-42.561,7.9305)" gradientUnits="userSpaceOnUse">
<stop stop-color="#2da8ff" offset="0"/>
<stop stop-color="#74c0ff" offset="1"/>
</linearGradient>
<linearGradient id="linearGradient57243-7" x1="-31.156" x2="-28.432" y1="10.5" y2="10.5" gradientTransform="translate(0 -.25)" gradientUnits="userSpaceOnUse">
<stop stop-color="#0096fc" offset="0"/>
<stop stop-color="#0068ce" offset="1"/>
</linearGradient>
<linearGradient id="linearGradient33220-5" x1="-30.932" x2="-28.932" y1="11" y2="11" gradientUnits="userSpaceOnUse">
<stop stop-color="#ccd5ff" offset="0"/>
<stop stop-color="#aab3f5" offset="1"/>
</linearGradient>
<linearGradient id="linearGradient19558-3" x1="-27.932" x2="-27.932" y1="21" y2="11.5" gradientUnits="userSpaceOnUse">
<stop stop-color="#a5bdee" offset="0"/>
<stop stop-color="#bac9f4" offset="1"/>
</linearGradient>
<linearGradient id="linearGradient10737-5" x1="-37.932" x2="-28.932" y1="22" y2="22" gradientUnits="userSpaceOnUse">
<stop stop-color="#9dadd9" offset="0"/>
<stop stop-color="#8b8eb8" offset="1"/>
</linearGradient>
<linearGradient id="linearGradient1922-6" x1="-38.932" x2="-38.932" y1="22.025" y2="14.78" gradientUnits="userSpaceOnUse">
<stop stop-color="#6e7bae" offset="0"/>
<stop stop-color="#87a9dc" offset="1"/>
</linearGradient>
</defs>
<g transform="translate(-12.568)">
<rect x="40.568" y="28" width="200" height="200" fill="none" stop-color="#000000" stroke="#524d42" stroke-dasharray="30, 30" stroke-linecap="round" stroke-width="15"/>
<g transform="matrix(9.7569 0 0 9.7569 -1206 -3296)">
<path d="m132.5 343.5v14.499a0.49998 0.49998 0 0 0 0.0625 0.2246 0.49998 0.49998 0 0 0 0.0352 0.0547 0.49998 0.49998 0 0 0 0.12109 0.12304 0.49998 0.49998 0 0 0 0.0566 0.0371 0.49998 0.49998 0 0 0 0.2246 0.0606h11a0.49998 0.49998 0 0 0 0.49998-0.49998v-10.978a0.49998 0.49998 0 0 0-0.0195-0.1621 0.49998 0.49998 0 0 0-2e-3 -6e-3 0.49998 0.49998 0 0 0-0.0234-0.0605 0.49998 0.49998 0 0 0-0.0195-0.0371 0.49998 0.49998 0 0 0-2e-3 -2e-3 0.49998 0.49998 0 0 0-0.0117-0.0234 0.49998 0.49998 0 0 0-0.01-0.0137 0.49998 0.49998 0 0 0-4e-3 -4e-3 0.49998 0.49998 0 0 0-0.043-0.0527l-2.4823-2.9803a0.49998 0.49998 0 0 0 0-2e-3 0.49998 0.49998 0 0 0-0.0957-0.0859 0.49998 0.49998 0 0 0-4e-3 -2e-3 0.49998 0.49998 0 0 0-0.2246-0.084 0.49998 0.49998 0 0 0-0.0293-4e-3 0.49998 0.49998 0 0 0-0.0293-2e-3z" fill-rule="evenodd" filter="url(#filter963)" opacity=".83" stop-color="#000000" stroke-linecap="round" stroke-linejoin="round"/>
<g transform="translate(171.04 335.11)">
<path d="m-38.932 8h8.5041l2.4959 3.1204v10.88h-11z" fill="url(#linearGradient32816-3)" fill-rule="evenodd" stop-color="#000000" stroke-linecap="round" stroke-linejoin="round"/>
<path d="m-31.432 8.1405v2.8595h3.5l-3.0801-2.8595z" fill="url(#linearGradient26952-6)"/>
<path d="m-31.432 10.25h3" fill="none" stroke="url(#linearGradient57243-7)" stroke-width=".5"/>
<path d="m-27.932 11h-3.5" fill="#aab3f5" stroke="url(#linearGradient33220-5)" stroke-width="1px"/>
<g fill="none" stroke-linecap="round" stroke-width="1px">
<path d="m-27.932 22v-11" stroke="url(#linearGradient19558-3)"/>
<path d="m-38.932 22h11" stroke="url(#linearGradient10737-5)"/>
<path d="m-30.432 8h-8.5v14" stroke="url(#linearGradient1922-6)"/>
<path d="m-30.432 8 2.5 3" stroke="#87a9dc"/>
</g>
</g>
</g>
</g>
</svg>
