<svg version="1.1" viewBox="0 0 256 256" xmlns="http://www.w3.org/2000/svg">
<defs>
<linearGradient id="linearGradient1218" x1=".66918" x2=".66918" y1="147.56" y2="118.34" gradientTransform="matrix(2.2731 0 0 2.2731 183.69 -211.46)" gradientUnits="userSpaceOnUse">
<stop stop-color="#b503b7" offset="0"/>
<stop stop-color="#ea4cec" offset="1"/>
</linearGradient>
<linearGradient id="linearGradient1226" x1="8.4129" x2="8.4129" y1="143.38" y2="121.26" gradientTransform="matrix(2.2731 0 0 2.2731 183.69 -211.46)" gradientUnits="userSpaceOnUse">
<stop stop-color="#e68ae7" offset="0"/>
<stop stop-color="#ffb5ff" offset="1"/>
</linearGradient>
<linearGradient id="linearGradient1226-7" x1="8.4129" x2="8.4129" y1="143.38" y2="121.26" gradientTransform="matrix(2.2731 0 0 2.2731 -72.306 -137.77)" gradientUnits="userSpaceOnUse">
<stop stop-color="#499fe3" offset="0"/>
<stop stop-color="#99cdff" offset="1"/>
</linearGradient>
<linearGradient id="linearGradient1218-3" x1="1.2367" x2="1.2367" y1="147.25" y2="118.31" gradientTransform="matrix(2.2731 0 0 2.2731 -72.306 -137.77)" gradientUnits="userSpaceOnUse">
<stop stop-color="#039" offset="0"/>
<stop stop-color="#3a9cf9" offset="1"/>
</linearGradient>
<linearGradient id="linearGradient1226-7-2" x1="-21.005" x2="21.915" y1="145.43" y2="120.92" gradientTransform="matrix(2.2731 0 0 2.2731 -145.99 -137.77)" gradientUnits="userSpaceOnUse">
<stop stop-color="#f8b401" offset="0"/>
<stop stop-color="#fdf097" offset="1"/>
</linearGradient>
<linearGradient id="linearGradient1218-3-8" x1="-22.381" x2="24.763" y1="131.38" y2="133.47" gradientTransform="matrix(2.2731 0 0 2.2731 -145.99 -137.77)" gradientUnits="userSpaceOnUse">
<stop stop-color="#a77b00" offset="0"/>
<stop stop-color="#fdc52a" offset="1"/>
</linearGradient>
<filter id="filter1136" x="-.12288" y="-.12288" width="1.2458" height="1.2458" color-interpolation-filters="sRGB">
<feGaussianBlur stdDeviation="7.5901"/>
</filter>
</defs>
<rect x="28" y="28" width="200" height="200" fill="none" stop-color="#000000" stroke="#524d42" stroke-dasharray="30, 30" stroke-linecap="round" stroke-width="15"/>
<path d="m151.24 63.879c-7.5104 0-13.682 6.1712-13.682 13.682v47.195c0 6.3534 4.4228 11.733 10.33 13.244-4.8306 1.2367-8.6545 5.0617-9.8906 9.8926-1.5115-5.9073-6.8908-10.33-13.244-10.33h-47.197c-7.5104 0-13.682 6.1712-13.682 13.682v47.195c0 7.5104 6.1712 13.682 13.682 13.682h47.197c6.3534 0 11.733-4.4228 13.244-10.33 1.5115 5.9073 6.8908 10.33 13.244 10.33h47.197c7.5104 0 13.682-6.1712 13.682-13.682v-47.195c0-6.3534-4.4228-11.733-10.33-13.244 5.9064-1.5122 10.328-6.8914 10.328-13.244v-47.195c0-7.5104-6.1712-13.682-13.682-13.682z" color="#000000" fill-rule="evenodd" filter="url(#filter1136)" opacity=".83" stroke-linecap="round" stroke-linejoin="round" stroke-width="7.9998" style="-inkscape-stroke:none"/>
<g fill-rule="evenodd" stroke-linecap="round" stroke-linejoin="round" stroke-width="7.9998">
<rect x="131.56" y="57.878" width="66.56" height="66.56" rx="9.6817" ry="9.6817" fill="url(#linearGradient1226)" stroke="url(#linearGradient1218)"/>
<rect transform="scale(-1,1)" x="-124.44" y="131.56" width="66.56" height="66.56" rx="9.6817" ry="9.6817" fill="url(#linearGradient1226-7)" stroke="url(#linearGradient1218-3)"/>
<rect transform="scale(-1,1)" x="-198.12" y="131.56" width="66.56" height="66.56" rx="9.6817" ry="9.6817" fill="url(#linearGradient1226-7-2)" stroke="url(#linearGradient1218-3-8)"/>
</g>
</svg>
