<svg version="1.1" viewBox="0 0 256 256" xmlns="http://www.w3.org/2000/svg" xmlns:xlink="http://www.w3.org/1999/xlink">
<defs>
<linearGradient id="linearGradient926" x1="103.45" x2="99.478" y1="100.01" y2="89.034" gradientTransform="matrix(13.647 0 0 13.647 -1142.6 -1068.3)" gradientUnits="userSpaceOnUse">
<stop stop-color="#9a9aff" offset="0"/>
<stop stop-color="#cacaff" offset=".5"/>
<stop stop-color="#fcfcff" offset="1"/>
</linearGradient>
<filter id="filter963" x="-.13823" y="-.11059" width="1.2765" height="1.2212" color-interpolation-filters="sRGB">
<feGaussianBlur stdDeviation="0.69118713"/>
</filter>
<linearGradient id="linearGradient32816-3" x1="-28.683" x2="-38.225" y1="21.128" y2="9.0369" gradientUnits="userSpaceOnUse">
<stop stop-color="#9cf" offset="0"/>
<stop stop-color="#fff" offset="1"/>
</linearGradient>
<linearGradient id="linearGradient26952-6" x1="8.0956" x2="7.2706" y1="1.4188" y2=".45848" gradientTransform="matrix(1.5872,0,0,1.5872,-42.561,7.9305)" gradientUnits="userSpaceOnUse">
<stop stop-color="#2da8ff" offset="0"/>
<stop stop-color="#74c0ff" offset="1"/>
</linearGradient>
<linearGradient id="linearGradient57243-7" x1="-31.156" x2="-28.432" y1="10.5" y2="10.5" gradientTransform="translate(0 -.25)" gradientUnits="userSpaceOnUse">
<stop stop-color="#0096fc" offset="0"/>
<stop stop-color="#0068ce" offset="1"/>
</linearGradient>
<linearGradient id="linearGradient33220-5" x1="-30.932" x2="-28.932" y1="11" y2="11" gradientUnits="userSpaceOnUse">
<stop stop-color="#ccd5ff" offset="0"/>
<stop stop-color="#aab3f5" offset="1"/>
</linearGradient>
<linearGradient id="linearGradient19558-3" x1="-27.932" x2="-27.932" y1="21" y2="11.5" gradientUnits="userSpaceOnUse">
<stop stop-color="#a5bdee" offset="0"/>
<stop stop-color="#bac9f4" offset="1"/>
</linearGradient>
<linearGradient id="linearGradient10737-5" x1="-37.932" x2="-28.932" y1="22" y2="22" gradientUnits="userSpaceOnUse">
<stop stop-color="#9dadd9" offset="0"/>
<stop stop-color="#8b8eb8" offset="1"/>
</linearGradient>
<linearGradient id="linearGradient1922-6" x1="-38.932" x2="-38.932" y1="22.025" y2="14.78" gradientUnits="userSpaceOnUse">
<stop stop-color="#6e7bae" offset="0"/>
<stop stop-color="#87a9dc" offset="1"/>
</linearGradient>
<filter id="filter1563" x="-.21334" y="-.086291" width="1.4267" height="1.1726" color-interpolation-filters="sRGB">
<feGaussianBlur stdDeviation="8.4174474"/>
</filter>
</defs>
<g transform="translate(-91.938 -88.637)">
<g transform="translate(-75.172 -63.696)">
<path transform="matrix(16 0 0 16 199.03 152.28)" d="m0.93184 0.90009v14.499a0.49998 0.49998 0 0 0 0.0625 0.2246 0.49998 0.49998 0 0 0 0.03516 0.05469 0.49998 0.49998 0 0 0 0.12109 0.12304 0.49998 0.49998 0 0 0 0.05664 0.03711 0.49998 0.49998 0 0 0 0.2246 0.06055h11a0.49998 0.49998 0 0 0 0.49998-0.49998v-10.978a0.49998 0.49998 0 0 0-0.01953-0.1621 0.49998 0.49998 0 0 0-2e-3 -0.0059 0.49998 0.49998 0 0 0-0.02344-0.06055 0.49998 0.49998 0 0 0-0.01953-0.03711 0.49998 0.49998 0 0 0-2e-3 -2e-3 0.49998 0.49998 0 0 0-0.01172-0.02344 0.49998 0.49998 0 0 0-0.0098-0.01367 0.49998 0.49998 0 0 0-0.0039-0.0039 0.49998 0.49998 0 0 0-0.04297-0.05274l-2.4823-2.9803a0.49998 0.49998 0 0 0 0-0.00195 0.49998 0.49998 0 0 0-0.0957-0.085933 0.49998 0.49998 0 0 0-0.0039-0.00195 0.49998 0.49998 0 0 0-0.2246-0.08398 0.49998 0.49998 0 0 0-0.0293-0.00391 0.49998 0.49998 0 0 0-0.0293-0.00195z" fill-rule="evenodd" filter="url(#filter963)" opacity=".83" stop-color="#000000" stroke-linecap="round" stroke-linejoin="round"/>
<g transform="matrix(16 0 0 16 830.55 32.363)">
<path d="m-38.932 8h8.5041l2.4959 3.1204v10.88h-11z" fill="url(#linearGradient32816-3)" fill-rule="evenodd" stop-color="#000000" stroke-linecap="round" stroke-linejoin="round"/>
<path d="m-31.432 8.1405v2.8595h3.5l-3.0801-2.8595z" fill="url(#linearGradient26952-6)"/>
<path d="m-31.432 10.25h3" fill="none" stroke="url(#linearGradient57243-7)" stroke-width=".5"/>
<path d="m-27.932 11h-3.5" fill="#aab3f5" stroke="url(#linearGradient33220-5)" stroke-width="1px"/>
<g fill="none" stroke-linecap="round" stroke-width="1px">
<path d="m-27.932 22v-11" stroke="url(#linearGradient19558-3)"/>
<path d="m-38.932 22h11" stroke="url(#linearGradient10737-5)"/>
<path d="m-30.432 8h-8.5v14" stroke="url(#linearGradient1922-6)"/>
<path d="m-30.432 8 2.5 3" stroke="#87a9dc"/>
</g>
</g>
<g transform="matrix(16 0 0 16 199.03 152.28)" fill="#cee6ff" stroke="#9cf" stroke-linecap="round" stroke-width="1px">
<path d="m2.0927 9.8145h7.8902"/>
<path d="m2.0927 7.9667h7.8902"/>
<path d="m2.0927 6.1188h7.8902"/>
<path d="m2.0927 11.662h7.8902"/>
</g>
</g>
<path transform="matrix(.68632 0 0 .68632 48.958 80.443)" d="m248.01 102.69v25.629l1.875 0.56056c3.1955 0.95848 8.5334 1.6019 14.445 3.043 5.5288 1.3477 11.204 3.4549 15.244 6.4434v162.54c-4.3814 2.7814-10.057 4.949-15.526 6.3848-5.8663 1.5403-11.105 2.397-14.164 3.3145l-1.875 0.56055v25.631h2.6348c23.041 0 33.893-7.1589 44.549-15.223 10.333 8.6135 21.831 15.223 44.883 15.223h2.627v-25.631l-1.875-0.56055c-3.1959-0.95865-8.5901-1.6197-14.535-3.0703-5.5617-1.3571-11.234-3.4683-15.154-6.4083v-162.99c2.298-2.4596 7.9128-4.7607 13.93-6.1485 6.3281-1.4595 12.437-2.1127 15.76-3.1094l1.875-0.56056v-25.629h-2.627c-20.46 0-33.07 5.3185-44.676 15.088-10.232-8.5097-19.37-15.088-44.756-15.088z" color="#000000" color-rendering="auto" dominant-baseline="auto" filter="url(#filter1563)" image-rendering="auto" opacity=".83" shape-rendering="auto" solid-color="#000000" stop-color="#000000" style="font-feature-settings:normal;font-variant-alternates:normal;font-variant-caps:normal;font-variant-east-asian:normal;font-variant-ligatures:normal;font-variant-numeric:normal;font-variant-position:normal;font-variation-settings:normal;inline-size:0;isolation:auto;mix-blend-mode:normal;shape-margin:0;shape-padding:0;text-decoration-color:#000000;text-decoration-line:none;text-decoration-style:solid;text-indent:0;text-orientation:mixed;text-transform:none;white-space:normal"/>
<path d="m233.03 164.78c-6.3197-5.2176-18.035-6.1329-21.664-7.2214v-14.443c18.054 0 23.155 4.519 30.691 10.832 8.0774-7.1747 16.248-10.832 30.691-10.832v14.443c-3.6289 1.0885-17.693 2.1076-21.664 7.2214v113.74c6.1451 5.1667 18.035 6.1329 21.664 7.2214v14.443c-16.248 0-23.437-4.5953-30.691-10.832-7.664 5.8666-14.443 10.832-30.691 10.832v-14.443c3.6289-1.0885 14.913-2.5184 21.664-7.2214z" fill="url(#linearGradient926)" stroke="#212121" stroke-width="3.6107px"/>
</g>
</svg>
