<svg version="1.1" viewBox="0 0 256 256" xmlns="http://www.w3.org/2000/svg">
<defs>
<style id="current-color-scheme" type="text/css">.ColorScheme-Text {
        color:#232629;
      }</style>
<filter id="filter26366" x="-.044561" y="-.086088" width="1.0891" height="1.1722" color-interpolation-filters="sRGB">
<feGaussianBlur stdDeviation="4.4932227"/>
</filter>
</defs>
<path d="m186.4 61.673c0.9996 1.1997 2.8422 1.1997 3.8418 0zm-116.94 1.3223c-0.97312-1.82e-4 -1.8556 0.57109-2.2539 1.459l-41.703 93.035c-6.69e-4 2e-3 -0.0013 4e-3 -2e-3 6e-3 -3.9078 8.7783-7.277 14.551-9.5117 16.932-2.3141 2.4082-5.1705 3.8571-8.8926 4.418-1.2085 0.18223-2.102 1.221-2.1015 2.4432v3.1797c5.502e-4 1.3632 1.1055 2.4682 2.4688 2.4688h38.779c1.364 5.3e-4 2.4702-1.1048 2.4707-2.4688v-3.1797c2.7e-5 -1.2924-0.99636-2.3663-2.2852-2.4629-5.9685-0.45044-9.8771-1.4396-10.361-1.7266-0.0033-2e-3 -0.0065-4e-3 -0.0098-6e-3 -1.9829-1.1639-2.7363-2.4888-2.7363-5.0918 0-1.9286 0.68315-4.8043 2.2129-8.4102l4.25-9.8438h37.932l5.5508 13.029c0.79773 1.8804 1.4098 3.3528 1.8281 4.3984 0.41875 1.0466 0.68211 1.9269 0.61328 1.6172 0.01517 0.0704 0.03342 0.14016 0.05469 0.20899 0.27697 0.87708 0.40234 1.682 0.40234 2.4375 0 1.0921-0.21184 1.4568-0.84766 1.9277-1.0641 0.72119-3.8391 1.4512-8.1191 1.4512h-2.3203c-1.3648-5.3e-4 -2.4712 1.106-2.4707 2.4707v3.1797c5.51e-4 1.364 1.1067 2.4693 2.4707 2.4688h56.404c1.364 5.3e-4 2.4702-1.1048 2.4707-2.4688v-3.1797c5.8e-4 -1.2876-0.98809-2.3595-2.2715-2.4629-3.1818-0.2566-5.3429-1.1405-6.7891-2.459v-2e-3c-1.8831-1.7157-5.329-7.3331-9.293-16.279l-2e-3 -6e-3 -42.043-95.609c-0.39444-0.89595-1.2808-1.4744-2.2598-1.4746zm67.498 2.4082c-1.364-5.26e-4 -2.4702 1.1048-2.4707 2.4688v3.1816c-5.3e-4 1.3647 1.106 2.4712 2.4707 2.4707 5.1809 0 8.674 0.62799 9.8164 1.1992 1.5588 0.77941 2.4001 1.6636 2.8906 2.7578 0.0143 0.0315 0.0293 0.0628 0.0449 0.0937 0.11201 0.22401 0.46692 1.4678 0.6543 3.3144s0.28906 4.3469 0.28906 7.4473v75.666c0 3.1004-0.10168 5.6006-0.28906 7.4473s-0.54229 3.0904-0.6543 3.3144c-0.0107 0.0214-0.0211 0.0428-0.0312 0.0645-0.48263 1.0395-1.3567 1.9604-2.9414 2.8027-1.0489 0.53699-4.5477 1.1855-9.7793 1.1855-1.3648-5.3e-4 -2.4712 1.106-2.4707 2.4707v3.1797c5.5e-4 1.364 1.1067 2.4693 2.4707 2.4688h59.244c16.855 0 30.039-3.532 39.293-10.947 5e-3 -3e-3 9e-3 -7e-3 0.0137-0.01 7.5289-6.1208 11.486-14.238 11.486-23.67 0-8.9458-3.6235-16.584-10.539-22.205-3.6715-3.0108-8.993-5.4817-15.957-7.6211 6.2637-2.2754 11.117-5.0501 14.395-8.5586l0.0117-0.0117c4.4238-4.7976 6.7578-10.505 6.7578-16.719 0-5.8225-1.7883-11.373-5.2383-16.43l-4e-3 -4e-3c-3.4725-5.1448-8.2801-9.0329-14.229-11.549-6.2226-2.691-15.847-3.8086-29.344-3.8086zm45.807 11.607c6.7485 0.14243 11.957 0.87442 14.738 2.1387 3.3874 1.5397 5.8408 3.6953 7.5898 6.5938 9e-3 0.0138 0.0181 0.0274 0.0273 0.041 1.7505 2.7716 2.7148 6.4929 2.7148 11.322s-0.96461 8.5871-2.7266 11.426c-1.8036 2.9058-4.3645 5.1435-7.8945 6.8047-4e-3 2e-3 -8e-3 4e-3 -0.0117 6e-3 -2.8384 1.3556-7.9211 2.145-14.438 2.3457zm-123.74 33.891 13.645 31.543h-27.693zm123.74 18.723c7.2238 0.12719 12.946 0.85168 16.41 2.2012 3.9053 1.5215 6.8843 4.111 9.1641 8.0488 3e-3 5e-3 5e-3 9e-3 8e-3 0.0137 2.292 3.9068 3.4434 8.3029 3.4434 13.367 0 4.3981-0.94104 8.2925-2.8086 11.822-1.843 3.4262-4.4205 5.9824-7.9121 7.832-3.4813 1.8171-7.2656 2.7266-11.488 2.7266-2.6583 0-4.2616-0.62494-5.2969-1.6055-0.97901-1.0337-1.6044-2.6389-1.6055-5.293v-6e-3l0.084-4.25c8.3e-4 -0.0163 1e-3 -0.0325 2e-3 -0.0488z" color="#000000" fill="#212121" filter="url(#filter26366)" stroke-linecap="round" stroke-linejoin="round" stroke-width="4.939" style="-inkscape-stroke:none"/>
<path d="m64.464 61.465-41.702 93.035c-3.9553 8.8851-7.2794 14.762-9.9736 17.628-2.6942 2.8088-6.1344 4.529-10.319 5.1595v3.1798h38.779v-3.1798c-6.0763-0.45857-9.8885-1.1474-11.436-2.0646-2.6369-1.5477-3.9555-3.9547-3.9555-7.2221 0-2.4649 0.80298-5.5902 2.408-9.3736l4.9009-11.349h41.187l6.1898 14.531c1.6051 3.7833 2.4651 5.9325 2.5798 6.4484 0.34394 1.0892 0.51714 2.15 0.51714 3.1818 0 1.7197-0.63176 3.0383-1.8929 3.9555-1.8343 1.2611-5.0148 1.8929-9.5433 1.8929h-2.3212v3.1798h56.405v-3.1798c-3.554-0.28661-6.3054-1.3199-8.2544-3.0969-2.5796-2.3502-5.8761-8.0538-9.8887-17.111l-42.046-95.615zm67.498 2.408v3.1818c5.3311 0 8.972 0.48611 10.921 1.4606 1.949 0.9745 3.2952 2.2931 4.0404 3.9555 0.80253 1.6051 1.204 5.5609 1.204 11.866v75.666c0 6.3056-0.40148 10.261-1.204 11.866-0.7452 1.605-2.0914 2.9236-4.0404 3.9555-1.8917 0.97449-5.5326 1.4626-10.921 1.4626v3.1798h59.244c16.509 0 29.093-3.4678 37.749-10.404 7.0508-5.7324 10.576-12.983 10.576-21.753 0-8.3119-3.21-15.076-9.6302-20.293-4.4712-3.6687-12.239-6.794-23.303-9.3736 10.261-2.5796 17.427-6.0473 21.497-10.404 4.07-4.4139 6.105-9.4286 6.105-15.046 0-5.3311-1.606-10.348-4.8161-15.048-3.2101-4.7578-7.595-8.3122-13.155-10.662-5.5604-2.4076-15.019-3.6101-28.375-3.6101zm43.337 6.5333c8.3692-0.05732 14.447 0.77518 18.23 2.4949 3.7834 1.7197 6.6764 4.2408 8.6828 7.5656 2.0636 3.2674 3.0969 7.4811 3.0969 12.64 0 5.1591-1.0332 9.4023-3.0969 12.727-2.0636 3.3248-5.0433 5.9029-8.9413 7.7373-3.8407 1.8343-9.8315 2.7515-17.971 2.7515zm-121.24 30.353 17.369 40.155h-35.254zm121.24 22.27c8.7705-0.0573 15.364 0.77518 19.777 2.4949 4.4139 1.7197 7.8817 4.7565 10.404 9.113 2.5222 4.2993 3.7838 9.1722 3.7838 14.618 0 4.7579-1.0332 9.0857-3.0969 12.984-2.0636 3.8407-5.0433 6.7928-8.9413 8.8564-3.8407 2.0063-8.0544 3.01-12.64 3.01-3.0955 0-5.4454-0.77346-7.0504-2.3212-1.5477-1.6051-2.3212-3.9569-2.3212-7.0524l0.0848-4.2989z" fill="#007df4" stroke="#0054db" stroke-linecap="round" stroke-linejoin="round" stroke-width="4.939"/>
</svg>
