<svg version="1.1" viewBox="0 0 256 256" xmlns="http://www.w3.org/2000/svg" xmlns:xlink="http://www.w3.org/1999/xlink"><defs><linearGradient id="linearGradient847" x1="28.443" x2="28.443" y1="2.9104" y2="3.4396" gradientTransform="matrix(3.7877 0 0 3.7877 -84.646 14.977)" gradientUnits="userSpaceOnUse"><stop stop-color="#016cd1" offset="0"/><stop stop-color="#017bdf" offset="1"/></linearGradient><linearGradient id="linearGradient855" x1="31.485" x2="28.443" y1="7.4083" y2="5.0271" gradientTransform="matrix(3.7877 0 0 3.7877 -84.646 14.977)" gradientUnits="userSpaceOnUse"><stop stop-color="#abd5ff" offset="0"/><stop stop-color="#fff" offset="1"/></linearGradient><filter id="filter984" x="-.043817" y="-.053066" width="1.0876" height="1.1061" color-interpolation-filters="sRGB"><feGaussianBlur stdDeviation="4.4091016"/></filter></defs><g transform="translate(-12.568)"><path d="m38.351 32.295c-11.428 0-20.783 9.3573-20.783 20.785v178.63h241.5v-178.63c0-11.428-9.3572-20.785-20.785-20.785z" color="#000000" color-rendering="auto" dominant-baseline="auto" fill="#212121" filter="url(#filter984)" image-rendering="auto" shape-rendering="auto" solid-color="#000000" stop-color="#000000" style="font-feature-settings:normal;font-variant-alternates:normal;font-variant-caps:normal;font-variant-east-asian:normal;font-variant-ligatures:normal;font-variant-numeric:normal;font-variant-position:normal;font-variation-settings:normal;inline-size:0;isolation:auto;mix-blend-mode:normal;shape-margin:0;shape-padding:0;text-decoration-color:#000000;text-decoration-line:none;text-decoration-style:solid;text-indent:0;text-orientation:mixed;text-transform:none;white-space:normal"/><g transform="matrix(10.5 0 0 10.5 -119.61 -234.46)" stroke-width=".95238"><path d="m35.112 27.504v16.035h-22.048v-16.035" fill="url(#linearGradient855)" stroke="#016cd1" stroke-linecap="round" stroke-width=".95238"/><path d="m35.112 28.005h-22.048v-1.5032l1.5032-1.0022h19.041l1.5032 1.5032z" fill="url(#linearGradient847)"/><path d="m13.064 28.005v-1.0022c0-0.8328 0.67044-1.5032 1.5032-1.5032h19.041c0.8328 0 1.5032 0.67045 1.5032 1.5032v1.0022" fill="none" stroke="#016cd1" stroke-linecap="round" stroke-linejoin="round" stroke-width=".95238"/><g><rect x="17.568" y="31" width="3" height="3" fill="#0b7fe2"/><rect x="24.568" y="37" width="3" height="3" fill="#019901"/><rect x="24.568" y="31" width="3" height="3" fill="#ff7a4c"/></g><g fill="none"><path d="m28.568 38.5h3.0065" stroke="#b3b3b3" stroke-width=".95238"/><path d="m28.568 32.5h3.0065" stroke="#b3b3b3" stroke-width=".95238"/><path d="m20.568 32.5h4" stroke="#000" stroke-width=".47619"/><path d="m22.068 32.5v6h2.5" stroke="#000" stroke-width=".47619"/></g></g></g></svg>
