<svg version="1.1" viewBox="0 0 256 256" xmlns="http://www.w3.org/2000/svg"><defs><linearGradient id="linearGradient847" x1="28.443" x2="28.443" y1="2.9104" y2="3.4396" gradientTransform="matrix(39.772 0 0 39.772 -1020.7 -77.196)" gradientUnits="userSpaceOnUse"><stop stop-color="#016cd1" offset="0"/><stop stop-color="#017bdf" offset="1"/></linearGradient><linearGradient id="linearGradient855" x1="31.485" x2="28.443" y1="7.4083" y2="5.0271" gradientTransform="matrix(39.772 0 0 39.772 -1020.7 -77.196)" gradientUnits="userSpaceOnUse"><stop stop-color="#abd5ff" offset="0"/><stop stop-color="#fff" offset="1"/></linearGradient><filter id="filter1119" x="-.043826" y="-.053052" width="1.0877" height="1.1061" color-interpolation-filters="sRGB"><feGaussianBlur stdDeviation="4.4191016"/></filter><radialGradient id="radialGradient920" cx="94.335" cy="90.473" r="1.5875" gradientTransform="matrix(-.17192 55.061 -54.889 -.17138 5104.4 -5079)" gradientUnits="userSpaceOnUse"><stop stop-color="#80e54d" offset="0"/><stop stop-color="#80e54d" offset=".36912"/><stop stop-color="#30a418" offset="1"/></radialGradient><filter id="filter963" x="-.048" y="-.048" width="1.096" height="1.096" color-interpolation-filters="sRGB"><feGaussianBlur stdDeviation="1.8862472"/></filter></defs><path d="m26.033 32.045c-11.562 0-21.033 9.4731-21.033 21.035v178.88h242v-178.88c0-11.562-9.4731-21.035-21.035-21.035z" filter="url(#filter1119)"/><path d="m236.76 54.34v168.37h-231.51v-168.37" fill="url(#linearGradient855)" stroke-width="10.522"/><path d="m7.8935 120h227.11" fill="none" stroke="#016cd1" stroke-width="10.522px"/><path d="m236.76 54.34v168.37h-231.51v-168.37" fill="none" stroke="#016cd1" stroke-linecap="round" stroke-width="10.5"/><path d="m236.76 59.611h-231.51v-15.784l15.784-10.523h199.94l15.784 15.784z" fill="url(#linearGradient847)" stroke-width="10.522"/><g fill="none"><path d="m5.2525 59.611v-10.523c0-8.7446 7.0398-15.784 15.784-15.784h199.94c8.7446 0 15.784 7.0398 15.784 15.784v10.523" stroke="#016cd1" stroke-linecap="round" stroke-linejoin="round" stroke-width="10.5"/><g stroke="#999" stroke-width="10.522"><path d="m31.578 100h178.87"/><path d="m31.578 75h178.87"/><path d="m31.578 150h178.87"/><path d="m31.578 175h178.87"/><path d="m31.578 200h178.87"/></g></g><g transform="translate(-41.912,25.981)"><path d="m151.91 96.354v32.665h-32.665v28.979h32.665v32.668h28.979v-32.668h32.668v-28.979h-32.668v-32.665z" color="#000000" color-rendering="auto" dominant-baseline="auto" fill="#212121" filter="url(#filter963)" image-rendering="auto" shape-rendering="auto" solid-color="#000000" stop-color="#000000" style="font-feature-settings:normal;font-variant-alternates:normal;font-variant-caps:normal;font-variant-east-asian:normal;font-variant-ligatures:normal;font-variant-numeric:normal;font-variant-position:normal;font-variation-settings:normal;inline-size:0;isolation:auto;mix-blend-mode:normal;shape-margin:0;shape-padding:0;text-decoration-color:#000000;text-decoration-line:none;text-decoration-style:solid;text-indent:0;text-orientation:mixed;text-transform:none;white-space:normal"/><path d="m149.15 94.594v32.666h-32.666v24.5h32.666v32.666h24.5v-32.666h32.666v-24.5h-32.666v-32.666z" fill="url(#radialGradient920)" stroke="#067003" stroke-linecap="round" stroke-width="5"/></g></svg>
