<svg version="1.1" viewBox="0 0 256 256" xmlns="http://www.w3.org/2000/svg" xmlns:xlink="http://www.w3.org/1999/xlink">
<defs>
<filter id="filter965-3" x="-.1539" y="-.10227" width="1.3078" height="1.2045" color-interpolation-filters="sRGB">
<feGaussianBlur stdDeviation="9.6233508"/>
</filter>
<linearGradient id="linearGradient1411" x1="177.38" x2="177.38" y1="215.14" y2="137.04" gradientUnits="userSpaceOnUse">
<stop stop-color="#38d929" offset="0"/>
<stop stop-color="#62e052" offset="1"/>
</linearGradient>
<linearGradient id="linearGradient1327" x1="220.45" x2="261.63" y1="180.81" y2="180.81" gradientUnits="userSpaceOnUse">
<stop stop-color="#62e052" offset="0"/>
<stop stop-color="#fff" offset="1"/>
</linearGradient>
<linearGradient id="linearGradient863" x1="211.53" x2="244.54" y1="148.02" y2="67.298" gradientUnits="userSpaceOnUse">
<stop stop-color="#38d929" offset="0"/>
<stop stop-color="#fff" offset="1"/>
</linearGradient>
<linearGradient id="linearGradient1700" x1="317.29" x2="260.22" y1="273.64" y2="181.26" gradientTransform="translate(-175.07,-122)" gradientUnits="userSpaceOnUse">
<stop stop-color="#129900" offset="0"/>
<stop stop-color="#9dff7e" offset="1"/>
</linearGradient>
<linearGradient id="linearGradient13092" x1="147.64" x2="106.66" y1="169.42" y2="38.477" gradientTransform="translate(-23.089,6.0707)" gradientUnits="userSpaceOnUse">
<stop stop-color="#0d6c00" offset="0"/>
<stop stop-color="#1acc00" offset="1"/>
</linearGradient>
<filter id="filter862" x="-.18756" y="-.091372" width="1.3751" height="1.1827" color-interpolation-filters="sRGB">
<feGaussianBlur stdDeviation="7.892224"/>
</filter>
<linearGradient id="linearGradient895-5" x1="105.45" x2="102.4" y1="94.201" y2="89.703" gradientTransform="matrix(36.277,0,0,36.277,-3594.6,-3150.5)" gradientUnits="userSpaceOnUse">
<stop stop-color="#06c" offset="0"/>
<stop stop-color="#06c" offset=".5"/>
<stop stop-color="#57b6ff" offset="1"/>
</linearGradient>
<filter id="filter910" x="-.048972" y="-.047065" width="1.0979" height="1.0941" color-interpolation-filters="sRGB">
<feGaussianBlur stdDeviation="1.2452767"/>
</filter>
</defs>
<g transform="matrix(.58868 0 0 .58868 -36.713 -6.4371)" stroke-linejoin="round">
<path d="m164.12 28.982a5.0005 5.0005 0 0 0-3.541 1.4785l-79.598 80.215a5.0005 5.0005 0 0 0-0.01172 0.0215 5.0005 5.0005 0 0 0-1.1562 2.0527 5.0005 5.0005 0 0 0-0.12305 0.62891 5.0005 5.0005 0 0 0-0.16016 0.81836v80.215a5.0005 5.0005 0 0 0 1.5996 3.6641l59.854 55.533a5.0005 5.0005 0 0 0 0.24806 0.14062 5.0005 5.0005 0 0 0 0.97851 0.55469 5.0005 5.0005 0 0 0 1.0566 0.45312 5.0005 5.0005 0 0 0 1.1367 0.0586 5.0005 5.0005 0 0 0 1.1387-0.0703 5.0005 5.0005 0 0 0 1.0508-0.45703 5.0005 5.0005 0 0 0 0.97852-0.57226 5.0005 5.0005 0 0 0 0.26368-0.1543l80.215-76.512a5.0005 5.0005 0 0 0 1.5488-3.6191v-78.98a5.0005 5.0005 0 0 0-0.0176-0.09375 5.0005 5.0005 0 0 0-0.33399-1.6992 5.0005 5.0005 0 0 0-0.0488-0.13867 5.0005 5.0005 0 0 0-1.002-1.5293 5.0005 5.0005 0 0 0-0.0332-0.03711 5.0005 5.0005 0 0 0-0.0293-0.03711l-60.469-60.469a5.0005 5.0005 0 0 0-3.5449-1.4648z" color="#000000" filter="url(#filter965-3)" opacity=".83" stroke-linecap="round" stroke-width="10" style="-inkscape-stroke:none"/>
<g transform="matrix(-1.1214,0,0,1.1214,368.62,-23.716)" stroke-width="8.9176">
<path d="m212.44 159.47-71.532-66.58v70.431l71.532 68.23z" fill="url(#linearGradient1411)" stroke="#00bd00" stroke-linecap="round"/>
<path d="m212.44 159.47 53.374-48.972v71.532l-53.374 49.522z" fill="url(#linearGradient1327)" stroke="#20b520"/>
<path d="m140.91 92.892 53.924-53.924 70.982 71.532-53.374 48.972z" fill="url(#linearGradient863)" stroke="#1fad1f" stroke-linecap="round"/>
</g>
</g>
<g transform="translate(66.74 -1.1667)" stroke-width="5">
<path d="m92.06 39.197v207.3l100.99-103.65z" color="#000000" filter="url(#filter862)" opacity=".83" style="-inkscape-stroke:none;mix-blend-mode:normal"/>
<path d="m80.004 30.5v195l95-97.5z" fill="url(#linearGradient1700)" stroke="url(#linearGradient13092)"/>
</g>
<g transform="matrix(.54101 0 0 .54101 -46.115 70.224)">
<path transform="matrix(3.7796,0,0,3.7796,-255.9,-246.2)" d="m101.32 89.697c-3.2629 0-5.75 2.9582-5.75 6.3851v20.951c0 3.2629 2.9577 5.75 6.3846 5.75h20.317c3.4269 0 6.3846-2.4871 6.3846-5.75s-2.9577-5.75-6.3846-5.75h-4.762c3.8548-4.1291 9.1086-8.8165 14.918-8.8165 1.9603 0 4.9034 1.4478 7.2543 4.2793 2.351 2.8315 4.146 6.9632 4.146 12.147 0 4.871-0.66342 10.173-2.8866 14.146-2.2232 3.9736-5.8356 6.7441-12.498 6.92-4.1429 0.1094-7.9817-0.92419-10.701-2.4045-2.7194-1.4803-4.1134-3.3936-4.1134-4.5858 0-1.9734-0.8365-3.629-2.0758-4.6974s-2.8296-1.5879-4.4142-1.5958c-1.5846-8e-3 -3.2 0.50237-4.4473 1.6195-1.2472 1.1172-2.0567 2.8523-2.0567 4.9625 0 5.2727 3.5471 10.235 8.7209 13.887 5.1738 3.6516 12.071 6.0508 19.252 6.0508 9.8196 0 16.964-4.8102 21.475-11.473 4.5102-6.6625 6.5154-15.133 6.5154-22.83 0-7.2349-2.2952-14.417-6.4611-19.883-4.1659-5.4661-10.283-9.2126-17.691-9.3126-11.068-0.14946-19.987 8.4038-25.375 14.326v-7.9411c0-3.4269-2.4871-6.3851-5.75-6.3851z" color="#000000" color-rendering="auto" dominant-baseline="auto" fill="#212121" filter="url(#filter910)" image-rendering="auto" shape-rendering="auto" solid-color="#000000" stop-color="#000000" style="font-feature-settings:normal;font-variant-alternates:normal;font-variant-caps:normal;font-variant-east-asian:normal;font-variant-ligatures:normal;font-variant-numeric:normal;font-variant-position:normal;font-variation-settings:normal;inline-size:0;isolation:auto;mix-blend-mode:normal;shape-margin:0;shape-padding:0;text-decoration-color:#000000;text-decoration-line:none;text-decoration-style:solid;text-indent:0;text-orientation:mixed;text-transform:none;white-space:normal"/>
<path d="m239.65 93.753c52.785 0.71286 86.417 52.822 86.417 105.41 0 56.448-29.789 124.72-100.86 124.72-52.066 0-100.79-35.106-100.79-70.424 0-27.148 39.24-25.67 39.24-1.0872 0 15.104 27.972 32.222 61.063 31.348 53.158-1.4036 62.955-46.879 62.955-84.556 0-41.469-28.828-67.015-48.024-67.015-28.888 0-52.982 26.441-67.693 43.192h29.301c10.635 0 19.196 7.4914 19.196 16.797 0 9.3055-8.5616 16.797-19.196 16.797h-76.785c-10.635 0-19.196-7.4913-19.196-16.797v-79.185c0-10.635 7.4915-19.196 16.797-19.196 9.3056 0 16.797 8.5616 16.797 19.196v42.667c18.403-21.023 56.109-62.467 100.78-61.863z" fill="url(#linearGradient895-5)" stroke="#039" stroke-width="9.8702"/>
</g>
</svg>
