<svg version="1.1" viewBox="0 0 256 256" xmlns="http://www.w3.org/2000/svg" xmlns:xlink="http://www.w3.org/1999/xlink"><defs><linearGradient id="linearGradient1618" x1="-2.4043" x2="-.60963" y1="8.9617" y2="5.9578" gradientTransform="matrix(0 38.917 -31.556 0 360.81 164.62)" gradientUnits="userSpaceOnUse"><stop stop-color="#2fb119" offset="0"/><stop stop-color="#8df35b" offset="1"/></linearGradient><linearGradient id="linearGradient1194" x1="84.303" x2="178.04" y1="63.064" y2="167.79" gradientTransform="matrix(1.0514 0 0 1.0514 -13.165 -13.506)" gradientUnits="userSpaceOnUse"><stop stop-color="#1d701d" offset="0"/><stop stop-color="#3c3" offset="1"/></linearGradient><filter id="filter1646" x="-.12238" y="-.096644" width="1.2448" height="1.1933" color-interpolation-filters="sRGB"><feGaussianBlur stdDeviation="6.4430098"/></filter></defs><g transform="translate(-12.568)" stroke-linejoin="round" stroke-miterlimit="5.8" stroke-width="5.6038"><path d="m84.247 49.068a2.8022 2.8022 0 0 0-2.8027 2.8027v124.06a2.8022 2.8022 0 0 0 4.8027 1.9609l39.996-40.787c11.067 2.6128 20.423 9.4882 25.787 20.529 5.5908 11.507 6.8984 27.568 0.66016 47.809a2.8022 2.8022 0 0 0 4.3594 3.0684c15.555-11.666 30.183-32.023 35.35-54.625 4.9845-21.807 0.59024-45.86-20.557-64.898l35.135-35.135a2.8022 2.8022 0 0 0-1.9805-4.7832z" color="#000000" fill="#212121" filter="url(#filter1646)" style="-inkscape-stroke:none"/><path d="m145.37 198.27c12.788-41.494-4.989-67.351-29.934-72.34l-41.188 42.001v-124.06h120.75l-37.157 37.157c44.9 37.417 17.461 94.79-12.472 117.24z" fill="url(#linearGradient1618)" stroke="url(#linearGradient1194)"/></g></svg>
