<svg version="1.1" viewBox="0 0 256 256" xmlns="http://www.w3.org/2000/svg" xmlns:xlink="http://www.w3.org/1999/xlink"><defs><filter id="filter1963" x="-.080691" y="-.053051" width="1.1614" height="1.1061" color-interpolation-filters="sRGB"><feGaussianBlur stdDeviation="4.3675709"/></filter><filter id="filter1194" x="-.048" y="-.048" width="1.096" height="1.096" color-interpolation-filters="sRGB"><feGaussianBlur stdDeviation="2.6258984"/></filter></defs><path d="m170.67 47.683c-0.65527 0.0053-1.2823 0.26757-1.7461 0.73047l-53.924 53.926-6e-3 6e-3c-0.0165 0.0173-0.0328 0.0349-0.0488 0.0527-0.0159 0.0167-0.0315 0.0336-0.0469 0.0508l-2e-3 2e-3c-2e-3 3e-3 -4e-3 5e-3 -6e-3 8e-3 -0.0233 0.0256-0.0461 0.0516-0.0684 0.0781-4e-3 5e-3 -8e-3 0.0104-0.0117 0.0156-0.0241 0.0301-0.0476 0.0607-0.0703 0.0918-3e-3 5e-3 -7e-3 9e-3 -0.01 0.0137-0.0216 0.0314-0.0424 0.0633-0.0625 0.0957-0.0452 0.0695-0.0869 0.1412-0.125 0.21484-4e-3 7e-3 -8e-3 0.0143-0.0117 0.0215-9e-3 0.0201-0.0185 0.0403-0.0273 0.0606-0.01 0.02-0.0198 0.0402-0.0293 0.0605-6e-3 0.0149-0.0119 0.0299-0.0176 0.0449-0.0101 0.0233-0.0199 0.0467-0.0293 0.0703-2e-3 6e-3 -4e-3 0.0117-6e-3 0.0176-0.0132 0.0368-0.0256 0.0739-0.0371 0.11133-5e-3 0.0175-0.0106 0.0351-0.0156 0.0527-0.0207 0.0702-0.0383 0.14119-0.0527 0.21289-2e-3 0.0117-4e-3 0.0234-6e-3 0.0352-0.0137 0.0737-0.0241 0.14801-0.0312 0.22266-6.8e-4 5e-3 -1e-3 9e-3 -2e-3 0.0137-3e-3 0.0377-5e-3 0.0755-6e-3 0.11328-2e-3 0.0338-3e-3 0.0677-4e-3 0.10156v70.432c-1.3e-4 0.68322 0.27934 1.3367 0.77344 1.8086l71.533 68.23c0.0255 0.024 0.0516 0.0474 0.0781 0.0703 0.0155 0.0132 0.0311 0.0263 0.0469 0.0391 0.22727 0.19004 0.48651 0.33818 0.76562 0.4375 8e-3 3e-3 0.0156 5e-3 0.0234 8e-3 0.0795 0.0275 0.16033 0.051 0.24219 0.0703 0.0819 0.0191 0.16466 0.0341 0.24805 0.0449 0.0117 1e-3 0.0235 3e-3 0.0352 4e-3 0.21373 0.0243 0.42971 0.021 0.64258-0.01 0.034-5e-3 0.0678-0.01 0.10156-0.0156 0.01-2e-3 0.0195-4e-3 0.0293-6e-3 5e-3 -1e-3 9e-3 -3e-3 0.0137-4e-3 0.38782-0.0791 0.75132-0.24911 1.0606-0.49609 0.0272-0.0216 0.0539-0.0437 0.0801-0.0664 7e-3 -6e-3 0.0144-0.013 0.0215-0.0195 0.0125-0.0109 0.0248-0.022 0.0371-0.0332l53.373-49.521c0.5099-0.47353 0.79938-1.1381 0.79883-1.834v-71.455c2e-3 -0.0697 2e-3 -0.13938-2e-3 -0.20898-6.4e-4 -7e-3 -1e-3 -0.013-2e-3 -0.0195-2e-3 -0.0378-6e-3 -0.0756-0.01-0.11328-0.0186-0.17664-0.0559-0.35081-0.11132-0.51954-2e-3 -5e-3 -4e-3 -0.0104-6e-3 -0.0156-0.0122-0.0368-0.0252-0.0732-0.0391-0.10938-3e-3 -7e-3 -5e-3 -0.013-8e-3 -0.0195-0.0302-0.0758-0.0641-0.15014-0.10156-0.22265-9e-3 -0.0164-0.018-0.0326-0.0273-0.0488-0.012-0.0223-0.0244-0.0445-0.0371-0.0664-0.01-0.0164-0.0194-0.0327-0.0293-0.0488-0.0133-0.0217-0.027-0.0431-0.041-0.0644-0.0102-0.0158-0.0206-0.0314-0.0312-0.0469-0.0146-0.0211-0.0296-0.0419-0.0449-0.0625-0.0116-0.0151-0.0233-0.0301-0.0352-0.0449-0.0153-0.0198-0.031-0.0393-0.0469-0.0586-0.0122-0.0145-0.0246-0.0288-0.0371-0.043l-2e-3 -2e-3c-0.0284-0.0333-0.0577-0.0659-0.0879-0.0977-8e-3 -9e-3 -0.0169-0.017-0.0254-0.0254l-70.981-71.531c-0.47448-0.47774-1.1216-0.74392-1.7949-0.73828z" color="#000000" color-rendering="auto" dominant-baseline="auto" fill="#212121" filter="url(#filter1963)" image-rendering="auto" shape-rendering="auto" solid-color="#000000" stop-color="#000000" style="font-feature-settings:normal;font-variant-alternates:normal;font-variant-caps:normal;font-variant-east-asian:normal;font-variant-ligatures:normal;font-variant-numeric:normal;font-variant-position:normal;font-variation-settings:normal;inline-size:0;isolation:auto;mix-blend-mode:normal;shape-margin:0;shape-padding:0;text-decoration-color:#000000;text-decoration-line:none;text-decoration-style:solid;text-indent:0;text-orientation:mixed;text-transform:none;white-space:normal"/><g transform="translate(-29.143 7.2146)" stroke-linejoin="round" stroke-width="10"><path d="m140.91 92.892 53.924-53.924 70.982 71.532-53.374 48.972z" fill="#fa98fb" stroke="#cf88cf" stroke-linecap="round"/><path d="m212.44 159.47-71.532-66.58v70.431l71.532 68.23z" fill="#d36ed4" stroke="#bc70bd" stroke-linecap="round"/><path d="m212.44 159.47 53.374-48.972v71.532l-53.374 49.522z" fill="#9c3c9d" stroke="#7e2e7e"/></g><path d="m70.646 4c-5.1955 0-9.377 4.1834-9.377 9.3789v29.814a28.134 28.134 0 0 0-2.7266 1.0879l-18.842-18.844c-3.6738-3.6738-9.5899-3.6738-13.264 0s-3.6738 9.5899 0 13.264l18.844 18.844a28.134 28.134 0 0 0-1.0879 2.7246h-29.814c-5.1955 0-9.3789 4.1815-9.3789 9.377 0 5.1955 4.1834 9.3789 9.3789 9.3789h29.814a28.134 28.134 0 0 0 1.0879 2.7246l-18.844 18.844c-3.6738 3.6738-3.6738 9.588 0 13.262s9.5899 3.6738 13.264 0l18.844-18.844a28.134 28.134 0 0 0 2.7246 1.0898v29.814c0 5.1955 4.1815 9.3789 9.377 9.3789 5.1955 0 9.3789-4.1834 9.3789-9.3789v-29.816a28.134 28.134 0 0 0 2.7227-1.0879l18.846 18.844c3.6738 3.6738 9.588 3.6738 13.262 0s3.6738-9.588 0-13.262l-18.844-18.844a28.134 28.134 0 0 0 1.0879-2.7246h29.816c5.1955 0 9.3789-4.1834 9.3789-9.3789 0-5.1955-4.1834-9.377-9.3789-9.377h-29.746a28.134 28.134 0 0 0-1.1367-2.7461l18.822-18.822c3.6738-3.6738 3.6738-9.5899 0-13.264s-9.588-3.6738-13.262 0l-18.822 18.822a28.134 28.134 0 0 0-2.7461-1.1367v-29.744c0-5.1955-4.1834-9.3789-9.3789-9.3789z" fill="#212121" filter="url(#filter1194)"/><g transform="matrix(23.63 0 0 23.63 81.277 -62.521)"><g fill="#f30"><rect transform="rotate(90)" x="2.6458" y=".26458" width="5.5563" height=".79375" rx=".39687" ry=".39687"/><rect transform="rotate(45)" x=".72176" y="3.9062" width="5.2917" height=".79375" rx=".39687" ry=".39687"/><rect x="-3.4396" y="5.0271" width="5.5563" height=".79375" rx=".39687" ry=".39687"/><rect transform="matrix(-.70711 .70711 .70711 .70711 0 0)" x="1.6572" y="2.9707" width="5.2917" height=".79375" rx=".39687" ry=".39687"/></g><g transform="translate(-1.1906)"><circle cx=".52917" cy="5.424" r="1.1906" fill="#fc0"/><circle cx=".52917" cy="5.424" r=".39687" fill="#ff9"/></g></g></svg>
