<svg version="1.1" viewBox="0 0 256 256" xmlns="http://www.w3.org/2000/svg" xmlns:xlink="http://www.w3.org/1999/xlink"><defs><linearGradient id="linearGradient1828"><stop stop-color="#f7f0ab" offset="0"/><stop stop-color="#8a99ae" offset="1"/></linearGradient><linearGradient id="linearGradient1830" x1="68.234" x2="117.11" y1="104" y2="104" gradientUnits="userSpaceOnUse" xlink:href="#linearGradient1828"/><linearGradient id="linearGradient1838" x1="36.643" x2="117.28" y1="136" y2="136" gradientUnits="userSpaceOnUse" xlink:href="#linearGradient1828"/><linearGradient id="linearGradient1846" x1="52.042" x2="117.16" y1="168" y2="168" gradientUnits="userSpaceOnUse" xlink:href="#linearGradient1828"/><filter id="filter1963" x="-.043827" y="-.053051" width="1.0877" height="1.1061" color-interpolation-filters="sRGB"><feGaussianBlur stdDeviation="4.3675709"/></filter><linearGradient id="linearGradient16226"><stop stop-color="#01429d" offset="0"/><stop stop-color="#75a4fd" offset="1"/></linearGradient><linearGradient id="linearGradient1533"><stop stop-color="#69f" offset="0"/><stop stop-color="#fff" offset="1"/></linearGradient><linearGradient id="linearGradient1535" x1="75.104" x2="69.068" y1="82.079" y2="78" gradientTransform="matrix(1.7301 0 0 1.7301 -29.368 -83.003)" gradientUnits="userSpaceOnUse" xlink:href="#linearGradient1533"/><linearGradient id="linearGradient16228" x1="75.393" x2="68.568" y1="81.501" y2="77" gradientTransform="matrix(1.7301 0 0 1.7301 -29.368 -83.003)" gradientUnits="userSpaceOnUse" xlink:href="#linearGradient16226"/><linearGradient id="linearGradient2954" x1="102.57" x2="100.07" y1="-77" y2="-79" gradientTransform="translate(-7 126)" gradientUnits="userSpaceOnUse" xlink:href="#linearGradient1533"/><linearGradient id="linearGradient3236" x1="104.57" x2="99.068" y1="-76.5" y2="-80" gradientTransform="translate(-7 126)" gradientUnits="userSpaceOnUse" xlink:href="#linearGradient16226"/><filter id="filter5343" x="-.048" y="-.048" width="1.096" height="1.096" color-interpolation-filters="sRGB"><feGaussianBlur stdDeviation="4.68"/></filter></defs><g transform="translate(-12.568)"><path d="m126.57 4c-13.111 0-25.92 4.2709-35.773 10.84-9.8534 6.5689-17.227 15.66-17.227 26.16v27h-35c-11.548 0-21 9.4525-21 21v128c0 11.548 9.4525 21 21 21h192c11.548 0 21-9.4525 21-21v-128c0-11.548-9.4525-21-21-21h-35v-27c0-10.5-7.3732-19.591-17.227-26.16-9.8534-6.5689-22.662-10.84-35.773-10.84zm8 34c11.444 0 18.605 1.9933 22.428 4.2871 3.823 2.2938 4.5723 4.3796 4.5723 6.7129v19h-54v-19.08l-4e-3 -0.08203c-0.049-1.5144 0.64692-3.81 4.5527-6.2324 3.906-2.4224 11.073-4.6055 22.451-4.6055z" color="#000000" fill="#212121" filter="url(#filter5343)" stroke-width="10" style="-inkscape-stroke:none"/><g transform="matrix(16 0 0 16 -1391.5 -731)" stroke-width=".625"><path d="m91.568 50v-2c0-1 1.5-2 3-2h1c1.5 0 3 1 3 2v2h-1.5v-1.5c0-0.5-0.5-1-2-1s-2.0143 0.55938-2 1v1.5z" fill="url(#linearGradient2954)" stroke="url(#linearGradient3236)"/><rect x="88.068" y="50" width="14" height="10" rx="1" ry="1" fill="url(#linearGradient1535)" fill-rule="evenodd" stop-color="#000000" stroke="url(#linearGradient16228)" stroke-linecap="round" stroke-linejoin="round"/></g><g transform="matrix(.71527 0 0 .71527 260.53 80.233)"><path d="m-145.4 1.7684a2.5002 2.5002 0 0 0-1.7461 0.73047l-53.924 53.926a2.5002 2.5002 0 0 0-6e-3 0.0059 2.5002 2.5002 0 0 0-0.0488 0.05273 2.5002 2.5002 0 0 0-0.0469 0.05078 2.5002 2.5002 0 0 0-2e-3 2e-3 2.5002 2.5002 0 0 0-6e-3 0.0078 2.5002 2.5002 0 0 0-0.0684 0.07813 2.5002 2.5002 0 0 0-0.0117 0.01563 2.5002 2.5002 0 0 0-0.0703 0.0918 2.5002 2.5002 0 0 0-0.01 0.01367 2.5002 2.5002 0 0 0-0.0625 0.0957 2.5002 2.5002 0 0 0-0.125 0.21484 2.5002 2.5002 0 0 0-0.0117 0.02148 2.5002 2.5002 0 0 0-0.0273 0.06055 2.5002 2.5002 0 0 0-0.0293 0.06055 2.5002 2.5002 0 0 0-0.0176 0.04492 2.5002 2.5002 0 0 0-0.0293 0.07031 2.5002 2.5002 0 0 0-6e-3 0.01758 2.5002 2.5002 0 0 0-0.0371 0.11133 2.5002 2.5002 0 0 0-0.0156 0.05273 2.5002 2.5002 0 0 0-0.0527 0.21289 2.5002 2.5002 0 0 0-6e-3 0.03516 2.5002 2.5002 0 0 0-0.0312 0.22266 2.5002 2.5002 0 0 0-2e-3 0.01367 2.5002 2.5002 0 0 0-6e-3 0.11328 2.5002 2.5002 0 0 0-4e-3 0.10156v70.432a2.5002 2.5002 0 0 0 0.77344 1.8086l71.533 68.23a2.5002 2.5002 0 0 0 0.0781 0.0703 2.5002 2.5002 0 0 0 0.0469 0.0391 2.5002 2.5002 0 0 0 0.76562 0.4375 2.5002 2.5002 0 0 0 0.0234 8e-3 2.5002 2.5002 0 0 0 0.24219 0.0703 2.5002 2.5002 0 0 0 0.24805 0.0449 2.5002 2.5002 0 0 0 0.0352 4e-3 2.5002 2.5002 0 0 0 0.64258-0.01 2.5002 2.5002 0 0 0 0.10156-0.0156 2.5002 2.5002 0 0 0 0.0293-6e-3 2.5002 2.5002 0 0 0 0.0137-4e-3 2.5002 2.5002 0 0 0 1.0606-0.49609 2.5002 2.5002 0 0 0 0.0801-0.0664 2.5002 2.5002 0 0 0 0.0215-0.0195 2.5002 2.5002 0 0 0 0.0371-0.0332l53.373-49.521a2.5002 2.5002 0 0 0 0.79883-1.834v-71.455a2.5002 2.5002 0 0 0-2e-3 -0.20898 2.5002 2.5002 0 0 0-2e-3 -0.0195 2.5002 2.5002 0 0 0-0.01-0.11328 2.5002 2.5002 0 0 0-0.11132-0.51954 2.5002 2.5002 0 0 0-6e-3 -0.0156 2.5002 2.5002 0 0 0-0.0391-0.10938 2.5002 2.5002 0 0 0-8e-3 -0.0195 2.5002 2.5002 0 0 0-0.10156-0.22265 2.5002 2.5002 0 0 0-0.0273-0.0488 2.5002 2.5002 0 0 0-0.0371-0.0664 2.5002 2.5002 0 0 0-0.0293-0.0488 2.5002 2.5002 0 0 0-0.041-0.0644 2.5002 2.5002 0 0 0-0.0312-0.0469 2.5002 2.5002 0 0 0-0.0449-0.0625 2.5002 2.5002 0 0 0-0.0352-0.0449 2.5002 2.5002 0 0 0-0.0469-0.0586 2.5002 2.5002 0 0 0-0.0371-0.043 2.5002 2.5002 0 0 0-2e-3 -2e-3 2.5002 2.5002 0 0 0-0.0879-0.0977 2.5002 2.5002 0 0 0-0.0254-0.0254l-70.981-71.531a2.5002 2.5002 0 0 0-1.7949-0.73828zm-126.58 60.031a7.5 7.5 0 0 0-7.5 7.5 7.5 7.5 0 0 0 7.5 7.5h48.881a7.5 7.5 0 0 0 7.5-7.5 7.5 7.5 0 0 0-7.5-7.5zm-31.59 32a7.5 7.5 0 0 0-7.5 7.5 7.5 7.5 0 0 0 7.5 7.5h80.637a7.5 7.5 0 0 0 7.5-7.5 7.5 7.5 0 0 0-7.5-7.5zm15.398 32a7.5 7.5 0 0 0-7.5 7.5 7.5 7.5 0 0 0 7.5 7.5h65.123a7.5 7.5 0 0 0 7.5-7.5 7.5 7.5 0 0 0-7.5-7.5z" color="#000000" color-rendering="auto" dominant-baseline="auto" fill="#212121" filter="url(#filter1963)" image-rendering="auto" shape-rendering="auto" solid-color="#000000" stop-color="#000000" style="font-feature-settings:normal;font-variant-alternates:normal;font-variant-caps:normal;font-variant-east-asian:normal;font-variant-ligatures:normal;font-variant-numeric:normal;font-variant-position:normal;font-variation-settings:normal;inline-size:0;isolation:auto;mix-blend-mode:normal;shape-margin:0;shape-padding:0;text-decoration-color:#000000;text-decoration-line:none;text-decoration-style:solid;text-indent:0;text-orientation:mixed;text-transform:none;white-space:normal"/><g transform="translate(-328.88 -38.7)"><g transform="translate(-16.331)"><g stroke-linejoin="round" stroke-width="5"><path d="m140.91 92.892 53.924-53.924 70.982 71.532-53.374 48.972z" fill="#fa98fb" stroke="#cf88cf" stroke-linecap="round"/><path d="m212.44 159.47-71.532-66.58v70.431l71.532 68.23z" fill="#d36ed4" stroke="#bc70bd" stroke-linecap="round"/><path d="m212.44 159.47 53.374-48.972v71.532l-53.374 49.522z" fill="#9c3c9d" stroke="#7e2e7e"/></g><g fill="none" stroke-linecap="round" stroke-width="15"><path d="m68.234 104h48.88" stroke="url(#linearGradient1830)"/><path d="m36.643 136h80.638" stroke="url(#linearGradient1838)"/><path d="m52.042 168h65.122" stroke="url(#linearGradient1846)"/></g></g></g></g></g></svg>
