<svg version="1.1" viewBox="0 0 256 256" xmlns="http://www.w3.org/2000/svg" xmlns:xlink="http://www.w3.org/1999/xlink"><defs><linearGradient id="linearGradient22749"><stop stop-color="#7a8ba7" offset="0"/><stop stop-color="#677a95" offset="1"/></linearGradient><linearGradient id="linearGradient16226"><stop stop-color="#775a39" offset="0"/><stop stop-color="#e3be50" offset="1"/></linearGradient><linearGradient id="linearGradient1533"><stop stop-color="#e0b744" offset="0"/><stop stop-color="#f7eda6" offset="1"/></linearGradient><linearGradient id="linearGradient1535" x1="74.269" x2="69.068" y1="82.284" y2="78" gradientTransform="matrix(1.0172 0 0 1.0172 19.034 -100.2)" gradientUnits="userSpaceOnUse" xlink:href="#linearGradient1533"/><linearGradient id="linearGradient16228" x1="74.761" x2="68.568" y1="81.792" y2="77" gradientTransform="matrix(1.0172 0 0 1.0172 19.034 -100.2)" gradientUnits="userSpaceOnUse" xlink:href="#linearGradient16226"/><linearGradient id="linearGradient42772-3" x1="112.07" x2="157.78" y1="116.11" y2="116.11" gradientTransform="matrix(.054692 0 0 .054692 84.438 -26.35)" gradientUnits="userSpaceOnUse" xlink:href="#linearGradient22749"/><linearGradient id="linearGradient42772-3-3" x1="112.07" x2="157.78" y1="116.11" y2="116.11" gradientTransform="matrix(.054692 0 0 .054692 84.438 -24.35)" gradientUnits="userSpaceOnUse" xlink:href="#linearGradient22749"/><filter id="filter923" x="-.041533" y="-.056853" width="1.0831" height="1.1137" color-interpolation-filters="sRGB"><feGaussianBlur stdDeviation="4.1011328"/></filter></defs><g transform="translate(-12.568)" stroke-linecap="round"><path d="m127.96 45.438c-7.9239 0-14.506 6.582-14.506 14.506v49.547h-81.385c-7.9239 0-14.506 6.582-14.506 14.506v80.061c0 7.9239 6.582 14.506 14.506 14.506h112.08c7.9239 0 14.506-6.582 14.506-14.506v-49.547h81.385c7.9239 0 14.508-6.582 14.508-14.506v-80.061c0-7.9239-6.5839-14.506-14.508-14.506z" color="#000000" fill="#212121" fill-rule="evenodd" filter="url(#filter923)" stroke-linejoin="round" stroke-width="13" style="-inkscape-stroke:none"/><g transform="matrix(16.012 0 0 16.012 -1391.3 464.25)" stroke-width=".81189"><g transform="translate(5.9887 -4.0004)"><rect x="88.079" y="-22" width="8" height="6" rx=".5" ry=".5" fill="url(#linearGradient1535)" fill-rule="evenodd" stop-color="#000000" stroke="url(#linearGradient16228)" stroke-linejoin="round"/><path d="m91.068-20h2" fill="none" stroke="url(#linearGradient42772-3)"/><path d="m91.068-18h2" fill="none" stroke="url(#linearGradient42772-3-3)"/></g><rect x="88.079" y="-22" width="8" height="6" rx=".5" ry=".5" fill="url(#linearGradient1535)" fill-rule="evenodd" stop-color="#000000" stroke="url(#linearGradient16228)" stroke-linejoin="round"/><path d="m91.068-20h2" fill="none" stroke="url(#linearGradient42772-3)"/><path d="m91.068-18h2" fill="none" stroke="url(#linearGradient42772-3-3)"/></g></g></svg>
