<svg version="1.1" viewBox="0 0 256 256" xmlns="http://www.w3.org/2000/svg" xmlns:xlink="http://www.w3.org/1999/xlink"><defs><linearGradient id="linearGradient22749"><stop stop-color="#7a8ba7" offset="0"/><stop stop-color="#677a95" offset="1"/></linearGradient><linearGradient id="linearGradient1310" x1="74.269" x2="69.068" y1="82.284" y2="78" gradientTransform="matrix(1.0172 0 0 1.0172 19.034 -100.2)" gradientUnits="userSpaceOnUse"><stop stop-color="#e0b744" offset="0"/><stop stop-color="#f7eda6" offset="1"/></linearGradient><linearGradient id="linearGradient1312" x1="74.761" x2="68.568" y1="81.792" y2="77" gradientTransform="matrix(1.0172 0 0 1.0172 19.034 -100.2)" gradientUnits="userSpaceOnUse"><stop stop-color="#775a39" offset="0"/><stop stop-color="#e3be50" offset="1"/></linearGradient><linearGradient id="linearGradient1314" x1="112.07" x2="157.78" y1="116.11" y2="116.11" gradientTransform="matrix(.054692 0 0 .054692 84.438 -26.35)" gradientUnits="userSpaceOnUse" xlink:href="#linearGradient22749"/><linearGradient id="linearGradient1316" x1="112.07" x2="157.78" y1="116.11" y2="116.11" gradientTransform="matrix(.054692 0 0 .054692 84.438 -24.35)" gradientUnits="userSpaceOnUse" xlink:href="#linearGradient22749"/><linearGradient id="linearGradient1535-6" x1="73.081" x2="69.068" y1="80.634" y2="78" gradientTransform="matrix(1.7301 0 0 1.7301 90.632 -215.5)" gradientUnits="userSpaceOnUse"><stop stop-color="#69f" offset="0"/><stop stop-color="#fff" offset="1"/></linearGradient><linearGradient id="linearGradient16228-0" x1="73.081" x2="68.568" y1="80.056" y2="77" gradientTransform="matrix(1.7301 0 0 1.7301 90.632 -215.5)" gradientUnits="userSpaceOnUse"><stop stop-color="#01429d" offset="0"/><stop stop-color="#75a4fd" offset="1"/></linearGradient><radialGradient id="gradient0-0-0" cx="0" cy="0" r="819.2" gradientTransform="matrix(.0208 0 0 .0208 45.648 27.199)" gradientUnits="userSpaceOnUse"><stop stop-color="#cfc" offset="0"/><stop stop-color="#090" offset="1"/></radialGradient><linearGradient id="gradient1-2-7" x1="-819.2" x2="819.2" gradientTransform="matrix(-7e-4 .0077 .0063 5e-4 47.248 32.349)" gradientUnits="userSpaceOnUse"><stop stop-color="#9cf" offset="0"/><stop stop-color="#9cf" offset=".094118"/><stop stop-color="#fff" offset=".39608"/><stop stop-color="#cff" offset="1"/></linearGradient><radialGradient id="gradient2-5-8" cx="0" cy="0" r="819.2" gradientTransform="matrix(.0277 0 0 .0277 46.398 7.4988)" gradientUnits="userSpaceOnUse"><stop stop-color="#ff9" offset="0"/><stop stop-color="#fc6" offset=".24314"/><stop stop-color="#f93" offset=".71373"/><stop stop-color="#960" offset="1"/></radialGradient><linearGradient id="gradient3-6-1" x1="-819.2" x2="819.2" gradientTransform="matrix(0 .0022 .0096 0 48.098 12.899)" gradientUnits="userSpaceOnUse"><stop stop-color="#f93" offset="0"/><stop stop-color="#f93" offset=".48627"/><stop stop-color="#fc6" offset="1"/></linearGradient><radialGradient id="gradient4-5-1" cx="0" cy="0" r="819.2" gradientTransform="matrix(.016 0 0 .016 46.998 6.5488)" gradientUnits="userSpaceOnUse"><stop stop-color="#f0ddbd" offset="0"/><stop stop-color="#d8a650" offset=".38039"/><stop stop-color="#960" offset=".81961"/><stop stop-color="#926821" offset="1"/></radialGradient><linearGradient id="gradient5-4-4" x1="-819.2" x2="819.2" gradientTransform="matrix(-.0075 .0035 .0026 .0056 48.398 11.299)" gradientUnits="userSpaceOnUse"><stop stop-color="#960" offset="0"/><stop stop-color="#f0ddbd" offset=".34118"/><stop stop-color="#d8a650" offset=".67843"/><stop stop-color="#960" offset="1"/></linearGradient><radialGradient id="gradient6-8-1" cx="0" cy="0" r="819.2" gradientTransform="matrix(.0208 0 0 .0208 27.998 29.649)" gradientUnits="userSpaceOnUse"><stop stop-color="#9cf" offset="0"/><stop stop-color="#5465fd" offset=".62353"/><stop stop-color="#0236b0" offset="1"/></radialGradient><linearGradient id="gradient7-3-2" x1="-819.2" x2="819.2" gradientTransform="matrix(7e-4 .0076 .0063 -5e-4 27.848 34.099)" gradientUnits="userSpaceOnUse"><stop stop-color="#5465fd" offset="0"/><stop stop-color="#9cf" offset=".3098"/><stop stop-color="#cff" offset="1"/></linearGradient><radialGradient id="gradient8-2-5" cx="0" cy="0" r="819.2" gradientTransform="matrix(.0274 0 0 .0274 27.898 9.9988)" gradientUnits="userSpaceOnUse"><stop stop-color="#fc6" offset="0"/><stop stop-color="#f93" offset=".3451"/><stop stop-color="#600" offset="1"/></radialGradient><linearGradient id="gradient9-8-6" x1="-819.2" x2="819.2" gradientTransform="matrix(4e-4 .002 .0096 -.0019 27.748 14.999)" gradientUnits="userSpaceOnUse"><stop stop-color="#900" offset="0"/><stop stop-color="#f93" offset=".92549"/><stop stop-color="#f93" offset="1"/></linearGradient><linearGradient id="gradient10-6-3" x1="-819.2" x2="819.2" gradientTransform="matrix(0 .0139 .0111 0 26.648 19.249)" gradientUnits="userSpaceOnUse"><stop stop-color="#960" offset="0"/><stop stop-color="#600" offset="1"/></linearGradient><radialGradient id="gradient11-4-5" cx="0" cy="0" r="819.2" gradientTransform="matrix(.0264 0 0 .0264 24.648 9.2988)" gradientUnits="userSpaceOnUse"><stop stop-color="#999" offset="0"/><stop stop-color="#666" offset=".18039"/><stop offset=".87843"/><stop offset="1"/></radialGradient><linearGradient id="gradient12-50-4" x1="-819.2" x2="819.2" gradientTransform="matrix(-.0082 .0011 2e-4 .0016 26.098 12.049)" gradientUnits="userSpaceOnUse"><stop stop-color="#333" offset="0"/><stop stop-color="#bdbdbd" offset=".40784"/><stop stop-color="#999" offset=".58431"/><stop stop-color="#333" offset="1"/></linearGradient><filter id="filter1300" x="-.04365" y="-.053313" width="1.0873" height="1.1066" color-interpolation-filters="sRGB"><feGaussianBlur stdDeviation="0.85477725"/></filter><filter id="filter1063" x="-.044675" y="-.05186" width="1.0893" height="1.1037" color-interpolation-filters="sRGB"><feGaussianBlur stdDeviation="4.5217969"/></filter></defs><g transform="translate(-12.568)"><path d="m133.89 27.368c-7.9239 0-14.506 6.582-14.506 14.506v69.756h-95.32a6.5006 6.5006 0 0 0-6.5 6.5v112a6.5006 6.5006 0 0 0 6.5 6.5h160a6.5006 6.5006 0 0 0 6.5-6.5v-93.689h55.412c7.9239 0 14.506-6.5839 14.506-14.508v-80.059c0-7.9239-6.582-14.506-14.506-14.506z" color="#000000" fill="#212121" fill-rule="evenodd" filter="url(#filter1063)" stroke-linecap="round" stroke-linejoin="round" stroke-width="13" style="-inkscape-stroke:none"/><g transform="translate(0 -18.317)"><g transform="matrix(16.012 0 0 16.012 -1289.4 400.44)" stroke-linecap="round" stroke-width=".81189"><rect x="88.079" y="-22" width="8" height="6" rx=".5" ry=".5" fill="url(#linearGradient1310)" fill-rule="evenodd" stop-color="#000000" stroke="url(#linearGradient1312)" stroke-linejoin="round"/><path d="m91.068-20h2" fill="none" stroke="url(#linearGradient1314)"/><path d="m91.068-18h2" fill="none" stroke="url(#linearGradient1316)"/></g><g transform="matrix(16 0 0 16 -3310 1452.4)"><rect x="208.07" y="-82.5" width="10" height="7" fill="url(#linearGradient1535-6)" fill-rule="evenodd" stop-color="#000000" stroke="url(#linearGradient16228-0)" stroke-linecap="round" stroke-linejoin="round" stroke-width=".8125"/><g transform="matrix(.027065 0 0 .027065 209.36 -82.473)"><g transform="matrix(5.2062 0 0 5.2062 17.877 4.5541)" filter="url(#filter1300)"><path d="m34.973 4.7516c-2.6302 0.014452-4.8472 1.1603-6.502 3.334-1.5803 1.9083-2.4843 4.3844-2.7129 7.3848-0.24863 3.1967 0.28491 6.075 1.6152 8.5918 0.3668 0.69693 0.82093 1.239 1.2734 1.7832-0.31426 0.06953-0.62352 0.13331-0.95508 0.22656-2.5566 0.71045-4.4013 1.7517-5.4707 3.2031-0.03075 0.04142-0.05174 0.08164-0.08008 0.12305-0.62058-0.26564-1.2631-0.52102-2.0098-0.72852h-2e-3c-0.0068-0.0019-9e-3 -0.0021-0.01563-0.0039l-0.0078-0.04492c0.53176-0.6056 1.0588-1.2179 1.4844-2.0098v-2e-3c1.3655-2.551 1.9206-5.4646 1.6719-8.6972-0.17991-2.416-0.79202-4.498-1.8281-6.2422-0.88996-2.0112-2.5154-3.4267-4.7617-4.168-0.59403-0.21759-1.219-0.36636-1.8711-0.44727-3.9e-5 -6.3e-6 -0.0053 5.57e-5 -0.0059 0-5.85e-4 -5.72e-5 -0.0048-0.00185-0.0059-0.00195h-2e-3c-0.02467-0.00396-0.0553-2e-3 -0.08008-0.00586-1e-3 -9.5e-6 -0.0031-1.65e-5 -0.0039 0-0.83859-0.13029-1.7327-0.20898-2.709-0.20898-2.6976 0-5.1962 1.0739-7.418 3.1523l-0.00183 2e-3c-2.0742 1.9669-3.4797 4.3466-4.1953 7.1016-0.75132 2.8979-0.543 5.4842 0.67187 7.6562 1.3628 2.4657 3.8305 3.9581 7.2188 4.4609-0.91314 0.41455-1.8207 0.84583-2.6582 1.459-1.7375 1.2669-3.0626 2.9608-3.9609 5.0449-0.97295 2.2702-1.0402 4.2804-0.072266 5.8711 0.30721 0.52026 0.87473 0.76558 1.6523 0.98828 0.7787 0.22301 1.8058 0.38878 3.1055 0.51172h0.00586c2.4926 0.21064 5.2394 0.19151 8.2402-0.05273h2e-3c3.3889-0.29268 6.0637-0.7577 8.0508-1.4141 1.7803-0.58806 2.9511-1.3663 3.6172-2.3652 1.9483 0.56206 4.2252 0.9774 6.9941 1.1836 3.0004 0.27855 5.7495 0.29673 8.2441 0.05078 1.2984-0.1229 2.3253-0.28938 3.1035-0.51172 0.77756-0.22216 1.345-0.46585 1.6523-0.98633 0.96794-1.5907 0.90069-3.6009-0.07227-5.8711v-2e-3l-2e-3 -2e-3c-0.89816-2.0478-2.2218-3.7193-3.9551-4.9844-0.78752-0.58887-1.6407-1.0157-2.5-1.4258 0.30406-0.26256 0.61202-0.50153 0.90625-0.81641l2e-3 -2e-3c1.8687-2.0125 3.1222-4.548 3.7617-7.5664v-2e-3c0.20963-0.97146 0.32435-1.901 0.36328-2.7988h-0.39453l0.39844-0.0098 0.06055-2e-3c-4e-5 -0.0068 4.9e-5 -0.01272 0-0.01953-1.9e-4 -0.0044-0.0017-0.0035-2e-3 -0.0078-4e-3 -0.51766-0.03301-1.0074-0.07422-1.4805v-0.0098c-0.0093-0.12986-0.02262-0.24841-0.0332-0.35547l-2e-3 -0.0039v-2e-3c-0.01619-0.14766-0.03356-0.2994-0.05469-0.45117v-2e-3c-0.02665-0.19368-0.05626-0.39062-0.09375-0.58789-0.04474-0.24562-0.09541-0.48017-0.15039-0.70898l-2e-3 -0.0039-2e-3 -0.0059-2e-3 -2e-3c-0.86832-3.5978-3.2131-5.9418-6.8359-6.8027h-2e-3c-0.314-0.074303-0.6386-0.13918-0.97242-0.19295h-0.0059c-0.55158-0.081392-1.0883-0.122-1.6093-0.11914z" color="#000000" color-rendering="auto" dominant-baseline="auto" fill="#212121" image-rendering="auto" shape-rendering="auto" solid-color="#000000" stop-color="#000000" style="font-feature-settings:normal;font-variant-alternates:normal;font-variant-caps:normal;font-variant-east-asian:normal;font-variant-ligatures:normal;font-variant-numeric:normal;font-variant-position:normal;font-variation-settings:normal;inline-size:0;isolation:auto;mix-blend-mode:normal;shape-margin:0;shape-padding:0;text-decoration-color:#000000;text-decoration-line:none;text-decoration-style:solid;text-indent:0;text-orientation:mixed;text-transform:none;white-space:normal"/></g><g transform="matrix(5.4073 0 0 5.4073 -61.43 -2.9989)"><path d="m38.148 37.699q3 1.05 7.7 1.4 4.3 0.4 7.85 0.05 3.7-0.35 4.2-1.2 1.25-2.05-0.1-5.2-1.25-2.85-3.65-4.6-5.55-4.15-13.55-1.9-3.6 1-5 2.9-1.45 1.95-1.1 5.55 0.2 1.8 3.65 3" fill="url(#gradient0-0-0)" fill-rule="evenodd"/><path d="m38.148 37.699q-3.45-1.2-3.65-3-0.35-3.6 1.1-5.55 1.4-1.9 5-2.9 8-2.25 13.55 1.9 2.4 1.75 3.65 4.6 1.35 3.15 0.1 5.2-0.5 0.85-4.2 1.2-3.55 0.35-7.85-0.05-4.7-0.35-7.7-1.4z" fill="none" stroke="#060" stroke-linecap="round" stroke-linejoin="round"/><path d="m52.298 27.199q-2.35-1.4-5.6-1.4l-3.25-0.2-1.45 0.2q-0.95 5.6 2.35 12.45 4.2-7.3 7.95-11.05" fill="url(#gradient1-2-7)" fill-rule="evenodd"/><path d="m52.298 27.199q-3.75 3.75-7.95 11.05-3.3-6.85-2.35-12.45l1.45-0.2 3.25 0.2q3.25 0 5.6 1.4z" fill="none" stroke="#060" stroke-linecap="round" stroke-linejoin="round"/><path d="m46.298 27.849q3.4 0.45 6.25-2.6 2.6-2.8 3.5-7.05 0.95-4.4-0.6-7.7-1.7-3.75-6.1-4.5-4.55-0.8-7.35 2.3-2.55 2.7-2.9 7.3-0.35 4.5 1.5 8 2 3.8 5.7 4.25" fill="url(#gradient2-5-8)" fill-rule="evenodd"/><path d="m46.298 27.849q-3.7-0.45-5.7-4.25-1.85-3.5-1.5-8 0.35-4.6 2.9-7.3 2.8-3.1 7.35-2.3 4.4 0.75 6.1 4.5 1.55 3.3 0.6 7.7-0.9 4.25-3.5 7.05-2.85 3.05-6.25 2.6z" fill="none" stroke="#960" stroke-linecap="round" stroke-linejoin="round"/><g fill-rule="evenodd"><path d="m55.948 14.499q-2.3-5.1-8.25-2.85-5.1 1.95-7.45-0.4 4.05 5.2 8.25 2.8 3.25-1.85 7.45 0.45" fill="url(#gradient3-6-1)"/><path d="m56.448 15.599q-0.05-8.55-7.5-9.75-6.1-0.9-8.9 5.65 1.1 1.35 3.75 1.85 1.4 0.3 2.6-0.25 1.85-0.85 3.95-1.15 2.9-0.4 4.7 1.3 1.35 1.2 1.4 2.35" fill="url(#gradient4-5-1)"/><path d="m44.728 13.182 2.7028-0.87643c1.1-0.53333 2.0225-0.85919 3.2892-0.85919 2.8333 0 4.6277 0.95235 5.2277 3.4523 0.33333-2.2-0.6-3.7667-2.8-4.7-2.4-1.0333-4.45-1.1667-6.15-0.4l-1.75 1.05c-0.63333 0.43333-1.1167 0.68333-1.45 0.75-0.93333 0.23333-1.6333 0.23333-2.1 0l-0.4-0.3-0.3-0.15c0-0.5-0.13333-0.53333-0.4-0.1-0.26667 0.46667-0.28333 0.8-0.05 1 0.4 0.33333 1.0333 0.6 1.9 0.8" fill="url(#gradient5-4-4)"/></g><path d="m56.389 15.6c-0.03333-0.76667-0.44148-1.5516-1.3415-2.3516-1.2-1.1333-2.7667-1.5667-4.7-1.3-1.4 0.2-2.7167 0.58333-3.95 1.15-0.8 0.36667-1.6667 0.45-2.6 0.25-1.7667-0.33333-3.0167-0.95-3.75-1.85 1.8667-4.3667 4.8333-6.25 8.9-5.65 4.9667 0.8 7.4082 4.0516 7.4415 9.7516z" fill="none" stroke="#960" stroke-linecap="round" stroke-linejoin="round"/><path d="m19.948 41.649q3.55 0.3 7.85-0.05 11-0.95 11.35-4.45 0.35-3.55-1.1-5.5-1.4-1.9-5-2.9-7.95-2.25-13.55 1.85-2.4 1.75-3.65 4.65-1.35 3.15-0.1 5.2 0.5 0.85 4.2 1.2" fill="url(#gradient6-8-1)" fill-rule="evenodd"/><path d="m19.948 41.649q3.55 0.3 7.85-0.05 11-0.95 11.35-4.45 0.35-3.55-1.1-5.5-1.4-1.9-5-2.9-7.95-2.25-13.55 1.85-2.4 1.75-3.65 4.65-1.35 3.15-0.1 5.2 0.5 0.85 4.2 1.2z" fill="none" stroke="#0236b0" stroke-linecap="round" stroke-linejoin="round"/><path d="m27.998 28.499q-3.25 0-5.6 1.4 3.75 3.75 8.05 10.8 3.2-6.6 2.25-12.2l-1.45-0.2-3.25 0.2" fill="url(#gradient7-3-2)" fill-rule="evenodd"/><path d="m27.998 28.499q-3.25 0-5.6 1.4 3.75 3.75 8.05 10.8 3.2-6.6 2.25-12.2l-1.45-0.2z" fill="none" stroke="#0236b0" stroke-linecap="round" stroke-linejoin="round"/><g fill-rule="evenodd"><path d="m25.048 8.5488q-4.4 0.75-6.15 4.45-1.55 3.25-0.65 7.55 0.9 4.2 3.5 6.95 2.8 3 6.2 2.6 3.7-0.45 5.7-4.25 1.9-3.45 1.55-7.85-0.35-4.55-2.8-7.2-2.85-3.05-7.35-2.25" fill="url(#gradient8-2-5)"/><path d="m35.298 15.649q-1.15-4.45-8.25-1.55-5.1 2.1-8.2 1.45 5.8 2.2 9.95 0.25 3.1-1.5 6.5-0.15" fill="url(#gradient9-8-6)"/><path d="m35.698 17.949q-0.35-4.7-2.95-7.5-2.95-3.25-7.75-2.4-4.6 0.8-6.45 4.65-1.65 3.4-0.7 7.9 0.9 4.4 3.65 7.25 2.95 3.1 6.55 2.65 3.95-0.45 6.1-4.45 1.9-3.55 1.55-8.1m-0.9 0.05q0.3 4.3-1.45 7.6-1.95 3.55-5.4 4-3.2 0.4-5.85-2.45-2.5-2.7-3.35-6.7-0.85-4.15 0.6-7.25 1.65-3.55 5.8-4.25 4.3-0.7 6.95 2.1 2.4 2.55 2.7 6.95" fill="url(#gradient10-6-3)"/><path d="m34.698 14.949q-0.7-7.2-9.35-7.2-3.7 0-6.8 2.9-2.9 2.75-3.9 6.6-1.05 4.05 0.6 7 1.85 3.35 6.6 4.05 2.1 0.1 2.65-0.9-4.45-0.85-3.85-6.55 0.2-2.1 1.05-3.9 0.85-1.75 1.65-1.85 1.95-0.2 4.1-1.2 1.85-0.9 3.35-0.85 3 0.05 3.9 1.9" fill="url(#gradient11-4-5)"/></g><path d="m34.698 14.949q-0.7-7.2-9.35-7.2-3.7 0-6.8 2.9-2.9 2.75-3.9 6.6-1.05 4.05 0.6 7 1.85 3.35 6.6 4.05 2.1 0.1 2.65-0.9-4.45-0.85-3.85-6.55 0.2-2.1 1.05-3.9 0.85-1.75 1.65-1.85 1.95-0.2 4.1-1.2 1.85-0.9 3.35-0.85 3 0.05 3.9 1.9z" fill="none" stroke="#000" stroke-linecap="round" stroke-linejoin="round"/><path d="m27.848 12.199q1.25-0.7 3.35-0.3l1.55 0.25q-0.95-1.8-3-1.95-1.7-0.1-3.5 0.9-1.15 0.65-3.35 1.35l-3.15 0.8q-0.85 0.1-0.3 0.3l1.8 0.2q3.75 0.1 6.6-1.55" fill="url(#gradient12-50-4)" fill-rule="evenodd"/></g></g></g></g></g></svg>
