<svg version="1.1" viewBox="0 0 256 256" xmlns="http://www.w3.org/2000/svg" xmlns:xlink="http://www.w3.org/1999/xlink"><defs><linearGradient id="linearGradient988" x1="90.467" x2="91.578" y1="89.249" y2="89.818" gradientTransform="matrix(12.442 0 0 12.442 -1068.8 -1009.6)" gradientUnits="userSpaceOnUse"><stop stop-color="#fff2d8" offset="0"/><stop stop-color="#ffed7d" offset=".54039"/><stop stop-color="#ff6c64" offset="1"/></linearGradient><linearGradient id="linearGradient909-3" x1="91.199" x2="91.34" y1="90.82" y2="90.924" gradientTransform="matrix(12.442 0 0 12.442 -1068.8 -1009.6)" gradientUnits="userSpaceOnUse"><stop stop-color="#ffed7d" offset="0"/><stop stop-color="#ff6c64" offset="1"/></linearGradient><linearGradient id="linearGradient901-2" x1="90.615" x2="92.124" y1="89.431" y2="90.205" gradientTransform="matrix(12.442 0 0 12.442 -1068.8 -1009.6)" gradientUnits="userSpaceOnUse"><stop stop-color="#e5b300" offset="0"/><stop stop-color="#a86c00" offset="1"/></linearGradient><filter id="filter1680" x="-.051087" y="-.045265" width="1.1022" height="1.0905" color-interpolation-filters="sRGB"><feGaussianBlur stdDeviation="1.1900365"/></filter></defs><g transform="matrix(3.7779 0 0 3.7779 .73097 4.994)"><path d="m23.171 1.0583a0.66153 0.66153 0 0 0-0.60926 0.40618l-15.273 36.584a0.66153 0.66153 0 0 0 0.69505 0.91261l23.371-3.0432-14.385 27.266a0.66153 0.66153 0 0 0 1.0547 0.77566l38.981-39.121a0.66153 0.66153 0 0 0-0.54725-1.1229l-19.998 2.3668 1.4356-1.3441 25.029-22.527a0.66153 0.66153 0 0 0-0.44338-1.1524z" fill="#212121" filter="url(#filter1680)"/><g transform="matrix(1.7059 0 0 1.7059 -83.725 -161.23)" stroke-width=".77549"><path d="m61.887 94.901h23.043l-15.911 14.896-2.1626 4.7601-13.923 1.7891z" fill="url(#linearGradient988)"/><path d="m61.019 111.04 20.087-2.5774-22.511 22.65 8.5561-16.596-8.3214 0.81958z" fill="url(#linearGradient909-3)"/><path d="m61.887 94.901h23.043l-16.46 14.814 12.975-1.5351-22.851 22.933 8.7805-16.645-14.442 1.8797z" fill="none" stroke="url(#linearGradient901-2)" stroke-linecap="round" stroke-linejoin="round" stroke-width="1.5516"/></g></g></svg>
