<svg version="1.1" viewBox="0 0 256 256" xmlns="http://www.w3.org/2000/svg"><defs><filter id="filter29937" x="-.060488" y="-.039786" width="1.121" height="1.0796" color-interpolation-filters="sRGB"><feGaussianBlur stdDeviation="3.6714369"/></filter></defs><g transform="translate(-12.568)"><path d="m155.13 21.18a2.8037 2.8037 0 0 0-1.9844 0.82812l-79.598 80.215a2.8037 2.8037 0 0 0-0.15039 0.26563 2.8037 2.8037 0 0 0-0.32812 0.58398 2.8037 2.8037 0 0 0-0.24414 0.81445 2.8037 2.8037 0 0 0-0.0918 0.31056v80.215a2.8037 2.8037 0 0 0 0.89648 2.0547l59.854 55.533a2.8037 2.8037 0 0 0 0.43945 0.2168 2.8037 2.8037 0 0 0 0.69727 0.34179 2.8037 2.8037 0 0 0 0.78515 0.0899 2.8037 2.8037 0 0 0 0.7793-0.0957 2.8037 2.8037 0 0 0 0.70508-0.35742 2.8037 2.8037 0 0 0 0.43555-0.22265l80.215-76.512a2.8037 2.8037 0 0 0 0.86719-2.0293v-78.981a2.8037 2.8037 0 0 0-0.0137-0.18359 2.8037 2.8037 0 0 0-0.01-0.14453 2.8037 2.8037 0 0 0-0.11328-0.52539 2.8037 2.8037 0 0 0-0.0449-0.11914 2.8037 2.8037 0 0 0-0.21289-0.45117 2.8037 2.8037 0 0 0-0.041-0.07422 2.8037 2.8037 0 0 0-0.34766-0.43945 2.8037 2.8037 0 0 0-0.0371-0.04492l-60.471-60.469a2.8037 2.8037 0 0 0-1.9863-0.82031z" color="#000000" fill="#212121" filter="url(#filter29937)" style="-inkscape-stroke:none"/><g transform="matrix(-1.1214 0 0 1.1214 368.62 -23.716)" stroke-linejoin="round" stroke-width="5"><path d="m140.91 92.892 53.924-53.924 70.982 71.532-53.374 48.972z" fill="#99cdff" stroke="#7db2e5" stroke-linecap="round"/><path d="m212.44 159.47-71.532-66.58v70.431l71.532 68.23z" fill="#039" stroke="#3e4b7b" stroke-linecap="round"/><path d="m212.44 159.47 53.374-48.972v71.532l-53.374 49.522z" fill="#5b9bd8" stroke="#4362b8"/></g></g></svg>
