<svg version="1.1" viewBox="0 0 16 16" xmlns="http://www.w3.org/2000/svg" xmlns:xlink="http://www.w3.org/1999/xlink"><defs><linearGradient id="linearGradient1158" x1="155.07" x2="169.24" y1="156" y2="156" gradientTransform="matrix(.42574 0 0 .42574 -63.595 -58.843)" gradientUnits="userSpaceOnUse"><stop stop-color="#6ea7ff" offset="0"/><stop stop-color="#004db0" offset="1"/></linearGradient><linearGradient id="linearGradient980" x1="151.62" x2="156.43" y1="153.66" y2="158.32" gradientTransform="matrix(.42574 0 0 .42574 -63.595 -58.843)" gradientUnits="userSpaceOnUse" xlink:href="#linearGradient879"/><linearGradient id="linearGradient879"><stop stop-color="#71a8fc" offset="0"/><stop stop-color="#004db0" offset="1"/></linearGradient><radialGradient id="radialGradient990-3" cx="153.03" cy="154.38" r="4" gradientTransform="matrix(.66738 .65891 -.59821 .6059 .048374 -187.78)" gradientUnits="userSpaceOnUse"><stop stop-color="#fff" offset="0"/><stop stop-color="#d9e7ff" offset=".5"/><stop stop-color="#659bff" offset="1"/></radialGradient><linearGradient id="linearGradient1550" x1="151.62" x2="156.43" y1="153.66" y2="158.32" gradientTransform="matrix(.85145 0 0 .85145 -120.38 -125.34)" gradientUnits="userSpaceOnUse" xlink:href="#linearGradient879"/><filter id="filter6935" x="-.083099" y="-.15421" width="1.1662" height="1.3084" color-interpolation-filters="sRGB"><feGaussianBlur stdDeviation="0.51152344"/></filter></defs><path d="m11.303 4.4197c-1.9594 0-3.6017 1.4415-3.9219 3.3145h-3.041c-0.29829-0.72493-1.0136-1.2402-1.8418-1.2402-1.0932 0-1.9902 0.89706-1.9902 1.9902 0 1.0932 0.89706 1.9902 1.9902 1.9902 0.82817 0 1.5435-0.5153 1.8418-1.2402h3.0723c0.38694 1.7905 1.9901 3.1465 3.8906 3.1465 2.1863 0 3.9785-1.7942 3.9785-3.9805 0-2.1863-1.7922-3.9805-3.9785-3.9805z" color="#000000" fill="#212121" filter="url(#filter6935)" style="-inkscape-stroke:none;mix-blend-mode:normal"/><g transform="translate(0 .51176)"><path d="m7.4132 7.5724h-4.9887" fill="none" stroke="url(#linearGradient1158)" stroke-width="1.5"/><circle cx="1.9988" cy="7.5724" r="1.4901" fill="#9dbfee" fill-rule="evenodd" stroke="url(#linearGradient980)" stroke-linecap="round" stroke-linejoin="round"/><circle cx="10.802" cy="7.4882" r="2.9801" fill="url(#radialGradient990-3)" fill-rule="evenodd" stroke="url(#linearGradient1550)" stroke-linecap="round" stroke-linejoin="round" stroke-width="2"/></g></svg>
