<svg version="1.1" viewBox="0 0 256 256" xmlns="http://www.w3.org/2000/svg" xmlns:xlink="http://www.w3.org/1999/xlink"><defs><linearGradient id="linearGradient1404" x1="25.541" x2="237.3" y1="36.45" y2="197.57" gradientTransform="matrix(.094118 0 0 .094118 11.414 27.649)" gradientUnits="userSpaceOnUse"><stop stop-color="#c29500" offset="0"/><stop stop-color="#b27702" offset="1"/></linearGradient><linearGradient id="linearGradient38998" x1="131.54" x2="82.017" y1="235.08" y2="44.275" gradientTransform="matrix(.094118 0 0 .094118 11.414 27.649)" gradientUnits="userSpaceOnUse"><stop stop-color="#edc700" offset="0"/><stop stop-color="#fff08c" offset="1"/></linearGradient><filter id="filter166714" x="-.040743" y="-.058402" width="1.0815" height="1.1168" color-interpolation-filters="sRGB"><feGaussianBlur stdDeviation="4.1008789"/></filter></defs><g transform="translate(-12.568)"><path d="m23.568 47.838a6.0006 6.0006 0 0 0-6 6v156.52a6.0006 6.0006 0 0 0 6 6h229.56a6.0006 6.0006 0 0 0 6-6v-156.52a6.0006 6.0006 0 0 0-6-6z" fill="#212121" fill-rule="evenodd" filter="url(#filter166714)" stop-color="#000000"/><g transform="matrix(10.435 0 0 10.435 -117.79 -273.74)" stroke-width="1.15"><rect x="13.068" y="31" width="22" height="15" fill="url(#linearGradient38998)" fill-rule="evenodd" stop-color="#000000"/><g fill="none" stroke-width="1.15"><g stroke="#c29500"><path d="m13.068 46 6.5-8"/><path d="m13.068 31 7.5 8c2.272 2.4235 4.692 2.4619 7 0l7.5-8"/><path d="m28.568 38 6.5 8"/></g><rect x="13.068" y="31" width="22" height="15" stop-color="#000000" stroke="url(#linearGradient1404)" stroke-linecap="round" stroke-linejoin="round"/></g></g></g></svg>
