<svg version="1.1" viewBox="0 0 256 256" xmlns="http://www.w3.org/2000/svg" xmlns:xlink="http://www.w3.org/1999/xlink"><defs><linearGradient id="linearGradient8884"><stop stop-color="#6f8097" offset="0"/><stop stop-color="#485b75" offset="1"/></linearGradient><linearGradient id="linearGradient1045" x1="1573.6" x2="1579.6" y1="-10.5" y2="-10.5" gradientUnits="userSpaceOnUse" xlink:href="#linearGradient8884"/><linearGradient id="linearGradient8706" x1="1573.6" x2="1584.6" y1="-10.5" y2="-10.5" gradientTransform="translate(-6 3)" gradientUnits="userSpaceOnUse" xlink:href="#linearGradient8884"/><linearGradient id="linearGradient20419" x1="1573.6" x2="1579.6" y1="-10.5" y2="-10.5" gradientTransform="translate(-2 6)" gradientUnits="userSpaceOnUse" xlink:href="#linearGradient8884"/><linearGradient id="linearGradient20442" x1="1574.6" x2="1579.6" y1="-10.5" y2="-10.5" gradientTransform="translate(-9 6)" gradientUnits="userSpaceOnUse" xlink:href="#linearGradient8884"/><filter id="filter893" x="-.037714" y="-.066" width="1.0754" height="1.132" color-interpolation-filters="sRGB"><feGaussianBlur stdDeviation="3.4571484"/></filter></defs><g transform="translate(-12.568)"><path d="m35.568 69.143v47.143h110v-47.143zm133.57 15.715a7.8572 7.8572 0 0 0-7.8574 7.8574 7.8572 7.8572 0 0 0 7.8574 7.8574h78.572a7.8572 7.8572 0 0 0 7.8574-7.8574 7.8572 7.8572 0 0 0-7.8574-7.8574zm-94.285 47.143a7.8572 7.8572 0 0 0-7.8574 7.8574 7.8572 7.8572 0 0 0 7.8574 7.8574h157.14a7.8572 7.8572 0 0 0 7.8574-7.8574 7.8572 7.8572 0 0 0-7.8574-7.8574zm-31.43 47.143a7.8572 7.8572 0 0 0-7.8555 7.8574 7.8572 7.8572 0 0 0 7.8555 7.8574h62.857a7.8572 7.8572 0 0 0 7.8574-7.8574 7.8572 7.8572 0 0 0-7.8574-7.8574zm94.287 0a7.8572 7.8572 0 0 0-7.8574 7.8574 7.8572 7.8572 0 0 0 7.8574 7.8574h78.57a7.8572 7.8572 0 0 0 7.8574-7.8574 7.8572 7.8572 0 0 0-7.8574-7.8574z" fill-rule="evenodd" filter="url(#filter893)" stop-color="#000000"/><g transform="matrix(15.714 0 0 15.714 -24571 253.71)"><rect x="1565.6" y="-12" width="7" height="3" fill="#5fe916" fill-rule="evenodd" stop-color="#000000"/><g fill="none" stroke-linecap="round" stroke-width="1px"><path d="m1574.1-10.5h5" stroke="url(#linearGradient1045)"/><path d="m1572.1-4.5h5" stroke="url(#linearGradient20419)"/><path d="m1566.1-4.5h4" stroke="url(#linearGradient20442)"/><path d="m1568.1-7.5h10" stroke="url(#linearGradient8706)"/><path d="m1567.1-10.5h4" stroke="#000"/></g></g></g></svg>
