<svg version="1.1" viewBox="0 0 256 256" xmlns="http://www.w3.org/2000/svg" xmlns:xlink="http://www.w3.org/1999/xlink"><defs><linearGradient id="linearGradient1535" x1="75.891" x2="69.068" y1="83.422" y2="78" gradientTransform="matrix(18.598 0 0 18.598 -1198.8 -1363)" gradientUnits="userSpaceOnUse"><stop stop-color="#69f" offset="0"/><stop stop-color="#fff" offset="1"/></linearGradient><linearGradient id="linearGradient16228" x1="76.034" x2="68.568" y1="83.354" y2="77" gradientTransform="matrix(18.598 0 0 18.598 -1198.8 -1363)" gradientUnits="userSpaceOnUse"><stop stop-color="#01429d" offset="0"/><stop stop-color="#75a4fd" offset="1"/></linearGradient><linearGradient id="linearGradient1844" x1="121.8" x2="166.22" y1="116.11" y2="116.11" gradientTransform="translate(-.74173)" gradientUnits="userSpaceOnUse"><stop stop-color="#0060d1" offset="0"/><stop stop-color="#004699" offset="1"/></linearGradient><linearGradient id="linearGradient42772" x1="122.48" x2="167.26" y1="116.11" y2="116.11" gradientTransform="translate(-.74173 35.122)" gradientUnits="userSpaceOnUse"><stop stop-color="#015fcf" offset="0"/><stop stop-color="#014398" offset="1"/></linearGradient><filter id="filter143601" x="-.043814" y="-.05307" width="1.0876" height="1.1061" color-interpolation-filters="sRGB"><feGaussianBlur stdDeviation="3.5380281"/></filter></defs><g transform="translate(-12.568)" stroke-linecap="round"><path d="m71.202 52c-12.368 0-22.535 10.168-22.535 22.535v114.93c0 12.368 10.168 22.535 22.535 22.535h148.73c12.368 0 22.535-10.168 22.535-22.535v-114.93c0-12.368-10.168-22.535-22.535-22.535z" color="#000000" fill="#212121" fill-rule="evenodd" filter="url(#filter143601)" stroke-linejoin="round" stroke-width="13.521"/><g transform="matrix(1.1268 0 0 1.1268 -21.327 -20.531)"><rect x="63.682" y="66.822" width="160" height="130" rx="14" ry="14" fill="url(#linearGradient1535)" fill-rule="evenodd" stop-color="#000000" stroke="url(#linearGradient16228)" stroke-linejoin="round" stroke-width="12"/><path d="m121.18 116.11h45" fill="none" stroke="url(#linearGradient1844)" stroke-width="14"/><path d="m121.18 151.24h45" fill="none" stroke="url(#linearGradient42772)" stroke-width="14"/></g></g></svg>
