<svg version="1.1" viewBox="0 0 256 256" xmlns="http://www.w3.org/2000/svg" xmlns:xlink="http://www.w3.org/1999/xlink"><defs><radialGradient id="radialGradient2978" cx="-40.702" cy="2.8634" r="12.032" gradientTransform="translate(-24 4.5)" gradientUnits="userSpaceOnUse"><stop stop-color="#fffcf5" offset="0"/><stop stop-color="#fde673" offset=".35728"/><stop stop-color="#e2971a" offset=".62598"/><stop stop-color="#faca48" offset=".91689"/><stop stop-color="#fdc931" offset="1"/></radialGradient><linearGradient id="linearGradient69704" x1="-34.932" x2="-30.932" y1="23.5" y2="27.5" gradientTransform="translate(-51.5)" gradientUnits="userSpaceOnUse"><stop stop-color="#fffefd" offset="0"/><stop stop-color="#fbd7a2" offset=".112"/><stop stop-color="#ba8323" offset=".28"/><stop stop-color="#f7de44" offset=".64"/><stop stop-color="#fccd04" offset=".82"/><stop stop-color="#fca500" offset="1"/></linearGradient><radialGradient id="radialGradient154102" cx="-64.67" cy="9.8947" r="12.031" gradientTransform="matrix(.56508 -.84746 .81984 .54666 -35.305 -50.693)" gradientUnits="userSpaceOnUse"><stop stop-color="#faf9da" stop-opacity="0" offset="0"/><stop stop-color="#fbf638" stop-opacity="0" offset=".17431"/><stop stop-color="#fcf996" stop-opacity="0" offset=".75"/><stop stop-color="#fefdf4" offset="1"/></radialGradient><filter id="filter200459" x="-.14872" y="-.14124" width="1.2974" height="1.2825" color-interpolation-filters="sRGB"><feGaussianBlur stdDeviation="0.48638432"/></filter><linearGradient id="linearGradient200488" x1="-69.947" x2="-74.671" y1="17.448" y2="12.582" gradientUnits="userSpaceOnUse"><stop stop-color="#f7ad40" offset="0"/><stop stop-color="#fdca60" offset="1"/></linearGradient><radialGradient id="radialGradient237897" cx="-60.813" cy="8.0397" r="12.031" gradientTransform="matrix(.2791 -.48341 .42559 .24571 -51.477 -27.008)" gradientUnits="userSpaceOnUse"><stop stop-color="#faf527" offset="0"/><stop stop-color="#faf527" offset=".61025"/><stop stop-color="#fefdf4" stop-opacity="0" offset="1"/></radialGradient><linearGradient id="linearGradient305365" x1="-97.932" x2="-51.932" y1="19.001" y2="19.001" gradientUnits="userSpaceOnUse"><stop stop-color="#cb6534" offset="0"/><stop stop-color="#e7a143" offset="1"/></linearGradient><filter id="filter1603" x="-.077033" y="-.034861" width="1.1541" height="1.0697" color-interpolation-filters="sRGB"><feGaussianBlur stdDeviation="2.1867195"/></filter></defs><g transform="translate(-12.568)"><path d="m72.939 101.21c-8.3688 0-16.737 3.189-23.115 9.5664-12.755 12.756-12.755 33.475 0 46.23a1.3045 1.3045 0 0 0 2e-3 4e-3c0.45111 0.4477 0.91551 0.87195 1.3848 1.2891 0.4435 0.50126 0.89935 0.99503 1.3789 1.4746a1.3045 1.3045 0 0 0 0.0039 4e-3c1.3343 1.3242 2.7552 2.4986 4.2695 3.5625l0.01367 77.424a1.3045 1.3045 0 0 0 0.38281 0.92187l9.2227 9.2246 0.16602 0.16602a1.3045 1.3045 0 0 0 0.8457 0.38086l4.916 0.29297a1.3045 1.3045 0 0 0 1-0.38086l8.752-8.7617a1.3045 1.3045 0 0 0 0.38086-0.92188v-3.1484l1.4629-1.4629a1.3045 1.3045 0 0 0 0-1.8437l-2.7656-2.7676-5.5352-5.5332 6.457-6.457a1.3045 1.3045 0 0 0 0-1.8438l-0.92188-0.92187 2.7656-2.7676a1.3045 1.3045 0 0 0 0-1.8457l-6.4551-6.4551 0.92188-0.92188a1.3045 1.3045 0 0 0 0-1.8457l-0.92188-0.92188 8.3008-8.3008a1.3045 1.3045 0 0 0 0-1.8438l-5.5352-5.5352 1.8457-1.8438a1.3045 1.3045 0 0 0 0-1.8457l-1.8457-1.8438 3.6895-3.6894a1.3045 1.3045 0 0 0 0.38281-0.91406l0.05859-9.0801c5.4054-1.4912 10.372-4.3021 14.371-8.2773a1.3045 1.3045 0 0 0 2e-3 -2e-3c12.755-12.756 12.755-33.475 0-46.23-0.46268-0.46266-0.939-0.90294-1.4219-1.332-0.43278-0.48756-0.87678-0.96855-1.3438-1.4355-6.3778-6.3774-14.746-9.5664-23.115-9.5664zm-0.92383 25.115c1.0331 0 2.0568 0.27417 2.998 0.76563 1.2845 2.4581 0.91946 5.5356-1.1523 7.6074-2.0722 2.0722-5.1491 2.4358-7.6074 1.1504-1.2835-2.4578-0.92098-5.5341 1.1504-7.6055 1.2789-1.2789 2.945-1.918 4.6113-1.918z" color="#000000" fill="#212121" fill-rule="evenodd" filter="url(#filter1603)" stroke-linecap="round" stroke-linejoin="round" stroke-width="2.6087" style="-inkscape-stroke:none"/><g transform="matrix(1.8446 -1.8446 1.8446 1.8446 171.11 -4.7531)"><g><g fill-rule="evenodd"><path d="m-64.464-2c-6.6446 1.833e-4 -12.031 5.3867-12.031 12.031 0.0046 1.212 0.14731 2.3558 0.51172 3.5117v0l-21.449 21.457v3.5904l1.2529 1.412 4.7471-0.0024 1-1h1v-5h4v-1h2v-4h1v-1h5v-3.5h1.5v-1.5h2.5l2.7353-2.7001c1.874 1.1442 4.0294 1.7559 6.2334 1.7626 6.6446-1.84e-4 12.031-5.3867 12.031-12.031-1.83e-4 -6.6446-5.3866-12.031-12.031-12.031zm0.03125 7c1.6569 0 3 1.3431 3 3 0 1.6569-1.3431 3-3 3s-3-1.3431-3-3c0-1.6569 1.3431-3 3-3z" fill="url(#linearGradient305365)" stop-color="#000000" stroke="#876d23" stroke-linecap="round" stroke-linejoin="round"/><path d="m-64.464-3.5a12.032 12.032 0 0 0-12.031 12.031 12.032 12.032 0 0 0 12.031 12.031 12.032 12.032 0 0 0 12.031-12.031 12.032 12.032 0 0 0-12.031-12.031zm0.03125 7a3 3 0 0 1 3 3 3 3 0 0 1-3 3 3 3 0 0 1-3-3 3 3 0 0 1 3-3z" fill="url(#radialGradient2978)" stop-color="#000000"/><path d="m-64.464-3.5a12.032 12.032 0 0 0-12.031 12.031 12.032 12.032 0 0 0 12.031 12.031 12.032 12.032 0 0 0 12.031-12.031 12.032 12.032 0 0 0-12.031-12.031zm0.03125 7a3 3 0 0 1 3 3 3 3 0 0 1-3 3 3 3 0 0 1-3-3 3 3 0 0 1 3-3z" fill="url(#radialGradient154102)" stop-color="#000000"/></g><path d="m-75.432 12-22 21.5v5h6l1-1h1v-5h4v-1h2v-4h1v-1h5v-3.5h1.5v-1.5h2.5l2.9093-3.3105" fill="url(#linearGradient69704)"/><path d="m-64.464-3.5a12.032 12.032 0 0 0-12.031 12.031 12.032 12.032 0 0 0 12.031 12.031 12.032 12.032 0 0 0 12.031-12.031 12.032 12.032 0 0 0-12.031-12.031zm0.03125 7a3 3 0 0 1 3 3 3 3 0 0 1-3 3 3 3 0 0 1-3-3 3 3 0 0 1 3-3z" fill="url(#radialGradient237897)" fill-rule="evenodd" stop-color="#000000"/><path d="m-76.039 13.185 2.0858-1.8938 5.7634 5.7387-3.123 2.526z" fill="url(#linearGradient200488)" filter="url(#filter200459)" style="mix-blend-mode:normal"/></g><path transform="translate(12.568)" d="m-77.031-3.5c-6.6446 1.833e-4 -12.031 5.3867-12.031 12.031 0.0046 1.212 0.14731 2.3558 0.51172 3.5117v0l-21.449 21.457v5h6l1-1h1v-5h4v-1h2v-4h1v-1h5v-3.5h1.5v-1.5h2.5l2.7353-2.7001c1.874 1.1442 4.0294 1.7559 6.2334 1.7626 6.6446-1.84e-4 12.031-5.3867 12.031-12.031-1.83e-4 -6.6446-5.3866-12.031-12.031-12.031zm0.03125 7c1.6569 0 3 1.3431 3 3s-1.3431 3-3 3-3-1.3431-3-3 1.3431-3 3-3z" fill="none" stop-color="#000000" stroke="#876d23" stroke-linecap="round" stroke-linejoin="round"/></g></g></svg>
