<svg version="1.1" viewBox="0 0 256 256" xmlns="http://www.w3.org/2000/svg"><defs><linearGradient id="linearGradient1404" x1="25.541" x2="237.3" y1="36.45" y2="197.57" gradientTransform="matrix(.094118 0 0 .094118 11.414 27.649)" gradientUnits="userSpaceOnUse"><stop stop-color="#c29500" offset="0"/><stop stop-color="#b27702" offset="1"/></linearGradient><linearGradient id="linearGradient38998" x1="131.54" x2="82.017" y1="235.08" y2="44.275" gradientTransform="matrix(.094118 0 0 .094118 11.414 27.649)" gradientUnits="userSpaceOnUse"><stop stop-color="#edc700" offset="0"/><stop stop-color="#fff08c" offset="1"/></linearGradient><filter id="filter1089" x="-.040965" y="-.057953" width="1.0819" height="1.1159" color-interpolation-filters="sRGB"><feGaussianBlur stdDeviation="2.414668"/></filter></defs><path transform="matrix(.89615 0 0 .89615 -.05748 25.165)" d="m10.812 152.6a5.5695 5.5695 0 0 0-5.5703 5.5684v88.861a5.5695 5.5695 0 0 0 5.5703 5.5684h130.33a5.5695 5.5695 0 0 0 5.5684-5.5684v-88.861a5.5695 5.5695 0 0 0-5.5684-5.5684z" fill="#212121" filter="url(#filter1089)" stroke-width="11.138"/><g transform="matrix(5.3089 0 0 5.3089 -64.226 -1.2577)" stroke-width="1.5069"><rect x="13.068" y="31" width="22" height="15" fill="url(#linearGradient38998)" fill-rule="evenodd" stop-color="#000000"/><g fill="none"><g stroke="#c29500"><path d="m13.068 46 6.5-8"/><path d="m13.068 31 7.5 8c2.272 2.4235 4.692 2.4619 7 0l7.5-8"/><path d="m28.568 38 6.5 8"/></g><rect x="13.068" y="31" width="22" height="15" stop-color="#000000" stroke="url(#linearGradient1404)" stroke-linecap="round" stroke-linejoin="round"/></g></g></svg>
