<svg version="1.1" viewBox="0 0 256 256" xmlns="http://www.w3.org/2000/svg"><defs><style id="current-color-scheme" type="text/css">.ColorScheme-Text {
        color:#232629;
      }</style><filter id="filter1174" x="-.047102" y="-.048933" width="1.0942" height="1.0979" color-interpolation-filters="sRGB"><feGaussianBlur stdDeviation="2.5269977"/></filter></defs><path transform="matrix(.73978 0 0 .73978 -.27703 -.17934)" d="m69.465 4a2.4697 2.4697 0 0 0-2.2539 1.459l-41.703 93.035a2.4697 2.4697 0 0 0-2e-3 0.0059c-3.9078 8.7783-7.277 14.551-9.5117 16.932-2.3141 2.4082-5.1705 3.8571-8.8926 4.418a2.4697 2.4697 0 0 0-2.1015 2.4433v3.1797a2.4697 2.4697 0 0 0 2.4688 2.4688h38.779a2.4697 2.4697 0 0 0 2.4707-2.4688v-3.1797a2.4697 2.4697 0 0 0-2.2832-2.4629c-5.9685-0.45044-9.879-1.4396-10.363-1.7266a2.4697 2.4697 0 0 0-0.0098-6e-3c-1.9829-1.1639-2.7363-2.4888-2.7363-5.0918 0-1.9254 0.68254-4.797 2.207-8.3945l2e-3 -6e-3c0.0016-4e-3 0.0023-6e-3 0.0039-0.01l4.25-9.8437h37.932l5.5508 13.029c0.79773 1.8804 1.4098 3.3528 1.8281 4.3984 0.41875 1.0466 0.68211 1.9269 0.61328 1.6172a2.4697 2.4697 0 0 0 0.05469 0.20898c0.27697 0.87708 0.40234 1.682 0.40234 2.4375 0 1.0921-0.21184 1.4568-0.84766 1.9277-1.0641 0.72119-3.8391 1.4512-8.1191 1.4512h-2.3203a2.4697 2.4697 0 0 0-2.4688 2.4707v3.1797a2.4697 2.4697 0 0 0 2.4688 2.4688h56.404a2.4697 2.4697 0 0 0 2.4707-2.4688v-3.1797a2.4697 2.4697 0 0 0-2.2715-2.4629c-3.1818-0.2566-5.3429-1.1405-6.7891-2.459a2.4697 2.4697 0 0 0 0-2e-3c-1.883-1.7156-5.3272-7.3336-9.291-16.279l-4e-3 -6e-3 -42.043-95.609a2.4697 2.4697 0 0 0-2.2598-1.4746zm-10.438 47.906 13.645 31.543h-27.693z" color="#000000" fill="#212121" filter="url(#filter1174)" stroke-linecap="round" stroke-linejoin="round" stroke-width="4.939" style="-inkscape-stroke:none"/><path d="m47.412 1.6475-30.851 68.825c-2.926 6.573-5.3851 10.921-7.3782 13.041-1.9931 2.0779-4.5381 3.3504-7.6337 3.8168v2.3523h28.688v-2.3523c-4.4951-0.33924-7.3152-0.84878-8.4601-1.5273-1.9507-1.145-2.9262-2.9256-2.9262-5.3428 0-1.8234 0.59403-4.1355 1.7814-6.9343l3.6256-8.3958h30.47l4.5791 10.75c1.1874 2.7988 1.8236 4.3887 1.9085 4.7703 0.25444 0.80572 0.38256 1.5905 0.38256 2.3538 0 1.2722-0.46736 2.2477-1.4003 2.9262-1.357 0.9329-3.7098 1.4003-7.0599 1.4003h-1.7172v2.3523h41.727v-2.3523c-2.6292-0.21202-4.6646-0.97638-6.1064-2.291-1.9083-1.7387-4.347-5.958-7.3155-12.658l-31.105-70.734zm-7.6965 29.069 12.85 29.706h-26.08z" fill="#379dff" stroke="#0062ff" stroke-linecap="round" stroke-linejoin="round" stroke-width="3.6537"/></svg>
