<svg version="1.1" viewBox="0 0 256 256" xmlns="http://www.w3.org/2000/svg" xmlns:xlink="http://www.w3.org/1999/xlink"><defs><linearGradient id="linearGradient1167" x1="5.0488" x2="9.9312" y1="275.86" y2="210.54" gradientTransform="matrix(.89332 0 0 .89332 -4.1333 54.127)" gradientUnits="userSpaceOnUse"><stop stop-color="#ffdb11" offset="0"/><stop stop-color="#ffffc7" offset="1"/></linearGradient><filter id="filter2143" x="-.048" y="-.048" width="1.096" height="1.096" color-interpolation-filters="sRGB"><feGaussianBlur stdDeviation="2.2213676"/></filter><linearGradient id="linearGradient2172" x1="16.782" x2="21.509" y1="309.85" y2="235.67" gradientUnits="userSpaceOnUse"><stop stop-color="#8d7100" offset="0"/><stop stop-color="#cea500" offset="1"/></linearGradient></defs><path d="m196.05 140.94a5.0005 5.0005 0 0 0-3.5371 1.4629l-50.533 50.535a5.0005 5.0005 0 0 0 0 7.0703l50.533 50.535a5.0005 5.0005 0 0 0 7.0723 0l50.535-50.535a5.0005 5.0005 0 0 0 0-7.0703l-50.535-50.535a5.0005 5.0005 0 0 0-3.5352-1.4629z" color="#000000" fill="#212121" fill-rule="evenodd" filter="url(#filter2143)" stroke-linecap="round" stroke-linejoin="round" stroke-width="10" style="-inkscape-stroke:none"/><rect transform="rotate(-45)" x="-36.736" y="235.46" width="71.465" height="71.465" fill="url(#linearGradient1167)" fill-rule="evenodd" stop-color="#000000" stroke="url(#linearGradient2172)" stroke-linecap="round" stroke-linejoin="round" stroke-width="10"/></svg>
