<svg version="1.1" viewBox="0 0 256 256" xmlns="http://www.w3.org/2000/svg" xmlns:xlink="http://www.w3.org/1999/xlink"><defs><linearGradient id="linearGradient8413"><stop stop-color="#ff2aee" offset="0"/><stop stop-color="#ff92f7" offset="1"/></linearGradient><linearGradient id="linearGradient8415" x1="54.447" x2="19.57" y1="78.589" y2="16.451" gradientUnits="userSpaceOnUse" xlink:href="#linearGradient8413"/><filter id="filter8644" x="-.047118" y="-.048915" width="1.0942" height="1.0978" color-interpolation-filters="sRGB"><feGaussianBlur stdDeviation="1.9370313"/></filter></defs><path d="m4.826 5.9959a1.8272 1.8272 0 0 0-1.8262 1.8262v2.4395a1.8272 1.8272 0 0 0 1.6211 1.8145c3.2371 0.36878 5.1015 1.2761 5.8457 2.1797a1.8272 1.8272 0 0 0 0.01953 0.02344c0.35995 0.42201 1.3506 2.0478 2.5684 4.5156 1.2177 2.4678 2.7525 5.8441 4.5898 10.109a1.8272 1.8272 0 0 0 0 2e-3l30.637 71.025a1.8272 1.8272 0 0 0 1.6777 1.1035h2.1758a1.8272 1.8272 0 0 0 1.6641-1.0762l30.77-68.258a1.8272 1.8272 0 0 0 2e-3 -0.0039c3.619-8.0667 6.4471-13.236 7.9609-15.043 2.3287-2.6863 4.8067-4.1373 7.5977-4.5898a1.8272 1.8272 0 0 0 1.5352-1.8027v-2.4395a1.8272 1.8272 0 0 0-1.8281-1.8262h-29.32a1.8272 1.8272 0 0 0-1.8262 1.8262v2.4395a1.8272 1.8272 0 0 0 1.8262 1.8262c2.9728 0 5.2708 0.37187 6.8398 0.99219a1.8272 1.8272 0 0 0 0.01367 0.0039c1.0939 0.42344 1.7839 0.96802 2.2559 1.6465 0.49014 0.70458 0.72656 1.4563 0.72656 2.4492 0 0.88439-0.19858 2.1157-0.64844 3.6289-0.41597 1.3992-1.7102 4.6392-3.8086 9.4043l-15.951 35.771-17.396-40.629a1.8272 1.8272 0 0 0-2e-3 -0.0039c-2.0142-4.6853-3.2198-7.6449-3.498-8.4785-0.30856-0.96875-0.4375-1.7468-0.4375-2.2637 0-0.79082 0.12652-1.0046 0.68555-1.3691a1.8272 1.8272 0 0 0 0.03711-0.02344c0.76132-0.52341 3.1599-1.1289 6.873-1.1289h1.4492a1.8272 1.8272 0 0 0 1.8262-1.8262v-2.4395a1.8272 1.8272 0 0 0-1.8262-1.8262z" color="#000000" filter="url(#filter8644)" stroke-linecap="round" stroke-linejoin="round" stroke-width="3.654" style="-inkscape-stroke:none"/><g transform="matrix(.95009 0 0 .95009 .10511 3.1764)" fill="url(#linearGradient8415)" stroke="#ae0079" stroke-linecap="round" stroke-linejoin="round" stroke-width="3.8459" aria-label="V"><path d="m101.81 2.7857v2.5659q-5.1318 0.83218-9.154 5.4785-2.9126 3.4674-8.6685 16.297l-32.386 71.845h-2.2885l-32.247-74.757q-5.8252-13.523-7.8363-15.881-1.9417-2.3578-7.4203-2.982v-2.5659h45.076v2.5659h-1.5257q-6.1026 0-8.3218 1.5257-1.595 1.0402-1.595 3.0513 0 1.2483 0.55478 2.982 0.55478 1.6644 3.7448 9.0846l20.042 46.81 18.585-41.678q3.3287-7.5589 4.0915-10.125 0.76283-2.5659 0.76283-4.3689 0-2.0804-1.1096-3.6755-1.1096-1.595-3.2594-2.4272-2.982-1.1789-7.9057-1.1789v-2.5659z" fill="url(#linearGradient8415)" stroke="#ae0079" stroke-linecap="round" stroke-linejoin="round" stroke-width="3.8459"/></g></svg>
