<svg version="1.1" viewBox="0 0 256 256" xmlns="http://www.w3.org/2000/svg" xmlns:xlink="http://www.w3.org/1999/xlink"><defs><linearGradient id="linearGradient1052" x1="-87.408" x2="-87.408" y1="213.57" y2="198.56" gradientUnits="userSpaceOnUse"><stop stop-color="#0068e5" offset="0"/><stop stop-color="#8098ff" offset="1"/></linearGradient><filter id="filter1066" x="-.049642" y="-.046463" width="1.0993" height="1.0929" color-interpolation-filters="sRGB"><feGaussianBlur stdDeviation="0.29054693"/></filter></defs><g transform="translate(-12.568)"><g transform="matrix(13.993 0 0 13.993 1365.6 -2751.9)" fill="#212121" filter="url(#filter1066)" aria-label="{ }"><path d="m-89.701 213.61h-0.42969q-0.64844 0-1.125-0.125-0.46875-0.11719-0.82031-0.58594-0.34375-0.46093-0.4375-1.0938-0.08594-0.63281-0.08594-1.8516t-0.08594-1.8047q-0.08594-0.58593-0.4375-0.98437-0.34375-0.40625-1.0938-0.42188v-1.2734q0.75-0.0156 1.0938-0.41407 0.35156-0.40625 0.4375-0.99218 0.08594-0.58594 0.08594-1.8047t0.08594-1.8516q0.09375-0.63282 0.4375-1.0938 0.35156-0.46875 0.82031-0.58594 0.47656-0.125 1.125-0.125h0.42969v1.2188h-0.24219q-0.8125 0-1 0.42969-0.17969 0.42968-0.17969 2.3203 0 1.6953-0.44531 2.4766-0.44531 0.78125-1.3516 1.0625 0.90625 0.27344 1.3516 1.0547 0.44531 0.78125 0.44531 2.4766 0 1.8906 0.17969 2.3203 0.1875 0.42969 1 0.42969h0.24219z"/><path d="m-89.318 210.25"/><path d="m-84.685 198.6h0.42969q0.64844 0 1.1172 0.125 0.47656 0.11719 0.82031 0.58594 0.35156 0.46093 0.4375 1.0938 0.09375 0.63281 0.09375 1.8516t0.08594 1.8047q0.08594 0.58593 0.42969 0.99218 0.35156 0.39844 1.1016 0.41407v1.2734q-0.75 0.0156-1.1016 0.42188-0.34375 0.39844-0.42969 0.98437-0.08594 0.58594-0.08594 1.8047t-0.09375 1.8516q-0.08594 0.63282-0.4375 1.0938-0.34375 0.46875-0.82031 0.58594-0.46875 0.125-1.1172 0.125h-0.42969v-1.2188h0.24219q0.8125 0 0.99219-0.42969 0.1875-0.42968 0.1875-2.3203 0-1.6953 0.44531-2.4766 0.44531-0.78125 1.3516-1.0547-0.90625-0.28125-1.3516-1.0625-0.44531-0.78125-0.44531-2.4766 0-1.8906-0.1875-2.3203-0.17969-0.42969-0.99219-0.42969h-0.24219z"/></g><g transform="matrix(13.993 0 0 13.993 1360.6 -2755.9)" fill="url(#linearGradient1052)" aria-label="{ }"><path d="m-89.701 213.61h-0.42969q-0.64844 0-1.125-0.125-0.46875-0.11719-0.82031-0.58594-0.34375-0.46093-0.4375-1.0938-0.08594-0.63281-0.08594-1.8516t-0.08594-1.8047q-0.08594-0.58593-0.4375-0.98437-0.34375-0.40625-1.0938-0.42188v-1.2734q0.75-0.0156 1.0938-0.41407 0.35156-0.40625 0.4375-0.99218 0.08594-0.58594 0.08594-1.8047t0.08594-1.8516q0.09375-0.63282 0.4375-1.0938 0.35156-0.46875 0.82031-0.58594 0.47656-0.125 1.125-0.125h0.42969v1.2188h-0.24219q-0.8125 0-1 0.42969-0.17969 0.42968-0.17969 2.3203 0 1.6953-0.44531 2.4766-0.44531 0.78125-1.3516 1.0625 0.90625 0.27344 1.3516 1.0547 0.44531 0.78125 0.44531 2.4766 0 1.8906 0.17969 2.3203 0.1875 0.42969 1 0.42969h0.24219z"/><path d="m-89.318 210.25"/><path d="m-84.685 198.6h0.42969q0.64844 0 1.1172 0.125 0.47656 0.11719 0.82031 0.58594 0.35156 0.46093 0.4375 1.0938 0.09375 0.63281 0.09375 1.8516t0.08594 1.8047q0.08594 0.58593 0.42969 0.99218 0.35156 0.39844 1.1016 0.41407v1.2734q-0.75 0.0156-1.1016 0.42188-0.34375 0.39844-0.42969 0.98437-0.08594 0.58594-0.08594 1.8047t-0.09375 1.8516q-0.08594 0.63282-0.4375 1.0938-0.34375 0.46875-0.82031 0.58594-0.46875 0.125-1.1172 0.125h-0.42969v-1.2188h0.24219q0.8125 0 0.99219-0.42969 0.1875-0.42968 0.1875-2.3203 0-1.6953 0.44531-2.4766 0.44531-0.78125 1.3516-1.0547-0.90625-0.28125-1.3516-1.0625-0.44531-0.78125-0.44531-2.4766 0-1.8906-0.1875-2.3203-0.17969-0.42969-0.99219-0.42969h-0.24219z"/></g></g></svg>
