<svg version="1.1" viewBox="0 0 256 256" xmlns="http://www.w3.org/2000/svg" xmlns:xlink="http://www.w3.org/1999/xlink"><defs><linearGradient id="linearGradient927"><stop stop-color="#208aff" offset="0"/><stop stop-color="#8fc5ff" offset="1"/></linearGradient><linearGradient id="linearGradient919"><stop stop-color="#1f8aff" offset="0"/><stop stop-color="#f1f8ff" offset="1"/></linearGradient><linearGradient id="linearGradient1111" x1="-56.432" x2="-56.432" y1="44" y2="12.5" gradientTransform="translate(-4,5.5)" gradientUnits="userSpaceOnUse" xlink:href="#linearGradient919"/><linearGradient id="linearGradient1113" x1="-48.432" x2="-48.432" y1="42.5" y2="12" gradientTransform="translate(-4,5.5)" gradientUnits="userSpaceOnUse" xlink:href="#linearGradient927"/><linearGradient id="linearGradient1115" x1="-41.932" x2="-41.932" y1="17" y2="5" gradientTransform="translate(-3.5,5.5)" gradientUnits="userSpaceOnUse" xlink:href="#linearGradient919"/><linearGradient id="linearGradient1117" x1="-39.432" x2="-58.932" y1="17" y2="-11" gradientTransform="translate(-3.5,5.5)" gradientUnits="userSpaceOnUse" xlink:href="#linearGradient927"/><linearGradient id="linearGradient1119" x1="-48.432" x2="-48.432" y1="16.5" y2="44.5" gradientTransform="translate(10.5,5)" gradientUnits="userSpaceOnUse"><stop stop-color="#014b80" offset="0"/><stop stop-color="#3db3fd" offset="1"/></linearGradient><linearGradient id="linearGradient1121" x1="19.568" x2="3.0677" y1="8" y2="2" gradientTransform="translate(-85,1.5)" gradientUnits="userSpaceOnUse"><stop stop-color="#ffcf1e" offset="0"/><stop stop-color="#fff8ed" offset="1"/></linearGradient><linearGradient id="linearGradient1123" x1="21.07" x2="21.07" y1="10.055" y2="36.931" gradientTransform="translate(-85.5,1)" gradientUnits="userSpaceOnUse"><stop stop-color="#ff9316" offset="0"/><stop stop-color="#ffc82f" offset="1"/></linearGradient><linearGradient id="linearGradient1125" x1="18.036" x2="18.036" y1="9.9348" y2="37.748" gradientTransform="translate(-85.5,1)" gradientUnits="userSpaceOnUse"><stop stop-color="#ff8c10" offset="0"/><stop stop-color="#ffa225" offset="1"/></linearGradient><filter id="filter1212" x="-.050891" y="-.045419" width="1.1018" height="1.0908" color-interpolation-filters="sRGB"><feGaussianBlur stdDeviation="4.5798038"/></filter><linearGradient id="linearGradient135223"><stop stop-color="#889d46" offset="0"/><stop stop-color="#4e5f20" offset="1"/></linearGradient><linearGradient id="linearGradient98871"><stop stop-color="#254177" offset="0"/><stop stop-color="#9bbadd" offset="1"/></linearGradient><linearGradient id="linearGradient2574" x1="-30.953" x2="-47.788" y1="11.537" y2="-4.166" gradientUnits="userSpaceOnUse"><stop stop-color="#c91200" offset="0"/><stop stop-color="#fd581a" offset="1"/></linearGradient><linearGradient id="linearGradient45897" x1="-1.6315" x2="29.084" y1="-22.743" y2="-22.743" gradientUnits="userSpaceOnUse"><stop stop-color="#556b9c" offset="0"/><stop stop-color="#6c96ca" offset=".3"/><stop stop-color="#1e1e69" offset="1"/></linearGradient><linearGradient id="linearGradient98873" x1="1.311" x2="1.311" y1="-17.354" y2="-40.554" gradientUnits="userSpaceOnUse" xlink:href="#linearGradient98871"/><linearGradient id="linearGradient109036" x1="-.43229" x2="29.568" y1="17.5" y2="17.5" gradientUnits="userSpaceOnUse"><stop stop-color="#8cbb27" offset="0"/><stop stop-color="#8ecb42" offset=".3"/><stop stop-color="#506e14" offset="1"/></linearGradient><linearGradient id="linearGradient135225" x1="5.5677" x2="14.568" y1="10" y2="22.5" gradientUnits="userSpaceOnUse" xlink:href="#linearGradient135223"/><linearGradient id="linearGradient156985" x1="-55.145" x2="-2.8497" y1="-10.98" y2="41.145" gradientUnits="userSpaceOnUse"><stop stop-color="#ffde2e" offset="0"/><stop stop-color="#c75627" offset=".45122"/><stop stop-color="#fec001" offset=".6272"/><stop stop-color="#fec001" offset=".87069"/><stop stop-color="#e5ab00" offset="1"/></linearGradient><linearGradient id="linearGradient223860" x1="-46.372" x2="-4.4603" y1="-19.953" y2="21.966" gradientUnits="userSpaceOnUse"><stop stop-color="#d1aa5a" offset="0"/><stop stop-color="#8e5229" offset=".56323"/><stop stop-color="#dab255" offset=".77317"/><stop stop-color="#dab255" offset="1"/></linearGradient><linearGradient id="linearGradient277620" x1="-116.63" x2="-84.132" y1="20.532" y2="20.532" gradientUnits="userSpaceOnUse"><stop stop-color="#1e1e69" offset="0"/><stop stop-color="#6c96ca" offset=".7"/><stop stop-color="#556b9c" offset="1"/></linearGradient><linearGradient id="linearGradient277669" x1="-116.63" x2="-84.132" y1="20.532" y2="20.532" gradientUnits="userSpaceOnUse" xlink:href="#linearGradient98871"/><linearGradient id="linearGradient277928" x1="-115.43" x2="-84.932" y1="-15" y2="-15" gradientUnits="userSpaceOnUse"><stop stop-color="#506e14" offset="0"/><stop stop-color="#8ecb42" offset=".7"/><stop stop-color="#8cbb27" offset="1"/></linearGradient><linearGradient id="linearGradient278186" x1="-94.432" x2="-98.432" y1="-24" y2="-5.5" gradientUnits="userSpaceOnUse" xlink:href="#linearGradient135223"/><filter id="filter1281" x="-.038461" y="-.063831" width="1.0769" height="1.1277" color-interpolation-filters="sRGB"><feGaussianBlur stdDeviation="3.8840627"/></filter><linearGradient id="linearGradient1414" x1="-49.969" x2="-26.589" y1="-17.76" y2="6.3805" gradientUnits="userSpaceOnUse"><stop stop-color="#f04629" offset="0"/><stop stop-color="#8f1d0a" offset="1"/></linearGradient></defs><g transform="translate(-12.568)"><path d="m167.61 3.9999a2.6024 2.6024 0 0 0-0.82031 0.16016l-49.441 18.215a2.6024 2.6024 0 0 0-1.4922 3.4648l-1.7363-0.78906a2.6024 2.6024 0 0 0-1.0508-0.23438 2.6024 2.6024 0 0 0-0.97657 0.18164l-72.861 28.623a2.6024 2.6024 0 0 0-0.01172 0.0059 2.6024 2.6024 0 0 0-0.02734 0.0098 2.6024 2.6024 0 0 0-0.45312 0.24219 2.6024 2.6024 0 0 0-0.01563 0.01172 2.6024 2.6024 0 0 0-0.20508 0.15234 2.6024 2.6024 0 0 0-2e-3 2e-3 2.6024 2.6024 0 0 0-0.08594 0.07617 2.6024 2.6024 0 0 0-0.01563 0.01367 2.6024 2.6024 0 0 0-0.08203 0.08008 2.6024 2.6024 0 0 0-0.07617 0.07813 2.6024 2.6024 0 0 0-0.02344 0.02734 2.6024 2.6024 0 0 0-0.04492 0.05273 2.6024 2.6024 0 0 0-0.04297 0.05273 2.6024 2.6024 0 0 0-0.0059 0.0078 2.6024 2.6024 0 0 0-0.06836 0.0918 2.6024 2.6024 0 0 0-0.01367 0.01758 2.6024 2.6024 0 0 0-0.0625 0.09375 2.6024 2.6024 0 0 0-0.01172 0.01758 2.6024 2.6024 0 0 0-0.05859 0.09961 2.6024 2.6024 0 0 0-0.11524 0.22461 2.6024 2.6024 0 0 0-0.0098 0.02344 2.6024 2.6024 0 0 0-0.0059 0.01172 2.6024 2.6024 0 0 0-0.04297 0.10742 2.6024 2.6024 0 0 0-0.02344 0.0625 2.6024 2.6024 0 0 0-0.02148 0.06445 2.6024 2.6024 0 0 0-0.0059 0.02148 2.6024 2.6024 0 0 0-0.06641 0.25391 2.6024 2.6024 0 0 0-2e-3 0.0078 2.6024 2.6024 0 0 0-0.01953 0.11328 2.6024 2.6024 0 0 0-0.01367 0.09766 2.6024 2.6024 0 0 0-0.0039 0.04883 2.6024 2.6024 0 0 0-2e-3 0.0098 2.6024 2.6024 0 0 0-0.0078 0.11328 2.6024 2.6024 0 0 0-0.0039 0.12891 2.6024 2.6024 0 0 0 0 0.0078v143.11a2.6024 2.6024 0 0 0 1.4102 2.3125l85.871 44.236a2.6024 2.6024 0 0 0 2e-3 0 2.6024 2.6024 0 0 0 0.63476 0.22851 2.6024 2.6024 0 0 0 2e-3 0 2.6024 2.6024 0 0 0 0.13086 0.0254 2.6024 2.6024 0 0 0 2e-3 0 2.6024 2.6024 0 0 0 0.81055 6e-3 2.6024 2.6024 0 0 0 0.26562-0.0547 2.6024 2.6024 0 0 0 0.13086-0.0371 2.6024 2.6024 0 0 0 0.25391-0.0957 2.6024 2.6024 0 0 0 0.0547-0.0254l0.0313-0.0137a2.6024 2.6024 0 0 0 0.0352-0.0176l72.795-33.797a2.6024 2.6024 0 0 0 1.5059-2.3594v-2.6016a2.6024 2.6024 0 0 0 3.6602 2.377l46.838-20.816a2.6024 2.6024 0 0 0 1.5449-2.3789v-140.44a2.6024 2.6024 0 0 0-0.12305-0.86914 2.6024 2.6024 0 0 0-2e-3 -0.0039 2.6024 2.6024 0 0 0-0.28711-0.60742 2.6024 2.6024 0 0 0-4e-3 -0.0039 2.6024 2.6024 0 0 0-0.875-0.83594 2.6024 2.6024 0 0 0-0.11329-0.0625 2.6024 2.6024 0 0 0-6e-3 -2e-3 2.6024 2.6024 0 0 0-0.0879-0.04492l-83.267-39.031a2.6024 2.6024 0 0 0-1.0488-0.24609 2.6024 2.6024 0 0 0-0.13477 0zm33.699 61.432 0.20703 0.09375v0.83984a2.6024 2.6024 0 0 0-2e-3 -0.04883 2.6024 2.6024 0 0 0-2e-3 -0.03125 2.6024 2.6024 0 0 0-0.01-0.10547 2.6024 2.6024 0 0 0 0-2e-3 2.6024 2.6024 0 0 0-0.0176-0.13281 2.6024 2.6024 0 0 0-2e-3 -0.01367 2.6024 2.6024 0 0 0-0.0918-0.38086 2.6024 2.6024 0 0 0-6e-3 -0.01758 2.6024 2.6024 0 0 0-0.0762-0.20117z" color="#000000" color-rendering="auto" dominant-baseline="auto" fill="#212121" filter="url(#filter1212)" image-rendering="auto" shape-rendering="auto" solid-color="#000000" stop-color="#000000" style="font-feature-settings:normal;font-variant-alternates:normal;font-variant-caps:normal;font-variant-east-asian:normal;font-variant-ligatures:normal;font-variant-numeric:normal;font-variant-position:normal;font-variation-settings:normal;inline-size:0;isolation:auto;mix-blend-mode:normal;shape-margin:0;shape-padding:0;text-decoration-color:#000000;text-decoration-line:none;text-decoration-style:solid;text-indent:0;text-orientation:mixed;text-transform:none;white-space:normal"/><g transform="matrix(5.2043 0 0 5.2043 555.26 -2.1528e-5)" stroke-linejoin="round" stroke-width="1px"><g transform="translate(-38,-5.5)"><path d="m-45.432 51.5v-28l-16.5-8v27.5z" fill="url(#linearGradient1111)" stroke="url(#linearGradient1113)"/><path d="m-31.432 17.5-16.5-7.5-14 5.5 16.5 8z" fill="url(#linearGradient1115)" stroke="url(#linearGradient1117)"/><path d="m-31.432 45v-27.5l-14 6v28z" fill="url(#linearGradient1119)" stroke="#2185cb"/></g><path d="m-68.432 11.5-16.5-7.5 9.5-3.5 16 7.5z" fill="url(#linearGradient1121)" stroke="#fe9d0f"/><path d="m-68.432 11.5v8l-6 2.5v12.5l6-2.5v7l9-4v-27z" fill="url(#linearGradient1123)" stroke="url(#linearGradient1125)"/></g><g transform="matrix(.61258 0 0 .61258 5.7363 126.06)"><path d="m70.181 57.49a2 2 0 0 0-0.16406 0.06836 2 2 0 0 0-1.252 0.51758l-50.611 50.611a2.0002 2.0002 0 0 0-0.58594 1.4141v40.816a2.0002 2.0002 0 0 0 0.07031 0.23437 2.0002 2.0002 0 0 0 0.17578 0.58594 2.0002 2.0002 0 0 0 0.23438 0.4043 2.0002 2.0002 0 0 0 0.11719 0.20117l51.428 50.611a2 2 0 0 0 1.2402 0.50781 2 2 0 0 0 0.16211 0.0664h38.367a2.0002 2.0002 0 0 0 1.416-0.58594l28.562-28.562 29.027 28.574a2.0002 2.0002 0 0 0 1.4023 0.57422h37.551a2 2 0 0 0 0.15625-0.0645 2 2 0 0 0 1.248-0.50976l50.611-49.795a2.0002 2.0002 0 0 0 0.59765-1.4258v-40a2.0002 2.0002 0 0 0-8e-3 -0.0273 2.0002 2.0002 0 0 0-0.31836-1.0625 2.0002 2.0002 0 0 0-0.0137-0.0176 2.0002 2.0002 0 0 0-0.22461-0.2832l-50.611-52.246a2 2 0 0 0-0.0156-0.0098 2 2 0 0 0-0.55469-0.38477 2 2 0 0 0-0.16992-0.07031 2 2 0 0 0-0.61133-0.13086 2 2 0 0 0-0.0527-0.01172 2 2 0 0 0-0.0137 2e-3 2 2 0 0 0-0.0195-2e-3h-35.918a2.0002 2.0002 0 0 0-1.4199 0.5918l-29.725 29.967-29.469-29.961a2.0002 2.0002 0 0 0-1.4277-0.59766zm0.04687 48.852 26.25 25.842-25.449 25.656-26.262-27.719zm137.13 0.0176 26.568 25.092-26.551 24.838-24.766-25.182z" color="#000000" fill="#212121" filter="url(#filter1281)" stroke-linecap="round" stroke-linejoin="round" stroke-width="4" style="-inkscape-stroke:none"/><g transform="matrix(1.6326 0 0 1.6326 204.17 128.09)" stroke-width="2.45"><g><g stroke-linecap="round" stroke-linejoin="round" stroke-width="2.45"><path d="m-1.1315-44.468 31 32-13 12-18-17" fill="url(#linearGradient45897)" stroke="url(#linearGradient98873)"/><path d="m-1.1315 16.532 31-29v24.5l-31 30.5" fill="url(#linearGradient109036)" stroke="url(#linearGradient135225)"/><path d="m-84.632 42.532-31.5-31 13.5-13 18 19" fill="url(#linearGradient277620)" stroke="url(#linearGradient277669)"/><path d="m-85.132-44.468-31 31v25l31.052-29" fill="url(#linearGradient277928)" stroke="url(#linearGradient278186)"/></g><path d="m-1.1315 42.532h-23l-60.948-60-0.05179-27h24l60 61z" fill="url(#linearGradient156985)"/></g><path d="m-85.132-44.468h24l60 61m0 26h-23l-60.948-60" fill="none" stroke="url(#linearGradient223860)" stroke-linecap="round" stroke-linejoin="round" stroke-width="2.45"/><path d="m-1.1315-17.468-60 60h-23.5v-25l61.5-62h22z" fill="url(#linearGradient2574)"/><path d="m-1.1315-17.468-60 60h-23.5m0-25 61.5-62h22" fill="none" stroke="url(#linearGradient1414)" stroke-linecap="round" stroke-linejoin="round" stroke-width="2.45"/></g></g></g></svg>
